<svg width="24" height="25" viewBox="0 0 24 25" fill="none" xmlns="http://www.w3.org/2000/svg">
    <path d="M12.5 18.418h3.53v5.163l-2.136-.894-1.394.893v-5.162zM4.805 4.183V17.537h5.535V2.5H5.372l-.567.584v1.099z" fill="#C9001F"/>
    <path fill-rule="evenodd" clip-rule="evenodd" d="M17.35 20.35V18h1.3v2.35h.85v1.3h-4v-1.3h1.85z" fill="#2E3F55"/>
    <path fill-rule="evenodd" clip-rule="evenodd" d="M4.9 2.358c.335-.363.76-.508 1.102-.508h12c.27 0 .662.075 1.004.322.376.27.646.716.646 1.328v15.15h-6.5V21h-.559v.65H7.002c-1.08 0-1.773-.585-2.164-1.263-.372-.646-.486-1.392-.486-1.887V4c0-.723.203-1.27.548-1.642zm6.952 17.992h-4.85c-.521 0-.828-.249-1.037-.612-.196-.34-.287-.762-.308-1.088h6.195v1.7zm-6.2-3h2.2V3.15h-1.85s.001 0 0 0a.28.28 0 0 0-.148.091c-.072.078-.202.28-.202.759v13.35zm3.5 0h9.2V3.5a.42.42 0 0 0-.038-.196.212.212 0 0 0-.067-.077.471.471 0 0 0-.245-.077h-8.85v14.2z" fill="#2E3F55"/>
    <path fill-rule="evenodd" clip-rule="evenodd" d="M13.2 22.19v-3.801h-1.4v6.417l2.2-1.467 2.2 1.467v-6.417h-1.4v3.8l-.8-.533-.8.534z" fill="#2E3F55"/>
</svg>
