<svg width="16" height="16" viewBox="0 0 16 16" fill="none" xmlns="http://www.w3.org/2000/svg">
<path fill-rule="evenodd" clip-rule="evenodd" d="M7.19237 1.47502C7.45399 1.32389 7.74985 1.24414 8.05131 1.24414C8.35276 1.24414 8.64862 1.32389 8.91024 1.47502C9.17179 1.62611 9.3899 1.84318 9.54434 2.10443L9.54533 2.10611L15.4256 12.1784C15.5768 12.4471 15.6564 12.7511 15.6573 13.0602C15.6581 13.3692 15.5801 13.6736 15.4304 13.9432C15.2806 14.2128 15.064 14.4385 14.8013 14.5972C14.5385 14.7558 14.239 14.8415 13.9327 14.845L13.9287 14.845H2.16986C1.86361 14.8416 1.56414 14.7558 1.30132 14.5972C1.03857 14.4385 0.821984 14.2128 0.672222 13.9432C0.52249 13.6736 0.444476 13.3692 0.445319 13.0602C0.446163 12.7511 0.525837 12.4472 0.67705 12.1785L0.679812 12.1736L6.55728 2.10611L6.86472 2.28559L6.55827 2.10443C6.71271 1.84318 6.93082 1.62611 7.19237 1.47502ZM7.17161 2.46601C7.17146 2.46626 7.17131 2.46651 7.17116 2.46676L1.29624 12.5299C1.20592 12.6913 1.15781 12.8748 1.1573 13.0621C1.15679 13.2503 1.20434 13.4349 1.29462 13.5974C1.38486 13.7599 1.51435 13.8941 1.66931 13.9876C1.82366 14.0808 1.99829 14.1307 2.17602 14.133H13.9266C14.1043 14.1307 14.279 14.0808 14.4333 13.9876C14.5883 13.8941 14.7178 13.7599 14.808 13.5974C14.8983 13.4349 14.9458 13.2503 14.9453 13.0621C14.9448 12.8748 14.8967 12.6914 14.8064 12.53L8.93145 2.46676C8.93129 2.46649 8.93113 2.46623 8.93098 2.46596C8.83804 2.30907 8.70797 2.18042 8.5541 2.09153C8.40003 2.00253 8.22689 1.95613 8.05131 1.95613C7.87572 1.95613 7.70258 2.00253 7.54851 2.09153C7.39462 2.18043 7.26454 2.30909 7.17161 2.46601Z" fill="white"/>
<path fill-rule="evenodd" clip-rule="evenodd" d="M8.51075 5.4323C8.51075 5.18653 8.31152 4.9873 8.06576 4.9873C7.82 4.9873 7.62077 5.18653 7.62077 5.4323V8.99222C7.62077 9.23798 7.82 9.43721 8.06576 9.43721C8.31152 9.43721 8.51075 9.23798 8.51075 8.99222V5.4323ZM8.06576 10.6615C7.57424 10.6615 7.17578 11.0599 7.17578 11.5514C7.17578 12.043 7.57424 12.4414 8.06576 12.4414H8.0741C8.56562 12.4414 8.96408 12.043 8.96408 11.5514C8.96408 11.0599 8.56562 10.6615 8.0741 10.6615H8.06576Z" fill="white"/>
</svg>
