<svg width="24" height="24" viewBox="0 0 24 24" fill="none" xmlns="http://www.w3.org/2000/svg">
    <path fill-rule="evenodd" clip-rule="evenodd" d="M8.917 2.43A1 1 0 0 1 8.4 3.747 9 9 0 1 0 20.29 15.5a1 1 0 1 1 1.841.779A11 11 0 1 1 7.601 1.914a1 1 0 0 1 1.316.516z" fill="#2E3F55"/>
    <path d="M12.063 2.281v9.455h9.98l-.409-3.093-.759-1.75-2.451-2.452-1.868-1.635-2.51-.525h-1.983z" fill="#C9001F" stroke="#2E3F55"/>
    <path fill-rule="evenodd" clip-rule="evenodd" d="M11.293 1.293A1 1 0 0 1 12 1a11 11 0 0 1 11 11 1 1 0 0 1-1 1H12a1 1 0 0 1-1-1V2a1 1 0 0 1 .293-.707zM13 3.056V11h7.944A9 9 0 0 0 13 3.056z" fill="#2E3F55"/>
</svg>
