<svg width="16" height="16" fill="none" xmlns="http://www.w3.org/2000/svg">
    <path d="M14.611 3H1.39a.351.351 0 0 0-.275.146A.58.58 0 0 0 1 3.5c0 .133.041.26.114.354A.351.351 0 0 0 1.389 4H14.61a.351.351 0 0 0 .275-.146A.58.58 0 0 0 15 3.5a.58.58 0 0 0-.114-.354.351.351 0 0 0-.275-.146zM12.688 7H3.312c-.082 0-.162.053-.22.146A.68.68 0 0 0 3 7.5c0 .133.033.26.092.354.058.093.138.146.22.146h9.376c.082 0 .162-.053.22-.146A.68.68 0 0 0 13 7.5a.68.68 0 0 0-.091-.354c-.06-.093-.139-.146-.222-.146zM10.786 11H5.214c-.057 0-.111.053-.151.146A.933.933 0 0 0 5 11.5c0 .133.023.26.063.354.04.093.094.146.151.146h5.572c.056 0 .111-.053.151-.146A.932.932 0 0 0 11 11.5a.932.932 0 0 0-.063-.354c-.04-.093-.095-.146-.151-.146z" fill="#0096E5"/>
</svg>
