<svg width="16" height="16" viewBox="0 0 16 16" fill="none" xmlns="http://www.w3.org/2000/svg">
<path fill-rule="evenodd" clip-rule="evenodd" d="M2.03906 7.99965C2.03906 7.80083 2.20024 7.63965 2.39906 7.63965H13.5991C13.7979 7.63965 13.9591 7.80083 13.9591 7.99965C13.9591 8.19847 13.7979 8.35965 13.5991 8.35965H2.39906C2.20024 8.35965 2.03906 8.19847 2.03906 7.99965Z" fill="#2E3F55"/>
<path fill-rule="evenodd" clip-rule="evenodd" d="M8.25362 2.14548C8.39421 2.28607 8.39421 2.51401 8.25362 2.6546L2.90818 8.00004L8.25362 13.3455C8.39421 13.4861 8.39421 13.714 8.25362 13.8546C8.11303 13.9952 7.88509 13.9952 7.7445 13.8546L2.1445 8.2546C2.00392 8.11401 2.00392 7.88607 2.1445 7.74548L7.7445 2.14548C7.88509 2.00489 8.11303 2.00489 8.25362 2.14548Z" fill="#2E3F55"/>
</svg>
