<svg width="25" height="24" viewBox="0 0 25 24" fill="none" xmlns="http://www.w3.org/2000/svg">
    <path d="M19.215 3.085C14.646 3.085 11.508.75 9.306.75c-2.201 0-6.825 1.248-6.825 11.24-.858 6.648.124 8.314 8.443 11.009 10.39 2.876 16.382-19.914 8.29-19.914z" fill="#C9C3DE"/>
    <path d="m7.55 14.243.33-1.368 3.517-.165.283.873 1.251 1.416-.165 1.77-4.225.66L6.818 15l.732-.756z" fill="#F970BE"/>
    <path d="M4.736 15.095h2.018l1.358 1.417 1.689.343 1.812-.687 1.359-1.46 1.441.387v6.441H3.253l-1.77-.773v-2.576l.823-1.675 2.43-1.417z" fill="#105183" stroke="#105183"/>
    <path d="M5.487 7.054 5.312 8.99l.727.811.702 1.753 1.756 1.49h1.78l2.283-1.49 1.58-2.564.176-.967L13.79 6.4 12.56 4.544l-2.734-.759-1.88-.392-1.205 1.36-1.254 2.301z" fill="#fff"/>
    <path d="M15.162 22.118c-.014 0-.027.014-.027.029 0 .03.055.03.055 0 0-.015-.013-.029-.028-.029z" fill="#000"/>
    <path d="m13.57 10.92.153-.606c.472-.083.847-.465.92-.965l.212-1.382a1.322 1.322 0 0 0-.49-1.244c.1-.375.152-.763.156-1.155v-.016a4.818 4.818 0 0 0-1.556-3.488.63.63 0 0 0-.233-.486 4.468 4.468 0 0 0-2.775-.98h-.424c-.826 0-1.588.398-2.257.874a.577.577 0 0 0-.519.107C5.717 2.41 5 4.008 4.972 5.568c.003.39.056.775.158 1.151-.37.283-.565.757-.494 1.25l.21 1.382c.078.501.453.881.923.963.036.15.086.346.152.606.177.7.56 1.324 1.085 1.786v1.31l-3.532 1.05C2.038 15.385 1 16.735 1 18.285v2c0 1.05.818 1.905 1.825 1.905h11.65a3.03 3.03 0 0 1 .302-.15v-1.094H2.825c-.35 0-.632-.296-.632-.66v-2.001c0-.97.649-1.815 1.543-2.007l.043-.01 2.745-.816.222.288c.733.956 1.826 1.503 3 1.503 1.175 0 2.268-.547 3.001-1.503l.22-.288 1.808.537v-1.294l-2.29-.679v-1.311a3.54 3.54 0 0 0 1.085-1.786zm-3.824 5.436a2.927 2.927 0 0 1-2.332-1.168l.034-.01c.438-.103.751-.514.751-.99v-.73a3.252 3.252 0 0 0 1.547.394c.53 0 1.06-.131 1.546-.394v.73c0 .476.313.887.75.99l.037.01a2.93 2.93 0 0 1-2.333 1.168zm2.672-5.752a2.256 2.256 0 0 1-1.075 1.416l-.573.32a2.087 2.087 0 0 1-2.048 0l-.574-.32a2.252 2.252 0 0 1-1.073-1.418c-.215-.844-.247-.99-.25-1.006a.603.603 0 0 0-.587-.51h-.225l-.198-1.31c-.005-.031.017-.05.033-.06.005.002.012.002.018.002a.425.425 0 0 0 .396-.28l.901-2.357a2.064 2.064 0 0 0 1.633-.592l.508.363c.875.629 1.942.853 2.971.636l.884 1.828v.002l.004.007c.015.032.034.06.056.085.1.148.244.256.412.3.02.006.051.029.046.063l-.2 1.313h-.222a.593.593 0 0 0-.585.501c-.005.025-.039.171-.252 1.017zM17.13 19.71h6.583c.199 0 .36-.168.36-.375v-8.22a.368.368 0 0 0-.36-.376H20.76v1.867h-2.038v-1.867H15.77a.365.365 0 0 0-.358.353v6.83c.786.321 1.408.97 1.718 1.789z" fill="#105183"/>
    <path d="M24.484 20.37h-7.82c-.195-.983-.939-1.758-1.881-1.96V7.297a.5.5 0 0 0-.49-.51h-1.12a.5.5 0 0 0-.488.51.5.5 0 0 0 .489.51h.631v10.601c-1.226.264-2.116 1.497-1.897 2.894.165 1.05.974 1.894 1.98 2.065 1.34.229 2.523-.7 2.775-1.978h7.848a.501.501 0 0 0 .488-.537.516.516 0 0 0-.515-.483zm-10.19 1.198c-.364 0-.66-.309-.66-.688 0-.38.296-.688.66-.688.364 0 .66.308.66.688 0 .38-.296.688-.66.688z" fill="#F970BE"/>
    <path d="M15.85 20.706c0 1.015-.741 1.697-1.487 1.697-.746 0-1.487-.682-1.487-1.697 0-1.015.74-1.697 1.487-1.697.746 0 1.486.682 1.486 1.697z" fill="#fff" stroke="#F970BE" stroke-width="2"/>
    <path d="M21.981 10.74h-3.858v3.818l1.956-1.509 1.902 1.509v-3.819z" fill="#fff"/>
</svg>
