<svg width="24" height="24" viewBox="0 0 24 24" fill="none" xmlns="http://www.w3.org/2000/svg">
    <g clip-path="url(#ruqh1c3mla)">
        <path d="M13.091 6.393a.214.214 0 0 1-.215-.217.258.258 0 0 0-.257-.257.214.214 0 0 1 0-.429.258.258 0 0 0 .257-.257.214.214 0 0 1 .429 0 .258.258 0 0 0 .257.257.214.214 0 0 1 0 .429.258.258 0 0 0-.257.257.215.215 0 0 1-.214.217z" fill="#2A719B"/>
        <path d="M17.156.308C12.237 1.636 8.198.097 5.827.737c-2.37.64-6.994 3.294-4.162 13.784.96 7.229 2.49 8.693 12.21 9.104 12 0 11.992-25.67 3.28-23.317z" fill="#C9C3DE"/>
        <path d="M4.72 13.99a2.25 2.25 0 0 1-1.644-.682 2.252 2.252 0 0 1-.682-1.645 2.252 2.252 0 0 1 .682-1.646 2.25 2.25 0 0 1 1.644-.68 2.251 2.251 0 0 1 1.646.68 2.252 2.252 0 0 1 .681 1.646 2.25 2.25 0 0 1-.681 1.645c-.05.05-.1.096-.152.14a2.24 2.24 0 0 1-1.494.541zM7.107 18.996H2.453a1.714 1.714 0 0 1-1.228-.447 1.604 1.604 0 0 1-.473-1.214c0-.194.006-.387.02-.57a5.726 5.726 0 0 1 .227-1.224c.065-.2.149-.391.252-.573.103-.183.23-.35.38-.496.159-.147.345-.263.547-.34.222-.087.46-.13.698-.13a.71.71 0 0 1 .378.16c.115.076.248.161.394.255.16.096.331.17.51.224.181.06.37.093.561.1h.065c.21 0 .42-.034.621-.1.178-.053.349-.129.509-.224l.394-.254a.706.706 0 0 1 .378-.16c.238-.002.475.042.697.129.203.078.389.194.547.343.15.146.278.313.38.496.104.181.188.373.252.572a4.8 4.8 0 0 1 .15.614c.037.202.063.406.078.61.014.184.02.376.02.57a1.604 1.604 0 0 1-.476 1.215 1.716 1.716 0 0 1-1.228.447v-.003z" fill="#7FAED2" stroke="#487BA1" stroke-width=".5"/>
        <path d="M6.474 15.47h-.776a.259.259 0 0 0-.259.259v.775c0 .143.116.259.259.259h.776a.259.259 0 0 0 .258-.259v-.775a.259.259 0 0 0-.258-.259z" fill="#548BAD"/>
        <path d="M19.107 13.99a2.25 2.25 0 0 1-1.645-.682 2.25 2.25 0 0 1-.681-1.645 2.251 2.251 0 0 1 .68-1.646 2.25 2.25 0 0 1 1.646-.68 2.253 2.253 0 0 1 1.646.68 2.251 2.251 0 0 1 .68 1.646v.089a2.247 2.247 0 0 1-.68 1.556 2.253 2.253 0 0 1-1.646.681zM21.494 18.996h-4.653a1.715 1.715 0 0 1-1.228-.447 1.606 1.606 0 0 1-.474-1.214c0-.194.007-.387.02-.57a5.7 5.7 0 0 1 .077-.611c.037-.208.087-.413.15-.614.065-.199.15-.39.253-.573.102-.182.23-.349.38-.495.159-.148.345-.263.547-.34.223-.087.46-.13.698-.13.139.015.27.071.378.16.115.076.247.162.394.255.16.096.33.171.51.225.18.059.37.093.56.1h.062c.212-.001.423-.035.625-.1.178-.054.349-.13.508-.225.148-.091.28-.18.396-.254a.706.706 0 0 1 .377-.16c.238-.002.475.042.697.129.203.078.388.194.547.343.15.146.278.313.38.496.103.181.188.373.252.572.064.201.114.407.151.614.037.202.063.406.078.61.013.184.02.376.02.572a1.604 1.604 0 0 1-.477 1.213 1.714 1.714 0 0 1-1.228.448v-.004z" fill="#7FAED2" stroke="#487BA1" stroke-width=".5"/>
        <path d="M7.68 9.08a.167.167 0 0 1-.168-.167.202.202 0 0 0-.2-.201.168.168 0 1 1 0-.335.202.202 0 0 0 .2-.201.168.168 0 1 1 .336 0 .202.202 0 0 0 .2.2.168.168 0 0 1 0 .336.202.202 0 0 0-.2.2.167.167 0 0 1-.168.168z" fill="#FF7EB8"/>
        <path d="M17.385 9.087a.168.168 0 0 1-.119-.286l.336-.336a.168.168 0 0 1 .237.237l-.335.336a.168.168 0 0 1-.119.049zM4.164 8.996a.167.167 0 0 1-.12-.286l.336-.336a.168.168 0 1 1 .237.238l-.335.335a.167.167 0 0 1-.118.049z" fill="#2A719B"/>
        <path d="M19.5 20.241v3.378h-15v-3.378a3.56 3.56 0 0 1 3.56-3.56h1.806v.067a2.12 2.12 0 1 0 4.24 0v-.067h1.832a3.559 3.559 0 0 1 3.562 3.56z" fill="#105183" stroke="#BEE2F8" stroke-width=".4"/>
        <path d="M17.747 6.89a5.828 5.828 0 0 1-.082 4.468 10.078 10.078 0 0 1-2.225 3.176c-.413.42-.858.808-1.332 1.159v-.829a4.329 4.329 0 0 0 2.134-3.733V9.387l.005-.41a2.905 2.905 0 0 0-1.274-2.469 2.593 2.593 0 0 0-1.078-.417 8.147 8.147 0 0 1-6.046 4.243H7.84a.105.105 0 0 0-.105.105v.746a4.251 4.251 0 0 0 2.133 3.688v.623a7.688 7.688 0 0 1-4.014-6.471 6.073 6.073 0 0 1 .618-2.955 6.385 6.385 0 0 1 3.964-3.215 4.239 4.239 0 0 1 3.131.263 4.377 4.377 0 0 1 2.024 2.225l.03.09c1.037-.247 1.775.596 2.125 1.456z" fill="#105183"/>
        <path d="M9.866 14.873a4.25 4.25 0 0 1-2.134-3.688v-.747a.105.105 0 0 1 .105-.105h.009a8.148 8.148 0 0 0 6.046-4.243c.386.057.755.2 1.078.418a2.906 2.906 0 0 1 1.274 2.468l-.005.41v1.742a4.33 4.33 0 0 1-2.134 3.733 4.231 4.231 0 0 1-4.239.011z" fill="#fff"/>
        <path d="M14.106 16.68v.068a2.12 2.12 0 1 1-4.24 0v-1.875a4.231 4.231 0 0 0 4.24-.01v1.818z" fill="#F970BE"/>
        <path d="M21.235 15.47h-.775a.259.259 0 0 0-.259.259v.775c0 .143.116.259.259.259h.775a.259.259 0 0 0 .259-.259v-.775a.259.259 0 0 0-.259-.259z" fill="#548BAD"/>
    </g>
    <defs>
        <clipPath id="ruqh1c3mla">
            <path fill="#fff" d="M0 0h24v24H0z"/>
        </clipPath>
    </defs>
</svg>
