<svg width="24" height="24" viewBox="0 0 24 24" fill="none" xmlns="http://www.w3.org/2000/svg">
    <path d="M19.605 3.085C14.65 3.085 11.246.75 8.858.75S1.455 1.998 1.455 11.99c-.93 6.648.135 8.314 9.158 11.009C21.88 25.875 28.38 3.085 19.605 3.085z" fill="#C9C3DE"/>
    <mask id="u22y6bynja" fill="#fff">
        <path fill-rule="evenodd" clip-rule="evenodd" d="M18.309 6.418a2 2 0 0 0-2-2H5.796a2 2 0 0 0-2 2v13.457a2 2 0 0 0 2 2h10.513a2 2 0 0 0 2-2V6.418z"/>
    </mask>
    <path fill-rule="evenodd" clip-rule="evenodd" d="M18.309 6.418a2 2 0 0 0-2-2H5.796a2 2 0 0 0-2 2v13.457a2 2 0 0 0 2 2h10.513a2 2 0 0 0 2-2V6.418z" fill="#F970BE"/>
    <path d="M16.309 1.418a5 5 0 0 1 5 5h-6a1 1 0 0 0 1 1v-6zm-10.513 0h10.513v6H5.796v-6zm-5 5a5 5 0 0 1 5-5v6a1 1 0 0 0 1-1h-6zm0 13.457V6.418h6v13.457h-6zm5 5a5 5 0 0 1-5-5h6a1 1 0 0 0-1-1v6zm10.513 0H5.796v-6h10.513v6zm5-5a5 5 0 0 1-5 5v-6a1 1 0 0 0-1 1h6zm0-13.457v13.457h-6V6.418h6z" fill="#F970BE" mask="url(#u22y6bynja)"/>
    <path fill="#fff" d="m20.021 6.159-3.537-3.767-3.978 3.737 3.538 3.766z"/>
    <path fill="#105183" d="M18.309 8.683H8.946V13.6h9.363z"/>
    <path fill="#fff" d="M18.309 14.233H8.946V17.6h9.363z"/>
    <path d="M5.694 3.931h.35a2.46 2.46 0 0 1 2.453-2.335h7.497c.163 0 .303.07.42.187l4.18 4.25a.547.547 0 0 1 .164.397v10.696a2.46 2.46 0 0 1-2.336 2.452v.35a2.452 2.452 0 0 1-2.452 2.453H5.694a2.452 2.452 0 0 1-2.452-2.452V6.383a2.452 2.452 0 0 1 2.452-2.452zm3.854 8.758c0 .327.257.584.584.584h6.539a.578.578 0 0 0 .584-.584.578.578 0 0 0-.584-.584h-6.54a.578.578 0 0 0-.583.584zm0 3.274c0 .327.257.584.584.584h6.539a.578.578 0 0 0 .584-.584.578.578 0 0 0-.584-.584h-6.54a.578.578 0 0 0-.583.584zm4.787-6.66a.578.578 0 0 0-.584.583c0 .327.257.584.584.584h2.336a.578.578 0 0 0 .584-.584.578.578 0 0 0-.584-.583h-2.336zm4.624-3.27L16.554 3.58v2.101c0 .187.164.35.35.35h2.055zM4.41 19.929c0 .7.585 1.284 1.285 1.284H15.97c.7 0 1.285-.584 1.285-1.284v-.35H8.497a2.452 2.452 0 0 1-2.452-2.453V5.1h-.35c-.701 0-1.285.584-1.285 1.284V19.93z" fill="#105183"/>
    <mask id="vm2hu0082b" maskUnits="userSpaceOnUse" x="9.019" y="5.025" width="8.485" height="8.485" fill="#000">
        <path fill="#fff" d="M9.019 5.025h8.485v8.485H9.019z"/>
        <path fill-rule="evenodd" clip-rule="evenodd" d="M13.192 6.51a.093.093 0 0 1 .159.068v2.681h2.681a.093.093 0 1 1 0 .186h-2.681v2.681a.094.094 0 0 1-.055.096.093.093 0 0 1-.108-.023.095.095 0 0 1-.023-.073V9.445h-2.682a.094.094 0 0 1-.066-.161.094.094 0 0 1 .066-.025h2.682V6.578a.095.095 0 0 1 .027-.069z"/>
    </mask>
    <path fill-rule="evenodd" clip-rule="evenodd" d="M13.192 6.51a.093.093 0 0 1 .159.068v2.681h2.681a.093.093 0 1 1 0 .186h-2.681v2.681a.094.094 0 0 1-.055.096.093.093 0 0 1-.108-.023.095.095 0 0 1-.023-.073V9.445h-2.682a.094.094 0 0 1-.066-.161.094.094 0 0 1 .066-.025h2.682V6.578a.095.095 0 0 1 .027-.069z" fill="#fff"/>
    <path d="m13.192 6.51-.499-.492.008-.007.49.498zm.048-.026-.13-.688.13.688zm.054.006-.276.644.276-.644zm.042.035.587-.38-.587.38zm.015.053h-.7v-.012l.7.012zm0 2.681v.7a.7.7 0 0 1-.7-.7h.7zm2.681 0 .075.696a.701.701 0 0 1-.075.004v-.7zm.039.004.215-.666h.001l-.216.666zm.034.02.468-.521-.468.52zm.023.031.639-.285-.64.285zm.008.038h.7-.7zm-.008.038-.64-.285.64.285zm-.023.031.467.521-.467-.52zm-.034.02.216.666h-.002l-.214-.666zm-.039.004v-.7c.025 0 .05.001.074.004l-.074.696zm-2.681 0h-.7a.7.7 0 0 1 .7-.7v.7zm0 2.681-.696.074a.688.688 0 0 1-.004-.074h.7zm-.004.04.666.213v.002l-.666-.216zm-.02.033.521.467-.52-.467zm-.031.023-.286-.64.286.64zm-.108-.023-.52.469v-.002l.52-.467zm-.02-.034-.665.217v-.001l.666-.216zm-.003-.039h.7a.69.69 0 0 1-.004.075l-.696-.075zm0-2.681v-.7a.7.7 0 0 1 .7.7h-.7zm-2.682 0-.01-.7h.01v.7zm-.053-.015-.384.584h-.001l.385-.584zm-.013-.146-.483-.507.008-.007.475.514zm.066-.025v.7h-.02l.02-.7zm2.682 0h.7a.7.7 0 0 1-.7.7v-.7zm0-2.681.7-.02v.02h-.7zm.006-.037.652.256-.652-.256zm-.47-.53a.793.793 0 0 1 .41-.215l.259 1.376a.607.607 0 0 0 .313-.164l-.982-.997zm.41-.215a.794.794 0 0 1 .459.05l-.552 1.288c.111.047.233.06.352.038l-.26-1.376zm.459.05a.794.794 0 0 1 .353.299l-1.175.76c.066.102.16.181.27.229l.552-1.287zm.353.299c.086.132.13.287.128.444l-1.4-.023a.607.607 0 0 0 .097.34l1.175-.761zm.128.433v2.681h-1.4V6.578h1.4zm-.7 1.981h2.681v1.4h-2.681v-1.4zm2.606.004a.793.793 0 0 1 .33.034l-.431 1.332c.08.026.166.035.251.026l-.15-1.392zm.33.034c.105.035.203.09.286.165l-.936 1.041c.063.057.137.1.218.126l.432-1.332zm.286.165a.793.793 0 0 1 .194.267l-1.279.57a.606.606 0 0 0 .149.204l.936-1.041zm.194.267a.795.795 0 0 1 .069.323h-1.4c0 .085.017.169.052.247l1.279-.57zm.069.323c0 .11-.024.221-.07.323l-1.278-.57a.607.607 0 0 0-.052.247h1.4zm-.07.323a.791.791 0 0 1-.194.267l-.935-1.041a.606.606 0 0 0-.149.204l1.279.57zm-.194.267a.793.793 0 0 1-.285.165l-.432-1.332a.606.606 0 0 0-.218.126l.935 1.041zm-.287.165c-.105.034-.216.046-.327.034l.148-1.392a.606.606 0 0 0-.25.025l.43 1.333zm-.253.038h-2.681v-1.4h2.681v1.4zm-1.981-.7v2.681h-1.4V9.445h1.4zm-.004 2.608c.011.11 0 .221-.034.326l-1.333-.428c-.025.08-.034.165-.025.249l1.392-.147zm-.034.328a.794.794 0 0 1-.165.285l-1.042-.935a.607.607 0 0 0-.125.218l1.332.432zm-.165.285a.792.792 0 0 1-.267.195l-.57-1.279a.605.605 0 0 0-.204.15l1.041.934zm-.267.195a.794.794 0 0 1-.323.069v-1.4a.606.606 0 0 0-.248.053l.572 1.278zm-.323.069a.793.793 0 0 1-.323-.069l.57-1.279a.607.607 0 0 0-.247-.052v1.4zm-.323-.069a.795.795 0 0 1-.266-.193l1.039-.938a.605.605 0 0 0-.203-.148l-.57 1.279zm-.268-.195a.794.794 0 0 1-.164-.284l1.332-.434a.605.605 0 0 0-.126-.217l-1.042.935zm-.164-.285a.793.793 0 0 1-.034-.33l1.392.15c.01-.085 0-.17-.026-.252l-1.332.432zm-.038-.255V9.445h1.4v2.681h-1.4zm.7-1.981h-2.682v-1.4h2.682v1.4zm-2.67 0a.793.793 0 0 1-.45-.13l.77-1.17a.606.606 0 0 0-.343-.1l.023 1.4zm-.45-.131a.793.793 0 0 1-.297-.362l1.295-.53a.607.607 0 0 0-.227-.277l-.771 1.169zm-.297-.362a.793.793 0 0 1-.042-.466l1.369.292a.607.607 0 0 0-.032-.357l-1.295.531zm-.042-.466a.794.794 0 0 1 .228-.409L10.9 9.79a.606.606 0 0 0 .175-.312l-1.37-.292zm.236-.416a.793.793 0 0 1 .561-.21l-.04 1.399a.606.606 0 0 0 .43-.161l-.95-1.028zm.541-.21h2.682v1.4h-2.682v-1.4zm1.982.7V6.577h1.4v2.681h-1.4zm0-2.663a.795.795 0 0 1 .055-.313l1.303.513a.608.608 0 0 0 .042-.239l-1.4.039zm.055-.313c.04-.1.098-.19.173-.266l.998.983a.606.606 0 0 0 .132-.204l-1.303-.513z" fill="#fff" mask="url(#vm2hu0082b)"/>
    <path d="M3.255 6.197c.374-2.103 1.868-2.321 2.746-2.238l.034-.024v1.17L4.782 6.197v13.678l2.53.346 9.456-.138.09-.498h1.57c.104 2.043-1.413 2.727-2.184 2.813h-9.99c-2.209.113-2.92-1.404-2.999-2.177V6.197z" fill="#F970BE"/>
</svg>
