<svg width="24" height="24" viewBox="0 0 24 24" fill="none" xmlns="http://www.w3.org/2000/svg">
    <path d="M18.74 3.085C13.783 3.085 10.38.75 7.992.75S.59 1.998.59 11.99c-.93 6.648.135 8.314 9.158 11.009 11.268 2.876 17.768-19.914 8.991-19.914z" fill="#C9C3DE"/>
    <path d="M23.681 22.943s-1.632-11.538-1.85-13.71h-5.963s-.065-.196-.275 1.986a3220.57 3220.57 0 0 0-1.048 11.724h9.136z" fill="#548BAD"/>
    <path d="M15.959 7.258v2.038h5.83V7.258h-5.83z" fill="#fff" stroke="#fff" stroke-width=".8"/>
    <path d="M4.331 10.84c.044.298.847-3.131 1.056-6.3h3.142a39.162 39.162 0 0 0 1.026 6.486c.81 3.082-5.224 1.561-5.224 1.561s-.044-2.046 0-1.747z" fill="#548BAD"/>
    <path d="M5.31 4.464v2.038h3.306V4.593l-3.306-.13z" fill="#fff" stroke="#fff" stroke-width=".8"/>
    <path d="M8.697 3H5.229c-.479 0-.867.453-.867 1.013 0 .56.388 1.013.867 1.013h3.468c.479 0 .867-.454.867-1.013 0-.56-.388-1.013-.867-1.013zM21.99 4.35h-6.358c-.798 0-1.444.755-1.444 1.687s.646 1.688 1.444 1.688h6.358c.798 0 1.445-.756 1.445-1.688 0-.932-.647-1.687-1.445-1.687z" fill="#105183"/>
    <path d="M2.628 10.425h15.027c.153 0 .3.071.409.198.108.127.169.298.169.477v2.7H2.05v-2.7c0-.179.06-.35.17-.477a.54.54 0 0 1 .408-.198z" fill="#F970BE"/>
    <path d="M1.472 12.45h16.761c.307 0 .6.142.818.396.216.253.338.596.338.954v9.45H.316V13.8c0-.358.122-.701.339-.954.217-.254.51-.396.817-.396z" fill="#105183"/>
    <path d="M4.71 15.15H2.86c-.128 0-.231.121-.231.27v2.161c0 .15.103.27.231.27h1.85c.127 0 .23-.12.23-.27v-2.16c0-.15-.103-.27-.23-.27zM8.177 15.15h-1.85c-.127 0-.23.121-.23.27v2.161c0 .15.103.27.23.27h1.85c.128 0 .232-.12.232-.27v-2.16c0-.15-.104-.27-.232-.27zM16.268 15.15h-2.427c-.128 0-.232.121-.232.27v2.161c0 .15.104.27.232.27h2.427c.128 0 .231-.12.231-.27v-2.16c0-.15-.103-.27-.231-.27zM12.223 15.15h-1.85c-.127 0-.23.121-.23.27v2.161c0 .15.103.27.23.27h1.85c.128 0 .231-.12.231-.27v-2.16c0-.15-.103-.27-.23-.27z" fill="#fff"/>
    <path d="M15.922 19.875H3.207c-.32 0-.578.303-.578.676 0 .373.259.675.578.675h12.715c.32 0 .578-.302.578-.675 0-.373-.259-.675-.578-.675z" fill="#F970BE"/>
</svg>
