<svg width="24" height="24" viewBox="0 0 24 24" fill="none" xmlns="http://www.w3.org/2000/svg">
    <path d="M4.395 3.085C9.35 3.085 12.754.75 15.142.75s7.402 1.248 7.402 11.24c.931 6.648-.134 8.314-9.157 11.009C2.12 25.875-4.38 3.085 4.395 3.085z" fill="#CFDCE6"/>
    <path d="m6.656 6.09-2.887.903-.476 5.915h3.363V6.09zM19.05 6.147l-8.937.745v15.04l7.84-2.873-.18-6.1 2.625-5.534-1.348-1.278z" fill="#fff"/>
    <path d="m1.633 7.657.718-.22 1.731-.551v4.453l1.985-.397V6.269l1.773-.551 1.795-.552c.02 0 .042 0 .042-.022h.042a.768.768 0 0 1 .317 0h.042c.021 0 .043 0 .043.022l3.335 1.036c-.422.463-.76.992-1.013 1.588l-1.71-.53v13.602l6.27-1.962v-3.968h.02c.613 0 1.204-.132 1.732-.33v4.96c0 .396-.253.749-.633.881l-7.98 2.513c-.085.022-.17.044-.254.044-.084 0-.169-.022-.253-.044l-8.002-2.513c-.38-.11-.633-.463-.633-.882V8.54c0-.419.253-.772.633-.882z" fill="#105183"/>
    <path d="M17.021 3.001C20.315 3.001 23 5.804 23 9.243c0 3.44-2.685 6.243-5.979 6.243-3.293 0-5.978-2.804-5.978-6.243 0-3.476 2.685-6.242 5.978-6.242zm-3.007 6.43 2.255 2.354 3.76-3.925-1.146-1.196-2.614 2.729-1.11-1.159-1.145 1.196z" fill="#F970BE"/>
</svg>
