<svg width="16" height="16" viewBox="0 0 16 16" fill="none" xmlns="http://www.w3.org/2000/svg">
<path d="M12.5477 2.3457L3.43664 2.34657C2.63889 2.34657 1.99219 2.94867 1.99219 3.6914L1.99903 13C1.99903 13.7427 2.64573 14.3448 3.44347 14.3448L12.5546 14.344C13.3523 14.344 13.999 13.7419 13.999 12.9991L13.9922 3.69053C13.9922 2.9478 13.3455 2.3457 12.5477 2.3457Z" stroke="white" stroke-width="0.75" stroke-linecap="round" stroke-linejoin="round"/>
<path d="M10 1.5V4" stroke="white" stroke-width="0.75" stroke-linecap="round" stroke-linejoin="round"/>
<path d="M6 1.5V4" stroke="white" stroke-width="0.75" stroke-linecap="round" stroke-linejoin="round"/>
<path d="M1.99219 6H13.8811" stroke="white" stroke-width="0.75" stroke-linecap="round" stroke-linejoin="round"/>
<path fill-rule="evenodd" clip-rule="evenodd" d="M6.09598 8.00003C6.07799 8.00017 6.06045 8.00566 6.04559 8.01582C6.03074 8.02597 6.01924 8.04033 6.01256 8.05705C6.00588 8.07377 6.00432 8.09211 6.00808 8.10973C6.01184 8.12734 6.02076 8.14343 6.03369 8.15595L7.87259 9.99733L6.03369 11.8387C6.0238 11.8467 6.0157 11.8567 6.00992 11.868C6.00414 11.8793 6.0008 11.8918 6.00013 11.9045C5.99945 11.9172 6.00146 11.9299 6.00601 11.9418C6.01056 11.9536 6.01755 11.9644 6.02654 11.9734C6.03552 11.9824 6.0463 11.9894 6.05816 11.994C6.07003 11.9985 6.08272 12.0005 6.09541 11.9999C6.1081 11.9992 6.12051 11.9959 6.13182 11.9901C6.14314 11.9843 6.15311 11.9762 6.16109 11.9663L8 10.1249L9.83891 11.9663C9.84689 11.9762 9.85686 11.9843 9.86818 11.9901C9.87949 11.9959 9.8919 11.9992 9.90459 11.9999C9.91728 12.0005 9.92997 11.9985 9.94184 11.994C9.9537 11.9894 9.96448 11.9824 9.97346 11.9734C9.98245 11.9644 9.98944 11.9536 9.99399 11.9418C9.99854 11.9299 10.0005 11.9172 9.99987 11.9045C9.9992 11.8918 9.99586 11.8793 9.99008 11.868C9.9843 11.8567 9.9762 11.8467 9.96631 11.8387L8.12741 9.99733L9.96631 8.15595C9.97942 8.14326 9.98841 8.12691 9.99208 8.10903C9.99576 8.09114 9.99397 8.07257 9.98693 8.05572C9.9799 8.03888 9.96795 8.02455 9.95265 8.01461C9.93736 8.00467 9.91942 7.99959 9.90119 8.00003C9.87753 8.00096 9.85517 8.01114 9.83891 8.02838L8 9.86975L6.16109 8.02838C6.15271 8.0195 6.14261 8.01242 6.13142 8.00755C6.12023 8.00268 6.10818 8.00012 6.09598 8.00003Z" stroke="white" stroke-width="0.5"/>
</svg>
