<svg width="16" height="16" viewBox="0 0 16 16" fill="none" xmlns="http://www.w3.org/2000/svg">
<path fill-rule="evenodd" clip-rule="evenodd" d="M2.28086 2.00007C2.22822 2.00048 2.1769 2.01655 2.13342 2.04623C2.08995 2.07591 2.05629 2.11785 2.03674 2.16673C2.01719 2.2156 2.01264 2.26919 2.02365 2.32067C2.03466 2.37214 2.06075 2.41917 2.09858 2.45576L7.47984 7.83703L2.09858 13.2183C2.06965 13.2416 2.04595 13.2708 2.02903 13.3039C2.01211 13.3371 2.00235 13.3734 2.00037 13.4105C1.9984 13.4476 2.00426 13.4848 2.01757 13.5195C2.03089 13.5542 2.05136 13.5857 2.07765 13.612C2.10395 13.6383 2.13548 13.6588 2.17021 13.6721C2.20493 13.6854 2.24206 13.6913 2.2792 13.6893C2.31633 13.6873 2.35264 13.6776 2.38576 13.6607C2.41887 13.6437 2.44806 13.62 2.47142 13.5911L7.85267 8.20986L13.2339 13.5911C13.2573 13.62 13.2865 13.6437 13.3196 13.6607C13.3527 13.6776 13.389 13.6873 13.4261 13.6893C13.4633 13.6913 13.5004 13.6854 13.5351 13.6721C13.5699 13.6588 13.6014 13.6383 13.6277 13.612C13.654 13.5857 13.6745 13.5542 13.6878 13.5195C13.7011 13.4848 13.7069 13.4476 13.705 13.4105C13.703 13.3734 13.6932 13.3371 13.6763 13.3039C13.6594 13.2708 13.6357 13.2416 13.6068 13.2183L8.22551 7.83703L13.6068 2.45576C13.6451 2.41868 13.6714 2.37088 13.6822 2.31862C13.6929 2.26636 13.6877 2.21207 13.6671 2.16284C13.6465 2.11361 13.6116 2.07174 13.5668 2.0427C13.522 2.01366 13.4695 1.99881 13.4162 2.00007C13.347 2.00281 13.2815 2.03255 13.2339 2.08293L7.85267 7.46418L2.47142 2.08293C2.44687 2.057 2.41734 2.0363 2.38459 2.02206C2.35185 2.00782 2.31656 2.00034 2.28086 2.00007Z" fill="white" stroke="white" stroke-width="0.375"/>
</svg>
