<svg width="20" height="20" viewBox="0 0 20 20" fill="none" xmlns="http://www.w3.org/2000/svg">
<path fill-rule="evenodd" clip-rule="evenodd" d="M2.85108 2.50009C2.78528 2.50061 2.72113 2.52069 2.66678 2.55779C2.61244 2.59489 2.57037 2.64732 2.54593 2.70842C2.52149 2.7695 2.5158 2.83649 2.52957 2.90084C2.54333 2.96518 2.57594 3.02397 2.62323 3.0697L9.3498 9.79629L2.62323 16.5229C2.58707 16.552 2.55744 16.5885 2.53629 16.6299C2.51514 16.6714 2.50294 16.7168 2.50047 16.7631C2.498 16.8095 2.50533 16.856 2.52197 16.8994C2.53862 16.9428 2.5642 16.9821 2.59707 17.015C2.62994 17.0479 2.66935 17.0735 2.71277 17.0901C2.75617 17.1068 2.80258 17.1141 2.849 17.1116C2.89542 17.1091 2.9408 17.097 2.9822 17.0759C3.02359 17.0546 3.06008 17.025 3.08928 16.9889L9.81584 10.2623L16.5424 16.9889C16.5716 17.025 16.6081 17.0546 16.6495 17.0759C16.6909 17.097 16.7363 17.1091 16.7826 17.1116C16.8291 17.1141 16.8755 17.1068 16.9189 17.0901C16.9624 17.0735 17.0018 17.0479 17.0346 17.015C17.0675 16.9821 17.0931 16.9428 17.1098 16.8994C17.1264 16.856 17.1336 16.8095 17.1313 16.7631C17.1288 16.7168 17.1165 16.6714 17.0954 16.6299C17.0743 16.5885 17.0446 16.552 17.0085 16.5229L10.2819 9.79629L17.0085 3.0697C17.0564 3.02335 17.0893 2.9636 17.1028 2.89828C17.1161 2.83295 17.1096 2.76509 17.0839 2.70355C17.0581 2.64202 17.0145 2.58968 16.9585 2.55338C16.9025 2.51708 16.8369 2.49852 16.7703 2.50009C16.6838 2.50352 16.6019 2.54069 16.5424 2.60367L9.81584 9.33023L3.08928 2.60367C3.05859 2.57126 3.02168 2.54538 2.98074 2.52758C2.93982 2.50978 2.8957 2.50043 2.85108 2.50009Z" fill="#2E3F55" stroke="#2E3F55" stroke-width="0.375"/>
</svg>
