<svg xmlns="http://www.w3.org/2000/svg" width="16" height="16" fill="none" viewBox="0 0 16 16">
    <path fill="#fff" fill-rule="evenodd" d="M4.15 2.193C5.315 1.415 6.685 1 8.087 1c1.878.002 3.678.75 5.006 2.077 1.328 1.328 2.075 3.128 2.077 5.006 0 1.402-.415 2.772-1.193 3.937-.779 1.165-1.885 2.074-3.18 2.61-1.295.537-2.72.677-4.094.404s-2.637-.948-3.628-1.94c-.99-.99-1.666-2.253-1.939-3.627-.273-1.375-.133-2.8.404-4.094.536-1.295 1.444-2.401 2.61-3.18zm.193 11.494c1.108.74 2.41 1.135 3.744 1.135 1.786-.003 3.498-.713 4.761-1.977 1.263-1.263 1.973-2.975 1.975-4.762 0-1.333-.395-2.635-1.135-3.744-.74-1.108-1.793-1.971-3.025-2.481-1.231-.51-2.586-.644-3.893-.384s-2.508.903-3.45 1.845c-.943.943-1.584 2.144-1.844 3.45-.26 1.308-.126 2.663.384 3.894.51 1.231 1.374 2.284 2.483 3.024zm2.856-10.03h.45v4.387l3.093 2.475-.333.223L7.258 8.22c-.038-.03-.058-.07-.059-.111V3.657z" clip-rule="evenodd"/>
    <path fill="#fff" d="M8.087 1V.8 1zM4.15 2.193l.11.167-.11-.167zm8.943.884l-.142.142.142-.142zm2.077 5.006h.2-.2zm-4.373 6.547l-.077-.184.077.184zm-7.722-1.535l-.141.141.141-.141zM1.54 5.373l.184.076-.184-.076zm6.547 9.449v.2-.2zm-3.744-1.135l.11-.166-.11.166zm8.505-.842l.142.142-.142-.142zm1.975-4.762h.2-.2zm-4.16-6.225l-.076.184.076-.184zM6.77 1.474l-.04-.196.04.196zM3.32 3.32l-.142-.141.142.141zM1.476 6.77l-.196-.038.196.039zm.384 3.894l.185-.076-.185.076zm5.79-7.006h.2v-.2h-.2v.2zm-.45 0v-.2H7v.2h.2zm.45 4.387h-.2v.097l.075.06.124-.157zm3.092 2.475l.111.166.227-.152-.213-.17-.125.156zm-.333.223l-.125.156.114.092.122-.082-.111-.166zM7.258 8.22l-.126.155.126-.155zm-.059-.111H7h.2zM8.087.8c-1.441 0-2.85.427-4.048 1.227l.222.333C5.393 1.603 6.725 1.2 8.087 1.2V.8zm5.147 2.136C11.87 1.57 10.018.802 8.087.8v.4c1.824.002 3.574.728 4.864 2.019l.283-.283zm2.136 5.147c-.002-1.93-.77-3.782-2.136-5.147l-.283.283c1.29 1.29 2.017 3.04 2.019 4.865l.4-.001zm-1.227 4.048c.8-1.198 1.227-2.607 1.227-4.048h-.4c0 1.362-.403 2.694-1.16 3.826l.333.222zm-3.27 2.684c1.332-.551 2.47-1.486 3.27-2.684l-.333-.222c-.756 1.132-1.831 2.015-3.09 2.537l.154.37zm-4.209.415c1.414.281 2.878.137 4.21-.415l-.154-.37c-1.258.522-2.642.658-3.978.393l-.078.392zm-3.73-1.994c1.019 1.02 2.317 1.713 3.73 1.994l.078-.392c-1.336-.266-2.562-.922-3.525-1.885l-.283.283zM.94 9.506c.28 1.413.975 2.711 1.994 3.73l.283-.283c-.963-.963-1.62-2.19-1.885-3.525l-.392.078zm.415-4.21C.803 6.628.659 8.092.94 9.506l.392-.078c-.265-1.336-.129-2.72.392-3.979l-.37-.153zm2.684-3.269c-1.199.8-2.133 1.938-2.684 3.27l.37.152c.52-1.258 1.403-2.333 2.536-3.09l-.222-.332zm4.048 12.595c-1.294 0-2.558-.383-3.633-1.101l-.222.332c1.14.762 2.482 1.169 3.855 1.169v-.4zm4.62-1.918c-1.226 1.226-2.887 1.915-4.62 1.918v.4c1.84-.003 3.602-.735 4.903-2.035l-.283-.283zm1.916-4.62c-.001 1.732-.69 3.394-1.916 4.62l.283.283c1.3-1.3 2.031-3.064 2.033-4.904h-.4zM13.521 4.45c.719 1.075 1.102 2.339 1.102 3.632h.4c0-1.372-.407-2.714-1.17-3.855l-.332.223zm-2.934-2.409c1.195.495 2.216 1.333 2.934 2.409l.333-.223c-.763-1.14-1.846-2.03-3.114-2.555l-.153.37zm-3.778-.371c1.268-.253 2.583-.123 3.778.371l.153-.37c-1.268-.524-2.663-.662-4.01-.394l.079.393zM3.46 3.46c.914-.915 2.08-1.538 3.348-1.79l-.078-.393c-1.346.268-2.583.93-3.553 1.9l.283.283zM1.672 6.809c.252-1.269.875-2.434 1.79-3.348l-.284-.283c-.97.97-1.63 2.207-1.898 3.553l.392.078zm.373 3.778c-.495-1.195-.625-2.51-.373-3.778L1.28 6.73c-.268 1.346-.13 2.74.395 4.009l.37-.153zm2.409 2.934c-1.076-.719-1.914-1.74-2.41-2.934l-.369.153c.526 1.268 1.415 2.351 2.557 3.113l.222-.332zM7.65 3.457H7.2v.4h.45v-.4zm.2 4.587V3.657h-.4v4.387h.4zm3.017 2.318L7.774 7.888l-.25.313 3.093 2.474.25-.313zm-.347.546l.333-.223-.223-.333-.333.224.223.332zM7.133 8.376l3.15 2.522.25-.312-3.15-2.522-.25.312zm-.134-.266c0 .112.058.205.133.265l.252-.31s.003.002.007.01c.005.008.008.02.008.033L7 8.11zm0-4.453v4.452h.4V3.657H7z"/>
</svg>
