<svg width="12" height="12" fill="none" xmlns="http://www.w3.org/2000/svg">
    <path fill-rule="evenodd" clip-rule="evenodd" d="M1.71 1.5a.199.199 0 0 0-.136.342L5.61 5.878 1.574 9.914a.198.198 0 0 0 .135.353.199.199 0 0 0 .145-.074L5.89 6.157l4.035 4.036a.2.2 0 0 0 .296.016.199.199 0 0 0-.016-.295L6.17 5.878l4.036-4.036a.2.2 0 0 0-.03-.31.199.199 0 0 0-.113-.032.2.2 0 0 0-.137.062L5.89 5.598 1.854 1.562A.199.199 0 0 0 1.71 1.5z" fill="#2E3F55" stroke="#2E3F55" stroke-width=".375" opacity=".8"/>
</svg>
