<svg width="16" height="16" viewBox="0 0 16 16" fill="none" xmlns="http://www.w3.org/2000/svg">
<path d="M10 13.75V11.875C10 11.6679 10.1679 11.5 10.375 11.5C10.5821 11.5 10.75 11.6679 10.75 11.875V14.125C10.75 14.3321 10.5821 14.5 10.375 14.5H1.375C1.16789 14.5 1 14.3321 1 14.125V5.125C1 4.91789 1.16789 4.75 1.375 4.75H3.625C3.83211 4.75 4 4.91789 4 5.125C4 5.33211 3.83211 5.5 3.625 5.5H1.75V13.75H10ZM5.125 10.75C4.91789 10.75 4.75 10.5821 4.75 10.375V1.375C4.75 1.16789 4.91789 1 5.125 1H14.125C14.3321 1 14.5 1.16789 14.5 1.375V10.375C14.5 10.5821 14.3321 10.75 14.125 10.75H5.125ZM5.5 10H13.75V1.75H5.5V10Z" fill="white"/>
</svg>
