<svg width="101" height="100" viewBox="0 0 101 100" fill="none" xmlns="http://www.w3.org/2000/svg">
    <path fill-rule="evenodd" clip-rule="evenodd" d="M64.872 17.745a35.313 35.313 0 0 0-41.216 9.312 35.312 35.312 0 0 0-8.392 20.62l-2.182-.144 2.182.144a35.312 35.312 0 0 0 5.612 21.543L19.3 70.243l1.577-1.023a35.314 35.314 0 0 0 64.936-19.2v-3.449a2.188 2.188 0 0 1 4.376 0v3.452a39.685 39.685 0 0 1-28.435 38.036 39.69 39.69 0 0 1-50.855-40.67 39.687 39.687 0 0 1 55.755-33.64 2.187 2.187 0 0 1-1.78 3.996z" fill="#24C11E"/>
    <path fill-rule="evenodd" clip-rule="evenodd" d="M89.548 18.472c.855.854.855 2.239.001 3.094l-37.5 37.537a2.188 2.188 0 0 1-3.094 0l-11.25-11.25A2.187 2.187 0 1 1 40.8 44.76l9.702 9.703 35.953-35.99a2.187 2.187 0 0 1 3.094-.001z" fill="#24C11E"/>
</svg>
