<svg width="44" height="44" viewBox="0 0 44 44" fill="none" xmlns="http://www.w3.org/2000/svg">
<path d="M35.0404 36.6916L35.07 37.1601H35.5394H36.2561C37.0908 37.1601 37.7678 37.8481 37.7438 38.6652L37.7436 38.6726V38.6799C37.7436 39.5115 37.0552 40.1998 36.2237 40.1998H7.51986C6.68834 40.1998 6 39.5115 6 38.6799C6 37.8484 6.68834 37.1601 7.51986 37.1601H8.23659H8.70584L8.73558 36.6918C9.11363 30.738 13.3859 25.3628 17.3295 22.8156C17.4133 22.7652 17.5531 22.6799 17.6758 22.5961C17.7372 22.5541 17.8066 22.5042 17.8649 22.4542C17.8928 22.4303 17.9322 22.3944 17.9689 22.3501C17.9872 22.3279 18.0143 22.2925 18.0387 22.2459C18.0606 22.2041 18.1 22.1167 18.1 21.9998V21.6726L17.8002 21.5416L17.8002 21.5416L17.8002 21.5416L17.8001 21.5416L17.7996 21.5414L17.7969 21.5402L17.7858 21.5353L17.7438 21.5166C17.708 21.5006 17.6588 21.4783 17.6049 21.4532C17.4931 21.401 17.3846 21.3475 17.3271 21.3136C13.3233 18.7686 9.05098 13.3313 8.7359 7.31338L8.71109 6.83953H8.23659H7.55244C6.72092 6.83953 6.03258 6.15119 6.03258 5.31967C6.03258 4.48814 6.72092 3.7998 7.55244 3.7998H36.2235C37.0551 3.7998 37.7434 4.48814 37.7434 5.31967C37.7434 6.15119 37.0551 6.83953 36.2235 6.83953H35.5394H35.0648L35.0401 7.31342C34.7253 13.3327 30.4517 18.7701 26.4472 21.3147C26.0912 21.532 26.0154 21.8899 26.0154 22.0653C26.0154 22.2409 26.0913 22.5991 26.4477 22.8163C30.4186 25.3276 34.6621 30.7014 35.0404 36.6916ZM13.9109 37.2576L13.9183 37.2578H13.9257H32.1159H32.6159V36.7578V36.6927V36.6753L32.6147 36.658C32.2094 30.8255 28.0842 25.6811 24.2409 23.2405C23.8265 22.9715 23.5914 22.5415 23.5914 22.0649C23.5914 21.9036 23.6962 21.5502 24.1211 20.9767C24.5331 20.4207 25.2029 19.7155 26.2166 18.8621C28.1747 17.239 29.68 15.8267 30.7319 14.0827C31.7906 12.3272 32.3672 10.2755 32.5498 7.40339L32.5836 6.87166H32.0508H11.6932H11.1605L11.1942 7.40325C11.3784 10.3122 12.0913 12.3639 13.2126 14.1073C14.2788 15.7651 15.7054 17.1257 17.3107 18.6568C17.3744 18.7176 17.4385 18.7787 17.5028 18.8401L17.5126 18.8494L17.5229 18.8582C18.5164 19.7086 19.1774 20.4144 19.5856 20.9719C20.0068 21.5472 20.1129 21.9027 20.1129 22.0649C20.1129 22.6034 19.9356 23.0063 19.5942 23.2446C15.7524 25.687 11.6313 30.8288 11.2269 36.6581L11.1909 37.177L11.7109 37.1924L13.9109 37.2576Z" fill="#FF5626" stroke="#FF5626"/>
<path d="M27.8469 11.3448V11.3535L27.8067 11.5915C27.8055 11.5936 27.8044 11.5958 27.8033 11.5979C27.1577 12.8063 26.1328 13.813 24.9727 14.7069L24.9707 14.7084C24.4676 15.1001 24.0156 15.491 23.5743 15.8728C23.4869 15.9411 23.4019 16.0091 23.3175 16.0766C23.1464 16.2136 22.9777 16.3486 22.7954 16.4798C22.5458 16.6593 22.316 16.7968 22.1065 16.8738C22.0377 16.882 21.9807 16.8961 21.9506 16.9036C21.9474 16.9044 21.9446 16.9051 21.942 16.9057C21.9176 16.9116 21.9045 16.9144 21.899 16.9156C21.8798 16.9156 21.8658 16.9155 21.8527 16.9151C21.8383 16.9146 21.8296 16.9139 21.8243 16.9133L21.8022 16.9026L21.769 16.8918C21.5536 16.8219 21.311 16.6711 21.0337 16.4657C20.9422 16.398 20.8384 16.3173 20.731 16.2338C20.5599 16.1007 20.3798 15.9606 20.2269 15.8554C19.7484 15.4822 19.3158 15.1081 18.8728 14.7248L18.8621 14.7155L18.8508 14.7069C17.7037 13.823 16.7308 12.8715 16.0356 11.6253C15.9986 11.5087 15.9766 11.3987 15.9766 11.3448C15.9766 11.2985 15.9817 11.2596 15.989 11.2276C16.0142 11.2186 16.0474 11.2086 16.0898 11.1982C16.2124 11.1684 16.3517 11.1493 16.5087 11.1278C16.5225 11.1259 16.5364 11.124 16.5505 11.1221H27.3569C27.5132 11.1221 27.6659 11.1336 27.7832 11.1621C27.8081 11.1682 27.8286 11.1744 27.8452 11.1802C27.8467 11.2206 27.8469 11.2722 27.8469 11.3448ZM15.9376 11.2503C15.9376 11.2503 15.938 11.2499 15.939 11.2493L15.9376 11.2503Z" fill="#FF5626" stroke="#FF5626"/>
<path d="M20.8865 34.3676H14.9482C15.1489 33.9591 15.3391 33.556 15.5263 33.1593C16.7058 30.6599 17.7656 28.4143 20.5562 26.6564L20.5563 26.6565L20.5656 26.6504C20.8722 26.4475 21.2259 26.2425 21.5963 26.0281L21.6024 26.0245L21.6083 26.0209C21.6083 26.0209 21.6158 26.0166 21.6336 26.0102C21.6524 26.0035 21.678 25.9961 21.7105 25.9894C21.7764 25.9759 21.857 25.9678 21.9426 25.9678C22.0282 25.9678 22.1088 25.9759 22.1747 25.9894C22.2072 25.9961 22.2328 26.0035 22.2516 26.0102C22.2692 26.0165 22.2768 26.0208 22.2769 26.0209L22.2828 26.0245L22.289 26.0281C22.4655 26.1303 22.6318 26.233 22.8048 26.3398L22.8076 26.3415C22.9757 26.4453 23.1501 26.5531 23.3367 26.6613C26.5969 28.7174 27.7475 31.0284 28.956 34.3676H22.9068H21.8966H20.8865Z" fill="#FF5626" stroke="#FF5626"/>
</svg>
