<svg width="16" height="16" viewBox="0 0 16 16" fill="none" xmlns="http://www.w3.org/2000/svg">
<path fill-rule="evenodd" clip-rule="evenodd" d="M1.39508 8.0913C1.40326 8.10608 1.41203 8.12181 1.4214 8.13846C1.49663 8.2722 1.6098 8.4649 1.75961 8.69687C2.05968 9.16148 2.50446 9.78009 3.08315 10.3974C4.24693 11.6387 5.91082 12.8322 7.99827 12.8322C10.0857 12.8322 11.7496 11.6387 12.9134 10.3974C13.4921 9.78009 13.9369 9.16148 14.2369 8.69687C14.3867 8.46489 14.4999 8.2722 14.5751 8.13846C14.5845 8.12181 14.5933 8.10607 14.6015 8.0913C14.5933 8.07652 14.5845 8.06079 14.5751 8.04414C14.4999 7.9104 14.3867 7.7177 14.2369 7.48573C13.9369 7.02111 13.4921 6.4025 12.9134 5.78523C11.7496 4.54386 10.0857 3.35039 7.99827 3.35039C5.91082 3.35039 4.24693 4.54386 3.08315 5.78522C2.50446 6.4025 2.05968 7.02111 1.75962 7.48573C1.6098 7.7177 1.49663 7.9104 1.4214 8.04414C1.41203 8.06079 1.40326 8.07652 1.39508 8.0913ZM14.9983 8.0913C15.3113 7.93477 15.3113 7.93465 15.3112 7.9345L15.3104 7.93298L15.3086 7.92935L15.3021 7.91666C15.2965 7.90584 15.2885 7.89032 15.278 7.87042C15.2569 7.83064 15.2259 7.77331 15.1852 7.70096C15.1039 7.55629 14.9834 7.35126 14.8249 7.10596C14.5085 6.61603 14.0385 5.96192 13.424 5.30647C12.2015 4.00237 10.3654 2.65039 7.99827 2.65039C5.63117 2.65039 3.79507 4.00237 2.57248 5.30647C1.95799 5.96192 1.488 6.61603 1.17159 7.10596C1.01316 7.35126 0.892669 7.5563 0.811296 7.70096C0.770596 7.77331 0.739643 7.83064 0.718589 7.87043C0.708061 7.89032 0.700004 7.90584 0.694437 7.91667L0.687956 7.92935L0.68612 7.93299L0.685554 7.93411C0.685481 7.93426 0.685223 7.93478 0.998272 8.0913L0.685554 7.93411C0.636287 8.03265 0.635955 8.14929 0.685223 8.24783L0.998272 8.0913C0.685223 8.24783 0.68515 8.24768 0.685223 8.24783L0.686121 8.24961L0.687957 8.25325L0.694438 8.26593C0.700004 8.27676 0.708061 8.29228 0.718589 8.31218C0.739644 8.35196 0.770596 8.40929 0.811296 8.48164C0.892669 8.6263 1.01316 8.83134 1.17159 9.07664C1.488 9.56656 1.95799 10.2207 2.57248 10.8761C3.79507 12.1802 5.63117 13.5322 7.99827 13.5322C10.3653 13.5322 12.2015 12.1802 13.424 10.8761C14.0385 10.2207 14.5085 9.56657 14.8249 9.07664C14.9834 8.83134 15.1039 8.62631 15.1852 8.48164C15.2259 8.40929 15.2569 8.35196 15.278 8.31218C15.2885 8.29228 15.2965 8.27676 15.3021 8.26594L15.3086 8.25325L15.3104 8.24962L15.311 8.24849C15.3111 8.24834 15.3113 8.24783 14.9983 8.0913ZM14.9983 8.0913L15.311 8.24849C15.3603 8.14995 15.3605 8.03304 15.3112 7.9345L14.9983 8.0913Z" fill="#2E3F55"/>
<path fill-rule="evenodd" clip-rule="evenodd" d="M11.2415 5.75765C11.3754 5.89154 11.3754 6.10863 11.2415 6.24252L7.11654 10.3675C6.98265 10.5014 6.76556 10.5014 6.63167 10.3675L4.75667 8.49252C4.62278 8.35863 4.62278 8.14154 4.75667 8.00765C4.89056 7.87375 5.10765 7.87375 5.24154 8.00765L6.87411 9.64021L10.7567 5.75765C10.8906 5.62375 11.1076 5.62375 11.2415 5.75765Z" fill="#2E3F55"/>
</svg>
