<svg width="16" height="16" viewBox="0 0 16 16" fill="none" xmlns="http://www.w3.org/2000/svg">
<path fill-rule="evenodd" clip-rule="evenodd" d="M6.60411 1.56661C6.77133 1.40203 7.03869 1.39625 7.21292 1.55345L11.3226 5.26126C11.5107 5.43101 11.5171 5.72312 11.3365 5.90083L11.0399 6.19283C10.8911 6.3393 10.6595 6.36207 10.4847 6.2474L10.3648 6.16873C9.84327 5.82651 9.14637 5.9944 8.83085 6.52422C8.25971 7.48326 7.79546 8.13318 6.85597 8.68093C6.25565 9.03094 6.03296 9.89793 6.58178 10.4381C6.74192 10.5957 6.74192 10.8531 6.58178 11.0107L6.30728 11.2809C6.14006 11.4455 5.8727 11.4513 5.69846 11.294L1.58881 7.58624C1.40066 7.41649 1.39428 7.12438 1.57485 6.94667L1.87152 6.65467C2.02034 6.5082 2.25191 6.48543 2.42667 6.6001L2.4893 6.6412C3.0443 7.00536 3.76825 6.78591 4.07839 6.23563C4.63302 5.25152 5.17919 4.68093 6.0721 4.17317C6.68706 3.82347 6.88499 2.95603 6.34131 2.42092C6.17472 2.25696 6.17472 1.98923 6.34131 1.82527L6.60411 1.56661ZM7.64463 1.07975C7.21749 0.694376 6.56207 0.708538 6.15215 1.112L5.88934 1.37066C5.46848 1.78489 5.46848 2.4613 5.88934 2.87552C6.09123 3.07423 6.04876 3.44993 5.75321 3.61799C4.74681 4.19029 4.12208 4.85075 3.51784 5.92287C3.375 6.17631 3.06125 6.25051 2.84311 6.10737L2.78048 6.06627C2.35208 5.78518 1.78438 5.84099 1.41955 6.20006L1.12288 6.49206C0.680239 6.92772 0.695868 7.64381 1.15711 8.05995L5.26676 11.7678C5.6939 12.1531 6.34932 12.139 6.75924 11.7355L7.03374 11.4653C7.44816 11.0574 7.44816 10.3914 7.03374 9.98349C6.83818 9.79101 6.87784 9.40933 7.18089 9.23264C7.36047 9.12794 7.52491 9.01957 7.67699 8.90714L11.9744 14.704C12.4125 15.2949 13.2795 15.3698 13.815 14.863L14.8241 13.9081C15.3641 13.397 15.3175 12.5327 14.7229 12.0818C13.8361 11.4095 12.3874 10.3097 11.1203 9.34175C10.1572 8.60608 9.31309 7.95701 8.89257 7.62473C9.06069 7.38257 9.22006 7.12504 9.38374 6.8502C9.51511 6.62961 9.80073 6.56457 10.011 6.70256L10.1309 6.78123C10.5593 7.06232 11.127 7.00651 11.4918 6.64744L11.7885 6.35544C12.2311 5.91978 12.2155 5.20369 11.7543 4.78755L7.64463 1.07975ZM8.50406 8.13277C8.39869 8.25653 8.28756 8.3759 8.16838 8.49124L12.4963 14.3292C12.7036 14.6088 13.1137 14.6442 13.3671 14.4045L14.3761 13.4496C14.6323 13.2072 14.6095 12.7985 14.3287 12.5856C13.4418 11.9131 11.9923 10.8128 10.7242 9.8441C9.79664 9.1355 8.95278 8.48731 8.50406 8.13277Z" fill="white"/>
</svg>
