<svg width="20" height="20" viewBox="0 0 20 20" fill="none" xmlns="http://www.w3.org/2000/svg">
<path fill-rule="evenodd" clip-rule="evenodd" d="M12.8744 3.54891C11.4833 2.92907 9.92908 2.77551 8.44355 3.11114C6.95803 3.44678 5.62079 4.25363 4.63129 5.41135L4.63129 5.41135C3.64177 6.56907 3.05302 8.01564 2.95281 9.53531L2.51639 9.50653L2.95281 9.53531C2.8526 11.055 3.24632 12.5664 4.07524 13.844L3.75985 14.0486L4.07524 13.844C4.90416 15.1216 6.12387 16.0971 7.55247 16.6249C8.98104 17.1527 10.542 17.2045 12.0025 16.7727C13.463 16.3408 14.7447 15.4485 15.6566 14.2287C16.5685 13.0088 17.0617 11.527 17.0625 10.0041V9.31429C17.0625 9.07266 17.2584 8.87679 17.5 8.87679C17.7416 8.87679 17.9375 9.07266 17.9375 9.31429V10.0043L17.9375 10.0045C17.9366 11.7162 17.3823 13.3817 16.3574 14.7526C15.3325 16.1235 13.892 17.1264 12.2506 17.6118L12.2505 17.6118C10.6092 18.097 8.85483 18.0388 7.24923 17.4456C5.64365 16.8524 4.27282 15.7561 3.34121 14.3203C2.40958 12.8844 1.96708 11.1857 2.07971 9.47774C2.19233 7.76979 2.85403 6.144 3.96614 4.84285C5.07823 3.54169 6.58114 2.63487 8.25072 2.25766C9.92029 1.88044 11.6671 2.05303 13.2306 2.74966C13.4513 2.848 13.5505 3.10664 13.4521 3.32735C13.3538 3.54806 13.0951 3.64725 12.8744 3.54891Z" fill="#2E3F55"/>
<path fill-rule="evenodd" clip-rule="evenodd" d="M17.8092 3.69439C17.9801 3.86516 17.9803 4.14217 17.8095 4.31311L10.3095 11.8206C10.2275 11.9027 10.1162 11.9489 10.0001 11.9489C9.88403 11.9489 9.7727 11.9028 9.69063 11.8208L7.44064 9.57077C7.26979 9.39991 7.26979 9.1229 7.44064 8.95205C7.6115 8.78119 7.88851 8.78119 8.05936 8.95205L9.99983 10.8925L17.1905 3.6947C17.3613 3.52376 17.6383 3.52362 17.8092 3.69439Z" fill="#2E3F55"/>
</svg>
