<svg width="16" height="16" viewBox="0 0 16 16" fill="none" xmlns="http://www.w3.org/2000/svg">
<path d="M12.3619 1.60059H5.24281C4.71387 1.60059 4.2847 2.02976 4.2847 2.5587V4.28294H3.36046C2.83152 4.28294 2.40234 4.71212 2.40234 5.24106V13.4425C2.40234 13.9714 2.83152 14.4006 3.36046 14.4006H9.67952C10.2085 14.4006 10.6376 13.9714 10.6376 13.4425V11.7182H12.3619C12.8908 11.7182 13.32 11.2891 13.32 10.7601V2.5587C13.32 2.02976 12.8908 1.60059 12.3619 1.60059ZM9.8847 13.4425C9.8847 13.5554 9.79246 13.6476 9.67952 13.6476H3.36046C3.24752 13.6476 3.15528 13.5554 3.15528 13.4425V5.24106C3.15528 5.12812 3.24752 5.03588 3.36046 5.03588H9.67952C9.79246 5.03588 9.8847 5.12812 9.8847 5.24106V13.4425ZM12.5671 10.7601C12.5671 10.8731 12.4748 10.9653 12.3619 10.9653H10.6376V5.24106C10.6376 4.71212 10.2085 4.28294 9.67952 4.28294H5.03764V2.5587C5.03764 2.44576 5.12987 2.35353 5.24281 2.35353H12.3619C12.4748 2.35353 12.5671 2.44576 12.5671 2.5587V10.7601Z" fill="white"/>
</svg>
