<svg xmlns="http://www.w3.org/2000/svg" width="16" height="17" fill="none" viewBox="0 0 16 17">
    <path stroke="#2E3F55" stroke-linecap="round" stroke-linejoin="round" stroke-width=".8" d="M1 4.11h14M4.889 4.111V2.556c0-.413.163-.809.455-1.1.292-.292.688-.456 1.1-.456h3.111c.413 0 .808.164 1.1.456.292.291.456.687.456 1.1V4.11m2.333 0V15c0 .413-.164.808-.456 1.1-.291.292-.687.456-1.1.456H4.112c-.413 0-.808-.164-1.1-.456-.292-.292-.456-.687-.456-1.1V4.111h10.89zM6.444 8v4.667M9.555 8v4.667"/>
</svg>
