<svg width="16" height="16" viewBox="0 0 16 16" fill="none" xmlns="http://www.w3.org/2000/svg">
<path d="M1.27734 3.55762H3.10428H14.5374" stroke="#2E3F55" stroke-width="0.875" stroke-linecap="round" stroke-linejoin="round"/>
<path d="M5.04636 3.558V2.49674C5.04636 2.15287 5.18296 1.8231 5.42611 1.57994C5.66927 1.33679 5.99904 1.2002 6.34291 1.2002H9.70268C10.0466 1.2002 10.3764 1.33679 10.6195 1.57994C10.8626 1.8231 10.9993 2.15287 10.9993 2.49674V3.558H5.04636ZM12.944 3.558V13.1054C12.944 13.4494 12.8074 13.7791 12.5643 14.0223C12.3211 14.2654 11.9913 14.402 11.6475 14.402H4.3981C4.05424 14.402 3.72446 14.2654 3.48131 14.0223C3.23816 13.7791 3.10156 13.4494 3.10156 13.1054V3.558H12.944Z" stroke="#2E3F55" stroke-width="0.875" stroke-linecap="round" stroke-linejoin="round"/>
<path d="M6.34766 7.27148V11.1611" stroke="#2E3F55" stroke-linecap="round" stroke-linejoin="round"/>
<path d="M10.0039 7.27051V11.1602" stroke="#2E3F55" stroke-linecap="round" stroke-linejoin="round"/>
</svg>
