<svg xmlns="http://www.w3.org/2000/svg" width="44" height="44" fill="none" viewBox="0 0 44 44">
    <path stroke="#C9001F" stroke-linecap="round" stroke-linejoin="round" d="M4.125 11H38.5M13.901 10.999V8.248c0-.892.354-1.746.985-2.377.63-.63 1.485-.984 2.376-.984h8.71c.891 0 1.746.354 2.377.984.63.63.984 1.485.984 2.377v2.751H13.901zm20.474 0v24.75c0 .892-.354 1.747-.985 2.377-.63.63-1.485.985-2.376.985H12.22c-.892 0-1.747-.354-2.377-.985-.63-.63-.985-1.485-.985-2.376V10.999h25.516zM17.262 20.625v10.083M26.738 20.625v10.083"/>
</svg>
