<svg width="24" height="24" fill="none" xmlns="http://www.w3.org/2000/svg">
    <path d="M5.214 21.2h13.572A2.214 2.214 0 0 0 21 18.986V4.214A2.214 2.214 0 0 0 18.786 2H5.214A2.214 2.214 0 0 0 3 4.214v14.772c0 1.223.991 2.214 2.214 2.214z" fill="#00A7FF"/>
    <path d="M7.528 13.906c.298-.096.535-.229.71-.4.233-.226.412-.521.537-.885.103-.299.154-.654.154-1.066 0-.47-.055-.864-.164-1.185a2.187 2.187 0 0 0-.48-.812 1.676 1.676 0 0 0-.755-.462C7.31 9.033 6.994 9 6.577 9h-1.85v5.011H6.63c.375 0 .674-.035.897-.105zm-1.788-.738v-3.32h.455c.412 0 .689.016.83.048a.959.959 0 0 1 .469.236c.123.115.219.277.287.484.068.208.103.505.103.893s-.034.693-.103.918c-.07.225-.157.386-.266.483a.925.925 0 0 1-.408.208 2.727 2.727 0 0 1-.611.049H5.74v.001zM12.022 14.182c.735 0 1.323-.229 1.764-.686.439-.457.659-1.09.659-1.898 0-.816-.222-1.453-.664-1.911C13.338 9.229 12.747 9 12.009 9a2.75 2.75 0 0 0-1.08.197 1.96 1.96 0 0 0-.647.451 2.353 2.353 0 0 0-.467.688c-.153.347-.23.774-.23 1.285 0 .798.22 1.424.66 1.878.439.456 1.03.683 1.777.683zm-1.012-3.888c.255-.286.59-.429 1.008-.429.417 0 .752.142 1.004.424.25.282.377.711.377 1.285 0 .581-.13 1.017-.388 1.308-.26.29-.59.436-.993.436s-.735-.146-.998-.439c-.262-.293-.393-.723-.393-1.29 0-.578.127-1.009.383-1.295zM17.338 14.181c.537 0 .98-.133 1.33-.398.35-.265.6-.672.75-1.219l-.98-.311c-.084.366-.223.635-.416.807a1.02 1.02 0 0 1-.694.256c-.364 0-.661-.135-.89-.403-.227-.268-.341-.72-.341-1.354 0-.597.115-1.028.347-1.296.23-.266.533-.399.904-.399.269 0 .497.075.686.226.188.15.312.355.37.615l1.002-.239c-.114-.401-.285-.709-.513-.923C18.51 9.181 18.012 9 17.399 9c-.701 0-1.268.23-1.698.691-.431.462-.646 1.109-.646 1.943 0 .788.214 1.41.643 1.864.427.456.974.683 1.64.683z" fill="#fff"/>
</svg>
