<svg width="16" height="16" viewBox="0 0 16 16" fill="none" xmlns="http://www.w3.org/2000/svg">
<path d="M4.11905 8.48985L8.46462 12.5795C8.62454 12.7354 8.71303 12.944 8.71103 13.1607C8.70903 13.3773 8.6167 13.5845 8.45393 13.7377C8.29116 13.8909 8.07098 13.9778 7.84079 13.9797C7.61061 13.9815 7.38886 13.8983 7.22328 13.7478L2.25703 9.07397C2.09245 8.91903 2 8.70893 2 8.48985C2 8.27077 2.09245 8.06066 2.25703 7.90573L7.22328 3.23192C7.38886 3.08142 7.61061 2.99815 7.84079 3.00003C8.07098 3.00191 8.29116 3.0888 8.45393 3.24199C8.6167 3.39517 8.70903 3.60239 8.71103 3.81902C8.71303 4.03564 8.62454 4.24434 8.46462 4.40017L4.11905 8.48985ZM9.38641 8.48985L13.732 12.5795C13.8158 12.6557 13.8827 12.7469 13.9287 12.8477C13.9747 12.9485 13.999 13.0569 14 13.1666C14.001 13.2763 13.9788 13.3851 13.9346 13.4867C13.8905 13.5882 13.8253 13.6804 13.7429 13.758C13.6604 13.8356 13.5624 13.8969 13.4545 13.9385C13.3466 13.98 13.231 14.0009 13.1145 14C12.9979 13.999 12.8827 13.9762 12.7756 13.9329C12.6685 13.8896 12.5716 13.8267 12.4906 13.7478L7.5244 9.07397C7.35982 8.91903 7.26736 8.70893 7.26736 8.48985C7.26736 8.27077 7.35982 8.06066 7.5244 7.90573L12.4906 3.23192C12.6562 3.08142 12.878 2.99815 13.1082 3.00003C13.3383 3.00191 13.5585 3.0888 13.7213 3.24199C13.8841 3.39517 13.9764 3.60239 13.9784 3.81902C13.9804 4.03564 13.8919 4.24434 13.732 4.40017L9.38641 8.48985Z" fill="#2E3F55"/>
</svg>
