<svg width="16" height="16" viewBox="0 0 16 16" fill="none" xmlns="http://www.w3.org/2000/svg">
<path d="M3.67292 14.3171H12.3508C12.7293 14.3171 13.0922 14.1783 13.3598 13.9313C13.6274 13.6843 13.7777 13.3493 13.7777 13V3.35923C13.7777 3.32042 13.761 3.2832 13.7312 3.25575C13.7015 3.22831 13.6612 3.21289 13.6191 3.21289C13.5771 3.21289 13.5368 3.22831 13.507 3.25575C13.4773 3.2832 13.4606 3.32042 13.4606 3.35923V13C13.4606 13.2717 13.3437 13.5322 13.1356 13.7244C12.9274 13.9165 12.6452 14.0244 12.3508 14.0244H3.67292C3.37859 14.0244 3.09632 13.9165 2.8882 13.7244C2.68008 13.5322 2.56316 13.2717 2.56316 13V3.35923C2.56316 3.32042 2.54646 3.2832 2.51673 3.25575C2.48699 3.22831 2.44667 3.21289 2.40462 3.21289C2.36258 3.21289 2.32225 3.22831 2.29252 3.25575C2.26279 3.2832 2.24609 3.32042 2.24609 3.35923V13C2.24609 13.3493 2.39641 13.6843 2.664 13.9313C2.93158 14.1783 3.2945 14.3171 3.67292 14.3171Z" fill="#2E3F55" stroke="#2E3F55" stroke-width="0.5"/>
<path d="M8 1.64258C7.9641 1.64258 7.92966 1.65652 7.90427 1.68133C7.87889 1.70614 7.86462 1.73979 7.86462 1.77488V9.19133L5.22343 6.6115C5.19754 6.58982 5.16422 6.5785 5.13015 6.57978C5.09608 6.58107 5.06376 6.59487 5.03965 6.61843C5.01554 6.642 5.00142 6.67358 5.0001 6.70688C4.99878 6.74017 5.01037 6.77273 5.03255 6.79804L7.90388 9.60411C7.92925 9.62875 7.96356 9.64258 7.99932 9.64258C8.03509 9.64258 8.0694 9.62875 8.09476 9.60411L10.9674 6.79804C10.9896 6.77273 11.0012 6.74017 10.9999 6.70688C10.9986 6.67358 10.9845 6.642 10.9603 6.61843C10.9362 6.59487 10.9039 6.58107 10.8698 6.57978C10.8358 6.5785 10.8025 6.58982 10.7766 6.6115L8.13538 9.19133V1.77488C8.13538 1.73979 8.12111 1.70614 8.09573 1.68133C8.07034 1.65652 8.0359 1.64258 8 1.64258Z" fill="#2E3F55" stroke="#2E3F55" stroke-width="0.5"/>
</svg>
