<svg width="16" height="16" viewBox="0 0 16 16" fill="none" xmlns="http://www.w3.org/2000/svg">
<path fill-rule="evenodd" clip-rule="evenodd" d="M7.99745 1.16113C8.23982 1.16113 8.43631 1.35762 8.43631 1.59999V14.4C8.43631 14.6424 8.23982 14.8388 7.99745 14.8388C7.75508 14.8388 7.55859 14.6424 7.55859 14.4V1.59999C7.55859 1.35762 7.75508 1.16113 7.99745 1.16113Z" fill="#2E3F55"/>
<path fill-rule="evenodd" clip-rule="evenodd" d="M1.28869 7.69006C1.46008 7.51868 1.73795 7.51868 1.90933 7.69006L7.99901 13.7797L14.0887 7.69006C14.2601 7.51868 14.5379 7.51868 14.7093 7.69006C14.8807 7.86145 14.8807 8.13932 14.7093 8.3107L8.30933 14.7107C8.13795 14.8821 7.86008 14.8821 7.68869 14.7107L1.28869 8.3107C1.11731 8.13932 1.11731 7.86145 1.28869 7.69006Z" fill="#2E3F55"/>
</svg>
