<svg xmlns="http://www.w3.org/2000/svg" width="16" height="16" fill="none" viewBox="0 0 16 16">
    <path fill="#C9001F" stroke="#C9001F" stroke-width=".5" d="M3.672 14.317h8.678c.378 0 .741-.139 1.009-.386.267-.247.418-.582.418-.931V3.36c0-.04-.017-.077-.047-.104-.03-.028-.07-.043-.112-.043-.042 0-.082.015-.112.043-.03.027-.046.064-.046.103V13c0 .272-.117.532-.325.724-.209.192-.49.3-.785.3H3.672c-.294 0-.577-.107-.785-.3-.208-.192-.325-.452-.325-.724V3.36c0-.04-.017-.077-.046-.104-.03-.028-.07-.043-.112-.043-.042 0-.083.015-.112.043-.03.027-.047.064-.047.103V13c0 .35.15.684.418.931s.63.386 1.009.386z"/>
    <path fill="#C9001F" stroke="#C9001F" stroke-width=".5" d="M8 1.643c-.036 0-.07.014-.096.038-.025.025-.04.059-.04.094V9.19l-2.64-2.58c-.026-.021-.06-.032-.094-.031-.034.001-.066.015-.09.038-.024.024-.039.056-.04.089-.001.033.01.066.033.091l2.87 2.806c.026.025.06.039.096.039.036 0 .07-.014.096-.039l2.872-2.806c.023-.025.034-.058.033-.091-.001-.033-.015-.065-.04-.089-.024-.023-.056-.037-.09-.038-.034-.002-.067.01-.093.032l-2.642 2.58V1.774c0-.035-.014-.069-.04-.094-.025-.024-.06-.038-.095-.038z"/>
</svg>
