<svg width="16" height="16" viewBox="0 0 16 16" fill="none" xmlns="http://www.w3.org/2000/svg">
<path d="M13.2125 4.0547L11.2419 2.06697C11.1501 1.97768 11.0058 1.97768 10.914 2.06697L5.38914 7.63988C5.35307 7.67626 5.33012 7.72256 5.32356 7.77217L5.00224 10.0476C4.9924 10.1204 5.01535 10.1899 5.06453 10.2428C5.10716 10.2858 5.16618 10.3122 5.22848 10.3122C5.23831 10.3122 5.24815 10.3122 5.25799 10.3089L7.5499 10.0212C7.59908 10.0146 7.64827 9.99141 7.68433 9.95503L13.2125 4.38213C13.301 4.29283 13.301 4.144 13.2125 4.0547ZM7.41547 9.57468L5.49734 9.81281L5.76621 7.91439L11.0779 2.55977L12.7239 4.22007L7.41547 9.57468Z" fill="white" stroke="white" stroke-width="0.25"/>
<path d="M11.7546 12.511C11.7546 13.1129 11.2792 13.6124 10.6824 13.6124H3.52794C2.93119 13.6124 2.45904 13.1129 2.45904 12.511V3.44883C2.45904 2.84689 2.93119 2.37063 3.52794 2.37063H6.93472V1.9043H3.52794C2.67872 1.9043 2 2.58892 2 3.44553V12.5077C2 13.3643 2.67872 14.0721 3.52794 14.0721H10.6824V14.0754C11.5317 14.0754 12.2137 13.3676 12.2137 12.511V8.03071H11.7546V12.511Z" fill="white" stroke="white" stroke-width="0.25"/>
</svg>
