<svg xmlns="http://www.w3.org/2000/svg" width="16" height="16" fill="none" viewBox="0 0 16 16">
    <path fill="#2E3F55" stroke="#2E3F55" stroke-width=".3" d="M14.828 3.209L12.71 1.072c-.099-.096-.254-.096-.353 0l-5.939 5.99c-.038.04-.063.09-.07.143L6.002 9.65c-.01.078.014.153.067.21.046.046.11.074.177.074.01 0 .02 0 .031-.003l2.464-.31c.053-.007.106-.032.145-.07l5.942-5.991c.095-.096.095-.256 0-.352zM8.596 9.142l-2.061.256.289-2.04 5.71-5.756 1.769 1.784-5.707 5.756z"/>
    <path fill="#2E3F55" stroke="#2E3F55" stroke-width=".3" d="M13.56 13.374c0 .647-.51 1.184-1.152 1.184H3.642c-.641 0-1.149-.537-1.149-1.184V3.633c0-.647.508-1.16 1.15-1.16h4.736v-.5H3.642C2.73 1.973 2 2.709 2 3.629v9.742c0 .92.73 1.681 1.642 1.681h8.766v.004c.913 0 1.646-.76 1.646-1.682v-5.89h-.493v5.89z"/>
</svg>
