<svg width="24" height="24" viewBox="0 0 24 24" fill="none" xmlns="http://www.w3.org/2000/svg">
<path d="M5.2137 21.2H18.786C20.0088 21.2 21 20.2088 21 18.9863V4.2137C21 2.9912 20.0088 2 18.7863 2H5.2137C3.9912 2 3 2.9912 3 4.2137V18.9863C3 20.2088 3.9912 21.2 5.2137 21.2Z" fill="#24C11E"/>
<path d="M10.163 8.8877H8.7418L8.27647 9.89204C8.13737 10.2105 8.03167 10.4562 7.90081 10.8072H7.8848C7.75393 10.4965 7.63131 10.2274 7.46796 9.89204L6.98661 8.8877H5.55674L7.0923 11.607L5.5 14.3921H6.92072L7.37828 13.396C7.54986 13.0121 7.68896 12.7262 7.80335 12.4077H7.81937C7.97494 12.7262 8.10534 13.0121 8.30941 13.396L8.80769 14.3921H10.2453L8.61186 11.5745L10.163 8.8877Z" fill="white"/>
<path d="M12.0855 8.8877H10.8359V14.3926H14.2745V13.3471H12.0855V8.8877Z" fill="white"/>
<path d="M17.0711 11.1245C16.3609 10.8545 16.0502 10.6994 16.0502 10.3485C16.0502 10.0625 16.3115 9.81769 16.851 9.81769C17.3895 9.81769 17.7821 9.9728 18.0022 10.079L18.2804 9.07416C17.9537 8.92728 17.4961 8.79688 16.8752 8.79688C15.5771 8.79688 14.7929 9.51524 14.7929 10.4551C14.7929 11.2553 15.3886 11.7619 16.3037 12.0803C16.9654 12.3169 17.2266 12.5132 17.2266 12.8559C17.2266 13.2155 16.9242 13.4525 16.3522 13.4525C15.8215 13.4525 15.3067 13.2809 14.9722 13.1094L14.7188 14.1389C15.0294 14.31 15.6499 14.4733 16.279 14.4733C17.7899 14.4733 18.5005 13.6891 18.5005 12.7662C18.5 11.9906 18.0434 11.4837 17.0711 11.1245Z" fill="white"/>
</svg>
