<svg width="35" height="35" viewBox="0 0 35 35" fill="none" xmlns="http://www.w3.org/2000/svg">
<circle cx="16" cy="16" r="16" fill="#6771DC" fill-opacity="0.1"/>
<path fill-rule="evenodd" clip-rule="evenodd" d="M16.1258 23.4527C20.3093 23.4527 23.7008 20.0613 23.7008 15.8777C23.7008 11.6942 20.3093 8.30273 16.1258 8.30273C11.9422 8.30273 8.55078 11.6942 8.55078 15.8777C8.55078 20.0613 11.9422 23.4527 16.1258 23.4527ZM24.5758 15.8777C24.5758 20.5445 20.7926 24.3277 16.1258 24.3277C11.459 24.3277 7.67578 20.5445 7.67578 15.8777C7.67578 11.2109 11.459 7.42773 16.1258 7.42773C20.7926 7.42773 24.5758 11.2109 24.5758 15.8777Z" fill="#6771DC"/>
<path fill-rule="evenodd" clip-rule="evenodd" d="M15.6373 11H16.5301V11.913C17.0281 11.9726 17.5046 12.1646 17.8611 12.4839C18.4473 13.0352 17.8271 13.9083 17.3104 13.4676C16.6731 12.9967 15.2267 12.7754 15.0457 13.8178C14.9426 14.55 15.6251 14.7703 16.41 15.0238C17.391 15.3405 18.5319 15.7089 18.4984 17.1929C18.4663 18.5494 17.5551 19.2011 16.5301 19.3417V20.8214H15.6373V19.3411C15.0279 19.26 14.4558 19.0186 14.0805 18.6576C13.9585 18.534 13.8799 18.3685 13.8579 18.1891C13.8359 18.0098 13.8719 17.8277 13.9598 17.6739C14 17.6049 14.0545 17.5471 14.1188 17.5049C14.1832 17.4627 14.2557 17.4372 14.3307 17.4306C14.4057 17.4239 14.4811 17.4362 14.551 17.4665C14.6209 17.4968 14.6832 17.5443 14.7333 17.6052C15.4386 18.1666 17.2562 18.5889 17.3846 17.1627C17.3361 16.5477 16.697 16.3391 15.9821 16.1057C14.9653 15.7738 13.795 15.3917 13.9521 13.7189C14.0552 12.7035 14.7895 12.1221 15.6373 11.9485V11Z" fill="#6771DC"/>
<circle cx="25" cy="25" r="9.5" fill="#E5FAFF" stroke="white"/>
<path fill-rule="evenodd" clip-rule="evenodd" d="M31.1916 21.957C31.3347 22.1001 31.3347 22.3322 31.1916 22.4753L22.7916 30.8753C22.6484 31.0185 22.4163 31.0185 22.2732 30.8753L18.455 27.0572C18.3119 26.914 18.3119 26.6819 18.455 26.5388C18.5982 26.3956 18.8302 26.3956 18.9734 26.5388L22.5324 30.0978L30.6732 21.957C30.8163 21.8138 31.0484 21.8138 31.1916 21.957Z" fill="#00CEFF"/>
<path fill-rule="evenodd" clip-rule="evenodd" d="M31.1916 19.332C31.3347 19.4751 31.3347 19.7072 31.1916 19.8503L22.7916 28.2503C22.6484 28.3935 22.4163 28.3935 22.2732 28.2503L18.455 24.4322C18.3119 24.289 18.3119 24.0569 18.455 23.9138C18.5982 23.7706 18.8302 23.7706 18.9734 23.9138L22.5324 27.4728L30.6732 19.332C30.8163 19.1888 31.0484 19.1888 31.1916 19.332Z" fill="#00CEFF"/>
</svg>
