<svg width="35" height="35" viewBox="0 0 35 35" fill="none" xmlns="http://www.w3.org/2000/svg">
<circle cx="16" cy="16" r="16" fill="#6771DC" fill-opacity="0.1"/>
<path fill-rule="evenodd" clip-rule="evenodd" d="M16.1258 23.4527C20.3093 23.4527 23.7008 20.0613 23.7008 15.8777C23.7008 11.6942 20.3093 8.30273 16.1258 8.30273C11.9422 8.30273 8.55078 11.6942 8.55078 15.8777C8.55078 20.0613 11.9422 23.4527 16.1258 23.4527ZM24.5758 15.8777C24.5758 20.5445 20.7926 24.3277 16.1258 24.3277C11.459 24.3277 7.67578 20.5445 7.67578 15.8777C7.67578 11.2109 11.459 7.42773 16.1258 7.42773C20.7926 7.42773 24.5758 11.2109 24.5758 15.8777Z" fill="#6771DC"/>
<path fill-rule="evenodd" clip-rule="evenodd" d="M15.6373 11H16.5301V11.913C17.0281 11.9726 17.5046 12.1646 17.8611 12.4839C18.4473 13.0352 17.8271 13.9083 17.3104 13.4676C16.6731 12.9967 15.2267 12.7754 15.0457 13.8178C14.9426 14.55 15.6251 14.7703 16.41 15.0238C17.391 15.3405 18.5319 15.7089 18.4984 17.1929C18.4663 18.5494 17.5551 19.2011 16.5301 19.3417V20.8214H15.6373V19.3411C15.0279 19.26 14.4558 19.0186 14.0805 18.6576C13.9585 18.534 13.8799 18.3685 13.8579 18.1891C13.8359 18.0098 13.8719 17.8277 13.9598 17.6739C14 17.6049 14.0545 17.5471 14.1188 17.5049C14.1832 17.4627 14.2557 17.4372 14.3307 17.4306C14.4057 17.4239 14.4811 17.4362 14.551 17.4665C14.6209 17.4968 14.6832 17.5443 14.7333 17.6052C15.4386 18.1666 17.2562 18.5889 17.3846 17.1627C17.3361 16.5477 16.697 16.3391 15.9821 16.1057C14.9653 15.7738 13.795 15.3917 13.9521 13.7189C14.0552 12.7035 14.7895 12.1221 15.6373 11.9485V11Z" fill="#6771DC"/>
<circle cx="25" cy="25" r="9.5" fill="#FEE8EB" stroke="white"/>
<path fill-rule="evenodd" clip-rule="evenodd" d="M30.0042 19.7501C30.0503 19.7504 30.0952 19.7645 30.1333 19.7905C30.1713 19.8164 30.2007 19.8531 30.2179 19.8959C30.235 19.9387 30.2389 19.9855 30.2293 20.0306C30.2197 20.0756 30.1968 20.1168 30.1637 20.1488L25.4551 24.8574L30.1637 29.566C30.1891 29.5864 30.2098 29.612 30.2246 29.6409C30.2394 29.67 30.2479 29.7017 30.2497 29.7342C30.2514 29.7667 30.2463 29.7992 30.2346 29.8296C30.223 29.8599 30.2051 29.8875 30.1821 29.9105C30.159 29.9335 30.1315 29.9515 30.1011 29.9631C30.0707 29.9747 30.0382 29.9799 30.0057 29.9781C29.9732 29.9764 29.9414 29.9679 29.9125 29.9531C29.8835 29.9382 29.8579 29.9175 29.8375 29.8922L25.1289 25.1836L20.4203 29.8922C20.3999 29.9175 20.3743 29.9382 20.3453 29.9531C20.3164 29.9679 20.2846 29.9764 20.2522 29.9781C20.2196 29.9799 20.1871 29.9747 20.1568 29.9631C20.1263 29.9515 20.0988 29.9335 20.0758 29.9105C20.0527 29.8875 20.0348 29.8599 20.0232 29.8296C20.0115 29.7992 20.0065 29.7667 20.0081 29.7342C20.0099 29.7017 20.0184 29.67 20.0332 29.6409C20.048 29.612 20.0688 29.5864 20.094 29.566L24.8027 24.8574L20.094 20.1488C20.0605 20.1163 20.0375 20.0745 20.0281 20.0288C20.0187 19.9831 20.0233 19.9356 20.0413 19.8925C20.0593 19.8494 20.0898 19.8128 20.129 19.7874C20.1682 19.762 20.2142 19.749 20.2608 19.7501C20.3214 19.7525 20.3787 19.7785 20.4203 19.8226L25.1289 24.5312L29.8375 19.8226C29.859 19.7999 29.8848 19.7818 29.9135 19.7693C29.9421 19.7568 29.973 19.7503 30.0042 19.7501Z" fill="#F81538" stroke="#F81538" stroke-width="0.375"/>
</svg>
