<svg width="35" height="35" viewBox="0 0 35 35" fill="none" xmlns="http://www.w3.org/2000/svg">
<circle cx="16" cy="16" r="16" fill="#6771DC" fill-opacity="0.1"/>
<path fill-rule="evenodd" clip-rule="evenodd" d="M16.1258 23.4527C20.3093 23.4527 23.7008 20.0613 23.7008 15.8777C23.7008 11.6942 20.3093 8.30273 16.1258 8.30273C11.9422 8.30273 8.55078 11.6942 8.55078 15.8777C8.55078 20.0613 11.9422 23.4527 16.1258 23.4527ZM24.5758 15.8777C24.5758 20.5445 20.7926 24.3277 16.1258 24.3277C11.459 24.3277 7.67578 20.5445 7.67578 15.8777C7.67578 11.2109 11.459 7.42773 16.1258 7.42773C20.7926 7.42773 24.5758 11.2109 24.5758 15.8777Z" fill="#6771DC"/>
<path fill-rule="evenodd" clip-rule="evenodd" d="M15.6373 11H16.5301V11.913C17.0281 11.9726 17.5046 12.1646 17.8611 12.4839C18.4473 13.0352 17.8271 13.9083 17.3104 13.4676C16.6731 12.9967 15.2267 12.7754 15.0457 13.8178C14.9426 14.55 15.6251 14.7703 16.41 15.0238C17.391 15.3405 18.5319 15.7089 18.4984 17.1929C18.4663 18.5494 17.5551 19.2011 16.5301 19.3417V20.8214H15.6373V19.3411C15.0279 19.26 14.4558 19.0186 14.0805 18.6576C13.9585 18.534 13.8799 18.3685 13.8579 18.1891C13.8359 18.0098 13.8719 17.8277 13.9598 17.6739C14 17.6049 14.0545 17.5471 14.1188 17.5049C14.1832 17.4627 14.2557 17.4372 14.3307 17.4306C14.4057 17.4239 14.4811 17.4362 14.551 17.4665C14.6209 17.4968 14.6832 17.5443 14.7333 17.6052C15.4386 18.1666 17.2562 18.5889 17.3846 17.1627C17.3361 16.5477 16.697 16.3391 15.9821 16.1057C14.9653 15.7738 13.795 15.3917 13.9521 13.7189C14.0552 12.7035 14.7895 12.1221 15.6373 11.9485V11Z" fill="#6771DC"/>
<circle cx="25" cy="25" r="9.5" fill="#FEE8EB" stroke="white"/>
<path fill-rule="evenodd" clip-rule="evenodd" d="M19.1211 24.9658C19.1211 21.699 21.7693 19.0508 25.0361 19.0508C28.3029 19.0508 30.9511 21.699 30.9511 24.9658C30.9511 28.2325 28.3029 30.8808 25.0361 30.8808C21.7693 30.8808 19.1211 28.2325 19.1211 24.9658ZM25.0361 19.6141C22.0804 19.6141 19.6844 22.0101 19.6844 24.9658C19.6844 27.9214 22.0804 30.3174 25.0361 30.3174C27.9917 30.3174 30.3878 27.9214 30.3878 24.9658C30.3878 22.0101 27.9917 19.6141 25.0361 19.6141Z" fill="#F81538"/>
<path fill-rule="evenodd" clip-rule="evenodd" d="M22.7387 22.5508C22.7166 22.551 22.6951 22.5577 22.6769 22.5702C22.6587 22.5826 22.6447 22.6002 22.6365 22.6207C22.6283 22.6412 22.6264 22.6636 22.631 22.6852C22.6356 22.7068 22.6465 22.7265 22.6624 22.7418L24.915 24.9975L22.6624 27.2532C22.6503 27.263 22.6403 27.2752 22.6332 27.2891C22.6262 27.303 22.6221 27.3182 22.6212 27.3338C22.6204 27.3494 22.6229 27.3649 22.6285 27.3794C22.634 27.394 22.6426 27.4073 22.6536 27.4182C22.6646 27.4292 22.6778 27.4378 22.6923 27.4434C22.7069 27.449 22.7224 27.4514 22.738 27.4506C22.7535 27.4498 22.7687 27.4457 22.7826 27.4386C22.7964 27.4315 22.8087 27.4216 22.8184 27.4095L25.0711 25.1538L27.3238 27.4095C27.3336 27.4216 27.3457 27.4315 27.3596 27.4386C27.3735 27.4457 27.3887 27.4498 27.4042 27.4506C27.4198 27.4514 27.4354 27.449 27.4499 27.4434C27.4644 27.4378 27.4776 27.4292 27.4886 27.4182C27.4996 27.4073 27.5082 27.394 27.5137 27.3794C27.5194 27.3649 27.5218 27.3494 27.5209 27.3338C27.5201 27.3182 27.516 27.303 27.5089 27.2891C27.5019 27.2752 27.492 27.263 27.4798 27.2532L25.2272 24.9975L27.4798 22.7418C27.4959 22.7263 27.5069 22.7062 27.5114 22.6843C27.5159 22.6624 27.5137 22.6397 27.5051 22.619C27.4964 22.5984 27.4818 22.5808 27.4631 22.5687C27.4443 22.5565 27.4224 22.5503 27.4 22.5508C27.3711 22.552 27.3437 22.5644 27.3238 22.5855L25.0711 24.8412L22.8184 22.5855C22.8082 22.5747 22.7958 22.566 22.7821 22.56C22.7684 22.5541 22.7536 22.5509 22.7387 22.5508Z" fill="#F81538" stroke="#F81538" stroke-width="0.4"/>
</svg>
