<svg width="16" height="16" viewBox="0 0 16 16" fill="none" xmlns="http://www.w3.org/2000/svg">
<path fill-rule="evenodd" clip-rule="evenodd" d="M14.2188 1.47778C14.2039 1.44176 14.1822 1.4079 14.1535 1.37821C14.1508 1.37538 14.148 1.37259 14.1452 1.36986C14.0876 1.31439 14.0094 1.28027 13.9231 1.28027H9.92313C9.74639 1.28027 9.60313 1.42354 9.60313 1.60027C9.60313 1.777 9.74639 1.92027 9.92313 1.92027H13.1506L7.29685 7.774C7.17188 7.89897 7.17188 8.10158 7.29685 8.22655C7.42182 8.35152 7.62443 8.35152 7.7494 8.22655L13.6031 2.37282V5.60027C13.6031 5.77701 13.7464 5.92027 13.9231 5.92027C14.0999 5.92027 14.2431 5.77701 14.2431 5.60027V1.60027C14.2431 1.55688 14.2345 1.51551 14.2188 1.47778Z" fill="white" stroke="white" stroke-width="0.2" stroke-linecap="round" stroke-linejoin="round"/>
<path d="M12.9562 12.6878C12.9562 13.2897 12.4808 13.7892 11.884 13.7892H3.1295C2.53275 13.7892 2.0606 13.2897 2.0606 12.6878V3.62558C2.0606 3.02364 2.53275 2.54738 3.1295 2.54738H5.73628V2.08105H3.1295C2.28028 2.08105 1.60156 2.76567 1.60156 3.62228V12.6845C1.60156 13.5411 2.28028 14.2489 3.1295 14.2489H11.884V14.2522C12.7333 14.2522 13.4153 13.5444 13.4153 12.6878V9.80747H12.9562V12.6878Z" fill="white"/>
<path fill-rule="evenodd" clip-rule="evenodd" d="M1.5 3.6217C1.5 2.71068 2.22268 1.98047 3.12794 1.98047H5.83472V2.6468H3.12794C2.58723 2.6468 2.15904 3.07747 2.15904 3.625V12.6872C2.15904 13.2375 2.58998 13.6886 3.12794 13.6886H11.8824C12.4208 13.6886 12.8546 13.2371 12.8546 12.6872V9.70688H13.5137V12.6872C13.5137 13.5965 12.7894 14.3516 11.8824 14.3516H11.7824V14.3483H3.12794C2.22075 14.3483 1.5 13.5929 1.5 12.6839V3.6217ZM11.979 14.1483C12.7254 14.0971 13.3137 13.4581 13.3137 12.6872V9.90688H13.0546V12.6872C13.0546 13.3411 12.5376 13.8886 11.8824 13.8886H3.12794C2.4724 13.8886 1.95904 13.3407 1.95904 12.6872V3.625C1.95904 2.96865 2.47515 2.4468 3.12794 2.4468H5.63472V2.18047H3.12794C2.33476 2.18047 1.7 2.8195 1.7 3.6217V12.6839C1.7 13.488 2.33669 14.1483 3.12794 14.1483H11.979Z" fill="white" stroke="white" stroke-width="0.2"/>
</svg>
