<svg width="16" height="16" fill="none" xmlns="http://www.w3.org/2000/svg">
    <g opacity=".8" fill="#C9001F">
        <path fill-rule="evenodd" clip-rule="evenodd" d="M14.217 1.478a.32.32 0 0 0-.296-.198h-4a.32.32 0 0 0 0 .64h3.228L7.295 7.774a.32.32 0 1 0 .452.453l5.854-5.854V5.6a.32.32 0 1 0 .64 0v-4a.32.32 0 0 0-.024-.122z"/>
        <path d="M12.954 12.687c0 .602-.475 1.102-1.072 1.102H3.128c-.597 0-1.07-.5-1.07-1.102V3.625c0-.602.473-1.078 1.07-1.078h2.606V2.08H3.128c-.85 0-1.528.684-1.528 1.54v9.063c0 .857.678 1.564 1.528 1.564h8.754v.004c.85 0 1.531-.708 1.531-1.565v-2.88h-.459v2.88z"/>
        <path fill-rule="evenodd" clip-rule="evenodd" d="M1.5 3.622c0-.911.723-1.642 1.628-1.642h2.707v.667H3.128c-.54 0-.969.43-.969.978v9.062c0 .55.431 1.002.969 1.002h8.754c.539 0 .973-.452.973-1.002v-2.98h.659v2.98c0 .91-.725 1.665-1.632 1.665h-.1v-.004H3.128c-.907 0-1.628-.755-1.628-1.664V3.622zm10.479 10.526c.746-.05 1.335-.69 1.335-1.46V9.906h-.26v2.78c0 .654-.516 1.202-1.172 1.202H3.128c-.656 0-1.169-.548-1.169-1.202V3.625c0-.656.516-1.178 1.169-1.178h2.507V2.18H3.128c-.793 0-1.428.64-1.428 1.442v9.062c0 .804.637 1.464 1.428 1.464h8.851z"/>
    </g>
</svg>
