<svg width="16" height="16" viewBox="0 0 16 16" fill="none" xmlns="http://www.w3.org/2000/svg">
<path d="M12.1504 1.79883H3.94225C3.28375 1.79883 2.75 2.22993 2.75 2.7618V13.4219C2.75 13.9537 3.28375 14.3849 3.94225 14.3849H12.1504C12.8089 14.3849 13.3426 13.9537 13.3426 13.4219V2.7618C13.3426 2.22993 12.8089 1.79883 12.1504 1.79883ZM13.0926 13.4219C13.0926 13.8415 12.6699 14.1829 12.1504 14.1829H3.94225C3.42275 14.1829 3 13.8415 3 13.4219V2.7618C3 2.3422 3.42275 2.00075 3.94225 2.00075H12.1504C12.6699 2.00075 13.0926 2.3422 13.0926 2.7618V13.4219Z" fill="white" stroke="white" stroke-width="0.5"/>
<path d="M5.38834 8.17401L6.17767 7.12294C6.20144 7.08967 6.2312 7.06198 6.26514 7.04153C6.29908 7.02109 6.3365 7.00832 6.37513 7.004C6.41376 6.99969 6.4528 7.00391 6.48988 7.01642C6.52695 7.02893 6.5613 7.04948 6.59084 7.07679C6.62037 7.10411 6.64448 7.13763 6.6617 7.17534C6.67892 7.21304 6.6889 7.25416 6.69102 7.29617C6.69315 7.33818 6.68738 7.38021 6.67407 7.41973C6.66075 7.45926 6.64018 7.49544 6.61358 7.52609C6.34192 7.86769 6.0557 8.23782 5.78197 8.61696L6.70783 9.83771C6.95731 10.1988 6.45834 10.5442 6.21371 10.1883L5.37794 9.05391L4.55673 10.2131C4.32527 10.5637 3.81176 10.1695 4.07163 9.84296L4.98362 8.61696C4.69741 8.23707 4.42021 7.86619 4.1444 7.52609C3.85888 7.16497 4.38972 6.7956 4.59831 7.1327L5.38834 8.17401Z" fill="white"/>
<path d="M7.37503 7.29506C7.37391 7.2185 7.40073 7.14456 7.44965 7.08931C7.49857 7.03406 7.56564 7.00197 7.63629 7C7.70436 7.00539 7.76787 7.03913 7.81347 7.09414C7.85908 7.14915 7.88325 7.22116 7.88092 7.29506V9.71778H9.00913C9.04869 9.71569 9.08823 9.72234 9.12535 9.7373C9.16246 9.75226 9.19639 9.77523 9.22506 9.80482C9.25374 9.83441 9.27657 9.87 9.29217 9.90943C9.30777 9.94887 9.31581 9.99133 9.31581 10.0342C9.31581 10.0771 9.30777 10.1196 9.29217 10.159C9.27657 10.1985 9.25374 10.2341 9.22506 10.2636C9.19639 10.2932 9.16246 10.3162 9.12535 10.3312C9.08823 10.3461 9.04869 10.3528 9.00913 10.3507H7.63699C7.60173 10.3509 7.56678 10.3434 7.5343 10.3286C7.50181 10.3137 7.47246 10.2918 7.44802 10.2643C7.42358 10.2368 7.40457 10.2041 7.39214 10.1684C7.37971 10.1327 7.37411 10.0945 7.37571 10.0564V7.29506H7.37503Z" fill="white"/>
<path d="M9.963 7.81809C10.0517 6.94494 11.182 6.78803 11.7142 7.26477C11.9769 7.51177 11.699 7.90293 11.4675 7.70548C11.182 7.49451 10.534 7.3954 10.453 7.86237C10.349 8.60038 12.0268 8.1777 11.9997 9.37443C11.9727 10.5171 10.5534 10.5434 10.0205 10.0306C9.96589 9.97523 9.93065 9.90107 9.92079 9.82072C9.91094 9.74037 9.92707 9.65879 9.96647 9.58989C9.98448 9.55901 10.0089 9.53311 10.0377 9.51419C10.0665 9.49527 10.099 9.48388 10.1326 9.4809C10.1662 9.47791 10.2 9.4834 10.2313 9.49698C10.2626 9.51056 10.2906 9.53183 10.313 9.55912C10.629 9.81062 11.4433 9.99981 11.5008 9.36091C11.4481 8.69348 9.84311 9.09439 9.963 7.81809Z" fill="white"/>
</svg>
