<svg width="20" height="20" viewBox="0 0 20 20" fill="none" xmlns="http://www.w3.org/2000/svg">
<rect width="20" height="20" rx="10" fill="#F81538" fill-opacity="0.1"/>
<path fill-rule="evenodd" clip-rule="evenodd" d="M5.9333 5.71881C5.89382 5.71911 5.85533 5.73116 5.82272 5.75342C5.79012 5.77568 5.76488 5.80714 5.75021 5.84379C5.73555 5.88045 5.73213 5.92064 5.74039 5.95925C5.74865 5.99786 5.76822 6.03312 5.79659 6.06057L9.83253 10.0965L5.79659 14.1325C5.77489 14.15 5.75712 14.1719 5.74443 14.1967C5.73174 14.2215 5.72442 14.2488 5.72294 14.2766C5.72146 14.3045 5.72585 14.3323 5.73584 14.3584C5.74582 14.3844 5.76118 14.4081 5.7809 14.4278C5.80062 14.4475 5.82427 14.4628 5.85031 14.4728C5.87635 14.4828 5.9042 14.4872 5.93206 14.4857C5.95991 14.4843 5.98714 14.4769 6.01197 14.4642C6.03681 14.4516 6.0587 14.4338 6.07622 14.4121L10.1122 10.3761L14.1481 14.4121C14.1656 14.4338 14.1875 14.4516 14.2123 14.4642C14.2372 14.4769 14.2644 14.4843 14.2923 14.4857C14.3201 14.4872 14.348 14.4828 14.374 14.4728C14.4001 14.4628 14.4237 14.4475 14.4434 14.4278C14.4631 14.4081 14.4785 14.3844 14.4885 14.3584C14.4985 14.3323 14.5029 14.3045 14.5014 14.2766C14.4999 14.2488 14.4926 14.2215 14.4799 14.1967C14.4672 14.1719 14.4494 14.15 14.4277 14.1325L10.3918 10.0965L14.4277 6.06057C14.4565 6.03276 14.4762 5.99691 14.4843 5.95771C14.4924 5.91852 14.4884 5.8778 14.473 5.84088C14.4575 5.80396 14.4313 5.77255 14.3978 5.75077C14.3642 5.72899 14.3248 5.71785 14.2848 5.71881C14.2329 5.72086 14.1838 5.74316 14.1481 5.78095L10.1122 9.81689L6.07622 5.78095C6.05781 5.7615 6.03566 5.74597 6.0111 5.73529C5.98654 5.72462 5.96008 5.71901 5.9333 5.71881V5.71881Z" fill="#F81538" stroke="#F81538"/>
</svg>
