<svg width="16" height="16" fill="none" xmlns="http://www.w3.org/2000/svg">
    <path d="M2.662 1.9c.1.001.2.022.291.062L2.662 1.9zm0 0h-.008m.008 0h-.008m0 0a.745.745 0 0 0-.414.13m.414-.13-.414.13m0 0a.745.745 0 0 0-.272.339l.272-.339zm-.309.771a.745.745 0 0 1 .037-.432l-.037.432zm0 0c.03.143.103.274.207.376m-.207-.376.207.376m0 0 4.615 4.615-4.603 4.604a.745.745 0 0 0-.25.518.745.745 0 0 0 .217.566.745.745 0 0 0 .26.169L2.138 3.177zm1.063 10.27a.747.747 0 0 1-.218.17h-.001a.746.746 0 0 1-.605.032l.824-.202zm0 0 4.604-4.603M3.2 13.447l4.604-4.603m0 0 4.603 4.603c.062.07.136.127.218.17h.001a.746.746 0 0 0 .605.032l-.178-.467m-5.25-4.338 5.63 3.53a.68.68 0 0 1 .026.021l.013.014-.344.345a.497.497 0 0 1 .035.039.248.248 0 0 0-.037-.037l-.007.007m-.066.419a.243.243 0 0 0 .156-.242.246.246 0 0 0-.09-.177m-.066.419a.245.245 0 0 1-.2-.01l.2.01zm.066-.42-.036-.035.042.028-.006.007zm.351-9.585a.745.745 0 0 0 .208-.381v-.001a.746.746 0 0 0-.747-.894h-.008a.745.745 0 0 0-.506.226L7.805 6.741 3.19 2.127a.745.745 0 0 0-.238-.165l10.518 1.215zm-10.93-.304a.256.256 0 0 1-.06-.042l.008-.01.052.052zM8.15 8.5l4.616 4.616L8.15 8.5z" fill="#F81538" stroke="#F81538" stroke-linejoin="round"/>
</svg>
