<svg xmlns="http://www.w3.org/2000/svg" width="21" height="20" fill="none" viewBox="0 0 21 20">
    <rect width="20" height="20" x=".5" fill="#F81538" rx="10"/>
    <path fill="#fff" fill-rule="evenodd" stroke="#fff" d="M6.431 5.72c-.04 0-.078.012-.11.034-.033.023-.058.054-.073.09-.014.037-.018.078-.01.116.009.039.028.074.057.102l4.036 4.035-4.036 4.036c-.022.018-.04.04-.053.065-.012.024-.02.052-.021.08-.002.027.003.055.013.081.01.026.025.05.045.07.02.02.043.035.07.045.025.01.053.014.081.013.028-.002.055-.01.08-.022.025-.012.047-.03.064-.052l4.036-4.036 4.036 4.036c.018.022.04.04.064.052.025.013.052.02.08.022.028.001.056-.003.082-.013.026-.01.05-.026.07-.045.02-.02.034-.044.044-.07.01-.026.015-.054.013-.081-.001-.028-.008-.056-.021-.08-.013-.025-.03-.047-.052-.065l-4.036-4.035 4.036-4.036c.029-.028.048-.064.056-.103.008-.04.005-.08-.011-.117-.015-.037-.042-.068-.075-.09-.034-.022-.073-.033-.113-.032-.052.002-.101.024-.137.062L10.61 9.818 6.574 5.782c-.018-.02-.04-.035-.065-.046-.024-.01-.05-.016-.078-.016v0z" clip-rule="evenodd"/>
</svg>
