<svg width="16" height="16" viewBox="0 0 16 16" fill="none" xmlns="http://www.w3.org/2000/svg">
<path fill-rule="evenodd" clip-rule="evenodd" d="M13.9609 8.00035C13.9609 8.19917 13.7998 8.36035 13.6009 8.36035L2.40094 8.36035C2.20211 8.36035 2.04094 8.19917 2.04094 8.00035C2.04094 7.80153 2.20211 7.64035 2.40094 7.64035L13.6009 7.64035C13.7998 7.64035 13.9609 7.80153 13.9609 8.00035Z" fill="#2E3F55"/>
<path fill-rule="evenodd" clip-rule="evenodd" d="M7.74638 13.8545C7.60579 13.7139 7.60579 13.486 7.74638 13.3454L13.0918 7.99996L7.74638 2.65452C7.60579 2.51393 7.60579 2.28599 7.74638 2.1454C7.88697 2.00481 8.11491 2.00481 8.2555 2.1454L13.8555 7.7454C13.9961 7.88599 13.9961 8.11393 13.8555 8.25452L8.2555 13.8545C8.11491 13.9951 7.88697 13.9951 7.74638 13.8545Z" fill="#2E3F55"/>
</svg>
