<svg width="16" height="16" viewBox="0 0 16 16" fill="none" xmlns="http://www.w3.org/2000/svg">
<path d="M13.0641 2.04125L12.7368 1.81351C12.3523 1.54391 12.272 1.40003 11.8095 1.40007L7.6673 1.40007C7.27255 1.39932 6.88157 1.48069 6.51698 1.63945C6.15239 1.79822 5.82142 2.03125 5.54321 2.32505L3.7531 4.20304L2.66988 4.20304C2.227 4.20304 1.80226 4.38761 1.4891 4.71615C1.17593 5.04469 1 5.49028 1 5.9549L1 12.9815C1 13.4462 1.17593 13.8918 1.4891 14.2203C1.80226 14.5488 2.227 14.7334 2.66988 14.7334L9.17687 14.7334C9.61975 14.7334 10.0445 14.5488 10.3577 14.2203C10.6708 13.8918 10.8468 13.4462 10.8468 12.9815L10.8468 8.80342C11.745 8.94531 11.8561 8.72905 12.6099 8.19727L12.8136 8.05713L13.3814 8.05713L13.3814 9.10824L15 9.10824L15 1.40007L13.3814 1.40007L13.3814 2.10081L13.2511 2.10081C13.1845 2.10097 13.1194 2.08023 13.0641 2.04125ZM10.1788 12.9815C10.178 13.2601 10.0722 13.5269 9.88447 13.7239C9.69674 13.9208 9.44236 14.0318 9.17687 14.0327L2.66988 14.0327C2.4044 14.0318 2.15001 13.9208 1.96229 13.7239C1.77456 13.5269 1.66875 13.2601 1.66795 12.9815L1.66795 5.9549C1.66874 5.67638 1.77456 5.40951 1.96229 5.21257C2.15001 5.01563 2.4044 4.90462 2.66988 4.90378L6.45163 4.90378L5.56659 5.83227C5.32347 6.09959 5.18811 6.45505 5.18873 6.82452C5.18935 7.194 5.32591 7.54896 5.56993 7.81537C5.82162 8.07632 6.16122 8.22267 6.51508 8.22267C6.86895 8.22267 7.20855 8.07632 7.46024 7.81537L9.00988 6.18965C9.35939 6.42853 9.76235 6.56743 10.1788 6.59257L10.1788 12.9815ZM14.332 2.10081L14.332 8.4075L13.8498 8.4075L13.8498 2.10081L14.332 2.10081ZM12.3661 2.39512L12.6934 2.62287C12.859 2.74047 13.0546 2.80276 13.2545 2.80156L13.3814 2.80156L13.3814 7.35638L12.7134 7.35638C12.6479 7.35621 12.5838 7.37699 12.5298 7.41595L12.2392 7.61566C11.5942 8.06978 11.6101 8.23966 10.8468 8.08866L10.8468 6.54352C11.2189 6.46211 11.5677 6.29053 11.8654 6.04249L12.0591 5.87782C12.0975 5.84451 12.1284 5.80278 12.1498 5.75556C12.1711 5.70834 12.1824 5.65679 12.1827 5.60453C12.1829 5.53822 12.1652 5.47322 12.1316 5.41706C12.098 5.36091 12.0499 5.3159 11.9928 5.28728C11.9358 5.25866 11.8723 5.2476 11.8095 5.25538C11.7467 5.26316 11.6874 5.28947 11.6383 5.33124L11.4479 5.49591C11.1266 5.76535 10.726 5.9092 10.3147 5.9028C9.90347 5.89641 9.50711 5.74018 9.19357 5.46087C9.12973 5.40312 9.04743 5.37282 8.96319 5.37607C8.87895 5.37932 8.79899 5.41587 8.73936 5.47839L6.98933 7.31784C6.86327 7.44884 6.6932 7.52262 6.51577 7.52327C6.33834 7.52393 6.16777 7.45141 6.04084 7.32135C5.92019 7.18661 5.85303 7.00869 5.85303 6.82382C5.85303 6.63895 5.92019 6.46103 6.04084 6.32629L8.40205 3.84917C8.43319 3.8165 8.45789 3.77772 8.47474 3.73503C8.49159 3.69235 8.50027 3.6466 8.50027 3.6004C8.50027 3.5542 8.49159 3.50846 8.47474 3.46577C8.45789 3.42309 8.43319 3.38431 8.40205 3.35164C8.37091 3.31897 8.33394 3.29306 8.29326 3.27538C8.25257 3.2577 8.20896 3.2486 8.16493 3.2486C8.12089 3.2486 8.07728 3.2577 8.0366 3.27538C7.99591 3.29306 7.95894 3.31897 7.9278 3.35164L7.11958 4.20304L4.69492 4.20304L6.01412 2.81907C6.23097 2.59098 6.48866 2.4101 6.77237 2.28683C7.05609 2.16357 7.36022 2.10035 7.6673 2.10081L11.8095 2.10081C12.1399 2.10072 12.0911 2.20312 12.3661 2.39512Z" fill="white"/>
<path fill-rule="evenodd" clip-rule="evenodd" d="M3.3125 11.9351C3.3125 11.7611 3.45352 11.6201 3.62748 11.6201H7.97747C8.15143 11.6201 8.29245 11.7611 8.29245 11.9351C8.29245 12.1091 8.15143 12.2501 7.97747 12.2501H3.62748C3.45352 12.2501 3.3125 12.1091 3.3125 11.9351Z" fill="white"/>
</svg>
