<svg width="16" height="16" viewBox="0 0 16 16" fill="none" xmlns="http://www.w3.org/2000/svg">
<path fill-rule="evenodd" clip-rule="evenodd" d="M1.22656 7.9999C1.22656 4.25909 4.25909 1.22656 7.9999 1.22656C11.7407 1.22656 14.7732 4.25909 14.7732 7.9999C14.7732 11.7407 11.7407 14.7732 7.9999 14.7732C4.25909 14.7732 1.22656 11.7407 1.22656 7.9999ZM7.9999 1.97323C4.67146 1.97323 1.97323 4.67146 1.97323 7.9999C1.97323 11.3283 4.67146 14.0266 7.9999 14.0266C11.3283 14.0266 14.0266 11.3283 14.0266 7.9999C14.0266 4.67146 11.3283 1.97323 7.9999 1.97323Z" fill="#2E3F55"/>
<path fill-rule="evenodd" clip-rule="evenodd" d="M7.9997 4.90625C7.70515 4.90625 7.46636 5.14503 7.46636 5.43958C7.46636 5.73414 7.70515 5.97292 7.9997 5.97292H8.00573C8.30028 5.97292 8.53906 5.73414 8.53906 5.43958C8.53906 5.14503 8.30028 4.90625 8.00573 4.90625H7.9997ZM8.3837 7.99974C8.3837 7.78766 8.21177 7.61574 7.9997 7.61574C7.78762 7.61574 7.6157 7.78766 7.6157 7.99974V10.5597C7.6157 10.7718 7.78762 10.9437 7.9997 10.9437C8.21177 10.9437 8.3837 10.7718 8.3837 10.5597V7.99974Z" fill="#2E3F55"/>
</svg>
