<svg width="35" height="35" viewBox="0 0 35 35" fill="none" xmlns="http://www.w3.org/2000/svg">
<circle cx="16" cy="16" r="16" fill="#F6F0FC"/>
<path d="M21.188 8.24805H10.9278C10.1047 8.24805 9.4375 8.78692 9.4375 9.45176V22.7769C9.4375 23.4416 10.1047 23.9806 10.9278 23.9806H21.188C22.0111 23.9806 22.6782 23.4416 22.6782 22.7769V9.45176C22.6782 8.78692 22.0111 8.24805 21.188 8.24805ZM22.3657 22.7769C22.3657 23.3014 21.8374 23.7281 21.188 23.7281H10.9278C10.2784 23.7281 9.75 23.3014 9.75 22.7769V9.45176C9.75 8.92726 10.2784 8.50045 10.9278 8.50045H21.188C21.8374 8.50045 22.3657 8.92726 22.3657 9.45176V22.7769Z" fill="#A367DC"/>
<path fill-rule="evenodd" clip-rule="evenodd" d="M9.1875 9.45176C9.1875 8.60163 10.0191 7.99805 10.9278 7.99805H21.188C22.0967 7.99805 22.9282 8.60164 22.9282 9.45176V22.7769C22.9282 23.6269 22.0967 24.2306 21.188 24.2306H10.9278C10.0191 24.2306 9.1875 23.6269 9.1875 22.7769V9.45176ZM10.9278 8.75045C10.364 8.75045 10 9.11255 10 9.45176V22.7769C10 23.1161 10.364 23.4781 10.9278 23.4781H21.188C21.7518 23.4781 22.1157 23.1161 22.1157 22.7769V9.45176C22.1157 9.11254 21.7518 8.75045 21.188 8.75045H10.9278Z" fill="#A367DC"/>
<path fill-rule="evenodd" clip-rule="evenodd" d="M15.8809 13.125C14.3589 13.125 13.125 14.3589 13.125 15.8809C13.125 17.4029 14.3589 18.6368 15.8809 18.6368C16.5067 18.6368 17.0838 18.4282 17.5465 18.0767L19.485 20.0145C19.6315 20.1609 19.8689 20.1608 20.0153 20.0144C20.1618 19.8679 20.1617 19.6304 20.0152 19.484L18.0768 17.5464C18.4282 17.0838 18.6368 16.5067 18.6368 15.8809C18.6368 14.3589 17.4029 13.125 15.8809 13.125ZM17.3287 17.2693C17.6744 16.9089 17.8868 16.4197 17.8868 15.8809C17.8868 14.7731 16.9887 13.875 15.8809 13.875C14.7731 13.875 13.875 14.7731 13.875 15.8809C13.875 16.9887 14.7731 17.8868 15.8809 17.8868C16.4197 17.8868 16.9089 17.6744 17.2693 17.3287C17.2779 17.3179 17.2873 17.3074 17.2973 17.2974C17.3073 17.2873 17.3178 17.278 17.3287 17.2693Z" fill="#A367DC"/>
<circle cx="25" cy="25" r="9.5" fill="#EDF0F4" stroke="white"/>
<path d="M20.8141 22.7979L22.5383 21.0586C22.6187 20.9805 22.7449 20.9805 22.8253 21.0586L27.6595 25.9349C27.6911 25.9667 27.7111 26.0072 27.7169 26.0506L27.998 28.0416C28.0067 28.1053 27.9866 28.1662 27.9435 28.2124C27.9062 28.2501 27.8546 28.2732 27.8001 28.2732C27.7915 28.2732 27.7829 28.2732 27.7743 28.2703L25.7688 28.0185C25.7258 28.0128 25.6828 27.9925 25.6512 27.9606L20.8141 23.0844C20.7366 23.0062 20.7366 22.876 20.8141 22.7979ZM25.8865 27.6278L27.5648 27.8362L27.3296 26.1751L22.6818 21.4898L21.2416 22.9426L25.8865 27.6278Z" fill="#2E3F55" stroke="#2E3F55" stroke-width="0.25"/>
</svg>
