<svg width="24" height="25" viewBox="0 0 24 25" fill="none" xmlns="http://www.w3.org/2000/svg">
    <path d="m6.106 16.461-4.09-5.252.265 2.747 1.522 2.505 1.944 1.48 1.902.634 2.536.38 5.037-1.681 4.472 4.886 1.522-.921-4.504-5.533 1.75-5.231-3.24 3.481-3.293-2.747-2.565 2.38-3.258 2.872z" fill="#C9001F"/>
    <path d="M19.07 8.626a9.149 9.149 0 1 1-1.474-3.29l-1.18.842a7.698 7.698 0 1 0 1.24 2.768l1.414-.32z" fill="#2E3F55"/>
    <path fill-rule="evenodd" clip-rule="evenodd" d="M19.07 8.626a9.149 9.149 0 1 1-1.477-3.293c.002 0 .002.002.003.003l-1.18.842a7.698 7.698 0 1 0 1.24 2.768l1.414-.32z" fill="#2E3F55"/>
    <path fill-rule="evenodd" clip-rule="evenodd" d="m16.892 17.256-.667.668 3.628 3.623a.472.472 0 0 0 .667-.668l-3.628-3.623zm-2.505.67 4.547 4.54a1.772 1.772 0 0 0 2.504-2.507l-4.547-4.541-2.504 2.508z" fill="#2E3F55"/>
    <path d="m20.627 3.931.835 1.15-7.185 5.813-2.163-2.454-.02-.022-.023.018-6.555 5.213-.871-1.158 3.651-2.904 3.949-3.228 2.199 2.462.02.022.022-.018 6.14-4.894z" fill="#2E3F55" stroke="#2E3F55" stroke-width=".062"/>
    <path d="M19.47 3.528a.437.437 0 0 0-.239.718l.238-.718zm0 0 2.976-.615m-2.977.615 2.977-.615m0 0a.438.438 0 0 1 .414.137m-.414-.137.414.137m0 0 .024-.02m-.024.02.024-.02m0 0-.024.02m.024-.02-.024.02m0 0c.104.117.137.28.089.428l-.089-.428zm-1.608 3.466-2.02-2.27 3.717-.768-.956 2.885a.437.437 0 0 1-.74.153z" fill="#2E3F55" stroke="#2E3F55" stroke-width=".062"/>
</svg>
