<svg width="35" height="35" viewBox="0 0 35 35" fill="none" xmlns="http://www.w3.org/2000/svg">
<circle cx="16" cy="16" r="16" fill="#F6F0FC"/>
<path d="M21.188 8.24805H10.9278C10.1047 8.24805 9.4375 8.78692 9.4375 9.45176V22.7769C9.4375 23.4416 10.1047 23.9806 10.9278 23.9806H21.188C22.0111 23.9806 22.6782 23.4416 22.6782 22.7769V9.45176C22.6782 8.78692 22.0111 8.24805 21.188 8.24805ZM22.3657 22.7769C22.3657 23.3014 21.8374 23.7281 21.188 23.7281H10.9278C10.2784 23.7281 9.75 23.3014 9.75 22.7769V9.45176C9.75 8.92726 10.2784 8.50045 10.9278 8.50045H21.188C21.8374 8.50045 22.3657 8.92726 22.3657 9.45176V22.7769Z" fill="#A367DC"/>
<path fill-rule="evenodd" clip-rule="evenodd" d="M9.1875 9.45176C9.1875 8.60163 10.0191 7.99805 10.9278 7.99805H21.188C22.0967 7.99805 22.9282 8.60164 22.9282 9.45176V22.7769C22.9282 23.6269 22.0967 24.2306 21.188 24.2306H10.9278C10.0191 24.2306 9.1875 23.6269 9.1875 22.7769V9.45176ZM10.9278 8.75045C10.364 8.75045 10 9.11255 10 9.45176V22.7769C10 23.1161 10.364 23.4781 10.9278 23.4781H21.188C21.7518 23.4781 22.1157 23.1161 22.1157 22.7769V9.45176C22.1157 9.11254 21.7518 8.75045 21.188 8.75045H10.9278Z" fill="#A367DC"/>
<path fill-rule="evenodd" clip-rule="evenodd" d="M15.8809 13.125C14.3589 13.125 13.125 14.3589 13.125 15.8809C13.125 17.4029 14.3589 18.6368 15.8809 18.6368C16.5067 18.6368 17.0838 18.4282 17.5465 18.0767L19.485 20.0145C19.6315 20.1609 19.8689 20.1608 20.0153 20.0144C20.1618 19.8679 20.1617 19.6304 20.0152 19.484L18.0768 17.5464C18.4282 17.0838 18.6368 16.5067 18.6368 15.8809C18.6368 14.3589 17.4029 13.125 15.8809 13.125ZM17.3287 17.2693C17.6744 16.9089 17.8868 16.4197 17.8868 15.8809C17.8868 14.7731 16.9887 13.875 15.8809 13.875C14.7731 13.875 13.875 14.7731 13.875 15.8809C13.875 16.9887 14.7731 17.8868 15.8809 17.8868C16.4197 17.8868 16.9089 17.6744 17.2693 17.3287C17.2779 17.3179 17.2873 17.3074 17.2973 17.2974C17.3073 17.2873 17.3178 17.278 17.3287 17.2693Z" fill="#A367DC"/>
<circle cx="25" cy="25" r="9.5" fill="#EDF0F4" stroke="white"/>
<path fill-rule="evenodd" clip-rule="evenodd" d="M19.1211 24.9658C19.1211 21.699 21.7693 19.0508 25.0361 19.0508C28.3028 19.0508 30.9511 21.699 30.9511 24.9658C30.9511 28.2325 28.3029 30.8808 25.0361 30.8808C21.7693 30.8808 19.1211 28.2325 19.1211 24.9658ZM25.0361 19.6331C22.091 19.6331 19.7034 22.0206 19.7034 24.9658C19.7034 27.9109 22.091 30.2984 25.0361 30.2984C27.9812 30.2984 30.3687 27.9109 30.3687 24.9658C30.3687 22.0206 27.9812 19.6331 25.0361 19.6331Z" fill="#2E3F55"/>
<path d="M25.1684 26.7697H24.5368C24.5404 26.4644 24.5702 26.2058 24.6263 25.9939C24.6825 25.782 24.7737 25.5863 24.9 25.4067C25.0263 25.2272 25.1965 25.0296 25.4105 24.8141C25.5965 24.6238 25.7614 24.4478 25.9053 24.2862C26.0491 24.121 26.1614 23.9396 26.2421 23.7421C26.3263 23.5446 26.3684 23.3021 26.3684 23.0148C26.3684 22.7311 26.3193 22.4815 26.2211 22.266C26.1228 22.0505 25.9754 21.8817 25.7789 21.7596C25.5825 21.6375 25.3368 21.5764 25.0421 21.5764C24.7719 21.5764 24.5298 21.6303 24.3158 21.738C24.1053 21.8458 23.9386 22.002 23.8158 22.2067C23.6965 22.4079 23.6333 22.6521 23.6263 22.9394H23C23.007 22.53 23.1018 22.1816 23.2842 21.8943C23.4702 21.6034 23.7158 21.3825 24.0211 21.2316C24.3298 21.0772 24.6702 21 25.0421 21C25.4632 21 25.8175 21.0844 26.1053 21.2532C26.3965 21.422 26.6175 21.6572 26.7684 21.9589C26.9228 22.2606 27 22.6108 27 23.0094C27 23.3291 26.9474 23.6182 26.8421 23.8768C26.7368 24.1318 26.5912 24.3724 26.4053 24.5987C26.2193 24.8249 26.0035 25.053 25.7579 25.2828C25.5333 25.4804 25.3789 25.7066 25.2947 25.9616C25.2105 26.213 25.1684 26.4824 25.1684 26.7697ZM24.4263 28C24.4263 27.8779 24.4649 27.7755 24.5421 27.6929C24.6193 27.6067 24.7246 27.5636 24.8579 27.5636C24.9912 27.5636 25.0965 27.6067 25.1737 27.6929C25.2544 27.7755 25.2947 27.8779 25.2947 28C25.2947 28.1185 25.2544 28.2209 25.1737 28.3071C25.0965 28.3897 24.9912 28.431 24.8579 28.431C24.7246 28.431 24.6193 28.3897 24.5421 28.3071C24.4649 28.2209 24.4263 28.1185 24.4263 28Z" fill="#2E3F55"/>
</svg>
