<svg width="16" height="16" viewBox="0 0 16 16" fill="none" xmlns="http://www.w3.org/2000/svg">
<path d="M12.1504 1.79883H3.94225C3.28375 1.79883 2.75 2.22993 2.75 2.7618V13.4219C2.75 13.9537 3.28375 14.3849 3.94225 14.3849H12.1504C12.8089 14.3849 13.3426 13.9537 13.3426 13.4219V2.7618C13.3426 2.22993 12.8089 1.79883 12.1504 1.79883ZM13.0926 13.4219C13.0926 13.8415 12.6699 14.1829 12.1504 14.1829H3.94225C3.42275 14.1829 3 13.8415 3 13.4219V2.7618C3 2.3422 3.42275 2.00075 3.94225 2.00075H12.1504C12.6699 2.00075 13.0926 2.3422 13.0926 2.7618V13.4219Z" fill="#2E3F55"/>
<path fill-rule="evenodd" clip-rule="evenodd" d="M2.55078 2.7616C2.55078 2.0815 3.21609 1.59863 3.94303 1.59863H12.1512C12.8781 1.59863 13.5434 2.08151 13.5434 2.7616V13.4217C13.5434 14.1017 12.8782 14.5847 12.1512 14.5847H3.94303C3.21607 14.5847 2.55078 14.1017 2.55078 13.4217V2.7616ZM3.94303 2.20055C3.49198 2.20055 3.20078 2.49024 3.20078 2.7616V13.4217C3.20078 13.6931 3.49196 13.9827 3.94303 13.9827H12.1512C12.6022 13.9827 12.8934 13.6931 12.8934 13.4217V2.7616C12.8934 2.49023 12.6022 2.20055 12.1512 2.20055H3.94303Z" fill="#2E3F55"/>
<path fill-rule="evenodd" clip-rule="evenodd" d="M7.8809 5.125C6.35886 5.125 5.125 6.35886 5.125 7.8809C5.125 9.40294 6.35886 10.6368 7.8809 10.6368C8.50673 10.6368 9.08384 10.4282 9.54649 10.0767L11.485 12.0145C11.6315 12.1609 11.8689 12.1608 12.0153 12.0144C12.1618 11.8679 12.1617 11.6304 12.0152 11.484L10.0768 9.54638C10.4282 9.08375 10.6368 8.50668 10.6368 7.8809C10.6368 6.35886 9.40294 5.125 7.8809 5.125ZM9.32866 9.26929C9.67436 8.90891 9.8868 8.41972 9.8868 7.8809C9.8868 6.77307 8.98873 5.875 7.8809 5.875C6.77307 5.875 5.875 6.77307 5.875 7.8809C5.875 8.98873 6.77307 9.8868 7.8809 9.8868C8.41972 9.8868 8.90891 9.67436 9.26929 9.32866C9.27794 9.31785 9.28727 9.30741 9.29728 9.29739C9.30733 9.28733 9.31781 9.27797 9.32866 9.26929Z" fill="#2E3F55"/>
</svg>
