<svg width="16" height="16" viewBox="0 0 16 16" fill="none" xmlns="http://www.w3.org/2000/svg">
<path fill-rule="evenodd" clip-rule="evenodd" d="M7.90472 3.75C6.7133 3.75 5.75 4.72118 5.75 5.91606C5.75 7.11094 6.7133 8.08212 7.90472 8.08212C8.40992 8.08212 8.8741 7.9075 9.24122 7.61524L10.8228 9.20568C10.9202 9.30358 11.0785 9.30402 11.1764 9.20666C11.2743 9.1093 11.2747 8.95101 11.1774 8.85311L9.59395 7.26086C9.88547 6.89124 10.0594 6.42385 10.0594 5.91606C10.0594 4.72118 9.09614 3.75 7.90472 3.75ZM9.09533 7.07309C9.38256 6.77361 9.55944 6.36593 9.55944 5.91606C9.55944 4.99452 8.8172 4.25 7.90472 4.25C6.99224 4.25 6.25 4.99452 6.25 5.91606C6.25 6.8376 6.99224 7.58212 7.90472 7.58212C8.3501 7.58212 8.75493 7.40474 9.05268 7.11598C9.0591 7.10775 9.06612 7.09982 9.07372 7.09226C9.08063 7.08538 9.08786 7.07899 9.09533 7.07309Z" fill="#2E3F55"/>
<path fill-rule="evenodd" clip-rule="evenodd" d="M7.17625 9.86567C7.27417 9.96301 7.27464 10.1213 7.1773 10.2192L5.1148 12.2939C5.06787 12.3411 5.00406 12.3677 4.9375 12.3677C4.87094 12.3677 4.80713 12.3411 4.76021 12.2939L3.82271 11.3509C3.72536 11.253 3.72582 11.0947 3.82374 10.9974C3.92166 10.9 4.07995 10.9005 4.17729 10.9984L4.9375 11.7631L6.8227 9.86671C6.92005 9.7688 7.07834 9.76833 7.17625 9.86567Z" fill="#2E3F55"/>
<path d="M12.5497 1.5H3.50084C2.84234 1.5 2.30859 1.93111 2.30859 2.46297V13.4218C2.30859 13.9536 2.84234 14.3848 3.50084 14.3848H12.5497C13.2082 14.3848 13.742 13.9536 13.742 13.4218V2.46297C13.742 1.93111 13.2082 1.5 12.5497 1.5ZM13.492 13.4218C13.492 13.8414 13.0692 14.1828 12.5497 14.1828H3.50084C2.98134 14.1828 2.55859 13.8414 2.55859 13.4218V2.46297C2.55859 2.04338 2.98134 1.70192 3.50084 1.70192H12.5497C13.0692 1.70192 13.492 2.04338 13.492 2.46297V13.4218Z" fill="#2E3F55" stroke="#2E3F55" stroke-width="0.5"/>
<path fill-rule="evenodd" clip-rule="evenodd" d="M7.64844 12.0004C7.64844 11.8071 7.80514 11.6504 7.99844 11.6504H10.9984C11.1917 11.6504 11.3484 11.8071 11.3484 12.0004C11.3484 12.1937 11.1917 12.3504 10.9984 12.3504H7.99844C7.80514 12.3504 7.64844 12.1937 7.64844 12.0004Z" fill="#2E3F55"/>
</svg>
