<svg width="24" height="24" viewBox="0 0 24 24" fill="none" xmlns="http://www.w3.org/2000/svg">
    <path d="m6.106 15.961-4.09-5.252.265 2.747 1.522 2.505 1.944 1.48 1.902.634 2.536.38 5.037-1.681 4.472 4.886 1.522-.921-4.504-5.533 1.75-5.231-3.24 3.481-3.293-2.747-2.565 2.38-3.258 2.872z" fill="#B7C3D1"/>
    <mask id="a" fill="#fff">
        <path d="M19.07 8.126a9.149 9.149 0 1 1-1.474-3.29l-1.18.842a7.698 7.698 0 1 0 1.24 2.768l1.414-.32z"/>
    </mask>
    <path d="M19.07 8.126a9.149 9.149 0 1 1-1.474-3.29l-1.18.842a7.698 7.698 0 1 0 1.24 2.768l1.414-.32z" fill="#8296AF" stroke="#8296AF" stroke-width="2" mask="url(#a)"/>
    <path d="m15.306 17.425 1.586-1.588 4.087 4.082a1.122 1.122 0 1 1-1.586 1.588l-4.087-4.082z" stroke="#8296AF" stroke-width="1.3" stroke-linejoin="round"/>
    <path d="M12.248 5.816 8.277 9.063l-3.675 2.922.908 1.209 6.58-5.234 2.183 2.477 7.232-5.851-.872-1.2L14.467 8.3l-2.219-2.484z" fill="#8296AF"/>
    <path d="M22.884 2.53a.469.469 0 0 0-.444-.147l-2.977.614a.468.468 0 0 0-.255.77l2.02 2.27a.468.468 0 0 0 .794-.164l.956-2.885a.469.469 0 0 0-.094-.458z" fill="#8296AF"/>
</svg>
