<svg width="35" height="35" viewBox="0 0 35 35" fill="none" xmlns="http://www.w3.org/2000/svg">
<circle cx="16" cy="16" r="16" fill="#F6F0FC"/>
<path d="M21.188 8.24805H10.9278C10.1047 8.24805 9.4375 8.78692 9.4375 9.45176V22.7769C9.4375 23.4416 10.1047 23.9806 10.9278 23.9806H21.188C22.0111 23.9806 22.6782 23.4416 22.6782 22.7769V9.45176C22.6782 8.78692 22.0111 8.24805 21.188 8.24805ZM22.3657 22.7769C22.3657 23.3014 21.8374 23.7281 21.188 23.7281H10.9278C10.2784 23.7281 9.75 23.3014 9.75 22.7769V9.45176C9.75 8.92726 10.2784 8.50045 10.9278 8.50045H21.188C21.8374 8.50045 22.3657 8.92726 22.3657 9.45176V22.7769Z" fill="#A367DC"/>
<path fill-rule="evenodd" clip-rule="evenodd" d="M9.1875 9.45176C9.1875 8.60163 10.0191 7.99805 10.9278 7.99805H21.188C22.0967 7.99805 22.9282 8.60164 22.9282 9.45176V22.7769C22.9282 23.6269 22.0967 24.2306 21.188 24.2306H10.9278C10.0191 24.2306 9.1875 23.6269 9.1875 22.7769V9.45176ZM10.9278 8.75045C10.364 8.75045 10 9.11255 10 9.45176V22.7769C10 23.1161 10.364 23.4781 10.9278 23.4781H21.188C21.7518 23.4781 22.1157 23.1161 22.1157 22.7769V9.45176C22.1157 9.11254 21.7518 8.75045 21.188 8.75045H10.9278Z" fill="#A367DC"/>
<path fill-rule="evenodd" clip-rule="evenodd" d="M15.8809 13.125C14.3589 13.125 13.125 14.3589 13.125 15.8809C13.125 17.4029 14.3589 18.6368 15.8809 18.6368C16.5067 18.6368 17.0838 18.4282 17.5465 18.0767L19.485 20.0145C19.6315 20.1609 19.8689 20.1608 20.0153 20.0144C20.1618 19.8679 20.1617 19.6304 20.0152 19.484L18.0768 17.5464C18.4282 17.0838 18.6368 16.5067 18.6368 15.8809C18.6368 14.3589 17.4029 13.125 15.8809 13.125ZM17.3287 17.2693C17.6744 16.9089 17.8868 16.4197 17.8868 15.8809C17.8868 14.7731 16.9887 13.875 15.8809 13.875C14.7731 13.875 13.875 14.7731 13.875 15.8809C13.875 16.9887 14.7731 17.8868 15.8809 17.8868C16.4197 17.8868 16.9089 17.6744 17.2693 17.3287C17.2779 17.3179 17.2873 17.3074 17.2973 17.2974C17.3073 17.2873 17.3178 17.278 17.3287 17.2693Z" fill="#A367DC"/>
<circle cx="25" cy="25" r="9.5" fill="#FEE8EB" stroke="white"/>
<path fill-rule="evenodd" clip-rule="evenodd" d="M30.0042 19.7501C30.0503 19.7504 30.0952 19.7645 30.1333 19.7905C30.1713 19.8164 30.2007 19.8531 30.2179 19.8959C30.235 19.9387 30.2389 19.9855 30.2293 20.0306C30.2197 20.0756 30.1968 20.1168 30.1637 20.1488L25.4551 24.8574L30.1637 29.566C30.1891 29.5864 30.2098 29.612 30.2246 29.6409C30.2394 29.67 30.2479 29.7017 30.2497 29.7342C30.2514 29.7667 30.2463 29.7992 30.2346 29.8296C30.223 29.8599 30.2051 29.8875 30.1821 29.9105C30.159 29.9335 30.1315 29.9515 30.1011 29.9631C30.0707 29.9747 30.0382 29.9799 30.0057 29.9781C29.9732 29.9764 29.9414 29.9679 29.9125 29.9531C29.8835 29.9382 29.8579 29.9175 29.8375 29.8922L25.1289 25.1836L20.4203 29.8922C20.3999 29.9175 20.3743 29.9382 20.3453 29.9531C20.3164 29.9679 20.2846 29.9764 20.2522 29.9781C20.2196 29.9799 20.1871 29.9747 20.1568 29.9631C20.1263 29.9515 20.0988 29.9335 20.0758 29.9105C20.0527 29.8875 20.0348 29.8599 20.0232 29.8296C20.0115 29.7992 20.0065 29.7667 20.0081 29.7342C20.0099 29.7017 20.0184 29.67 20.0332 29.6409C20.048 29.612 20.0688 29.5864 20.094 29.566L24.8027 24.8574L20.094 20.1488C20.0605 20.1163 20.0375 20.0745 20.0281 20.0288C20.0187 19.9831 20.0233 19.9356 20.0413 19.8925C20.0593 19.8494 20.0898 19.8128 20.129 19.7874C20.1682 19.762 20.2142 19.749 20.2608 19.7501C20.3214 19.7525 20.3787 19.7785 20.4203 19.8226L25.1289 24.5312L29.8375 19.8226C29.859 19.7999 29.8848 19.7818 29.9135 19.7693C29.9421 19.7568 29.973 19.7503 30.0042 19.7501Z" fill="#F81538" stroke="#F81538" stroke-width="0.375"/>
</svg>
