<svg width="16" height="16" viewBox="0 0 16 16" fill="none" xmlns="http://www.w3.org/2000/svg">
<path d="M12.5497 1.5H3.50084C2.84234 1.5 2.30859 1.93111 2.30859 2.46297V13.4218C2.30859 13.9536 2.84234 14.3848 3.50084 14.3848H12.5497C13.2082 14.3848 13.742 13.9536 13.742 13.4218V2.46297C13.742 1.93111 13.2082 1.5 12.5497 1.5ZM13.492 13.4218C13.492 13.8414 13.0692 14.1828 12.5497 14.1828H3.50084C2.98134 14.1828 2.55859 13.8414 2.55859 13.4218V2.46297C2.55859 2.04338 2.98134 1.70192 3.50084 1.70192H12.5497C13.0692 1.70192 13.492 2.04338 13.492 2.46297V13.4218Z" fill="white" stroke="white" stroke-width="0.4"/>
<path fill-rule="evenodd" clip-rule="evenodd" d="M5.21875 11.9997C5.21875 11.8451 5.34411 11.7197 5.49875 11.7197H10.9998C11.1544 11.7197 11.2798 11.8451 11.2798 11.9997C11.2798 12.1544 11.1544 12.2797 10.9998 12.2797H5.49875C5.34411 12.2797 5.21875 12.1544 5.21875 11.9997Z" fill="white"/>
<path fill-rule="evenodd" clip-rule="evenodd" d="M8 4H8.5V4.51127C8.77884 4.54468 9.04573 4.65217 9.24533 4.83096C9.57364 5.13972 9.22628 5.62866 8.93695 5.38184C8.58006 5.11814 7.77009 4.99425 7.66874 5.57797C7.61099 5.98798 7.99319 6.11139 8.43271 6.25331C8.98207 6.43069 9.62099 6.63699 9.60222 7.46803C9.58425 8.22769 9.07401 8.59262 8.5 8.67138V9.5H8V8.67102C7.65875 8.62559 7.33835 8.49044 7.1282 8.28824C7.0599 8.21903 7.01585 8.12634 7.00353 8.0259C6.99121 7.92547 7.01138 7.82349 7.06063 7.73736C7.08314 7.69877 7.11362 7.66638 7.14967 7.64273C7.18571 7.61909 7.22634 7.60485 7.26834 7.60112C7.31034 7.59739 7.35257 7.60426 7.39169 7.62123C7.43081 7.6382 7.46574 7.66479 7.49376 7.6989C7.88877 8.01328 8.90661 8.24977 8.97851 7.45114C8.95133 7.10672 8.59346 6.98989 8.1931 6.8592C7.62367 6.67331 6.9683 6.45937 7.05629 5.52261C7.11406 4.95397 7.52525 4.62835 8 4.53116V4Z" fill="white"/>
</svg>
