<svg width="35" height="35" viewBox="0 0 35 35" fill="none" xmlns="http://www.w3.org/2000/svg">
<circle cx="16" cy="16" r="16" fill="#DC67CE" fill-opacity="0.1"/>
<path fill-rule="evenodd" clip-rule="evenodd" d="M24.3984 15.95C24.3984 11.2832 20.6152 7.5 15.9484 7.5C11.2816 7.5 7.49844 11.2832 7.49844 15.95C7.49844 20.6168 11.2816 24.4 15.9484 24.4C20.6152 24.4 24.3984 20.6168 24.3984 15.95ZM15.9484 8.33193C20.1558 8.33193 23.5665 11.7427 23.5665 15.95C23.5665 20.1573 20.1558 23.5681 15.9484 23.5681C11.7411 23.5681 8.33037 20.1573 8.33037 15.95C8.33037 11.7427 11.7411 8.33193 15.9484 8.33193Z" fill="#DC67CE"/>
<path fill-rule="evenodd" clip-rule="evenodd" d="M16.8203 17.0625V11.4375H15.9453V16.7921L12.4372 18.5462L12.8285 19.3288L16.5785 17.4538C16.7267 17.3797 16.8203 17.2282 16.8203 17.0625Z" fill="#DC67CE"/>
<circle cx="25" cy="25" r="9.5" fill="#FEE8EB" stroke="white"/>
<path fill-rule="evenodd" clip-rule="evenodd" d="M30.8789 24.9658C30.8789 21.699 28.2307 19.0508 24.9639 19.0508C21.6971 19.0508 19.0489 21.699 19.0489 24.9658C19.0489 28.2325 21.6971 30.8808 24.9639 30.8808C28.2307 30.8808 30.8789 28.2325 30.8789 24.9658ZM24.9639 19.6141C27.9196 19.6141 30.3156 22.0101 30.3156 24.9658C30.3156 27.9214 27.9196 30.3174 24.9639 30.3174C22.0083 30.3174 19.6122 27.9214 19.6122 24.9658C19.6122 22.0101 22.0083 19.6141 24.9639 19.6141Z" fill="#F81538"/>
<path fill-rule="evenodd" clip-rule="evenodd" d="M27.2613 22.5508C27.2834 22.551 27.3049 22.5577 27.3231 22.5702C27.3413 22.5826 27.3553 22.6002 27.3635 22.6207C27.3717 22.6412 27.3736 22.6636 27.369 22.6852C27.3644 22.7068 27.3535 22.7265 27.3376 22.7418L25.085 24.9975L27.3376 27.2532C27.3497 27.263 27.3597 27.2752 27.3668 27.2891C27.3738 27.303 27.3779 27.3182 27.3788 27.3338C27.3796 27.3494 27.3771 27.3649 27.3715 27.3794C27.366 27.394 27.3574 27.4073 27.3464 27.4182C27.3354 27.4292 27.3222 27.4378 27.3077 27.4434C27.2931 27.449 27.2776 27.4514 27.262 27.4506C27.2465 27.4498 27.2313 27.4457 27.2174 27.4386C27.2036 27.4315 27.1913 27.4216 27.1816 27.4095L24.9289 25.1538L22.6762 27.4095C22.6664 27.4216 22.6543 27.4315 22.6404 27.4386C22.6265 27.4457 22.6113 27.4498 22.5958 27.4506C22.5802 27.4514 22.5646 27.449 22.5501 27.4434C22.5356 27.4378 22.5224 27.4292 22.5114 27.4182C22.5004 27.4073 22.4918 27.394 22.4863 27.3794C22.4806 27.3649 22.4782 27.3494 22.4791 27.3338C22.4799 27.3182 22.484 27.303 22.4911 27.2891C22.4981 27.2752 22.508 27.263 22.5202 27.2532L24.7728 24.9975L22.5202 22.7418C22.5041 22.7263 22.4931 22.7062 22.4886 22.6843C22.4841 22.6624 22.4863 22.6397 22.4949 22.619C22.5036 22.5984 22.5182 22.5808 22.5369 22.5687C22.5557 22.5565 22.5776 22.5503 22.6 22.5508C22.6289 22.552 22.6563 22.5644 22.6762 22.5855L24.9289 24.8412L27.1816 22.5855C27.1918 22.5747 27.2042 22.566 27.2179 22.56C27.2316 22.5541 27.2464 22.5509 27.2613 22.5508Z" fill="#F81538" stroke="#F81538" stroke-width="0.4"/>
</svg>
