<svg width="35" height="35" viewBox="0 0 35 35" fill="none" xmlns="http://www.w3.org/2000/svg">
<circle cx="16" cy="16" r="16" fill="#DC67CE" fill-opacity="0.1"/>
<path fill-rule="evenodd" clip-rule="evenodd" d="M24.3984 15.95C24.3984 11.2832 20.6152 7.5 15.9484 7.5C11.2816 7.5 7.49844 11.2832 7.49844 15.95C7.49844 20.6168 11.2816 24.4 15.9484 24.4C20.6152 24.4 24.3984 20.6168 24.3984 15.95ZM15.9484 8.33193C20.1558 8.33193 23.5665 11.7427 23.5665 15.95C23.5665 20.1573 20.1558 23.5681 15.9484 23.5681C11.7411 23.5681 8.33037 20.1573 8.33037 15.95C8.33037 11.7427 11.7411 8.33193 15.9484 8.33193Z" fill="#DC67CE"/>
<path fill-rule="evenodd" clip-rule="evenodd" d="M16.8203 17.0625V11.4375H15.9453V16.7921L12.4372 18.5462L12.8285 19.3288L16.5785 17.4538C16.7267 17.3797 16.8203 17.2282 16.8203 17.0625Z" fill="#DC67CE"/>
<circle cx="25" cy="25" r="9.5" fill="#FEE8EB" stroke="white"/>
<path fill-rule="evenodd" clip-rule="evenodd" d="M19.9958 19.7501C19.9497 19.7504 19.9048 19.7645 19.8667 19.7905C19.8287 19.8164 19.7993 19.8531 19.7821 19.8959C19.765 19.9387 19.7611 19.9855 19.7707 20.0306C19.7803 20.0756 19.8032 20.1168 19.8363 20.1488L24.5449 24.8574L19.8363 29.566C19.8109 29.5864 19.7902 29.612 19.7754 29.6409C19.7606 29.67 19.7521 29.7017 19.7503 29.7342C19.7486 29.7667 19.7537 29.7992 19.7654 29.8296C19.777 29.8599 19.7949 29.8875 19.8179 29.9105C19.841 29.9335 19.8685 29.9515 19.8989 29.9631C19.9293 29.9747 19.9618 29.9799 19.9943 29.9781C20.0268 29.9764 20.0586 29.9679 20.0875 29.9531C20.1165 29.9382 20.1421 29.9175 20.1625 29.8922L24.8711 25.1836L29.5797 29.8922C29.6001 29.9175 29.6257 29.9382 29.6547 29.9531C29.6836 29.9679 29.7154 29.9764 29.7478 29.9781C29.7804 29.9799 29.8129 29.9747 29.8432 29.9631C29.8737 29.9515 29.9012 29.9335 29.9242 29.9105C29.9473 29.8875 29.9652 29.8599 29.9768 29.8296C29.9885 29.7992 29.9935 29.7667 29.9919 29.7342C29.9901 29.7017 29.9816 29.67 29.9668 29.6409C29.952 29.612 29.9312 29.5864 29.906 29.566L25.1973 24.8574L29.906 20.1488C29.9395 20.1163 29.9625 20.0745 29.9719 20.0288C29.9813 19.9831 29.9767 19.9356 29.9587 19.8925C29.9407 19.8494 29.9102 19.8128 29.871 19.7874C29.8318 19.762 29.7858 19.749 29.7392 19.7501C29.6786 19.7525 29.6213 19.7785 29.5797 19.8226L24.8711 24.5312L20.1625 19.8226C20.141 19.7999 20.1152 19.7818 20.0865 19.7693C20.0579 19.7568 20.027 19.7503 19.9958 19.7501Z" fill="#F81538" stroke="#F81538" stroke-width="0.375"/>
</svg>
