<svg width="35" height="35" viewBox="0 0 35 35" fill="none" xmlns="http://www.w3.org/2000/svg">
<circle cx="16" cy="16" r="16" fill="#DC67CE" fill-opacity="0.1"/>
<path fill-rule="evenodd" clip-rule="evenodd" d="M24.3984 15.95C24.3984 11.2832 20.6152 7.5 15.9484 7.5C11.2816 7.5 7.49844 11.2832 7.49844 15.95C7.49844 20.6168 11.2816 24.4 15.9484 24.4C20.6152 24.4 24.3984 20.6168 24.3984 15.95ZM15.9484 8.33193C20.1558 8.33193 23.5665 11.7427 23.5665 15.95C23.5665 20.1573 20.1558 23.5681 15.9484 23.5681C11.7411 23.5681 8.33037 20.1573 8.33037 15.95C8.33037 11.7427 11.7411 8.33193 15.9484 8.33193Z" fill="#DC67CE"/>
<path fill-rule="evenodd" clip-rule="evenodd" d="M16.8203 17.0625V11.4375H15.9453V16.7921L12.4372 18.5462L12.8285 19.3288L16.5785 17.4538C16.7267 17.3797 16.8203 17.2282 16.8203 17.0625Z" fill="#DC67CE"/>
<circle cx="25" cy="25" r="9.5" fill="#E9F9E8" stroke="white"/>
<path fill-rule="evenodd" clip-rule="evenodd" d="M24.9658 30.2683C27.8943 30.2683 30.2683 27.8943 30.2683 24.9658C30.2683 22.0373 27.8943 19.6633 24.9658 19.6633C22.0373 19.6633 19.6633 22.0373 19.6633 24.9658C19.6633 27.8943 22.0373 30.2683 24.9658 30.2683ZM30.8808 24.9658C30.8808 28.2325 28.2325 30.8808 24.9658 30.8808C21.699 30.8808 19.0508 28.2325 19.0508 24.9658C19.0508 21.699 21.699 19.0508 24.9658 19.0508C28.2325 19.0508 30.8808 21.699 30.8808 24.9658Z" fill="#24C11E"/>
<path d="M27.5898 22.9004L23.9805 26.5098L22.3398 24.8691" stroke="#24C11E" stroke-width="0.875" stroke-linecap="round" stroke-linejoin="round"/>
</svg>
