<svg width="16" height="16" fill="none" xmlns="http://www.w3.org/2000/svg">
    <path d="M8.003 1.333A4.942 4.942 0 0 0 3.066 6.27c0 1.312.506 2.543 1.425 3.467l3.152 4.367c.042.058.11.094.186.096h.002a.23.23 0 0 0 .182-.087l3.504-4.377A4.905 4.905 0 0 0 12.94 6.27a4.942 4.942 0 0 0-4.937-4.937zm3.172 8.087a.142.142 0 0 0-.01.012L7.84 13.583 4.853 9.446A4.442 4.442 0 0 1 3.531 6.27a4.477 4.477 0 0 1 4.472-4.472 4.477 4.477 0 0 1 4.472 4.472 4.456 4.456 0 0 1-1.3 3.15z" fill="#2E3F55" stroke="#2E3F55" stroke-width=".2"/>
    <path d="M8.002 4.328a1.945 1.945 0 0 0-1.943 1.943c0 1.071.871 1.943 1.943 1.943a1.945 1.945 0 0 0 1.943-1.943 1.945 1.945 0 0 0-1.943-1.943zm0 3.421a1.48 1.48 0 0 1-1.478-1.478 1.48 1.48 0 0 1 1.478-1.478A1.48 1.48 0 0 1 9.48 6.271 1.48 1.48 0 0 1 8.002 7.75z" fill="#2E3F55" stroke="#2E3F55" stroke-width=".2"/>
</svg>
