<svg width="16" height="16" viewBox="0 0 16 16" fill="none" xmlns="http://www.w3.org/2000/svg">
<path d="M8.003 1.33301C5.28086 1.33301 3.06641 3.54761 3.06641 6.2696C3.06641 7.58168 3.57239 8.81269 4.49119 9.73722L7.64258 14.1037C7.6849 14.1621 7.7531 14.1979 7.82906 14.1998H7.83108C7.9027 14.1998 7.9692 14.1675 8.01261 14.1125L11.5168 9.73583C12.4345 8.80587 12.9397 7.57532 12.9397 6.26991C12.9397 3.54761 10.7251 1.33301 8.003 1.33301ZM11.1748 9.42036C11.1711 9.42408 11.1674 9.42827 11.1641 9.43246L7.84053 13.5831L4.85316 9.44563C4.84835 9.43897 4.84308 9.43261 4.83719 9.42688C3.99513 8.5828 3.53146 7.46154 3.53146 6.2696C3.53146 3.80402 5.53741 1.79807 8.003 1.79807C10.4686 1.79807 12.4747 3.80402 12.4747 6.2696C12.4747 7.45394 12.013 8.57287 11.1748 9.42036Z" fill="white" stroke="white" stroke-width="0.2"/>
<path d="M8.00176 4.32812C6.93027 4.32812 6.05859 5.1998 6.05859 6.27114C6.05859 7.34248 6.93027 8.21415 8.00176 8.21415C9.0731 8.21415 9.94477 7.34248 9.94477 6.27114C9.94477 5.1998 9.0731 4.32812 8.00176 4.32812ZM8.00176 7.74909C7.18667 7.74909 6.52365 7.08607 6.52365 6.27114C6.52365 5.4562 7.18667 4.79318 8.00176 4.79318C8.8167 4.79318 9.47971 5.4562 9.47971 6.27114C9.47971 7.08607 8.8167 7.74909 8.00176 7.74909Z" fill="white" stroke="white" stroke-width="0.2"/>
</svg>
