<svg width="24" height="24" viewBox="0 0 24 24" fill="none" xmlns="http://www.w3.org/2000/svg">
    <path fill-rule="evenodd" clip-rule="evenodd" d="M3.474 3.954c-.907 0-1.652.744-1.652 1.652v12.788c0 .908.745 1.652 1.652 1.652h17.052c.907 0 1.651-.744 1.651-1.652V5.606c0-.908-.744-1.652-1.651-1.652H3.474zM.862 5.606a2.618 2.618 0 0 1 2.612-2.612h17.052a2.618 2.618 0 0 1 2.611 2.612v12.788a2.618 2.618 0 0 1-2.611 2.612H3.474a2.618 2.618 0 0 1-2.612-2.612V5.606z" fill="#2E3F55"/>
    <path fill-rule="evenodd" clip-rule="evenodd" d="M.95 5.33a.48.48 0 0 1 .668-.117L12 12.48l10.382-7.267a.48.48 0 1 1 .55.786l-10.657 7.46a.48.48 0 0 1-.55 0L1.066 6a.48.48 0 0 1-.118-.668z" fill="#2E3F55"/>
</svg>
