<svg width="16" height="16" viewBox="0 0 16 16" fill="none" xmlns="http://www.w3.org/2000/svg">
<path fill-rule="evenodd" clip-rule="evenodd" d="M3.43586 2.04677L12.5469 2.0459C13.4898 2.0459 14.2913 2.76236 14.2914 3.69051M14.2914 3.69051L14.2982 12.9991C14.2982 13.9274 13.4967 14.6442 12.5539 14.6442C12.5539 14.6442 12.5539 14.6442 12.5539 14.6442L3.44271 14.645C2.49992 14.645 1.69837 13.9285 1.69825 13.0004L1.69141 3.69182C1.69141 2.76358 2.49298 2.04678 3.43586 2.04677C3.43587 2.04677 3.43585 2.04677 3.43586 2.04677M12.5469 2.6459L3.43588 2.64677C2.78331 2.64677 2.29147 3.13432 2.29141 3.69148C2.29141 3.69152 2.29141 3.69145 2.29141 3.69148L2.29825 13C2.29825 13.5572 2.79006 14.045 3.44266 14.045C3.44267 14.045 3.44265 14.045 3.44266 14.045L12.5538 14.0442C13.2063 14.0442 13.6981 13.5567 13.6982 12.9995C13.6982 12.9994 13.6982 12.9996 13.6982 12.9995L13.6914 3.69095C13.6914 3.13375 13.1996 2.64591 12.5469 2.6459C12.5469 2.6459 12.547 2.6459 12.5469 2.6459Z" fill="white"/>
<path fill-rule="evenodd" clip-rule="evenodd" d="M5.82841 11.6912C6.13443 11.3512 6.55536 11.1545 7.00047 11.1545H9.80047C10.2456 11.1545 10.6665 11.3512 10.9725 11.6912C11.2778 12.0303 11.4455 12.4854 11.4455 12.955L11.4455 13.9589C11.4455 14.0942 11.3358 14.2039 11.2005 14.2039C11.0652 14.2039 10.9555 14.0942 10.9555 13.9589L10.9555 12.955C10.9555 12.5996 10.8282 12.2632 10.6083 12.019L10.6083 12.019C10.3892 11.7756 10.098 11.6445 9.80047 11.6445H7.00047C6.70297 11.6445 6.4117 11.7756 6.19261 12.019C6.15456 12.0613 6.06474 12.2039 5.98263 12.3994C5.90168 12.5921 5.84547 12.796 5.84547 12.955V13.9589C5.84547 14.0942 5.73578 14.2039 5.60047 14.2039C5.46516 14.2039 5.35547 14.0942 5.35547 13.9589V12.955C5.35547 12.7015 5.43929 12.4277 5.53087 12.2096C5.62128 11.9944 5.73649 11.7933 5.82841 11.6912ZM6.75547 8.99949C6.75547 8.09098 7.49196 7.35449 8.40047 7.35449C9.30898 7.35449 10.0455 8.09098 10.0455 8.99949C10.0455 9.908 9.30898 10.6445 8.40047 10.6445C7.49196 10.6445 6.75547 9.908 6.75547 8.99949ZM8.40047 7.84449C7.76258 7.84449 7.24547 8.3616 7.24547 8.99949C7.24547 9.63738 7.76258 10.1545 8.40047 10.1545C9.03836 10.1545 9.55547 9.63738 9.55547 8.99949C9.55547 8.3616 9.03836 7.84449 8.40047 7.84449Z" fill="white"/>
<path fill-rule="evenodd" clip-rule="evenodd" d="M9.99922 1.2002C10.1649 1.2002 10.2992 1.33451 10.2992 1.5002V4.0002C10.2992 4.16588 10.1649 4.3002 9.99922 4.3002C9.83353 4.3002 9.69922 4.16588 9.69922 4.0002V1.5002C9.69922 1.33451 9.83353 1.2002 9.99922 1.2002Z" fill="white"/>
<path fill-rule="evenodd" clip-rule="evenodd" d="M5.99922 1.2002C6.1649 1.2002 6.29922 1.33451 6.29922 1.5002V4.0002C6.29922 4.16588 6.1649 4.3002 5.99922 4.3002C5.83353 4.3002 5.69922 4.16588 5.69922 4.0002V1.5002C5.69922 1.33451 5.83353 1.2002 5.99922 1.2002Z" fill="white"/>
<path fill-rule="evenodd" clip-rule="evenodd" d="M1.69141 5.20039C1.69141 5.03471 1.82572 4.90039 1.99141 4.90039H13.8803C14.046 4.90039 14.1803 5.03471 14.1803 5.20039C14.1803 5.36608 14.046 5.50039 13.8803 5.50039H1.99141C1.82572 5.50039 1.69141 5.36608 1.69141 5.20039Z" fill="white"/>
</svg>
