<svg width="16" height="16" viewBox="0 0 16 16" fill="none" xmlns="http://www.w3.org/2000/svg">
<path fill-rule="evenodd" clip-rule="evenodd" d="M1.28125 7.96019C1.28125 4.22675 4.3078 1.2002 8.04125 1.2002C11.7747 1.2002 14.8012 4.22675 14.8012 7.96019C14.8012 11.6936 11.7747 14.7202 8.04125 14.7202C4.3078 14.7202 1.28125 11.6936 1.28125 7.96019ZM8.04125 1.86574C4.67537 1.86574 1.94679 4.59432 1.94679 7.96019C1.94679 11.3261 4.67537 14.0547 8.04125 14.0547C11.4071 14.0547 14.1357 11.3261 14.1357 7.96019C14.1357 4.59432 11.4071 1.86574 8.04125 1.86574Z" fill="#2E3F55"/>
<path fill-rule="evenodd" clip-rule="evenodd" d="M7.34375 8.85059V4.35059H8.04375V8.63427L10.8503 10.0375L10.5372 10.6636L7.53723 9.16364C7.41865 9.10435 7.34375 8.98316 7.34375 8.85059Z" fill="#2E3F55"/>
</svg>
