<svg width="16" height="16" viewBox="0 0 16 16" fill="none" xmlns="http://www.w3.org/2000/svg">
    <path d="m2.521 12.238 4.84 2.776a1.441 1.441 0 0 0 1.441 0l5.04-2.88a1.442 1.442 0 0 0 .72-1.25V5.123a1.441 1.441 0 0 0-.72-1.25L8.802.993a1.44 1.44 0 0 0-1.44 0l-5.04 2.88a1.44 1.44 0 0 0-.72 1.25v5.76c0 1.062.365 1.03.925 1.354l-.006.001zm.514-7.118 5.041-2.877 5.04 2.88v5.76l-5.04 2.88-5.04-2.88V5.12z" fill="#fff" stroke="#fff" stroke-width=".4"/>
    <path d="M7.205 10.778a.872.872 0 1 1 1.743 0 .872.872 0 0 1-1.743 0zM7.14 8.403V5.288a.934.934 0 0 1 1.867 0v3.115a.934.934 0 1 1-1.867 0z" fill="#fff"/>
</svg>
