<svg width="16" height="16" viewBox="0 0 16 16" fill="none" xmlns="http://www.w3.org/2000/svg">
<path fill-rule="evenodd" clip-rule="evenodd" d="M4.80156 7.99941C4.80156 8.88307 4.08522 9.59941 3.20156 9.59941C2.31791 9.59941 1.60156 8.88307 1.60156 7.99941C1.60156 7.11576 2.31791 6.39941 3.20156 6.39941C4.08522 6.39941 4.80156 7.11576 4.80156 7.99941ZM9.60156 7.99941C9.60156 8.88307 8.88522 9.59941 8.00156 9.59941C7.11791 9.59941 6.40156 8.88307 6.40156 7.99941C6.40156 7.11576 7.11791 6.39941 8.00156 6.39941C8.88522 6.39941 9.60156 7.11576 9.60156 7.99941ZM12.8016 9.59941C13.6852 9.59941 14.4016 8.88307 14.4016 7.99941C14.4016 7.11576 13.6852 6.39941 12.8016 6.39941C11.9179 6.39941 11.2016 7.11576 11.2016 7.99941C11.2016 8.88307 11.9179 9.59941 12.8016 9.59941Z" fill="white"/>
</svg>
