<svg width="16" height="16" viewBox="0 0 16 16" fill="none" xmlns="http://www.w3.org/2000/svg">
<path fill-rule="evenodd" clip-rule="evenodd" d="M1.25 8C1.25 4.27208 4.27208 1.25 8 1.25C11.7279 1.25 14.75 4.27208 14.75 8C14.75 11.7279 11.7279 14.75 8 14.75C4.27208 14.75 1.25 11.7279 1.25 8ZM8 1.95C4.65868 1.95 1.95 4.65868 1.95 8C1.95 11.3413 4.65868 14.05 8 14.05C11.3413 14.05 14.05 11.3413 14.05 8C14.05 4.65868 11.3413 1.95 8 1.95Z" fill="white"/>
<path fill-rule="evenodd" clip-rule="evenodd" d="M11.7359 13.0293L3.33594 3.32934L3.8651 2.87109L12.2651 12.5711L11.7359 13.0293Z" fill="white"/>
</svg>
