<svg width="44" height="44" viewBox="0 0 44 44" fill="none" xmlns="http://www.w3.org/2000/svg">
    <path d="M8.72 38.358c9.124.04 15.371 4.366 19.768 4.385 4.398.02 13.641-2.239 13.722-20.635 1.767-12.234-.181-15.31-16.772-20.345C4.714-3.625-7.44 38.286 8.72 38.358z" fill="#CFDCE6"/>
    <path fill="#105183" d="M17.44 7.357h15.235v15.235H17.44zM17.44 25.357h15.235v15.235H17.44z"/>
    <path d="M25.837 26.465h5.474v14.14h-5.474v-14.14zM19.98 26.465h4.87v14.14h-4.87v-14.14z" fill="#F970BE"/>
    <path d="M12.218 40.605V13.566l-5.7 4.324v22.715h5.7z" fill="#105183"/>
    <path d="M1.457 40.01h41.087v1.517H1.456V40.01z" fill="#105183"/>
    <path d="M19.524 10.143h4.326v4.326h-4.326v-4.326zM27.256 17.875h4.326V22.2h-4.326v-4.326zM19.524 17.875h4.326V22.2h-4.326v-4.326z" fill="#fff"/>
    <path d="M37.483 40.605V4.473H13.623v36.132h5.495V26.729c0-.388.315-.702.703-.702h11.463c.388 0 .702.314.702.702v13.876h5.496zm-6.199-18.999H19.822a.703.703 0 0 1-.703-.702V9.44c0-.388.315-.703.703-.703h11.462c.389 0 .703.315.703.703v11.464a.703.703 0 0 1-.703.702z" fill="#105183"/>
    <path d="M27.256 10.143h4.326v4.326h-4.326v-4.326z" fill="#fff"/>
</svg>
