<svg width="32" height="32" viewBox="0 0 32 32" fill="none" xmlns="http://www.w3.org/2000/svg">
<circle cx="16" cy="16" r="16" fill="#4C698D" fill-opacity="0.1"/>
<g clip-path="url(#clip0_3128_64894)">
<path d="M15.0902 8.62261L14.7895 8.70032C13.5141 9.02993 12.3843 9.7739 11.5777 10.8153C10.7711 11.8568 10.3332 13.1367 10.333 14.454C10.333 14.454 10.333 14.454 10.333 14.454V18.6821C10.333 18.9748 10.217 19.2556 10.0103 19.4628C9.80357 19.67 9.52313 19.7868 9.23043 19.7876L9.2294 19.7876C8.96177 19.7876 8.70511 19.8939 8.51587 20.0831C8.32663 20.2724 8.22031 20.5291 8.22031 20.7967C8.22031 21.0643 8.32663 21.321 8.51587 21.5102C8.70511 21.6995 8.96177 21.8058 9.2294 21.8058H23.3203C23.5879 21.8058 23.8446 21.6995 24.0338 21.5102C24.2231 21.321 24.3294 21.0643 24.3294 20.7967C24.3294 20.5291 24.2231 20.2724 24.0338 20.0831C23.8447 19.894 23.5881 19.7877 23.3206 19.7876C23.3205 19.7876 23.3204 19.7876 23.3203 19.7876V19.3876C23.2277 19.3877 23.136 19.3695 23.0505 19.3341C22.9649 19.2987 22.8872 19.2467 22.8219 19.1811C22.7565 19.1156 22.7047 19.0377 22.6695 18.9521C22.6343 18.8665 22.6163 18.7747 22.6167 18.6821L15.0902 8.62261ZM15.0902 8.62261L15.0894 8.31205L15.0876 7.58396C15.0876 7.58382 15.0876 7.58369 15.0876 7.58356C15.0877 7.26918 15.2126 6.9677 15.4349 6.74539C15.6573 6.52299 15.959 6.39805 16.2735 6.39805C16.588 6.39805 16.8897 6.52299 17.1121 6.74539C17.3345 6.96779 17.4594 7.26943 17.4594 7.58396V8.31123V8.62101L17.7593 8.69851C19.0351 9.02816 20.1652 9.77236 20.972 10.8142C21.7788 11.8559 22.2167 13.1363 22.2167 14.454V18.6814L15.0902 8.62261ZM18.3031 23.313C18.2243 23.7123 18.0287 24.0826 17.7368 24.3745C17.3492 24.7621 16.8235 24.9799 16.2753 24.9799C15.7272 24.9799 15.2015 24.7621 14.8139 24.3745C14.5219 24.0826 14.3263 23.7123 14.2476 23.313H18.3031Z" stroke="#2E3F55" stroke-width="0.8"/>
</g>
<defs>
<clipPath id="clip0_3128_64894">
<rect width="20" height="20" fill="white" transform="translate(6 6)"/>
</clipPath>
</defs>
</svg>
