<svg width="16" height="16" viewBox="0 0 16 16" fill="none" xmlns="http://www.w3.org/2000/svg">
<path fill-rule="evenodd" clip-rule="evenodd" d="M4.27677 2.15706C4.51599 1.8381 4.89142 1.65039 5.29011 1.65039H10.929C11.3277 1.65039 11.7031 1.83809 11.9423 2.15706L13.3173 3.99039C13.4818 4.20967 13.5706 4.47636 13.5706 4.75039V13.0004C13.5706 13.4173 13.4051 13.8172 13.1102 14.112C12.8153 14.407 12.4154 14.5726 11.9984 14.5726H4.22066C3.80373 14.5726 3.40378 14.407 3.10888 14.112C2.81407 13.8172 2.64844 13.4174 2.64844 13.0004V4.75039C2.64844 4.47632 2.73733 4.20965 2.90177 3.99039L4.27677 2.15706ZM5.29011 2.35039C5.11174 2.35039 4.94379 2.43436 4.83677 2.57706L3.46177 4.41039C3.38821 4.50847 3.34844 4.62778 3.34844 4.75039V13.0004C3.34844 13.2317 3.44032 13.4535 3.6039 13.6171C3.76742 13.7807 3.98929 13.8726 4.22066 13.8726H11.9984C12.2298 13.8726 12.4516 13.7807 12.6151 13.6172C12.7787 13.4536 12.8706 13.2318 12.8706 13.0004V4.75039C12.8706 4.62774 12.8309 4.50845 12.7573 4.41039L11.3823 2.57706C11.2753 2.43438 11.1074 2.35039 10.929 2.35039H5.29011Z" fill="white"/>
<path fill-rule="evenodd" clip-rule="evenodd" d="M3.19531 4.49989C3.19531 4.33114 3.33211 4.19434 3.50087 4.19434H13.0009C13.1696 4.19434 13.3064 4.33114 13.3064 4.49989C13.3064 4.66865 13.1696 4.80545 13.0009 4.80545H3.50087C3.33211 4.80545 3.19531 4.66865 3.19531 4.49989Z" fill="white"/>
<path fill-rule="evenodd" clip-rule="evenodd" d="M8.15459 5.9541C7.79307 5.9541 7.5 6.24717 7.5 6.6087C7.5 6.97022 7.79307 7.26329 8.15459 7.26329H8.16484C8.52637 7.26329 8.81944 6.97022 8.81944 6.6087C8.81944 6.24717 8.52637 5.9541 8.16484 5.9541H8.15459ZM8.55564 9.23077C8.55564 9.00928 8.37608 8.82972 8.15459 8.82972C7.9331 8.82972 7.75355 9.00928 7.75355 9.23077V12.7219C7.75355 12.9434 7.9331 13.123 8.15459 13.123C8.37608 13.123 8.55564 12.9434 8.55564 12.7219V9.23077Z" fill="white"/>
</svg>
