<svg width="24" height="24" fill="none" xmlns="http://www.w3.org/2000/svg">
    <path d="M5.214 21.2h13.572A2.214 2.214 0 0 0 21 18.986V4.214A2.214 2.214 0 0 0 18.786 2H5.214A2.214 2.214 0 0 0 3 4.214v14.772c0 1.223.991 2.214 2.214 2.214z" fill="#CC2E22"/>
    <path d="M6.675 12.23c.11.017.25.024.406.024.7 0 1.3-.17 1.704-.552.312-.296.484-.732.484-1.246s-.226-.95-.561-1.215c-.35-.28-.872-.42-1.604-.42-.725 0-1.238.046-1.604.108v5.179h1.176V12.23zm0-2.467c.086-.024.25-.047.491-.047.592 0 .927.288.927.77 0 .538-.39.858-1.02.858-.172 0-.296-.008-.398-.031v-1.55zM13.718 13.484c.506-.428.872-1.121.872-2.126 0-.927-.342-1.573-.888-1.978-.506-.381-1.152-.56-2.149-.56-.6 0-1.168.038-1.604.108v5.156c.296.038.732.078 1.347.078 1.027 0 1.869-.219 2.422-.678zM11.14 9.777c.101-.023.272-.046.537-.046 1.02 0 1.659.576 1.651 1.666 0 1.254-.701 1.846-1.775 1.838-.148 0-.312 0-.413-.024V9.777zM16.484 11.997h1.885v-.966h-1.885v-1.2h2.017v-.973h-3.208v5.249h1.191v-2.11z" fill="#fff"/>
</svg>
