<svg xmlns="http://www.w3.org/2000/svg" width="16" height="16" fill="none" viewBox="0 0 16 16">
    <path fill="#fff" d="M12.57 14.102h-.827v-1.475c-.029-.778-.253-1.537-.652-2.206-.4-.668-.96-1.226-1.632-1.621-.102-.085-.183-.194-.236-.316-.052-.122-.075-.255-.066-.388-.009-.133.014-.266.066-.388.053-.122.134-.23.236-.315.671-.396 1.232-.953 1.632-1.622.399-.669.623-1.428.652-2.206V2.09h.827c.124 0 .243-.05.33-.137.088-.088.137-.207.137-.33 0-.125-.049-.243-.137-.33-.087-.089-.206-.138-.33-.138H2.99c-.123 0-.242.05-.33.137-.087.088-.137.206-.137.33 0 .124.05.243.137.33.088.088.207.138.33.138h.827v1.474c.03.779.254 1.537.653 2.206.4.669.96 1.227 1.632 1.622.102.085.183.193.236.315.052.123.075.256.066.389.009.132-.014.265-.067.388-.052.122-.133.23-.235.315-.672.395-1.233.953-1.632 1.622-.4.668-.624 1.427-.653 2.205v1.475h-.826c-.124 0-.243.05-.33.137-.088.088-.138.206-.138.33 0 .124.05.243.137.33.088.088.207.137.33.137h9.58c.124 0 .243-.049.33-.136.088-.088.137-.207.137-.33 0-.125-.049-.244-.137-.331-.087-.088-.206-.137-.33-.137zM7.315 6.31c0-.124.05-.243.137-.33.087-.088.206-.137.33-.137.124 0 .243.049.33.137.088.087.137.206.137.33v.826c0 .123-.049.242-.137.33-.087.088-.206.137-.33.137-.124 0-.243-.05-.33-.137-.088-.088-.137-.207-.137-.33V6.31zm.137 2.972c.076-.076.177-.123.284-.134.108-.01.215.017.305.077s.156.149.187.252c.032.104.026.215-.015.314-.042.1-.116.182-.212.233-.095.051-.205.067-.31.046-.107-.021-.202-.078-.27-.162-.069-.083-.106-.188-.106-.296.001-.123.05-.24.137-.328v-.002zm-2.548 4.823c.382-1.444 2.344-3.016 2.59-3.208.082-.064.183-.099.287-.099.104 0 .206.035.288.1.245.191 2.208 1.763 2.59 3.207H4.903z"/>
</svg>
