<svg width="24" height="24" viewBox="0 0 24 24" fill="none" xmlns="http://www.w3.org/2000/svg">
    <path d="M21.946 16.956v3a1.999 1.999 0 0 1-2.18 2 19.789 19.789 0 0 1-8.63-3.07 19.5 19.5 0 0 1-6-6 19.79 19.79 0 0 1-3.07-8.67 2 2 0 0 1 1.99-2.18h3a2 2 0 0 1 2 1.72c.126.96.361 1.902.7 2.81a2 2 0 0 1-.45 2.11l-1.27 1.27a16 16 0 0 0 6 6l1.27-1.27a2.001 2.001 0 0 1 2.11-.45c.907.338 1.85.573 2.81.7a2 2 0 0 1 1.72 2.03z" stroke="#2E3F55" stroke-width=".8" stroke-linecap="round" stroke-linejoin="round"/>
</svg>
