<svg width="16" height="16" viewBox="0 0 16 16" fill="none" xmlns="http://www.w3.org/2000/svg">
<path fill-rule="evenodd" clip-rule="evenodd" d="M1.88672 3.1631C1.88672 2.2721 2.60905 1.5498 3.50006 1.5498H12.4997C13.3908 1.5498 14.113 2.27211 14.113 3.1631V12.6664C14.113 13.5575 13.3908 14.2797 12.4997 14.2797H3.50006C2.60905 14.2797 1.88672 13.5575 1.88672 12.6664V3.1631ZM3.50006 2.1098C2.91831 2.1098 2.44672 2.58139 2.44672 3.1631V12.6664C2.44672 12.9495 2.55839 13.2065 2.74009 13.3958C2.75748 13.3525 2.78593 13.313 2.82494 13.2818L10.3249 7.28179C10.4428 7.1875 10.6142 7.20361 10.7124 7.31821L13.553 10.6322V3.1631C13.553 2.58138 13.0815 2.1098 12.4997 2.1098H3.50006ZM13.553 11.2754C13.4575 11.2938 13.3551 11.2618 13.2873 11.1827L10.4634 7.88816L3.22075 13.6823C3.3097 13.7067 3.40336 13.7197 3.50006 13.7197H12.4997C13.0815 13.7197 13.553 13.2482 13.553 12.6664V11.2754ZM4.36516 5.66571C4.36516 4.94775 4.94719 4.36574 5.66516 4.36574C6.38311 4.36574 6.96516 4.94775 6.96516 5.66571C6.96516 6.38368 6.38311 6.96568 5.66516 6.96568C4.94719 6.96568 4.36516 6.38368 4.36516 5.66571ZM5.66516 4.96574C5.27854 4.96574 4.96516 5.27913 4.96516 5.66571C4.96516 6.05229 5.27854 6.36568 5.66516 6.36568C6.05176 6.36568 6.36516 6.05229 6.36516 5.66571C6.36516 5.27914 6.05176 4.96574 5.66516 4.96574Z" fill="#2E3F55" stroke="#2E3F55" stroke-width="0.2" stroke-linecap="round" stroke-linejoin="round"/>
</svg>
