<svg width="24" height="25" viewBox="0 0 24 25" fill="none" xmlns="http://www.w3.org/2000/svg">
    <path fill-rule="evenodd" clip-rule="evenodd" d="M7.33 1.97a.75.75 0 0 1 .53-.22h8.28a.75.75 0 0 1 .53.22l5.86 5.86c.141.14.22.331.22.53v8.28a.75.75 0 0 1-.22.53l-5.86 5.86a.75.75 0 0 1-.53.22H7.86a.75.75 0 0 1-.53-.22l-5.86-5.86a.75.75 0 0 1-.22-.53V8.36a.75.75 0 0 1 .22-.53l5.86-5.86zm.84 1.28L2.75 8.67v7.66l5.42 5.42h7.66l5.42-5.42V8.67l-5.42-5.42H8.17z" fill="#2E3F55"/>
    <path d="M16.25 13.916v-3.667a.917.917 0 0 0-.458-.793l-3.209-1.833a.916.916 0 0 0-.916 0L8.458 9.456A.917.917 0 0 0 8 10.25v3.667a.916.916 0 0 0 .458.793l3.209 1.833a.917.917 0 0 0 .916 0l3.209-1.833a.916.916 0 0 0 .458-.793z" fill="#C9001F"/>
</svg>
