<svg width="35" height="35" viewBox="0 0 35 35" fill="none" xmlns="http://www.w3.org/2000/svg">
<circle cx="16" cy="16" r="16" fill="#F5F1E5"/>
<path d="M8 22.0598C8 22.5145 8.1505 22.9505 8.4184 23.272C8.68629 23.5935 9.04963 23.774 9.42848 23.774H17.9993H23.6248L20.2932 20.25V9.99933C20.2932 9.54471 20.1427 9.10869 19.8748 8.78723C19.607 8.46576 19.2436 8.28516 18.8647 8.28516H9.42848C9.04963 8.28516 8.68629 8.46576 8.4184 8.78723C8.1505 9.10869 8 9.54471 8 9.99933V22.0598Z" stroke="#997600" stroke-width="0.875" stroke-linecap="round" stroke-linejoin="round"/>
<path fill-rule="evenodd" clip-rule="evenodd" d="M10.8008 13.5008C10.8008 13.2522 11.0022 13.0508 11.2508 13.0508H16.2508C16.4993 13.0508 16.7007 13.2522 16.7007 13.5008C16.7007 13.7493 16.4993 13.9507 16.2508 13.9507H11.2508C11.0022 13.9507 10.8008 13.7493 10.8008 13.5008Z" fill="#997600"/>
<path fill-rule="evenodd" clip-rule="evenodd" d="M10.8008 18.2508C10.8008 18.0022 11.0022 17.8008 11.2508 17.8008H16.2508C16.4993 17.8008 16.7007 18.0022 16.7007 18.2508C16.7007 18.4993 16.4993 18.7007 16.2508 18.7007H11.2508C11.0022 18.7007 10.8008 18.4993 10.8008 18.2508Z" fill="#997600"/>
<circle cx="25" cy="25" r="9.5" fill="#EDF0F4" stroke="white"/>
<path d="M20.8141 22.7979L22.5383 21.0586C22.6187 20.9805 22.7449 20.9805 22.8253 21.0586L27.6595 25.9349C27.6911 25.9667 27.7111 26.0072 27.7169 26.0506L27.998 28.0416C28.0067 28.1053 27.9866 28.1662 27.9435 28.2124C27.9062 28.2501 27.8546 28.2732 27.8001 28.2732C27.7915 28.2732 27.7829 28.2732 27.7743 28.2703L25.7688 28.0185C25.7258 28.0128 25.6828 27.9925 25.6512 27.9606L20.8141 23.0844C20.7366 23.0062 20.7366 22.876 20.8141 22.7979ZM25.8865 27.6278L27.5648 27.8362L27.3296 26.1751L22.6818 21.4898L21.2416 22.9426L25.8865 27.6278Z" fill="#2E3F55" stroke="#2E3F55" stroke-width="0.25"/>
</svg>
