<svg width="35" height="35" viewBox="0 0 35 35" fill="none" xmlns="http://www.w3.org/2000/svg">
<circle cx="16" cy="16" r="16" fill="#F5F1E5"/>
<path d="M8 22.0598C8 22.5145 8.1505 22.9505 8.4184 23.272C8.68629 23.5935 9.04963 23.774 9.42848 23.774H17.9993H23.6248L20.2932 20.25V9.99933C20.2932 9.54471 20.1427 9.10869 19.8748 8.78723C19.607 8.46576 19.2436 8.28516 18.8647 8.28516H9.42848C9.04963 8.28516 8.68629 8.46576 8.4184 8.78723C8.1505 9.10869 8 9.54471 8 9.99933V22.0598Z" stroke="#997600" stroke-width="0.875" stroke-linecap="round" stroke-linejoin="round"/>
<path fill-rule="evenodd" clip-rule="evenodd" d="M10.8008 13.5008C10.8008 13.2522 11.0022 13.0508 11.2508 13.0508H16.2508C16.4993 13.0508 16.7007 13.2522 16.7007 13.5008C16.7007 13.7493 16.4993 13.9507 16.2508 13.9507H11.2508C11.0022 13.9507 10.8008 13.7493 10.8008 13.5008Z" fill="#997600"/>
<path fill-rule="evenodd" clip-rule="evenodd" d="M10.8008 18.2508C10.8008 18.0022 11.0022 17.8008 11.2508 17.8008H16.2508C16.4993 17.8008 16.7007 18.0022 16.7007 18.2508C16.7007 18.4993 16.4993 18.7007 16.2508 18.7007H11.2508C11.0022 18.7007 10.8008 18.4993 10.8008 18.2508Z" fill="#997600"/>
<circle cx="25" cy="25" r="9.5" fill="#E9F9E8" stroke="white"/>
<path fill-rule="evenodd" clip-rule="evenodd" d="M25.0016 19.4004C24.8083 19.4004 24.6516 19.5571 24.6516 19.7504V30.2504C24.6516 30.4437 24.8083 30.6004 25.0016 30.6004C25.1949 30.6004 25.3516 30.4437 25.3516 30.2504V19.7504C25.3516 19.5571 25.1949 19.4004 25.0016 19.4004Z" fill="#24C11E"/>
<path fill-rule="evenodd" clip-rule="evenodd" d="M30.6016 25.0004C30.6016 24.8071 30.4449 24.6504 30.2516 24.6504H19.7516C19.5583 24.6504 19.4016 24.8071 19.4016 25.0004C19.4016 25.1937 19.5583 25.3504 19.7516 25.3504H30.2516C30.4449 25.3504 30.6016 25.1937 30.6016 25.0004Z" fill="#24C11E"/>
</svg>
