<svg width="35" height="35" viewBox="0 0 35 35" fill="none" xmlns="http://www.w3.org/2000/svg">
<circle cx="16" cy="16" r="16" fill="#F5F1E5"/>
<path d="M8 22.0598C8 22.5145 8.1505 22.9505 8.4184 23.272C8.68629 23.5935 9.04963 23.774 9.42848 23.774H17.9993H23.6248L20.2932 20.25V9.99933C20.2932 9.54471 20.1427 9.10869 19.8748 8.78723C19.607 8.46576 19.2436 8.28516 18.8647 8.28516H9.42848C9.04963 8.28516 8.68629 8.46576 8.4184 8.78723C8.1505 9.10869 8 9.54471 8 9.99933V22.0598Z" stroke="#997600" stroke-width="0.875" stroke-linecap="round" stroke-linejoin="round"/>
<path fill-rule="evenodd" clip-rule="evenodd" d="M10.8008 13.5008C10.8008 13.2522 11.0022 13.0508 11.2508 13.0508H16.2508C16.4993 13.0508 16.7007 13.2522 16.7007 13.5008C16.7007 13.7493 16.4993 13.9507 16.2508 13.9507H11.2508C11.0022 13.9507 10.8008 13.7493 10.8008 13.5008Z" fill="#997600"/>
<path fill-rule="evenodd" clip-rule="evenodd" d="M10.8008 18.2508C10.8008 18.0022 11.0022 17.8008 11.2508 17.8008H16.2508C16.4993 17.8008 16.7007 18.0022 16.7007 18.2508C16.7007 18.4993 16.4993 18.7007 16.2508 18.7007H11.2508C11.0022 18.7007 10.8008 18.4993 10.8008 18.2508Z" fill="#997600"/>
<circle cx="25" cy="25" r="9.5" fill="#FEE8EB" stroke="white"/>
<path fill-rule="evenodd" clip-rule="evenodd" d="M30.0042 19.7501C30.0503 19.7504 30.0952 19.7645 30.1333 19.7905C30.1713 19.8164 30.2007 19.8531 30.2179 19.8959C30.235 19.9387 30.2389 19.9855 30.2293 20.0306C30.2197 20.0756 30.1968 20.1168 30.1637 20.1488L25.4551 24.8574L30.1637 29.566C30.1891 29.5864 30.2098 29.612 30.2246 29.6409C30.2394 29.67 30.2479 29.7017 30.2497 29.7342C30.2514 29.7667 30.2463 29.7992 30.2346 29.8296C30.223 29.8599 30.2051 29.8875 30.1821 29.9105C30.159 29.9335 30.1315 29.9515 30.1011 29.9631C30.0707 29.9747 30.0382 29.9799 30.0057 29.9781C29.9732 29.9764 29.9414 29.9679 29.9125 29.9531C29.8835 29.9382 29.8579 29.9175 29.8375 29.8922L25.1289 25.1836L20.4203 29.8922C20.3999 29.9175 20.3743 29.9382 20.3453 29.9531C20.3164 29.9679 20.2846 29.9764 20.2522 29.9781C20.2196 29.9799 20.1871 29.9747 20.1568 29.9631C20.1263 29.9515 20.0988 29.9335 20.0758 29.9105C20.0527 29.8875 20.0348 29.8599 20.0232 29.8296C20.0115 29.7992 20.0065 29.7667 20.0081 29.7342C20.0099 29.7017 20.0184 29.67 20.0332 29.6409C20.048 29.612 20.0688 29.5864 20.094 29.566L24.8027 24.8574L20.094 20.1488C20.0605 20.1163 20.0375 20.0745 20.0281 20.0288C20.0187 19.9831 20.0233 19.9356 20.0413 19.8925C20.0593 19.8494 20.0898 19.8128 20.129 19.7874C20.1682 19.762 20.2142 19.749 20.2608 19.7501C20.3214 19.7525 20.3787 19.7785 20.4203 19.8226L25.1289 24.5312L29.8375 19.8226C29.859 19.7999 29.8848 19.7818 29.9135 19.7693C29.9421 19.7568 29.973 19.7503 30.0042 19.7501Z" fill="#F81538" stroke="#F81538" stroke-width="0.375"/>
</svg>
