<svg width="35" height="35" viewBox="0 0 35 35" fill="none" xmlns="http://www.w3.org/2000/svg">
<circle cx="16" cy="16" r="16" fill="#F5F1E5"/>
<path d="M8 22.0598C8 22.5145 8.1505 22.9505 8.4184 23.272C8.68629 23.5935 9.04963 23.774 9.42848 23.774H17.9993H23.6248L20.2932 20.25V9.99933C20.2932 9.54471 20.1427 9.10869 19.8748 8.78723C19.607 8.46576 19.2436 8.28516 18.8647 8.28516H9.42848C9.04963 8.28516 8.68629 8.46576 8.4184 8.78723C8.1505 9.10869 8 9.54471 8 9.99933V22.0598Z" stroke="#997600" stroke-width="0.875" stroke-linecap="round" stroke-linejoin="round"/>
<path fill-rule="evenodd" clip-rule="evenodd" d="M10.8008 13.5008C10.8008 13.2522 11.0022 13.0508 11.2508 13.0508H16.2508C16.4993 13.0508 16.7007 13.2522 16.7007 13.5008C16.7007 13.7493 16.4993 13.9507 16.2508 13.9507H11.2508C11.0022 13.9507 10.8008 13.7493 10.8008 13.5008Z" fill="#997600"/>
<path fill-rule="evenodd" clip-rule="evenodd" d="M10.8008 18.2508C10.8008 18.0022 11.0022 17.8008 11.2508 17.8008H16.2508C16.4993 17.8008 16.7007 18.0022 16.7007 18.2508C16.7007 18.4993 16.4993 18.7007 16.2508 18.7007H11.2508C11.0022 18.7007 10.8008 18.4993 10.8008 18.2508Z" fill="#997600"/>
<circle cx="25" cy="25" r="9.5" fill="#E5FAFF" stroke="white"/>
<path fill-rule="evenodd" clip-rule="evenodd" d="M31.1916 21.957C31.3347 22.1001 31.3347 22.3322 31.1916 22.4753L22.7916 30.8753C22.6484 31.0185 22.4163 31.0185 22.2732 30.8753L18.455 27.0572C18.3119 26.914 18.3119 26.6819 18.455 26.5388C18.5982 26.3956 18.8302 26.3956 18.9734 26.5388L22.5324 30.0978L30.6732 21.957C30.8163 21.8138 31.0484 21.8138 31.1916 21.957Z" fill="#00CEFF"/>
<path fill-rule="evenodd" clip-rule="evenodd" d="M31.1916 19.332C31.3347 19.4751 31.3347 19.7072 31.1916 19.8503L22.7916 28.2503C22.6484 28.3935 22.4163 28.3935 22.2732 28.2503L18.455 24.4322C18.3119 24.289 18.3119 24.0569 18.455 23.9138C18.5982 23.7706 18.8302 23.7706 18.9734 23.9138L22.5324 27.4728L30.6732 19.332C30.8163 19.1888 31.0484 19.1888 31.1916 19.332Z" fill="#00CEFF"/>
</svg>
