<svg width="35" height="35" viewBox="0 0 35 35" fill="none" xmlns="http://www.w3.org/2000/svg">
<circle cx="16" cy="16" r="16" fill="#F5F1E5"/>
<path d="M8 22.0598C8 22.5145 8.1505 22.9505 8.4184 23.272C8.68629 23.5935 9.04963 23.774 9.42848 23.774H17.9993H23.6248L20.2932 20.25V9.99933C20.2932 9.54471 20.1427 9.10869 19.8748 8.78723C19.607 8.46576 19.2436 8.28516 18.8647 8.28516H9.42848C9.04963 8.28516 8.68629 8.46576 8.4184 8.78723C8.1505 9.10869 8 9.54471 8 9.99933V22.0598Z" stroke="#997600" stroke-width="0.875" stroke-linecap="round" stroke-linejoin="round"/>
<path fill-rule="evenodd" clip-rule="evenodd" d="M10.8008 13.5008C10.8008 13.2522 11.0022 13.0508 11.2508 13.0508H16.2508C16.4993 13.0508 16.7007 13.2522 16.7007 13.5008C16.7007 13.7493 16.4993 13.9507 16.2508 13.9507H11.2508C11.0022 13.9507 10.8008 13.7493 10.8008 13.5008Z" fill="#997600"/>
<path fill-rule="evenodd" clip-rule="evenodd" d="M10.8008 18.2508C10.8008 18.0022 11.0022 17.8008 11.2508 17.8008H16.2508C16.4993 17.8008 16.7007 18.0022 16.7007 18.2508C16.7007 18.4993 16.4993 18.7007 16.2508 18.7007H11.2508C11.0022 18.7007 10.8008 18.4993 10.8008 18.2508Z" fill="#997600"/>
<circle cx="25" cy="25" r="9.5" fill="#FEE8EB" stroke="white"/>
<path fill-rule="evenodd" clip-rule="evenodd" d="M19.1211 24.9658C19.1211 21.699 21.7693 19.0508 25.0361 19.0508C28.3029 19.0508 30.9511 21.699 30.9511 24.9658C30.9511 28.2325 28.3029 30.8808 25.0361 30.8808C21.7693 30.8808 19.1211 28.2325 19.1211 24.9658ZM25.0361 19.6141C22.0804 19.6141 19.6844 22.0101 19.6844 24.9658C19.6844 27.9214 22.0804 30.3174 25.0361 30.3174C27.9917 30.3174 30.3878 27.9214 30.3878 24.9658C30.3878 22.0101 27.9917 19.6141 25.0361 19.6141Z" fill="#F81538"/>
<path fill-rule="evenodd" clip-rule="evenodd" d="M22.7387 22.5508C22.7166 22.551 22.6951 22.5577 22.6769 22.5702C22.6587 22.5826 22.6447 22.6002 22.6365 22.6207C22.6283 22.6412 22.6264 22.6636 22.631 22.6852C22.6356 22.7068 22.6465 22.7265 22.6624 22.7418L24.915 24.9975L22.6624 27.2532C22.6503 27.263 22.6403 27.2752 22.6332 27.2891C22.6262 27.303 22.6221 27.3182 22.6212 27.3338C22.6204 27.3494 22.6229 27.3649 22.6285 27.3794C22.634 27.394 22.6426 27.4073 22.6536 27.4182C22.6646 27.4292 22.6778 27.4378 22.6923 27.4434C22.7069 27.449 22.7224 27.4514 22.738 27.4506C22.7535 27.4498 22.7687 27.4457 22.7826 27.4386C22.7964 27.4315 22.8087 27.4216 22.8184 27.4095L25.0711 25.1538L27.3238 27.4095C27.3336 27.4216 27.3457 27.4315 27.3596 27.4386C27.3735 27.4457 27.3887 27.4498 27.4042 27.4506C27.4198 27.4514 27.4354 27.449 27.4499 27.4434C27.4644 27.4378 27.4776 27.4292 27.4886 27.4182C27.4996 27.4073 27.5082 27.394 27.5137 27.3794C27.5194 27.3649 27.5218 27.3494 27.5209 27.3338C27.5201 27.3182 27.516 27.303 27.5089 27.2891C27.5019 27.2752 27.492 27.263 27.4798 27.2532L25.2272 24.9975L27.4798 22.7418C27.4959 22.7263 27.5069 22.7062 27.5114 22.6843C27.5159 22.6624 27.5137 22.6397 27.5051 22.619C27.4964 22.5984 27.4818 22.5808 27.4631 22.5687C27.4443 22.5565 27.4224 22.5503 27.4 22.5508C27.3711 22.552 27.3437 22.5644 27.3238 22.5855L25.0711 24.8412L22.8184 22.5855C22.8082 22.5747 22.7958 22.566 22.7821 22.56C22.7684 22.5541 22.7536 22.5509 22.7387 22.5508Z" fill="#F81538" stroke="#F81538" stroke-width="0.4"/>
</svg>
