<svg width="16" height="16" viewBox="0 0 16 16" fill="none" xmlns="http://www.w3.org/2000/svg">
<path d="M1.60156 12.8489C1.60156 13.2126 1.72196 13.5614 1.93628 13.8186C2.15059 14.0758 2.44126 14.2202 2.74434 14.2202H9.60103H14.1014L11.4361 11.401V3.20044C11.4361 2.83674 11.3157 2.48793 11.1014 2.23076C10.8871 1.97358 10.5964 1.8291 10.2933 1.8291H2.74434C2.44126 1.8291 2.15059 1.97358 1.93628 2.23076C1.72196 2.48793 1.60156 2.83674 1.60156 3.20044V12.8489Z" stroke="#2E3F55" stroke-width="0.875" stroke-linecap="round" stroke-linejoin="round"/>
<path fill-rule="evenodd" clip-rule="evenodd" d="M3.83984 5.99962C3.83984 5.80082 4.00101 5.63965 4.19982 5.63965H8.19982C8.39863 5.63965 8.5598 5.80082 8.5598 5.99962C8.5598 6.19843 8.39863 6.3596 8.19982 6.3596H4.19982C4.00101 6.3596 3.83984 6.19843 3.83984 5.99962Z" fill="#2E3F55"/>
<path fill-rule="evenodd" clip-rule="evenodd" d="M3.83984 9.80041C3.83984 9.6016 4.00101 9.44043 4.19982 9.44043H8.19982C8.39863 9.44043 8.5598 9.6016 8.5598 9.80041C8.5598 9.99921 8.39863 10.1604 8.19982 10.1604H4.19982C4.00101 10.1604 3.83984 9.99921 3.83984 9.80041Z" fill="#2E3F55"/>
</svg>
