<svg width="16" height="16" viewBox="0 0 16 16" fill="none" xmlns="http://www.w3.org/2000/svg">
<path fill-rule="evenodd" clip-rule="evenodd" d="M1.28125 7.96019C1.28125 4.22675 4.3078 1.2002 8.04125 1.2002C11.7747 1.2002 14.8012 4.22675 14.8012 7.96019C14.8012 11.6936 11.7747 14.7202 8.04125 14.7202C4.3078 14.7202 1.28125 11.6936 1.28125 7.96019ZM8.04125 1.844C4.66337 1.844 1.92506 4.58231 1.92506 7.96019C1.92506 11.3381 4.66337 14.0764 8.04125 14.0764C11.4191 14.0764 14.1574 11.3381 14.1574 7.96019C14.1574 4.58231 11.4191 1.844 8.04125 1.844Z" fill="white"/>
<path fill-rule="evenodd" clip-rule="evenodd" d="M5.41562 5.20023C5.39044 5.20043 5.36588 5.20812 5.34508 5.22234C5.32429 5.23656 5.30818 5.25665 5.29883 5.28007C5.28948 5.30348 5.2873 5.32915 5.29257 5.35381C5.29783 5.37847 5.31031 5.401 5.32841 5.41853L7.90289 7.99646L5.32841 10.5743C5.31457 10.5855 5.30324 10.5995 5.29514 10.6154C5.28705 10.6313 5.28237 10.6486 5.28143 10.6665C5.28049 10.6843 5.28329 10.702 5.28966 10.7186C5.29602 10.7353 5.30582 10.7505 5.3184 10.763C5.33098 10.7756 5.34607 10.7854 5.36268 10.7918C5.37929 10.7982 5.39705 10.801 5.41483 10.8C5.43259 10.7991 5.44996 10.7944 5.4658 10.7863C5.48165 10.7782 5.49561 10.7669 5.50679 10.753L8.08126 8.17506L10.6558 10.753C10.6669 10.7669 10.6808 10.7782 10.6967 10.7863C10.7125 10.7944 10.73 10.7991 10.7477 10.8C10.7655 10.801 10.7833 10.7982 10.7999 10.7918C10.8164 10.7854 10.8315 10.7756 10.8441 10.763C10.8567 10.7505 10.8665 10.7353 10.8728 10.7186C10.8793 10.702 10.8821 10.6843 10.881 10.6665C10.8801 10.6486 10.8755 10.6313 10.8673 10.6154C10.8593 10.5995 10.848 10.5855 10.8341 10.5743L8.25963 7.99646L10.8341 5.41853C10.8524 5.40077 10.865 5.37786 10.8701 5.35283C10.8754 5.32779 10.8728 5.30179 10.863 5.2782C10.8531 5.25463 10.8364 5.23456 10.815 5.22065C10.7935 5.20674 10.7684 5.19962 10.7429 5.20023C10.7098 5.20154 10.6785 5.21579 10.6558 5.23992L8.08126 7.81785L5.50679 5.23992C5.49504 5.22749 5.48091 5.21758 5.46524 5.21076C5.44958 5.20394 5.4327 5.20036 5.41562 5.20023Z" fill="white" stroke="white" stroke-width="0.4"/>
</svg>
