<svg width="16" height="16" viewBox="0 0 16 16" fill="none" xmlns="http://www.w3.org/2000/svg">
<path d="M12.4008 1.79883H3.74303C3.08453 1.79883 2.55078 2.22994 2.55078 2.7618V13.2394C2.55078 13.7712 3.08453 14.2024 3.74303 14.2024H12.4008C13.0593 14.2024 13.5931 13.7712 13.5931 13.2394V2.7618C13.5931 2.22994 13.0593 1.79883 12.4008 1.79883ZM13.3431 13.2394C13.3431 13.659 12.9203 14.0004 12.4008 14.0004H3.74303C3.22353 14.0004 2.80078 13.659 2.80078 13.2394V2.7618C2.80078 2.34221 3.22353 2.00075 3.74303 2.00075H12.4008C12.9203 2.00075 13.3431 2.34221 13.3431 2.7618V13.2394Z" fill="white" stroke="white" stroke-width="0.5"/>
<path fill-rule="evenodd" clip-rule="evenodd" d="M4.48047 4.80047C4.48047 4.62374 4.62374 4.48047 4.80047 4.48047H11.2005C11.3772 4.48047 11.5205 4.62374 11.5205 4.80047C11.5205 4.9772 11.3772 5.12047 11.2005 5.12047H4.80047C4.62374 5.12047 4.48047 4.9772 4.48047 4.80047Z" fill="white"/>
<path fill-rule="evenodd" clip-rule="evenodd" d="M4.48047 8.00066C4.48047 7.82393 4.62374 7.68066 4.80047 7.68066H11.2005C11.3772 7.68066 11.5205 7.82393 11.5205 8.00066C11.5205 8.1774 11.3772 8.32066 11.2005 8.32066H4.80047C4.62374 8.32066 4.48047 8.1774 4.48047 8.00066Z" fill="white"/>
<path fill-rule="evenodd" clip-rule="evenodd" d="M4.48047 11.2009C4.48047 11.0241 4.62374 10.8809 4.80047 10.8809H8.80047C8.9772 10.8809 9.12047 11.0241 9.12047 11.2009C9.12047 11.3776 8.9772 11.5209 8.80047 11.5209H4.80047C4.62374 11.5209 4.48047 11.3776 4.48047 11.2009Z" fill="white"/>
</svg>
