<svg width="35" height="35" viewBox="0 0 35 35" fill="none" xmlns="http://www.w3.org/2000/svg">
<circle cx="16" cy="16" r="16" fill="#EFECED"/>
<path d="M21.5 8.24805H10.6778C9.85469 8.24805 9.1875 8.78693 9.1875 9.45176V22.5487C9.1875 23.2135 9.85469 23.7525 10.6778 23.7525H21.5C22.3231 23.7525 22.9904 23.2135 22.9904 22.5487V9.45176C22.9904 8.78693 22.3231 8.24805 21.5 8.24805ZM22.6779 22.5487C22.6779 23.0732 22.1494 23.5 21.5 23.5H10.6778C10.0284 23.5 9.5 23.0732 9.5 22.5487V9.45176C9.5 8.92727 10.0284 8.50045 10.6778 8.50045H21.5C22.1494 8.50045 22.6779 8.92727 22.6779 9.45176V22.5487Z" fill="#2E3F55" stroke="#5C3E48" stroke-width="0.5"/>
<path fill-rule="evenodd" clip-rule="evenodd" d="M11.6016 11.9996C11.6016 11.7787 11.7806 11.5996 12.0016 11.5996H20.0016C20.2225 11.5996 20.4016 11.7787 20.4016 11.9996C20.4016 12.2205 20.2225 12.3996 20.0016 12.3996H12.0016C11.7806 12.3996 11.6016 12.2205 11.6016 11.9996Z" fill="#5C3E48"/>
<path fill-rule="evenodd" clip-rule="evenodd" d="M11.6016 15.9996C11.6016 15.7787 11.7806 15.5996 12.0016 15.5996H20.0016C20.2225 15.5996 20.4016 15.7787 20.4016 15.9996C20.4016 16.2205 20.2225 16.3996 20.0016 16.3996H12.0016C11.7806 16.3996 11.6016 16.2205 11.6016 15.9996Z" fill="#5C3E48"/>
<path fill-rule="evenodd" clip-rule="evenodd" d="M11.6016 19.9996C11.6016 19.7787 11.7806 19.5996 12.0016 19.5996H17.0016C17.2225 19.5996 17.4016 19.7787 17.4016 19.9996C17.4016 20.2205 17.2225 20.3996 17.0016 20.3996H12.0016C11.7806 20.3996 11.6016 20.2205 11.6016 19.9996Z" fill="#5C3E48"/>
<circle cx="25" cy="25" r="9.5" fill="#E9F9E8" stroke="white"/>
<path fill-rule="evenodd" clip-rule="evenodd" d="M24.9658 30.2683C27.8943 30.2683 30.2683 27.8943 30.2683 24.9658C30.2683 22.0373 27.8943 19.6633 24.9658 19.6633C22.0373 19.6633 19.6633 22.0373 19.6633 24.9658C19.6633 27.8943 22.0373 30.2683 24.9658 30.2683ZM30.8808 24.9658C30.8808 28.2325 28.2325 30.8808 24.9658 30.8808C21.699 30.8808 19.0508 28.2325 19.0508 24.9658C19.0508 21.699 21.699 19.0508 24.9658 19.0508C28.2325 19.0508 30.8808 21.699 30.8808 24.9658Z" fill="#24C11E"/>
<path d="M27.5898 22.9004L23.9805 26.5098L22.3398 24.8691" stroke="#24C11E" stroke-width="0.875" stroke-linecap="round" stroke-linejoin="round"/>
</svg>
