<svg width="16" height="16" viewBox="0 0 16 16" fill="none" xmlns="http://www.w3.org/2000/svg">
    <g opacity=".8" stroke="#2E3F55">
        <path d="m14.678 13.305-1.862 1.878a.221.221 0 0 1-.31 0l-3.584-3.626a.218.218 0 0 1-.062-.125l-.303-2.15a.223.223 0 0 1 .059-.184.22.22 0 0 1 .155-.066c.009 0 .018 0 .027.004l2.166.271a.224.224 0 0 1 .127.063l3.587 3.626a.222.222 0 0 1 0 .309zm-3.841-3.576-1.812-.225.254 1.794 3.383 3.42 1.555-1.57-3.38-3.419z" fill="#2E3F55" stroke-width=".3"/>
        <path d="M12.82 2.43c0-.647-.51-1.183-1.152-1.183H2.902c-.641 0-1.149.536-1.149 1.183v9.742c0 .647.508 1.159 1.15 1.159h4.736v.501H2.902a1.642 1.642 0 0 1-1.642-1.657V2.434c0-.92.73-1.682 1.642-1.682h8.766V.75c.913 0 1.646.76 1.646 1.681v5.891h-.494v-5.89z" fill="#2E3F55" stroke-width=".3"/>
        <path stroke-width=".8" stroke-linecap="round" d="M3.331 4.815H10.7M3.331 7.377h4.156"/>
    </g>
</svg>
