<svg width="16" height="16" fill="none" xmlns="http://www.w3.org/2000/svg">
    <path d="M12.4 1.799H3.742c-.658 0-1.192.43-1.192.963v10.477c0 .532.534.963 1.192.963H12.4c.658 0 1.192-.43 1.192-.963V2.762c0-.532-.534-.963-1.192-.963zm.942 11.44c0 .42-.423.761-.942.761H3.742c-.52 0-.942-.341-.942-.76V2.761c0-.42.423-.761.942-.761H12.4c.52 0 .942.341.942.76V13.24z" stroke="#C9001F" stroke-width=".5"/>
    <path d="M11.2 4.8H4.8M11.2 8H4.8M8.8 11.201h-4" stroke="#C9001F" stroke-width=".8" stroke-linecap="round" stroke-linejoin="round"/>
</svg>
