<svg xmlns="http://www.w3.org/2000/svg" width="16" height="17" fill="none" viewBox="0 0 16 17">
    <path stroke="#2E3F55" stroke-linecap="round" stroke-linejoin="round" stroke-width=".75" d="M13.889 2.5H2.61C1.721 2.5 1 3.172 1 4v10.5c0 .828.721 1.5 1.611 1.5H13.89c.89 0 1.611-.672 1.611-1.5V4c0-.828-.721-1.5-1.611-1.5zM11.472 1v3M5.028 1v3M1 7h14.5"/>
    <path fill-rule="evenodd" stroke="#2E3F55" stroke-width=".5" d="M5.95 9.25c-.022 0-.044.006-.062.018-.018.011-.031.027-.04.046-.008.019-.01.04-.005.06.005.02.015.037.031.051l2.225 2.072-2.225 2.072c-.012.008-.022.02-.029.032-.007.013-.01.027-.012.041 0 .015.002.03.008.043.005.013.013.025.024.035.011.01.024.018.039.023.014.005.03.008.045.007.015 0 .03-.005.044-.011.013-.007.026-.016.035-.027l2.225-2.072 2.225 2.072c.01.011.022.02.036.027.013.006.028.01.044.01.015.002.03 0 .045-.006.014-.005.027-.013.038-.023.01-.01.02-.022.025-.036.005-.013.008-.027.007-.041 0-.015-.005-.029-.012-.042-.007-.012-.017-.024-.029-.033l-2.225-2.071 2.225-2.072c.016-.014.027-.032.032-.052.004-.02.002-.041-.007-.06-.008-.02-.023-.035-.041-.047-.019-.01-.04-.016-.063-.016-.028.001-.055.013-.075.032l-2.225 2.072-2.225-2.072c-.01-.01-.022-.018-.036-.024-.013-.005-.028-.008-.043-.008v0z" clip-rule="evenodd"/>
</svg>
