<svg width="16" height="16" fill="none" xmlns="http://www.w3.org/2000/svg">
    <g opacity=".8" stroke="#fff">
        <path d="M12.548 2.346H3.437c-.798 0-1.445.603-1.445 1.345L2 13c0 .743.647 1.345 1.444 1.345l9.112-.001c.797 0 1.444-.602 1.444-1.345l-.007-9.308c0-.743-.647-1.345-1.444-1.345zM10 1.5V4M6 1.5V4M1.992 6h11.89" stroke-width=".75" stroke-linecap="round" stroke-linejoin="round"/>
        <path clip-rule="evenodd" d="M6.096 8a.09.09 0 0 0-.062.156l1.839 1.841-1.84 1.842a.091.091 0 0 0 .062.16.09.09 0 0 0 .066-.033L8 10.125l1.839 1.841a.09.09 0 1 0 .127-.127L8.127 9.997l1.84-1.841A.09.09 0 0 0 9.9 8a.09.09 0 0 0-.062.028L8 9.87 6.161 8.028A.09.09 0 0 0 6.096 8z" stroke-width=".5"/>
    </g>
</svg>
