<svg xmlns="http://www.w3.org/2000/svg" width="16" height="16" fill="none" viewBox="0 0 16 16">
    <g clip-path="url(#clip0)" opacity=".4">
        <path fill="#2E3F55" fill-rule="evenodd" stroke="#2E3F55" stroke-width=".5" d="M11.654 10.56l3.874 3.874c.145.146.227.343.227.549 0 .205-.082.403-.227.548-.146.146-.343.227-.549.227-.205 0-.403-.081-.548-.227l-3.874-3.874c-1.246.968-2.815 1.424-4.386 1.276-1.57-.148-3.026-.89-4.07-2.073C1.058 9.676.504 8.139.554 6.562c.05-1.578.698-3.077 1.814-4.193C3.483 1.253 4.982.604 6.559.555c1.578-.05 3.114.504 4.298 1.548 1.183 1.044 1.924 2.5 2.073 4.07.148 1.572-.308 3.14-1.276 4.387v0zm-1.61-.514c.65-.65 1.093-1.48 1.272-2.382.18-.902.087-1.838-.265-2.688-.352-.85-.948-1.576-1.713-2.088-.765-.51-1.664-.784-2.584-.784-.92 0-1.819.273-2.584.784-.765.512-1.361 1.238-1.713 2.088-.352.85-.444 1.786-.265 2.688.18.902.623 1.731 1.273 2.382.432.432.945.775 1.51 1.008.564.234 1.169.354 1.78.354.61 0 1.215-.12 1.78-.354.564-.234 1.076-.577 1.508-1.009v.001z" clip-rule="evenodd"/>
    </g>
    <defs>
        <clipPath id="clip0">
            <path fill="#fff" d="M0 0H16V16H0z"/>
        </clipPath>
    </defs>
</svg>
