<svg width="16" height="16" viewBox="0 0 16 16" fill="none" xmlns="http://www.w3.org/2000/svg">
<path d="M7.11893 7.51015L11.4645 11.5998C11.6244 11.7557 11.7129 11.9644 11.7109 12.181C11.7089 12.3976 11.6166 12.6048 11.4538 12.758C11.291 12.9112 11.0709 12.9981 10.8407 13C10.6105 13.0019 10.3887 12.9186 10.2232 12.7681L5.25691 8.09427C5.09233 7.93934 4.99988 7.72923 4.99988 7.51015C4.99988 7.29107 5.09233 7.08097 5.25691 6.92603L10.2232 2.25223C10.3887 2.10173 10.6105 2.01845 10.8407 2.02034C11.0709 2.02222 11.291 2.10911 11.4538 2.26229C11.6166 2.41548 11.7089 2.6227 11.7109 2.83932C11.7129 3.05595 11.6244 3.26465 11.4645 3.42047L7.11893 7.51015Z" fill="#2E3F55"/>
</svg>
