<svg width="20" height="20" viewBox="0 0 20 20" fill="none" xmlns="http://www.w3.org/2000/svg">
<path fill-rule="evenodd" clip-rule="evenodd" d="M2.66103 5.77027C3.75335 4.97976 5.23176 4.625 6.81819 4.625H13.1819C14.7683 4.625 16.2466 4.97976 17.339 5.77027C18.4473 6.5724 19.125 7.80076 19.125 9.45455C19.125 11.1083 18.4473 12.3367 17.339 13.1388C16.2466 13.9294 14.7683 14.2841 13.1819 14.2841H6.81819C5.23175 14.2841 3.75335 13.9294 2.66103 13.1388C1.55266 12.3367 0.875 11.1083 0.875 9.45455C0.875 7.80076 1.55266 6.5724 2.66103 5.77027ZM3.10074 6.37786C2.19382 7.0342 1.625 8.03312 1.625 9.45455C1.625 10.876 2.19382 11.8749 3.10074 12.5312C4.02371 13.1992 5.3294 13.5341 6.81819 13.5341H13.1819C14.6706 13.5341 15.9763 13.1992 16.8993 12.5312C17.8062 11.8749 18.375 10.876 18.375 9.45455C18.375 8.03312 17.8062 7.0342 16.8993 6.37786C15.9763 5.7099 14.6706 5.375 13.1819 5.375H6.81819C5.32939 5.375 4.0237 5.7099 3.10074 6.37786Z" fill="#2E3F55"/>
<path fill-rule="evenodd" clip-rule="evenodd" d="M10.3594 9.45472C10.3594 7.89515 11.6237 6.63086 13.1832 6.63086C14.7429 6.63086 16.0071 7.89515 16.0071 9.45472C16.0071 11.0143 14.7429 12.2786 13.1832 12.2786C11.6237 12.2786 10.3594 11.0143 10.3594 9.45472ZM13.1832 7.50586C12.1069 7.50586 11.2344 8.37839 11.2344 9.45472C11.2344 10.531 12.1069 11.4036 13.1832 11.4036C14.2596 11.4036 15.1321 10.531 15.1321 9.45472C15.1321 8.37839 14.2596 7.50586 13.1832 7.50586Z" fill="#2E3F55"/>
</svg>
