<svg width="16" height="16" viewBox="0 0 16 16" fill="none" xmlns="http://www.w3.org/2000/svg">
<path fill-rule="evenodd" clip-rule="evenodd" d="M2.12804 4.61642C3.0019 3.984 4.18462 3.7002 5.45377 3.7002H10.5447C11.8138 3.7002 12.9965 3.984 13.8704 4.61642C14.7571 5.25812 15.2992 6.2408 15.2992 7.56384C15.2992 8.88686 14.7571 9.86955 13.8704 10.5113C12.9965 11.1437 11.8138 11.4275 10.5447 11.4275H5.45377C4.18462 11.4275 3.0019 11.1437 2.12804 10.5113C1.24135 9.86955 0.699219 8.88686 0.699219 7.56384C0.699219 6.2408 1.24135 5.25812 2.12804 4.61642ZM2.47981 5.10248C1.75427 5.62755 1.29922 6.42669 1.29922 7.56384C1.29922 8.70097 1.75427 9.50011 2.47981 10.0252C3.21818 10.5596 4.26274 10.8275 5.45377 10.8275H10.5447C11.7357 10.8275 12.7803 10.5596 13.5186 10.0252C14.2442 9.50011 14.6992 8.70097 14.6992 7.56384C14.6992 6.42669 14.2442 5.62755 13.5186 5.10248C12.7803 4.56812 11.7357 4.3002 10.5447 4.3002H5.45377C4.26273 4.3002 3.21818 4.56812 2.47981 5.10248Z" fill="#2E3F55"/>
<path fill-rule="evenodd" clip-rule="evenodd" d="M8.28516 7.56378C8.28516 6.31612 9.29659 5.30469 10.5442 5.30469C11.7919 5.30469 12.8033 6.31612 12.8033 7.56378C12.8033 8.81143 11.7919 9.82287 10.5442 9.82287C9.29659 9.82287 8.28516 8.81144 8.28516 7.56378ZM10.5442 6.00469C9.68319 6.00469 8.98516 6.70272 8.98516 7.56378C8.98516 8.42484 9.68319 9.12287 10.5442 9.12287C11.4053 9.12287 12.1033 8.42484 12.1033 7.56378C12.1033 6.70271 11.4053 6.00469 10.5442 6.00469Z" fill="#2E3F55"/>
</svg>
