<svg width="17" height="16" viewBox="0 0 17 16" fill="none" xmlns="http://www.w3.org/2000/svg">
<path fill-rule="evenodd" clip-rule="evenodd" d="M16.002 10.4797C16.002 10.6615 15.8095 10.7324 15.5737 10.6386L11.7442 8.24682C11.5076 8.1527 11.5083 7.99983 11.7442 7.90598L15.5737 5.51424C15.8102 5.42011 16.002 5.49116 16.002 5.67313L16.002 10.4797ZM10.002 1L6.00195 1L6.00195 15L10.002 15L10.002 1ZM6.00195 -3.79378e-07C5.44967 -4.0033e-07 5.00195 0.447715 5.00195 1L5.00195 15C5.00195 15.5523 5.44967 16 6.00195 16L10.002 16C10.5542 16 11.002 15.5523 11.002 15L11.002 1C11.002 0.447715 10.5542 -2.06674e-07 10.002 -2.27627e-07L6.00195 -3.79378e-07ZM0.428891 5.5141C0.193046 5.42025 0.000610075 5.49112 0.000610066 5.67299L0.000609824 10.4795C0.000609815 10.6615 0.192358 10.7326 0.428891 10.6384L4.25841 8.24668C4.49425 8.15284 4.49494 7.99996 4.25841 7.90584L0.428891 5.5141Z" fill="white"/>
</svg>
