<svg width="16" height="16" viewBox="0 0 16 16" fill="none" xmlns="http://www.w3.org/2000/svg">
    <path fill-rule="evenodd" clip-rule="evenodd" d="M15.791 1.948c0-.966-.84-1.748-1.876-1.748H2.077C1.04.2.2.985.2 1.95L.21 14.05c0 .966.84 1.749 1.876 1.749l11.838-.001c1.036 0 1.876-.783 1.876-1.749l-.009-12.102zm-.99 12.102L14.79 1.95c0-.348-.324-.75-.876-.75l-11.838.002c-.552 0-.877.4-.877.748l.01 12.102c0 .347.324.749.876.749l11.838-.001c.551 0 .876-.401.876-.749z" fill="#C9001F"/>
    <path fill-rule="evenodd" clip-rule="evenodd" d="M9.914 10.95a1.798 1.798 0 1 0 .539-3.555 1.798 1.798 0 0 0-.54 3.556zm2.838-1.387a2.598 2.598 0 1 1-5.137-.78 2.598 2.598 0 0 1 5.137.78z" fill="#C9001F"/>
    <path fill-rule="evenodd" clip-rule="evenodd" d="M11.545 11.031a.4.4 0 0 1 .559.085l1.562 2.122a.4.4 0 1 1-.644.474l-1.562-2.121a.4.4 0 0 1 .085-.56zM2.092 4.061c0-.294.239-.533.533-.533h7.333a.533.533 0 0 1 0 1.067H2.625a.533.533 0 0 1-.533-.534zM2.09 6.766c0-.295.24-.534.534-.534h2.667a.533.533 0 0 1 0 1.067H2.624a.533.533 0 0 1-.533-.533zM2.09 9.47c0-.294.24-.533.534-.533h2.667a.533.533 0 0 1 0 1.067H2.624a.533.533 0 0 1-.533-.534zM2.09 12.174c0-.294.272-.533.607-.533h3.788c.334 0 .606.239.606.533 0 .295-.272.534-.606.534H2.697c-.335 0-.606-.239-.606-.534z" fill="#C9001F"/>
</svg>
