<svg width="24" height="24" viewBox="0 0 24 24" fill="none" xmlns="http://www.w3.org/2000/svg">
    <path d="M8.824 4H3l1.059-2h8.47L21 9h-9L8.824 4z" fill="#C9001F"/>
    <path d="m12 13-3.846 4L7 15.801" stroke="#2E3F55" stroke-width="1.7" stroke-linecap="round" stroke-linejoin="round"/>
    <path d="M16.801 23c3.035 0 4.699-1.652 4.699-3.672V8.12c0-.062-.03-.092-.062-.153 0 0 0-.031-.03-.031-.031-.061-.062-.092-.093-.122l-7.98-6.63a.67.67 0 0 0-.153-.123c-.062-.03-.093-.03-.155-.061H6.2C4.164 1 2.5 2.652 2.5 4.672v14.626c0 2.02 1.664 3.672 3.699 3.672h10.603V23zm-4.28-20.746L20.342 8.6H12.52V2.254zM3.732 19.328V4.702c0-1.346 1.11-2.448 2.465-2.448h5.09v6.988c0 .336.277.612.616.612h8.363v9.474c0 1.346-1.11 2.448-3.466 2.448H6.198c-1.356 0-2.465-1.101-2.465-2.448z" fill="#2E3F55"/>
    <path d="M13.5 17h4" stroke="#2E3F55" stroke-width="1.5" stroke-linecap="round" stroke-linejoin="round"/>
</svg>
