<svg width="16" height="16" viewBox="0 0 16 16" fill="none" xmlns="http://www.w3.org/2000/svg">
<path fill-rule="evenodd" clip-rule="evenodd" d="M8.00255 14.8389C7.76017 14.8389 7.56369 14.6424 7.56369 14.4L7.56369 1.60001C7.56369 1.35764 7.76018 1.16115 8.00255 1.16115C8.24492 1.16115 8.44141 1.35764 8.44141 1.60001L8.44141 14.4C8.44141 14.6424 8.24492 14.8389 8.00255 14.8389Z" fill="#2E3F55"/>
<path fill-rule="evenodd" clip-rule="evenodd" d="M14.7113 8.30994C14.5399 8.48132 14.2621 8.48132 14.0907 8.30994L8.00099 2.22026L1.9113 8.30994C1.73992 8.48132 1.46205 8.48132 1.29067 8.30994C1.11928 8.13855 1.11928 7.86068 1.29067 7.6893L7.69067 1.2893C7.86205 1.11792 8.13992 1.11792 8.31131 1.2893L14.7113 7.6893C14.8827 7.86068 14.8827 8.13855 14.7113 8.30994Z" fill="#2E3F55"/>
</svg>
