<svg width="40" height="40" fill="none" xmlns="http://www.w3.org/2000/svg">
    <path d="M9.176 35.792h21.695c.946 0 1.854-.347 2.523-.964.669-.618 1.044-1.455 1.044-2.329V8.398a.352.352 0 0 0-.116-.26.413.413 0 0 0-.28-.106.414.414 0 0 0-.28.107.352.352 0 0 0-.116.259v24.101c0 .68-.293 1.331-.813 1.811s-1.226.75-1.962.75H9.176c-.735 0-1.441-.27-1.961-.75a2.466 2.466 0 0 1-.813-1.81V8.397a.352.352 0 0 0-.116-.26.414.414 0 0 0-.28-.106.414.414 0 0 0-.28.107.352.352 0 0 0-.117.259v24.101c0 .874.376 1.711 1.045 2.329a3.723 3.723 0 0 0 2.522.964z" fill="#C9001F" stroke="#C9001F" stroke-width=".5"/>
    <path d="M20 24.105c.09 0 .176-.034.24-.096a.327.327 0 0 0 .098-.234V5.234l6.603 6.45a.343.343 0 0 0 .46-.018.327.327 0 0 0 .018-.45L20.24 4.203a.343.343 0 0 0-.477 0l-7.182 7.015a.327.327 0 0 0 .018.449.343.343 0 0 0 .46.017l6.603-6.45v18.542c0 .087.035.172.099.234.063.062.15.096.239.096z" fill="#C9001F" stroke="#C9001F" stroke-width=".5"/>
</svg>
