<svg width="16" height="16" fill="none" xmlns="http://www.w3.org/2000/svg">
    <path d="M3.673 14.317h8.678a1.49 1.49 0 0 0 1.009-.386c.267-.247.418-.582.418-.931V3.36a.14.14 0 0 0-.047-.104.165.165 0 0 0-.112-.043.166.166 0 0 0-.112.043.141.141 0 0 0-.046.103V13a.986.986 0 0 1-.325.724c-.209.192-.49.3-.785.3H3.673c-.294 0-.577-.107-.785-.3A.986.986 0 0 1 2.563 13V3.36a.14.14 0 0 0-.046-.104.166.166 0 0 0-.112-.043.166.166 0 0 0-.112.043.14.14 0 0 0-.047.103V13c0 .35.15.684.418.931s.63.386 1.009.386z" fill="#C9001F" stroke="#C9001F" stroke-width=".5"/>
    <path d="M8 9.642c.036 0 .07-.014.096-.039a.13.13 0 0 0 .04-.093V2.093l2.64 2.58a.137.137 0 0 0 .184-.007.13.13 0 0 0 .007-.18l-2.87-2.805a.137.137 0 0 0-.192 0L5.033 4.487a.13.13 0 0 0 .007.18.137.137 0 0 0 .183.006l2.642-2.58V9.51a.13.13 0 0 0 .04.093c.025.025.06.04.095.04z" fill="#C9001F" stroke="#C9001F" stroke-width=".5"/>
</svg>
