<svg width="16" height="16" viewBox="0 0 16 16" fill="none" xmlns="http://www.w3.org/2000/svg">
<path d="M3.67292 14.3171H12.3508C12.7293 14.3171 13.0922 14.1783 13.3598 13.9313C13.6274 13.6843 13.7777 13.3493 13.7777 13V3.35923C13.7777 3.32042 13.761 3.2832 13.7312 3.25575C13.7015 3.22831 13.6612 3.21289 13.6191 3.21289C13.5771 3.21289 13.5368 3.22831 13.507 3.25575C13.4773 3.2832 13.4606 3.32042 13.4606 3.35923V13C13.4606 13.2717 13.3437 13.5322 13.1356 13.7244C12.9274 13.9165 12.6452 14.0244 12.3508 14.0244H3.67292C3.37859 14.0244 3.09632 13.9165 2.8882 13.7244C2.68008 13.5322 2.56316 13.2717 2.56316 13V3.35923C2.56316 3.32042 2.54646 3.2832 2.51673 3.25575C2.48699 3.22831 2.44667 3.21289 2.40462 3.21289C2.36258 3.21289 2.32225 3.22831 2.29252 3.25575C2.26279 3.2832 2.24609 3.32042 2.24609 3.35923V13C2.24609 13.3493 2.39641 13.6843 2.664 13.9313C2.93158 14.1783 3.2945 14.3171 3.67292 14.3171Z" fill="#2E3F55" stroke="#2E3F55" stroke-width="0.5"/>
<path d="M8 9.64258C8.0359 9.64258 8.07034 9.62864 8.09573 9.60383C8.12111 9.57902 8.13538 9.54537 8.13538 9.51028L8.13538 2.09383L10.7766 4.67366C10.8025 4.69534 10.8358 4.70666 10.8698 4.70538C10.9039 4.70409 10.9362 4.69029 10.9603 4.66673C10.9845 4.64316 10.9986 4.61158 10.9999 4.57828C11.0012 4.54499 10.9896 4.51243 10.9674 4.48712L8.09612 1.68105C8.07075 1.65641 8.03644 1.64258 8.00068 1.64258C7.96491 1.64258 7.9306 1.65641 7.90524 1.68105L5.0326 4.48712C5.0104 4.51243 4.9988 4.54499 5.0001 4.57828C5.0014 4.61158 5.0155 4.64316 5.0397 4.66673C5.0638 4.69029 5.0961 4.70409 5.1302 4.70538C5.1642 4.70666 5.1975 4.69534 5.2234 4.67366L7.86462 2.09383L7.86462 9.51028C7.86462 9.54537 7.87889 9.57902 7.90427 9.60383C7.92966 9.62864 7.9641 9.64258 8 9.64258Z" fill="#2E3F55" stroke="#2E3F55" stroke-width="0.5"/>
</svg>
