<svg width="16" height="16" viewBox="0 0 16 16" fill="none" xmlns="http://www.w3.org/2000/svg">
<path fill-rule="evenodd" clip-rule="evenodd" d="M7.95922 14.0202C11.3061 14.0202 14.0192 11.307 14.0192 7.9602C14.0192 4.61335 11.3061 1.9002 7.95922 1.9002C4.61237 1.9002 1.89922 4.61335 1.89922 7.9602C1.89922 11.307 4.61237 14.0202 7.95922 14.0202ZM14.7192 7.9602C14.7192 11.6936 11.6927 14.7202 7.95922 14.7202C4.22577 14.7202 1.19922 11.6936 1.19922 7.9602C1.19922 4.22675 4.22577 1.2002 7.95922 1.2002C11.6927 1.2002 14.7192 4.22675 14.7192 7.9602Z" fill="#2E3F55"/>
<path d="M10.9609 5.60059L6.83594 9.72559L4.96094 7.85059" stroke="#2E3F55" stroke-width="0.875" stroke-linecap="round" stroke-linejoin="round"/>
</svg>
