<svg width="21" height="20" viewBox="0 0 21 20" fill="none" xmlns="http://www.w3.org/2000/svg">
<path fill-rule="evenodd" clip-rule="evenodd" d="M10.45 17.525C14.6335 17.525 18.025 14.1335 18.025 9.95C18.025 5.76644 14.6335 2.375 10.45 2.375C6.26644 2.375 2.875 5.76644 2.875 9.95C2.875 14.1335 6.26644 17.525 10.45 17.525ZM18.9 9.95C18.9 14.6168 15.1168 18.4 10.45 18.4C5.78319 18.4 2 14.6168 2 9.95C2 5.28319 5.78319 1.5 10.45 1.5C15.1168 1.5 18.9 5.28319 18.9 9.95Z" fill="#2E3F55"/>
<path d="M14.1992 7L9.04297 12.1562L6.69922 9.8125" stroke="#2E3F55" stroke-width="0.875" stroke-linecap="round" stroke-linejoin="round"/>
</svg>
