<svg width="24" height="24" viewBox="0 0 24 24" fill="none" xmlns="http://www.w3.org/2000/svg">
<path d="M5.2137 21.2H18.786C20.0088 21.2 21 20.2088 21 18.9863V4.2137C21 2.9912 20.0088 2 18.7863 2H5.2137C3.9912 2 3 2.9912 3 4.2137V18.9863C3 20.2088 3.9912 21.2 5.2137 21.2Z" fill="#2C58B6"/>
<path d="M7.875 8L8.875 12.0656C9.08333 12.9399 9.29167 13.7705 9.45833 14.6011H9.5C9.66667 13.7705 9.91667 12.9399 10.1667 12.0656L11.4167 8H12.5833L13.75 11.9781C14.0417 12.9399 14.25 13.7705 14.4167 14.6011H14.4583C14.5833 13.7705 14.7917 12.9399 15.0417 12.0219L16.125 8H17.5L15.0417 16H13.7917L12.6667 12.1967C12.4167 11.3224 12.1667 10.4918 12 9.57377H11.9583C11.75 10.5355 11.5417 11.3661 11.25 12.1967L10.0417 16H8.79167L6.5 8H7.875Z" fill="white"/>
</svg>
