<svg width="32" height="32" viewBox="0 0 32 32" fill="none" xmlns="http://www.w3.org/2000/svg">
    <path d="M6.952 28.266h18.096A2.952 2.952 0 0 0 28 25.314V5.618a2.952 2.952 0 0 0-2.952-2.952H6.952A2.952 2.952 0 0 0 4 5.618v19.696a2.952 2.952 0 0 0 2.952 2.952z" fill="#24C11E"/>
    <path d="M13.55 11.85h-1.896l-.62 1.339c-.186.424-.326.752-.5 1.22h-.022a23.23 23.23 0 0 0-.556-1.22l-.642-1.34H7.408l2.047 3.626-2.123 3.714h1.894l.61-1.328c.23-.512.415-.893.567-1.318h.021c.208.425.382.806.654 1.318l.664 1.328h1.917l-2.178-3.757 2.068-3.582zM16.111 11.85h-1.666v7.34h4.585v-1.395h-2.919V11.85zM22.761 14.832c-.946-.36-1.36-.567-1.36-1.035 0-.381.348-.707 1.067-.707.718 0 1.241.206 1.535.348l.37-1.34c-.435-.196-1.045-.37-1.873-.37-1.73 0-2.776.958-2.776 2.211 0 1.068.794 1.743 2.014 2.167.883.316 1.23.578 1.23 1.034 0 .48-.402.796-1.165.796-.708 0-1.394-.229-1.84-.457l-.338 1.372c.414.228 1.241.446 2.08.446 2.015 0 2.962-1.046 2.962-2.276 0-1.034-.61-1.71-1.906-2.189z" fill="#fff"/>
</svg>
