<svg width="20" height="20" fill="none" xmlns="http://www.w3.org/2000/svg">
    <path d="M4.588 17.896h10.848c.473 0 .926-.173 1.26-.482.335-.309.523-.727.523-1.164V4.199a.176.176 0 0 0-.058-.13.207.207 0 0 0-.14-.053.207.207 0 0 0-.14.054.176.176 0 0 0-.058.129V16.25c0 .34-.146.665-.407.905-.26.24-.613.375-.98.375H4.587c-.368 0-.72-.134-.98-.375a1.233 1.233 0 0 1-.407-.905V4.199a.176.176 0 0 0-.058-.13.207.207 0 0 0-.14-.053.207.207 0 0 0-.14.054.176.176 0 0 0-.058.129V16.25c0 .437.188.855.522 1.164.335.309.788.482 1.261.482z" fill="#C9001F" stroke="#C9001F" stroke-width=".5"/>
    <path d="M10 12.053a.171.171 0 0 0 .12-.049.164.164 0 0 0 .05-.117v-9.27l3.3 3.225a.172.172 0 0 0 .23-.01.164.164 0 0 0 .01-.224l-3.59-3.507a.171.171 0 0 0-.238 0L6.29 5.608a.163.163 0 0 0 .009.225.171.171 0 0 0 .23.009l3.3-3.225v9.27c0 .044.019.086.05.117a.171.171 0 0 0 .12.049z" fill="#C9001F" stroke="#C9001F" stroke-width=".5"/>
</svg>
