<svg xmlns="http://www.w3.org/2000/svg" width="64" height="66" viewBox="0 0 64 66">
    <defs>
        <style>
            .cls-2{fill:#ebf5ff}.cls-3,.cls-7{fill:#ff7eb8}.cls-4{fill:#2a719b}.cls-5,.cls-9{fill:#c1ddf7}.cls-7,.cls-8,.cls-9{stroke:#2d719b}.cls-8{fill:#4e89ad}.cls-11{fill:#014073}
        </style>
    </defs>
    <g id="Allocation" transform="translate(-183 -348.5)">
        <g id="Group_9870" transform="translate(183 348.5)">
            <g id="Group_9859">
                <g id="Group_9717">
                    <path id="Rectangle_1187" fill="none" d="M0 0H64V66H0z"/>
                </g>
            </g>
        </g>
        <g id="Group_3365" transform="translate(184.066 350.767)">
            <path id="Path_2748" d="M40.853 6.038c-10.53 0-17.76-5.454-22.834-5.454S2.29 3.5 2.29 26.841s14.335 26.765 19.915 26.765C48.338 53.608 59.5 6.038 40.853 6.038z" class="cls-2" transform="translate(12.522 -.016)"/>
            <g id="Group_9825" transform="translate(0 9.14)">
                <g id="Group_3347">
                    <path id="Path_1742" d="M397.216 49.255a.644.644 0 0 1-.644-.645.774.774 0 0 0-.773-.773.645.645 0 0 1 0-1.289.774.774 0 0 0 .773-.773.645.645 0 1 1 1.289 0 .774.774 0 0 0 .773.773.645.645 0 1 1 0 1.289.774.774 0 0 0-.773.773.645.645 0 0 1-.645.645z" class="cls-3" transform="translate(-342.471 -39.319)"/>
                    <path id="Path_2578" d="M61.717 420.3a.645.645 0 0 1-.645-.644.774.774 0 0 0-.773-.773.645.645 0 0 1 0-1.289.774.774 0 0 0 .773-.773.645.645 0 0 1 1.289 0 .774.774 0 0 0 .773.773.645.645 0 0 1 0 1.289.774.774 0 0 0-.773.773.644.644 0 0 1-.644.644z" class="cls-3" transform="translate(-59.532 -389.253)"/>
                    <g id="Group_3346">
                        <path id="Path_1744" d="M451.517 84.917a.645.645 0 0 1-.456-1.1l1.289-1.289a.644.644 0 0 1 .911.911l-1.289 1.289a.642.642 0 0 1-.455.189z" class="cls-4" transform="translate(-398.735 -82.339)"/>
                        <path id="Path_1745" d="M88.3 42.708a.645.645 0 0 1-.456-1.1l1.289-1.289a.644.644 0 1 1 .911.911l-1.289 1.289a.642.642 0 0 1-.455.189z" class="cls-4" transform="translate(-87.654 -17.683)"/>
                        <path id="Path_2579" d="M88.3 42.708a.645.645 0 0 1-.456-1.1l1.289-1.289a.644.644 0 1 1 .911.911l-1.289 1.289a.642.642 0 0 1-.455.189z" class="cls-4" transform="translate(-37.78 -6.941)"/>
                    </g>
                </g>
            </g>
            <path id="Path_4366" d="M286.6 165.588l-.624-.335a.225.225 0 0 1-.092-.092l-.335-.624a.224.224 0 0 0-.4 0l-.335.624a.225.225 0 0 1-.092.092l-.624.335a.225.225 0 0 0 0 .4l.624.335a.225.225 0 0 1 .092.092l.335.624a.224.224 0 0 0 .4 0l.335-.624a.224.224 0 0 1 .092-.092l.624-.335a.225.225 0 0 0 0-.4z" class="cls-5" transform="translate(-266.855 -164.419)"/>
            <path id="Path_4367" fill="#84b4fe" d="M243.127 192.011l-.691-.37a.25.25 0 0 1-.1-.1l-.37-.691a.248.248 0 0 0-.438 0l-.371.691a.25.25 0 0 1-.1.1l-.691.37a.249.249 0 0 0 0 .438l.691.37a.25.25 0 0 1 .1.1l.371.691a.248.248 0 0 0 .438 0l.37-.691a.25.25 0 0 1 .1-.1l.691-.37a.249.249 0 0 0 0-.438z" transform="translate(-238.917 -178.013)"/>
            <path id="Path_6" d="M368.3 211.863l-.5-.266a.177.177 0 0 1-.073-.073l-.266-.5a.178.178 0 0 0-.314 0l-.265.5a.178.178 0 0 1-.073.073l-.5.266a.178.178 0 0 0 0 .314l.5.265a.178.178 0 0 1 .073.073l.265.5a.178.178 0 0 0 .314 0l.266-.5a.177.177 0 0 1 .073-.073l.5-.265a.178.178 0 0 0 0-.314z" class="cls-2" transform="translate(-319.907 -165.854)"/>
            <circle id="Ellipse_701" cx="1.235" cy="1.235" r="1.235" class="cls-2" transform="translate(43.936 8.908)"/>
            <path id="Path_4368" d="M405.434 199.842l-.755-.4a.271.271 0 0 1-.111-.111l-.4-.755a.272.272 0 0 0-.478 0l-.4.755a.273.273 0 0 1-.111.111l-.755.4a.272.272 0 0 0 0 .479l.755.4a.271.271 0 0 1 .111.111l.4.755a.271.271 0 0 0 .478 0l.4-.755a.269.269 0 0 1 .111-.111l.755-.4a.272.272 0 0 0 0-.479z" class="cls-5" transform="translate(-347.73 -147.732)"/>
            <g id="noun_Sharing_2864701" transform="translate(4.341 5.197)">
                <path id="Path_4939" d="M62.539 5.175v-2.9a.828.828 0 0 0-.435-.729L59.412.1a.827.827 0 0 0-.785 0l-2.692 1.448a.828.828 0 0 0-.435.729v2.9a.828.828 0 0 0 .435.729l2.691 1.449a.828.828 0 0 0 .785 0L62.1 5.9a.828.828 0 0 0 .439-.725z" class="cls-7" transform="translate(-32.521)"/>
                <path id="Path_4940" d="M22.636 22.081l.879-2.928a.828.828 0 0 0-.208-.823l-2.05-2.049a.827.827 0 0 0-.823-.208l-2.928.878a.828.828 0 0 0-.556.555l-.878 2.928a.828.828 0 0 0 .208.823l2.05 2.049a.827.827 0 0 0 .823.208l2.927-.878a.828.828 0 0 0 .556-.555z" class="cls-8" transform="translate(-9.398 -9.398)"/>
                <path id="Path_4941" d="M7.353 58.627L5.9 55.936a.828.828 0 0 0-.729-.435h-2.9a.828.828 0 0 0-.729.435L.1 58.627a.827.827 0 0 0 0 .785L1.548 62.1a.828.828 0 0 0 .729.435h2.9A.828.828 0 0 0 5.9 62.1l1.449-2.691a.827.827 0 0 0 .004-.782z" class="cls-7" transform="translate(0 -32.521)"/>
                <path id="Path_4942" d="M22.636 95.288a.829.829 0 0 0-.555-.555l-2.927-.879a.829.829 0 0 0-.824.208l-2.05 2.05a.828.828 0 0 0-.208.823l.878 2.928a.828.828 0 0 0 .556.556l2.928.878a.828.828 0 0 0 .823-.208l2.05-2.05a.829.829 0 0 0 .208-.824z" class="cls-8" transform="translate(-9.398 -54.975)"/>
                <path id="Path_4943" d="M62.1 111.549l-2.688-1.449a.829.829 0 0 0-.785 0l-2.691 1.449a.828.828 0 0 0-.435.729v2.9a.828.828 0 0 0 .435.729l2.691 1.449a.828.828 0 0 0 .785 0L62.1 115.9a.828.828 0 0 0 .435-.729v-2.9a.828.828 0 0 0-.435-.722z" class="cls-9" transform="translate(-32.521 -64.457)"/>
                <path id="Path_4944" d="M99.039 94.062a.829.829 0 0 0-.824-.208l-2.927.879a.829.829 0 0 0-.555.555l-.879 2.927a.829.829 0 0 0 .208.824l2.05 2.05a.828.828 0 0 0 .823.208l2.928-.878a.828.828 0 0 0 .556-.556l.878-2.928a.828.828 0 0 0-.208-.823z" class="cls-7" transform="translate(-54.975 -54.975)"/>
                <path id="Path_4945" d="M115.9 55.936a.828.828 0 0 0-.729-.435h-2.9a.828.828 0 0 0-.729.435l-1.442 2.691a.827.827 0 0 0 0 .785l1.449 2.691a.828.828 0 0 0 .729.435h2.9a.828.828 0 0 0 .729-.435l1.449-2.691a.827.827 0 0 0 0-.785z" class="cls-9" transform="translate(-64.456 -32.521)"/>
                <path id="Path_4946" d="M101.088 21.258a.828.828 0 0 0 .208-.823l-.878-2.928a.828.828 0 0 0-.556-.555l-2.928-.878a.827.827 0 0 0-.823.208l-2.05 2.049a.828.828 0 0 0-.208.823l.879 2.928a.828.828 0 0 0 .556.555l2.927.878a.827.827 0 0 0 .823-.208z" class="cls-8" transform="translate(-54.975 -9.398)"/>
                <path id="Path_4947" d="M52 65.117v1.241c0 .439 1.741 1.514 4.968 1.514s4.968-1.075 4.968-1.514v-1.241a11.336 11.336 0 0 1-4.968 1 11.336 11.336 0 0 1-4.968-1z" transform="translate(-30.47 -38.156)"/>
                <path id="Path_4948" d="M52 73.345v1.241c0 .439 1.741 1.514 4.968 1.514s4.968-1.075 4.968-1.514v-1.241a11.336 11.336 0 0 1-4.968 1 11.336 11.336 0 0 1-4.968-1z" transform="translate(-30.47 -42.978)"/>
                <path id="Path_4949" d="M52 56.888v1.241c0 .44 1.741 1.514 4.968 1.514s4.968-1.075 4.968-1.514v-1.241a11.336 11.336 0 0 1-4.968 1 11.336 11.336 0 0 1-4.968-1z" transform="translate(-30.47 -33.335)"/>
                <path id="Path_4950" d="M56.968 48C53.741 48 52 49.075 52 49.514s1.741 1.514 4.968 1.514 4.968-1.075 4.968-1.514S60.2 48 56.968 48z" transform="translate(-30.47 -28.127)"/>
                <path id="Path_4951" fill="#ebf5ff" stroke="#2d719b" d="M45.835 33A12.835 12.835 0 1 0 58.67 45.835 12.835 12.835 0 0 0 45.835 33z" transform="translate(-19.337 -19.337)"/>
                <path id="Path_4952" d="M88.449 35.985l2.176-2.176a2.48 2.48 0 0 1-1.171-1.171l-2.176 2.176a14.6 14.6 0 0 1 1.171 1.171z" class="cls-11" transform="translate(-51.142 -19.125)"/>
                <path id="Path_4953" d="M34.814 87.279l-2.176 2.176a2.481 2.481 0 0 1 1.171 1.171l2.176-2.176a14.6 14.6 0 0 1-1.171-1.171z" class="cls-11" transform="translate(-19.125 -51.143)"/>
                <path id="Path_4954" d="M62 21.648v3.069c.274-.016.55-.025.828-.025s.554.01.828.025v-3.069a2.427 2.427 0 0 1-1.656 0z" class="cls-11" transform="translate(-36.33 -12.685)"/>
                <path id="Path_4955" d="M63.656 102.008v-3.069c-.274.016-.55.025-.828.025s-.554-.01-.828-.025v3.069a2.484 2.484 0 0 1 1.656 0z" class="cls-11" transform="translate(-36.33 -57.975)"/>
                <path id="Path_4956" d="M102.008 63.656a2.481 2.481 0 0 1 0-1.656h-3.069c.016.274.025.55.025.828s-.01.554-.025.828z" class="cls-11" transform="translate(-57.975 -36.33)"/>
                <path id="Path_4957" d="M21.649 62a2.481 2.481 0 0 1 0 1.656h3.069c-.016-.274-.025-.55-.025-.828s.01-.554.025-.828z" class="cls-11" transform="translate(-12.685 -36.33)"/>
                <path id="Path_4958" d="M35.985 34.814l-2.175-2.175a2.48 2.48 0 0 1-1.171 1.171l2.176 2.176a14.6 14.6 0 0 1 1.171-1.171z" class="cls-11" transform="translate(-19.125 -19.125)"/>
                <path id="Path_4959" d="M88.45 87.279a14.6 14.6 0 0 1-1.171 1.171l2.176 2.176a2.481 2.481 0 0 1 1.171-1.171z" class="cls-11" transform="translate(-51.142 -51.143)"/>
                <g id="user_6_" transform="translate(21.53 19.874)">
                    <path id="Union_4" d="M5.8 2.9a2.807 2.807 0 0 1-.85 2.051A2.807 2.807 0 0 1 2.9 5.8a2.807 2.807 0 0 1-2.05-.849A2.806 2.806 0 0 1 0 2.9 2.806 2.806 0 0 1 .85.85 2.806 2.806 0 0 1 2.9 0a2.808 2.808 0 0 1 2.051.85A2.807 2.807 0 0 1 5.8 2.9zm0 0" class="cls-11" transform="translate(2.047)"/>
                    <path id="Union_1" d="M10.047 4.154a2 2 0 0 1-.594 1.513 2.138 2.138 0 0 1-1.531.558h-5.8a2.137 2.137 0 0 1-1.53-.558A2 2 0 0 1 0 4.154c0-.242.008-.481.024-.711a7.12 7.12 0 0 1 .1-.761 6.006 6.006 0 0 1 .187-.765A3.794 3.794 0 0 1 .623 1.2 2.7 2.7 0 0 1 1.1.585a2.091 2.091 0 0 1 .679-.428A2.356 2.356 0 0 1 2.648 0a.881.881 0 0 1 .472.2l.491.317A2.8 2.8 0 0 0 4.246.8a2.531 2.531 0 0 0 .7.124h.077A2.526 2.526 0 0 0 5.8.8a2.8 2.8 0 0 0 .635-.28L6.927.2A.88.88 0 0 1 7.4 0a2.357 2.357 0 0 1 .87.157 2.093 2.093 0 0 1 .681.428 2.692 2.692 0 0 1 .474.618 3.781 3.781 0 0 1 .315.713 6 6 0 0 1 .187.765 7.188 7.188 0 0 1 .1.761c.012.23.02.47.02.712zm0 0" class="cls-11" transform="translate(0 6.527)"/>
                </g>
            </g>
        </g>
    </g>
</svg>
