<svg xmlns="http://www.w3.org/2000/svg" width="13.733" height="13.104" viewBox="0 0 13.733 13.104">
    <path fill="#d0131d" d="M7.3.992a.379.379 0 0 0-.373.385v.861q.032-.019.067-.036a.758.758 0 0 1 .219-.061h.133a.753.753 0 0 1 .291.077l.047.024v-.86A.379.379 0 0 0 7.3.992zm0 1.521a.379.379 0 1 0 .379.379.379.379 0 0 0-.379-.379zm-.753.457L2.566 5.865a.758.758 0 0 1 .447.613L7 3.583a.758.758 0 0 1-.447-.613zm1.469.166a.758.758 0 0 1-.571.5l2.744 3.144a.758.758 0 0 1 .57-.5zm-.832.777l-.26.187v3.573l-3.4-1.1-.263.191.388.647 3.036.987-1.337 1.84.189.315.476.059L7.3 8.84l1.546 2.128.515.065.1-.512-1.544-2.126L10 7.717l.09-.473-.24-.275-2.171.7V4.48zM.823 5.708a.38.38 0 0 0-.123.741l.818.266v-.007-.006q-.007-.035-.01-.071a.743.743 0 0 1 .115-.485q.021-.031.044-.061a.758.758 0 0 1 .05-.058l.036-.036-.817-.264a.38.38 0 0 0-.113-.019zm12.973 0a.38.38 0 0 0-.127.019l-2.242.728.087.12.031.047.007.012.013.024q.012.021.022.043v.007l.021.052v.01l.009.027.015.055.009.044c.003.014 0 .031.006.046s0 .047 0 .071v.053c0 .003 0 0 0 0v.024c0 .008 0 .034-.007.05V7.166l2.26-.717a.38.38 0 0 0-.1-.741zM2.26 6.177a.379.379 0 1 0 .379.379.379.379 0 0 0-.379-.379zm8.645.469a.379.379 0 1 0 .379.379.379.379 0 0 0-.379-.379zm-7.985.278a.758.758 0 0 1-.65.389l2.144 3.579a.758.758 0 0 1 .65-.391zm7.49.672l-.685 3.561a.755.755 0 0 1 .746.142l.682-3.56a.746.746 0 0 1-.743-.139zM5.076 10.88a.379.379 0 1 0 .379.379.379.379 0 0 0-.379-.379zm.7.084a.758.758 0 0 1-.095.752l3.6.45a.758.758 0 0 1 .095-.752zm4.2.528a.379.379 0 1 0 .379.379.379.379 0 0 0-.38-.378zm-5.594.078l-1.394 1.918a.38.38 0 1 0 .614.447L5 12.012h-.022L4.914 12h-.015l-.049-.013-.021-.006h-.005l-.024-.016a.778.778 0 0 1-.26-.172l-.013-.013q-.026-.028-.049-.058t-.041-.058l-.01-.016-.015-.027zm6.285.607a.754.754 0 0 1-.377.382l-.043.018a.757.757 0 0 1-.073.024q-.037.01-.074.016l-.046.007.946 1.31a.38.38 0 1 0 .614-.447z" transform="translate(-.436 -.992)"/>
</svg>
