<svg xmlns="http://www.w3.org/2000/svg" width="50" height="50" viewBox="0 0 50 50">
  <defs>
    <style>
      .cls-1 {
        fill: rgba(189,210,226,0.2);
      }

      .cls-2 {
        fill: #e4eaf6;
      }

      .cls-3 {
        fill: #eff2fa;
      }

      .cls-4 {
        fill: #e1c3a0;
      }

      .cls-5 {
        fill: #c7cfe2;
      }

      .cls-6 {
        fill: #9fa7bf;
      }

      .cls-7 {
        fill: #8f96ac;
      }

      .cls-8 {
        fill: #ebd2af;
      }

      .cls-9 {
        fill: #707487;
      }
    </style>
  </defs>
  <g id="Group_521" data-name="Group 521" transform="translate(-182 -130)">
    <circle id="Ellipse_22" data-name="Ellipse 22" class="cls-1" cx="25" cy="25" r="25" transform="translate(182 130)"/>
    <g id="office-material" transform="translate(195 78.793)">
      <path id="Path_164" data-name="Path 164" class="cls-2" d="M115.377,66.68l-.619,1.238h4.7l-.619-1.238a.855.855,0,0,0-.765-.473h-1.936A.855.855,0,0,0,115.377,66.68Z" transform="translate(-109.199)"/>
      <path id="Path_165" data-name="Path 165" class="cls-3" d="M120.041,90.7H106.359a.428.428,0,0,1-.428-.428V84.29a.428.428,0,0,1,.428-.428h13.683a.428.428,0,0,1,.428.428v5.986A.428.428,0,0,1,120.041,90.7Z" transform="translate(-100.8 -16.8)"/>
      <path id="Path_166" data-name="Path 166" class="cls-2" d="M104.1,108.358H88.7a.428.428,0,0,1-.428-.428v-5.986a.428.428,0,0,1,.428-.428H104.1a.428.428,0,0,1,.428.428v5.986A.428.428,0,0,1,104.1,108.358Z" transform="translate(-83.999 -33.6)"/>
      <path id="Path_167" data-name="Path 167" class="cls-4" d="M24.692,184.62l-1.908-3.435a.428.428,0,0,0-.374-.22H2.389a.427.427,0,0,0-.374.22L.108,184.62a.855.855,0,0,0-.108.415v1.916H24.8v-1.916A.855.855,0,0,0,24.692,184.62Z" transform="translate(0 -109.199)"/>
      <path id="Path_168" data-name="Path 168" class="cls-5" d="M97.722,101.99l-.619,1.238h5.232l-.619-1.238a.855.855,0,0,0-.765-.473H98.487A.855.855,0,0,0,97.722,101.99Z" transform="translate(-92.4 -33.6)"/>
      <path id="Path_169" data-name="Path 169" class="cls-3" d="M104.1,126.013H88.7a.428.428,0,0,1-.428-.428V119.6a.428.428,0,0,1,.428-.428H104.1a.428.428,0,0,1,.428.428v5.986A.428.428,0,0,1,104.1,126.013Z" transform="translate(-83.999 -50.4)"/>
      <path id="Path_170" data-name="Path 170" class="cls-5" d="M88.151,143.668h-17.1a.428.428,0,0,1-.428-.428v-5.986a.428.428,0,0,1,.428-.428h17.1a.428.428,0,0,1,.428.428v5.986A.428.428,0,0,1,88.151,143.668Z" transform="translate(-67.199 -67.199)"/>
      <path id="Path_171" data-name="Path 171" class="cls-6" d="M80.067,137.3l-.619,1.238h6.414l-.619-1.238a.855.855,0,0,0-.765-.473H80.832A.855.855,0,0,0,80.067,137.3Z" transform="translate(-75.6 -67.2)"/>
      <path id="Path_172" data-name="Path 172" class="cls-3" d="M88.151,161.323h-17.1a.428.428,0,0,1-.428-.428V154.91a.428.428,0,0,1,.428-.428h17.1a.428.428,0,0,1,.428.428V160.9A.428.428,0,0,1,88.151,161.323Z" transform="translate(-67.199 -83.999)"/>
      <path id="Path_173" data-name="Path 173" class="cls-7" d="M72.206,178.979H53.393a.428.428,0,0,1-.428-.428v-5.986a.428.428,0,0,1,.428-.428H72.206a.428.428,0,0,1,.428.428v5.986A.428.428,0,0,1,72.206,178.979Z" transform="translate(-50.4 -100.8)"/>
      <path id="Path_174" data-name="Path 174" class="cls-8" d="M24.372,260.414h-7a.428.428,0,0,0-.382.236l-.5,1a.855.855,0,0,1-.765.473H9.08a.855.855,0,0,1-.765-.473l-.5-1a.428.428,0,0,0-.382-.236h-7a.428.428,0,0,0-.428.428v8.124a.428.428,0,0,0,.428.428H24.372a.428.428,0,0,0,.428-.428v-8.124A.428.428,0,0,0,24.372,260.414Z" transform="translate(0 -184.8)"/>
      <path id="Path_175" data-name="Path 175" class="cls-3" d="M318.221,192.359h5.131a.428.428,0,0,0,.428-.428v-1.71a.428.428,0,0,0-.428-.428h-5.131a.428.428,0,0,0-.428.428v1.71A.428.428,0,0,0,318.221,192.359Z" transform="translate(-302.4 -117.6)"/>
      <path id="Path_176" data-name="Path 176" class="cls-9" d="M337.586,207.448h-1.71a.428.428,0,0,0-.428.428h0a.428.428,0,0,0,.428.428h1.71a.428.428,0,0,0,.428-.428h0A.428.428,0,0,0,337.586,207.448Z" transform="translate(-319.2 -134.4)"/>
      <path id="Path_177" data-name="Path 177" class="cls-7" d="M398.1,207.448h-.428a.428.428,0,0,0-.428.428h0a.428.428,0,0,0,.428.428h.428a.428.428,0,0,0,.428-.428h0A.428.428,0,0,0,398.1,207.448Z" transform="translate(-378 -134.4)"/>
    </g>
  </g>
</svg>
