<svg width="24" height="25" viewBox="0 0 24 25" fill="none" xmlns="http://www.w3.org/2000/svg">
    <path d="M3.043 6.633v13.704l.814 1.096h15.469l1.22-.908v-1.793l-12.534-1.73-4.969-10.37z" fill="#C9001F"/>
    <path fill-rule="evenodd" clip-rule="evenodd" d="M23.638 2.863a.9.9 0 0 1 0 1.273l-10 10a.9.9 0 0 1-1.273 0l-3-3a.9.9 0 1 1 1.273-1.273l2.364 2.364 9.363-9.364a.9.9 0 0 1 1.273 0z" fill="#2E3F55"/>
    <path fill-rule="evenodd" clip-rule="evenodd" d="M5 4.3a1.2 1.2 0 0 0-1.2 1.2v14A1.2 1.2 0 0 0 5 20.7h14a1.2 1.2 0 0 0 1.2-1.2v-6a.8.8 0 0 1 1.6 0v6a2.8 2.8 0 0 1-2.8 2.8H5a2.8 2.8 0 0 1-2.8-2.8v-14A2.8 2.8 0 0 1 5 2.7h10a.8.8 0 0 1 0 1.6H5z" fill="#2E3F55"/>
</svg>
