<svg width="20" height="20" viewBox="0 0 20 20" fill="none" xmlns="http://www.w3.org/2000/svg">
<path d="M12.8293 0.868611L13.825 3.07006C14.068 3.60714 14.5493 3.97335 15.1124 4.04967L17.4151 4.35345L16.9869 6.7488C16.8826 7.33192 17.0662 7.92321 17.4779 8.33088L19.1693 9.99487L17.4779 11.6695C17.0662 12.077 16.8827 12.6684 16.9869 13.2516L17.4211 15.6383L15.1124 15.9507C14.5493 16.0268 14.0681 16.393 13.825 16.9303L12.8389 19.1285L10.7966 17.9597C10.5532 17.82 10.2778 17.7465 10.0004 17.7465C9.72292 17.7465 9.44774 17.82 9.2043 17.9593L7.17148 19.1314L6.17554 16.9299C5.93262 16.3928 5.4513 16.0266 4.88822 15.9505L2.58544 15.6467L3.01374 13.2514C3.11802 12.6682 2.93439 12.0768 2.52284 11.6693L0.831272 10.0053L2.52284 8.33049C2.93457 7.92284 3.11802 7.33153 3.01374 6.74842L2.57951 4.36167L4.88823 4.04931C5.45131 3.97318 5.93247 3.60697 6.17555 3.0697L7.16814 0.875351L9.20396 2.04045C9.4474 2.17975 9.72257 2.25332 10 2.25332C10.2775 2.25332 10.5527 2.17975 10.7961 2.04045L12.8293 0.86862M7.16587 4.63527e-06C6.85738 4.63527e-06 6.56006 0.181467 6.4181 0.495115L5.42233 2.69656C5.30183 2.96273 5.06048 3.14657 4.78148 3.1842L2.47277 3.49655C2.00192 3.56027 1.67915 4.02522 1.76634 4.5136L2.19463 6.90895C2.24625 7.19794 2.15418 7.49459 1.95014 7.69667L0.258574 9.37128C-0.0861912 9.71266 -0.0861912 10.287 0.258574 10.6284L1.95014 12.303C2.15417 12.5051 2.24625 12.8017 2.19463 13.0907L1.76634 15.486C1.67897 15.9746 2.00193 16.4393 2.47259 16.5031L4.7813 16.8154C5.06032 16.8532 5.30184 17.0369 5.42216 17.3033L6.4181 19.5047C6.56005 19.8183 6.85738 19.9998 7.16587 19.9998C7.29945 19.9998 7.4353 19.9657 7.56138 19.8936L9.6038 18.7248C9.72726 18.6542 9.86381 18.6189 10.0002 18.6189C10.1365 18.6189 10.2731 18.6544 10.3966 18.725L12.4388 19.8938C12.5649 19.9659 12.7007 20 12.8343 20C13.1428 20 13.4401 19.8185 13.5821 19.5049L14.5778 17.3034C14.6983 17.0373 14.9397 16.8534 15.2187 16.8158L17.5274 16.5034C17.9983 16.4397 18.321 15.9748 18.2337 15.4864L17.8054 13.0911C17.7537 12.8021 17.8458 12.5054 18.0499 12.3033L19.7414 10.6287C20.0862 10.2873 20.0862 9.713 19.7414 9.37165L18.05 7.69704C17.846 7.49495 17.7539 7.19829 17.8055 6.90932L18.2338 4.51397C18.3212 4.02545 17.9984 3.56067 17.5276 3.49692L15.2189 3.18457C14.9399 3.14678 14.6983 2.96312 14.578 2.69675L13.5823 0.49511C13.4403 0.181477 13.143 0 12.8345 0C12.7007 0 12.5651 0.0341385 12.439 0.106247L10.3966 1.275C10.2731 1.34564 10.1367 1.38106 10.0002 1.38106C9.86381 1.38106 9.72726 1.34564 9.6038 1.275L7.56138 0.106247C7.4353 0.0341352 7.29962 0 7.16587 0V4.63527e-06Z" fill="#1D9A18"/>
<path d="M5.19702 7.96658L4.08697 12.9198H3.30859L4.7637 7.08021H5.26121L5.19702 7.96658ZM6.12518 12.9198L5.00978 7.96658L4.94291 7.08021H5.4431L6.90622 12.9198H6.12518ZM6.07436 10.75V11.6203H3.98532V10.75H6.07436Z" fill="#1D9A18"/>
<path d="M9.11643 7.08021H9.852V10.9586C9.852 11.4051 9.78781 11.7807 9.65942 12.0856C9.53102 12.3877 9.35627 12.6163 9.13515 12.7714C8.91403 12.9238 8.6626 13 8.38085 13C8.09554 13 7.84143 12.9238 7.61853 12.7714C7.39563 12.6163 7.22087 12.3877 7.09426 12.0856C6.96765 11.7807 6.90435 11.4051 6.90435 10.9586V7.08021H7.63993V10.9586C7.63993 11.2313 7.67024 11.4545 7.73087 11.6283C7.7915 11.7995 7.87709 11.9265 7.98765 12.0094C8.09821 12.0922 8.22928 12.1337 8.38085 12.1337C8.53421 12.1337 8.66527 12.0922 8.77405 12.0094C8.88461 11.9265 8.96931 11.7995 9.02816 11.6283C9.087 11.4545 9.11643 11.2313 9.11643 10.9586V7.08021Z" fill="#1D9A18"/>
<path d="M12.2219 7.08021V12.9198H11.489V7.08021H12.2219ZM13.4309 7.08021V7.95053H10.2933V7.08021H13.4309Z" fill="#1D9A18"/>
<path d="M16.7076 9.8516V10.1524C16.7076 10.5936 16.6683 10.9906 16.5899 11.3436C16.5114 11.6939 16.4 11.992 16.2555 12.238C16.1111 12.484 15.939 12.6725 15.7393 12.8035C15.5396 12.9345 15.3175 13 15.0732 13C14.8325 13 14.6114 12.9345 14.4099 12.8035C14.2102 12.6725 14.0372 12.484 13.891 12.238C13.7448 11.992 13.6315 11.6939 13.5513 11.3436C13.471 10.9906 13.4309 10.5936 13.4309 10.1524V9.8516C13.4309 9.40775 13.471 9.0107 13.5513 8.66043C13.6315 8.31016 13.7439 8.01203 13.8883 7.76604C14.0327 7.51738 14.2048 7.32754 14.4045 7.19652C14.606 7.06551 14.8272 7 15.0679 7C15.3122 7 15.5342 7.06551 15.7339 7.19652C15.9336 7.32754 16.1057 7.51738 16.2502 7.76604C16.3964 8.01203 16.5087 8.31016 16.5872 8.66043C16.6674 9.0107 16.7076 9.40775 16.7076 9.8516ZM15.964 10.1524V9.84358C15.964 9.5254 15.9443 9.24599 15.9051 9.00535C15.8659 8.76203 15.8079 8.55749 15.7313 8.39171C15.6546 8.22594 15.5601 8.1016 15.4477 8.01872C15.3354 7.93316 15.2088 7.89037 15.0679 7.89037C14.9252 7.89037 14.7986 7.93316 14.6881 8.01872C14.5793 8.1016 14.4866 8.22594 14.4099 8.39171C14.3332 8.55749 14.2744 8.76203 14.2334 9.00535C14.1941 9.24599 14.1745 9.5254 14.1745 9.84358V10.1524C14.1745 10.4679 14.1941 10.7473 14.2334 10.9906C14.2744 11.234 14.3332 11.4398 14.4099 11.6083C14.4884 11.7741 14.5829 11.8997 14.6934 11.9853C14.804 12.0709 14.9306 12.1136 15.0732 12.1136C15.2159 12.1136 15.3425 12.0709 15.4531 11.9853C15.5636 11.8997 15.6564 11.7741 15.7313 11.6083C15.8079 11.4398 15.8659 11.234 15.9051 10.9906C15.9443 10.7473 15.964 10.4679 15.964 10.1524Z" fill="#1D9A18"/>
</svg>
