<svg xmlns="http://www.w3.org/2000/svg" width="40" height="40" viewBox="0 0 40 40">
    <defs>
        <style>
            .cls-3{fill:#0e90a8}.cls-4{fill:#00778d}.cls-6{fill:#005e6f}
        </style>
    </defs>
    <g id="Group_13323" transform="translate(-255 -1395)">
        <rect id="Rectangle_2777" width="40" height="40" fill="#f5f6f7" rx="4" transform="translate(255 1395)"/>
        <g id="Group_12618" transform="translate(-348 -145)">
            <path id="Rectangle_2781" fill="none" d="M0 0H24V24H0z" transform="translate(611 1548)"/>
            <g id="suitcase" transform="translate(612 1518.912)">
                <g id="Group_12619" transform="translate(0 32.088)">
                    <path id="Path_4460" d="M175.6 33.043a4.232 4.232 0 0 0-.934-.5 6.878 6.878 0 0 0-4.925 0 4.233 4.233 0 0 0-.934.5.707.707 0 0 0-.278.562v2.006l.707.378.707-.378v-1.606a5.331 5.331 0 0 1 4.522 0v1.605l.707.378.707-.378V33.6a.707.707 0 0 0-.278-.562z" class="cls-3" transform="translate(-161.45 -32.088)"/>
                    <path id="Path_4463" d="M13.247 298.286v6.282a1.35 1.35 0 0 0 1.35 1.35H32.3a1.35 1.35 0 0 0 1.35-1.35v-6.282z" class="cls-3" transform="translate(-12.69 -287.1)"/>
                    <path id="Path_4464" d="M13.247 279.705v.781c1.122.891 4.087 2.62 10.2 2.62s9.079-1.729 10.2-2.62v-.786h-20.4z" class="cls-4" transform="translate(-12.69 -269.3)"/>
                    <path id="Path_4465" fill="#14a1ba" d="M.5 119.717c1.075.875 4.036 2.667 10.259 2.667s9.184-1.791 10.259-2.667a2.255 2.255 0 0 0 .5-1.426v-3.772a1.35 1.35 0 0 0-1.35-1.35H1.35a1.35 1.35 0 0 0-1.35 1.35v3.772a2.255 2.255 0 0 0 .5 1.426z" transform="translate(0 -109.762)"/>
                    <path id="Path_4466" d="M21.016 236.125c-1.075.875-4.036 2.667-10.259 2.667S1.573 237 .5 236.125a1.35 1.35 0 0 1-.5-1.047v.781a1.35 1.35 0 0 0 .5 1.047c1.075.875 4.036 2.667 10.259 2.667s9.184-1.792 10.259-2.667a1.35 1.35 0 0 0 .5-1.047v-.781a1.35 1.35 0 0 1-.502 1.047z" class="cls-4" transform="translate(0 -226.548)"/>
                    <path id="Path_4467" d="M227.162 307.773c.7 0 1.265-.519 1.265-1.643v-.767a.45.45 0 0 0-.45-.45h-1.629a.45.45 0 0 0-.45.45v.767c.002 1.124.565 1.643 1.264 1.643z" class="cls-6" transform="translate(-216.405 -293.449)"/>
                    <path id="Path_4468" d="M227.162 335.139a1.265 1.265 0 0 1-1.265-1.265v.781a1.265 1.265 0 1 0 2.53 0v-.781a1.265 1.265 0 0 1-1.265 1.265z" class="cls-6" transform="translate(-216.405 -321.193)"/>
                </g>
            </g>
        </g>
    </g>
</svg>
