<svg xmlns="http://www.w3.org/2000/svg" width="30" height="24" viewBox="0 0 30 24">
    <defs>
        <style>
            .cls-2{fill:#4b7ea5}.cls-5{fill:#ff7eb8}.cls-6{fill:#2a719b}
        </style>
    </defs>
    <g id="Billed_man_day" transform="translate(2919.5 1447.676)">
        <path id="Path_4808" fill="#d3ebfa" d="M18.837 3.385c-3.205 0-9.782-6.357-13.769-4.98S-.86 1.493.73 8.712a10.816 10.816 0 0 0 9.563 8.805c7.955.001 14.221-14.132 8.544-14.132z" transform="rotate(-8 -11773.975 20126.587)"/>
        <g id="invoice" transform="translate(-2954.274 -1443)">
            <g id="Group_13333" transform="translate(41.684 .41)">
                <path id="Path_4801" d="M126.7 11.679v12.926a.211.211 0 0 1-.2.223.235.235 0 0 1-.177-.059l-1.476-1.269a4.681 4.681 0 0 0-1.313 0l-.514.431V14.08a1.289 1.289 0 0 0-1.34-1.231h-7.264v-1.17a1.289 1.289 0 0 1 1.34-1.231h9.6a1.289 1.289 0 0 1 1.344 1.231z" class="cls-2" transform="translate(-111.953 -10.448)"/>
                <path id="Path_4802" fill="#8ebad8" d="M62.987 82.655v3.1a.205.205 0 0 1-.349.164l-1.354-1.272a.246.246 0 0 0-.287 0L59.376 86.1a.205.205 0 0 1-.287 0l-1.6-1.457a.246.246 0 0 0-.287 0L55.6 86.1a.205.205 0 0 1-.287 0l-1.621-1.457a.246.246 0 0 0-.287 0l-1.354 1.272a.205.205 0 0 1-.349-.164V72.806a1.231 1.231 0 0 1 1.231-1.231h8.823a1.231 1.231 0 0 1 1.231 1.231v9.849z" transform="translate(-51.702 -69.174)"/>
            </g>
            <g id="Group_13334" transform="translate(41.274)">
                <path id="Path_4803" d="M49.214 76.535a.657.657 0 0 1-.41-.164l-1.477-1.334-1.477 1.334a.616.616 0 0 1-.821 0l-1.5-1.334-1.229 1.129a.6.6 0 0 1-.657.123.636.636 0 0 1-.369-.575V62.767a1.641 1.641 0 0 1 1.641-1.641h8.823a1.641 1.641 0 0 1 1.641 1.641v12.947a.636.636 0 0 1-.369.575.6.6 0 0 1-.657-.123l-1.231-1.128-1.5 1.334a.656.656 0 0 1-.408.163zm-1.888-2.38a.554.554 0 0 1 .41.164l1.477 1.313 1.5-1.334a.6.6 0 0 1 .821.021l1.026.944v-12.5a.821.821 0 0 0-.821-.821h-8.824a.821.821 0 0 0-.821.821v12.5l1.026-.944a.6.6 0 0 1 .821-.021l1.5 1.334 1.475-1.332a.636.636 0 0 1 .411-.145z" class="cls-2" transform="translate(-41.274 -58.725)"/>
                <path id="Path_4804" fill="#fff" d="M123.2 157.556h-2.626a.41.41 0 1 1 0-.821h2.626a.41.41 0 1 1 0 .821z" transform="translate(-117.066 -150.58)"/>
                <path id="Path_4805" d="M125.662 225.474h-5.088a.41.41 0 1 1 0-.821h5.088a.41.41 0 1 1 0 .821z" class="cls-5" transform="translate(-117.065 -215.83)"/>
                <path id="Path_4806" d="M125.662 293.392h-5.088a.41.41 0 1 1 0-.821h5.088a.41.41 0 1 1 0 .821z" class="cls-5" transform="translate(-117.065 -281.081)"/>
                <path id="Path_4807" d="M116.406 15.183a.6.6 0 0 1-.444-.164l-2.333-1.128-.378.308-.578-.616.511-.431a.683.683 0 0 1 .889.021l2.111.944V1.641a.857.857 0 0 0-.884-.82h-9.551a.857.857 0 0 0-.889.821v1.17h-.889V1.641A1.713 1.713 0 0 1 105.744 0h9.556a1.713 1.713 0 0 1 1.777 1.641v12.927a.635.635 0 0 1-.4.575.6.6 0 0 1-.271.04z" class="cls-2" transform="translate(-101.505)"/>
            </g>
        </g>
        <path id="Path_4809" d="M60.226 417.315a.179.179 0 0 1-.179-.179.214.214 0 0 0-.214-.214.179.179 0 0 1 0-.357.214.214 0 0 0 .214-.214.179.179 0 1 1 .357 0 .214.214 0 0 0 .214.214.179.179 0 1 1 0 .357.214.214 0 0 0-.214.214.179.179 0 0 1-.178.179z" class="cls-5" transform="translate(-2975.532 -1853.561)"/>
        <path id="Path_4810" d="M87.833 40.844a.179.179 0 0 1-.126-.3l.357-.357a.179.179 0 0 1 .252.252l-.357.357a.178.178 0 0 1-.126.048z" class="cls-6" transform="translate(-3000.881 -1482.18)"/>
        <path id="Path_4811" d="M87.833 40.844a.179.179 0 0 1-.126-.3l.357-.357a.179.179 0 0 1 .252.252l-.357.357a.178.178 0 0 1-.126.048z" class="cls-6" transform="translate(-2984.881 -1475.404)"/>
        <path id="Rectangle_3444" fill="none" d="M0 0H30V24H0z" transform="translate(-2919.5 -1447.676)"/>
    </g>
</svg>
