<svg xmlns="http://www.w3.org/2000/svg" width="29.242" height="33.64" viewBox="0 0 29.242 33.64">
  <defs>
    <style>
      .cls-1 {
        fill: #24424d;
      }
    </style>
  </defs>
  <g id="writing_1_" data-name="writing (1)" transform="translate(-26.57 0)">
    <g id="Group_139" data-name="Group 139" transform="translate(26.57)">
      <g id="Group_138" data-name="Group 138">
        <path id="Path_136" data-name="Path 136" class="cls-1" d="M122.622,201.314A1.314,1.314,0,0,0,121.308,200H107.773a1.314,1.314,0,0,0,0,2.628h13.535A1.314,1.314,0,0,0,122.622,201.314Z" transform="translate(-101.21 -186.86)"/>
        <path id="Path_137" data-name="Path 137" class="cls-1" d="M107.773,280a1.314,1.314,0,0,0,0,2.628h8.22a1.314,1.314,0,0,0,0-2.628Z" transform="translate(-101.21 -261.603)"/>
        <path id="Path_138" data-name="Path 138" class="cls-1" d="M36.221,31.011H31.826A2.631,2.631,0,0,1,29.2,28.383V5.256a2.631,2.631,0,0,1,2.628-2.628H47.982A2.631,2.631,0,0,1,50.61,5.256v8.081a1.314,1.314,0,1,0,2.628,0V5.256A5.262,5.262,0,0,0,47.982,0H31.826A5.262,5.262,0,0,0,26.57,5.256V28.383a5.262,5.262,0,0,0,5.256,5.256h4.395a1.314,1.314,0,1,0,0-2.628Z" transform="translate(-26.57)"/>
        <path id="Path_140" data-name="Path 140" class="cls-1" d="M121.308,120H107.773a1.314,1.314,0,0,0,0,2.628h13.535a1.314,1.314,0,0,0,0-2.628Z" transform="translate(-101.21 -112.116)"/>
        <path id="Path_141" data-name="Path 141" class="cls-1" d="M143.472,136.494a1.68,1.68,0,0,0-2.376,0l-7.213,7.212-3.013-3.012a1.68,1.68,0,0,0-2.376,2.376l4.2,4.2a1.679,1.679,0,0,0,2.376,0l8.4-8.4A1.68,1.68,0,0,0,143.472,136.494Z" transform="translate(-114.721 -116.291)"/>
      </g>
    </g>
  </g>
</svg>
