<svg xmlns="http://www.w3.org/2000/svg" width="32" height="40" viewBox="0 0 32 40">
    <defs>
        <style>
            .cls-1{fill:#9299b0}
        </style>
    </defs>
    <g id="undraw_personal_file_222m" transform="translate(-396.531 -18.589)">
        <rect id="Rectangle_5387" width="32" height="40" class="cls-1" rx="3" transform="translate(396.531 18.589)"/>
        <rect id="Rectangle_5388" width="28.141" height="37.359" fill="#fff" rx="3" transform="translate(398.591 20.193)"/>
        <rect id="Rectangle_5389" width="17.24" height="1.3" class="cls-1" rx=".65" transform="translate(401.748 22.756)"/>
        <rect id="Rectangle_5391" width="12.849" height="1.3" class="cls-1" rx=".65" transform="translate(401.654 25.819)"/>
        <rect id="Rectangle_5407" width="19.138" height="4.457" class="cls-1" rx="1" transform="translate(401.861 29.994)"/>
        <rect id="Rectangle_5395" width="19.252" height="1.3" class="cls-1" rx=".65" transform="translate(401.861 37.297)"/>
        <rect id="Rectangle_5397" width="19.252" height="1.3" class="cls-1" rx=".65" transform="translate(401.861 40.792)"/>
        <rect id="Rectangle_5399" width="13.252" height="1.3" class="cls-1" rx=".65" transform="translate(401.861 44.248)"/>
        <rect id="Rectangle_5401" width="19.252" height="1.3" class="cls-1" rx=".65" transform="translate(401.861 47.702)"/>
        <rect id="Rectangle_5403" width="19.252" height="1.3" class="cls-1" rx=".65" transform="translate(401.861 51.158)"/>
        <rect id="Rectangle_5405" width="19.252" height="1.3" class="cls-1" rx=".65" transform="translate(401.861 54.535)"/>
        <path id="Path_8676" d="M523.176 374.369a8.914 8.914 0 0 0-9.025 8.8 2.61 2.61 0 0 1-2.643 2.577h-4.383a7.767 7.767 0 0 0-7.864 7.667h20.316l2.233-1.361-.324-1.471z" class="cls-1" transform="translate(-94.683 -334.859)"/>
    </g>
</svg>
