<svg xmlns="http://www.w3.org/2000/svg" width="22.451" height="27.429" viewBox="0 0 22.451 27.429">
  <defs>
    <style>
      .cls-1 {
        fill: #4880ff;
      }
    </style>
  </defs>
  <g id="file" transform="translate(-86.9)">
    <path id="Path_422" data-name="Path 422" class="cls-1" d="M215.465,108.4h-.8v19.7a2.378,2.378,0,0,1-2.375,2.375H197.7v.73a1.516,1.516,0,0,0,1.515,1.515h16.247a1.516,1.516,0,0,0,1.515-1.515V109.915A1.513,1.513,0,0,0,215.465,108.4Z" transform="translate(-107.626 -105.295)"/>
    <path id="Path_423" data-name="Path 423" class="cls-1" d="M96.536,24.324h8.123a1.516,1.516,0,0,0,1.515-1.515V1.515A1.516,1.516,0,0,0,104.659,0H93.835V.5a1.471,1.471,0,0,1,.009.16v4.15a2.136,2.136,0,0,1-2.134,2.134h-4.15c-.043,0-.089,0-.132-.006H86.9V22.809a1.516,1.516,0,0,0,1.515,1.515h8.121Zm.306-5.15h-5.3a.716.716,0,0,1,0-1.432h5.3a.716.716,0,1,1,0,1.432Zm5.3-3.655h-10.6a.716.716,0,0,1,0-1.432h10.6a.716.716,0,1,1,0,1.432Zm-10.6-5.313h10.6a.716.716,0,1,1,0,1.432h-10.6a.716.716,0,0,1,0-1.432Z" transform="translate(0)"/>
    <path id="Path_424" data-name="Path 424" class="cls-1" d="M88.186,6.864h4.162a1.272,1.272,0,0,0,1.26-1.26V1.439A.638.638,0,0,0,92.967.8a.621.621,0,0,0-.447.189L87.734,5.775A.638.638,0,0,0,88.186,6.864Z" transform="translate(-0.627 -0.777)"/>
  </g>
</svg>
