<svg xmlns="http://www.w3.org/2000/svg" width="26" height="26" viewBox="0 0 26 26">
    <defs>
        <style>
            .cls-2{fill:#ff7eb8}.cls-3{fill:#2a719b}.cls-4{fill:none}.cls-5{fill:#4e89ad}.cls-11{stroke:none}
        </style>
    </defs>
    <g id="Booking_Request" transform="translate(-1357.214 -322.214)">
        <g id="Group_11979" transform="translate(1357 322)">
            <g id="Group_9859">
                <g id="Group_9871">
                    <path id="Path_2687" fill="#d3ebfa" d="M14.786 2.056C10.749 2.056 7.976 0 6.031 0S0 1.1 0 9.9s5.5 10.089 7.636 10.089c10.02.001 14.3-17.933 7.15-17.933z" transform="rotate(180 10.949 11.386)"/>
                    <path id="Path_1742" d="M395.8 45.13a.2.2 0 0 1 .2.2.243.243 0 0 0 .243.243.2.2 0 0 1 0 .4.243.243 0 0 0-.243.243.2.2 0 1 1-.4 0 .243.243 0 0 0-.243-.243.2.2 0 0 1 0-.4.243.243 0 0 0 .243-.243.2.2 0 0 1 .2-.2z" class="cls-2" transform="translate(-391.676 -38.192)"/>
                    <path id="Path_2578" d="M60.3 416.172a.2.2 0 0 1 .2.2.243.243 0 0 0 .243.243.2.2 0 0 1 0 .4.243.243 0 0 0-.243.243.2.2 0 1 1-.4 0 .243.243 0 0 0-.243-.243.2.2 0 1 1 0-.4.243.243 0 0 0 .243-.243.2.2 0 0 1 .2-.2z" class="cls-2" transform="translate(-38.781 -398.906)"/>
                    <path id="Path_1744" d="M451.479 82.339a.2.2 0 0 1 .143.345l-.4.4a.2.2 0 0 1-.286-.286l.4-.4a.2.2 0 0 1 .143-.059z" class="cls-3" transform="translate(-446.739 -73.091)"/>
                    <path id="Path_1745" d="M88.261 40.13a.2.2 0 0 1 .143.345l-.4.4a.2.2 0 0 1-.286-.286l.4-.4a.2.2 0 0 1 .143-.059z" class="cls-3" transform="translate(-66.076 -20.974)"/>
                    <path id="Path_2720" d="M88.261 40.13a.2.2 0 0 1 .143.345l-.4.4a.2.2 0 0 1-.286-.286l.4-.4a.2.2 0 0 1 .143-.059z" class="cls-3" transform="translate(-82.769 -21.653)"/>
                    <path id="Rectangle_2677" d="M0 0H26V26H0z" class="cls-4" transform="translate(.214 .214)"/>
                </g>
            </g>
        </g>
        <g id="Group_12025" transform="translate(1363.727 328.76)">
            <g id="Group_11977" transform="translate(7.367 8.763)">
                <path id="Path_4060" d="M9.819 15.583a5.777 5.777 0 0 1 1.165-3.483 13.286 13.286 0 0 1 3.835-2.858v6.344z" class="cls-5" transform="translate(-9.817 -9.239)"/>
            </g>
            <path id="Path_4203" d="M3.491 6.62V0H.98l-.4.188L.5.87v13.8l.159.736.916.313h10.933c-1-.914-.253-3.474-.412-4.613-3.314-1.1-8.604-1.945-8.605-4.486zm0 0" class="cls-5" transform="translate(-.496)"/>
        </g>
        <path id="Path_4042" fill="#4e89ad" stroke="#2e6089" stroke-width="1.5px" d="M41.742 45.83H31.136A1.136 1.136 0 0 1 30 44.694V31.058a1.136 1.136 0 0 1 1.136-1.136c2.792 0 2.672-.234 2.652 1.085v-.419h5.3V30.3a.379.379 0 0 1 .379-.379h2.273a1.136 1.136 0 0 1 1.136 1.136v13.637a1.136 1.136 0 0 1-1.134 1.136z" transform="translate(1333.421 298.565)"/>
        <path id="Path_4204" d="M45.91 86.758h-3.555a.38.38 0 0 1 0-.758h3.555a.38.38 0 0 1 0 .758z" class="cls-3" transform="translate(1325.527 246.043)"/>
        <path id="Path_4205" d="M44.463 86.758h-2.239c-.124 0-.224-.17-.224-.379s.1-.379.224-.379h2.239c.124 0 .224.17.224.379s-.1.379-.224.379z" class="cls-3" transform="translate(1325.527 247.453)"/>
        <path id="Path_4048" d="M72.9 52.634l-.732-.731a.39.39 0 0 1 .55-.552l.456.456.944-.942a.39.39 0 0 1 .55.552l-1.217 1.217a.39.39 0 0 1-.552 0z" class="cls-2" transform="translate(1300.47 280.715)"/>
        <path id="Path_4049" d="M73.186 69.271l-.894-.9a.477.477 0 0 1 .672-.663l.558.558 1.154-1.152a.477.477 0 0 1 .672.675l-1.488 1.49a.477.477 0 0 1-.675-.012z" class="cls-2" transform="translate(1298.016 269.438)"/>
        <path id="Path_4374" fill="#fff" d="M.588.126L9.15.137c.336 0 .587.411.587 1.039v10.243c0 .629-.272 1.138-.609 1.138L4.806 8l-4.2 4.552c-.336 0-.609-.51-.609-1.138V1.176C0 .548.252.126.588.126z" transform="translate(1365.346 328.916)"/>
        <path id="Path_4375" d="M73.126 53.136l-.928-.928a.495.495 0 0 1 .7-.7l.579.579 1.2-1.2a.495.495 0 0 1 .7.7l-1.544 1.544a.495.495 0 0 1-.7 0z" class="cls-2" transform="translate(1298.504 280.456)"/>
        <path id="Path_4376" d="M44.587 70.788h-2.352c-.13 0-.235-.176-.235-.394s.105-.394.235-.394h2.351c.13 0 .235.176.235.394s-.105.394-.234.394z" class="cls-3" transform="translate(1324.6 261.53)"/>
        <path id="Path_4377" d="M44.587 70.788h-2.352c-.13 0-.235-.176-.235-.394s.105-.394.235-.394h2.351c.13 0 .235.176.235.394s-.105.394-.234.394z" class="cls-3" transform="translate(1324.6 263.616)"/>
        <g id="Rectangle_2614" fill="#73aacf" stroke="#2e6089" transform="translate(1366.67 327.564)">
            <rect width="6.579" height="2.35" class="cls-11" rx="1.175"/>
            <rect width="5.579" height="1.35" x=".5" y=".5" class="cls-4" rx=".675"/>
        </g>
        <g id="Group_12585" transform="translate(1368.128 333.823)">
            <g id="Group_12589">
                <g id="Ellipse_700" fill="#fff" stroke="#2e6089" transform="translate(.086 .391)">
                    <circle cx="6" cy="6" r="6" class="cls-11"/>
                    <circle cx="6" cy="6" r="5.5" class="cls-4"/>
                </g>
                <path id="Path_4354" fill="#c2e1f4" d="M153.646 148.575a4.575 4.575 0 1 1-4.575-4.575 4.575 4.575 0 0 1 4.575 4.575zm0 0" transform="translate(-142.758 -142.261)"/>
                <path id="question_1_" d="M302.922 5.291a.519.519 0 0 0-.519.519.519.519 0 0 0 .519.519.519.519 0 0 0 .519-.519.519.519 0 0 0-.519-.519zm.544-1.141v-.033a.411.411 0 0 1 .245-.381 1.943 1.943 0 0 0 1.182-1.79v-.022a1.944 1.944 0 0 0-3.893.023.519.519 0 1 0 1.037 0 .907.907 0 0 1 1.815 0v.015a.907.907 0 0 1-.552.82 1.446 1.446 0 0 0-.875 1.335v.033a.519.519 0 1 0 1.037 0z" class="cls-2" transform="translate(-296.893 3.262)"/>
            </g>
        </g>
    </g>
</svg>
