<svg xmlns="http://www.w3.org/2000/svg" width="26" height="26" viewBox="0 0 26 26">
    <defs>
        <style>
            .cls-2{fill:#ff7eb8}.cls-3{fill:#2a719b}.cls-4{fill:none}.cls-5{fill:#4e89ad}.cls-12{stroke:none}
        </style>
    </defs>
    <g id="Booking_Request" transform="translate(-1357.205 -322.204)">
        <g id="Group_11979" transform="translate(1357 322)">
            <g id="Group_9859">
                <g id="Group_9871">
                    <path id="Path_2687" fill="#d3ebfa" d="M14.775 2.055C10.741 2.055 7.97 0 6.026 0S0 1.1 0 9.892s5.492 10.083 7.63 10.083c10.013 0 14.289-17.92 7.145-17.92z" transform="rotate(180 10.941 11.377)"/>
                    <path id="Path_1742" d="M395.8 45.13a.2.2 0 0 1 .2.2.243.243 0 0 0 .243.243.2.2 0 0 1 0 .4.243.243 0 0 0-.243.243.2.2 0 1 1-.4 0 .243.243 0 0 0-.243-.243.2.2 0 0 1 0-.4.243.243 0 0 0 .243-.243.2.2 0 0 1 .2-.2z" class="cls-2" transform="translate(-391.678 -38.197)"/>
                    <path id="Path_2578" d="M60.3 416.172a.2.2 0 0 1 .2.2.243.243 0 0 0 .243.243.2.2 0 0 1 0 .4.243.243 0 0 0-.243.243.2.2 0 1 1-.4 0 .243.243 0 0 0-.243-.243.2.2 0 1 1 0-.4.243.243 0 0 0 .243-.243.2.2 0 0 1 .2-.2z" class="cls-2" transform="translate(-38.796 -398.918)"/>
                    <path id="Path_1744" d="M451.479 82.339a.2.2 0 0 1 .143.345l-.4.4a.2.2 0 0 1-.286-.286l.4-.4a.2.2 0 0 1 .143-.059z" class="cls-3" transform="translate(-446.742 -73.098)"/>
                    <path id="Path_1745" d="M88.261 40.13a.2.2 0 0 1 .143.345l-.4.4a.2.2 0 0 1-.286-.286l.4-.4a.2.2 0 0 1 .143-.059z" class="cls-3" transform="translate(-66.092 -20.988)"/>
                    <path id="Path_2720" d="M88.261 40.13a.2.2 0 0 1 .143.345l-.4.4a.2.2 0 0 1-.286-.286l.4-.4a.2.2 0 0 1 .143-.059z" class="cls-3" transform="translate(-82.773 -21.666)"/>
                    <path id="Rectangle_2677" d="M0 0H26V26H0z" class="cls-4" transform="translate(.204 .204)"/>
                </g>
            </g>
        </g>
        <g id="Group_12025" transform="translate(1363.722 328.755)">
            <g id="Group_11977" transform="translate(7.361 8.756)">
                <path id="Path_4060" d="M9.819 15.579a5.773 5.773 0 0 1 1.164-3.484 13.276 13.276 0 0 1 3.832-2.855v6.339z" class="cls-5" transform="translate(-9.817 -9.239)"/>
            </g>
            <path id="Path_4203" d="M3.489 6.615V0H.98l-.4.188L.5.87v13.793l.159.735.915.313H12.5c-1-.913-.253-3.471-.412-4.609C8.776 10 3.489 9.155 3.489 6.615zm0 0" class="cls-5" transform="translate(-.496)"/>
        </g>
        <path id="Path_4042" fill="#4e89ad" stroke="#2e6089" stroke-width="1.5px" d="M41.733 45.819h-10.6A1.135 1.135 0 0 1 30 44.683V31.057a1.135 1.135 0 0 1 1.135-1.135c2.79 0 2.67-.234 2.65 1.084v-.419h5.3V30.3a.378.378 0 0 1 .378-.378h2.271a1.135 1.135 0 0 1 1.135 1.135v13.626a1.135 1.135 0 0 1-1.136 1.136z" transform="translate(1333.416 298.56)"/>
        <path id="Path_4204" d="M45.907 86.757h-3.552a.379.379 0 0 1 0-.757h3.552a.379.379 0 0 1 0 .757z" class="cls-3" transform="translate(1325.519 246.035)"/>
        <path id="Path_4205" d="M44.461 86.757h-2.237c-.124 0-.224-.169-.224-.378s.1-.378.224-.378h2.238c.124 0 .224.169.224.378s-.101.378-.225.378z" class="cls-3" transform="translate(1325.519 247.444)"/>
        <path id="Path_4048" d="M72.9 52.633l-.731-.731a.39.39 0 0 1 .55-.552l.456.456.943-.941a.39.39 0 0 1 .55.552l-1.216 1.216a.39.39 0 0 1-.552 0z" class="cls-2" transform="translate(1300.458 280.708)"/>
        <path id="Path_4049" d="M73.185 69.269l-.894-.9a.477.477 0 0 1 .672-.662l.558.558 1.153-1.151a.477.477 0 0 1 .672.674l-1.486 1.493a.477.477 0 0 1-.674-.012z" class="cls-2" transform="translate(1298.006 269.427)"/>
        <path id="Path_4374" fill="#fff" d="M.588.126l8.555.011c.336 0 .587.41.587 1.039v10.235c0 .628-.272 1.137-.608 1.137L4.8 8 .608 12.548c-.336 0-.608-.509-.608-1.137V1.176C0 .548.252.126.588.126z" transform="translate(1365.34 328.911)"/>
        <path id="Path_4375" d="M73.125 53.134l-.927-.927a.494.494 0 0 1 .7-.7l.579.579 1.2-1.194a.494.494 0 0 1 .7.7l-1.543 1.543a.494.494 0 0 1-.7 0z" class="cls-2" transform="translate(1298.494 280.449)"/>
        <path id="Path_4376" d="M44.585 70.787h-2.35c-.13 0-.235-.176-.235-.393s.105-.393.235-.393h2.35c.13 0 .235.176.235.393s-.106.393-.235.393z" class="cls-3" transform="translate(1324.593 261.523)"/>
        <path id="Path_4377" d="M44.585 70.787h-2.35c-.13 0-.235-.176-.235-.393s.105-.393.235-.393h2.35c.13 0 .235.176.235.393s-.106.393-.235.393z" class="cls-3" transform="translate(1324.593 263.608)"/>
        <g id="Rectangle_2614" fill="#73aacf" stroke="#2e6089" transform="translate(1366.662 327.56)">
            <rect width="6.575" height="2.348" class="cls-12" rx="1.174"/>
            <rect width="5.575" height="1.348" x=".5" y=".5" class="cls-4" rx=".674"/>
        </g>
        <g id="Group_12585" transform="translate(1368.12 333.814)">
            <g id="Group_12589">
                <g id="Ellipse_700" fill="#fff" stroke="#2e6089" transform="translate(.085 .39)">
                    <circle cx="6" cy="6" r="6" class="cls-12"/>
                    <circle cx="6" cy="6" r="5.5" class="cls-4"/>
                </g>
                <path id="Path_4354" fill="#c2e1f4" d="M153.639 148.572a4.572 4.572 0 1 1-4.571-4.572 4.572 4.572 0 0 1 4.571 4.572zm0 0" transform="translate(-142.759 -142.263)"/>
                <path id="Path_4378" fill="#ff7eb8" stroke="#ff7eb8" stroke-width="0.6px" d="M128.783 155.016a.174.174 0 0 0-.246 0l-2.827 2.827-.861-.86a.174.174 0 0 0-.246 0l-.493.49a.174.174 0 0 0 0 .246l1.476 1.476a.174.174 0 0 0 .246 0l3.442-3.442a.174.174 0 0 0 0-.246zm-3.073 3.811l-1.23-1.23.246-.245.861.86a.174.174 0 0 0 .246 0l2.827-2.827.246.246zm0 0" transform="translate(-120.398 -150.535)"/>
            </g>
        </g>
    </g>
</svg>
