<svg xmlns="http://www.w3.org/2000/svg" width="72" height="72" viewBox="0 0 72 72">
    <defs>
        <style>
            .cls-3{fill:#ff7eb8}.cls-4{fill:#2a719b}.cls-5{fill:none}.cls-6{fill:#4e89ad}.cls-12{stroke:none}
        </style>
    </defs>
    <g id="Group_12613" transform="translate(-358 -371)">
        <circle id="Ellipse_666" cx="36" cy="36" r="36" fill="#f2f4f6" transform="translate(358 371)"/>
        <g id="Booking_Request" transform="translate(-982 66)">
            <g id="Group_11979" transform="translate(1362 330)">
                <g id="Group_9859">
                    <g id="Group_9871">
                        <path id="Path_2687" fill="#d3ebfa" d="M21.26 2.957C15.455 2.957 11.469 0 8.672 0S0 1.581 0 14.233s7.9 14.509 10.979 14.509C25.386 28.743 31.54 2.957 21.26 2.957z" transform="rotate(180 13.243 12.371)"/>
                        <path id="Path_1742" d="M396.084 45.13a.291.291 0 0 1 .291.291.35.35 0 0 0 .349.349.291.291 0 0 1 0 .582.35.35 0 0 0-.349.349.291.291 0 1 1-.582 0 .349.349 0 0 0-.349-.349.291.291 0 0 1 0-.582.349.349 0 0 0 .349-.349.291.291 0 0 1 .291-.291z" class="cls-3" transform="translate(-395.153 -43.154)"/>
                        <path id="Path_2578" d="M60.586 416.172a.291.291 0 0 1 .291.291.349.349 0 0 0 .349.349.291.291 0 0 1 0 .582.349.349 0 0 0-.349.349.291.291 0 1 1-.582 0 .349.349 0 0 0-.349-.349.291.291 0 1 1 0-.582.349.349 0 0 0 .349-.349.291.291 0 0 1 .291-.291z" class="cls-3" transform="translate(-34.641 -399.345)"/>
                        <path id="Path_1744" d="M451.745 82.339a.291.291 0 0 1 .206.5l-.582.582a.291.291 0 0 1-.411-.411l.582-.582a.29.29 0 0 1 .205-.089z" class="cls-4" transform="translate(-449.93 -77.042)"/>
                        <path id="Path_1745" d="M88.527 40.13a.291.291 0 0 1 .206.5l-.582.582a.291.291 0 0 1-.411-.411l.582-.582a.29.29 0 0 1 .205-.089z" class="cls-4" transform="translate(-61.628 -20.587)"/>
                        <path id="Path_2720" d="M88.527 40.13a.291.291 0 0 1 .206.5l-.582.582a.291.291 0 0 1-.411-.411l.582-.582a.29.29 0 0 1 .205-.089z" class="cls-4" transform="translate(-85.63 -21.562)"/>
                        <path id="Rectangle_2677" d="M0 0H38V38H0z" class="cls-5" transform="translate(-5 -8)"/>
                    </g>
                </g>
            </g>
            <g id="Group_12025" transform="translate(1366.673 331.72)">
                <g id="Group_11977" transform="translate(1.599 .103)">
                    <path id="Path_4060" d="M9.819 18.361a8.307 8.307 0 0 1 1.676-5.013 19.1 19.1 0 0 1 5.514-4.109v9.122z" class="cls-6" transform="translate(-.824 3.258)"/>
                </g>
                <path id="Path_4203" d="M4.8 9.519V0H1.192L.619.27.5 1.251V21.1l.228 1.058 1.317.45h15.722c-1.434-1.314-.364-4.994-.592-6.632C12.41 14.387 4.8 13.173 4.8 9.519zm0 0" class="cls-6" transform="translate(-.496)"/>
            </g>
            <path id="Path_4042" fill="#4e89ad" stroke="#2e6089" stroke-width="1.5px" d="M46.883 52.8H31.634A1.634 1.634 0 0 1 30 51.169V31.563a1.634 1.634 0 0 1 1.634-1.634c4.015 0 3.842-.337 3.813 1.56v-.6h7.625v-.414a.545.545 0 0 1 .545-.545h3.268a1.634 1.634 0 0 1 1.634 1.634v19.605a1.634 1.634 0 0 1-1.636 1.631z" transform="translate(1336.232 301.398)"/>
            <path id="Path_4204" d="M47.622 87.089h-5.111a.546.546 0 0 1 0-1.089h5.111a.546.546 0 0 1 0 1.089z" class="cls-4" transform="translate(1330.136 250.44)"/>
            <path id="Path_4205" d="M45.542 87.089h-3.22c-.178 0-.322-.244-.322-.545s.144-.545.322-.545h3.22c.178 0 .322.244.322.545s-.144.545-.322.545z" class="cls-4" transform="translate(1330.136 252.467)"/>
            <path id="Path_4048" d="M73.267 53.453L72.216 52.4a.561.561 0 0 1 .791-.794l.656.656 1.357-1.355a.561.561 0 0 1 .791.794l-1.75 1.75a.561.561 0 0 1-.794 0z" class="cls-3" transform="translate(1307.274 284.865)"/>
            <path id="Path_4049" d="M73.618 70.267l-1.286-1.289a.686.686 0 0 1 .967-.953l.8.8 1.66-1.656a.686.686 0 0 1 .967.97l-2.14 2.143a.686.686 0 0 1-.97-.017z" class="cls-3" transform="translate(1303.802 275.758)"/>
            <path id="Path_4374" fill="#fff" d="M.846.126l12.31.016c.483 0 .844.591.844 1.494v14.728c0 .9-.392 1.636-.875 1.636L6.91 11.455.875 18C.392 18 0 17.267 0 16.364V1.636C0 .733.363.126.846.126z" transform="translate(1369 332)"/>
            <path id="Path_4375" d="M73.589 54.175l-1.334-1.335a.712.712 0 0 1 1-1.007l.832.832 1.722-1.718a.712.712 0 0 1 1 1.007l-2.22 2.22a.712.712 0 0 1-1.007 0z" class="cls-3" transform="translate(1304.447 284.493)"/>
            <path id="Path_4376" d="M45.719 71.132h-3.381c-.187 0-.338-.253-.338-.566s.151-.566.338-.566h3.381c.187 0 .338.253.338.566s-.151.566-.338.566z" class="cls-4" transform="translate(1328.803 265.703)"/>
            <path id="Path_4377" d="M45.719 71.132h-3.381c-.187 0-.338-.253-.338-.566s.151-.566.338-.566h3.381c.187 0 .338.253.338.566s-.151.566-.338.566z" class="cls-4" transform="translate(1328.803 268.703)"/>
            <g id="Rectangle_2614" fill="#73aacf" stroke="#2e6089" transform="translate(1370.903 330)">
                <rect width="9.46" height="3.379" class="cls-12" rx="1.689"/>
                <rect width="8.46" height="2.379" x=".5" y=".5" class="cls-5" rx="1.189"/>
            </g>
            <g id="Group_12585" transform="translate(713.84 -1247.159)">
                <g id="Group_12589" transform="translate(-1.715 -1.715)">
                    <g id="Ellipse_700" fill="#fff" stroke="#2e6089" transform="translate(660.875 1587.874)">
                        <circle cx="9" cy="9" r="9" class="cls-12"/>
                        <circle cx="9" cy="9" r="8.5" class="cls-5"/>
                    </g>
                    <path id="Path_4354" fill="#c2e1f4" d="M157.653 150.578a6.578 6.578 0 1 1-6.579-6.578 6.578 6.578 0 0 1 6.579 6.578zm0 0" transform="translate(518.878 1446.374)"/>
                    <path id="question_1_" d="M303.762 7.608a.746.746 0 0 0-.746.746.746.746 0 0 0 .746.746.746.746 0 0 0 .746-.746.746.746 0 0 0-.746-.746zm.783-1.64v-.049a.59.59 0 0 1 .352-.548A2.794 2.794 0 0 0 306.6 2.8v-.032a2.8 2.8 0 0 0-5.6.032.746.746 0 1 0 1.491 0 1.3 1.3 0 0 1 2.609 0v.022A1.3 1.3 0 0 1 304.311 4a2.079 2.079 0 0 0-1.257 1.92v.048a.746.746 0 1 0 1.491 0z" class="cls-3" transform="translate(365.781 1592.565)"/>
                </g>
            </g>
        </g>
    </g>
</svg>
