<svg xmlns="http://www.w3.org/2000/svg" width="38" height="38" viewBox="0 0 38 38">
    <defs>
        <linearGradient id="linear-gradient" x1="-.743" x2="-.44" y1=".083" y2=".185" gradientUnits="objectBoundingBox">
            <stop offset="0" stop-color="#f3f7ff"/>
            <stop offset="1" stop-color="#cdd9ff"/>
        </linearGradient>
        <style>
            .cls-2{fill:#ff7eb8}.cls-3{fill:#2a719b}.cls-9{fill:none}
        </style>
    </defs>
    <g id="Bookings" transform="translate(-1380 -531)">
        <g id="Group_12027" transform="translate(23 284)">
            <g id="Group_12016" transform="translate(1362 254)">
                <g id="Group_11979">
                    <g id="Group_9859">
                        <g id="Group_9871">
                            <path id="Path_2687" fill="#d3ebfa" d="M22.1 3.074C16.067 3.074 11.923 0 9.015 0S0 1.644 0 14.8s8.216 15.08 11.414 15.08C26.391 29.881 32.789 3.074 22.1 3.074z" transform="rotate(180 13.768 12.94)"/>
                            <path id="Path_1742" d="M396.121 45.13a.3.3 0 0 1 .3.3.363.363 0 0 0 .363.363.3.3 0 0 1 0 .6.363.363 0 0 0-.363.363.3.3 0 1 1-.6 0 .363.363 0 0 0-.363-.363.3.3 0 0 1 0-.6.363.363 0 0 0 .363-.363.3.3 0 0 1 .3-.3z" class="cls-2" transform="translate(-395.153 -43.075)"/>
                            <path id="Path_2578" d="M60.623 416.172a.3.3 0 0 1 .3.3.363.363 0 0 0 .363.363.3.3 0 0 1 0 .6.363.363 0 0 0-.363.363.3.3 0 1 1-.6 0 .363.363 0 0 0-.363-.363.3.3 0 0 1 0-.6.363.363 0 0 0 .363-.363.3.3 0 0 1 .3-.3z" class="cls-2" transform="translate(-33.65 -398.679)"/>
                            <path id="Path_1744" d="M451.779 82.339a.3.3 0 0 1 .214.516l-.6.6a.3.3 0 1 1-.428-.428l.6-.6a.3.3 0 0 1 .214-.088z" class="cls-3" transform="translate(-449.893 -76.832)"/>
                            <path id="Path_1745" d="M88.561 40.13a.3.3 0 0 1 .214.516l-.6.6a.3.3 0 0 1-.428-.428l.6-.6a.3.3 0 0 1 .214-.088z" class="cls-3" transform="translate(-60.598 -19.813)"/>
                            <path id="Path_2720" d="M88.561 40.13a.3.3 0 0 1 .214.516l-.6.6a.3.3 0 0 1-.428-.428l.6-.6a.3.3 0 0 1 .214-.088z" class="cls-3" transform="translate(-85.55 -20.827)"/>
                        </g>
                    </g>
                </g>
                <path id="Path_4041" fill="url(#linear-gradient)" d="M49.5 53.708H33.7a1.7 1.7 0 0 1-1.7-1.699V31.626a1.7 1.7 0 0 1 1.693-1.7c4.38 0 3.951-.388 3.951 1.7a.565.565 0 0 0 .564.566h6.773a.565.565 0 0 0 .564-.566v-1.132a.565.565 0 0 1 .564-.566H49.5a1.7 1.7 0 0 1 1.693 1.7v20.381a1.7 1.7 0 0 1-1.693 1.699z" transform="translate(-27.009 -28.549)"/>
                <path id="Path_4042" fill="#4e89ad" stroke="#2e6089" stroke-width="1.5px" d="M47.552 53.71H31.7a1.7 1.7 0 0 1-1.7-1.7V31.628a1.7 1.7 0 0 1 1.7-1.7c4.174 0 3.994-.35 3.964 1.622v-.626h7.927V30.5a.566.566 0 0 1 .566-.566h3.4a1.7 1.7 0 0 1 1.7 1.7v20.377a1.7 1.7 0 0 1-1.705 1.699z" transform="translate(-25.6 -28.551)"/>
                <path id="Path_4370" fill="#fff" d="M.846.126l12.31.016c.483 0 .844.591.844 1.494v14.728c0 .9-.392 1.636-.875 1.636L6.91 11.455.875 18C.392 18 0 17.267 0 16.364V1.636C0 .733.363.126.846.126z" transform="translate(7 2)"/>
                <path id="Path_4048" d="M73.589 54.175l-1.334-1.335a.712.712 0 0 1 1-1.007l.832.832 1.722-1.718a.712.712 0 0 1 1 1.007l-2.22 2.22a.712.712 0 0 1-1.007 0z" class="cls-2" transform="translate(-57.552 -45.507)"/>
                <g id="Rectangle_2614" fill="#73aacf" stroke="#2e6089" transform="translate(9.256)">
                    <rect width="9.835" height="3.512" stroke="none" rx="1.756"/>
                    <rect width="8.835" height="2.512" x=".5" y=".5" class="cls-9" rx="1.256"/>
                </g>
                <path id="Path_4371" d="M45.719 71.132h-3.381c-.187 0-.338-.253-.338-.566s.151-.566.338-.566h3.381c.187 0 .338.253.338.566s-.151.566-.338.566z" class="cls-3" transform="translate(-33.197 -64.297)"/>
                <path id="Path_4373" d="M45.719 71.132h-3.381c-.187 0-.338-.253-.338-.566s.151-.566.338-.566h3.381c.187 0 .338.253.338.566s-.151.566-.338.566z" class="cls-3" transform="translate(-33.197 -61.297)"/>
                <g id="Group_11977" transform="rotate(-16 31.527 -11.485)">
                    <g id="tap" transform="translate(3.356 5.322)">
                        <path id="Path_4369" fill="#c2e1f4" stroke="#2e6089" d="M12.186 5.821h-.026a1.4 1.4 0 0 0-.945.359 1.474 1.474 0 0 0-1.369-1 1.42 1.42 0 0 0-1.015.437 1.453 1.453 0 0 0-1.3-.829h-.024a1.331 1.331 0 0 0-.835.278V1.544A1.512 1.512 0 0 0 5.2 0a1.509 1.509 0 0 0-1.462 1.543l-.007 6.99-.4-.48a2 2 0 0 0-1.41-.741 1.963 1.963 0 0 0-1.471.52l-.344.285a.306.306 0 0 0-.076.377l3.346 6.433a3.45 3.45 0 0 0 3.038 1.909h3.771a3.591 3.591 0 0 0 3.464-3.7v-2.142-3.64a1.5 1.5 0 0 0-1.463-1.533zm-5.766 10.4z"/>
                    </g>
                </g>
            </g>
        </g>
        <path id="Rectangle_2676" d="M0 0H38V38H0z" class="cls-9" transform="translate(1380 531)"/>
    </g>
</svg>
