<svg xmlns="http://www.w3.org/2000/svg" width="72" height="72" viewBox="0 0 72 72">
    <defs>
        <linearGradient id="linear-gradient" x1="-.743" x2="-.44" y1=".083" y2=".185" gradientUnits="objectBoundingBox">
            <stop offset="0" stop-color="#f3f7ff"/>
            <stop offset="1" stop-color="#cdd9ff"/>
        </linearGradient>
        <style>
            .cls-3{fill:#ff7eb8}.cls-4{fill:#2a719b}.cls-5{fill:none}.cls-8{fill:#fff}
        </style>
    </defs>
    <g id="Group_12615" transform="translate(-742 -371)">
        <circle id="Ellipse_694" cx="36" cy="36" r="36" fill="#f2f4f6" transform="translate(742 371)"/>
        <g id="Confirmed_" transform="translate(-650 148.026)">
            <g id="Group_11979" transform="translate(1414 246)">
                <g id="Group_9859">
                    <g id="Group_9871">
                        <path id="Path_2687" fill="#d3ebfa" d="M22.11 3.075C16.073 3.075 11.927 0 9.018 0S0 1.644 0 14.8s8.219 15.092 11.419 15.092C26.4 29.892 32.8 3.075 22.11 3.075z" transform="translate(.731 -5)"/>
                        <path id="Path_4361" d="M396.121 47.066a.3.3 0 0 1-.3-.3.363.363 0 0 0-.363-.363.3.3 0 0 1 0-.605.363.363 0 0 0 .363-.363.3.3 0 0 1 .605 0 .363.363 0 0 0 .363.363.3.3 0 0 1 0 .605.363.363 0 0 0-.363.363.3.3 0 0 1-.305.3z" class="cls-3" transform="translate(-368.218 -24.016)"/>
                        <path id="Path_4358" d="M60.623 418.108a.3.3 0 0 1-.3-.3.363.363 0 0 0-.363-.363.3.3 0 0 1 0-.605.363.363 0 0 0 .363-.363.3.3 0 1 1 .605 0 .363.363 0 0 0 .363.363.3.3 0 0 1 0 .605.363.363 0 0 0-.363.363.3.3 0 0 1-.305.3z" class="cls-3" transform="translate(-61.329 -416.716)"/>
                        <path id="Path_1744" d="M451.175 83.549a.3.3 0 0 1-.214-.516l.6-.605a.3.3 0 1 1 .428.428l-.605.605a.3.3 0 0 1-.209.088z" class="cls-4" transform="translate(-424.191 -78.953)"/>
                        <path id="Path_4359" d="M87.957 41.34a.3.3 0 0 1-.214-.516l.605-.605a.3.3 0 1 1 .428.428l-.605.605a.3.3 0 0 1-.214.088z" class="cls-4" transform="translate(-86.654 -44.774)"/>
                        <path id="Path_4360" d="M87.957 41.34a.3.3 0 0 1-.214-.516l.605-.605a.3.3 0 1 1 .428.428l-.605.605a.3.3 0 0 1-.214.088z" class="cls-4" transform="translate(-63.654 -15.774)"/>
                        <path id="Path_2720" d="M87.957 41.34a.3.3 0 0 1-.214-.516l.605-.605a.3.3 0 1 1 .428.428l-.605.605a.3.3 0 0 1-.214.088z" class="cls-4" transform="translate(-84.478 -14.596)"/>
                        <path id="Rectangle_2678" d="M0 0H38V38H0z" class="cls-5" transform="translate(-5 -6.026)"/>
                    </g>
                </g>
            </g>
            <g id="Group_12021" transform="translate(1417.575 244.134)">
                <path id="Path_4041" fill="url(#linear-gradient)" d="M49.5 53.717H33.694A1.7 1.7 0 0 1 32 52.018V31.627a1.7 1.7 0 0 1 1.694-1.7c4.382 0 3.953-.388 3.953 1.7a.566.566 0 0 0 .565.566h6.776a.566.566 0 0 0 .565-.566v-1.133a.566.566 0 0 1 .565-.566H49.5a1.7 1.7 0 0 1 1.694 1.7v20.39a1.7 1.7 0 0 1-1.694 1.699z" transform="translate(-31.408 -27.872)"/>
                <path id="Path_4042" fill="#4e89ad" stroke="#2e6089" stroke-width="1.5px" d="M47.559 53.719H31.7a1.7 1.7 0 0 1-1.7-1.7v-20.39a1.7 1.7 0 0 1 1.7-1.7c4.176 0 4-.35 3.965 1.623v-.626h7.93V30.5a.566.566 0 0 1 .566-.566h3.4a1.7 1.7 0 0 1 1.7 1.7V52.02a1.7 1.7 0 0 1-1.702 1.699z" transform="translate(-30 -27.874)"/>
                <path id="Rectangle_2617" d="M0 0H15V16H0z" class="cls-8" transform="translate(2.426 5.84)"/>
                <g id="Rectangle_2614" fill="#73aacf" stroke="#2e6089" transform="translate(5.426 -.16)">
                    <rect width="9" height="4" stroke="none" rx="2"/>
                    <rect width="8" height="3" x=".5" y=".5" class="cls-5" rx="1.5"/>
                </g>
                <g id="Group_12587" transform="translate(-663.575 -1583.16)">
                    <path id="Path_4128" d="M164.843 155.1c0 6.129-4.555 11.1-10.173 11.1s-10.17-4.973-10.17-11.1 4.555-11.1 10.173-11.1 10.17 4.969 10.17 11.1zm0 0" class="cls-3" transform="translate(519.79 1444.73)"/>
                    <path id="Path_4350" d="M29.526 13.768l-2.921-1.3L25.3 9.547l-3.178.332L19.541 8l-2.588 1.879-3.177-.332-1.3 2.92-2.922 1.3.332 3.178-1.874 2.588 1.875 2.587-.332 3.18 2.921 1.3 1.3 2.922 3.179-.332 2.586 1.875 2.587-1.875 3.177.332L26.6 26.6l2.922-1.3-.332-3.179 1.876-2.586-1.876-2.587z" class="cls-8" transform="translate(654.378 1580.387)"/>
                    <path id="Path_4351" fill="#2e6089" stroke="#2e6089" d="M23.775 11.695l-1.79-2.47.315-3.034a.385.385 0 0 0-.226-.391l-2.785-1.24-1.24-2.787a.387.387 0 0 0-.391-.226l-3.034.317-2.47-1.791a.384.384 0 0 0-.451 0l-2.47 1.79L6.2 1.546a.39.39 0 0 0-.391.226L4.567 4.559 1.78 5.8a.384.384 0 0 0-.226.391l.317 3.034-1.79 2.47a.384.384 0 0 0 0 .451l1.79 2.47-.317 3.034a.384.384 0 0 0 .226.391l2.787 1.24 1.24 2.787a.389.389 0 0 0 .391.226l3.034-.317 2.47 1.79a.384.384 0 0 0 .451 0l2.47-1.79 3.034.317a.387.387 0 0 0 .391-.226l1.24-2.787 2.787-1.24a.385.385 0 0 0 .226-.391l-.317-3.034 1.79-2.47a.384.384 0 0 0 .001-.451zm-2.5 2.589a.384.384 0 0 0-.071.266l.3 2.9-2.667 1.187a.381.381 0 0 0-.2.195L17.459 21.5l-2.9-.3a.384.384 0 0 0-.265.072l-2.363 1.713-2.366-1.717a.38.38 0 0 0-.225-.073.25.25 0 0 0-.038 0l-2.9.3-1.19-2.662a.384.384 0 0 0-.2-.2l-2.664-1.182.3-2.9a.386.386 0 0 0-.071-.266L.867 11.92 2.58 9.557a.386.386 0 0 0 .071-.266l-.3-2.9L5.015 5.2a.381.381 0 0 0 .2-.195L6.4 2.34l2.9.3a.388.388 0 0 0 .265-.072L11.928.86l2.363 1.713a.386.386 0 0 0 .265.072l2.9-.3 1.186 2.667a.384.384 0 0 0 .2.2l2.667 1.187-.3 2.9a.384.384 0 0 0 .071.266l1.712 2.363zm0 0" transform="translate(661.992 1588)"/>
                    <path id="Path_4355" fill="#c2e1f4" d="M23.758 12.223l-2.138-.951-.952-2.138-2.326.243L16.449 8l-1.893 1.376-2.325-.243-.951 2.137-2.138.952.243 2.326-1.373 1.894 1.373 1.894-.243 2.325 2.138.951.952 2.138 2.326-.243 1.893 1.373 1.894-1.373 2.325.243.951-2.138 2.138-.952-.243-2.326 1.373-1.893-1.373-1.894z" transform="translate(657.518 1583.527)"/>
                    <path id="Path_4352" fill="#ff7eb8" stroke="#ff7eb8" d="M132.282 155.054a.3.3 0 0 0-.428 0l-4.922 4.922-1.5-1.5a.3.3 0 0 0-.427 0l-.858.853a.3.3 0 0 0 0 .429l2.57 2.57a.3.3 0 0 0 .428 0l5.992-5.993a.3.3 0 0 0 0-.428zm-5.35 6.635l-2.141-2.141.428-.427 1.5 1.5a.3.3 0 0 0 .428 0l4.922-4.921.429.429zm0 0" transform="translate(545.043 1441.636)"/>
                </g>
            </g>
        </g>
    </g>
</svg>
