<svg xmlns="http://www.w3.org/2000/svg" width="22" height="22" viewBox="0 0 22 22">
    <g>
        <path fill="none" d="M0 0H22V22H0z" transform="translate(-418 -309) translate(418 309)"/>
        <path fill="#cd2d2f" d="M21.309 67.107l-9-13.144a1.734 1.734 0 0 0-2.855-.008L.344 67.1a1.938 1.938 0 0 0 1.593 3.04h17.772a1.938 1.938 0 0 0 1.6-3.033zm-10.485 1.511a1.37 1.37 0 1 1 1.37-1.37 1.37 1.37 0 0 1-1.37 1.37zM9.6 57.222a1.656 1.656 0 0 1 2.87 1.26l-.517 6.218a2.74 2.74 0 0 0-2.26 0l-.521-6.217a1.656 1.656 0 0 1 .428-1.261z" transform="translate(-418 -309) translate(418.001 258.497)"/>
    </g>
</svg>
