<svg xmlns="http://www.w3.org/2000/svg" width="40" height="40" viewBox="0 0 40 40">
  <defs>
    <style>
      .cls-1 {
        fill: #ddd1cc;
      }

      .cls-2 {
        fill: #fff;
        fill-rule: evenodd;
      }
    </style>
  </defs>
  <g id="Group_2513" data-name="Group 2513" transform="translate(-180 -581)">
    <circle id="Ellipse_75" data-name="Ellipse 75" class="cls-1" cx="20" cy="20" r="20" transform="translate(180 581)"/>
    <g id="Group_2177" data-name="Group 2177" transform="translate(258.548 542.578)">
      <g id="noun_booking_1094614" data-name="noun booking 1094614">
        <path id="Path_427" data-name="Path 427" class="cls-2" d="M-53.324,51.059h-.989v1.547a1.142,1.142,0,0,1-1.142,1.143A1.143,1.143,0,0,1-56.6,52.607h0V51.059h-4.446v1.547a1.142,1.142,0,0,1-1.108,1.176,1.144,1.144,0,0,1-1.177-1.109V51.059h-.994a2.224,2.224,0,0,0-2.224,2.224V64.835a2.225,2.225,0,0,0,2.224,2.223h8.374a5.064,5.064,0,0,1,.236-7.158,5.061,5.061,0,0,1,4.61-1.235V53.283A2.224,2.224,0,0,0-53.324,51.059Zm-6.733,12.277h-4.756a.526.526,0,0,1-.525-.526.525.525,0,0,1,.525-.525h4.756a.526.526,0,0,1,.526.525A.527.527,0,0,1-60.057,63.336Zm0-3.382h-4.756a.526.526,0,0,1-.525-.526.525.525,0,0,1,.525-.525h4.756a.526.526,0,0,1,.526.525A.527.527,0,0,1-60.057,59.954Zm7.233-3.614H-64.813a.525.525,0,0,1-.525-.525.523.523,0,0,1,.524-.525h11.99a.524.524,0,0,1,.526.524.526.526,0,0,1-.525.526Z"/>
        <path id="Path_428" data-name="Path 428" class="cls-2" d="M-61.508,52.387a.68.68,0,0,1-.68.68h0a.68.68,0,0,1-.679-.68V50.1a.68.68,0,0,1,.679-.679h0a.679.679,0,0,1,.68.679Z"/>
        <path id="Path_429" data-name="Path 429" class="cls-2" d="M-54.773,52.387a.68.68,0,0,1-.679.68h0a.679.679,0,0,1-.679-.679h0V50.1a.679.679,0,0,1,.679-.679h0a.679.679,0,0,1,.679.679h0Z"/>
        <path id="Path_1521" data-name="Path 1521" class="cls-2" d="M-48.64,63.28a4.042,4.042,0,0,1-4.04,4.04,4.033,4.033,0,0,1-4.03-4.04,4.025,4.025,0,0,1,4.03-4.03,4.045,4.045,0,0,1,2.86,1.18A4,4,0,0,1-48.64,63.28Z"/>
      </g>
      <path id="Path_1522" data-name="Path 1522" class="cls-1" d="M-52.319,62.415v.326c0,.719,0,1.439,0,2.158a.324.324,0,0,1-.48.312.346.346,0,0,1-.17-.337c0-.746,0-1.492,0-2.238v-.2a1.079,1.079,0,0,0-.109.082c-.152.15-.3.3-.453.452a.319.319,0,0,1-.47.014.326.326,0,0,1,.008-.472q.546-.552,1.1-1.1a.321.321,0,0,1,.505,0q.534.528,1.06,1.064a.324.324,0,0,1,.013.483.327.327,0,0,1-.482-.027C-51.962,62.771-52.123,62.609-52.319,62.415Z"/>
    </g>
  </g>
</svg>
