<svg xmlns="http://www.w3.org/2000/svg" width="40" height="40" viewBox="0 0 40 40">
  <defs>
    <style>
      .cls-1 {
        fill: #ddd1cc;
      }

      .cls-2 {
        fill: #fff;
      }
    </style>
  </defs>
  <g id="Group_2511" data-name="Group 2511" transform="translate(-180 -1821)">
    <circle id="Ellipse_75" data-name="Ellipse 75" class="cls-1" cx="20" cy="20" r="20" transform="translate(180 1821)"/>
    <path id="Path_1513" data-name="Path 1513" class="cls-2" d="M-455.66,444.53a.278.278,0,0,1,.087.009h.048a.277.277,0,0,1,.087-.009Zm9.5,3.3a8.962,8.962,0,0,0-9.13,8.808,8.745,8.745,0,0,0,3.29,6.768l-.612,3.76a.7.7,0,0,0,.318.583c.167.179.413.122.667-.056l3.7-2.407a8.53,8.53,0,0,0,1.764.179,8.969,8.969,0,0,0,9.138-8.827A8.959,8.959,0,0,0-446.165,447.83Zm1.661,13.509c-.358.169-.644.291-.858.385a2.014,2.014,0,0,1-.747.132,1.358,1.358,0,0,1-1.009-.376,1.318,1.318,0,0,1-.365-.959c0-.15.008-.3.024-.461s.048-.329.087-.526l.453-1.88c.04-.188.072-.357.1-.517a3.088,3.088,0,0,0,.04-.442.74.74,0,0,0-.127-.5.639.639,0,0,0-.477-.141,1.182,1.182,0,0,0-.358.056c-.127.047-.23.085-.318.122l.119-.573c.294-.141.58-.263.842-.367a2.136,2.136,0,0,1,.771-.15,1.3,1.3,0,0,1,.993.367,1.353,1.353,0,0,1,.358.968,4.04,4.04,0,0,1-.032.432,2.92,2.92,0,0,1-.087.564l-.445,1.871a4.1,4.1,0,0,0-.1.517,2.983,2.983,0,0,0-.048.442.706.706,0,0,0,.143.508.723.723,0,0,0,.485.132,1.141,1.141,0,0,0,.374-.066,1.5,1.5,0,0,0,.294-.122Zm-.079-7.605a.973.973,0,0,1-.747.338,1.018,1.018,0,0,1-.763-.338,1.214,1.214,0,0,1-.31-.837,1.214,1.214,0,0,1,.31-.837,1,1,0,0,1,.763-.348.952.952,0,0,1,.747.348,1.185,1.185,0,0,1,.318.837A1.185,1.185,0,0,1-444.583,453.733Z" transform="translate(646.388 1384.57)"/>
  </g>
</svg>
