<svg xmlns="http://www.w3.org/2000/svg" width="38" height="38" viewBox="0 0 38 38">
    <defs>
        <style>
            .cls-2{fill:#ff7eb8}.cls-3{fill:#2a719b}.cls-6{fill:#fff}.cls-10,.cls-9{stroke:none}.cls-10{fill:#2e6089}
        </style>
    </defs>
    <g id="Claim_rate_" transform="translate(-1380 -531)">
        <g id="Group_12027" transform="translate(23 284)">
            <g id="Group_12016" transform="translate(1362 254)">
                <g id="Group_11979">
                    <g id="Group_9859">
                        <g id="Group_9871">
                            <path id="Path_2687" fill="#d3ebfa" d="M22.1 3.074C16.067 3.074 11.923 0 9.015 0S0 1.644 0 14.8s8.216 15.08 11.414 15.08C26.391 29.881 32.789 3.074 22.1 3.074z" transform="rotate(180 13.768 12.94)"/>
                            <path id="Path_1742" d="M396.121 45.13a.3.3 0 0 1 .3.3.363.363 0 0 0 .363.363.3.3 0 0 1 0 .6.363.363 0 0 0-.363.363.3.3 0 1 1-.6 0 .363.363 0 0 0-.363-.363.3.3 0 0 1 0-.6.363.363 0 0 0 .363-.363.3.3 0 0 1 .3-.3z" class="cls-2" transform="translate(-395.153 -43.075)"/>
                            <path id="Path_2578" d="M60.623 416.172a.3.3 0 0 1 .3.3.363.363 0 0 0 .363.363.3.3 0 0 1 0 .6.363.363 0 0 0-.363.363.3.3 0 1 1-.6 0 .363.363 0 0 0-.363-.363.3.3 0 0 1 0-.6.363.363 0 0 0 .363-.363.3.3 0 0 1 .3-.3z" class="cls-2" transform="translate(-33.65 -404.679)"/>
                            <path id="Path_1744" d="M451.779 82.339a.3.3 0 0 1 .214.516l-.6.6a.3.3 0 1 1-.428-.428l.6-.6a.3.3 0 0 1 .214-.088z" class="cls-3" transform="translate(-449.893 -76.832)"/>
                            <path id="Path_1745" d="M88.561 40.13a.3.3 0 0 1 .214.516l-.6.6a.3.3 0 0 1-.428-.428l.6-.6a.3.3 0 0 1 .214-.088z" class="cls-3" transform="translate(-60.598 -19.813)"/>
                            <path id="Path_2720" d="M88.561 40.13a.3.3 0 0 1 .214.516l-.6.6a.3.3 0 0 1-.428-.428l.6-.6a.3.3 0 0 1 .214-.088z" class="cls-3" transform="translate(-85.55 -20.827)"/>
                            <g id="Group_12616" transform="translate(-594 -897)">
                                <g id="Path_4380" fill="#4e89ad" stroke-linecap="round" stroke-linejoin="round">
                                    <path d="M18 25.2H2c-.662 0-1.2-.538-1.2-1.2V2C.8 1.338 1.338.8 2 .8h10.771l6.446 7.81L19.2 24c0 .662-.538 1.2-1.2 1.2z" class="cls-9" transform="translate(599 894)"/>
                                    <path d="M2 1.6c-.22 0-.4.18-.4.4v22c0 .22.18.4.4.4h16c.22 0 .4-.18.4-.402l.017-15.1L12.394 1.6H2M2 0h11.148l6.87 8.323L20 24c0 1.105-.895 2-2 2H2c-1.105 0-2-.895-2-2V2C0 .895.895 0 2 0z" class="cls-10" transform="translate(599 894)"/>
                                </g>
                                <g id="Path_4388" fill="none">
                                    <path d="M6.149 6.258l.5 2.143c0 .631-.84.6-1.264.6H.769C.344 9 0 8.488 0 7.857V1z" class="cls-9" transform="translate(611 894)"/>
                                    <path d="M5.51 8h.015L5.25 6.804 1 3.171v4.686c0 .057.006.104.015.143h4.496m0 1H.769C.344 9 0 8.488 0 7.857V1l6.15 5.258.495 2.144c0 .571-.689.598-1.134.598z" class="cls-10" transform="translate(611 894)"/>
                                </g>
                                <path id="Path_4384" d="M0 .613l5.572 6.528H0z" class="cls-6" transform="translate(611.859 895)"/>
                                <path id="Path_4381" d="M49.386 71.132h-6.715a.574.574 0 1 1 0-1.132h6.714a.574.574 0 1 1 0 1.132z" class="cls-6" transform="translate(560.803 833.703)"/>
                                <path id="Path_4382" d="M45.719 71.132h-3.381c-.187 0-.338-.253-.338-.566s.151-.566.338-.566h3.381c.187 0 .338.253.338.566s-.151.566-.338.566z" class="cls-6" transform="translate(560.803 836.703)"/>
                                <path id="Path_4383" d="M73.589 54.175l-1.334-1.335a.712.712 0 0 1 1-1.007l.832.832 1.722-1.718a.712.712 0 0 1 1 1.007l-2.22 2.22a.712.712 0 0 1-1.007 0z" class="cls-2" transform="translate(530.447 847.493)"/>
                                <g id="Group_12616-2" transform="translate(-3.509 -2)">
                                    <g id="Path_4385" fill="#c2e1f4">
                                        <path d="M29.511 29.957c-.41 0-.8-.156-1.097-.44l-6.18-6.018-.43.43c.375.612.298 1.423-.23 1.951-.3.3-.697.464-1.12.464-.424 0-.823-.165-1.122-.465l-3.928-3.928c-.3-.3-.464-.698-.464-1.121 0-.424.165-.822.465-1.12.3-.3.697-.465 1.12-.465.299 0 .585.082.832.236l3.11-3.095c-.154-.248-.235-.533-.235-.83 0-.423.164-.822.463-1.121.3-.3.698-.465 1.122-.465.423 0 .82.165 1.12.464l3.929 3.928c.617.619.617 1.624-.001 2.242-.3.3-.698.464-1.12.464-.299 0-.585-.082-.832-.235l-.422.422 6.164 6.004.002.001.006.007.004.003c.597.631.584 1.606-.03 2.22-.3.301-.7.467-1.126.467zm-9.153-5.11c.035.031.075.036.095.036.02 0 .054-.004.086-.029l.005-.005c.024-.024.038-.056.038-.09 0-.034-.014-.067-.038-.09l-.255-.256-3.419-3.41-.257-.263c-.03-.03-.068-.035-.088-.035-.02 0-.058.005-.09.038-.05.05-.05.13 0 .18l3.923 3.924zm1.345-9.373c-.034.05-.029.12.015.164l2.588 2.591 1.085 1.085.255.255c.032.032.07.037.09.037.02 0 .058-.005.09-.037.05-.05.05-.13 0-.18l-3.928-3.929c-.032-.033-.07-.037-.09-.037-.02 0-.058.004-.09.037l-.015.014z" class="cls-9" transform="translate(593 893.008)"/>
                                        <path d="M29.511 29.557c.306 0 .61-.117.843-.35.457-.456.466-1.193.022-1.661l-6.454-6.287.961-.962.023.023c.231.232.535.348.838.348.304 0 .607-.116.838-.347.463-.463.463-1.213 0-1.676l-3.928-3.928c-.231-.231-.534-.347-.837-.347-.304 0-.607.116-.839.348-.462.463-.462 1.213.001 1.676l.023.022-3.616 3.6-.023-.023c-.231-.232-.535-.348-.838-.348-.303 0-.606.116-.837.347-.464.463-.464 1.213-.001 1.676l3.928 3.928c.232.232.535.348.838.348.304 0 .607-.116.838-.347.463-.462.463-1.213 0-1.676l-.022-.023.961-.961 6.46 6.291c.23.22.526.329.821.329m-12.986-9.252c.135 0 .27.052.373.155l.255.26 3.419 3.41.255.255c.099.099.155.233.155.374 0 .14-.056.275-.155.374v.001c-.105.1-.24.15-.374.15s-.268-.05-.373-.15l-3.928-3.928c-.206-.206-.206-.54 0-.746.103-.103.238-.155.373-.155m4.91-5.131v.003c.103-.103.238-.154.373-.154s.27.051.373.154l3.928 3.928c.206.207.206.54 0 .747-.103.103-.238.154-.373.154s-.27-.051-.373-.154l-.255-.255-1.085-1.085-2.588-2.592c-.206-.206-.206-.54 0-.746m.023 1.7l2.013 2.013-2.013-2.014M30.38 27.55l-.007-.007.002.003.005.004m-.87 2.807c-.513 0-1.001-.195-1.373-.55l-.003-.003-.004-.003-5.78-5.63c.058.188.088.386.087.589 0 .53-.206 1.028-.582 1.403-.374.375-.873.58-1.403.58s-1.029-.206-1.404-.581l-3.928-3.928c-.375-.376-.581-.874-.581-1.405 0-.53.207-1.028.582-1.403.375-.374.873-.58 1.403-.58.263 0 .518.05.755.147l2.699-2.686c-.097-.236-.147-.49-.147-.75 0-.531.206-1.03.58-1.405.375-.375.874-.582 1.405-.582.53 0 1.028.206 1.403.581l3.928 3.928c.774.775.774 2.034 0 2.808-.376.374-.874.58-1.404.58-.184 0-.364-.024-.536-.072l5.726 5.577.005.005.004.004.003.003.011.011c.748.79.731 2.01-.037 2.779-.377.376-.877.583-1.409.583z" class="cls-10" transform="translate(593 893.008)"/>
                                    </g>
                                    <path id="Path_4386" d="M.607 0A.592.592 0 0 1 1.2.592L1.184 6.1A.592.592 0 0 1 0 6.1L.015.592A.592.592 0 0 1 .607 0z" class="cls-6" transform="rotate(-45 1407.486 -277.903)"/>
                                    <path id="Path_4387" d="M.592 0a.592.592 0 0 1 .592.592l.061 5.571a.592.592 0 0 1-1.184 0L0 .592A.592.592 0 0 1 .592 0z" class="cls-6" transform="rotate(-45 1403.753 -286.83)"/>
                                </g>
                            </g>
                        </g>
                    </g>
                </g>
            </g>
        </g>
        <path id="Rectangle_2676" fill="none" d="M0 0H38V38H0z" transform="translate(1380 531)"/>
    </g>
</svg>
