<svg xmlns="http://www.w3.org/2000/svg" width="46.643" height="43.799" viewBox="0 0 46.643 43.799">
  <defs>
    <style>
      .cls-1 {
        opacity: 0.4;
      }

      .cls-2, .cls-3 {
        fill: #879ea7;
        stroke: #fff;
        stroke-miterlimit: 10;
      }

      .cls-2 {
        stroke-width: 0.5px;
      }

      .cls-3 {
        stroke-width: 0.8px;
      }
    </style>
  </defs>
  <g id="Group_1956" data-name="Group 1956" class="cls-1" transform="translate(-143.6 -609.6)">
    <path id="Path_1356" data-name="Path 1356" class="cls-2" d="M489.972,650.1a1.23,1.23,0,0,1-.4.9,1.523,1.523,0,0,1-2.264-.245c-.9-.9-1.8-1.82-2.753-2.768l-1.667-1.7-1.529,1.575c-1.025,1.04-2.019,2.065-3.028,3.074a1.381,1.381,0,0,1-1.866.23,1.281,1.281,0,0,1-.5-1.637,2.484,2.484,0,0,1,.6-.826c.964-.979,1.942-1.942,2.952-2.952l1.422-1.407-4.068-4.022c-.184-.183-.382-.382-.566-.581a1.464,1.464,0,0,1-.031-2.049,1.347,1.347,0,0,1,.964-.413,1.564,1.564,0,0,1,1.071.459c.887.857,1.759,1.744,2.631,2.615l1.285,1.285c.092.092.184.168.306.275l.5.428,1.468-1.514c1.01-1.025,2-2.049,3-3.059a1.384,1.384,0,0,1,1.866-.245,1.292,1.292,0,0,1,.52,1.637,2.15,2.15,0,0,1-.581.826c-.964.979-1.942,1.943-2.952,2.952l-1.422,1.407,1.621,1.621c.948.948,1.866,1.851,2.768,2.768A2,2,0,0,1,489.972,650.1Z" transform="translate(-316 -12.854)"/>
    <path id="Path_1357" data-name="Path 1357" class="cls-3" d="M504.333,670.845H472.493a7.008,7.008,0,0,1-7-7v-29a7.009,7.009,0,0,1,7-7h31.841a7.009,7.009,0,0,1,7,7v29A7.008,7.008,0,0,1,504.333,670.845ZM472.493,630.9a3.947,3.947,0,0,0-3.943,3.943v29a3.946,3.946,0,0,0,3.943,3.942h31.841a3.946,3.946,0,0,0,3.941-3.942v-29a3.946,3.946,0,0,0-3.941-3.943Z" transform="translate(-321.491 -17.846)"/>
  </g>
</svg>
