<svg xmlns="http://www.w3.org/2000/svg" width="16.001" height="16.004" viewBox="0 0 16.001 16.004">
  <g id="Split_Booking-Default_" data-name="Split Booking-Default " transform="translate(-126.998 -1115.996)">
    <g id="Component_31_77" data-name="Component 31 – 77" transform="translate(126.999 1115.996)">
      <rect id="Rectangle_1131" data-name="Rectangle 1131" width="16" height="16" transform="translate(0 0.004)" fill="none"/>
      <path id="Union_9" data-name="Union 9" d="M-17741.7-2061a1.7,1.7,0,0,1-1.7-1.7h6.557a1.7,1.7,0,0,1-1.7,1.7Zm.535-2.552h-2.236v-.036l0,.009-2.73-2.04a1.329,1.329,0,0,1-.18-1.795,1.152,1.152,0,0,1,1.689-.187l1.225.984v-6.12a1.2,1.2,0,0,1,1.2-1.2,1.2,1.2,0,0,1,1.2,1.2v3.808c.445.027,1.732.125,2.85.29,1.377.2,1.43,1.207,1.43,1.207v3.88Zm1.121-6.468v-2.606a2.162,2.162,0,0,0-2.16-2.16,2.162,2.162,0,0,0-2.16,2.16v2.606h-.641a3,3,0,0,1-3-3V-2074a3,3,0,0,1,3-3h10a3,3,0,0,1,3,3v.975a3,3,0,0,1-3,3Zm1.133-3.617a.4.4,0,0,0-.152.3.39.39,0,0,0,.152.3l.725,1.073a.59.59,0,0,0,.365.125.574.574,0,0,0,.365-.125l2.58-2.138a.4.4,0,0,0,.146-.3.4.4,0,0,0-.146-.3.586.586,0,0,0-.365-.125.574.574,0,0,0-.365.125l-2.215,1.835-.365-.771a.556.556,0,0,0-.359-.125A.573.573,0,0,0-17738.906-2073.639Z" transform="translate(17748.002 2077.002)" fill="#d55254"/>
    </g>
  </g>
</svg>
