<svg xmlns="http://www.w3.org/2000/svg" width="16" height="16" viewBox="0 0 16 16">
    <g id="Component_27_3" data-name="Component 27 – 3" opacity="0.8">
        <g id="Group_10067" data-name="Group 10067" transform="translate(-410 -181)">
            <path id="Rectangle_1128" fill="none" d="M0 0H16V16H0z" data-name="Rectangle 1128" transform="translate(410 181)"/>
            <g id="noun_message_3039134" transform="translate(391.999 179)">
                <g id="Group_3349" data-name="Group 3349" transform="translate(19 3)">
                    <path id="Path_1675" fill="#cd2d2f" fill-rule="evenodd" d="M11.379 0H2.107A2.113 2.113 0 0 0 0 2.107v5.9a2.113 2.113 0 0 0 2.107 2.107h8.008l3.372 3.372V2.107A2.113 2.113 0 0 0 11.379 0m-2.95 7.586H3.372a.843.843 0 0 1 0-1.686h5.057a.843.843 0 0 1 0 1.686m1.686-3.372H3.372a.843.843 0 0 1 0-1.686h6.743a.843.843 0 0 1 0 1.686" data-name="Path 1675"/>
                </g>
            </g>
        </g>
    </g>
</svg>
