<svg xmlns="http://www.w3.org/2000/svg" width="22" height="22" viewBox="0 0 22 22">
    <g>
        <path fill="none" d="M0 0H22V22H0z" opacity="0.166" transform="translate(-745 -502) translate(745 502)"/>
        <path fill="#fff" d="M21.655 67.163l-9.142-13.2a1.774 1.774 0 0 0-2.9-.008L.35 67.154a1.928 1.928 0 0 0-.126 2.011 1.973 1.973 0 0 0 1.745 1.044h18.06a1.973 1.973 0 0 0 1.742-1.038 1.927 1.927 0 0 0-.116-2.008zM11 68.681a1.376 1.376 0 1 1 1.392-1.376A1.384 1.384 0 0 1 11 68.681zM9.76 57.238a1.7 1.7 0 0 1 2.478 0 1.65 1.65 0 0 1 .439 1.265l-.529 6.243a2.815 2.815 0 0 0-2.3 0L9.322 58.5a1.65 1.65 0 0 1 .438-1.262z" transform="translate(-745 -502) translate(745.001 450.791)"/>
    </g>
</svg>
