<svg xmlns="http://www.w3.org/2000/svg" width="16" height="16" viewBox="0 0 16 16">
  <g id="Man_Day-Default" data-name="Man Day-Default" transform="translate(-177 -940)">
    <g id="Group_11523" data-name="Group 11523" transform="translate(0 90)">
      <g id="Group_11454" data-name="Group 11454" transform="translate(177.513 851.564)">
        <g id="Component_51_19" data-name="Component 51 – 19" transform="translate(0 0)">
          <g id="Group_11524" data-name="Group 11524" transform="translate(0)">
            <g id="Group_9859" data-name="Group 9859" transform="translate(0 0)">
              <g id="user_6_" data-name="user (6)" transform="translate(0 0)">
                <path id="Union_7" data-name="Union 7" d="M3.122,6.246A3.022,3.022,0,0,1,.915,5.331,3.018,3.018,0,0,1,0,3.123,3.018,3.018,0,0,1,.915.915,3.02,3.02,0,0,1,3.122,0h0Q3.264,0,3.4.011a3.013,3.013,0,0,1,1.932.9,3.005,3.005,0,0,1,.9,1.892q.014.155.014.316a3.022,3.022,0,0,1-.914,2.208,3.027,3.027,0,0,1-2.209.915Z" transform="translate(1.875)" fill="#d55254"/>
                <path id="Union_6" data-name="Union 6" d="M4.99,6.635H2.143A2.092,2.092,0,0,1,.6,6.04,2.194,2.194,0,0,1,0,4.428c0-.258.008-.512.024-.758a7.986,7.986,0,0,1,.1-.811,6.721,6.721,0,0,1,.188-.815,4.217,4.217,0,0,1,.317-.761A2.885,2.885,0,0,1,1.107.624,2.116,2.116,0,0,1,1.794.168,2.253,2.253,0,0,1,2.672,0a.867.867,0,0,1,.475.213c.144.1.312.212.5.337a2.715,2.715,0,0,0,.641.3A2.437,2.437,0,0,0,4.99.981l.078,0A2.43,2.43,0,0,0,5.851.849a2.745,2.745,0,0,0,.642-.3c.185-.126.353-.239.5-.337A.867.867,0,0,1,7.464,0a2.253,2.253,0,0,1,.877.168,2.1,2.1,0,0,1,.688.456,2.885,2.885,0,0,1,.478.659,4.166,4.166,0,0,1,.317.76,6.594,6.594,0,0,1,.188.816,7.734,7.734,0,0,1,.1.811c.017.244.025.5.025.758a2.2,2.2,0,0,1-.6,1.613,2.094,2.094,0,0,1-1.544.6Z" transform="translate(0 6.586)" fill="#d55254"/>
              </g>
            </g>
            <g id="clock" transform="translate(8.842 0.406)">
              <g id="Group_9860" data-name="Group 9860" transform="translate(0 0)">
                <path id="Path_2755" data-name="Path 2755" d="M3.152,6.3A3.152,3.152,0,0,1,.923.923,3.152,3.152,0,0,1,5.381,5.381,3.132,3.132,0,0,1,3.152,6.3Zm0-5.935Z" transform="translate(0 0)" fill="#d55254"/>
              </g>
              <g id="Group_11525" data-name="Group 11525" transform="translate(0.933 0.932)">
                <path id="Path_2756" data-name="Path 2756" d="M241,60.036h.434v.546H241Z" transform="translate(-238.984 -60.036)" fill="#fae9e9"/>
                <path id="Path_2757" data-name="Path 2757" d="M0,0H.527V.395H0Z" transform="translate(3.292 0.894) rotate(-45)" fill="#fae9e9"/>
                <path id="Path_2758" data-name="Path 2758" d="M411.932,241h.546v.434h-.546Z" transform="translate(-408.012 -238.985)" fill="#fae9e9"/>
                <path id="Path_2759" data-name="Path 2759" d="M0,0H.395V.527H0Z" transform="translate(3.292 3.571) rotate(-45)" fill="#fae9e9"/>
                <path id="Path_2760" data-name="Path 2760" d="M241,411.932h.434v.546H241Z" transform="translate(-238.984 -408.013)" fill="#fae9e9"/>
                <path id="Path_2761" data-name="Path 2761" d="M0,0H.527V.395H0Z" transform="translate(0.522 3.664) rotate(-45)" fill="#fae9e9"/>
                <path id="Path_2762" data-name="Path 2762" d="M60.036,241h.546v.434h-.546Z" transform="translate(-60.036 -238.985)" fill="#fae9e9"/>
                <path id="Path_2763" data-name="Path 2763" d="M0,0H.395V.527H0Z" transform="translate(0.522 0.8) rotate(-45)" fill="#fae9e9"/>
                <path id="Path_2764" data-name="Path 2764" d="M242.446,151.554H241v-1.446h.359V151.2h1.087Z" transform="translate(-238.984 -149.105)" fill="#fae9e9"/>
              </g>
            </g>
          </g>
        </g>
      </g>
    </g>
    <rect id="Rectangle_2437" data-name="Rectangle 2437" width="16" height="16" transform="translate(177 940)" fill="none"/>
  </g>
</svg>
