<svg id="Component_26_72" data-name="Component 26 – 72" xmlns="http://www.w3.org/2000/svg" width="16" height="16" viewBox="0 0 16 16">
  <rect id="Rectangle_1103" data-name="Rectangle 1103" width="16" height="16" fill="none"/>
  <g id="noun_cancel_1146436" transform="translate(0 0.299)">
    <path id="Path_2815" data-name="Path 2815" d="M47.444,45.639a.83.83,0,0,1,0,1.2l-.6.6a.83.83,0,0,1-1.2,0L40.7,42.5l-4.939,4.939a.83.83,0,0,1-1.2,0l-.6-.6a.83.83,0,0,1,0-1.2L38.9,40.7l-4.939-4.939a.83.83,0,0,1,0-1.2l.6-.6a.83.83,0,0,1,1.2,0L40.7,38.9l4.939-4.939a.83.83,0,0,1,1.2,0l.6.6a.83.83,0,0,1,0,1.2L42.5,40.7Z" transform="translate(-32.7 -32.999)" fill="#fff"/>
  </g>
</svg>
