<svg xmlns="http://www.w3.org/2000/svg" width="14.657" height="14.036" viewBox="0 0 14.657 14.036">
    <defs>
        <style>
            .cls-1{fill:#fff}
        </style>
    </defs>
    <g id="noun_business_growth_297218" data-name="noun_business growth_297218" transform="translate(-.5 -1.59)">
        <g id="Group_10135" data-name="Group 10135" transform="translate(.5 1.59)">
            <path id="Path_2848" d="M37.824 8.1h-.156a.663.663 0 0 0-.468.218A15.532 15.532 0 0 1 34.518 11a.663.663 0 0 0-.218.468v8.046a.592.592 0 0 0 .593.593h2.931a.592.592 0 0 0 .592-.593V8.661a.567.567 0 0 0-.592-.561z" class="cls-1" data-name="Path 2848" transform="translate(-23.76 -6.07)"/>
            <path id="Path_2849" d="M21.2 20.153a.637.637 0 0 0-.624.031 29.049 29.049 0 0 1-2.864 1.716.6.6 0 0 0-.312.53v5.332a.592.592 0 0 0 .592.592h2.931a.592.592 0 0 0 .593-.592v-7.079a.6.6 0 0 0-.316-.53z" class="cls-1" data-name="Path 2849" transform="translate(-12.13 -14.318)"/>
            <path id="Path_2850" d="M4.336 27.807a.594.594 0 0 0-.561-.031 23.341 23.341 0 0 1-2.87 1.091.571.571 0 0 0-.405.561v3.586a.592.592 0 0 0 .592.592h2.932a.592.592 0 0 0 .592-.592v-4.709a.687.687 0 0 0-.28-.498z" class="cls-1" data-name="Path 2850" transform="translate(-.5 -19.571)"/>
            <path id="Path_2851" d="M11.717 5.024l.312-2.464a.593.593 0 0 0-.5-.655l-2.462-.312a.582.582 0 1 0-.156 1.154l1.029.125a24.63 24.63 0 0 1-8.825 5.395.592.592 0 0 0 .185 1.154.4.4 0 0 0 .187-.031 25.007 25.007 0 0 0 9.2-5.644l-.156 1.091a.593.593 0 0 0 .5.655h.062a.563.563 0 0 0 .624-.468z" class="cls-1" data-name="Path 2851" transform="translate(-.647 -1.59)"/>
        </g>
    </g>
</svg>
