<svg id="Confirm_Default" data-name="Confirm/Default" xmlns="http://www.w3.org/2000/svg" width="16" height="16" viewBox="0 0 16 16">
  <rect id="Rectangle_2007" data-name="Rectangle 2007" width="16" height="16" transform="translate(0 0)" fill="none"/>
  <g id="noun_Judge_1076388" transform="translate(-5.332 -5.46)">
    <g id="Group_10209" data-name="Group 10209" transform="translate(5.333 5.46)">
      <g id="Group_10208" data-name="Group 10208" transform="translate(0 0)">
        <path id="Path_2864" data-name="Path 2864" d="M32.1,18.256c1.573-1.768,3.124-3.512,4.7-5.256,1.388,1.256,2.753,2.489,4.165,3.745-.185.209-.37.442-.555.651l-.555.628a.651.651,0,0,0,.046,1c1.365,1.256,2.753,2.489,4.142,3.745.74.674,1.5,1.349,2.244,2.023a1.127,1.127,0,0,1,.139,1.6,1.091,1.091,0,0,1-1.6.116c-1.018-.884-2.013-1.791-3.008-2.7-1.134-1.023-2.268-2.047-3.425-3.07a.644.644,0,0,0-.995.047c-.37.419-.74.814-1.134,1.256C34.877,20.768,33.488,19.512,32.1,18.256Z" transform="translate(-30.697 -11.433)" fill="#d55254"/>
        <path id="Path_2865" data-name="Path 2865" d="M56.746,11.037C55.171,9.613,53.6,8.211,52,6.787a10.42,10.42,0,0,1,.82-.863.788.788,0,0,1,1.1.086c.518.453,1.036.928,1.553,1.381.6.539,1.208,1.1,1.812,1.64A.813.813,0,0,1,57.35,10.3,6.027,6.027,0,0,1,56.746,11.037Z" transform="translate(-45.705 -5.738)" fill="#d55254"/>
        <path id="Path_2866" data-name="Path 2866" d="M31.206,39.872c-.259.28-.5.561-.734.8a.814.814,0,0,1-1.143-.022c-.539-.475-1.057-.949-1.575-1.424-.6-.539-1.208-1.079-1.834-1.64a.841.841,0,0,1-.065-1.273c.216-.237.41-.475.626-.712Z" transform="translate(-25.596 -28.448)" fill="#d55254"/>
      </g>
    </g>
  </g>
</svg>
