<svg xmlns="http://www.w3.org/2000/svg" id="Component_31_19" width="16" height="16" data-name="Component 31 – 19" viewBox="0 0 16 16">
    <path id="Rectangle_1131" fill="none" d="M0 0H16V16H0z" data-name="Rectangle 1131"/>
    <g id="noun_Calendar_3451563" transform="translate(-2 -1)">
        <path id="Path_2948" fill="#afbbcb" d="M14.454 3.527h-.764v-.763a.764.764 0 1 0-1.527 0v.764H7.582v-.764a.764.764 0 0 0-1.527 0v.764h-.764A2.291 2.291 0 0 0 3 5.818v8.4a2.291 2.291 0 0 0 2.291 2.291h9.164a2.291 2.291 0 0 0 2.291-2.291v-8.4a2.291 2.291 0 0 0-2.292-2.291zM6.818 14.218a.764.764 0 1 1 .764-.764.764.764 0 0 1-.764.764zm0-3.055a.764.764 0 1 1 .764-.764.764.764 0 0 1-.764.765zm3.055 3.055a.764.764 0 1 1 .764-.764.764.764 0 0 1-.764.764zm0-3.055a.764.764 0 1 1 .764-.764.764.764 0 0 1-.764.765zm3.055 0a.764.764 0 1 1 .764-.764.764.764 0 0 1-.765.765zm2.291-3.055H4.527v-2.29a.764.764 0 0 1 .764-.764h.764v.764a.764.764 0 0 0 1.527 0v-.763h4.582v.764a.764.764 0 1 0 1.527 0v-.764h.764a.764.764 0 0 1 .764.764z" data-name="Path 2948"/>
    </g>
</svg>
