<svg xmlns="http://www.w3.org/2000/svg" width="16" height="16" viewBox="0 0 16 16">
    <defs>
        <style>
            .cls-3{fill:#cd2d2f}
        </style>
    </defs>
    <g id="Component_31_3" data-name="Component 31 – 3" opacity="0.8">
        <path id="Rectangle_1131" fill="none" d="M0 0H16V16H0z" data-name="Rectangle 1131"/>
        <g id="noun_schedule_2080593">
            <g id="Group_10072" data-name="Group 10072">
                <path id="Path_2828" d="M40.7 60.3h-1.4a.507.507 0 0 0-.505.505v.859a.507.507 0 0 0 .505.505h1.4a.507.507 0 0 0 .505-.505v-.859a.518.518 0 0 0-.505-.505z" class="cls-3" data-name="Path 2828" transform="translate(-32.686 -50.717)"/>
                <path id="Path_2829" d="M19.3 60.3h-1.4a.507.507 0 0 0-.505.505v.859a.507.507 0 0 0 .505.505h1.4a.507.507 0 0 0 .505-.505v-.859a.518.518 0 0 0-.505-.505z" class="cls-3" data-name="Path 2829" transform="translate(-14.891 -50.717)"/>
                <path id="Path_2830" d="M40.7 41.6h-1.4a.507.507 0 0 0-.505.505v.859a.507.507 0 0 0 .505.505h1.4a.507.507 0 0 0 .505-.505v-.859a.518.518 0 0 0-.505-.505z" class="cls-3" data-name="Path 2830" transform="translate(-32.686 -35.166)"/>
                <path id="Path_2831" d="M19.3 41.6h-1.4a.507.507 0 0 0-.505.505v.859a.507.507 0 0 0 .505.505h1.4a.507.507 0 0 0 .505-.505v-.859a.518.518 0 0 0-.505-.505z" class="cls-3" data-name="Path 2831" transform="translate(-14.891 -35.166)"/>
                <path id="Path_2832" d="M62.1 41.6h-1.4a.507.507 0 0 0-.505.505v.859a.507.507 0 0 0 .505.505h1.4a.507.507 0 0 0 .505-.505v-.859a.518.518 0 0 0-.505-.505z" class="cls-3" data-name="Path 2832" transform="translate(-50.482 -35.166)"/>
                <path id="Path_2833" d="M17.136 13.135V6.448A1.684 1.684 0 0 0 16.7 5.32V5.3h-.017a1.719 1.719 0 0 0-1.28-.573h-1.265v-.754a.568.568 0 0 0-.573-.573h-.859a.568.568 0 0 0-.573.573v.758H7.485v-.758a.568.568 0 0 0-.572-.573h-.859a.568.568 0 0 0-.573.573v.758H4.218a1.719 1.719 0 0 0-1.28.573v.016A1.684 1.684 0 0 0 2.5 6.448v9.179a1.725 1.725 0 0 0 1.718 1.718h8.067a3.3 3.3 0 1 0 4.851-4.211zM11.9 15.8a3.271 3.271 0 0 0 .034.4H4.218a.568.568 0 0 1-.573-.573V8.621h12.329V12.6a2.962 2.962 0 0 0-.775-.1 3.306 3.306 0 0 0-3.299 3.3zm4.665.691h-1.619a.435.435 0 0 1-.438-.438v-1.7a.438.438 0 0 1 .876 0v1.28h1.179a.435.435 0 0 1 .438.438.443.443 0 0 1-.438.415z" class="cls-3" data-name="Path 2833" transform="translate(-2.5 -3.4)"/>
            </g>
        </g>
    </g>
</svg>
