<svg xmlns="http://www.w3.org/2000/svg" id="Component_19_3" width="16" height="16" viewBox="0 0 16 16">
    <defs>
        <style>
            .cls-2{fill:#4c698d}
        </style>
    </defs>
    <path id="Rectangle_1096" fill="none" d="M0 0H16V16H0z"/>
    <g id="print" transform="translate(1.387 1.386)">
        <path id="Path_2791" d="M12.689 2.769V1.523A1.518 1.518 0 0 0 11.179 0H6.51A1.518 1.518 0 0 0 5 1.523v1.246z" class="cls-2" transform="translate(-2.231)"/>
        <path id="Path_2792" d="M11.712 6H1.516A1.521 1.521 0 0 0 0 7.523v3.6a1.521 1.521 0 0 0 1.516 1.523H2.2v-2.354a.968.968 0 0 1 .964-.969h6.889a.968.968 0 0 1 .964.969v2.354h.689a1.521 1.521 0 0 0 1.516-1.523v-3.6A1.521 1.521 0 0 0 11.712 6z" class="cls-2" transform="translate(0 -2.709)"/>
        <path id="Path_2793" d="M12.277 13H5.412a.414.414 0 0 0-.412.415v4.154a1.518 1.518 0 0 0 1.51 1.523h4.668a1.518 1.518 0 0 0 1.51-1.523v-4.154a.414.414 0 0 0-.411-.415zM7.06 14.938h.824a.415.415 0 0 1 0 .831H7.06a.415.415 0 0 1 0-.831zm3.021 2.492H7.06a.415.415 0 0 1 0-.831h3.02a.415.415 0 0 1 0 .831z" class="cls-2" transform="translate(-2.231 -5.865)"/>
    </g>
</svg>
