<svg xmlns="http://www.w3.org/2000/svg" width="16" height="16" viewBox="0 0 16 16">
  <g id="Group_11617" data-name="Group 11617" transform="translate(-122 -298)">
    <rect id="Rectangle_2227" data-name="Rectangle 2227" width="16" height="16" transform="translate(122 298)" fill="none"/>
    <path id="Union_12" data-name="Union 12" d="M-352.786,4441.693l-3.172-3.228c-.522,1.159-.822,1.391-1.18,1.391a.8.8,0,0,1-.8-.8v-3.2a.8.8,0,0,1,.8-.8h3.195a.8.8,0,0,1,.8.8c0,.349-.222.642-1.311,1.143l3.147,3.206a1.045,1.045,0,0,1,0,1.48,1.034,1.034,0,0,1-.738.306A1.035,1.035,0,0,1-352.786,4441.693Zm-13.907,0a1.048,1.048,0,0,1,0-1.483l3.147-3.2c-1.089-.5-1.311-.8-1.311-1.144a.8.8,0,0,1,.8-.8h3.195a.8.8,0,0,1,.8.8v3.2a.8.8,0,0,1-.8.8c-.356,0-.658-.231-1.18-1.39l-3.172,3.228a1.04,1.04,0,0,1-.738.306A1.041,1.041,0,0,1-366.693,4441.693Zm9.556-8.757a.8.8,0,0,1-.8-.8v-3.2a.8.8,0,0,1,.8-.8c.356,0,.658.234,1.178,1.39l3.172-3.227a1.042,1.042,0,0,1,1.478,0,1.045,1.045,0,0,1,0,1.48l-3.146,3.206c1.089.5,1.31.795,1.31,1.144a.8.8,0,0,1-.8.8Zm-6.922,0a.8.8,0,0,1-.8-.8c0-.349.222-.643,1.313-1.143l-3.149-3.207a1.048,1.048,0,0,1,0-1.48,1.042,1.042,0,0,1,1.478,0l3.172,3.23c.521-1.16.824-1.394,1.18-1.394a.8.8,0,0,1,.8.8v3.2a.8.8,0,0,1-.8.8Z" transform="translate(489 -4128)" fill="#fff"/>
  </g>
</svg>
