<svg xmlns="http://www.w3.org/2000/svg" width="16" height="16" viewBox="0 0 16 16">
  <g id="Reschedule-Default" transform="translate(-127 -1116)">
    <g id="Group_11544" data-name="Group 11544">
      <g id="Component_31_76" data-name="Component 31 – 76" transform="translate(127 1116)" opacity="0.8">
        <rect id="Rectangle_1131" data-name="Rectangle 1131" width="16" height="16" fill="none"/>
        <g id="noun_Calendar_3451563" transform="translate(-2 -1)">
          <path id="Path_2948" data-name="Path 2948" d="M12.513,3.268h-.634V2.634a.634.634,0,1,0-1.268,0v.634H6.805V2.634a.634.634,0,0,0-1.268,0v.634H4.9A1.9,1.9,0,0,0,3,5.171v6.976a1.9,1.9,0,0,0,1.9,1.9h7.611a1.9,1.9,0,0,0,1.9-1.9V5.171A1.9,1.9,0,0,0,12.513,3.268ZM6.171,12.148a.634.634,0,1,1,.634-.634A.634.634,0,0,1,6.171,12.148Zm0-2.537a.634.634,0,1,1,.634-.634A.634.634,0,0,1,6.171,9.611Zm2.537,2.537a.634.634,0,1,1,.634-.634A.634.634,0,0,1,8.708,12.148Zm0-2.537a.634.634,0,1,1,.634-.634A.634.634,0,0,1,8.708,9.611Zm2.537,0a.634.634,0,1,1,.634-.634A.634.634,0,0,1,11.245,9.611Zm1.9-2.537H4.268v-1.9A.634.634,0,0,1,4.9,4.537h.634v.634a.634.634,0,0,0,1.268,0V4.537h3.805v.634a.634.634,0,1,0,1.268,0V4.537h.634a.634.634,0,0,1,.634.634Z" transform="translate(0)" fill="#cd2d2f"/>
        </g>
      </g>
      <g id="Path_3762" data-name="Path 3762" transform="translate(134 1124)" fill="#fae9e9">
        <path d="M 4 7.5 C 2.070090055465698 7.5 0.5 5.929910182952881 0.5 4 C 0.5 2.070090055465698 2.070090055465698 0.5 4 0.5 C 5.929910182952881 0.5 7.5 2.070090055465698 7.5 4 C 7.5 5.929910182952881 5.929910182952881 7.5 4 7.5 Z" stroke="none"/>
        <path d="M 4 1 C 2.345789909362793 1 1 2.345789909362793 1 4 C 1 5.654210090637207 2.345789909362793 7 4 7 C 5.654210090637207 7 7 5.654210090637207 7 4 C 7 2.345789909362793 5.654210090637207 1 4 1 M 4 0 C 6.209139823913574 0 8 1.790860176086426 8 4 C 8 6.209139823913574 6.209139823913574 8 4 8 C 1.790860176086426 8 0 6.209139823913574 0 4 C 0 1.790860176086426 1.790860176086426 0 4 0 Z" stroke="none" fill="#d55254"/>
      </g>
      <path id="Path_3760" data-name="Path 3760" d="M17885.354,3202.362v2.291l1.029,1.19" transform="translate(-17747.375 -2076.538)" fill="none" stroke="#d55254" stroke-linecap="round" stroke-linejoin="round" stroke-width="1"/>
    </g>
  </g>
</svg>
