<svg xmlns="http://www.w3.org/2000/svg" width="16" height="16" viewBox="0 0 16 16">
    <path fill="none" d="M0 0H16V16H0z"/>
    <g>
        <path fill="#4c698d" d="M44.937 43.462a.679.679 0 0 1 0 .983l-.492.492a.679.679 0 0 1-.983 0L39.424 40.9l-4.038 4.038a.679.679 0 0 1-.983 0l-.492-.492a.679.679 0 0 1 0-.983l4.038-4.038-4.038-4.038a.679.679 0 0 1 0-.983l.492-.492a.679.679 0 0 1 .983 0l4.038 4.038 4.038-4.038a.679.679 0 0 1 .983 0l.492.492a.679.679 0 0 1 0 .983L40.9 39.424z" transform="translate(-24.551 59.749) translate(-6.872 -90.872)"/>
    </g>
</svg>
