<svg xmlns="http://www.w3.org/2000/svg" width="22" height="22" viewBox="0 0 22 22">
    <defs>
        <style>
            .cls-2{fill:#fff}
        </style>
    </defs>
    <g id="Group_11716" transform="translate(-306 -411)">
        <path id="Rectangle_2470" fill="none" d="M0 0H22V22H0z" transform="translate(306 411)"/>
        <g id="warn" transform="translate(313.527 411.999)">
            <path id="Path_3813" d="M257.173 107.8zm0 0" class="cls-2" transform="translate(-254.127 -107.801)"/>
            <path id="Path_3814" d="M220.7 110.633v7.6a2.948 2.948 0 0 1-3.046 2.833h-.008a3.352 3.352 0 0 1-2.146-.829 2.72 2.72 0 0 1-.892-2v-7.6a3 3 0 0 1 3.038-2.833h.008a2.948 2.948 0 0 1 3.046 2.829zm0 0" class="cls-2" transform="translate(-214.609 -107.801)"/>
            <path id="Path_3815" d="M257.168 307.563zm0 0" class="cls-2" transform="translate(-254.122 -293.977)"/>
            <path id="Path_3816" d="M222.657 324.152a2.886 2.886 0 0 1-2.883 2.883h-.007a2.883 2.883 0 0 1 0-5.766h.007a2.886 2.886 0 0 1 2.883 2.883zm0 0" class="cls-2" transform="translate(-216.728 -307.026)"/>
            <g id="Group_11715" transform="translate(3.038)">
                <path id="Path_3817" d="M260.051 324.152a2.886 2.886 0 0 1-2.883 2.883h-.007v-5.765h.007a2.886 2.886 0 0 1 2.883 2.882zm0 0" class="cls-2" transform="translate(-257.16 -307.026)"/>
                <path id="Path_3818" d="M260.214 110.633v7.6a2.948 2.948 0 0 1-3.046 2.833h-.008V107.8h.008a2.948 2.948 0 0 1 3.046 2.833zm0 0" class="cls-2" transform="translate(-257.16 -107.801)"/>
            </g>
        </g>
    </g>
</svg>
