<svg xmlns="http://www.w3.org/2000/svg" id="Component_32_17" width="16" height="16" data-name="Component 32 – 17" viewBox="0 0 16 16">
    <path id="Rectangle_1132" fill="none" d="M0 0H16V16H0z" data-name="Rectangle 1132"/>
    <g id="noun_more_1590820" transform="translate(-4.222 -3)">
        <g id="Group_10073" data-name="Group 10073" transform="translate(10 3)">
            <path id="Path_2834" fill="#afbbcb" d="M11.763 6.526a1.763 1.763 0 1 1 1.763-1.763 1.763 1.763 0 0 1-1.763 1.763zm1.763 4.408a1.763 1.763 0 1 0-1.763 1.766 1.763 1.763 0 0 0 1.763-1.765zm0 6.171a1.763 1.763 0 1 0-1.763 1.763 1.763 1.763 0 0 0 1.763-1.762z" data-name="Path 2834" transform="translate(-10 -3)"/>
        </g>
    </g>
</svg>
