<svg xmlns="http://www.w3.org/2000/svg" width="16" height="16" viewBox="0 0 16 16">
    <path fill="none" d="M0 0H16V16H0z"/>
    <g>
        <path fill="#4c698d" d="M5 19.148a1.338 1.338 0 1 1 1.338 1.338A1.338 1.338 0 0 1 5 19.148zm1.338-8.473A1.338 1.338 0 1 0 5 9.338a1.338 1.338 0 0 0 1.338 1.338zm0 4.905A1.338 1.338 0 1 0 5 14.243a1.338 1.338 0 0 0 1.338 1.338zm4.462-5.35h6.689a.892.892 0 0 0 0-1.784H10.8a.892.892 0 1 0 0 1.784zm0 4.905h6.689a.892.892 0 0 0 0-1.784H10.8a.892.892 0 1 0 0 1.784zm0 4.905h6.689a.892.892 0 0 0 0-1.784H10.8a.892.892 0 0 0 0 1.784z" transform="translate(-2.667 -4.756) translate(-1.333 -1.244)"/>
    </g>
</svg>
