<svg xmlns="http://www.w3.org/2000/svg" id="Component_45_15" width="16" height="16" viewBox="0 0 16 16">
    <defs>
        <style>
            .cls-2{fill:#4c698d}
        </style>
    </defs>
    <path id="Rectangle_2088" fill="none" d="M0 0H16V16H0z"/>
    <g id="noun_tiling_517057" transform="translate(-4 -4)">
        <path id="Path_2966" d="M46.459 46.436v-.169l-.165.169z" class="cls-2" transform="translate(-34.871 -34.848)"/>
        <path id="Path_2967" d="M43.282 43.685l.494-.507v-.169l-.659.676z" class="cls-2" transform="translate(-32.188 -32.097)"/>
        <path id="Path_2968" d="M40.106 40.934l.988-1.014v-.169l-1.153 1.183z" class="cls-2" transform="translate(-29.506 -29.345)"/>
        <path id="Path_2969" d="M36.929 38.182l1.482-1.52v-.169l-1.647 1.689z" class="cls-2" transform="translate(-26.824 -26.594)"/>
        <path id="Path_2970" d="M33.753 35.431l1.976-2.031v-.169l-2.141 2.2z" class="cls-2" transform="translate(-24.141 -23.843)"/>
        <path id="Path_2971" d="M30.576 32.68l2.471-2.534v-.169l-2.635 2.7z" class="cls-2" transform="translate(-21.459 -21.092)"/>
        <path id="Path_2972" d="M27.4 29.929l2.965-3.041v-.169l-3.129 3.21z" class="cls-2" transform="translate(-18.776 -18.341)"/>
        <path id="Path_2973" d="M24.224 27.178l3.459-3.548v-.169l-3.624 3.716z" class="cls-2" transform="translate(-16.094 -15.59)"/>
        <path id="Path_2974" d="M21.047 24.427L25 20.373V20.2l-4.118 4.223z" class="cls-2" transform="translate(-13.412 -12.839)"/>
        <path id="Path_2975" d="M17.871 21.676l4.447-4.561v-.169l-4.612 4.73z" class="cls-2" transform="translate(-10.729 -10.087)"/>
        <path id="Path_2976" d="M14.694 18.925l4.941-5.068v-.169l-5.106 5.237z" class="cls-2" transform="translate(-8.047 -7.336)"/>
        <path id="Path_2977" d="M11.518 16.173l5.435-5.573v-.17l-5.6 5.744z" class="cls-2" transform="translate(-5.365 -4.585)"/>
        <path id="Path_2978" d="M8.341 13.422l5.929-6.081v-.169l-6.094 6.25z" class="cls-2" transform="translate(-2.682 -1.834)"/>
        <path id="Path_2979" d="M5.165 11.588L11.588 5h-.165L5 11.588z" class="cls-2"/>
        <path id="Path_2980" d="M5 11.25L11.094 5h-.165L5 11.081z" class="cls-2"/>
        <path id="Path_2981" d="M5 10.744L10.6 5h-.165L5 10.575z" class="cls-2"/>
        <path id="Path_2982" d="M5 10.237L10.106 5h-.165L5 10.068z" class="cls-2"/>
        <path id="Path_2983" d="M5 9.73L9.612 5h-.165L5 9.561z" class="cls-2"/>
        <path id="Path_2984" d="M5 9.223L9.118 5h-.165L5 9.054z" class="cls-2"/>
        <path id="Path_2985" d="M5 8.716L8.624 5h-.165L5 8.548z" class="cls-2"/>
        <path id="Path_2986" d="M5 8.21L8.129 5h-.164L5 8.041z" class="cls-2"/>
        <path id="Path_2987" d="M5 7.7L7.635 5h-.164L5 7.534z" class="cls-2"/>
        <path id="Path_2988" d="M5 7.2L7.141 5h-.165L5 7.027z" class="cls-2"/>
        <path id="Path_2989" d="M5 6.689L6.647 5h-.165L5 6.52z" class="cls-2"/>
        <path id="Path_2990" d="M5 6.183L6.153 5h-.165L5 6.014z" class="cls-2"/>
        <path id="Path_2991" d="M5 5.676L5.659 5h-.165L5 5.507z" class="cls-2"/>
        <path id="Path_2992" d="M5 5.169L5.165 5H5z" class="cls-2"/>
        <path id="Path_2993" d="M93.156 93.114v-.347l-.34.347z" class="cls-2" transform="translate(-74.156 -74.114)"/>
        <path id="Path_2994" d="M89.911 90.306l.507-.52v-.345l-.844.865z" class="cls-2" transform="translate(-71.418 -71.306)"/>
        <path id="Path_2995" d="M86.635 87.484l1.017-1.04V86.1L86.3 87.484z" class="cls-2" transform="translate(-68.651 -68.484)"/>
        <path id="Path_2996" d="M83.376 84.648l1.524-1.56v-.347l-1.861 1.907z" class="cls-2" transform="translate(-65.899 -65.648)"/>
        <path id="Path_2997" d="M80.117 81.826l2.031-2.079V79.4l-2.368 2.427z" class="cls-2" transform="translate(-63.147 -62.826)"/>
        <path id="Path_2998" d="M76.86 79l2.535-2.6v-.347L76.52 79z" class="cls-2" transform="translate(-60.395 -60.004)"/>
        <path id="Path_2999" d="M73.6 76.182l3.042-3.122v-.345l-3.382 3.467z" class="cls-2" transform="translate(-57.643 -57.182)"/>
        <path id="Path_3000" d="M70.342 73.36l3.549-3.642v-.345L70 73.36z" class="cls-2" transform="translate(-54.89 -54.36)"/>
        <path id="Path_3001" d="M67.082 70.537l4.056-4.161v-.345l-4.4 4.506z" class="cls-2" transform="translate(-52.138 -51.537)"/>
        <path id="Path_3002" d="M63.837 67.715l4.563-4.681v-.345l-4.9 5.026z" class="cls-2" transform="translate(-49.4 -48.715)"/>
        <path id="Path_3003" d="M60.578 64.893l5.07-5.2v-.347l-5.407 5.546z" class="cls-2" transform="translate(-46.648 -45.893)"/>
        <path id="Path_3004" d="M57.319 62.057l5.581-5.718v-.35l-5.914 6.068z" class="cls-2" transform="translate(-43.896 -43.057)"/>
        <path id="Path_3005" d="M54.06 59.235L60.143 53v-.35l-6.421 6.588z" class="cls-2" transform="translate(-41.143 -40.235)"/>
        <path id="Path_3006" d="M52.647 59.233l6.421-6.586h-.34l-6.081 6.241z" class="cls-2" transform="translate(-40.235 -40.235)"/>
        <path id="Path_3007" d="M52.647 58.713l5.914-6.066h-.34l-5.574 5.721z" class="cls-2" transform="translate(-40.235 -40.235)"/>
        <path id="Path_3008" d="M52.647 58.2l5.407-5.549h-.34l-5.067 5.2v.349z" class="cls-2" transform="translate(-40.235 -40.235)"/>
        <path id="Path_3009" d="M52.647 57.676l4.9-5.029h-.34l-4.56 4.679z" class="cls-2" transform="translate(-40.235 -40.235)"/>
        <path id="Path_3010" d="M52.647 57.156l4.393-4.509h-.34l-4.056 4.159z" class="cls-2" transform="translate(-40.235 -40.235)"/>
        <path id="Path_3011" d="M52.647 56.636l3.886-3.989H56.2l-3.549 3.639z" class="cls-2" transform="translate(-40.235 -40.235)"/>
        <path id="Path_3012" d="M52.647 56.114l3.379-3.467h-.337l-3.042 3.122z" class="cls-2" transform="translate(-40.235 -40.235)"/>
        <path id="Path_3013" d="M52.647 55.594l2.872-2.947h-.337l-2.535 2.6z" class="cls-2" transform="translate(-40.235 -40.235)"/>
        <path id="Path_3014" d="M52.647 55.074l2.365-2.427h-.337l-2.028 2.082z" class="cls-2" transform="translate(-40.235 -40.235)"/>
        <path id="Path_3015" d="M52.647 54.554l1.858-1.907h-.337l-1.521 1.562z" class="cls-2" transform="translate(-40.235 -40.235)"/>
        <path id="Path_3016" d="M52.647 54.034L54 52.647h-.337l-1.014 1.042z" class="cls-2" transform="translate(-40.235 -40.235)"/>
        <path id="Path_3017" d="M52.647 53.514l.844-.867h-.337l-.507.52z" class="cls-2" transform="translate(-40.235 -40.235)"/>
        <path id="Path_3018" d="M52.647 52.994l.337-.347h-.337z" class="cls-2" transform="translate(-40.235 -40.235)"/>
        <path id="Path_3019" d="M59.235 11.588h-6.588V5h6.588z" class="cls-2" transform="translate(-40.235)"/>
        <path id="Path_3020" d="M11.588 59.235H5v-6.588h6.588z" class="cls-2" transform="translate(0 -40.235)"/>
    </g>
</svg>
