<svg xmlns="http://www.w3.org/2000/svg" width="16" height="16" viewBox="0 0 16 16">
    <g opacity="0.9">
        <g>
            <g>
                <path fill="none" d="M0 0H16V16H0z" transform="translate(-277 -222) translate(-612 -90) translate(889 312)"/>
                <g>
                    <path fill="#ba91e4" d="M-10305.481-1529h-8.646a1.194 1.194 0 0 1-1.178-1.206v-11.587a1.194 1.194 0 0 1 1.178-1.206h6.724a.4.4 0 0 1 .284.119l2.7 2.765a.416.416 0 0 1 .116.29v9.62a1.193 1.193 0 0 1-1.178 1.205zm-6.511-3.534c-.173 0-.313.2-.313.438s.141.438.313.438h4.5c.173 0 .313-.2.313-.437s-.141-.437-.313-.437zm0-2.462c-.173 0-.313.2-.313.438s.141.438.313.438h4.5c.173 0 .313-.2.313-.437s-.141-.438-.313-.438zm0-2.462c-.173 0-.313.2-.313.438s.141.44.313.44h4.5c.173 0 .313-.2.313-.44s-.141-.437-.313-.437z" transform="translate(-277 -222) translate(-612 -90) translate(889 312) translate(-6.695 1.001) translate(10325 1543)"/>
                </g>
            </g>
        </g>
    </g>
</svg>
