<svg xmlns="http://www.w3.org/2000/svg" width="16" height="16" viewBox="0 0 16 16">
    <g>
        <g>
            <g>
                <g>
                    <path fill="#fff" d="M-9813.481-1529h-8.647a1.193 1.193 0 0 1-1.177-1.206v-11.587a1.193 1.193 0 0 1 1.177-1.206h6.725a.4.4 0 0 1 .286.118l2.694 2.764a.415.415 0 0 1 .119.293v9.617a1.193 1.193 0 0 1-1.177 1.207zm-6.513-3.533c-.171 0-.311.2-.311.439s.14.436.311.436h4.509c.171 0 .311-.2.311-.436s-.14-.439-.311-.439zm0-2.46c-.171 0-.311.2-.311.436s.14.439.311.439h4.509c.171 0 .311-.2.311-.439s-.14-.436-.311-.436zm0-2.46c-.171 0-.311.2-.311.436s.14.439.311.439h4.509c.171 0 .311-.2.311-.439s-.14-.436-.311-.436z" transform="translate(-303.5 -221.5) translate(-612 -90) translate(917.999 313.001) translate(-35.694) translate(9859 1543)"/>
                </g>
            </g>
        </g>
        <path fill="none" d="M0 0H16V16H0z" transform="translate(-303.5 -221.5) translate(303.5 221.5)"/>
    </g>
</svg>
