<svg xmlns="http://www.w3.org/2000/svg" id="Component_30_8" width="16" height="16" viewBox="0 0 16 16">
    <defs>
        <style>
            .cls-2{fill:#4c698d}
        </style>
    </defs>
    <path id="Rectangle_1130" fill="none" d="M0 0H16V16H0z"/>
    <g id="noun_Document_504765" transform="translate(-7.195 1.001)">
        <path id="Exclusion_17" d="M-1991.98 4222h-8.648a1.193 1.193 0 0 1-1.176-1.207v-11.586a1.193 1.193 0 0 1 1.176-1.207h6.725a.4.4 0 0 1 .284.12l2.7 2.765a.419.419 0 0 1 .118.291v9.618a1.192 1.192 0 0 1-1.179 1.206zm-6.513-3.534c-.172 0-.312.2-.312.438s.14.438.312.438h4.507c.172 0 .312-.2.312-.437s-.14-.438-.312-.438zm0-2.461c-.172 0-.312.2-.312.439s.14.438.312.438h4.507c.172 0 .312-.2.312-.437s-.14-.439-.312-.439zm0-2.461c-.172 0-.312.2-.312.439s.14.438.312.438h4.507c.172 0 .312-.2.312-.437s-.14-.439-.312-.439z" class="cls-2" transform="translate(2011.5 -4208)"/>
        <path id="Path_2824" d="M68.054 3.814h-2.938a.438.438 0 0 1-.438-.438V.437a.438.438 0 0 1 .748-.31l2.939 2.939a.438.438 0 0 1-.31.748zm-2.5-.876H67l-1.446-1.444z" class="cls-2" transform="translate(-47.798)"/>
    </g>
</svg>
