<svg id="Verify-Default_" data-name="Verify-Default " xmlns="http://www.w3.org/2000/svg" width="16.002" height="16" viewBox="0 0 16.002 16">
  <path id="Exclusion_7" data-name="Exclusion 7" d="M-17867-3133a8.007,8.007,0,0,1-8-8,8.007,8.007,0,0,1,8-8,8.011,8.011,0,0,1,8,8A8.011,8.011,0,0,1-17867-3133Zm-4.842-9.11a1.15,1.15,0,0,0-.82.34,1.161,1.161,0,0,0,0,1.633l2.895,2.889a1.134,1.134,0,0,0,.816.341,1.15,1.15,0,0,0,.816-.341l5.777-5.778a1.161,1.161,0,0,0,0-1.633,1.15,1.15,0,0,0-.818-.34,1.15,1.15,0,0,0-.818.34l-4.957,4.962-2.072-2.073A1.149,1.149,0,0,0-17871.844-3142.111Z" transform="translate(17875 3149)" fill="#d55254"/>
  <rect id="Rectangle_1928" data-name="Rectangle 1928" width="16" height="16" fill="none"/>
</svg>
