<svg xmlns="http://www.w3.org/2000/svg" width="16" height="16" viewBox="0 0 16 16">
  <g id="Picking_Info-Default" data-name="Picking Info-Default" transform="translate(-127 -1116)">
    <g id="Group_11570" data-name="Group 11570">
      <g id="Group_11562" data-name="Group 11562">
        <g id="Component_31_91" data-name="Component 31 – 91" transform="translate(127 1116)" opacity="0.8">
          <rect id="Rectangle_1131" data-name="Rectangle 1131" width="16" height="16" fill="none"/>
        </g>
      </g>
      <g id="Group_11568" data-name="Group 11568" transform="translate(0.725 -88)">
        <g id="noun_inspection_2927634" transform="translate(129.275 1205)">
          <g id="Group_11568-2" data-name="Group 11568" transform="translate(0 0)">
            <path id="Subtraction_1" data-name="Subtraction 1" d="M-852.2,227h-7.453a1.358,1.358,0,0,1-1-.359,1.345,1.345,0,0,1-.346-.991v-11.3c0-.534.038-.863.246-1.072a1.534,1.534,0,0,1,1.1-.278H-854a.348.348,0,0,1,.247.1l2.8,2.8a.352.352,0,0,1,.1.247c0,.072-.062,7.224,0,7.308v2.193a1.547,1.547,0,0,1-.394,1A1.291,1.291,0,0,1-852.2,227Zm-4.247-9.032a1.841,1.841,0,0,0-.288.02c-.107.019-.2.04-.289.063a4.356,4.356,0,0,0-.5.162c-.086.034-.218.087-.367.158l-.2.109-.133.085a.231.231,0,0,0-.1.149.226.226,0,0,0,.035.174l.016.023a.288.288,0,0,0,.189.095l.038.009a.74.74,0,0,1,.177.03.475.475,0,0,1,.247.189.514.514,0,0,1,.016.389l-.006.024c-.1.4-.2.816-.292,1.216l0,.01c-.08.341-.162.694-.247,1.037a.674.674,0,0,0,.049.589c.119.152.354.22.763.22l.241,0h.134a.777.777,0,0,0,.589-.214l.2-.133a.479.479,0,0,0,.112-.1.211.211,0,0,0,.059-.195c-.02-.056-.082-.1-.179-.118l-.065-.014c-.036-.007-.072-.014-.106-.023-.366-.1-.464-.255-.374-.61l.161-.629.02-.08.006-.022c.129-.5.262-1.022.39-1.534a3.319,3.319,0,0,1,.127-.377c.085-.223.158-.416.091-.543a.3.3,0,0,0-.217-.136A1.5,1.5,0,0,0-856.444,217.97ZM-857,215a1,1,0,0,0-1,1,1,1,0,0,0,1,1,1,1,0,0,0,1-1A1,1,0,0,0-857,215Zm3.351-.8v1.6h1.606l-1.606-1.6Z" transform="translate(859 -213)" fill="#d55254"/>
          </g>
        </g>
      </g>
      <g id="Ellipse_684" data-name="Ellipse 684" transform="translate(133 1123)" fill="#d55254" stroke="#fae9e9" stroke-width="0.6">
        <circle cx="4.5" cy="4.5" r="4.5" stroke="none"/>
        <circle cx="4.5" cy="4.5" r="4.2" fill="none"/>
      </g>
      <path id="Path_4222" data-name="Path 4222" d="M28.013,18.732,29.258,17.5a.3.3,0,0,0-.429-.431l-.535.537c-.09.09-.161.06-.161-.066V15.3a.3.3,0,1,0-.607,0V17.54c0,.126-.072.156-.162.066l-.535-.537a.3.3,0,0,0-.429.431l1.235,1.23A.27.27,0,0,0,28.013,18.732Zm-1.708.859a.3.3,0,0,0,0,.61h3.048a.3.3,0,0,0,0-.61Z" transform="translate(109.61 1110)" fill="#fae9e9" fill-rule="evenodd"/>
    </g>
  </g>
</svg>
