<svg xmlns="http://www.w3.org/2000/svg" width="16" height="16.014" viewBox="0 0 16 16.014">
  <g id="Info-Default" transform="translate(-127 -1116)">
    <g id="Group_12278" data-name="Group 12278">
      <g id="Group_12276" data-name="Group 12276">
        <g id="Group_12275" data-name="Group 12275">
          <g id="Group_12274" data-name="Group 12274" opacity="0.8">
            <path id="Path_4223" data-name="Path 4223" d="M0,0H16V16H0Z" transform="translate(127 1116)" fill="none"/>
          </g>
        </g>
      </g>
      <g id="Group_12277" data-name="Group 12277">
        <path id="Path_4224" data-name="Path 4224" d="M28.586,7.581l-.242.16a.435.435,0,0,0-.123.6l.029.045c.093.141.283.16.411.194a1.358,1.358,0,0,1,.32.056.856.856,0,0,1,.446.355,1.046,1.046,0,0,1,.018.774c-.342,1.4-.693,2.808-1.029,4.216A1.516,1.516,0,0,0,30.016,16a6.428,6.428,0,0,0,3.667-1.2.9.9,0,0,0,.2-.192c.218-.286.134-.506-.216-.586-.1-.024-.208-.042-.309-.069-.667-.181-.84-.48-.677-1.146.347-1.416.7-2.83,1.042-4.248a1.475,1.475,0,0,0-1.074-1.92,3.173,3.173,0,0,0-.72-.077,6.79,6.79,0,0,0-.893.1c-.19.035-.363.075-.523.118a7.878,7.878,0,0,0-.906.3c-.179.072-.406.17-.664.3ZM32.765,0a2.24,2.24,0,0,0-2.291,2.261A2.285,2.285,0,1,0,32.765,0Z" transform="translate(103.852 1116.004)" fill="#d55254"/>
      </g>
    </g>
  </g>
</svg>
