<svg xmlns="http://www.w3.org/2000/svg" width="16" height="16" viewBox="0 0 16 16">
    <g>
        <path fill="none" d="M0 0H16V16H0z" transform="translate(-122 -298) translate(122 298)"/>
        <path fill="#4c698d" d="M-356.023 4438.119l-2.449-2.493c-.4.9-.635 1.075-.911 1.075a.616.616 0 0 1-.616-.616v-2.467a.618.618 0 0 1 .616-.617h2.467a.618.618 0 0 1 .617.617c0 .27-.172.5-1.013.883l2.43 2.475a.806.806 0 0 1 0 1.143.8.8 0 0 1-.57.237.8.8 0 0 1-.571-.237zm-10.74 0a.808.808 0 0 1 0-1.144l2.43-2.475c-.841-.386-1.013-.615-1.013-.883a.617.617 0 0 1 .617-.616h2.467a.616.616 0 0 1 .616.616v2.467a.615.615 0 0 1-.616.616c-.275 0-.508-.178-.911-1.074l-2.449 2.493a.8.8 0 0 1-.57.237.8.8 0 0 1-.571-.237zm7.379-6.762a.618.618 0 0 1-.616-.617v-2.468a.617.617 0 0 1 .616-.616c.275 0 .508.181.91 1.074l2.449-2.492a.805.805 0 0 1 1.142 0 .808.808 0 0 1 0 1.144l-2.429 2.475c.841.387 1.011.615 1.011.883a.617.617 0 0 1-.616.617zm-5.346 0a.618.618 0 0 1-.616-.617c0-.269.172-.5 1.014-.882l-2.432-2.476a.81.81 0 0 1 0-1.144.805.805 0 0 1 1.142 0l2.449 2.494c.4-.9.636-1.076.911-1.076a.617.617 0 0 1 .616.616v2.468a.618.618 0 0 1-.616.617z" transform="translate(-122 -298) translate(491 -4126)"/>
    </g>
</svg>
