<svg xmlns="http://www.w3.org/2000/svg" width="16" height="16" viewBox="0 0 16 16">
    <g opacity="0.9">
        <g>
            <g>
                <path fill="none" d="M0 0H16V16H0z" transform="translate(-277 -222) translate(-612 -90) translate(889 312)"/>
                <g>
                    <path fill="#e291c2" d="M-9346.98-1528.5h-8.648a1.194 1.194 0 0 1-1.177-1.207v-11.586a1.194 1.194 0 0 1 1.177-1.207h6.726a.406.406 0 0 1 .284.12l2.7 2.764a.406.406 0 0 1 .118.291v9.618a1.193 1.193 0 0 1-1.18 1.207zm-6.514-3.534c-.171 0-.31.2-.31.439s.139.437.31.437h4.509c.171 0 .31-.2.31-.437s-.139-.439-.31-.439zm0-2.461c-.171 0-.31.2-.31.439s.139.437.31.437h4.509c.171 0 .31-.2.31-.437s-.139-.439-.31-.439zm0-2.461c-.171 0-.31.2-.31.439s.139.437.31.437h4.509c.171 0 .31-.2.31-.437s-.139-.439-.31-.439z" transform="translate(-277 -222) translate(-612 -90) translate(889 312) translate(-6.695 1.001) translate(9366.5 1542.5)"/>
                </g>
            </g>
        </g>
    </g>
</svg>
