<svg xmlns="http://www.w3.org/2000/svg" width="16" height="16" viewBox="0 0 16 16">
    <path fill="none" d="M0 0H16V16H0z"/>
    <g>
        <path fill="#4c698d" d="M15.675 25.257a.518.518 0 0 1-.55 0l-6.893-4.27a.153.153 0 0 0-.232.139v6.486a1.193 1.193 0 0 0 1.163 1.221h12.473a1.194 1.194 0 0 0 1.164-1.222v-6.485a.154.154 0 0 0-.231-.139l-6.894 4.27zm.031-1.338l7.015-4.345a.162.162 0 0 0 .075-.15 1.189 1.189 0 0 0-1.159-1.118H9.163A1.189 1.189 0 0 0 8 19.424a.162.162 0 0 0 .075.15l7.015 4.345a.577.577 0 0 0 .616 0z" transform="translate(-7.38 -15.61)"/>
    </g>
</svg>
