<svg xmlns="http://www.w3.org/2000/svg" width="15.999" height="15.374" viewBox="0 0 15.999 15.374">
    <defs>
        <style>
            .cls-1{fill:#fff}
        </style>
    </defs>
    <g id="noun_Judge_1076388" transform="translate(-5.333 -5.46)">
        <g id="Group_10209" data-name="Group 10209" transform="translate(5.333 5.46)">
            <g id="Group_10208" data-name="Group 10208">
                <path id="Path_2864" d="M32.1 18.256c1.573-1.768 3.124-3.512 4.7-5.256 1.388 1.256 2.753 2.489 4.165 3.745-.185.209-.37.442-.555.651l-.555.628a.651.651 0 0 0 .046 1c1.365 1.256 2.753 2.489 4.142 3.745.74.674 1.5 1.349 2.244 2.023a1.127 1.127 0 0 1 .139 1.6 1.091 1.091 0 0 1-1.6.116c-1.018-.884-2.013-1.791-3.008-2.7-1.134-1.023-2.268-2.047-3.425-3.07a.644.644 0 0 0-.995.047c-.37.419-.74.814-1.134 1.256-1.387-1.273-2.776-2.529-4.164-3.785z" class="cls-1" data-name="Path 2864" transform="translate(-30.697 -11.433)"/>
                <path id="Path_2865" d="M56.746 11.037C55.171 9.613 53.6 8.211 52 6.787a10.42 10.42 0 0 1 .82-.863.788.788 0 0 1 1.1.086c.518.453 1.036.928 1.553 1.381.6.539 1.208 1.1 1.812 1.64a.813.813 0 0 1 .065 1.269 6.027 6.027 0 0 1-.604.737z" class="cls-1" data-name="Path 2865" transform="translate(-45.705 -5.738)"/>
                <path id="Path_2866" d="M31.206 39.872c-.259.28-.5.561-.734.8a.814.814 0 0 1-1.143-.022c-.539-.475-1.057-.949-1.575-1.424-.6-.539-1.208-1.079-1.834-1.64a.841.841 0 0 1-.065-1.273c.216-.237.41-.475.626-.712z" class="cls-1" data-name="Path 2866" transform="translate(-25.596 -28.448)"/>
            </g>
        </g>
    </g>
</svg>
