<svg xmlns="http://www.w3.org/2000/svg" width="16" height="16" viewBox="0 0 16 16">
    <path fill="none" d="M0 0H16V15.681H0z"/>
    <g>
        <g>
            <g>
                <path fill="#4c698d" fill-rule="evenodd" d="M31.431 24.329a5.014 5.014 0 0 0-3.76 4.855v3.342a.558.558 0 0 1-.556.558 1.114 1.114 0 1 0 0 2.228h11.137a1.114 1.114 0 1 0 0-2.228.556.556 0 0 1-.556-.558v-3.342a5.015 5.015 0 0 0-3.76-4.855v-.575a1.253 1.253 0 1 0-2.507 0zm-.7 11.54h3.9a1.95 1.95 0 0 1-3.9 0z" transform="translate(1.617 .681) translate(-26 -22.5)"/>
            </g>
        </g>
    </g>
</svg>
