<svg xmlns="http://www.w3.org/2000/svg" width="16" height="16" viewBox="0 0 16 16">
    <g>
        <path fill="none" d="M0 0H16V16H0z"/>
        <path fill="#cd2d2f" fill-rule="evenodd" d="M31.906 26.95l3.653-3.612a.893.893 0 0 0-1.26-1.265l-1.569 1.576c-.263.264-.474.175-.474-.195v-6.56a.891.891 0 1 0-1.782 0v6.559c0 .369-.212.458-.474.195l-1.569-1.575a.893.893 0 0 0-1.26 1.265l3.623 3.609a.791.791 0 0 0 1.112.003zm-5.012 2.519a.894.894 0 0 0 0 1.788h8.942a.894.894 0 0 0 0-1.788z" transform="translate(-23 -16)"/>
    </g>
</svg>
