<svg xmlns="http://www.w3.org/2000/svg" width="24" height="24.45" viewBox="0 0 24 24.45">
    <defs>
        <style>
            .cls-1,.cls-2{fill:none}.cls-2{stroke:#838898;stroke-linecap:round;stroke-width:.9px;stroke-linejoin:round}.cls-4{stroke:none}
        </style>
    </defs>
    <g id="Group_17891" transform="translate(-95 -483.55)">
        <path id="Rectangle_5417" d="M0 0H24V24H0z" class="cls-1" transform="translate(95 484)"/>
        <g id="Group_17890" transform="translate(-460 73.498)">
            <path id="Path_8701" d="M-1015.667-14561.977h4.439l3.505 13.479h12.68" class="cls-2" transform="translate(1571.667 14977.372)"/>
            <path id="Path_8702" d="M-958.243-14536.972h12.8l2.181-9.133" class="cls-2" transform="translate(1521.646 14963.547)"/>
            <path id="Path_8703" d="M-953.393-14593.578l4.07-4.458 9.059 8.2-4 4.346z" class="cls-2" transform="translate(1517.431 15008.538)"/>
            <path id="Path_8704" d="M-964.606-14543.347l4.493 4.268 4.23-4.447-4.8-4.339z" class="cls-2" transform="translate(1527.189 14965.08)"/>
            <path id="Path_8705" fill="none" stroke="#838898" stroke-linecap="round" stroke-width="0.9px" d="M-913.389-14566l-4.068 4.264" transform="translate(1486.119 14980.876)"/>
            <g id="Ellipse_854" class="cls-2" transform="translate(563.679 430.044)">
                <circle cx="2.119" cy="2.119" r="2.119" class="cls-4"/>
                <circle cx="2.119" cy="2.119" r="1.669" class="cls-1"/>
            </g>
            <g id="Ellipse_855" class="cls-2" transform="translate(571.691 430.044)">
                <circle cx="2.119" cy="2.119" r="2.119" class="cls-4"/>
                <circle cx="2.119" cy="2.119" r="1.669" class="cls-1"/>
            </g>
        </g>
    </g>
</svg>
