<svg xmlns="http://www.w3.org/2000/svg" width="40.423" height="32" viewBox="0 0 40.423 32">
    <defs>
        <style>
            .cls-2{fill:#6771dc;stroke:#fff}.cls-3{fill:#dc67ce}
        </style>
    </defs>
    <g id="Customers_Icon" transform="translate(-1464.962 -611.065)">
        <g id="Group_9859" transform="translate(1460.637 604.136)">
            <path id="Rectangle_2419" fill="none" d="M0 0H40V32H0z" transform="translate(4.642 6.929)"/>
            <g id="user_6_" transform="translate(4.825 16.212)">
                <path id="Union_3" d="M8.172 3.086a3.954 3.954 0 0 1-1.2 2.889 3.954 3.954 0 0 1-2.889 1.2 3.955 3.955 0 0 1-2.883-1.2A3.954 3.954 0 0 1 0 3.086 3.953 3.953 0 0 1 1.2.2 3.953 3.953 0 0 1 4.084-1 3.955 3.955 0 0 1 6.975.2a3.954 3.954 0 0 1 1.197 2.886zm0 0" class="cls-2" transform="translate(2.884)"/>
                <path id="Union_1" d="M14.154 5.852a2.817 2.817 0 0 1-.837 2.131 3.012 3.012 0 0 1-2.156.786H2.992a3.01 3.01 0 0 1-2.155-.785A2.816 2.816 0 0 1 0 5.852c0-.341.011-.678.034-1a10.03 10.03 0 0 1 .137-1.074A8.461 8.461 0 0 1 .435 2.7a5.345 5.345 0 0 1 .443-1 3.805 3.805 0 0 1 .668-.875 2.946 2.946 0 0 1 .96-.6A3.319 3.319 0 0 1 3.731 0a1.242 1.242 0 0 1 .664.281c.2.132.435.282.692.446a3.951 3.951 0 0 0 .895.394 3.565 3.565 0 0 0 .986.175h.108a3.559 3.559 0 0 0 1.1-.177 3.951 3.951 0 0 0 .9-.394c.26-.166.493-.316.692-.446A1.24 1.24 0 0 1 10.423 0a3.321 3.321 0 0 1 1.225.222 2.949 2.949 0 0 1 .96.6 3.792 3.792 0 0 1 .668.871 5.326 5.326 0 0 1 .443 1.007 8.454 8.454 0 0 1 .264 1.078 10.126 10.126 0 0 1 .137 1.072c.023.323.034.661.034 1.002zm0 0" class="cls-2" transform="translate(0 8.195)"/>
            </g>
            <g id="user_6_2" transform="translate(30.094 16.212)">
                <path id="Union_4" d="M8.172 3.086a3.954 3.954 0 0 1-1.2 2.889 3.954 3.954 0 0 1-2.889 1.2 3.955 3.955 0 0 1-2.883-1.2A3.954 3.954 0 0 1 0 3.086 3.953 3.953 0 0 1 1.2.2 3.953 3.953 0 0 1 4.084-1 3.955 3.955 0 0 1 6.975.2a3.954 3.954 0 0 1 1.197 2.886zm0 0" class="cls-2" transform="translate(2.884)"/>
                <path id="Union_1-2" d="M14.154 5.852a2.817 2.817 0 0 1-.837 2.131 3.012 3.012 0 0 1-2.156.786H2.992a3.01 3.01 0 0 1-2.155-.785A2.816 2.816 0 0 1 0 5.852c0-.341.011-.678.034-1a10.03 10.03 0 0 1 .137-1.074A8.461 8.461 0 0 1 .435 2.7a5.345 5.345 0 0 1 .443-1 3.805 3.805 0 0 1 .668-.875 2.946 2.946 0 0 1 .96-.6A3.319 3.319 0 0 1 3.731 0a1.242 1.242 0 0 1 .664.281c.2.132.435.282.692.446a3.951 3.951 0 0 0 .895.394 3.565 3.565 0 0 0 .986.175h.108a3.559 3.559 0 0 0 1.1-.177 3.951 3.951 0 0 0 .9-.394c.26-.166.493-.316.692-.446A1.24 1.24 0 0 1 10.423 0a3.321 3.321 0 0 1 1.225.222 2.949 2.949 0 0 1 .96.6 3.792 3.792 0 0 1 .668.871 5.326 5.326 0 0 1 .443 1.007 8.454 8.454 0 0 1 .264 1.078 10.126 10.126 0 0 1 .137 1.072c.023.323.034.661.034 1.002zm0 0" class="cls-2" transform="translate(0 8.195)"/>
            </g>
            <g id="Group_11495" transform="translate(14.642 7.902)">
                <g id="user_2_">
                    <path id="Path_3744" d="M21.014 40.124v4.729h-21v-4.729A4.985 4.985 0 0 1 5 35.14h2.53v.095a2.967 2.967 0 0 0 5.935 0v-.095h2.565a4.984 4.984 0 0 1 4.984 4.984zm0 0" class="cls-2" transform="translate(-.016 -15.524)"/>
                    <path id="Path_3745" d="M18.785 19.113a8.157 8.157 0 0 1-.118 6.256 14.108 14.108 0 0 1-3.115 4.446l-1.945 1.6-1.879.539s-2.8.14-3.976-.788a10.762 10.762 0 0 1-5.62-9.06A8.5 8.5 0 0 1 3 17.961a8.938 8.938 0 0 1 5.549-4.5 5.934 5.934 0 0 1 4.383.368 6.128 6.128 0 0 1 2.84 3.12l.042.125c1.45-.344 2.486.839 2.971 2.039zm0 0" class="cls-2" transform="translate(-.24 -13.206)"/>
                    <path id="Path_3747" d="M12.846 34.361v.061a2.243 2.243 0 0 1-2.467 1.908 2.242 2.242 0 0 1-2.467-1.908v-1.689a6.081 6.081 0 0 0 2.5.509 5.994 5.994 0 0 0 2.43-.517zm0 0" class="cls-3" transform="translate(.095 -14.224)"/>
                    <path id="Path_4899" fill="none" stroke="#fff" d="M16918.563-1021.163s-2.893.136-3.869 2.111c-2.072 2.882-1.135 4.3-9.312 5.081" transform="translate(-16903 1025.027)"/>
                </g>
            </g>
            <rect id="Rectangle_2420" width="2" height="2" class="cls-3" rx=".4" transform="translate(13.642 26.929)"/>
            <rect id="Rectangle_2421" width="2" height="2" class="cls-3" rx=".4" transform="translate(40.642 26.929)"/>
        </g>
    </g>
</svg>
