<svg xmlns="http://www.w3.org/2000/svg" width="31" height="24" viewBox="0 0 31 24">
    <defs>
        <style>
            .cls-3{fill:#86b6d7;stroke:#487ba1;stroke-width:.5px}.cls-6{fill:#2a719b}.cls-11{fill:#548bad}
        </style>
    </defs>
    <g id="Customers_Icon" transform="translate(-1460.637 -604.339)">
        <g id="Group_9859" transform="translate(1460.637 604.136)">
            <path id="Rectangle_2419" fill="none" d="M0 0H31V24H0z" transform="translate(0 .203)"/>
            <path id="Path_2684" fill="#d3ebfa" d="M12.784 1.964C9.293 1.964 6.9 0 5.214 0S0 1.05 0 9.453s4.752 9.636 6.6 9.636c8.665.001 12.365-17.125 6.184-17.125z" transform="rotate(-8 22.964 -49.726)"/>
            <g id="user_6_" transform="translate(3.531 9.827)">
                <path id="Union_3" d="M2.477 4.954a2.4 2.4 0 0 1-1.75-.726A2.4 2.4 0 0 1 0 2.477 2.4 2.4 0 0 1 .726.725 2.4 2.4 0 0 1 2.476 0a2.4 2.4 0 0 1 1.752.725 2.4 2.4 0 0 1 .725 1.751 2.4 2.4 0 0 1-.725 1.751q-.079.079-.162.149a2.384 2.384 0 0 1-1.589.576z" class="cls-3" transform="translate(1.748)"/>
                <path id="Union_1" d="M6.765 5.316H1.814A1.824 1.824 0 0 1 .507 4.84 1.707 1.707 0 0 1 0 3.548c0-.206.007-.411.02-.608a6.1 6.1 0 0 1 .08-.649 5.2 5.2 0 0 1 .16-.653 3.271 3.271 0 0 1 .268-.609A2.32 2.32 0 0 1 .937.5a1.785 1.785 0 0 1 .582-.366A2.014 2.014 0 0 1 2.261 0a.753.753 0 0 1 .4.17l.42.271a2.4 2.4 0 0 0 .545.239 2.149 2.149 0 0 0 .6.106h.066a2.142 2.142 0 0 0 .66-.106A2.39 2.39 0 0 0 5.5.441l.42-.27A.752.752 0 0 1 6.317 0a2.014 2.014 0 0 1 .743.134A1.785 1.785 0 0 1 7.642.5a2.307 2.307 0 0 1 .4.528 3.223 3.223 0 0 1 .269.609 5.114 5.114 0 0 1 .16.653 6.1 6.1 0 0 1 .083.65c.014.2.021.4.021.608a1.708 1.708 0 0 1-.502 1.292 1.827 1.827 0 0 1-1.307.476z" class="cls-3" transform="translate(0 4.967)"/>
            </g>
            <g id="user_6_2" transform="translate(18.848 9.827)">
                <path id="Union_4" d="M2.476 4.953a2.4 2.4 0 0 1-1.75-.725A2.4 2.4 0 0 1 0 2.477 2.4 2.4 0 0 1 .725.725 2.4 2.4 0 0 1 2.476 0a2.4 2.4 0 0 1 1.752.725 2.4 2.4 0 0 1 .725 1.751v.1a2.391 2.391 0 0 1-.724 1.656 2.4 2.4 0 0 1-1.752.725z" class="cls-3" transform="translate(1.748)"/>
                <path id="Union_1-2" fill="#8ebad8" stroke="#487ba1" stroke-width="0.5px" d="M6.765 5.316H1.814A1.825 1.825 0 0 1 .507 4.84 1.708 1.708 0 0 1 0 3.548c0-.206.007-.411.021-.607A6.088 6.088 0 0 1 .1 2.29a5.118 5.118 0 0 1 .16-.653 3.253 3.253 0 0 1 .268-.609A2.316 2.316 0 0 1 .937.5a1.775 1.775 0 0 1 .582-.365A2.009 2.009 0 0 1 2.261 0a.751.751 0 0 1 .4.171c.123.08.264.171.42.27a2.379 2.379 0 0 0 .545.239 2.171 2.171 0 0 0 .6.106h.065A2.152 2.152 0 0 0 4.953.68a2.389 2.389 0 0 0 .542-.239c.158-.1.3-.191.42-.27A.751.751 0 0 1 6.317 0a2.009 2.009 0 0 1 .743.135A1.78 1.78 0 0 1 7.642.5a2.3 2.3 0 0 1 .4.528 3.236 3.236 0 0 1 .269.609 5.118 5.118 0 0 1 .16.653 6.113 6.113 0 0 1 .083.65c.014.2.021.4.021.608a1.708 1.708 0 0 1-.503 1.292 1.825 1.825 0 0 1-1.307.476z" transform="translate(0 4.967)"/>
            </g>
            <path id="Path_3739" fill="#ff7eb8" d="M60.226 417.315a.179.179 0 0 1-.179-.179.214.214 0 0 0-.214-.214.179.179 0 0 1 0-.357.214.214 0 0 0 .214-.214.179.179 0 1 1 .357 0 .214.214 0 0 0 .214.214.179.179 0 1 1 0 .357.214.214 0 0 0-.214.214.179.179 0 0 1-.178.179z" transform="translate(-49.321 -409.358)"/>
            <path id="Path_3743" d="M60.226 417.315a.179.179 0 0 1-.179-.179.214.214 0 0 0-.214-.214.179.179 0 0 1 0-.357.214.214 0 0 0 .214-.214.179.179 0 1 1 .357 0 .214.214 0 0 0 .214.214.179.179 0 1 1 0 .357.214.214 0 0 0-.214.214.179.179 0 0 1-.178.179z" class="cls-6" transform="translate(-43.533 -411.988)"/>
            <path id="Path_3740" d="M451.051 83.053a.179.179 0 0 1-.126-.3l.357-.357a.179.179 0 1 1 .253.252l-.357.357a.178.178 0 0 1-.127.048z" class="cls-6" transform="translate(-429.813 -75.089)"/>
            <path id="Path_3741" d="M87.833 40.844a.179.179 0 0 1-.126-.3l.357-.357a.179.179 0 0 1 .252.252l-.357.357a.178.178 0 0 1-.126.048z" class="cls-6" transform="translate(-80.669 -32.976)"/>
            <g id="Group_11495" transform="translate(9.997 3.792)">
                <g id="user_2_">
                    <path id="Path_3744" fill="#4b7ea5" stroke="#bee2f8" stroke-width="0.4px" d="M12.591 38.124v2.832H.016v-2.832A2.985 2.985 0 0 1 3 35.14h1.516v.06a1.777 1.777 0 0 0 3.554 0v-.06h1.536a2.985 2.985 0 0 1 2.985 2.984zm0 0" transform="translate(-.016 -23.393)"/>
                    <path id="Path_3745" fill="#4b7ea5" d="M12.1 16.743a4.885 4.885 0 0 1-.071 3.746 8.449 8.449 0 0 1-1.865 2.663 9.455 9.455 0 0 1-1.117.971v-.693a3.629 3.629 0 0 0 1.79-3.13v-1.808a2.436 2.436 0 0 0-1.068-2.069 2.174 2.174 0 0 0-.9-.35A6.831 6.831 0 0 1 3.8 19.63h-.005a.088.088 0 0 0-.088.088v.626a3.564 3.564 0 0 0 1.789 3.092v.522a6.445 6.445 0 0 1-3.366-5.426 5.093 5.093 0 0 1 .519-2.479 5.352 5.352 0 0 1 3.323-2.7 3.554 3.554 0 0 1 2.625.221 3.67 3.67 0 0 1 1.7 1.868l.025.075c.868-.201 1.489.508 1.778 1.226zm0 0" transform="translate(-.996 -13.206)"/>
                    <path id="Path_3746" fill="#fff" d="M6.867 25.923a3.564 3.564 0 0 1-1.789-3.092v-.626a.088.088 0 0 1 .088-.088h.007a6.831 6.831 0 0 0 5.069-3.557 2.174 2.174 0 0 1 .9.35 2.436 2.436 0 0 1 1.068 2.069v1.808a3.629 3.629 0 0 1-1.789 3.129 3.508 3.508 0 0 1-1.75.481 3.548 3.548 0 0 1-1.804-.474zm0 0" transform="translate(-2.368 -15.692)"/>
                    <path id="Path_3747" fill="#efa4cf" d="M11.972 33.819v.057a1.777 1.777 0 0 1-3.554 0V32.3a3.547 3.547 0 0 0 1.8.474 3.508 3.508 0 0 0 1.75-.481zm0 0" transform="translate(-3.919 -22.072)"/>
                </g>
            </g>
            <rect id="Rectangle_2420" width="1" height="1" class="cls-11" rx=".4" transform="translate(8 16.203)"/>
            <rect id="Rectangle_2421" width="1" height="1" class="cls-11" rx=".4" transform="translate(25 16.203)"/>
        </g>
    </g>
</svg>
