<svg xmlns="http://www.w3.org/2000/svg" width="38" height="38" viewBox="0 0 38 38">
    <defs>
        <style>
            .cls-2{fill:#2a719b}.cls-4{fill:#86b6d7;stroke:#487ba1;stroke-width:.5px}.cls-11{fill:#548bad}
        </style>
    </defs>
    <g id="Customers_Icon" transform="translate(-1471.637 -604.136)">
        <g id="Group_9859" transform="translate(1463 605.636)">
            <path id="Rectangle_2419" fill="none" d="M0 0H38V38H0z" transform="translate(8.637 -1.5)"/>
            <path id="Path_3743" d="M60.741 418.344A.339.339 0 0 1 60.4 418a.408.408 0 0 0-.407-.407.339.339 0 0 1 0-.679.408.408 0 0 0 .407-.407.339.339 0 1 1 .679 0 .408.408 0 0 0 .407.407.339.339 0 1 1 0 .679.408.408 0 0 0-.407.407.339.339 0 0 1-.338.344z" class="cls-2" transform="translate(-31.377 -409.721)"/>
            <g id="Group_12608" transform="translate(6.287 3.039)">
                <path id="Path_2684" fill="#d3ebfa" d="M18.581 2.854C13.508 2.854 10.024 0 7.579 0S0 1.526 0 13.74s6.907 14.006 9.6 14.006c12.588.001 17.966-24.892 8.981-24.892z" transform="rotate(-8 16.727 -67.816)"/>
                <g id="user_6_" transform="translate(4.349 13.009)">
                    <path id="Union_3" d="M3.6 7.2a3.483 3.483 0 0 1-2.545-1.055A3.484 3.484 0 0 1 0 3.6a3.484 3.484 0 0 1 1.055-2.546A3.481 3.481 0 0 1 3.6 0a3.483 3.483 0 0 1 2.546 1.054A3.483 3.483 0 0 1 7.2 3.6a3.483 3.483 0 0 1-1.054 2.545q-.115.115-.235.217A3.465 3.465 0 0 1 3.6 7.2z" class="cls-4" transform="translate(2.54)"/>
                    <path id="Union_1" d="M9.833 7.727h-7.2a2.651 2.651 0 0 1-1.9-.692A2.482 2.482 0 0 1 0 5.157c0-.3.01-.6.03-.883a8.86 8.86 0 0 1 .121-.944 7.553 7.553 0 0 1 .232-.95 4.754 4.754 0 0 1 .39-.886 3.373 3.373 0 0 1 .588-.767A2.594 2.594 0 0 1 2.207.2a2.927 2.927 0 0 1 1.08-.2 1.1 1.1 0 0 1 .585.248l.61.394a3.487 3.487 0 0 0 .788.346 3.123 3.123 0 0 0 .869.154h.1A3.113 3.113 0 0 0 7.2.988a3.473 3.473 0 0 0 .787-.347l.61-.393A1.094 1.094 0 0 1 9.182 0a2.927 2.927 0 0 1 1.079.2 2.594 2.594 0 0 1 .846.531 3.353 3.353 0 0 1 .588.767 4.684 4.684 0 0 1 .39.886 7.434 7.434 0 0 1 .233.95 8.872 8.872 0 0 1 .12.944c.021.284.03.582.031.883a2.482 2.482 0 0 1-.737 1.878 2.655 2.655 0 0 1-1.9.692z" class="cls-4" transform="translate(0 7.22)"/>
                </g>
                <g id="user_6_2" transform="translate(26.611 13.009)">
                    <path id="Union_4" d="M3.6 7.2a3.484 3.484 0 0 1-2.546-1.055A3.483 3.483 0 0 1 0 3.6a3.483 3.483 0 0 1 1.054-2.546A3.481 3.481 0 0 1 3.6 0a3.486 3.486 0 0 1 2.546 1.054A3.486 3.486 0 0 1 7.2 3.6v.138a3.476 3.476 0 0 1-1.054 2.407A3.483 3.483 0 0 1 3.6 7.2z" class="cls-4" transform="translate(2.54)"/>
                    <path id="Union_1-2" fill="#8ebad8" stroke="#487ba1" stroke-width="0.5px" d="M9.833 7.727h-7.2a2.653 2.653 0 0 1-1.9-.692A2.483 2.483 0 0 1 0 5.157c0-.3.01-.6.03-.883a8.849 8.849 0 0 1 .12-.945 7.44 7.44 0 0 1 .233-.95 4.728 4.728 0 0 1 .39-.886 3.366 3.366 0 0 1 .589-.766A2.579 2.579 0 0 1 2.208.2 2.92 2.92 0 0 1 3.287 0a1.092 1.092 0 0 1 .585.248c.178.116.383.249.61.393a3.457 3.457 0 0 0 .788.348 3.156 3.156 0 0 0 .869.154h.095A3.128 3.128 0 0 0 7.2.989a3.473 3.473 0 0 0 .787-.348C8.216.5 8.421.363 8.6.248A1.092 1.092 0 0 1 9.182 0a2.92 2.92 0 0 1 1.079.2 2.587 2.587 0 0 1 .846.531 3.342 3.342 0 0 1 .588.767 4.7 4.7 0 0 1 .391.886 7.44 7.44 0 0 1 .233.95 8.887 8.887 0 0 1 .121.944c.02.285.03.582.031.884a2.482 2.482 0 0 1-.738 1.878 2.652 2.652 0 0 1-1.9.692z" transform="translate(0 7.22)"/>
                </g>
                <path id="Path_3739" fill="#ff7eb8" d="M60.485 417.833a.259.259 0 0 1-.259-.259.312.312 0 0 0-.311-.311.259.259 0 0 1 0-.519.312.312 0 0 0 .311-.311.259.259 0 0 1 .519 0 .312.312 0 0 0 .311.311.259.259 0 1 1 0 .519.312.312 0 0 0-.311.311.259.259 0 0 1-.26.259z" transform="translate(-45.418 -407.541)"/>
                <path id="Path_3740" d="M451.132 83.377a.259.259 0 0 1-.184-.443l.519-.519a.259.259 0 0 1 .367.367l-.519.519a.259.259 0 0 1-.183.076z" class="cls-2" transform="translate(-421.047 -73.075)"/>
                <path id="Path_3741" d="M87.914 41.168a.259.259 0 0 1-.184-.443l.519-.519a.259.259 0 1 1 .367.367l-.519.519a.258.258 0 0 1-.183.076z" class="cls-2" transform="translate(-78.286 -31.006)"/>
                <g id="Group_11495" transform="translate(13.746 4.237)">
                    <g id="user_2_">
                        <path id="Path_3744" fill="#4b7ea5" stroke="#bee2f8" stroke-width="0.4px" d="M18.294 39.478v4.116H.016v-4.116a4.339 4.339 0 0 1 4.339-4.338h2.2v.082a2.583 2.583 0 0 0 5.166 0v-.082h2.233a4.338 4.338 0 0 1 4.34 4.338zm0 0" transform="translate(-.016 -18.066)"/>
                        <path id="Path_3745" fill="#4b7ea5" d="M16.626 18.348a7.1 7.1 0 0 1-.1 5.445 12.28 12.28 0 0 1-2.711 3.87 13.743 13.743 0 0 1-1.623 1.412v-1.009a5.275 5.275 0 0 0 2.6-4.549v-2.126l.007-.5a3.541 3.541 0 0 0-1.553-3.007 3.16 3.16 0 0 0-1.313-.509 9.929 9.929 0 0 1-7.368 5.17h-.01a.128.128 0 0 0-.128.128v.91a5.18 5.18 0 0 0 2.6 4.494v.759a9.368 9.368 0 0 1-4.892-7.886 7.4 7.4 0 0 1 .754-3.6 7.78 7.78 0 0 1 4.83-3.918 5.165 5.165 0 0 1 3.815.321A5.334 5.334 0 0 1 14 16.464l.036.109c1.264-.3 2.164.727 2.59 1.775zm0 0" transform="translate(-.484 -13.206)"/>
                        <path id="Path_3746" fill="#fff" d="M7.678 29.263a5.18 5.18 0 0 1-2.6-4.494v-.91a.128.128 0 0 1 .128-.128h.01a9.929 9.929 0 0 0 7.368-5.17 3.16 3.16 0 0 1 1.313.509 3.541 3.541 0 0 1 1.553 3.007l-.007.5V24.7a5.275 5.275 0 0 1-2.6 4.549 5.1 5.1 0 0 1-2.544.7 5.156 5.156 0 0 1-2.621-.686zm0 0" transform="translate(-1.139 -14.392)"/>
                        <path id="Path_3747" fill="#efa4cf" d="M13.584 34.509v.082a2.583 2.583 0 0 1-5.166 0v-2.285a5.156 5.156 0 0 0 2.622.689 5.1 5.1 0 0 0 2.544-.7zm0 0" transform="translate(-1.879 -17.436)"/>
                    </g>
                </g>
                <rect id="Rectangle_2420" width="2" height="2" class="cls-11" rx=".4" transform="translate(10.442 22.5)"/>
                <rect id="Rectangle_2421" width="2" height="2" class="cls-11" rx=".4" transform="translate(34.442 22.5)"/>
            </g>
        </g>
    </g>
</svg>
