<svg xmlns="http://www.w3.org/2000/svg" width="58" height="46" viewBox="0 0 58 46">
  <defs>
    <style>
      .cls-1 {
        fill: #fff;
      }

      .cls-2 {
        fill: #d3ebfa;
      }

      .cls-3 {
        fill: #487ba1;
      }

      .cls-3, .cls-4 {
        stroke: #487ba1;
        stroke-width: 0.5px;
      }

      .cls-4 {
        fill: #8ebad8;
      }

      .cls-5 {
        fill: #ff7eb8;
      }

      .cls-6 {
        fill: #2a719b;
      }

      .cls-7 {
        fill: #2e6089;
      }
    </style>
  </defs>
  <g id="Group_3368" data-name="Group 3368" transform="translate(-1462.636 -604.136)">
    <g id="Group_9859" data-name="Group 9859" transform="translate(1463 605.636)">
      <g id="Group_9717" data-name="Group 9717" transform="translate(0 0.163)">
        <rect id="Rectangle_1187" data-name="Rectangle 1187" class="cls-1" width="58" height="46" transform="translate(-0.364 -1.663)"/>
      </g>
      <path id="Path_2684" data-name="Path 2684" class="cls-2" d="M28.544,4.3C21.375,4.3,16.453.584,13,.584S2.29,2.57,2.29,18.46s9.759,18.222,13.558,18.222C33.639,36.683,41.239,4.3,28.544,4.3Z" transform="translate(9.856 -0.584)"/>
      <g id="user_6_" data-name="user (6)" transform="translate(12.144 9.176)">
        <path id="Path_2749" data-name="Path 2749" class="cls-3" d="M101.731,7.347a7.111,7.111,0,0,1-2.153,5.2,7.11,7.11,0,0,1-5.2,2.153h0a7.111,7.111,0,0,1-5.192-2.153,7.11,7.11,0,0,1-2.153-5.2,7.109,7.109,0,0,1,2.153-5.195A7.108,7.108,0,0,1,94.38,0h0a7.112,7.112,0,0,1,5.2,2.153A7.11,7.11,0,0,1,101.731,7.347Zm0,0" transform="translate(-81.849)"/>
        <path id="Path_2750" data-name="Path 2750" class="cls-4" d="M25.453,257.845a5.065,5.065,0,0,1-1.5,3.833,5.416,5.416,0,0,1-3.877,1.414H5.381A5.413,5.413,0,0,1,1.5,261.677,5.064,5.064,0,0,1,0,257.845c0-.613.02-1.219.061-1.8a18.037,18.037,0,0,1,.247-1.928,15.218,15.218,0,0,1,.474-1.937,9.612,9.612,0,0,1,.8-1.808,6.843,6.843,0,0,1,1.2-1.566,5.3,5.3,0,0,1,1.726-1.085,5.968,5.968,0,0,1,2.2-.4,2.233,2.233,0,0,1,1.194.506c.364.237.783.507,1.245.8a7.106,7.106,0,0,0,1.609.709,6.413,6.413,0,0,0,1.774.315q.1,0,.195,0a6.4,6.4,0,0,0,1.969-.318,7.106,7.106,0,0,0,1.61-.709c.467-.3.886-.568,1.245-.8a2.23,2.23,0,0,1,1.194-.506,5.971,5.971,0,0,1,2.2.4,5.3,5.3,0,0,1,1.726,1.085,6.819,6.819,0,0,1,1.2,1.566,9.578,9.578,0,0,1,.8,1.807,15.2,15.2,0,0,1,.474,1.939,18.208,18.208,0,0,1,.247,1.928C25.432,256.624,25.453,257.23,25.453,257.845Zm0,0" transform="translate(0 -232.583)"/>
        <path id="Path_2751" data-name="Path 2751" class="cls-3" d="M210.3,14.7h0V0h0a7.112,7.112,0,0,1,5.2,2.153,7.11,7.11,0,0,1,2.153,5.195,7.111,7.111,0,0,1-2.153,5.2A7.11,7.11,0,0,1,210.3,14.7Zm0,0" transform="translate(-197.762)"/>
        <path id="Path_2752" data-name="Path 2752" class="cls-4" d="M223.216,257.845a5.065,5.065,0,0,1-1.5,3.833,5.416,5.416,0,0,1-3.877,1.414h-7.541V249.653q.1,0,.195,0a6.4,6.4,0,0,0,1.969-.318,7.107,7.107,0,0,0,1.61-.709c.467-.3.886-.568,1.245-.8a2.231,2.231,0,0,1,1.194-.506,5.971,5.971,0,0,1,2.2.4,5.3,5.3,0,0,1,1.726,1.085,6.819,6.819,0,0,1,1.2,1.566,9.579,9.579,0,0,1,.8,1.807,15.2,15.2,0,0,1,.474,1.939,18.2,18.2,0,0,1,.247,1.928C223.195,256.624,223.215,257.23,223.216,257.845Zm0,0" transform="translate(-197.762 -232.583)"/>
      </g>
      <g id="Group_9763" data-name="Group 9763" transform="translate(22.551 2.182) rotate(40)">
        <g id="Group_3347" data-name="Group 3347" transform="matrix(0.998, 0.07, -0.07, 0.998, 1.879, 0)">
          <path id="Path_2578" data-name="Path 2578" class="cls-5" d="M1.37,2.741a.428.428,0,0,1-.428-.428A.514.514,0,0,0,.428,1.8a.428.428,0,0,1,0-.856A.514.514,0,0,0,.942.428a.428.428,0,0,1,.856,0,.514.514,0,0,0,.514.514.428.428,0,1,1,0,.856.514.514,0,0,0-.514.514A.428.428,0,0,1,1.37,2.741Z" transform="translate(0.462 24.199)"/>
          <g id="Group_3346" data-name="Group 3346">
            <path id="Path_1745" data-name="Path 1745" class="cls-6" d="M.428,1.713a.428.428,0,0,1-.3-.731L.982.125a.428.428,0,0,1,.606.606l-.856.856A.426.426,0,0,1,.428,1.713Z" transform="translate(0 21.227)"/>
          </g>
        </g>
      </g>
    </g>
    <circle id="Ellipse_476" data-name="Ellipse 476" class="cls-1" cx="6.5" cy="6.5" r="6.5" transform="translate(1498.636 615.136)"/>
    <g id="clock" transform="translate(1497.842 614.689)">
      <g id="Group_9860" data-name="Group 9860" transform="translate(0 0)">
        <path id="Path_2755" data-name="Path 2755" class="cls-7" d="M6.77,13.54A6.77,6.77,0,0,1,1.983,1.983a6.77,6.77,0,0,1,9.575,9.575A6.726,6.726,0,0,1,6.77,13.54ZM6.77.793A5.977,5.977,0,0,0,2.544,11,5.977,5.977,0,1,0,11,2.544,5.938,5.938,0,0,0,6.77.793Z" transform="translate(0 0)"/>
      </g>
      <g id="Group_9861" data-name="Group 9861" transform="translate(6.374 1.588)">
        <path id="Path_2756" data-name="Path 2756" class="cls-7" d="M241,60.036h.793v1.059H241Z" transform="translate(-241 -60.036)"/>
      </g>
      <g id="Group_9862" data-name="Group 9862" transform="translate(9.404 2.826)">
        <path id="Path_2757" data-name="Path 2757" class="cls-7" d="M0,0H1.059V.793H0Z" transform="translate(0 0.748) rotate(-45)"/>
      </g>
      <g id="Group_9863" data-name="Group 9863" transform="translate(10.894 6.374)">
        <path id="Path_2758" data-name="Path 2758" class="cls-7" d="M411.932,241h1.059v.793h-1.059Z" transform="translate(-411.932 -241)"/>
      </g>
      <g id="Group_9864" data-name="Group 9864" transform="translate(9.404 9.406)">
        <path id="Path_2759" data-name="Path 2759" class="cls-7" d="M0,0H.793V1.059H0Z" transform="translate(0 0.561) rotate(-45)"/>
      </g>
      <g id="Group_9865" data-name="Group 9865" transform="translate(6.374 10.894)">
        <path id="Path_2760" data-name="Path 2760" class="cls-7" d="M241,411.932h.793v1.059H241Z" transform="translate(-241 -411.932)"/>
      </g>
      <g id="Group_9866" data-name="Group 9866" transform="translate(2.824 9.405)">
        <path id="Path_2761" data-name="Path 2761" class="cls-7" d="M0,0H1.059V.793H0Z" transform="translate(0 0.748) rotate(-45)"/>
      </g>
      <g id="Group_9867" data-name="Group 9867" transform="translate(1.588 6.374)">
        <path id="Path_2762" data-name="Path 2762" class="cls-7" d="M60.036,241h1.059v.793H60.036Z" transform="translate(-60.036 -241)"/>
      </g>
      <g id="Group_9868" data-name="Group 9868" transform="translate(2.824 2.825)">
        <path id="Path_2763" data-name="Path 2763" class="cls-7" d="M0,0H.793V1.059H0Z" transform="translate(0 0.561) rotate(-45)"/>
      </g>
      <g id="Group_9869" data-name="Group 9869" transform="translate(6.374 3.97)">
        <path id="Path_2764" data-name="Path 2764" class="cls-5" d="M244.2,153.305H241v-3.2h.793v2.4h2.4Z" transform="translate(-241 -150.108)"/>
      </g>
    </g>
  </g>
</svg>
