<svg xmlns="http://www.w3.org/2000/svg" width="58" height="46" viewBox="0 0 58 46">
  <defs>
    <style>
      .cls-1 {
        fill: #fff;
      }

      .cls-2 {
        fill: #d3ebfa;
      }

      .cls-3 {
        fill: #ff7eb8;
      }

      .cls-4 {
        fill: #2a719b;
      }

      .cls-5 {
        fill: #4e89ad;
      }

      .cls-6 {
        fill: #f9f9f9;
      }

      .cls-7 {
        fill: #89b5d3;
      }

      .cls-8 {
        fill: #c2e1f4;
      }

      .cls-9 {
        fill: #457ca5;
      }

      .cls-10 {
        fill: #2e6089;
      }
    </style>
  </defs>
  <g id="Group_9872" data-name="Group 9872" transform="translate(-173 -350)">
    <g id="Group_9870" data-name="Group 9870" transform="translate(-1289.637 -254.136)">
      <g id="Group_9859" data-name="Group 9859" transform="translate(1463 605.636)">
        <g id="Group_9717" data-name="Group 9717" transform="translate(0 0.163)">
          <rect id="Rectangle_1187" data-name="Rectangle 1187" class="cls-1" width="58" height="46" transform="translate(-0.364 -1.663)"/>
        </g>
        <g id="Group_9871" data-name="Group 9871" transform="translate(-20028.463 5926.803)">
          <path id="Path_2687" data-name="Path 2687" class="cls-2" d="M23.543,3.383C17.115,3.383,12.7,0,9.6,0S0,1.809,0,16.286s8.752,16.6,12.159,16.6C28.113,32.889,34.928,3.383,23.543,3.383Z" transform="translate(20031.988 -5905.607) rotate(-48)"/>
          <path id="Path_1742" data-name="Path 1742" class="cls-3" d="M396.239,47.3a.339.339,0,0,1-.339-.339.408.408,0,0,0-.407-.407.339.339,0,0,1,0-.679.408.408,0,0,0,.407-.407.339.339,0,1,1,.679,0,.408.408,0,0,0,.407.407.339.339,0,0,1,0,.679.408.408,0,0,0-.407.407A.339.339,0,0,1,396.239,47.3Z" transform="translate(19670.256 -5966.594)"/>
          <path id="Path_2578" data-name="Path 2578" class="cls-3" d="M60.741,418.344A.339.339,0,0,1,60.4,418a.408.408,0,0,0-.407-.407.339.339,0,0,1,0-.679.408.408,0,0,0,.407-.407.339.339,0,1,1,.679,0,.408.408,0,0,0,.407.407.339.339,0,1,1,0,.679.408.408,0,0,0-.407.407A.339.339,0,0,1,60.741,418.344Z" transform="translate(19978.086 -6326.523)"/>
          <path id="Path_1744" data-name="Path 1744" class="cls-4" d="M451.212,83.7a.339.339,0,0,1-.24-.579l.679-.679a.339.339,0,0,1,.48.48l-.679.679A.338.338,0,0,1,451.212,83.7Z" transform="translate(19614.252 -6006.862)"/>
          <path id="Path_1745" data-name="Path 1745" class="cls-4" d="M87.994,41.487a.339.339,0,0,1-.24-.579l.679-.679a.339.339,0,1,1,.48.48l-.679.679A.338.338,0,0,1,87.994,41.487Z" transform="translate(19949.721 -5952.836)"/>
          <path id="Path_2720" data-name="Path 2720" class="cls-4" d="M87.994,41.487a.339.339,0,0,1-.24-.579l.679-.679a.339.339,0,1,1,.48.48l-.679.679A.338.338,0,0,1,87.994,41.487Z" transform="translate(19953.283 -5933.57)"/>
        </g>
      </g>
    </g>
    <g id="shipping-and-delivery" transform="translate(189.761 355.007)">
      <g id="Group_9810" data-name="Group 9810" transform="translate(0 0)">
        <g id="Group_9809" data-name="Group 9809">
          <g id="Group_9805" data-name="Group 9805" transform="translate(0.481 2.042)">
            <g id="Group_9802" data-name="Group 9802" transform="translate(0 10.277)">
              <g id="Group_9801" data-name="Group 9801">
                <path id="Path_2696" data-name="Path 2696" class="cls-5" d="M86.765,191.009V212.86a1.381,1.381,0,0,1-1.381,1.381H63.533a1.381,1.381,0,0,1-1.382-1.381V191.009a1.381,1.381,0,0,1,1.382-1.381H85.384A1.381,1.381,0,0,1,86.765,191.009Z" transform="translate(-62.151 -189.628)"/>
                <g id="Group_9800" data-name="Group 9800" transform="translate(3.455 5.058)">
                  <path id="Path_2699" data-name="Path 2699" class="cls-6" d="M109.529,246.387,98.051,257.865V242.188h7.03a2.109,2.109,0,0,1,1.855,1.126,9.661,9.661,0,0,0,1.691,2.275A9.844,9.844,0,0,0,109.529,246.387Z" transform="translate(-98.051 -242.188)"/>
                  <path id="Path_2700" data-name="Path 2700" class="cls-6" d="M156.028,313.1v7.859H144.387l8.967-8.966A1.566,1.566,0,0,1,156.028,313.1Z" transform="translate(-139.928 -304.853)"/>
                </g>
              </g>
              <path id="Path_2701" data-name="Path 2701" class="cls-5" d="M102.2,206.341l-6.54,6.54L83.183,225.361l-2.442-2.442,12.09-12.091,6.93-6.93Z" transform="translate(-78.952 -202.525)"/>
            </g>
            <g id="Group_9804" data-name="Group 9804" transform="translate(11.198)">
              <g id="Group_9803" data-name="Group 9803" transform="translate(14.482 14.482)">
                <path id="Path_2703" data-name="Path 2703" class="cls-7" d="M340.242,244.576a1.285,1.285,0,0,1-1.818,0l-9.438-9.438,1.818-1.818,9.438,9.438A1.285,1.285,0,0,1,340.242,244.576Z" transform="translate(-328.986 -233.32)"/>
                <path id="Path_2704" data-name="Path 2704" class="cls-8" d="M332.953,235.472a10.976,10.976,0,0,1-.857.961,11.34,11.34,0,0,1-.961.858l-2.155-2.155,1.818-1.818Z" transform="translate(-328.981 -233.318)"/>
                <path id="Path_2705" data-name="Path 2705" class="cls-8" d="M395.8,301.952l3.008,3.008a1.285,1.285,0,0,0,1.818-1.818l-3.008-3.008Z" transform="translate(-389.367 -293.703)"/>
              </g>
              <path id="Path_2718" data-name="Path 2718" class="cls-6" d="M9.67,0A9.67,9.67,0,1,1,0,9.67,9.67,9.67,0,0,1,9.67,0Z"/>
              <path id="Path_2719" data-name="Path 2719" class="cls-7" d="M7.443,0A7.443,7.443,0,1,1,0,7.443,7.443,7.443,0,0,1,7.443,0Z" transform="translate(2.228 2.228)"/>
            </g>
            <path id="Path_2707" data-name="Path 2707" class="cls-9" d="M214.276,157.31v6.6a7.443,7.443,0,0,1-12.134-7.986H212.9A1.381,1.381,0,0,1,214.276,157.31Z" transform="translate(-188.235 -148.894)"/>
            <path id="Path_2709" data-name="Path 2709" class="cls-7" d="M211.732,203.7v5.48a7.446,7.446,0,0,1-7.355-5.48Z" transform="translate(-190.689 -192.067)"/>
            <path id="Path_2710" data-name="Path 2710" class="cls-7" d="M204.377,203.7a7.393,7.393,0,0,0,1.114,2.352h3.541v2.688a7.465,7.465,0,0,0,2.7.441V203.7Z" transform="translate(-190.689 -192.067)"/>
          </g>
          <g id="Group_9808" data-name="Group 9808">
            <g id="Group_9806" data-name="Group 9806">
              <circle id="Ellipse_475" data-name="Ellipse 475" class="cls-8" cx="5.185" cy="5.185" r="5.185" transform="translate(7.477 0.481)"/>
              <path id="Path_2711" data-name="Path 2711" class="cls-10" d="M94.911,87.248,88.5,80.84a.481.481,0,0,0-.68.681l6.408,6.408a.8.8,0,1,1-1.137,1.137l-8-8q.3-.259.591-.546A10.153,10.153,0,0,0,74.445,64.032a5.664,5.664,0,1,0-6.077,8.738,10.159,10.159,0,0,0,13.4,10.179V97.176a.9.9,0,0,1-.9.9H59.017a.9.9,0,0,1-.9-.9V75.326a.9.9,0,0,1,.9-.9h7.065a.481.481,0,0,0,0-.962H59.017a1.865,1.865,0,0,0-1.863,1.863v21.85a1.865,1.865,0,0,0,1.863,1.863h21.85a1.865,1.865,0,0,0,1.863-1.863V82.569a10.057,10.057,0,0,0,1.594-.912l8.089,8.089a1.766,1.766,0,1,0,2.5-2.5Zm-29.8-19.956a4.7,4.7,0,1,1,4.7,4.7A4.709,4.709,0,0,1,65.112,67.292Zm6.894,12.544a9.168,9.168,0,0,1-2.682-6.9c.162.014.326.023.492.023a5.664,5.664,0,0,0,5.12-8.09,9.19,9.19,0,1,1-2.93,14.968Z" transform="translate(-57.154 -61.626)"/>
            </g>
            <g id="Group_9807" data-name="Group 9807" transform="translate(9.943 2.739)">
              <path id="Path_2712" data-name="Path 2712" class="cls-3" d="M162.423,95.938l-.054,0a.621.621,0,0,1-.522-.388l-.672-1.68a.089.089,0,0,0-.083-.056.621.621,0,0,1,0-1.242,1.325,1.325,0,0,1,1.236.837l.216.54,2.215-3.569a.621.621,0,1,1,1.055.655l-2.863,4.613a.621.621,0,0,1-.527.294Z" transform="translate(-160.47 -90.083)"/>
            </g>
          </g>
        </g>
        <path id="Path_2747" data-name="Path 2747" class="cls-6" d="M8.982,55.57v4.589H23.549l.2-9.47a14.912,14.912,0,0,1-2.707-1.641,8.174,8.174,0,0,1-1.629-1.814Z" transform="translate(-5.061 -26.615)"/>
      </g>
    </g>
    <path id="Path_2767" data-name="Path 2767" class="cls-10" d="M284.27,386.367h1.006a.437.437,0,1,0,0-.873H284.27a.437.437,0,1,0,0,.873Z" transform="translate(-88.285 -2.488)"/>
    <path id="Path_2768" data-name="Path 2768" class="cls-10" d="M315.8,386.367h4.061a.437.437,0,1,0,0-.873H315.8a.437.437,0,1,0,0,.873Z" transform="translate(-117.066 -2.488)"/>
    <path id="Path_2769" data-name="Path 2769" class="cls-10" d="M284.27,407.7h6.814a.437.437,0,0,0,0-.873H284.27a.437.437,0,0,0,0,.873Z" transform="translate(-88.285 -21.958)"/>
  </g>
</svg>
