<svg width="24" height="24" viewBox="0 0 24 24" fill="none" xmlns="http://www.w3.org/2000/svg">
    <path d="M14.052 9 5.31 6.38l-.455-.149.74-1.685.945-.663h9.268l1.607.153 1.251 1.174 2.847 6.62v6.063l-7.461-8.892z" fill="#C9001F"/>
    <path fill-rule="evenodd" clip-rule="evenodd" d="M1.352 12a.65.65 0 0 1 .65-.65h20a.65.65 0 0 1 0 1.3h-20a.65.65 0 0 1-.65-.65z" fill="#2E3F55"/>
    <path fill-rule="evenodd" clip-rule="evenodd" d="M7.24 3.25h9.52a2.751 2.751 0 0 1 2.462 1.526l3.449 6.888a.75.75 0 0 1 .079.336v6A2.75 2.75 0 0 1 20 20.75H4A2.75 2.75 0 0 1 1.25 18v-6a.75.75 0 0 1 .08-.336l3.448-6.888A2.75 2.75 0 0 1 7.24 3.25zM5.45 5.11l.67.336-3.37 6.731V18A1.25 1.25 0 0 0 4 19.25h16A1.25 1.25 0 0 0 21.25 18v-5.823l-3.37-6.731-.002-.002a1.25 1.25 0 0 0-1.118-.694m-11.31.36.672.334A1.25 1.25 0 0 1 7.24 4.75m0 0h9.52-9.52z" fill="#2E3F55"/>
    <path fill-rule="evenodd" clip-rule="evenodd" d="M4.852 16c0-.636.514-1.15 1.15-1.15h.01a1.15 1.15 0 0 1 0 2.3h-.01A1.15 1.15 0 0 1 4.852 16zM8.852 16c0-.636.514-1.15 1.15-1.15h.01a1.15 1.15 0 0 1 0 2.3h-.01A1.15 1.15 0 0 1 8.852 16z" fill="#2E3F55"/>
</svg>
