<svg width="20" height="20" fill="none" xmlns="http://www.w3.org/2000/svg">
    <path fill-rule="evenodd" clip-rule="evenodd" d="M4.363 0A1.863 1.863 0 0 0 2.5 1.863v15.833c0 1.029.834 1.863 1.863 1.863H16.47a1.863 1.863 0 0 0 1.862-1.863V1.863A1.863 1.863 0 0 0 16.471 0H4.363zm4.904 9.709a1.014 1.014 0 1 0 1.687 1.127 1.014 1.014 0 0 0-1.687-1.127zM9.02 3.88v3.627a1.087 1.087 0 1 0 2.175 0V3.88a1.087 1.087 0 0 0-2.175 0zm-3.73 11.487c0-.257.21-.466.467-.466h6.52a.466.466 0 1 1 0 .932h-6.52a.466.466 0 0 1-.466-.466zm.467-2.328a.466.466 0 0 0 0 .931h9.313a.466.466 0 0 0 0-.931H5.758z" fill="#B7C3D1"/>
</svg>
