<svg xmlns="http://www.w3.org/2000/svg" width="14.096" height="16.061" viewBox="0 0 14.096 16.061">
  <defs>
    <style>
      .cls-1 {
        opacity: 0.3;
      }

      .cls-2 {
        fill: #24424d;
      }
    </style>
  </defs>
  <g id="Group_138" data-name="Group 138" class="cls-1" transform="translate(483.71 -431.22)">
    <path id="Path_136" data-name="Path 136" class="cls-2" d="M-469.918,445.056a.7.7,0,0,0-.695-.695h-7.156a.7.7,0,0,0-.695.695.7.7,0,0,0,.695.695h7.156a.7.7,0,0,0,.695-.695Z" transform="translate(-2.472 -6.193)"/>
    <path id="Path_137" data-name="Path 137" class="cls-2" d="M-477.768,449.618a.694.694,0,0,0-.693.7.7.7,0,0,0,.693.693h4.346a.7.7,0,0,0,.693-.7.694.694,0,0,0-.693-.693Z" transform="translate(-2.474 -8.671)"/>
    <path id="Path_140" data-name="Path 140" class="cls-2" d="M-470.612,439.105h-7.156a.694.694,0,0,0-.694.7.7.7,0,0,0,.694.694h7.156a.7.7,0,0,0,.694-.7A.694.694,0,0,0-470.612,439.105Z" transform="translate(-2.473 -3.716)"/>
    <path id="Path_1517" data-name="Path 1517" class="cls-2" d="M-472.39,431.22h-8.544a2.655,2.655,0,0,0-2.776,2.511V444.77a2.655,2.655,0,0,0,2.776,2.511h8.544a2.655,2.655,0,0,0,2.776-2.511V433.731A2.655,2.655,0,0,0-472.39,431.22ZM-471,444.77a1.325,1.325,0,0,1-1.385,1.256h-8.544a1.452,1.452,0,0,1-.978-.368.99.99,0,0,1-.169-.186,1.151,1.151,0,0,1-.132-.215,1.235,1.235,0,0,1-.079-.234,1.191,1.191,0,0,1-.021-.124,1.047,1.047,0,0,1-.005-.129V433.731a1.325,1.325,0,0,1,1.385-1.256h8.544a1.442,1.442,0,0,1,.978.368,1.174,1.174,0,0,1,.3.4l.048.115a1.253,1.253,0,0,1,.058.372Z"/>
    <path id="Path_1518" data-name="Path 1518" class="cls-2" d="M-460.149,435.064a1.434,1.434,0,0,0-.3-.444A1.3,1.3,0,0,1-460.149,435.064Z" transform="translate(-10.962 -1.602)"/>
  </g>
</svg>
