<svg xmlns="http://www.w3.org/2000/svg" width="16" height="16" viewBox="0 0 16 16">
    <defs>
        <style>
            .cls-3{fill:#4c698d}
        </style>
    </defs>
    <g id="Component_50" opacity="0.7" transform="translate(0 0)">
        <path id="Rectangle_1130" fill="none" d="M0 0H16V16H0z"/>
        <g id="noun_Document_504765" transform="translate(-7.696 0.001)">
            <path id="Exclusion_17" d="M11.227 16H1.344A1.364 1.364 0 0 1 0 14.621V1.379A1.363 1.363 0 0 1 1.344 0h7.687a.454.454 0 0 1 .324.138L12.436 3.3a.472.472 0 0 1 .134.333v10.988A1.363 1.363 0 0 1 11.227 16zM3.054 8.187a.866.866 0 0 0-.77.537.767.767 0 0 0 .191.864l3.292 3.279a.719.719 0 0 0 1.01 0L10.1 9.59a.767.767 0 0 0 .191-.864.866.866 0 0 0-.771-.537.794.794 0 0 0-.565.253l-1.43 1.429a.387.387 0 0 1-.249.138.15.15 0 0 1-.132-.081.471.471 0 0 1-.049-.235V3.735a.81.81 0 1 0-1.619 0v5.959c0 .2-.068.315-.182.315a.385.385 0 0 1-.248-.137L3.62 8.441a.794.794 0 0 0-.565-.253z" class="cls-3" transform="translate(9.695 0)"/>
            <path id="Path_2824" d="M68.537 4.359h-3.359a.5.5 0 0 1-.5-.5V.5a.5.5 0 0 1 .855-.354L68.891 3.5a.5.5 0 0 1-.354.855zm-2.858-1h1.65l-1.65-1.65z" class="cls-3" transform="translate(-46.771 0)"/>
        </g>
    </g>
</svg>
