<svg id="drag" xmlns="http://www.w3.org/2000/svg" width="72" height="72" viewBox="0 0 72 72">
  <defs>
    <style>
      .cls-1 {
        fill: #a7b7c6;
      }
    </style>
  </defs>
  <g id="Group_315" data-name="Group 315" transform="translate(27 27)">
    <g id="Group_314" data-name="Group 314">
      <path id="Path_205" data-name="Path 205" class="cls-1" d="M229.5,192h-15a1.5,1.5,0,1,0,0,3h15a4.505,4.505,0,0,1,4.5,4.5v30a4.505,4.505,0,0,1-4.5,4.5h-30a4.505,4.505,0,0,1-4.5-4.5v-12a1.5,1.5,0,0,0-3,0v12a7.51,7.51,0,0,0,7.5,7.5h30a7.51,7.51,0,0,0,7.5-7.5v-30A7.51,7.51,0,0,0,229.5,192Z" transform="translate(-192 -192)"/>
    </g>
  </g>
  <g id="Group_317" data-name="Group 317" transform="translate(19.5 42)">
    <g id="Group_316" data-name="Group 316">
      <path id="Path_206" data-name="Path 206" class="cls-1" d="M141.666,298.667h-1.5a1.5,1.5,0,1,0,0,3h1.5a1.5,1.5,0,1,0,0-3Z" transform="translate(-138.666 -298.667)"/>
    </g>
  </g>
  <g id="Group_320" data-name="Group 320">
    <g id="Group_319" data-name="Group 319">
      <g id="Group_318" data-name="Group 318">
        <path id="Path_207" data-name="Path 207" class="cls-1" d="M35.186,0H33.863a7.539,7.539,0,0,0-2.106.3,1.5,1.5,0,0,0,.42,2.94,1.469,1.469,0,0,0,.423-.06A4.464,4.464,0,0,1,33.863,3h1.323a1.5,1.5,0,1,0,0-3Z" transform="translate(-26.363)"/>
        <path id="Path_208" data-name="Path 208" class="cls-1" d="M3,229.514v-3.033a1.5,1.5,0,1,0-3,0v3.033a1.5,1.5,0,1,0,3,0Z" transform="translate(0 -193.343)"/>
        <path id="Path_209" data-name="Path 209" class="cls-1" d="M1.5,166.31a1.5,1.5,0,0,0,1.5-1.5v-3.033a1.5,1.5,0,0,0-3,0v3.033A1.5,1.5,0,0,0,1.5,166.31Z" transform="translate(0 -137.738)"/>
        <path id="Path_210" data-name="Path 210" class="cls-1" d="M1.5,37.043a1.5,1.5,0,0,0,1.5-1.5V34.166a4.527,4.527,0,0,1,.168-1.224,1.5,1.5,0,1,0-2.886-.816A7.557,7.557,0,0,0,0,34.166v1.377A1.5,1.5,0,0,0,1.5,37.043Z" transform="translate(0 -26.666)"/>
        <path id="Path_211" data-name="Path 211" class="cls-1" d="M1.5,101.627a1.5,1.5,0,0,0,1.5-1.5V97.094a1.5,1.5,0,0,0-3,0v3.033A1.5,1.5,0,0,0,1.5,101.627Z" transform="translate(0 -82.151)"/>
        <path id="Path_212" data-name="Path 212" class="cls-1" d="M17.112,287.84a4.515,4.515,0,0,1-1.938-1.137,1.5,1.5,0,1,0-2.115,2.127,7.491,7.491,0,0,0,3.234,1.9,1.5,1.5,0,0,0,.819-2.886Z" transform="translate(-10.842 -246.011)"/>
        <path id="Path_213" data-name="Path 213" class="cls-1" d="M289.046,17.892a1.373,1.373,0,0,0,.42-.063,1.5,1.5,0,0,0,1.02-1.86,7.505,7.505,0,0,0-1.923-3.219,1.5,1.5,0,0,0-2.109,2.133,4.532,4.532,0,0,1,1.152,1.929A1.5,1.5,0,0,0,289.046,17.892Z" transform="translate(-245.789 -10.584)"/>
        <path id="Path_214" data-name="Path 214" class="cls-1" d="M229.13,0H226.1a1.5,1.5,0,0,0,0,3h3.033a1.5,1.5,0,0,0,0-3Z" transform="translate(-193.013)"/>
        <path id="Path_215" data-name="Path 215" class="cls-1" d="M78.517,298.667H75.484a1.5,1.5,0,1,0,0,3h3.033a1.5,1.5,0,1,0,0-3Z" transform="translate(-63.58 -256.667)"/>
        <path id="Path_216" data-name="Path 216" class="cls-1" d="M300.166,73.6a1.5,1.5,0,0,0-1.5,1.5v3.033a1.5,1.5,0,1,0,3,0V75.1A1.5,1.5,0,0,0,300.166,73.6Z" transform="translate(-256.666 -63.25)"/>
        <path id="Path_217" data-name="Path 217" class="cls-1" d="M164.447,0h-3.033a1.5,1.5,0,1,0,0,3h3.03a1.5,1.5,0,1,0,0-3Z" transform="translate(-137.426)"/>
        <path id="Path_218" data-name="Path 218" class="cls-1" d="M99.743,0H96.71a1.5,1.5,0,0,0,0,3h3.033a1.5,1.5,0,0,0,0-3Z" transform="translate(-81.821)"/>
      </g>
    </g>
  </g>
  <g id="Group_322" data-name="Group 322" transform="translate(42 19.5)">
    <g id="Group_321" data-name="Group 321">
      <path id="Path_219" data-name="Path 219" class="cls-1" d="M300.166,138.667a1.5,1.5,0,0,0-1.5,1.5v1.5a1.5,1.5,0,1,0,3,0v-1.5A1.5,1.5,0,0,0,300.166,138.667Z" transform="translate(-298.666 -138.667)"/>
    </g>
  </g>
  <g id="Group_324" data-name="Group 324" transform="translate(21.285 20.07)">
    <g id="Group_323" data-name="Group 323">
      <path id="Path_220" data-name="Path 220" class="cls-1" d="M179.286,148.738l-4.65-4.65a4.681,4.681,0,0,0-7.77,1.887,4.771,4.771,0,0,0-4.851,1.113,4.662,4.662,0,0,0-1.284,2.424,4.723,4.723,0,0,0-3.966,1.326,4.672,4.672,0,0,0-1.359,3.636,4.685,4.685,0,0,0-2.676,7.953l1.344,1.344v5.379a7.511,7.511,0,0,0,7.5,7.5h6.15a16.351,16.351,0,0,0,11.562-27.912ZM167.724,173.65h-6.15a4.505,4.505,0,0,1-4.5-4.5v-2.379l3.441,3.441a1.5,1.5,0,0,0,2.121-2.124l-7.785-7.785a1.68,1.68,0,0,1,0-2.376,1.722,1.722,0,0,1,2.379,0l3.285,3.285a1.5,1.5,0,0,0,2.121-2.121l-3.75-3.75a1.682,1.682,0,0,1,0-2.379,1.721,1.721,0,0,1,2.379,0l2.25,2.25a1.5,1.5,0,0,0,2.121-2.121l-1.5-1.5a1.682,1.682,0,0,1,0-2.379,1.721,1.721,0,0,1,2.379,0l1.5,1.5a1.5,1.5,0,1,0,2.118-2.124,1.677,1.677,0,0,1,0-2.376,1.682,1.682,0,0,1,2.379,0l4.65,4.65a13.35,13.35,0,0,1-9.441,22.788Z" transform="translate(-151.359 -142.72)"/>
    </g>
  </g>
</svg>
