<svg width="24" height="12" viewBox="0 0 24 12" fill="none" xmlns="http://www.w3.org/2000/svg">
<path d="M3.60557 4.52148C3.93469 4.52148 4.20897 4.60972 4.42838 4.7862C4.6478 4.96268 4.75751 5.22436 4.75751 5.57123C4.75751 5.85116 4.60513 6.16456 4.30039 6.51143C4.00174 6.85222 3.64823 7.16562 3.23988 7.45164C2.83761 7.73766 2.42562 7.94211 2.13916 8.05773C2.29153 8.30115 2.53287 8.46791 2.7279 8.56528C2.92294 8.65656 3.1515 8.7022 3.41358 8.7022C3.70614 8.7022 3.99564 8.62918 4.2821 8.48313C4.57466 8.33099 4.81541 8.13626 5.00435 7.89892L5.11406 8.09061C4.81541 8.474 4.49847 8.76914 4.16325 8.97605C3.82803 9.17687 3.41663 9.27728 2.92904 9.27728C2.55725 9.27728 2.22508 9.186 1.93252 9.00343C1.63996 8.82087 1.41141 8.57745 1.24684 8.27318C1.08228 7.96282 1 7.62812 1 7.26908C1 6.81875 1.1219 6.3806 1.36569 5.95461C1.60949 5.52863 1.93252 5.1848 2.33478 4.92313C2.73705 4.65536 3.16064 4.52148 3.60557 4.52148ZM3.1482 5.24742C2.88002 5.24742 2.48851 5.55734 2.38094 5.66129C2.22941 5.80772 2.02258 6.08131 1.94539 6.22893C1.879 6.35587 1.78088 6.59646 1.74053 6.84005C1.69868 7.09266 1.74053 7.31337 1.82343 7.45164C1.93284 7.41661 2.4304 7.22505 2.7279 7.03527C3.02541 6.84549 3.36406 6.53442 3.50251 6.40679C3.6599 6.26171 3.90727 5.99721 3.90727 5.77205C3.90727 5.32172 3.44766 5.21176 3.1482 5.24742Z" fill="#3B393A"/>
<path fill-rule="evenodd" clip-rule="evenodd" d="M11.0622 8.45779C11.9001 7.79071 12.4351 6.77522 12.4351 5.6378C12.4351 4.50038 11.9001 3.48488 11.0622 2.81781V8.45779ZM9.71188 9.14183V7.46367H7.17402L6.18442 8.31705C6.84826 8.91223 7.73392 9.2756 8.70656 9.2756C9.05489 9.2756 9.39206 9.22899 9.71188 9.14183ZM10.1804 2.29526C9.72834 2.10526 9.23005 2 8.70656 2C6.64735 2 4.97803 3.6287 4.97803 5.6378C4.97803 6.15458 5.08847 6.64619 5.28759 7.09139L10.1672 2.29526H10.1804Z" fill="#DE2F24"/>
<path d="M8.05518 6.33342H9.61731V4.78299L8.05518 6.33342Z" fill="#DE2F24"/>
<path d="M18.7783 8.82929V2.23242H23V3.52482H20.1705V4.86207H23V6.17702H20.1705V8.82929H18.7783Z" fill="#909190"/>
<path fill-rule="evenodd" clip-rule="evenodd" d="M15.5689 7.29472C15.364 7.36603 15.1433 7.40489 14.9129 7.40489C13.8159 7.40489 12.9404 6.52442 12.9404 5.45531C12.9404 4.3862 13.8159 3.50573 14.9129 3.50573C16.0099 3.50573 16.8853 4.3862 16.8853 5.45531C16.8853 5.79396 16.7974 6.11368 16.6426 6.39249L15.3082 5.04367L14.3047 6.0398L15.5689 7.29472ZM16.5917 8.31006C16.0988 8.59622 15.5251 8.76023 14.9129 8.76023C13.0738 8.76023 11.583 7.28057 11.583 5.45531C11.583 3.63005 13.0738 2.15039 14.9129 2.15039C16.7519 2.15039 18.2427 3.63005 18.2427 5.45531C18.2427 6.17353 18.0119 6.83825 17.6198 7.38036L18.4548 8.22434L17.48 9.19183L16.5917 8.31006Z" fill="#909190"/>
</svg>
