<svg xmlns="http://www.w3.org/2000/svg" width="184" height="210" viewBox="0 0 184 210"><g fill="none" fill-rule="evenodd" transform="translate(.774)"><ellipse cx="91.531" cy="118.514" fill="#EEF2F6" rx="91.531" ry="90.514"/><g stroke-width=".5"><path fill="#FFF" stroke="#8C8F9B" stroke-opacity=".679" d="M63.093 166.178c-1.637.198-1.642 3.56-1.637 6.458.005 2.9 1.637 11.745 7.209 15.45"/><path fill="#FFF" stroke="#8C8F9B" stroke-opacity=".703" d="M123.405 140.363l-12.666 3.822c4.271 2.755 6.492 4.459 6.661 5.11.797 3.066 2.257 5.658 4.383 7.776 3.262 3.251-2.16 8.977-.378 11.333 2.974 3.931 4.597 6.856 4.868 8.773l14.216-4.742c1.867-5.1 1.668-10.148-.597-15.143-2.264-4.994-7.76-10.637-16.487-16.929zm-23.597 7.335l-12.245 3.677-3.007 7.098-21.108 7.473c4.601 10.945 6.505 18.253 5.71 21.922l10.701-2.687c2.04-.512 1.561-5.612 3.21-6.026 2.056-.516 4.483 2.659 6.217 2.863 4.15.488 6.568-.853 6.568-.853l11.493 1.71 12.26-3.35c-2.279-1.793-3.995-3.96-5.147-6.5-.742-1.638-3.977-5.04-4.664-6.56-1.376-3.043-8.872-4.355-3.05-10.431 1.44-1.503-.873-4.282-6.938-8.336z"/><path stroke="#8C8F9B" d="M96.157 174.674l8.397-.83 2.115 5.51z" opacity=".7"/><path fill="#FFF" stroke="#A8ADB6" d="M84.161 188.331c-1.025-4.035-.604-5.26 1.265-3.675 1.869 1.585 3.988 1.918 6.359 1 1.192 3.522.583 5.546-1.827 6.07l-5.576.48-.221-3.875z"/></g><path fill="#DBE1E7" stroke="#9DAAB6" d="M69.38 95.718c7.741 3.473 10.964 7.28 9.669 11.42-1.944 6.21-5.225 5.076-6.222 5.038-.997-.039 3.953 4.91-.997 5.7-4.95.791-13.922-3.277-4.95-11.079l3.071-.129c-5.018-3.652-6.942-6.501-5.773-8.547 1.17-2.046 2.903-2.847 5.201-2.403zm-40.904-4.187c27.466 2.775 41.531 5.973 42.197 9.593.998 5.43.863 12.656-3.212 15.383-4.075 2.726-3.817 7.569-19.673 7.569-10.57 0-17.007-10.848-19.312-32.545z"/><ellipse cx="38.647" cy="127.127" fill="#DBE1E7" stroke="#9DAAB6" rx="14.238" ry="9.153"/><ellipse cx="58.987" cy="62.038" fill="#DBE1E7" stroke="#9DAAB6" rx="42.715" ry="41.698"/><path fill="#DBE1E7" stroke="#9DAAB6" d="M30.288 95.718c-7.742 3.473-10.965 7.28-9.67 11.42 1.944 6.21 5.226 5.076 6.223 5.038.997-.039-3.953 4.91.997 5.7 4.95.791 13.921-3.277 4.95-11.079l-3.072-.129c5.018-3.652 6.943-6.501 5.773-8.547-1.169-2.046-2.903-2.847-5.201-2.403z"/><ellipse cx="82.378" cy="69.157" fill="#A0AEBC" rx="3.051" ry="6.102" transform="rotate(2 82.378 69.157)"/><ellipse cx="62.038" cy="61.021" fill="#A0AEBC" rx="3.051" ry="6.102" transform="rotate(-95 62.038 61.02)"/><path stroke="#9DAAB6" stroke-width=".5" d="M26.442 0c10.672 10.71 16.096 20.88 16.273 30.51M14.238 6.102c12.88 9.527 20.338 18.341 22.375 26.442"/><ellipse cx="73.225" cy="126.11" fill="#DBE1E7" stroke="#9DAAB6" rx="18.306" ry="6.102"/><path fill="#FFF" stroke="#AEB1B9" stroke-width=".5" d="M127.245 160.688c.497 0 .899-.887.899-1.295 0-.408-.402-.739-.899-.739-.496 0-1.135.331-1.135.74 0 .407.64 1.294 1.135 1.294z"/><path fill="#FFF" stroke="#A9ADB6" stroke-width=".5" d="M121.275 184.84c.012 1.275-.564 1.826-1.728 1.653-1.164-.173-1.153.989.033 3.486l7.473-3.172c-1.534-.672-2.525-1.32-2.974-1.94-.449-.621-1.383-.63-2.804-.027zm-7.369-24.152c1.123 0 2.034-.38 2.034-.85s-2.034-.726-3.064-1.102c-1.03-.375-1.004.632-1.004 1.102 0 .47.91.85 2.034.85z"/><path fill="#FFF" stroke="#A9ADB6" stroke-width=".3" d="M117.974 164.756c1.123 0 2.034-.38 2.034-.85s-2.034-.726-3.064-1.101c-1.03-.376-1.004.631-1.004 1.1 0 .47.91.851 2.034.851z"/><path fill="#FFF" stroke="#AEB1B9" stroke-width=".3" d="M119.512 183.074c.229 0 .415-.41.415-.599 0-.188-.186-.34-.415-.34-.23 0-.525.152-.525.34 0 .189.296.599.525.599z"/><path fill="#FFF" stroke="#A9ADB6" stroke-width=".3" d="M117.895 186.124c.517 0 .937-.175.937-.392 0-.216-.937-.334-1.412-.507-.475-.174-.463.29-.463.507 0 .217.42.392.938.392zm-32.987-4.067c.28 0 .508-.19.508-.426 0-.235-.508-.363-.766-.55-.257-.188-.251.315-.251.55 0 .235.228.426.509.426zm3.078 1.793c.297 0 .537-.1.537-.225 0-.124-.537-.191-.808-.29-.272-.1-.266.166-.266.29 0 .124.24.225.537.225z"/></g></svg>