<svg xmlns="http://www.w3.org/2000/svg" width="16" height="16.001" viewBox="0 0 16 16.001">
    <path fill="#4c698d" d="M-17071 2862a8.009 8.009 0 0 1-8-8 8.011 8.011 0 0 1 8-8 8.009 8.009 0 0 1 8 8 8.007 8.007 0 0 1-8 8zm.309-8.77a4.394 4.394 0 0 0-.527.06c-.08.015-.154.032-.225.049h-.016l-.068.016a5.273 5.273 0 0 0-.535.18 4.308 4.308 0 0 0-.395.176l-.215.12-.141.094a.251.251 0 0 0-.111.158.264.264 0 0 0 .037.2l.018.026a.29.29 0 0 0 .2.1l.021.005.027.007a.7.7 0 0 1 .189.034.528.528 0 0 1 .266.21.621.621 0 0 1 .008.459l-.023.1-.189.762-.061.254c-.111.452-.227.919-.334 1.377a.883.883 0 0 0 .141.862.883.883 0 0 0 .7.339.831.831 0 0 0 .1 0 3.79 3.79 0 0 0 2.172-.711.62.62 0 0 0 .121-.112.252.252 0 0 0 .063-.219.242.242 0 0 0-.191-.129c-.029-.009-.061-.015-.092-.021s-.062-.013-.094-.022c-.391-.106-.5-.283-.4-.677l.078-.316c.027-.106.055-.224.084-.335l.055-.229c.133-.536.27-1.091.4-1.636a.888.888 0 0 0-.059-.712.889.889 0 0 0-.576-.424 2.03 2.03 0 0 0-.428-.047zm-.049-4.171a1.323 1.323 0 0 0-.934.382 1.344 1.344 0 0 0-.393.956 1.35 1.35 0 0 0 .826 1.26 1.348 1.348 0 0 0 .527.107 1.33 1.33 0 0 0 .951-.39 1.347 1.347 0 0 0 .3-1.474 1.346 1.346 0 0 0-1.248-.84z" opacity="0.7" transform="translate(17079 -2845.998)"/>
</svg>
