<svg width="16" height="16" fill="none" xmlns="http://www.w3.org/2000/svg">
    <g opacity=".4" clip-path="url(#a)">
        <path d="M7.636 6.348a1.476 1.476 0 1 0 0 2.95 1.476 1.476 0 0 0 0-2.95zm-.112 1.037a.339.339 0 0 0-.336.336h-.489a.834.834 0 0 1 .825-.824v.488z" fill="#2E3F55"/>
        <path d="M15.1 7.319c-.83-1.034-3.798-4.409-7.464-4.409C3.971 2.91 1.01 6.285.178 7.32a.816.816 0 0 0 0 1.018c.83 1.034 3.798 4.409 7.458 4.409s6.63-3.375 7.462-4.409A.816.816 0 0 0 15.1 7.32zm-7.464 4.07a3.563 3.563 0 1 1 0-7.127 3.563 3.563 0 0 1 0 7.127z" fill="#2E3F55"/>
        <path d="m6.921 8.315-.056-.049-.51-.43.563-.936.709-.184.08-.02v.945l-.786.674z" fill="#2E3F55"/>
        <path d="M3.691 1.93a.963.963 0 0 1 1.327.306l6.124 9.797a.963.963 0 0 1-.307 1.327L3.691 1.93z" fill="#fff"/>
        <path d="M4.33 2.093a.481.481 0 0 0-.817.51l6.634 10.614a.481.481 0 1 0 .816-.51L4.33 2.093z" fill="#2E3F55"/>
    </g>
    <defs>
        <clipPath id="a">
            <path fill="#fff" d="M0 0h16v16H0z"/>
        </clipPath>
    </defs>
</svg>
