<svg xmlns="http://www.w3.org/2000/svg" width="22" height="22" viewBox="0 0 22 22">
  <g id="Group_10956" data-name="Group 10956" transform="translate(-910 -541)">
    <rect id="Rectangle_2253" data-name="Rectangle 2253" width="22" height="22" transform="translate(910 541)" fill="none"/>
    <g id="noun_message_3039134" transform="translate(892 540)">
      <g id="Group_3349" data-name="Group 3349" transform="translate(19 3)">
        <path id="Path_1675" data-name="Path 1675" d="M16.061,0H2.974A2.983,2.983,0,0,0,0,2.974V11.3a2.983,2.983,0,0,0,2.974,2.974h11.3l4.759,4.759V2.974A2.983,2.983,0,0,0,16.061,0M11.9,10.707H4.759a1.19,1.19,0,0,1,0-2.379H11.9a1.19,1.19,0,0,1,0,2.379m2.379-4.759H4.759a1.19,1.19,0,0,1,0-2.379h9.518a1.19,1.19,0,0,1,0,2.379" fill="#8397af" fill-rule="evenodd"/>
      </g>
    </g>
  </g>
</svg>
