<svg xmlns="http://www.w3.org/2000/svg" id="Component_56_2" width="22" height="22" data-name="Component 56 – 2" viewBox="0 0 22 22">
    <defs>
        <style>
            .cls-3{fill:#fff;stroke:#fff;stroke-width:.5px}
        </style>
    </defs>
    <path id="Rectangle_2340" fill="none" d="M0 0H22V22H0z" data-name="Rectangle 2340"/>
    <g id="doc" transform="translate(2.75)">
        <path id="Path_3648" fill="#00a7ff" d="M97.375 0A1.379 1.379 0 0 0 96 1.375v19.25A1.379 1.379 0 0 0 97.375 22h13.75a1.379 1.379 0 0 0 1.375-1.375V5.5L107 0z" data-name="Path 3648" transform="translate(-96)"/>
        <g id="Group_11257" data-name="Group 11257" transform="translate(2.223 11)">
            <path id="Path_3654" d="M288.848 295.141a1.85 1.85 0 0 1 1.93-1.973 1.8 1.8 0 0 1 1.259.49.356.356 0 1 1-.489.516.949.949 0 0 0-.769-.3 1.188 1.188 0 0 0-1.253 1.27 1.209 1.209 0 0 0 1.253 1.308 1.284 1.284 0 0 0 .858-.352.369.369 0 0 1 .505.066.379.379 0 0 1-.06.516 1.995 1.995 0 0 1-3.233-1.539z" class="cls-3" data-name="Path 3654" transform="translate(-279.792 -293.368)"/>
            <path id="Path_3653" d="M181.833 296.268a1.92 1.92 0 0 1-2.073-1.979 2.02 2.02 0 0 1 4.04 0 1.917 1.917 0 0 1-1.967 1.979zm-.061-3.281a1.3 1.3 0 1 0 1.308 1.3 1.258 1.258 0 0 0-1.308-1.3z" class="cls-3" data-name="Path 3653" transform="translate(-175.745 -292.471)"/>
            <path id="Path_3652" d="M84.124 299.276a.345.345 0 0 1-.38-.341v-3.122a.373.373 0 0 1 .38-.341h1.259a1.9 1.9 0 0 1 .049 3.8zm.346-3.134v2.458h.912a1.235 1.235 0 0 0 0-2.463z" class="cls-3" data-name="Path 3652" transform="translate(-84.236 -295.475)"/>
        </g>
    </g>
</svg>
