<svg xmlns="http://www.w3.org/2000/svg" id="Component_59_1" width="22" height="22" data-name="Component 59 – 1" viewBox="0 0 22 22">
    <defs>
        <style>
            .cls-3{fill:#fff;stroke:#fff;stroke-width:.5px}
        </style>
    </defs>
    <g id="Component_57_4" data-name="Component 57 – 4">
        <path id="Rectangle_2339" fill="none" d="M0 0H22V22H0z" data-name="Rectangle 2339"/>
        <g id="pdf_2_" data-name="pdf (2)" transform="translate(2.75)">
            <path id="Path_3640" fill="#24c11e" d="M97.375 0A1.379 1.379 0 0 0 96 1.375v19.25A1.379 1.379 0 0 0 97.375 22h13.75a1.379 1.379 0 0 0 1.375-1.375V5.5L107 0z" data-name="Path 3640" transform="translate(-96)"/>
        </g>
    </g>
    <g id="Group_11328" data-name="Group 11328" transform="translate(5 10.511)">
        <path id="Path_3660" d="M107.28 296.679l1.169-1.465c.35-.457 1.028.127.645.564-.4.477-.826.995-1.229 1.525l1.37 1.707a.441.441 0 1 1-.732.49l-1.237-1.586-1.216 1.62c-.343.49-1.1-.06-.719-.518l1.35-1.713c-.424-.531-.834-1.048-1.243-1.525a.435.435 0 1 1 .672-.55z" class="cls-3" data-name="Path 3660" transform="translate(-105.226 -295.043)"/>
        <path id="Path_3661" d="M197.36 295.754a.419.419 0 0 1 .423-.41.41.41 0 0 1 .4.41v3.366h1.828a.443.443 0 1 1 0 .88h-2.223a.406.406 0 0 1-.423-.409v-3.837z" class="cls-3" data-name="Path 3661" transform="translate(-192.521 -295.344)"/>
        <path id="Path_3662" d="M270.625 292.629c.155-1.3 2.122-1.539 3.05-.826a.393.393 0 1 1-.43.658c-.5-.315-1.626-.463-1.767.234-.182 1.1 2.741.471 2.694 2.259-.047 1.707-2.519 1.746-3.447.981a.5.5 0 0 1-.094-.659.4.4 0 0 1 .6-.046c.55.376 1.969.658 2.069-.3-.089-.99-2.884-.393-2.675-2.301z" class="cls-3" data-name="Path 3662" transform="translate(-261.864 -291.407)"/>
    </g>
</svg>
