<svg xmlns="http://www.w3.org/2000/svg" id="Component_58_1" width="22" height="22" data-name="Component 58 – 1" viewBox="0 0 22 22">
    <defs>
        <style>
            .cls-2{fill:#00a7ff}.cls-3{fill:#fff;stroke:#fff;stroke-width:.5px}
        </style>
    </defs>
    <path id="Rectangle_2341" fill="none" d="M0 0H22V22H0z" data-name="Rectangle 2341"/>
    <g id="Group_11266" data-name="Group 11266" transform="translate(2.75)">
        <g id="xls">
            <path id="Path_3656" d="M97.375 0A1.379 1.379 0 0 0 96 1.375v19.25A1.379 1.379 0 0 0 97.375 22h13.75a1.379 1.379 0 0 0 1.375-1.375V5.5L107 0z" class="cls-2" data-name="Path 3656" transform="translate(-96)"/>
            <g id="Group_11259" data-name="Group 11259" transform="translate(3.146 9.771)">
                <path id="Path_3660" d="M106.906 296.382l.956-1.2c.286-.374.841.1.528.461-.329.39-.676.814-1.006 1.248l1.121 1.4a.361.361 0 1 1-.6.4l-1.012-1.3-.995 1.325c-.281.4-.9-.049-.589-.423l1.1-1.4c-.346-.435-.682-.857-1.017-1.248a.356.356 0 1 1 .55-.45z" class="cls-2" data-name="Path 3660" transform="translate(-105.226 -294.887)"/>
                <path id="Path_3661" d="M197.36 295.68a.343.343 0 0 1 .346-.336.335.335 0 0 1 .325.336v2.754h1.5a.363.363 0 1 1 0 .72h-1.819a.332.332 0 0 1-.346-.335v-3.139z" class="cls-2" data-name="Path 3661" transform="translate(-193.401 -295.175)"/>
                <path id="Path_3662" d="M270.61 292.407c.126-1.067 1.737-1.259 2.5-.676a.322.322 0 1 1-.352.538c-.407-.258-1.33-.379-1.446.192-.148.9 2.243.386 2.2 1.848-.038 1.4-2.061 1.429-2.82.8a.406.406 0 0 1-.077-.539.325.325 0 0 1 .49-.038c.45.307 1.611.538 1.693-.243-.072-.81-2.358-.321-2.188-1.882z" class="cls-2" data-name="Path 3662" transform="translate(-263.443 -291.407)"/>
            </g>
        </g>
        <g id="noun_Document_504765" transform="translate(.75 2.306)">
            <path id="Path_2823" d="M23.09 18.606H11.3a1.605 1.605 0 0 1-1.6-1.6V1.6A1.605 1.605 0 0 1 11.3 0h9.17a.551.551 0 0 1 .387.16l3.676 3.673a.546.546 0 0 1 .16.387V17a1.605 1.605 0 0 1-1.603 1.606z" class="cls-2" data-name="Path 2823" transform="translate(-9.695)"/>
            <path id="Path_2825" d="M33.682 76.257h-7.393a.61.61 0 0 1 0-1.2h7.393a.61.61 0 0 1 0 1.2z" class="cls-3" data-name="Path 2825" transform="translate(-22.486 -61.176)"/>
            <path id="Path_2826" d="M33.682 58.61h-7.393a.61.61 0 0 1 0-1.2h7.393a.61.61 0 0 1 0 1.2z" class="cls-3" data-name="Path 2826" transform="translate(-22.486 -46.792)"/>
            <path id="Path_2827" d="M33.682 40.963h-7.393a.61.61 0 0 1 0-1.2h7.393a.61.61 0 0 1 0 1.2z" class="cls-3" data-name="Path 2827" transform="translate(-22.486 -32.408)"/>
        </g>
    </g>
</svg>
