<svg xmlns="http://www.w3.org/2000/svg" width="16" height="16" viewBox="0 0 16 16">
    <g>
        <path fill="none" d="M0 0H16V16H0z" transform="translate(-122 -298) translate(122 298)"/>
        <g>
            <g>
                <g>
                    <path fill="#8397af" fill-rule="evenodd" d="M42.345 40.3c0 .467-.268.577-.6.245l-2.177-2.175a.848.848 0 0 1 0-1.2l2.177-2.177c.331-.331.6-.218.6.245v-.177a.844.844 0 0 0 .847.845.848.848 0 0 0 .847-.85V32.35a.849.849 0 0 0-.85-.85h-2.705a.846.846 0 0 0-.85.847.848.848 0 0 0 .845.847H40.3c.467 0 .577.268.245.6l-2.175 2.178a.848.848 0 0 1-1.2 0l-2.177-2.177c-.331-.331-.218-.6.245-.6h-.177a.844.844 0 0 0 .845-.847.848.848 0 0 0-.85-.847H32.35a.849.849 0 0 0-.85.85v2.707a.846.846 0 0 0 .847.85.848.848 0 0 0 .847-.845v.177c0-.467.268-.577.6-.245l2.177 2.177a.848.848 0 0 1 0 1.2l-2.177 2.177c-.331.331-.6.218-.6-.245v.177a.844.844 0 0 0-.847-.845.848.848 0 0 0-.847.85v2.707a.849.849 0 0 0 .85.85h2.707a.846.846 0 0 0 .85-.847.848.848 0 0 0-.845-.847h.177c-.467 0-.577-.268-.245-.6l2.177-2.177a.848.848 0 0 1 1.2 0l2.177 2.177c.331.331.218.6-.245.6h.177a.844.844 0 0 0-.845.847.848.848 0 0 0 .85.847h2.707a.849.849 0 0 0 .85-.85v-2.709a.846.846 0 0 0-.847-.85.848.848 0 0 0-.847.845z" transform="translate(-122 -298) translate(92.5 268.5) translate(31.5 31.5) translate(-31.5 -31.5)"/>
                </g>
            </g>
        </g>
    </g>
</svg>
