<svg xmlns="http://www.w3.org/2000/svg" width="16" height="16" viewBox="0 0 16 16">
    <g opacity="0.6">
        <g>
            <path fill="none" d="M0 0H16V16H0z" transform="translate(-446 -181) translate(446 181)"/>
        </g>
        <g>
            <g>
                <path fill="#4c698d" d="M12.747 0H.271A.271.271 0 0 0 0 .271v12.476a.271.271 0 0 0 .271.271h12.476a.271.271 0 0 0 .271-.271V.271A.271.271 0 0 0 12.747 0zm-.271 9.034L9.16 4.981a.271.271 0 0 0-.209-.1.271.271 0 0 0-.208.1L7.658 6.28 4.821 2.812a.281.281 0 0 0-.42 0L.542 7.527V.542h11.934v8.492z" transform="translate(1.491 1.491)"/>
            </g>
        </g>
    </g>
</svg>
