<svg width="20" height="20" fill="none" xmlns="http://www.w3.org/2000/svg">
    <path fill-rule="evenodd" clip-rule="evenodd" d="M2.36 3.954c0-1.114.902-2.017 2.016-2.017h11.25c1.113 0 2.016.903 2.016 2.017v11.88a2.017 2.017 0 0 1-2.016 2.016H4.376a2.017 2.017 0 0 1-2.017-2.017V3.954zm2.016-1.317c-.727 0-1.317.59-1.317 1.317v11.88c0 .353.14.674.367.911a.348.348 0 0 1 .106-.143l9.375-7.5a.35.35 0 0 1 .485.046l3.55 4.143V3.954c0-.727-.59-1.317-1.316-1.317H4.376zm12.566 11.458a.35.35 0 0 1-.332-.116L13.08 9.86l-9.053 7.243c.111.03.228.047.35.047h11.249c.727 0 1.316-.59 1.316-1.317v-1.739zM5.457 7.082a1.625 1.625 0 1 1 3.25 0 1.625 1.625 0 0 1-3.25 0zm1.625-.875a.875.875 0 1 0 0 1.75.875.875 0 0 0 0-1.75z" fill="#C9001F"/>
</svg>
