<svg xmlns="http://www.w3.org/2000/svg" width="22" height="22" viewBox="0 0 22 22">
    <defs>
        <style>
            .cls-2{fill:#8b58bc}.cls-3{fill:#cab7e0}.cls-4{fill:#a077c7}
        </style>
    </defs>
    <g id="Group_11139" data-name="Group 11139" transform="translate(-968 -694)">
        <path id="Rectangle_2318" fill="none" d="M0 0H22V22H0z" data-name="Rectangle 2318" transform="translate(968 694)"/>
        <g id="dress" transform="translate(884.06 694)">
            <path id="Path_2902" d="M102.166 18.295a17.286 17.286 0 0 0-1.729-4.946 20.523 20.523 0 0 0-2.179-3.395.129.129 0 0 0 .018-.03 8.091 8.091 0 0 0 1.13-4.333 7.875 7.875 0 0 0-.041-.8l1.164.584a.37.37 0 0 0 .488-.148l1.153-2.017a.362.362 0 0 0-.078-.458L99.835.779A2.572 2.572 0 0 0 98.76.218L97.889 0a10.752 10.752 0 0 1-.163 1.082 6.37 6.37 0 0 1-2.423.4 6.368 6.368 0 0 1-2.423-.4A10.748 10.748 0 0 1 92.718 0l-.872.218a2.572 2.572 0 0 0-1.075.561l-2.257 1.973a.362.362 0 0 0-.078.458l1.152 2.017a.37.37 0 0 0 .488.148l1.164-.584a7.88 7.88 0 0 0-.041.8 8.076 8.076 0 0 0 1.13 4.333.15.15 0 0 0 .018.033 18.19 18.19 0 0 0-1.315 1.88 19.576 19.576 0 0 0-2.246 4.946 13.238 13.238 0 0 0-.5 2.759 8.29 8.29 0 0 0 5.181 1.858 12.784 12.784 0 0 0 1.836-.015c4.8.369 7.018-1.843 7.018-1.843a11.556 11.556 0 0 0-.155-1.247z" class="cls-2" data-name="Path 2902"/>
            <g id="Group_10253" data-name="Group 10253" transform="translate(88.787 5.541)">
                <path id="Path_2903" d="M159.749 135.334a.873.873 0 0 1-.65 1.463.1.1 0 0 1-.033 0 8.076 8.076 0 0 1-1.13-4.333.828.828 0 0 1 .288-.048.876.876 0 0 1 .875.879.859.859 0 0 1-.041.259 1.455 1.455 0 0 1 .181.151.892.892 0 0 1 .443-.118.877.877 0 0 1 .066 1.751z" class="cls-3" data-name="Path 2903" transform="translate(-155.524 -132.413)"/>
                <path id="Path_2904" d="M105.331 285.406a1.11 1.11 0 0 0-1.67-.957 1.9 1.9 0 0 0-.229-.192 1.075 1.075 0 0 0 .052-.329 1.1 1.1 0 0 0-.946-1.093 19.575 19.575 0 0 0-2.246 4.946 1.106 1.106 0 0 0 2.017-.163 1 1 0 0 0 .066-.366 1 1 0 0 0 .066.366 6.475 6.475 0 0 0 2.889-2.212zm-2.693.632a.368.368 0 0 1-.6-.4.369.369 0 0 1 .709.14.389.389 0 0 1-.108.26z" class="cls-3" data-name="Path 2904" transform="translate(-100.293 -276.541)"/>
            </g>
            <path id="Path_2905" d="M213.974 414.9v4.023a12.8 12.8 0 0 1-1.836.015z" class="cls-4" data-name="Path 2905" transform="translate(-118.671 -397.537)"/>
            <g id="Group_10254" data-name="Group 10254" transform="translate(96.781 5.541)">
                <path id="Path_2906" d="M303.434 317.844a1.106 1.106 0 0 0-1.441 1.056 1.077 1.077 0 0 0 .052.329 1.9 1.9 0 0 0-.229.192 2.037 2.037 0 1 0 1.219 3.169.189.189 0 1 1 .133 0 1.1 1.1 0 0 0 1.995.2 17.284 17.284 0 0 0-1.729-4.946zm-.07 3.165a.369.369 0 0 1-.6-.4.369.369 0 0 1 .709.14.389.389 0 0 1-.109.261z" class="cls-3" data-name="Path 2906" transform="translate(-299.777 -310.036)"/>
                <path id="Path_2907" d="M293.947 132.461a8.092 8.092 0 0 1-1.13 4.333.1.1 0 0 1-.033 0 .873.873 0 0 1-.65-1.463.877.877 0 0 1 .063-1.751.9.9 0 0 1 .447.118 1.779 1.779 0 0 1 .181-.151.861.861 0 0 1-.041-.259.876.876 0 0 1 .876-.879.828.828 0 0 1 .287.052z" class="cls-3" data-name="Path 2907" transform="translate(-291.32 -132.413)"/>
            </g>
            <path id="Path_2908" d="M202.948 25.865c-.259 1.363-.912 3.587-2.423 4.089-1.511-.5-2.165-2.726-2.423-4.089a7.625 7.625 0 0 0 4.846 0z" class="cls-4" data-name="Path 2908" transform="translate(-105.222 -24.783)"/>
            <g id="Group_10255" data-name="Group 10255" transform="translate(90.501 14.401)">
                <path id="Path_2909" d="M141.991 344.544a.369.369 0 1 1-.709-.14.369.369 0 0 1 .709.14z" class="cls-2" data-name="Path 2909" transform="translate(-141.252 -344.17)"/>
                <path id="Path_2910" d="M362.681 379.855a.369.369 0 1 1-.709-.14.369.369 0 0 1 .709.14z" class="cls-2" data-name="Path 2910" transform="translate(-352.708 -378.003)"/>
            </g>
        </g>
    </g>
</svg>
