<svg xmlns="http://www.w3.org/2000/svg" width="22" height="22" viewBox="0 0 22 22">
    <defs>
        <style>
            .cls-3{fill:#dc67ab}.cls-4{fill:#ebbdd9}
        </style>
    </defs>
    <g id="Group_11080" data-name="Group 11080" transform="translate(-703 -397)">
        <rect id="Rectangle_2306" width="22" height="22" fill="none" data-name="Rectangle 2306" rx="2" transform="translate(703 397)"/>
        <g id="surface1" transform="translate(703.001 401.775)">
            <path id="Path_3315" fill="#e183b9" d="M1.517 247.172A1.517 1.517 0 0 0 0 248.689h22v-1.517zm0 0" data-name="Path 3315" transform="translate(0 -236.552)"/>
            <path id="Path_3316" d="M284.76 80.208a.761.761 0 0 0-.759-.758h-.759a.761.761 0 0 0-.758.758v.379h2.276zm0 0" class="cls-3" data-name="Path 3316" transform="translate(-270.347 -76.036)"/>
            <path id="Path_3317" d="M173.42 7.586L172.052 1.2a1.521 1.521 0 0 0-1.483-1.2H159.6a.705.705 0 0 0-.705.705v.107a.705.705 0 0 0 .705.705h7.351a.759.759 0 0 1 .743.6l.52 2.434.651 3.034zm0 0" class="cls-4" data-name="Path 3317" transform="translate(-152.071)"/>
            <path id="Path_3318" d="M390.93 176.551l.651 3.034h4.551l-.65-3.034zm0 0" class="cls-4" data-name="Path 3318" transform="translate(-374.133 -168.965)"/>
            <path id="Path_3319" fill="#e59fc9" d="M85.857 107.447a7.553 7.553 0 0 0-4.56 1.517h11.18l-.651-3.034h-5.97a9.1 9.1 0 0 0-6.779 3.034H81.3a7.553 7.553 0 0 1 4.557-1.517zm0 0" data-name="Path 3319" transform="translate(-75.68 -101.378)"/>
            <path id="Path_3320" d="M39.408 176.551a7.554 7.554 0 0 0-1.51 1.517 7.554 7.554 0 0 1 1.51-1.517h-2.219a9.093 9.093 0 0 0-1.361 2l-.52 1.035h15.93l-.651-3.034zm0 0" class="cls-3" data-name="Path 3320" transform="translate(-33.791 -168.965)"/>
            <path id="Path_3321" fill="#fff" d="M87.137 136.2a.379.379 0 0 1-.3-.607 7.872 7.872 0 0 1 6.373-3.186.379.379 0 1 1 0 .759 7.121 7.121 0 0 0-5.765 2.883.38.38 0 0 1-.308.151zm0 0" data-name="Path 3321" transform="translate(-83.03 -126.721)"/>
        </g>
    </g>
</svg>
