<svg xmlns="http://www.w3.org/2000/svg" width="22" height="22" viewBox="0 0 22 22">
    <defs>
        <style>
            .cls-2{fill:#deb7db}.cls-3{fill:#d296cc}.cls-4{fill:#c777bd}.cls-5{fill:#bc58b0}.cls-6{fill:#8b58bc}
        </style>
    </defs>
    <g id="Group_11075" data-name="Group 11075" transform="translate(-585 -397)">
        <path id="Rectangle_2276" fill="none" d="M0 0H22V22H0z" data-name="Rectangle 2276" transform="translate(585 397)"/>
        <g id="teddy-bear_1_" data-name="teddy-bear (1)" transform="translate(528.039 397)">
            <path id="Path_3290" d="M95.64.486a2.7 2.7 0 0 1 3.749.682 2.917 2.917 0 0 1 .25.409V1.8l-3.025 3.458h-.163a2.85 2.85 0 0 1-1.3-.993A2.7 2.7 0 0 1 95.64.486z" class="cls-2" data-name="Path 3290" transform="translate(-33.086 -.001)"/>
            <path id="Path_3291" d="M96.3 4.608A2.7 2.7 0 0 1 96.7.9a2.506 2.506 0 0 0-1.062.448 2.7 2.7 0 0 0-.49 3.779 2.85 2.85 0 0 0 1.3.993h.163l.608-.7a2.867 2.867 0 0 1-.919-.812z" class="cls-3" data-name="Path 3291" transform="translate(-33.086 -.862)"/>
            <path id="Path_3292" d="M127.667 34.313a1.573 1.573 0 0 1 2.13.405l-.037.184-1.708 2.069h-.15a1.846 1.846 0 0 1-.449-.436 1.584 1.584 0 0 1 .214-2.222z" class="cls-2" data-name="Path 3292" transform="translate(-64.256 -32.655)"/>
            <path id="Path_3293" d="M128.374 36.223a1.645 1.645 0 0 1-.052-1.965 1.345 1.345 0 0 0-.656.251 1.584 1.584 0 0 0-.214 2.222 1.847 1.847 0 0 0 .449.436h.15l.559-.677a1.862 1.862 0 0 1-.236-.267z" class="cls-4" data-name="Path 3293" transform="translate(-64.256 -32.851)"/>
            <path id="Path_3294" d="M298.675.486a2.7 2.7 0 0 0-3.749.682 2.916 2.916 0 0 0-.25.409V1.8l3.024 3.458h.163a2.85 2.85 0 0 0 1.3-.993 2.7 2.7 0 0 0-.49-3.779z" class="cls-2" data-name="Path 3294" transform="translate(-224.945 -.001)"/>
            <path id="Path_3295" d="M295.678 2.31a2.7 2.7 0 0 1 3.749-.682c.057.041.11.085.163.13a2.524 2.524 0 0 0-.915-1.273 2.7 2.7 0 0 0-3.749.682 2.915 2.915 0 0 0-.25.409V1.8l.773.885a2.905 2.905 0 0 1 .229-.375z" class="cls-3" data-name="Path 3295" transform="translate(-224.945)"/>
            <path id="Path_3296" d="M321.417 34.313a1.573 1.573 0 0 0-2.13.405l.037.184 1.708 2.069h.15a1.846 1.846 0 0 0 .449-.436 1.584 1.584 0 0 0-.214-2.222z" class="cls-2" data-name="Path 3296" transform="translate(-248.545 -32.655)"/>
            <path id="Path_3297" d="M321.959 35.2a1.384 1.384 0 0 0-.541-.887 1.573 1.573 0 0 0-2.13.405l.037.184.6.732a1.583 1.583 0 0 1 2.034-.434z" class="cls-4" data-name="Path 3297" transform="translate(-248.546 -32.655)"/>
            <path id="Path_3298" d="M204.7 418.591h-3.792l-.377 2.537.078.149a5.245 5.245 0 0 0 4.4 0l.049-.233z" class="cls-4" data-name="Path 3298" transform="translate(-134.667 -401.39)"/>
            <path id="Path_3299" d="M201.524 418.591h-.618l-.377 2.537.078.149a5.24 5.24 0 0 0 4.088.132 5.234 5.234 0 0 1-3.171-2.818z" class="cls-5" data-name="Path 3299" transform="translate(-134.667 -401.39)"/>
            <path id="Path_3300" d="M173.041 246.675a8.313 8.313 0 0 1-2.666.7 7.871 7.871 0 0 1-2.638-.72l-1.032 2.064v3.147l1.614 1.912.2.072a3.924 3.924 0 0 0 3.7 0l.221-.069 1.531-1.931v-3.25z" class="cls-2" data-name="Path 3300" transform="translate(-102.233 -236.519)"/>
            <path id="Path_3301" d="M168.52 251.671a5.859 5.859 0 0 1 1.273-4.351 9.3 9.3 0 0 1-2.057-.666l-1.032 2.064v3.147l1.614 1.912.2.072a3.988 3.988 0 0 0 .809.323 6.117 6.117 0 0 1-.807-2.501z" class="cls-3" data-name="Path 3301" transform="translate(-102.233 -236.519)"/>
            <path id="Path_3302" d="M91.714 220.5l-.047-.155-1.159-1.128h-.156a5.828 5.828 0 0 0-2.949 4.136 5.658 5.658 0 0 0 .083 1.7 1.782 1.782 0 0 0 .413.812h.213l2.651-.323.111-.047a1.815 1.815 0 0 0 .145-1.313 4.075 4.075 0 0 1 .695-3.682z" class="cls-4" data-name="Path 3302" transform="translate(-26.162 -210.209)"/>
            <path id="Path_3303" d="M323.349 223.353a5.827 5.827 0 0 0-2.949-4.136h-.228l-1.134 1.1v.182a4.075 4.075 0 0 1 .7 3.68 1.815 1.815 0 0 0 .145 1.313l.148.1 2.667.274h.159a1.782 1.782 0 0 0 .413-.812 5.659 5.659 0 0 0 .079-1.701z" class="cls-4" data-name="Path 3303" transform="translate(-248.305 -210.209)"/>
            <path id="Path_3304" d="M90.461 219.217h-.111a5.828 5.828 0 0 0-2.949 4.136 5.658 5.658 0 0 0 .083 1.7 1.782 1.782 0 0 0 .413.812h.213l1.256-.153a1.784 1.784 0 0 1-.292-.659 5.658 5.658 0 0 1-.083-1.7 5.181 5.181 0 0 1 1.977-3.431v-.11z" class="cls-5" data-name="Path 3304" transform="translate(-26.162 -210.209)"/>
            <path id="Path_3305" d="M319.878 225.492l.1.065h1.589l-.1-.065a1.815 1.815 0 0 1-.145-1.313 4.075 4.075 0 0 0-.7-3.68v-.182l.562-.546a8.431 8.431 0 0 0-.789-.555h-.228l-1.134 1.1v.182a4.075 4.075 0 0 1 .7 3.68 1.815 1.815 0 0 0 .145 1.314z" class="cls-5" data-name="Path 3305" transform="translate(-248.305 -210.208)"/>
            <circle id="Ellipse_611" cx="4.864" cy="4.864" r="4.864" class="cls-4" data-name="Ellipse 611" transform="translate(63.278 1.31)"/>
            <path id="Path_3306" d="M139.531 36.759a4.865 4.865 0 0 1 3.92-4.772 4.864 4.864 0 1 0 0 9.544 4.865 4.865 0 0 1-3.92-4.772z" class="cls-5" data-name="Path 3306" transform="translate(-74.366 -30.585)"/>
            <ellipse id="Ellipse_612" cx="2.716" cy="3.079" class="cls-2" data-name="Ellipse 612" rx="2.716" ry="3.079" transform="rotate(-19.01 77.694 -171.317)"/>
            <ellipse id="Ellipse_613" cx="3.079" cy="2.716" class="cls-2" data-name="Ellipse 613" rx="3.079" ry="2.716" transform="rotate(-70.99 48.545 -38.395)"/>
            <path id="Path_3307" d="M81.854 367.8a2.945 2.945 0 0 1 1.395-3.729 2.506 2.506 0 0 0-1.777-.067 3.1 3.1 0 0 0 2.006 5.823c.058-.02.114-.043.17-.067a3.232 3.232 0 0 1-1.794-1.96z" class="cls-3" data-name="Path 3307" transform="translate(-18.82 -348.921)"/>
            <path id="Path_3308" d="M300.225 366.026a3.233 3.233 0 0 1 1.793-1.96c-.056-.024-.112-.047-.17-.067a3.1 3.1 0 0 0-2.006 5.823 2.506 2.506 0 0 0 1.777-.067 2.945 2.945 0 0 1-1.394-3.729z" class="cls-3" data-name="Path 3308" transform="translate(-228.217 -348.915)"/>
            <path id="Path_3309" d="M195.5 151.884h-2.089a2.026 2.026 0 0 0-1.593 1.778c0 1.069 1.181 1.936 2.638 1.936s2.638-.867 2.638-1.936a2.026 2.026 0 0 0-1.594-1.778z" class="cls-2" data-name="Path 3309" transform="translate(-126.312 -145.643)"/>
            <path id="Path_3310" d="M193.873 153.662a2.026 2.026 0 0 1 1.593-1.778h-2.057a2.026 2.026 0 0 0-1.593 1.778c0 1.069 1.181 1.936 2.638 1.936a3.468 3.468 0 0 0 1.028-.153 2.031 2.031 0 0 1-1.609-1.783z" class="cls-3" data-name="Path 3310" transform="translate(-126.312 -145.643)"/>
            <path id="Path_3311" d="M223.67 170.159a1.806 1.806 0 0 1-.623.243v-1.208a.317.317 0 0 0-.635 0v1.206a1.807 1.807 0 0 1-.623-.243.317.317 0 1 0-.335.539 2.392 2.392 0 0 0 2.552 0 .318.318 0 0 0-.336-.539z" class="cls-5" data-name="Path 3311" transform="translate(-154.588 -161.937)"/>
            <path id="Path_3312" d="M295.472 113.1a.963.963 0 0 0-1.739 0 .318.318 0 0 0 .586.244.333.333 0 0 1 .566 0 .318.318 0 1 0 .586-.244z" class="cls-6" data-name="Path 3312" transform="translate(-224.017 -107.929)"/>
            <path id="Path_3313" d="M175.69 112.554a.936.936 0 0 0-.869.549.317.317 0 1 0 .586.243.333.333 0 0 1 .566 0 .318.318 0 1 0 .586-.244.937.937 0 0 0-.869-.548z" class="cls-6" data-name="Path 3313" transform="translate(-109.992 -107.929)"/>
            <ellipse id="Ellipse_614" cx="1.096" cy=".96" fill="#7d599a" data-name="Ellipse 614" rx="1.096" ry=".96" transform="translate(67.046 5.572)"/>
            <path id="Path_3314" d="M230.4 136.569a.949.949 0 0 1 .564-.839 1.213 1.213 0 0 0-.532-.121.968.968 0 1 0 0 1.92 1.213 1.213 0 0 0 .532-.121.949.949 0 0 1-.564-.839z" class="cls-6" data-name="Path 3314" transform="translate(-162.287 -130.037)"/>
        </g>
    </g>
</svg>
