<svg xmlns="http://www.w3.org/2000/svg" width="22" height="22" viewBox="0 0 22 22">
    <defs>
        <style>
            .cls-2{fill:#bcdeed}.cls-3{fill:#84c4e1}.cls-4{fill:#68b8dc}.cls-5{fill:#9fd0e7}
        </style>
    </defs>
    <g id="Group_11164" data-name="Group 11164" transform="translate(-685 -726)">
        <g id="Group_11160" data-name="Group 11160" transform="translate(-296 33)">
            <g id="Group_11136" data-name="Group 11136" transform="translate(46 -1)">
                <g id="Group_11127" data-name="Group 11127">
                    <g id="Group_11123" data-name="Group 11123">
                        <path id="Rectangle_2317" fill="none" d="M0 0H22V22H0z" data-name="Rectangle 2317" transform="translate(935 694)"/>
                    </g>
                </g>
            </g>
        </g>
        <g id="stroller" transform="translate(685.998 727)">
            <path id="Path_3530" d="M237.3 425.585a.586.586 0 0 1-.585.585h-3.123a.585.585 0 0 1 0-1.171h3.123a.586.586 0 0 1 .585.586z" class="cls-2" data-name="Path 3530" transform="translate(-223.906 -408.412)"/>
            <path id="Path_3531" d="M290.149 425.585a.586.586 0 0 1-.585.585H288V425h1.561a.586.586 0 0 1 .588.585z" class="cls-3" data-name="Path 3531" transform="translate(-276.759 -408.412)"/>
            <path id="Path_3532" d="M323.189 308.017l-1.062-2.654a.585.585 0 0 0-1.087.435l1.062 2.654a.585.585 0 1 0 1.087-.435z" class="cls-3" data-name="Path 3532" transform="translate(-308.468 -293.091)"/>
            <path id="Path_3533" d="M199.653 305.038a.586.586 0 0 0-.761.326l-1.062 2.654a.585.585 0 1 0 1.087.435l1.062-2.654a.586.586 0 0 0-.326-.761z" class="cls-3" data-name="Path 3533" transform="translate(-190.066 -293.091)"/>
            <path id="Path_3534" d="M315.773 369a2.774 2.774 0 0 0-2.773 2.771 2.813 2.813 0 0 0 .807 1.974 2.724 2.724 0 0 0 3.929 0 2.813 2.813 0 0 0 .807-1.974 2.774 2.774 0 0 0-2.77-2.771z" class="cls-4" data-name="Path 3534" transform="translate(-300.783 -354.597)"/>
            <path id="Path_3535" d="M347.125 402.281a1.561 1.561 0 1 1-3.123 0 1.561 1.561 0 1 1 3.123 0z" class="cls-2" data-name="Path 3535" transform="translate(-330.573 -385.079)"/>
            <path id="Path_3536" d="M126.544 371.771a2.772 2.772 0 1 1-5.542 0 2.771 2.771 0 0 1 5.542 0z" class="cls-4" data-name="Path 3536" transform="translate(-116.277 -354.597)"/>
            <path id="Path_3537" d="M155.125 402.281a1.561 1.561 0 1 1-3.123 0 1.561 1.561 0 1 1 3.123 0z" class="cls-2" data-name="Path 3537" transform="translate(-146.067 -385.079)"/>
            <path id="Path_3538" d="M3.125 94.23a.586.586 0 0 1-.552-.389l-.008-.023-.233-.758-.649-2.108a1.156 1.156 0 0 0-1.1-.781A.585.585 0 1 1 .587 89 2.321 2.321 0 0 1 2.8 90.607l.754 2.452.127.413a.586.586 0 0 1-.556.758z" class="cls-4" data-name="Path 3538" transform="translate(0 -85.526)"/>
            <path id="Path_3539" d="M221.014 0h-.937a.585.585 0 0 0-.556.4l-2.5 7.533a.586.586 0 0 0 .556.77h10.343a.585.585 0 0 0 .585-.585C228.508 3.581 225.063 0 221.014 0z" class="cls-2" data-name="Path 3539" transform="translate(-208.522)"/>
            <path id="Path_3540" d="M296.745 8.119a.585.585 0 0 1-.035.2v.006a.585.585 0 0 1-.547.377H288V.091a.584.584 0 0 1 .314-.091h.937a7.8 7.8 0 0 1 7.475 7.533q.019.29.019.585z" class="cls-4" data-name="Path 3540" transform="translate(-276.759)"/>
            <path id="Path_3541" d="M77.31 193.788l-1.137 3.074a2.883 2.883 0 0 1-2.813 1.68h-9.513a2.881 2.881 0 0 1-2.815-1.683l-1.1-3.077-.008-.023-.232-.759h17.069a.586.586 0 0 1 .549.788z" class="cls-5" data-name="Path 3541" transform="translate(-57.36 -185.467)"/>
            <path id="Path_3542" d="M296.745 193.585a.585.585 0 0 1-.035.2v.006l-1.135 3.068a2.883 2.883 0 0 1-2.813 1.68H288V193h8.724q.021.29.021.585z" class="cls-5" data-name="Path 3542" transform="translate(-276.759 -185.467)"/>
        </g>
    </g>
</svg>
