<svg xmlns="http://www.w3.org/2000/svg" width="22" height="22" viewBox="0 0 22 22">
    <defs>
        <style>
            .cls-3{fill:#cc98e9}.cls-4{fill:#bf7fe3}.cls-6{fill:#b6ddff}
        </style>
    </defs>
    <g id="Group_11245" data-name="Group 11245" transform="translate(-120 -306)">
        <g id="Group_11230" data-name="Group 11230" transform="translate(-766 -539)">
            <g id="Group_11186" data-name="Group 11186" transform="translate(34 627)">
                <path id="Rectangle_2321" fill="none" d="M0 0H22V22H0z" data-name="Rectangle 2321" transform="translate(852 218)"/>
            </g>
            <g id="Group_11194" data-name="Group 11194">
                <g id="Group_11192" data-name="Group 11192" transform="translate(-1.07 -1.969)">
                    <g id="Group_11187" data-name="Group 11187" transform="translate(891.453 847.231)">
                        <path id="Path_3550" fill="#dcb4f0" d="M-17660.648-1785.617l-1.16 12.813h-6.816l-1.074-12.5z" data-name="Path 3550" transform="translate(17671.957 1787.024)"/>
                        <path id="Path_3551" d="M-17669.146-1785.49l-2.088.2 1.131 12.48h1.908z" class="cls-3" data-name="Path 3551" transform="translate(17671.619 1787.052)"/>
                        <path id="Path_3552" d="M-17668.781-1775.125h6.758a7.294 7.294 0 0 1-.391 2.662 1.454 1.454 0 0 1-1.375.767h-3.379a3.313 3.313 0 0 1-1.105-.673c-.391-.419-.508-1.003-.508-2.756z" class="cls-3" data-name="Path 3552" transform="translate(17672.16 1789.345)"/>
                        <path id="Path_3553" d="M-17670.295-1775.125h1.871a5.719 5.719 0 0 0 .57 2.295 2.859 2.859 0 0 0 1.518 1.134h-2.18a1.705 1.705 0 0 1-1.389-.884 6.85 6.85 0 0 1-.39-2.545z" class="cls-4" data-name="Path 3553" transform="translate(17671.824 1789.345)"/>
                        <path id="Path_3554" fill="#a3d1ff" d="M-17667.059-1772.315h4.625a.544.544 0 0 1 .311.145.825.825 0 0 1 .156.36v3a.95.95 0 0 1-.156.4.5.5 0 0 1-.311.152h-6.9a1.015 1.015 0 0 1-.5-.152.546.546 0 0 1-.158-.4v-3a.866.866 0 0 1 .158-.36.522.522 0 0 1 .3-.145z" data-name="Path 3554" transform="translate(17671.832 1789.967)"/>
                        <path id="Path_3555" d="M-17667.816-1768.264a13.965 13.965 0 0 1 0-2.928c.191-1.015.773-1.131.773-1.131h-2.289a.865.865 0 0 0-.551.184.922.922 0 0 0-.164.572v2.518a.765.765 0 0 0 .164.57 1.3 1.3 0 0 0 .68.215z" class="cls-6" data-name="Path 3555" transform="translate(17671.877 1789.965)"/>
                        <path id="Path_3556" d="M-17664.555-1768.744v-.889a1.044 1.044 0 0 0-.215-.337.916.916 0 0 0-.336-.183h-2.687a.833.833 0 0 0-.367.183.544.544 0 0 0-.125.337v.889z" class="cls-6" data-name="Path 3556" transform="translate(17672.268 1790.445)"/>
                        <path id="Path_3557" fill="#8ccaff" d="M-17665.793-1770.152a1.491 1.491 0 0 0-.412.586 2.785 2.785 0 0 0-.121.859h-2.021v-.949a.654.654 0 0 1 .17-.34.818.818 0 0 1 .377-.157z" data-name="Path 3557" transform="translate(17672.258 1790.445)"/>
                        <path id="Path_3548" d="M-17671.283-1786.769h10.717v1.708l-10.717.051z" class="cls-3" data-name="Path 3548" transform="translate(17672.383 1786.769)"/>
                        <path id="Path_3558" fill="#dbedff" d="M-17689.732-1781.242h4.826a.723.723 0 0 1 .293.243.974.974 0 0 1 .111.4l-.594 6.1a.527.527 0 0 1-.117.309 1.178 1.178 0 0 1-.35.245h-5.254a.75.75 0 0 1-.27-.154.371.371 0 0 1-.092-.232l-.555-6.263a.656.656 0 0 1 .133-.4 1.044 1.044 0 0 1 .422-.243z" data-name="Path 3558" transform="translate(17693.947 1785.549)"/>
                        <path id="Path_3559" d="M-17667.359-1783.241h-1.836a.906.906 0 0 0-.428.2.592.592 0 0 0-.125.391l.553 6.464s.025.162.313.216a4.024 4.024 0 0 0 .832 0 33.5 33.5 0 0 1 .174-5.646c.355-1.817 1.248-1.62 1.248-1.62z" class="cls-6" data-name="Path 3559" transform="translate(17671.945 1787.548)"/>
                        <path id="Path_3549" d="M-17668.873-1786.769a2.035 2.035 0 0 0-.2.972 2.013 2.013 0 0 0 .3.786h-2.523v-1.759z" class="cls-4" data-name="Path 3549" transform="translate(17671.293 1786.769)"/>
                    </g>
                </g>
            </g>
        </g>
        <g id="Group_11231" stroke="#6771dc" stroke-width="1.5px" data-name="Group 11231">
            <path id="Path_3617" fill="#6771dc" d="M-18396.877-2323.7h4.271" data-name="Path 3617" transform="translate(18524.762 2638)"/>
            <path id="Path_3618" fill="#fff" d="M-18396.877-2323.7h4.271" data-name="Path 3618" transform="rotate(90 -10451.362 8257.682)"/>
        </g>
    </g>
</svg>
