<svg xmlns="http://www.w3.org/2000/svg" width="12.875" height="14.729" viewBox="0 0 12.875 14.729">
  <g id="Green" transform="translate(-307.002 -506.005)">
    <path id="Path_1209" data-name="Path 1209" d="M735.237,397.657c-.255-.037-.513-.062-.766-.112a6.292,6.292,0,0,1-4.5-3.3,6.148,6.148,0,0,1-.5-4.8,6.455,6.455,0,0,1,5.7-4.626v-.97h-.2a.459.459,0,0,1-.449-.453.454.454,0,0,1,.452-.463q.669-.009,1.338,0a.453.453,0,0,1,.45.451.461.461,0,0,1-.437.464h-.212v.967a6.478,6.478,0,0,1,4.294,2.1l.706-.731a.468.468,0,0,1,.4-.161.435.435,0,0,1,.387.3.442.442,0,0,1-.113.489c-.233.235-.469.467-.7.7a1.059,1.059,0,0,1-.1.082c.2.393.41.75.573,1.125A6.1,6.1,0,0,1,742,392.1a6.319,6.319,0,0,1-3.221,4.73,6.086,6.086,0,0,1-2.615.8,1.051,1.051,0,0,0-.126.024Zm5.915-6.431a5.51,5.51,0,1,0-5.507,5.51A5.51,5.51,0,0,0,741.152,391.226Z" transform="translate(-422.195 123.076)" fill="#24c11e"/>
    <path id="Path_1210" data-name="Path 1210" d="M744.823,399.036h1.286a.458.458,0,0,1,.475.559.442.442,0,0,1-.43.357c-.6,0-1.207.006-1.812,0a.445.445,0,0,1-.438-.46c-.006-.3,0-.594,0-.891v-2.473a.461.461,0,1,1,.919-.01v2.918Z" transform="translate(-430.918 115.542)" fill="#24c11e"/>
  </g>
</svg>
