<svg xmlns="http://www.w3.org/2000/svg" width="14.602" height="19.468" viewBox="0 0 14.602 19.468">
  <defs>
    <style>
      .cls-1 {
        fill: #c7d9e6;
      }
    </style>
  </defs>
  <g id="lock" transform="translate(-64)">
    <g id="Group_121" data-name="Group 121" transform="translate(64)">
      <path id="Path_132" data-name="Path 132" class="cls-1" d="M78.2,7.3H76.978V5.678a5.678,5.678,0,0,0-11.356,0V7.3H64.406A.405.405,0,0,0,64,7.706V17.845a1.624,1.624,0,0,0,1.622,1.622H76.978A1.624,1.624,0,0,0,78.6,17.845V7.706A.405.405,0,0,0,78.2,7.3Zm-5.68,8.472a.406.406,0,0,1-.4.45H70.489a.406.406,0,0,1-.4-.45l.256-2.3a1.6,1.6,0,0,1-.664-1.3,1.622,1.622,0,1,1,3.245,0,1.6,1.6,0,0,1-.664,1.3ZM74.545,7.3H68.056V5.678a3.245,3.245,0,1,1,6.489,0Z" transform="translate(-64)"/>
    </g>
  </g>
</svg>
