<svg xmlns="http://www.w3.org/2000/svg" width="21.162" height="23.614" viewBox="0 0 21.162 23.614">
  <defs>
    <style>
      .cls-1 {
        opacity: 0.6;
      }

      .cls-2 {
        fill: #24424d;
      }
    </style>
  </defs>
  <g id="writing_1_" data-name="writing (1)" class="cls-1" transform="translate(-26.57 0)">
    <g id="Group_139" data-name="Group 139" transform="translate(26.57)">
      <g id="Group_138" data-name="Group 138">
        <path id="Path_136" data-name="Path 136" class="cls-2" d="M117.8,200.922a.922.922,0,0,0-.922-.922h-9.5a.922.922,0,1,0,0,1.845h9.5A.922.922,0,0,0,117.8,200.922Z" transform="translate(-102.775 -190.776)"/>
        <path id="Path_137" data-name="Path 137" class="cls-2" d="M107.381,280a.922.922,0,0,0,0,1.845h5.77a.922.922,0,0,0,0-1.845Z" transform="translate(-102.774 -267.086)"/>
        <path id="Path_138" data-name="Path 138" class="cls-2" d="M33.345,21.769H30.26a1.847,1.847,0,0,1-1.845-1.845V3.69A1.847,1.847,0,0,1,30.26,1.845H41.6A1.847,1.847,0,0,1,43.445,3.69V9.362a.922.922,0,1,0,1.845,0V3.69A3.694,3.694,0,0,0,41.6,0H30.26a3.694,3.694,0,0,0-3.69,3.69V19.924a3.694,3.694,0,0,0,3.69,3.69h3.085a.922.922,0,1,0,0-1.845Z" transform="translate(-26.57)"/>
        <path id="Path_139" data-name="Path 139" class="cls-2" d="M253.808,272.833a2.77,2.77,0,0,0-3.913,0l-5.064,5.053a.922.922,0,0,0-.231.385l-1.1,3.631a.922.922,0,0,0,1.129,1.157l3.723-1.031a.922.922,0,0,0,.405-.236l5.054-5.044A2.77,2.77,0,0,0,253.808,272.833Zm-6.185,7.481-1.873.519.548-1.8,3.417-3.409,1.3,1.3Zm4.881-4.872-.179.178-1.3-1.3.178-.178a.922.922,0,0,1,1.305,1.3Z" transform="translate(-233.454 -259.478)"/>
        <path id="Path_140" data-name="Path 140" class="cls-2" d="M116.882,120h-9.5a.922.922,0,1,0,0,1.845h9.5a.922.922,0,0,0,0-1.845Z" transform="translate(-102.775 -114.466)"/>
      </g>
    </g>
  </g>
</svg>
