<svg xmlns="http://www.w3.org/2000/svg" width="154" height="15.96" viewBox="0 0 154 15.96">
    <defs>
        <style>
            .cls-1,.cls-2{fill:#fff}.cls-2{font-size:8px;font-family:Arial-BoldMT,Arial;font-weight:700;letter-spacing:-.015em}
        </style>
    </defs>
    <g id="Group_10824" data-name="Group 10824" transform="translate(-737 -182)">
        <g id="Artboard_4" data-name="Artboard 4" transform="translate(587.807 -74.939)">
            <path id="Path_3111" d="M165.828 297.431a.849.849 0 0 0 .134-.278q.681-1.668 1.357-3.337c.057-.14.165-.272.077-.443a1.027 1.027 0 0 0-.468-.526 1.7 1.7 0 0 0-.482-.116c-.215-.027-.223-.038-.231-.26v-.083c0-.305 0-.31.31-.31h3.575c.116 0 .165.062.168.172v.056c0 .468-.006.409-.371.423a1.085 1.085 0 0 0-.165.016c-.275.053-.356.163-.339.442a1.425 1.425 0 0 0 .076.378q.65 1.886 1.307 3.769a.41.41 0 0 0 .04.064.415.415 0 0 0 .1-.178l1.272-3.28a3.674 3.674 0 0 0 .206-.66c.071-.379-.031-.511-.415-.551-.116-.013-.239-.015-.36-.023a.15.15 0 0 1-.157-.154c-.052-.43-.015-.475.422-.475h2.755a.135.135 0 0 1 .14.141v.333a.136.136 0 0 1-.132.149h-.056a1.232 1.232 0 0 0-1.157.911c-.8 2-1.619 3.99-2.429 5.983a1.285 1.285 0 0 0-.052.128.231.231 0 0 1-.265.185c-.241-.009-.481-.012-.722 0a.264.264 0 0 1-.3-.215c-.324-.9-.658-1.8-.989-2.706-.213-.578-.424-1.157-.641-1.743-.024-.067-.028-.149-.105-.193a.6.6 0 0 0-.134.259l-1.8 4.323c-.116.271-.116.271-.4.271-.185 0-.37-.009-.555 0a.273.273 0 0 1-.306-.209c-.347-.875-.7-1.749-1.055-2.622q-.6-1.478-1.192-2.955a5.718 5.718 0 0 0-.4-.822 1.084 1.084 0 0 0-1-.584h-.116a.231.231 0 0 1-.082-.007c-.212-.1-.082-.293-.116-.442a.142.142 0 0 1 .142-.191h4a.187.187 0 0 1 .082.009c.2.116.083.3.105.451.016.108-.047.173-.161.18-.157.009-.316.006-.471.03-.312.047-.379.154-.3.454a2.461 2.461 0 0 0 .1.289q.723 1.874 1.448 3.747a.594.594 0 0 0 .108.2z" class="cls-1" data-name="Path 3111" transform="translate(0 -31.068)"/>
            <path id="Path_3112" d="M419.16 313.1v2.652a2.3 2.3 0 0 0 .025.386c.047.272.145.347.429.378a.871.871 0 0 1 .167.01c.081.008.183-.01.217.084a.483.483 0 0 1-.009.378c-.037.075-.127.061-.2.061h-2.11c-.2 0-.224-.031-.231-.223-.009-.244.014-.276.216-.3.056-.006.116 0 .167-.009.347-.028.453-.135.488-.48a2.438 2.438 0 0 0 .009-.25v-3.14c-.022-.439-.133-.553-.563-.588-.08-.006-.186.021-.207-.089a.514.514 0 0 1 .024-.376c.031-.052.1-.042.154-.042h2.136c.16 0 .2.095.251.207l1.157 2.609.437.975a.654.654 0 0 0 .153-.268c.482-1.089.967-2.178 1.436-3.273a.357.357 0 0 1 .393-.251c.62.012 1.239 0 1.859 0a.275.275 0 0 1 .256.426.149.149 0 0 1-.162.079c-.51-.019-.6.231-.6.664-.007 1.055 0 2.108 0 3.163a1.309 1.309 0 0 0 .007.139c.039.368.139.463.5.49h.056c.275.018.365.149.287.414a.129.129 0 0 1-.116.105 1.392 1.392 0 0 1-.167.006h-2.5c-.282 0-.372-.128-.3-.4.025-.091.094-.108.168-.116.116-.012.222-.01.332-.025a.347.347 0 0 0 .332-.318 3.07 3.07 0 0 0 .04-.413v-2.58c0-.032.017-.073-.04-.106-.074.039-.084.127-.116.2-.534 1.177-1.073 2.354-1.595 3.537a.4.4 0 0 1-.448.3c-.463-.028-.367.064-.569-.367q-.8-1.706-1.595-3.415c-.038-.083-.08-.164-.116-.248z" class="cls-1" data-name="Path 3112" transform="translate(-226.988 -48.293)"/>
            <path id="Path_3113" d="M353.589 314.557a.541.541 0 0 0 .183.231c.443.463.891.915 1.331 1.376a1.215 1.215 0 0 0 .773.391.286.286 0 0 1 .237.433c-.043.095-.127.094-.212.094h-1a1.716 1.716 0 0 1-.739-.036c-.222-.106-.337-.335-.5-.512-.463-.5-.925-1.013-1.38-1.52a1.118 1.118 0 0 0-.4-.318 1.257 1.257 0 0 0-.022.367v.972c.007.356.121.476.48.511a4.084 4.084 0 0 0 .415.023c.141 0 .194.06.2.2.009.282-.015.316-.306.316h-2.636c-.294 0-.315-.031-.309-.316 0-.145.064-.2.2-.2h.056c.474-.043.539-.1.542-.578.009-1.11 0-2.219 0-3.33a.7.7 0 0 0-.009-.139c-.025-.305-.1-.38-.408-.413-.046 0-.093-.007-.139-.008a.138.138 0 0 1-.152-.156v-.116c0-.231.009-.231.231-.238h1.3c.5 0 1 0 1.5.007a3.573 3.573 0 0 1 1.062.182 2 2 0 0 1 .281.116 1.215 1.215 0 0 1 .768 1.066 1.381 1.381 0 0 1-.627 1.283 2.589 2.589 0 0 1-.72.312zm-1.729-1.446v.748c0 .079 0 .148.116.147a3.133 3.133 0 0 0 .962-.081.77.77 0 0 0 .537-.48.869.869 0 0 0-.81-1.231c-.212-.013-.426 0-.637-.007-.146-.008-.168.061-.164.182.001.242-.004.481-.004.722z" class="cls-1" data-name="Path 3113" transform="translate(-167.081 -48.33)"/>
            <path id="Path_3114" d="M584.465 291.054l-.549-.174a4.511 4.511 0 0 0-1.388-.212 1.047 1.047 0 0 0-.556.145.606.606 0 0 0-.261.81 2.736 2.736 0 0 0 .541.766c.5.544 1.007 1.083 1.512 1.619a5.944 5.944 0 0 1 .879 1.173 2 2 0 0 1-.34 2.261 2.183 2.183 0 0 1-1.19.612 4.382 4.382 0 0 1-2.922-.488.256.256 0 0 1-.155-.309c.034-.2.051-.4.076-.618a.57.57 0 0 1 .305.1 5.5 5.5 0 0 0 1.061.4 2.314 2.314 0 0 0 1.1 0 .974.974 0 0 0 .646-1.524 3.122 3.122 0 0 0-.4-.532c-.416-.463-.84-.911-1.249-1.376a11.408 11.408 0 0 1-1.072-1.377 1.8 1.8 0 0 1-.31-.99 1.4 1.4 0 0 1 .832-1.33 2.793 2.793 0 0 1 1.129-.25 5.691 5.691 0 0 1 2.248.408.124.124 0 0 1 .1.142c-.018.246-.027.484-.037.744z" class="cls-1" data-name="Path 3114" transform="translate(-370.765 -29.019)"/>
            <path id="Path_3115" d="M282.361 311.08a3.325 3.325 0 0 1 2.253 1.026 2.507 2.507 0 0 1-.162 3.736 3.7 3.7 0 0 1-2.791.838 3.585 3.585 0 0 1-1.767-.593 2.574 2.574 0 0 1-1.175-1.65 2.538 2.538 0 0 1 .969-2.584 3.9 3.9 0 0 1 2.673-.773zm-2.149 2.9a2.522 2.522 0 0 0 .067.618 1.669 1.669 0 0 0 1.619 1.413 1.627 1.627 0 0 0 1.735-1.064 2.789 2.789 0 0 0-.075-2.236 1.729 1.729 0 0 0-3.113.04 2.8 2.8 0 0 0-.232 1.227z" class="cls-1" data-name="Path 3115" transform="translate(-104.255 -47.879)"/>
            <path id="Path_3116" d="M508.452 311.363c.082-.045.076-.133.121-.19.076-.1.182-.08.281-.064s.116.1.125.186c.021.434.047.867.066 1.3.008.2-.007.212-.193.214-.309 0-.276.01-.385-.245a1.362 1.362 0 0 0-1.632-.864.855.855 0 0 0-.436.231.463.463 0 0 0 .068.739 2.9 2.9 0 0 0 .679.311 11.879 11.879 0 0 1 1.136.442 3.33 3.33 0 0 1 .7.438 1.4 1.4 0 0 1 .007 2.2 2.439 2.439 0 0 1-1.233.527 2.976 2.976 0 0 1-1.992-.291c-.091-.051-.154-.058-.183.061a.894.894 0 0 1-.042.1c-.054.139-.175.116-.282.116s-.132-.087-.138-.175q-.056-.816-.109-1.633c-.007-.116.046-.172.164-.168h.194a.146.146 0 0 1 .171.139.544.544 0 0 0 .013.054 1.66 1.66 0 0 0 2.273 1.076.787.787 0 0 0 .371-.28.515.515 0 0 0-.127-.754 2.009 2.009 0 0 0-.47-.231c-.25-.1-.5-.184-.755-.275a3.557 3.557 0 0 1-1.183-.662 1.426 1.426 0 0 1 .342-2.407 2.59 2.59 0 0 1 2.177-.024c.097.04.187.087.272.129z" class="cls-1" data-name="Path 3116" transform="translate(-304.43 -47.817)"/>
            <path id="Path_3117" d="M924.311 264.95a7.98 7.98 0 1 1-7.956-8.01 7.98 7.98 0 0 1 7.956 8.01zm-15.77-.023a7.784 7.784 0 1 0 7.8-7.765 7.785 7.785 0 0 0-7.8 7.765z" class="cls-1" data-name="Path 3117" transform="translate(-661.118)"/>
            <path id="Path_3118" d="M635.593 316.979h-.98a.189.189 0 0 1-.2-.143c-.053-.138-.116-.271-.169-.409a.219.219 0 0 0-.245-.165c-.416.008-.833 0-1.249 0h-1.055c-.319 0-.257-.045-.392.271-.044.1-.088.2-.125.308a.184.184 0 0 1-.208.135c-.184-.008-.369 0-.556 0-.041-.116.034-.2.071-.29q.909-2.174 1.827-4.343a.513.513 0 0 0 0-.463c-.093-.187-.161-.386-.251-.608h1.032a.168.168 0 0 1 .184.13c.012.035.027.069.042.1l2.211 5.235a.5.5 0 0 1 .063.242zm-3.91-1.365h2.21c-.37-.873-.725-1.721-1.121-2.606z" class="cls-1" data-name="Path 3118" transform="translate(-415.312 -48.046)"/>
            <path id="Path_3119" d="M737.422 311.274a3.159 3.159 0 0 1-.021.633h-2.032c-.1 0-.2.007-.305 0-.124-.009-.158.044-.156.162 0 .333.008.666 0 1 0 .147.046.189.19.187.578-.007 1.166 0 1.749 0h.361c.12 0 .141.038.149.145.038.511.042.511-.477.511h-1.75c-.216 0-.22 0-.22.2v2c0 .194 0 .2.2.2h2.054c.25 0 .261-.056.263.245 0 .409 0 .409-.4.409h-3.086a.1.1 0 0 1-.116-.116v-5.301a.9.9 0 0 0 0-.116c-.018-.149.052-.187.192-.186h3.33a.457.457 0 0 1 .075.027z" class="cls-1" data-name="Path 3119" transform="translate(-506.768 -48.029)"/>
            <path id="Path_3120" d="M688.065 314.108V311.5c0-.231 0-.231.224-.231h3.162c.209 0 .209 0 .214.214.009.439.009.439-.434.439h-1.886c-.138 0-.2.031-.193.183.01.324 0 .648 0 .97 0 .187 0 .191.206.192h1.966c.264 0 .268 0 .266.247 0 .483.064.4-.412.406h-1.831c-.194 0-.2 0-.2.2v2.58c0 .313.008.279-.289.28h-.527c-.29 0-.276.021-.275-.265v-2.025q.009-.29.009-.582z" class="cls-1" data-name="Path 3120" transform="translate(-466.302 -48.047)"/>
            <path id="Path_3121" d="M817.71 311.25c.368 0 .727.007 1.086 0 .151 0 .184.1.231.2.324.578.643 1.163.966 1.746.053.1.116.191.168.289.1-.037.116-.125.147-.192.317-.6.637-1.209.941-1.82a.317.317 0 0 1 .361-.217 4.02 4.02 0 0 0 .463 0c.042.116-.028.176-.065.245q-.677 1.318-1.359 2.635a.926.926 0 0 0-.116.448c.007.721 0 1.442 0 2.163 0 .214 0 .216-.208.219s-.444-.007-.665 0c-.146.007-.19-.046-.189-.19v-2.135a.866.866 0 0 0-.128-.468q-.788-1.337-1.566-2.68a.347.347 0 0 1-.067-.243z" class="cls-1" data-name="Path 3121" transform="translate(-580.959 -48.027)"/>
            <path id="Path_3122" d="M778.113 314.383v2.3c0 .231 0 .231-.224.231h-.722c-.108 0-.153-.042-.147-.147V312c.009-.116-.047-.141-.149-.14h-.97c-.141 0-.192-.034-.2-.183-.012-.475-.017-.475.454-.475h3c.264 0 .268 0 .266.246 0 .494.057.4-.409.408h-.694c-.2 0-.206 0-.207.217l.002 2.31z" class="cls-1" data-name="Path 3122" transform="translate(-543.811 -47.985)"/>
            <path id="Path_3123" d="M919.957 285.39c.22.08.429.153.635.231a3.609 3.609 0 0 0 2.628 0 11.035 11.035 0 0 0 2.04-.993c.6-.364 1.176-.769 1.788-1.115a7.305 7.305 0 0 1 1.966-.822 3.585 3.585 0 0 1 2.5.289.562.562 0 0 1 .337.426c.367 1.754.747 3.505 1.123 5.257l.2.925a.39.39 0 0 1 .017.215c-.052.032-.087-.007-.124-.028a3.63 3.63 0 0 0-3.007-.244 8.05 8.05 0 0 0-1.655.769c-.444.265-.88.545-1.317.822a12.4 12.4 0 0 1-2.571 1.29 3.934 3.934 0 0 1-3.038-.261.288.288 0 0 1-.16-.238l-.719-3.381-.641-2.979a.222.222 0 0 1 0-.162zm7.178.863a2.741 2.741 0 0 0-2.069 1.066 1.371 1.371 0 0 0-.273.6.783.783 0 0 0 .353.835 1.17 1.17 0 0 0 .629.184 2.66 2.66 0 0 0 2.221-1.1 1.351 1.351 0 0 0 .231-.5.8.8 0 0 0-.448-.965 1.5 1.5 0 0 0-.644-.12z" class="cls-1" data-name="Path 3123" transform="translate(-671.37 -22.679)"/>
        </g>
        <text id="a" class="cls-2" transform="translate(737 193)">
            <tspan x="0" y="0">a</tspan>
        </text>
        <text id="company" class="cls-2" transform="translate(856 193)">
            <tspan x="0" y="0">company</tspan>
        </text>
    </g>
</svg>
