<svg xmlns="http://www.w3.org/2000/svg" width="22" height="22" viewBox="0 0 22 22">
    <path fill="none" d="M0 0H22V22H0z"/>
    <g>
        <g>
            <g>
                <path fill="#4c698d" fill-rule="evenodd" d="M33.558 25.045a6.978 6.978 0 0 0-5.232 6.755v4.651a.776.776 0 0 1-.774.776 1.55 1.55 0 1 0 0 3.1h15.5a1.55 1.55 0 1 0 0-3.1.773.773 0 0 1-.774-.776V31.8a6.979 6.979 0 0 0-5.233-6.757v-.8a1.744 1.744 0 1 0-3.489 0zm-.969 16.06h5.427a2.713 2.713 0 0 1-5.427 0z" transform="translate(2) translate(-26 -22.5)"/>
            </g>
        </g>
    </g>
</svg>
