<svg xmlns="http://www.w3.org/2000/svg" id="Component_46_9" width="22" height="22" data-name="Component 46 – 9" viewBox="0 0 22 22">
    <path id="Rectangle_1956" fill="none" d="M0 0H22V22H0z" data-name="Rectangle 1956"/>
    <g id="noun_help_1009845">
        <path id="Path_2857" fill="#cd2d2f" d="M11 0a11 11 0 1 0 11 11A11 11 0 0 0 11 0zm.832 15.374a1.007 1.007 0 0 1-1.085 1.126 1.031 1.031 0 0 1-1.157-1c0-.821.367-1.23 1.1-1.252a1.019 1.019 0 0 1 1.142 1.126zm1.54-5.078c-.312.242-.64.462-.955.7a1.553 1.553 0 0 0-.7 1.386.88.88 0 0 1-.634.88.972.972 0 0 1-1.14-.341.922.922 0 0 1-.13-.455A3.056 3.056 0 0 1 11.066 9.9a9.141 9.141 0 0 0 1-.88 1.1 1.1 0 0 0 .254-.62.952.952 0 0 0-.994-1.065 1.919 1.919 0 0 0-1.89.84.922.922 0 0 1-.957.44.844.844 0 0 1-.673-1.265 2.825 2.825 0 0 1 1.375-1.362 4.776 4.776 0 0 1 1.993-.488 10.013 10.013 0 0 1 1.164.191A2.655 2.655 0 0 1 14.3 8.206a2.288 2.288 0 0 1-.926 2.09z" data-name="Path 2857"/>
    </g>
</svg>
