<svg xmlns="http://www.w3.org/2000/svg" id="Component_45_9" width="22" height="22" data-name="Component 45 – 9" viewBox="0 0 22 22">
    <path id="Rectangle_1955" fill="none" d="M0 0H22V22H0z" data-name="Rectangle 1955"/>
    <g id="Group_10195" data-name="Group 10195" transform="translate(1 1)">
        <g id="noun_copy_2577002">
            <g id="Layer_10" data-name="Layer 10">
                <path id="Path_1645" fill="#cd2d2f" d="M22.262 6.767v14.3a1.192 1.192 0 0 1-1.192 1.192H6.767a1.192 1.192 0 0 1-1.191-1.189V6.767a1.192 1.192 0 0 1 1.191-1.191h14.3a1.192 1.192 0 0 1 1.195 1.191zm-2.384-3.575A1.192 1.192 0 0 0 18.686 2H3.192A1.192 1.192 0 0 0 2 3.192v15.494a1.192 1.192 0 1 0 2.384 0V4.384h14.3a1.192 1.192 0 0 0 1.194-1.192z" data-name="Path 1645" transform="translate(-2 -2)"/>
            </g>
        </g>
        <path id="Path_1646" fill="#fff" d="M137.414 136.3a1.022 1.022 0 0 0-1.445 0l-4.389 4.388-1.833-1.832a1.022 1.022 0 1 0-1.447 1.444l2.556 2.556a1.022 1.022 0 0 0 1.446 0l5.111-5.111a1.022 1.022 0 0 0 .001-1.445z" data-name="Path 1646" transform="translate(-120.295 -127.023)"/>
    </g>
</svg>
