<svg xmlns="http://www.w3.org/2000/svg" width="22" height="22" viewBox="0 0 22 22">
    <path fill="none" d="M0 0H22V22H0z"/>
    <g>
        <g>
            <g>
                <path fill="#4c698d" d="M22.262 6.767v14.3a1.192 1.192 0 0 1-1.192 1.192H6.767a1.192 1.192 0 0 1-1.191-1.189V6.767a1.192 1.192 0 0 1 1.191-1.191h14.3a1.192 1.192 0 0 1 1.195 1.191zm-2.384-3.575A1.192 1.192 0 0 0 18.686 2H3.192A1.192 1.192 0 0 0 2 3.192v15.494a1.192 1.192 0 1 0 2.384 0V4.384h14.3a1.192 1.192 0 0 0 1.194-1.192z" transform="translate(1 1) translate(-2 -2)"/>
            </g>
        </g>
        <path fill="#fff" d="M137.414 136.3a1.022 1.022 0 0 0-1.445 0l-4.389 4.388-1.833-1.832a1.022 1.022 0 1 0-1.447 1.444l2.556 2.556a1.022 1.022 0 0 0 1.446 0l5.111-5.111a1.022 1.022 0 0 0 .001-1.445z" transform="translate(1 1) translate(-120.295 -127.023)"/>
    </g>
</svg>
