<svg xmlns="http://www.w3.org/2000/svg" width="86.181" height="43.68" viewBox="0 0 86.181 43.68">
    <g id="Artboard_2" data-name="Artboard 2" opacity="0.1" transform="translate(-338.46 -183.73)">
        <path id="Path_3200" d="M511.923 183.73c-.25.5-.6.543-.9.686-11.419 5.71-22.839 11.443-33.685 18.209-6.616 4.129-12.8 8.878-19.14 13.394-.823.6-1.706 1.086-2.512 1.694a2.6 2.6 0 0 1-3.263 0 57.134 57.134 0 0 1-6.241-4.839c-3.538-2.983-6.831-6.229-10.668-8.842a43.178 43.178 0 0 0-9.152-4.91c-.257-.1-.728-.137-.6-.513s.555-.107.805-.042c3.15.877 6.151 2.184 9.212 3.317 5.077 1.879 9.719 4.642 14.522 7.082.418.215.853.4 1.271.6a5.308 5.308 0 0 0 5.966-.477 176.424 176.424 0 0 1 49.7-24.115 24.742 24.742 0 0 1 4.685-1.244z" data-name="Path 3200" transform="translate(-87.282)"/>
        <path id="Path_3201" d="M479.043 230.41a12.923 12.923 0 0 1-4.576 12.893 13.4 13.4 0 0 1-15.84.662 13.108 13.108 0 0 1-5.537-13.46 35.135 35.135 0 0 1 4.344 4.093 45.46 45.46 0 0 0 4.773 4.385 4.218 4.218 0 0 0 4.982.364 53.017 53.017 0 0 0 7.583-5.531z" data-name="Path 3201" transform="translate(-98.194 -18.83)"/>
        <path id="Path_3202" d="M476.681 214.793a54.213 54.213 0 0 1-6.563 4.176 3.77 3.77 0 0 1-3.3.167 57.7 57.7 0 0 1-6.628-3.228c3.466-3.89 11.223-5.083 16.491-1.115z" data-name="Path 3202" transform="translate(-101.178 -11.541)"/>
    </g>
</svg>
