<svg xmlns="http://www.w3.org/2000/svg" width="43.169" height="43.168" viewBox="0 0 43.169 43.168">
  <defs>
    <style>
      .cls-1 {
        fill: #edf1f7;
      }
    </style>
  </defs>
  <g id="Group_2164" data-name="Group 2164" transform="translate(-226 -3121)">
    <g id="noun_edit_image_934577" data-name="noun_edit image_934577" transform="translate(226 3121)">
      <g id="Group_811" data-name="Group 811" transform="translate(0)">
        <circle id="Ellipse_4" data-name="Ellipse 4" class="cls-1" cx="4.269" cy="4.269" r="4.269" transform="translate(7.175 6.587)"/>
        <path id="Path_115" data-name="Path 115" class="cls-1" d="M43.169,21.584h0A21.609,21.609,0,0,0,21.584,0a1.66,1.66,0,0,0,0,3.321,18.294,18.294,0,0,1,17.73,13.885l-4.572-4.348L21.853,22.62l-4.209-5.112L4.011,26.545a18.211,18.211,0,0,1-.69-4.961,1.66,1.66,0,0,0-3.321,0,21.584,21.584,0,0,0,43.169,0ZM21.584,39.848A18.281,18.281,0,0,1,5.237,29.716L16.984,21.93l4.332,5.262L34.5,17.209,39.83,22.28A18.283,18.283,0,0,1,21.584,39.848Z" transform="translate(0)"/>
      </g>
    </g>
  </g>
</svg>
