<svg xmlns="http://www.w3.org/2000/svg" width="192" height="130" viewBox="0 0 192 130">
    <defs>
        <style>
            .cls-5{fill:#bebfbf}.cls-3{fill:#44c68b}.cls-4{fill:#585a59}.cls-15{opacity:.6}.cls-11{fill:#95b8d6}.cls-10{fill:#93bcda}.cls-15,.cls-16{fill:#2e6089}
        </style>
    </defs>
    <g id="Group_10606" data-name="Group 10606" transform="translate(-698 -38)">
        <g id="Group_10599" data-name="Group 10599">
            <path id="Rectangle_2192" fill="none" d="M0 0H192V130H0z" data-name="Rectangle 2192" transform="translate(698 38)"/>
            <g id="Group_10594" data-name="Group 10594" transform="translate(688.792 -17.866)">
                <g id="Group_13" data-name="Group 13" transform="translate(85.644 71.967)">
                    <text id="REGISTRATION" fill="#bebfbf" font-family="Raleway-Black, Raleway" font-size="4px" font-weight="800" transform="rotate(9.03 -82.455 175.746)">
                        <tspan x="0" y="0">REGISTRATION</tspan>
                    </text>
                    <g id="Group_9" data-name="Group 9" transform="translate(15.055 56.554)">
                        <g id="Group_8" data-name="Group 8" transform="translate(3.495 .68)">
                            <g id="Group_7" data-name="Group 7">
                                <path id="Path_8" d="M238.873 279.365l-2.4-3.162 1.234-.938 1.465 1.928 7.024-5.291.938 1.234z" class="cls-3" data-name="Path 8" transform="translate(-236.47 -271.902)"/>
                            </g>
                        </g>
                        <path id="Path_9" d="M233.091 281.075l-6.933-1.1a1.687 1.687 0 0 1-1.4-1.929l1.111-7a1.688 1.688 0 0 1 1.929-1.4l6.933 1.1-.14.883-6.933-1.1a.793.793 0 0 0-.906.658l-1.111 7a.793.793 0 0 0 .658.906l6.933 1.1a.793.793 0 0 0 .906-.658l.438-2.761.883.14-.438 2.761a1.687 1.687 0 0 1-1.93 1.4z" class="cls-4" data-name="Path 9" transform="translate(-224.737 -269.621)"/>
                        <path id="Rectangle_6" d="M0 0H26.729V1.455H0z" class="cls-5" data-name="Rectangle 6" transform="rotate(9.03 -21.177 99.481)"/>
                        <path id="Rectangle_7" d="M0 0H33.647V1.455H0z" class="cls-5" data-name="Rectangle 7" transform="rotate(9.016 -48.338 97.525)"/>
                    </g>
                    <g id="Group_12" data-name="Group 12" transform="translate(12.294 73.951)">
                        <g id="Group_11" data-name="Group 11" transform="translate(3.495 .68)">
                            <g id="Group_10" data-name="Group 10">
                                <path id="Path_10" d="M229.606 337.767l-2.4-3.162 1.234-.937 1.46 1.932 7.024-5.291.938 1.234z" class="cls-3" data-name="Path 10" transform="translate(-227.203 -330.305)"/>
                            </g>
                        </g>
                        <path id="Path_11" d="M223.825 339.477l-6.934-1.1a1.687 1.687 0 0 1-1.4-1.929l1.111-7a1.687 1.687 0 0 1 1.929-1.4l6.933 1.1-.14.883-6.933-1.1a.793.793 0 0 0-.906.658l-1.111 7a.792.792 0 0 0 .658.906l6.933 1.1a.792.792 0 0 0 .906-.658l.438-2.761.883.14-.438 2.761a1.687 1.687 0 0 1-1.929 1.4z" class="cls-4" data-name="Path 11" transform="translate(-215.471 -328.024)"/>
                        <path id="Rectangle_8" d="M0 0H11.644V1.455H0z" class="cls-5" data-name="Rectangle 8" transform="rotate(9.016 -21.228 99.657)"/>
                        <path id="Rectangle_9" d="M0 0H20.977V1.455H0z" class="cls-5" data-name="Rectangle 9" transform="rotate(9.03 -48.237 97.35)"/>
                    </g>
                </g>
                <g id="Group_26" data-name="Group 26" transform="translate(48.071 68.653)">
                    <path id="Path_12" fill="#c6d3e2" d="M103.8 173.707l3.7.159s46.612-8.187 63.419-13.343c-5.3-20.352-16.954-68.048-14.86-90.838-1.2.217-4.584.8-4.584.8z" data-name="Path 12" transform="translate(-87.199 -69.378)" style="mix-blend-mode:multiply;isolation:isolate" opacity="0.23"/>
                    <path id="Path_13" fill="#e5edf7" d="M130.533 156.716c-18.458 8.484-65.861 16.267-65.861 16.267L48.071 81.31l69.889-12.657s11.672 83.083 12.573 88.063z" data-name="Path 13" opacity="0.6" transform="translate(-48.071 -68.653)"/>
                    <text id="REGISTRATION-2" fill="#95b8d6" data-name="REGISTRATION" font-family="Raleway-Black, Raleway" font-size="4px" font-weight="800" transform="rotate(-10.265 136.008 -79.27)">
                        <tspan x="0" y="0">REGISTRATION</tspan>
                    </text>
                    <path id="Rectangle_11" fill="none" stroke="#93b8da" stroke-miterlimit="10" stroke-width="2px" d="M0 0H51.752V9.337H0z" data-name="Rectangle 11" transform="rotate(-10.076 105.651 -44.357)"/>
                    <g id="Group_16" data-name="Group 16" transform="translate(14.336 24.458)">
                        <g id="Group_15" data-name="Group 15" transform="translate(3.433 3.04)">
                            <g id="Group_14" data-name="Group 14">
                                <path id="Path_14" d="M111.031 170.42l-3.312-2.191.855-1.293 2.02 1.336 4.883-7.313 1.293.856z" class="cls-10" data-name="Path 14" transform="translate(-107.719 -160.959)"/>
                            </g>
                        </g>
                        <path id="Path_15" d="M106.353 176.228l-6.908 1.251a1.687 1.687 0 0 1-1.959-1.358l-1.264-6.978a1.687 1.687 0 0 1 1.358-1.959l6.908-1.251.159.879-6.908 1.251a.793.793 0 0 0-.638.92l1.264 6.978a.793.793 0 0 0 .92.638l6.908-1.251a.792.792 0 0 0 .637-.92l-.5-2.751.879-.159.5 2.75a1.687 1.687 0 0 1-1.356 1.96z" class="cls-11" data-name="Path 15" transform="translate(-96.196 -161.411)"/>
                        <path id="Rectangle_12" d="M0 0H33.647V1.455H0z" class="cls-5" data-name="Rectangle 12" transform="rotate(-10.265 40.622 -77.653)"/>
                        <path id="Rectangle_13" d="M0 0H33.647V1.455H0z" class="cls-5" data-name="Rectangle 13" transform="rotate(-10.265 64.411 -79.792)"/>
                    </g>
                    <g id="Group_19" data-name="Group 19" transform="translate(17.475 44.574)">
                        <g id="Group_18" data-name="Group 18" transform="translate(3.433 .257)">
                            <g id="Group_17" data-name="Group 17">
                                <path id="Path_16" d="M121.568 228.607l-3.312-2.191.855-1.293 2.02 1.336 4.883-7.313 1.293.856z" class="cls-10" data-name="Path 16" transform="translate(-118.256 -219.146)"/>
                            </g>
                        </g>
                        <path id="Path_17" d="M116.89 234.414l-6.908 1.251a1.687 1.687 0 0 1-1.958-1.358l-1.264-6.978a1.687 1.687 0 0 1 1.358-1.959l6.908-1.251.159.88-6.908 1.251a.793.793 0 0 0-.638.92l1.264 6.978a.792.792 0 0 0 .92.638l6.908-1.251a.793.793 0 0 0 .638-.92l-.5-2.75.879-.159.5 2.751a1.687 1.687 0 0 1-1.358 1.957z" class="cls-11" data-name="Path 17" transform="translate(-106.733 -222.38)"/>
                        <path id="Rectangle_14" d="M0 0H18.032V1.455H0z" class="cls-5" data-name="Rectangle 14" transform="rotate(-10.26 25.163 -79.131)"/>
                        <path id="Rectangle_15" d="M0 0H33.647V1.455H0z" class="cls-5" data-name="Rectangle 15" transform="rotate(-10.265 48.925 -81.183)"/>
                    </g>
                    <g id="Group_22" data-name="Group 22" transform="translate(20.614 60.357)">
                        <g id="Group_21" data-name="Group 21" transform="translate(3.433 1.807)">
                            <g id="Group_20" data-name="Group 20">
                                <path id="Path_18" d="M132.106 286.794l-3.312-2.191.855-1.293 2.019 1.336 4.883-7.313 1.293.856z" class="cls-10" data-name="Path 18" transform="translate(-128.794 -277.333)"/>
                            </g>
                        </g>
                        <path id="Path_19" d="M127.428 292.6l-6.908 1.251a1.688 1.688 0 0 1-1.959-1.358l-1.264-6.978a1.687 1.687 0 0 1 1.358-1.959l6.908-1.251.159.879-6.908 1.251a.792.792 0 0 0-.638.92l1.264 6.978a.793.793 0 0 0 .92.638l6.908-1.251a.792.792 0 0 0 .638-.92l-.5-2.75.879-.159.5 2.751a1.687 1.687 0 0 1-1.357 1.958z" class="cls-11" data-name="Path 19" transform="translate(-117.271 -279.017)"/>
                        <path id="Rectangle_16" d="M0 0H26.729V1.455H0z" class="cls-5" data-name="Rectangle 16" transform="rotate(-10.265 33.758 -78.27)"/>
                        <path id="Rectangle_17" d="M0 0H33.647V1.455H0z" class="cls-5" data-name="Rectangle 17" transform="rotate(-10.265 57.553 -80.408)"/>
                    </g>
                    <g id="Group_25" data-name="Group 25" transform="translate(23.753 79.498)">
                        <g id="Group_24" data-name="Group 24" transform="translate(3.433)">
                            <g id="Group_23" data-name="Group 23">
                                <path id="Path_20" d="M142.643 344.98l-3.312-2.191.855-1.293 2.019 1.336 4.883-7.313 1.293.856z" class="cls-10" data-name="Path 20" transform="translate(-139.331 -335.519)"/>
                            </g>
                        </g>
                        <path id="Path_21" d="M137.965 350.788l-6.908 1.251a1.687 1.687 0 0 1-1.959-1.358l-1.264-6.978a1.687 1.687 0 0 1 1.358-1.959l6.908-1.251.159.879-6.908 1.251a.792.792 0 0 0-.638.92l1.264 6.978a.792.792 0 0 0 .92.638l6.908-1.251a.792.792 0 0 0 .638-.92l-.5-2.751.879-.159.5 2.75a1.687 1.687 0 0 1-1.357 1.96z" class="cls-11" data-name="Path 21" transform="translate(-127.808 -339.011)"/>
                        <path id="Rectangle_18" d="M0 0H11.644V1.455H0z" class="cls-5" data-name="Rectangle 18" transform="rotate(-10.26 23.731 -79.26)"/>
                        <path id="Rectangle_19" d="M0 0H20.977V1.455H0z" class="cls-5" data-name="Rectangle 19" transform="rotate(-10.265 47.494 -81.312)"/>
                    </g>
                </g>
                <g id="Group_39" data-name="Group 39" transform="translate(76.197 71.973)">
                    <path id="Path_22" fill="#c6d3e2" d="M143.236 173.177s64.982 2.9 73.977 1.406c-1.591-20.971-5.436-69.408-1.446-94.061-1.52-.19-7.224-.418-7.224-.418z" data-name="Path 22" transform="translate(-143.013 -80.012)" style="mix-blend-mode:multiply;isolation:isolate" opacity="0.5"/>
                    <path id="Path_23" fill="#dfecf8" d="M210.942 168.693c-19.674 5.059-67.706 4.271-67.706 4.271V79.8h71.026s-3.32 83.832-3.32 88.893z" data-name="Path 23" transform="translate(-143.236 -79.799)"/>
                    <g id="Group_38" data-name="Group 38" transform="translate(10.104 50.047)">
                        <g id="Group_37" data-name="Group 37" transform="translate(3.664 21.952)">
                            <g id="Group_36" data-name="Group 36">
                                <path id="Path_30" fill="#24c11e" d="M191.572 330.008l-2.869-2.746 1.072-1.119 1.75 1.674 6.108-6.326 1.12 1.072z" data-name="Path 30" transform="translate(-188.703 -321.491)"/>
                            </g>
                        </g>
                        <path id="Path_31" d="M187.7 335.113h-7.02a1.687 1.687 0 0 1-1.68-1.685v-7.092a1.687 1.687 0 0 1 1.685-1.685h7.02v.894h-7.02a.793.793 0 0 0-.792.792v7.092a.792.792 0 0 0 .792.791h7.02a.792.792 0 0 0 .791-.791v-2.8h.894v2.8a1.687 1.687 0 0 1-1.69 1.684z" class="cls-15" data-name="Path 31" transform="translate(-178.225 -301.758)"/>
                        <path id="Rectangle_26" d="M0 0H11.644V1.455H0z" class="cls-15" data-name="Rectangle 26" transform="translate(15.311 25.448)"/>
                        <path id="Rectangle_27" d="M0 0H20.977V1.455H0z" class="cls-15" data-name="Rectangle 27" transform="translate(15.311 29.722)"/>
                        <path id="Rectangle_2186" d="M0 0H50.698V1.801H0z" class="cls-16" data-name="Rectangle 2186"/>
                        <path id="Rectangle_2187" d="M0 0H35.387V1.801H0z" class="cls-16" data-name="Rectangle 2187" transform="translate(0 6.305)"/>
                    </g>
                    <g id="pie-chart_2_" data-name="pie-chart (2)" transform="translate(7.239 7.932)">
                        <path id="Path_3076" fill="#4e81ac" d="M256.977 0a.7.7 0 0 0-.7.7v15.472a.7.7 0 0 0 .7.7h15.469a.7.7 0 0 0 .7-.7A16.19 16.19 0 0 0 256.977 0z" data-name="Path 3076" opacity="0.4" transform="translate(-239.399)"/>
                        <path id="Path_3077" fill="#2e6089" d="M25.438 49.729l-9.7-12.465V22.036a.7.7 0 0 0-.7-.7C6.9 21.333.274 28.588.274 37.5a16.19 16.19 0 0 0 16.172 16.176 12.013 12.013 0 0 0 8.883-2.976.7.7 0 0 0 .109-.971z" data-name="Path 3077" opacity="0.5" transform="translate(-.274 -19.927)"/>
                        <path id="Path_3078" fill="#c9001f" d="M292.375 277.333h-14.062a.7.7 0 0 0-.547 1.145l9.141 11.316a.7.7 0 0 0 .5.26h.049a.7.7 0 0 0 .48-.188 16.233 16.233 0 0 0 5.145-11.829.7.7 0 0 0-.706-.704z" data-name="Path 3078" opacity="0.998" transform="translate(-259.329 -259.052)"/>
                    </g>
                </g>
            </g>
            <g id="lens" transform="translate(804.472 105.473)">
                <path id="Path_3087" d="M249.526 246.54l-19.912-19.913a.7.7 0 0 0-1 0l-1.991 1.991a.7.7 0 0 0 0 1l19.913 19.912a.7.7 0 0 0 1 0l1.991-1.991a.7.7 0 0 0-.001-.999z" class="cls-10" data-name="Path 3087" transform="translate(-206.496 -206.496)"/>
                <path id="Path_3088" fill="#779ec0" d="M227.066 246.411l-.438.438a.7.7 0 0 0 0 1l19.912 19.912a.7.7 0 0 0 1 0l.438-.438z" data-name="Path 3088" transform="translate(-206.497 -224.727)"/>
                <path id="Path_3089" fill="#c9001f" d="M364.026 359.048l-7.965-7.965a.7.7 0 0 0-1 0l-3.983 3.983a.7.7 0 0 0 0 1l7.965 7.965a3.52 3.52 0 0 0 4.978-4.978z" data-name="Path 3089" transform="translate(-320 -320)"/>
                <path id="Path_3090" fill="#d5455c" d="M364.731 400.015a3.524 3.524 0 0 1-4.978 0l-7.965-7.965a.7.7 0 0 1-.125-.17l-.58.58a.7.7 0 0 0 0 1l7.965 7.965a3.519 3.519 0 0 0 5.907-1.653c-.07.081-.145.163-.224.243z" data-name="Path 3090" transform="translate(-320 -357.395)"/>
                <path id="Path_3091" fill="#4e89ad" d="M16.192 0a16.192 16.192 0 1 0 16.193 16.192A16.211 16.211 0 0 0 16.192 0z" data-name="Path 3091"/>
                <path id="Path_3092" d="M38.081 24a14.08 14.08 0 1 0 14.08 14.08A14.1 14.1 0 0 0 38.081 24z" class="cls-16" data-name="Path 3092" transform="translate(-21.889 -21.889)"/>
                <path id="Path_3093" fill="#8fb3d3" d="M52.674 40a12.672 12.672 0 1 0 12.672 12.673A12.687 12.687 0 0 0 52.674 40z" data-name="Path 3093" transform="translate(-36.482 -36.481)"/>
            </g>
        </g>
    </g>
</svg>
