<svg xmlns="http://www.w3.org/2000/svg" width="58" height="46" viewBox="0 0 58 46">
    <defs>
        <style>
            .cls-1{fill:#fff}.cls-3{fill:#ff7eb8}.cls-4{fill:#2a719b}.cls-5{fill:#3e85a9}.cls-6{fill:#73aacf}.cls-9{fill:#bae1f8}.cls-11{fill:#969faa}
        </style>
    </defs>
    <g id="Inspector_" transform="translate(-24620.769 -1967)">
        <g id="Group_9874" transform="translate(24622 1970)">
            <g id="Group_3365" transform="translate(3.769 1.259)">
                <path id="Rectangle_2681" d="M0 0H58V46H0z" class="cls-1" transform="translate(-5 -4.259)"/>
                <path id="Path_2748" fill="#d3ebfa" d="M29.9 4.488c-7.538 0-12.714-3.9-16.346-3.9S2.29 2.672 2.29 19.381s10.262 19.16 14.257 19.16C35.254 38.543 43.245 4.488 29.9 4.488z" transform="translate(9.487 -.584)"/>
                <g id="Group_9825" transform="translate(0 6.137)">
                    <g id="Group_3347">
                        <path id="Path_1742" d="M396.63 48.083a.461.461 0 0 1-.461-.461.554.554 0 0 0-.554-.554.461.461 0 1 1 0-.923.554.554 0 0 0 .554-.554.461.461 0 1 1 .923 0 .554.554 0 0 0 .554.554.461.461 0 0 1 0 .923.554.554 0 0 0-.554.554.461.461 0 0 1-.462.461z" class="cls-3" transform="translate(-357.03 -40.97)"/>
                        <path id="Path_2578" d="M61.131 419.125a.461.461 0 0 1-.461-.461.554.554 0 0 0-.554-.554.461.461 0 0 1 0-.923.554.554 0 0 0 .554-.554.461.461 0 0 1 .923 0 .554.554 0 0 0 .554.554.461.461 0 0 1 0 .923.554.554 0 0 0-.554.554.461.461 0 0 1-.462.461z" class="cls-3" transform="translate(-59.157 -396.901)"/>
                        <g id="Group_3346">
                            <path id="Path_1744" d="M451.334 84.185a.461.461 0 0 1-.326-.788l.923-.923a.461.461 0 1 1 .653.652l-.923.923a.46.46 0 0 1-.327.136z" class="cls-4" transform="translate(-413.138 -82.339)"/>
                            <path id="Path_1745" d="M88.116 41.976a.461.461 0 0 1-.326-.788l.923-.923a.461.461 0 0 1 .653.652l-.923.923a.46.46 0 0 1-.327.136z" class="cls-4" transform="translate(-87.654 -24.061)"/>
                            <path id="Path_2579" d="M88.116 41.976a.461.461 0 0 1-.326-.788l.923-.923a.461.461 0 0 1 .653.652l-.923.923a.46.46 0 0 1-.327.136z" class="cls-4" transform="translate(-51.54 -16.371)"/>
                        </g>
                    </g>
                </g>
            </g>
        </g>
        <g id="detective" transform="translate(24631.951 1971)">
            <g id="Group_11632" transform="translate(.771 .62)">
                <g id="Group_11631" transform="translate(1.859 22.412)">
                    <path id="Path_3809" d="M37.032 54.641v3.167h6.818a36.814 36.814 0 0 0-.62-6.818 1.244 1.244 0 0 1-1.01-.521l-2.089.521v2.48a7.383 7.383 0 0 1-3.099 1.171z" class="cls-5" transform="translate(-27.735 -50.47)"/>
                    <path id="Path_3810" d="M34.47 60.207a.617.617 0 0 1-.6.471h-1.556a14.632 14.632 0 0 1-3.217-.341l1.859 3.849a5.579 5.579 0 0 0 3.019 2.914 5.638 5.638 0 0 0 2.07.4h10.084a.622.622 0 0 0 .62-.62v-3.722a.622.622 0 0 0-.62-.62h-9.917v-3.167a7.638 7.638 0 0 1-1 .068h-.552z" class="cls-5" transform="translate(-26.915 -55.199)"/>
                    <path id="Path_3811" d="M37.032 59.979V70.3h16.115v-2.48h-6.985a5.638 5.638 0 0 1-2.07-.4 5.579 5.579 0 0 1-3.018-2.913l-1.859-3.849-.521-.13a15.331 15.331 0 0 1-1.661-.552z" class="cls-5" transform="translate(-37.032 -55.523)"/>
                </g>
                <path id="Path_3812" d="M54.082 40.3l-.862-.434-4.134-2.064-1.078-.539a2.232 2.232 0 0 0-2.361.229 11.732 11.732 0 0 0-1.419 1.333l8.986 2.575a2.389 2.389 0 0 1 .868-1.1z" class="cls-6" transform="translate(-39.479 -20.917)"/>
                <path id="Path_3813" d="M54.575 49.607h.552a7.638 7.638 0 0 0 1-.068 7.383 7.383 0 0 0 3.1-1.171v-2.48a2.715 2.715 0 0 1-.62-1.859 1.749 1.749 0 0 1 .1-.589l-8.987-2.572a24.128 24.128 0 0 0-4.748 8.119c.638.316 1.252.6 1.859.831v.006a15.33 15.33 0 0 0 1.661.552l.521.13a14.632 14.632 0 0 0 3.217.341h1.556a.617.617 0 0 0 .6-.471z" class="cls-6" transform="translate(-44.968 -22.956)"/>
                <path id="Path_3814" fill="#ccd1d9" d="M39.472 44.916a1.749 1.749 0 0 0-.1.589 2.715 2.715 0 0 0 .62 1.859l2.089-.521a1.243 1.243 0 0 1 .533-1.866l-2-1.333a1.723 1.723 0 0 0-.273.174 2.389 2.389 0 0 0-.869 1.098z" transform="translate(-25.738 -24.431)"/>
                <path id="Path_3815" fill="#e6e9ed" d="M35.71 47.53a1.239 1.239 0 0 0 1.24 1.24 1.241 1.241 0 1 0-1.24-1.24z" transform="translate(-19.595 -25.837)"/>
                <path id="Path_3816" d="M27.774 3.228l.248.105a5.819 5.819 0 0 1 3.483 3.973 4.969 4.969 0 0 1 1.754-.322h5.132l-.062-.112a8.392 8.392 0 0 0-7.289-4.227h-.34a7.582 7.582 0 0 0-2.926.583z" class="cls-9" transform="translate(-16.079 -2.645)"/>
                <path id="Path_3817" d="M42.468 11.388a8.016 8.016 0 0 0 .428 2.6l5.027-3.868 1.884-1.45a4.924 4.924 0 0 1 1.271-.707 5.819 5.819 0 0 0-3.483-3.973l-.248-.105a7.651 7.651 0 0 0-2.82 2.027A8.22 8.22 0 0 0 43 8.463a8.374 8.374 0 0 0-.532 2.925z" class="cls-9" transform="translate(-35.65 -3.306)"/>
                <path id="Path_3818" d="M18.516 14.382H32.9a4.488 4.488 0 0 0-4.01-2.479h-5.46a4.991 4.991 0 0 0-3.03 1.029z" class="cls-9" transform="translate(-6.244 -7.565)"/>
                <path id="Path_3819" d="M27.774 21.061a2.451 2.451 0 0 0 .093.279 8.2 8.2 0 0 0 1.481 2.529l1.717 2 1.24-1.859-.341-.688a2.6 2.6 0 0 1 0-2.343l.006-.025a1.2 1.2 0 0 1 1.928-.31l.886.886.688-1.029a1.855 1.855 0 0 1 1.55-.831h5.715c.062-.744.105-1.568.105-2.479H32.8z" class="cls-6" transform="translate(-20.529 -10.376)"/>
                <path id="Path_3820" d="M33.106 29.7l.787.471a2.642 2.642 0 0 0 1.333.366 2.614 2.614 0 0 0 2.417-1.636l.583-1.463h1.24a15.308 15.308 0 0 0 1.134-4.954h-5.715a1.855 1.855 0 0 0-1.549.831l-.688 1.029-.886-.886a1.2 1.2 0 0 0-1.928.31l-.006.025a2.6 2.6 0 0 0 0 2.343l.341.688-1.24 1.859L28 30.076l4.134 2.064z" class="cls-1" transform="translate(-18.392 -13.187)"/>
                <path id="Path_3821" fill="#f0d0b4" d="M15.871 67.369v3.1l1.574.527a1.859 1.859 0 0 0 .589.093h2.8a1.243 1.243 0 0 0 1.24-1.24v-2.48a1.243 1.243 0 0 0-1.24-1.24h-2.54a1.928 1.928 0 0 0-1.035.31z" transform="translate(5.822 -36.379)"/>
                <path id="Path_3822" d="M18.516 76.71v1.24a1.249 1.249 0 0 0 1.24 1.24A1.243 1.243 0 0 0 21 77.949V76.71z" class="cls-11" transform="translate(5.656 -42.001)"/>
                <path id="Path_3823" d="M18.516 60.548v2.616H21v-2.616a5.7 5.7 0 0 1-2.479 0z" class="cls-11" transform="translate(5.656 -33.413)"/>
                <circle id="Ellipse_630" cx="3.099" cy="3.099" r="3.099" class="cls-3" transform="translate(22.313 18.594)"/>
            </g>
            <g id="Group_11633">
                <circle id="Ellipse_631" cx=".62" cy=".62" r=".62" class="cls-3" transform="translate(19.365 11.776)"/>
                <path id="Path_3825" fill="#014073" d="M7.935 28.281l.189-.519c2.325-6.4 5.715-9.229 6.37-9.731a2.922 2.922 0 0 1 3.018-.293l.589.294.366-.549-1.413-1.647a8.932 8.932 0 0 1 .059-11.694 8.257 8.257 0 0 1 6.214-2.82h.343a9.03 9.03 0 0 1 7.7 4.34 5.075 5.075 0 0 1 4.541 2.82l.448.9H31.63a17.929 17.929 0 0 1-1.3 7.095l-.172.343h-1.2l-.429 1.072a3.219 3.219 0 0 1-4.643 1.57l-.161-.1-.493 1.238.04.02.028-.02.322-.161 2.06 1.373a1.859 1.859 0 0 1 1.11 3.528 37.557 37.557 0 0 1 .5 5.731h2.488a1.24 1.24 0 0 1 1.144.765l.523-.349a2.478 2.478 0 0 1 .812-.345v-1.6a6.2 6.2 0 1 1 3.719 0v1.64a1.857 1.857 0 0 1 1.24 1.745v2.479a1.857 1.857 0 0 1-1.24 1.745v.733a1.859 1.859 0 1 1-3.719 0v-.644a2.4 2.4 0 0 1-.482-.1l-1.032-.34a1.235 1.235 0 0 1-.966.472H27.3v2.478H9.946V29.219c-.492-.2-.992-.428-1.517-.691zm31.141-4.646a4.958 4.958 0 1 0-4.958 4.958 4.964 4.964 0 0 0 4.959-4.958zm-4.958 6.2a6.2 6.2 0 0 1-.62-.032v1.271h1.24V29.8a6.2 6.2 0 0 1-.62.033zm0 8.677a.62.62 0 0 0 .62-.62v-.62H33.5v.62a.62.62 0 0 0 .618.619zm-1.948-2.544a1.211 1.211 0 0 0 .391.064h2.8a.62.62 0 0 0 .62-.62v-2.48a.62.62 0 0 0-.62-.62h-2.539a1.234 1.234 0 0 0-.687.208l-1.115.743v2.321zM16.958 18.847a1.637 1.637 0 0 0-1.709.168c-.2.151-.406.328-.625.531l7.5 2.141q.064-.1.134-.192zm1.09-13.888a7.628 7.628 0 0 0-1.74 6.613l6.179-4.754a5.547 5.547 0 0 1 .889-.553A5.236 5.236 0 0 0 20.415 3.2h-.007a7.024 7.024 0 0 0-2.36 1.758zm5.623-2.4h-.343a7.017 7.017 0 0 0-1.267.124 6.478 6.478 0 0 1 2.475 3.143 5.57 5.57 0 0 1 1.352-.168h3.988a7.792 7.792 0 0 0-6.205-3.1zM31.347 6.9h-5.46a4.363 4.363 0 0 0-2.645.9l-.441.34h11.385a3.84 3.84 0 0 0-2.839-1.24zM21.19 9.38l-4.5 3.465A7.706 7.706 0 0 0 18 15.03l1.186 1.383.586-.879-.182-.363a3.246 3.246 0 0 1 .011-2.924 1.811 1.811 0 0 1 1.628-1.007 1.833 1.833 0 0 1 1.287.533l.353.353.268-.4a2.475 2.475 0 0 1 2.063-1.1h5.133q.041-.588.055-1.24zm1.46 9.337l-1.25-.748.638-1.063 2.487 1.494a1.979 1.979 0 0 0 2.854-.968l.741-1.851h1.248a16.366 16.366 0 0 0 .844-3.719H25.2a1.237 1.237 0 0 0-1.031.552l-1.107 1.66-1.422-1.422a.6.6 0 0 0-.941.172 2.006 2.006 0 0 0 0 1.794l.5 1.007-1.98 2.969 2.9 1.451zm.93 3.183a1.478 1.478 0 0 0-.618 1.116 2.468 2.468 0 0 0 .262 1.155l1.006-.251a1.737 1.737 0 0 1 .327-1.368zm2.481 1.116a.62.62 0 1 0 .62.62.62.62 0 0 0-.62-.62zm-.514 2.4a1.85 1.85 0 0 1-.69-.373l-1.275.319v2.327l-.276.184a7.972 7.972 0 0 1-2.823 1.176v2.027h5.57a35.527 35.527 0 0 0-.506-5.662zm4.233 6.9H18v-1.24h1.24V29.2c-.125.006-.25.014-.375.014H18.8l-.075.3a1.238 1.238 0 0 1-1.2.94h-1.562a15.7 15.7 0 0 1-2.133-.144l1.34 2.78a4.951 4.951 0 0 0 4.53 2.941h10.08zm-18.594 6.2h14.875v-1.24H19.7a6.19 6.19 0 0 1-5.65-3.659l-1.735-3.597q-.561-.14-1.129-.332zm4.777-9.3h1.557l1.122-4.489 1.2.3-.733 2.932a6.722 6.722 0 0 0 3.231-.945v-1.92a3.49 3.49 0 0 1-.62-2.077c0-.051.006-.1.009-.15l-8.082-2.309a24.029 24.029 0 0 0-4.164 7.107 14.045 14.045 0 0 0 6.478 1.55z" transform="translate(-7.935 -1.323)"/>
                <path id="Path_3826" fill="none" d="M13.226 44.719a3.719 3.719 0 1 1 3.719 3.719 3.723 3.723 0 0 1-3.719-3.719zm6.2 0a2.479 2.479 0 1 0-2.481 2.481 2.482 2.482 0 0 0 2.479-2.481z" transform="translate(9.238 -22.406)"/>
            </g>
        </g>
    </g>
</svg>
