<svg width="44" height="44" fill="none" xmlns="http://www.w3.org/2000/svg">
    <path d="M0 2a2 2 0 0 1 2-2h42v44H2a2 2 0 0 1-2-2V2z" fill="#007C99"/>
    <path d="M27.664 12.18v4.15h4.144l-4.144-4.15z" fill="#fff"/>
    <path d="M27.358 16.953a.31.31 0 0 1-.312-.312V12h-9.477c-.84 0-1.526.684-1.526 1.525v4.013l.016-.006a5.153 5.153 0 0 1 1.635-.27 5.041 5.041 0 0 1 4.07 2.063.313.313 0 0 1 .26-.487h6.892a.313.313 0 0 1 0 .625h-6.892a.32.32 0 0 1-.26-.134c.515.697.84 1.512.953 2.36-.004-.01-.004-.023-.004-.032 0-.172.14-.313.313-.313h5.89a.313.313 0 0 1 0 .625h-5.89a.312.312 0 0 1-.306-.25 5.018 5.018 0 0 1-.247 2.313c.05-.11.16-.184.284-.184h6.159a.313.313 0 0 1 0 .625h-6.159a.311.311 0 0 1-.306-.375 5.04 5.04 0 0 1-1.723 2.313.304.304 0 0 1 .175-.054h8.013a.313.313 0 0 1 0 .625h-8.013a.311.311 0 0 1-.312-.312.32.32 0 0 1 .137-.26 5.064 5.064 0 0 1-4.058.913l-.627 1.39v1.76A1.53 1.53 0 0 0 17.569 32h12.907c.837 0 1.52-.684 1.52-1.528v-13.52h-4.638zm1.558 12.539h-9.79a.313.313 0 0 1 0-.625h9.79c.174 0 .312.14.312.312a.311.311 0 0 1-.313.313z" fill="#fff"/>
    <path d="M15.538 26.246a4.457 4.457 0 0 1-1.753-6.05c1.163-2.14 3.862-2.946 6.042-1.757a4.47 4.47 0 0 1 1.756 6.05c-1.098 2.003-3.753 3.04-6.045 1.757zm-.398-5.292a2.908 2.908 0 0 0 1.147 3.95c1.402.787 3.175.252 3.94-1.147a2.918 2.918 0 0 0-1.145-3.948c-1.415-.772-3.18-.257-3.942 1.145zM16.054 27.16l-1.71 3.81c-.294.646-1.08.909-1.705.565a1.225 1.225 0 0 1-.437-1.747l2.304-3.494c.434.356.963.662 1.548.866z" fill="#fff"/>
</svg>
