<svg width="44" height="44" fill="none" xmlns="http://www.w3.org/2000/svg">
    <path d="M0 2a2 2 0 0 1 2-2h42v44H2a2 2 0 0 1-2-2V2z" fill="#A367DC" fill-opacity=".1"/>
    <path opacity=".78" d="m26.53 32.984-13.868-3.899a.548.548 0 0 1-.372-.656l4.818-17.171a.548.548 0 0 1 .656-.373l13.847 3.896a.547.547 0 0 1 .373.656l-4.82 17.171a.525.525 0 0 1-.634.376z" fill="#935DC6"/>
    <path d="M29.33 31.382H14.963a.533.533 0 0 1-.525-.526V13.03a.534.534 0 0 1 .525-.526h14.39a.534.534 0 0 1 .525.526v17.827a.553.553 0 0 1-.548.526z" fill="#935DC6"/>
    <path opacity=".8" d="M22.297 16.729h-6.395v.482h6.396v-.482zM28.946 16.729H22.55v.482h6.395v-.482z" fill="#935DC6"/>
    <path d="M22.297 18.152h-6.395v.482h6.396v-.482zM28.946 18.152H22.55v.482h6.395v-.482z" fill="#fff"/>
    <path opacity=".8" d="M22.297 19.596h-6.395v.482h6.396v-.482zM28.946 19.596H22.55v.482h6.395v-.482z" fill="#935DC6"/>
    <path d="M22.297 21.044h-6.395v.482h6.396v-.482zM28.946 21.044H22.55v.482h6.395v-.482z" fill="#fff"/>
    <path opacity=".8" d="M22.297 22.488h-6.395v.482h6.396v-.482zM28.946 22.488H22.55v.482h6.395v-.482z" fill="#935DC6"/>
    <path d="M22.297 23.935h-6.395v.482h6.396v-.482zM28.946 23.935H22.55v.482h6.395v-.482z" fill="#fff"/>
    <path opacity=".8" d="M22.297 25.38h-6.395v.482h6.396v-.482zM28.946 25.38H22.55v.482h6.395v-.482z" fill="#935DC6"/>
    <path d="M22.297 26.827h-6.395v.482h6.396v-.482zM28.946 26.827H22.55v.482h6.395v-.482z" fill="#fff"/>
    <path opacity=".8" d="M22.297 28.271h-6.395v.482h6.396v-.482zM28.946 28.271H22.55v.482h6.395v-.482z" fill="#935DC6"/>
</svg>
