<svg width="44" height="44" fill="none" xmlns="http://www.w3.org/2000/svg">
    <path d="M0 2a2 2 0 0 1 2-2h42v44H2a2 2 0 0 1-2-2V2z" fill="#6771DC" fill-opacity=".1"/>
    <path d="M14.72 12c-.952 0-1.72.766-1.72 1.714v15.037c0 .948.768 1.72 1.72 1.72h.05V16.176a2.41 2.41 0 0 1 2.415-2.405h10.53v-.056c0-.946-.765-1.714-1.72-1.714H14.721zm2.464 2.464c-.951 0-1.72.769-1.72 1.72v15.03c0 .95.769 1.721 1.72 1.721h7.047v-5.427c0-.188.16-.347.347-.347h5.601V16.184h-.002c0-.95-.772-1.72-1.721-1.72H17.185zm1.397 4.331h8.48c.203 0 .377.165.377.377a.383.383 0 0 1-.376.376h-8.48a.384.384 0 0 1-.38-.376.38.38 0 0 1 .38-.377zm0 2.068h8.48c.203 0 .377.165.377.376a.384.384 0 0 1-.376.376h-8.48a.385.385 0 0 1-.38-.376.38.38 0 0 1 .38-.376zm0 2.08h8.48c.203 0 .377.166.377.377a.386.386 0 0 1-.376.38h-8.48a.386.386 0 0 1-.38-.38c0-.211.175-.376.38-.376zm6.34 4.911v5.072a5.56 5.56 0 0 0 5.236-5.072h-5.235z" fill="#5D66C6"/>
</svg>
