<svg width="44" height="44" fill="none" xmlns="http://www.w3.org/2000/svg">
    <path d="M0 2a2 2 0 0 1 2-2h42v44H2a2 2 0 0 1-2-2V2z" fill="#4D3E84"/>
    <path d="M16.154 11.2c-2.329 0-2.853 1.573-2.853 2.847v14.721c0 .994.805 1.805 1.805 1.805h.051V15.578c0-1.756.241-2.521 2.532-2.521h8.948v-.059c0-.992-.803-1.798-1.805-1.798h-8.678z" fill="#fff"/>
    <path d="M26.463 13.822h-9.105c-.79 0-1.436.678-1.436 1.54v15.756c0 .862.646 1.582 1.436 1.582h11.819c.79 0 1.428-.72 1.428-1.582V18.305l-4.142-4.483zm-6.626 2.643c.573 0 1.037.507 1.037 1.132 0 .625-.464 1.132-1.037 1.132s-1.037-.507-1.037-1.132c0-.625.464-1.132 1.037-1.132zm-1.868 3.423c0-.492.238-.92.59-1.171.15.2.34.367.557.483.218.116.462.182.72.182.516 0 .976-.262 1.275-.67.357.247.595.681.595 1.176v.933c0 .242-.181.444-.403.444H18.37c-.22 0-.401-.202-.401-.444v-.933zm8.005 10.469h-8.005v-.846h8.005v.846zm2.584-2.995H17.969v-.846h10.589v.846zm0-3.016H17.969V23.5h10.589v.846zm-.971-6.032c-.604 0-1.116-.555-1.116-1.214v-1.933l2.936 3.147h-1.82z" fill="#fff"/>
</svg>
