<svg width="20" height="20" fill="none" xmlns="http://www.w3.org/2000/svg">
    <path fill-rule="evenodd" clip-rule="evenodd" d="M2.5 1.863C2.5.834 3.334 0 4.363 0H16.47c1.028 0 1.862.834 1.862 1.863v15.833a1.863 1.863 0 0 1-1.862 1.863H4.363A1.863 1.863 0 0 1 2.5 17.696V1.863zm4.048 5.173a3.917 3.917 0 1 1 7.082 2.308l1.403 1.404a.605.605 0 1 1-.856.856L12.774 10.2a3.917 3.917 0 0 1-6.226-3.164zm5.872 1.872a.606.606 0 0 0-.083.083 2.706 2.706 0 1 1 .083-.083z" fill="#B7C3D1"/>
    <rect x="5.293" y="15.834" width="7.451" height=".931" rx=".466" fill="#fff"/>
    <rect x="5.293" y="13.971" width="10.245" height=".931" rx=".466" fill="#fff"/>
</svg>
