<svg width="24" height="24" viewBox="0 0 24 24" fill="none" xmlns="http://www.w3.org/2000/svg">
    <path d="M13.871 2.795H9.633l-.172 7.167 1.094 1.578 2.143 2.974v-2.217l1.173-1.348V2.795z" fill="#C9001F"/>
    <path fill-rule="evenodd" clip-rule="evenodd" d="M8.849 1.75h6v8.557l5.394 9.808c.243.383.487 1.118-.026 1.781-.472.61-1.384.854-2.618.854h-12.5c-.356 0-.925-.1-1.353-.506-.502-.475-.625-1.181-.359-1.981.123-.369.444-1.022.841-1.781.409-.781.931-1.735 1.491-2.736a324.055 324.055 0 0 1 3.13-5.45V1.75zm1.5 1.5v7.454l-.104.176a322.811 322.811 0 0 0-3.217 5.599c-.557.995-1.071 1.935-1.47 2.698-.412.787-.67 1.329-.748 1.56-.07.214-.064.327-.056.369.006.033.014.041.023.05a.327.327 0 0 0 .124.063.69.69 0 0 0 .198.031h12.5c1.018 0 1.341-.196 1.414-.255a.304.304 0 0 0-.038-.079l-.018-.027-5.608-10.196V3.25h-3z" fill="#2E3F55"/>
    <path fill-rule="evenodd" clip-rule="evenodd" d="M6.25 2A.75.75 0 0 1 7 1.25h9.2a.75.75 0 0 1 0 1.5H7A.75.75 0 0 1 6.25 2zM8.25 18a.75.75 0 0 1 .75-.75h6a.75.75 0 0 1 0 1.5H9a.75.75 0 0 1-.75-.75z" fill="#2E3F55"/>
</svg>
