<svg xmlns="http://www.w3.org/2000/svg" width="24" height="24" viewBox="0 0 24 24">
    <defs>
        <style>
            .cls-2{fill:none;stroke:#8397af;stroke-linecap:round;stroke-linejoin:round}
        </style>
    </defs>
    <g id="Field_x_lab_cross-expertise_" transform="translate(-142 -580)">
        <g id="Field_x_lab_cross-expertise_2">
            <path id="Rectangle_5434" fill="none" d="M0 0H24V24H0z" transform="translate(142 580)"/>
            <g id="refresh-cw" transform="translate(149.681 581.438)">
                <path id="Path_8734" d="M19.661 4v2.661H17" class="cls-2" transform="translate(-9.905 -3.557)"/>
                <path id="Path_8735" d="M1 16.661V14h2.661" class="cls-2" transform="translate(-1 -9.123)"/>
                <path id="Path_8736" d="M2.113 5.662A3.991 3.991 0 0 1 8.7 4.172l2.058 1.934M1 7.879l2.058 1.934a3.991 3.991 0 0 0 6.585-1.49" class="cls-2" transform="translate(-1 -3.002)"/>
            </g>
            <g id="user" transform="translate(144.214 592.117)">
                <path id="Path_8739" d="M12.7 18.875v-1.292A2.406 2.406 0 0 0 10.524 15H6.175A2.406 2.406 0 0 0 4 17.583v1.292" class="cls-2" transform="translate(-4 -8.476)"/>
                <circle id="Ellipse_876" cx="2.175" cy="2.175" r="2.175" class="cls-2" transform="translate(2.175 0)"/>
            </g>
            <g id="users" transform="translate(155.087 592.117)">
                <path id="Path_8740" d="M9.7 18.875v-1.292A2.406 2.406 0 0 0 7.524 15H3.175A2.406 2.406 0 0 0 1 17.583v1.292" class="cls-2" transform="translate(-1 -8.476)"/>
                <circle id="Ellipse_877" cx="2.175" cy="2.175" r="2.175" class="cls-2" transform="translate(2.175 0)"/>
            </g>
        </g>
    </g>
</svg>
