<svg xmlns="http://www.w3.org/2000/svg" width="20" height="20" viewBox="0 0 20 20">
  <defs>
    <style>
      .cls-1 {
        opacity: 0.6;
      }

      .cls-2 {
        fill: #24424d;
      }
    </style>
  </defs>
  <g id="translate" class="cls-1">
    <path id="Path_144" data-name="Path 144" class="cls-2" d="M164.52,208.867h-7.531a2.157,2.157,0,0,0-2.155,2.155v4.092l-1.951,1.394a.586.586,0,0,0,0,.954l1.975,1.41a2.158,2.158,0,0,0,2.131,1.837h7.531a2.157,2.157,0,0,0,2.155-2.155v-7.531A2.157,2.157,0,0,0,164.52,208.867Zm-2.532,8.233c-.138,0-.245-.044-.276-.163l-.239-.835h-1.437l-.238.835c-.031.119-.138.163-.276.163-.22,0-.515-.138-.515-.339a.362.362,0,0,1,.013-.063l1.211-3.948a.51.51,0,0,1,.521-.276c.239,0,.471.088.527.276l1.211,3.948a.278.278,0,0,1,.012.063C162.5,216.956,162.207,217.1,161.987,217.1Zm0,0" transform="translate(-146.674 -200.708)"/>
    <path id="Path_145" data-name="Path 145" d="M346.375,330.306h1.092l-.546-1.927Zm0,0" transform="translate(-332.845 -315.552)"/>
    <path id="Path_146" data-name="Path 146" class="cls-2" d="M6.987,10.314a3.31,3.31,0,0,1,.733-2.08,3.144,3.144,0,0,1-1.8-.565,3.143,3.143,0,0,1-1.8.565.33.33,0,0,1,0-.661A2.488,2.488,0,0,0,5.4,7.218,3.152,3.152,0,0,1,4.576,5.4H4.12a.33.33,0,1,1,0-.661H5.59v-.8a.33.33,0,1,1,.661,0v.8h1.47a.33.33,0,1,1,0,.661H7.265a3.152,3.152,0,0,1-.826,1.817,2.484,2.484,0,0,0,1.282.354.33.33,0,0,1,.329.307,3.314,3.314,0,0,1,2.264-.892h1.527V5.594L13.792,4.2a.586.586,0,0,0,0-.954L11.818,1.837A2.159,2.159,0,0,0,9.686,0H2.155A2.157,2.157,0,0,0,0,2.155V9.686a2.157,2.157,0,0,0,2.155,2.155H6.987Zm0,0"/>
    <path id="Path_147" data-name="Path 147" d="M134.862,139.681a2.5,2.5,0,0,0,.679-1.4h-1.358A2.5,2.5,0,0,0,134.862,139.681Zm0,0" transform="translate(-128.942 -132.876)"/>
  </g>
</svg>
