<svg xmlns="http://www.w3.org/2000/svg" width="40" height="40" viewBox="0 0 40 40">
    <defs>
        <style>
            .cls-5{fill:#cf976a}.cls-6{fill:#a56a43}
        </style>
    </defs>
    <g id="Group_13324" transform="translate(-255 -1395)">
        <rect id="Rectangle_2777" width="40" height="40" fill="#f5f6f7" rx="4" transform="translate(255 1395)"/>
        <g id="Group_12620" transform="translate(-573 -96)">
            <path id="Rectangle_2782" fill="none" d="M0 0H24V24H0z" transform="translate(836 1499)"/>
            <g id="leather" transform="translate(838.634 1501)">
                <path id="Shape_1_" fill="#9f5d2f" d="M18.342 15.853c-1.257-.732-2.432-2.132-2.432-5.293a8.387 8.387 0 0 1 2.5-5.58.341.341 0 0 0 .017-.456l-1.38-1.655a.337.337 0 0 0-.307-.116C13.17 3.22 12.128.971 11.883.229A.341.341 0 0 0 11.564 0H7.313a.341.341 0 0 0-.324.228C6.744.971 5.7 3.219 2.131 2.752a.337.337 0 0 0-.307.116L.445 4.524a.341.341 0 0 0 .017.456 8.387 8.387 0 0 1 2.5 5.58c0 3.161-1.175 4.561-2.432 5.293a.338.338 0 0 0-.126.456l1.386 2.5a.347.347 0 0 0 .426.153c1.09-.443 5.164-1.843 7.218.8a3.754 3.754 0 0 1 1.316-1.082 5.058 5.058 0 0 1 2.272-.487 10.326 10.326 0 0 1 3.635.766.347.347 0 0 0 .426-.153l1.386-2.5a.338.338 0 0 0-.126-.456zM9.438 2.725a.681.681 0 1 1-.681.681.681.681 0 0 1 .681-.681z"/>
                <path id="Shape_21_" fill="#93450e" d="M33.411 15.853c-1.257-.732-2.432-2.132-2.432-5.293a8.387 8.387 0 0 1 2.5-5.58.341.341 0 0 0 .017-.456L32.12 2.868a.337.337 0 0 0-.307-.116C28.243 3.219 27.2.971 26.956.228A.341.341 0 0 0 26.632 0h-2.361c-.691 1.952-1.349 4.016-.913 6.029A23.317 23.317 0 0 0 25.045 10a16.222 16.222 0 0 1 .773 8.676 4.9 4.9 0 0 1 2.272-.487 10.326 10.326 0 0 1 3.635.766.347.347 0 0 0 .426-.153l1.386-2.5a.338.338 0 0 0-.126-.456zm-8.9-11.766a.681.681 0 1 1 .681-.681.681.681 0 0 1-.686.682z" transform="translate(-15.068)"/>
                <path id="Shape_2_" d="M25.221 51.485a.343.343 0 0 1-.2-.064 4.794 4.794 0 0 0-.54-.336.341.341 0 1 1 .321-.6c.143.076.283.159.418.248.136-.089.276-.17.418-.248a.341.341 0 0 1 .321.6 4.794 4.794 0 0 0-.54.336.343.343 0 0 1-.198.064z" class="cls-5" transform="translate(-15.783 -33.261)"/>
                <path id="Shape_3_" d="M14.844 49.363a.335.335 0 0 1-.1-.014 6.2 6.2 0 0 0-1.074-.208.34.34 0 1 1 .072-.677 6.891 6.891 0 0 1 1.192.232.341.341 0 0 1-.095.668zm-3.44-.136a.341.341 0 0 1-.053-.677 10.25 10.25 0 0 1 1.19-.122.341.341 0 1 1 .028.681 9.549 9.549 0 0 0-1.11.114.311.311 0 0 1-.053 0z" class="cls-5" transform="translate(-7.054 -31.932)"/>
                <path id="Shape_4_" d="M5.158 48.014a.341.341 0 0 1-.3-.175l-.519-.933a.341.341 0 0 1 .08-.427 5.285 5.285 0 0 0 .465-.438.341.341 0 0 1 .5.466q-.15.159-.312.309l.251.451q.193-.058.4-.113a.341.341 0 1 1 .173.658c-.227.06-.439.123-.635.186a.335.335 0 0 1-.1.016z" class="cls-5" transform="translate(-2.593 -30.287)"/>
                <path id="Shape_5_" d="M8.088 26.917a.336.336 0 0 1-.17-.047.341.341 0 0 1-.118-.47 6.271 6.271 0 0 0 .5-1.1.341.341 0 1 1 .643.224 6.937 6.937 0 0 1-.562 1.226.34.34 0 0 1-.3.168zm.856-2.409a.362.362 0 0 1-.061-.005.34.34 0 0 1-.275-.4 10.219 10.219 0 0 0 .141-1.234.345.345 0 0 1 .36-.321.341.341 0 0 1 .321.359 10.9 10.9 0 0 1-.151 1.317.34.34 0 0 1-.335.28zm.144-2.559a.341.341 0 0 1-.341-.316 7.785 7.785 0 0 0-.186-1.215.341.341 0 1 1 .663-.156 8.492 8.492 0 0 1 .2 1.322.341.341 0 0 1-.315.364zm-.578-2.492a.341.341 0 0 1-.317-.215 9.411 9.411 0 0 0-.534-1.118.341.341 0 0 1 .594-.333 10.079 10.079 0 0 1 .573 1.2.341.341 0 0 1-.317.466z" class="cls-5" transform="translate(-4.782 -11.618)"/>
                <path id="Shape_6_" d="M5.093 12.985a.34.34 0 0 1-.276-.14c-.138-.189-.275-.363-.4-.52a.341.341 0 0 1 0-.435l.465-.557a.341.341 0 0 1 .284-.122c.175.012.348.018.516.018h.136a.341.341 0 0 1 .012.681h-.153c-.127 0-.256 0-.386-.009l-.176.211q.124.158.252.332a.341.341 0 0 1-.275.542z" class="cls-5" transform="translate(-2.617 -7.391)"/>
                <path id="Shape_7_" d="M13.029 9.762a.341.341 0 0 1-.1-.668 4.71 4.71 0 0 0 1.437-.7.341.341 0 1 1 .4.552 5.406 5.406 0 0 1-1.644.8.338.338 0 0 1-.093.016z" class="cls-5" transform="translate(-8.125 -5.493)"/>
                <path id="Shape_8_" d="M21.058 4.265a.341.341 0 0 1-.281-.533 5.031 5.031 0 0 0 .325-.547.341.341 0 0 1 .3-.185h.681a.341.341 0 1 1 0 .681h-.473c-.084.15-.174.3-.27.436a.34.34 0 0 1-.282.148z" class="cls-5" transform="translate(-13.42 -1.978)"/>
                <path id="Shape_9_" d="M31.186 49.427a.341.341 0 0 1-.1-.668 6.923 6.923 0 0 1 1.192-.231.34.34 0 1 1 .072.677 6.2 6.2 0 0 0-1.075.208.327.327 0 0 1-.089.014z" class="cls-5" transform="translate(-20.097 -31.997)"/>
                <g id="Group_12620-2" transform="translate(8.641 1.022)">
                    <path id="Shape_10_" d="M25.028 3.433a.341.341 0 0 1-.341.341h-.027c.061-.211.129-.422.2-.634a.335.335 0 0 1 .168.293z" class="cls-6" transform="translate(-24.66 -3.092)"/>
                    <path id="Shape_11_" d="M29.824 4.206a.344.344 0 0 1-.194.061.34.34 0 0 1-.279-.15c-.1-.14-.187-.286-.269-.436H28.6a.341.341 0 0 1 0-.681h.681a.341.341 0 0 1 .3.184 5.175 5.175 0 0 0 .327.548.342.342 0 0 1-.084.474z" class="cls-6" transform="translate(-27.034 -3)"/>
                    <path id="Shape_12_" d="M36.969 9.5a.341.341 0 0 1-.422.232 5.329 5.329 0 0 1-1.642-.8.341.341 0 1 1 .4-.552 4.785 4.785 0 0 0 1.437.7.339.339 0 0 1 .228.422z" class="cls-6" transform="translate(-31.314 -6.498)"/>
                    <path id="Shape_13_" d="M46.041 12.322c-.129.157-.266.33-.4.521a.341.341 0 0 1-.276.14.335.335 0 0 1-.2-.065.34.34 0 0 1-.075-.477c.085-.116.17-.228.252-.334l-.174-.208c-.133.007-.262.007-.388.007h-.15a.341.341 0 1 1 .007-.681h.143c.167 0 .341 0 .514-.017a.344.344 0 0 1 .286.123l.463.559a.335.335 0 0 1-.002.432z" class="cls-6" transform="translate(-37.603 -8.412)"/>
                    <path id="Shape_14_" d="M43.962 18.129a9.824 9.824 0 0 0-.535 1.117.341.341 0 0 1-.634-.252 9.884 9.884 0 0 1 .576-1.2.341.341 0 0 1 .593.334z" class="cls-6" transform="translate(-36.601 -12.651)"/>
                    <path id="Shape_15_" d="M41.927 25a7.8 7.8 0 0 0-.187 1.216.344.344 0 0 1-.341.317h-.024a.341.341 0 0 1-.317-.364 8.877 8.877 0 0 1 .2-1.322.341.341 0 1 1 .664.157z" class="cls-6" transform="translate(-35.472 -17.228)"/>
                    <path id="Shape_16_" d="M41.875 33.575a.341.341 0 0 1-.276.4.371.371 0 0 1-.061.007.341.341 0 0 1-.338-.282 10.506 10.506 0 0 1-.15-1.318.341.341 0 1 1 .678-.037 9.869 9.869 0 0 0 .147 1.23z" class="cls-6" transform="translate(-35.467 -22.116)"/>
                    <path id="Shape_17_" d="M43.461 41.246a.348.348 0 0 1-.467-.123 6.979 6.979 0 0 1-.559-1.23.341.341 0 1 1 .644-.221 6.3 6.3 0 0 0 .5 1.107.341.341 0 0 1-.123.467z" class="cls-6" transform="translate(-36.366 -27.021)"/>
                    <path id="Shape_18_" d="M46.073 46.872l-.521.933a.341.341 0 0 1-.3.174.285.285 0 0 1-.106-.017c-.194-.061-.409-.126-.634-.184a.342.342 0 1 1 .174-.661c.14.037.273.075.4.116l.252-.453c-.109-.1-.215-.2-.313-.31a.341.341 0 1 1 .5-.463 5.142 5.142 0 0 0 .463.436.345.345 0 0 1 .081.429z" class="cls-6" transform="translate(-37.585 -31.274)"/>
                    <path id="Shape_19_" d="M39.4 48.94a.341.341 0 0 1-.337.286.323.323 0 0 1-.054 0 9.145 9.145 0 0 0-1.107-.112.341.341 0 1 1 .027-.681 10.546 10.546 0 0 1 1.189.123.337.337 0 0 1 .283.388z" class="cls-6" transform="translate(-33.172 -32.954)"/>
                    <path id="Shape_20_" d="M32.965 48.83a.341.341 0 0 1-.3.375 6.247 6.247 0 0 0-1.073.208.323.323 0 0 1-.1.014.351.351 0 0 1-.184-.051c.017-.2.034-.4.044-.6a.233.233 0 0 1 .044-.017 7.03 7.03 0 0 1 1.192-.232.343.343 0 0 1 .375.3z" class="cls-6" transform="translate(-29.045 -33.018)"/>
                </g>
            </g>
        </g>
    </g>
</svg>
