<svg width="16" height="16" viewBox="0 0 16 16" fill="none" xmlns="http://www.w3.org/2000/svg">
<path fill-rule="evenodd" clip-rule="evenodd" d="M1.95101 3.00009H4.4375V1.48657H1.41047C0.873115 1.48657 0.4375 1.92219 0.4375 2.45955V5.37846H1.95101V3.00009Z" fill="url(#paint0_linear_2947_49655)"/>
<path fill-rule="evenodd" clip-rule="evenodd" d="M1.99789 11.3785L1.99789 8.89197L0.484375 8.89197L0.484375 11.919C0.484375 12.4564 0.919989 12.892 1.45735 12.892L4.37627 12.892L4.37627 11.3785L1.99789 11.3785Z" fill="url(#paint1_linear_2947_49655)"/>
<path fill-rule="evenodd" clip-rule="evenodd" d="M10.549 2.94601L10.549 4.1352L12.0625 4.1352L12.0625 2.40547C12.0625 1.86811 11.6269 1.4325 11.0895 1.4325L7.95439 1.43249L7.95439 2.94601L10.549 2.94601Z" fill="url(#paint2_linear_2947_49655)"/>
<path d="M8.47318 8.30152V8.89443H6.61592V8.30152H8.47318ZM6.8617 5.20524V8.89443H6.10156V5.20524H6.8617Z" fill="#1A0200"/>
<path d="M9.63366 6.15287V8.89443H8.90139V6.15287H9.63366ZM8.85579 5.43834C8.85579 5.33193 8.89295 5.24409 8.96727 5.17483C9.0416 5.10557 9.14126 5.07095 9.26626 5.07095C9.38957 5.07095 9.48839 5.10557 9.56271 5.17483C9.63872 5.24409 9.67673 5.33193 9.67673 5.43834C9.67673 5.54476 9.63872 5.6326 9.56271 5.70186C9.48839 5.77111 9.38957 5.80574 9.26626 5.80574C9.14126 5.80574 9.0416 5.77111 8.96727 5.70186C8.89295 5.6326 8.85579 5.54476 8.85579 5.43834Z" fill="#1A0200"/>
<path d="M10.9512 6.73818V8.89443H10.2215V6.15287H10.9056L10.9512 6.73818ZM10.8448 7.42736H10.6472C10.6472 7.22466 10.6734 7.04223 10.7257 6.88007C10.7781 6.71622 10.8516 6.57686 10.9462 6.46199C11.0408 6.34544 11.1531 6.25676 11.2832 6.19595C11.4149 6.13345 11.5619 6.1022 11.724 6.1022C11.8524 6.1022 11.9698 6.12078 12.0762 6.15794C12.1826 6.1951 12.2739 6.25422 12.3499 6.3353C12.4276 6.41639 12.4867 6.52365 12.5272 6.65709C12.5695 6.79054 12.5906 6.95355 12.5906 7.14611V8.89443H11.8558V7.14358C11.8558 7.02196 11.8389 6.92736 11.8051 6.8598C11.7713 6.79223 11.7215 6.74493 11.6556 6.71791C11.5914 6.68919 11.512 6.67483 11.4174 6.67483C11.3195 6.67483 11.2342 6.69426 11.1615 6.73311C11.0906 6.77196 11.0315 6.82601 10.9842 6.89527C10.9386 6.96284 10.9039 7.04223 10.8803 7.13345C10.8566 7.22466 10.8448 7.32264 10.8448 7.42736Z" fill="#1A0200"/>
<path d="M13.8752 5V8.89443H13.1455V5H13.8752ZM15.6033 6.15287L14.4124 7.51098L13.7739 8.15709L13.5078 7.63007L14.0146 6.98649L14.7266 6.15287H15.6033ZM14.8456 8.89443L14.0348 7.62753L14.5391 7.18666L15.6869 8.89443H14.8456Z" fill="#1A0200"/>
<path d="M8.20418 12.3324C8.20418 12.1187 8.17786 11.9267 8.12521 11.7564C8.07411 11.5845 7.98972 11.4436 7.87204 11.3337C7.75436 11.2237 7.61113 11.1688 7.44236 11.1688C7.30145 11.1688 7.17912 11.2021 7.07538 11.2686C6.97164 11.3352 6.89112 11.4258 6.83383 11.5404C6.77653 11.6534 6.73395 11.7765 6.70608 11.9097C6.67976 12.0413 6.6666 12.1822 6.6666 12.3324C6.6666 12.4253 6.67124 12.5182 6.68053 12.6111C6.69137 12.7025 6.70763 12.7969 6.72931 12.8945C6.75253 12.992 6.7835 13.0826 6.82221 13.1662C6.86247 13.2483 6.9097 13.3226 6.96389 13.3892C7.01809 13.4558 7.08467 13.5084 7.16364 13.5471C7.24416 13.5843 7.33242 13.6029 7.42842 13.6029C7.57397 13.6029 7.67694 13.5742 7.73733 13.5169L7.36571 13.2429L7.70714 12.7853L8.07411 13.0896C8.10973 13.023 8.13992 12.9107 8.1647 12.7528C8.19102 12.5949 8.20418 12.4547 8.20418 12.3324ZM6 12.3324C6 12.1853 6.01471 12.0367 6.04413 11.8865C6.0751 11.7363 6.1262 11.5837 6.19742 11.4289C6.2702 11.2741 6.36001 11.137 6.46685 11.0178C6.57369 10.8986 6.71073 10.801 6.87796 10.7251C7.04673 10.6493 7.23487 10.6113 7.44236 10.6113C7.63591 10.6113 7.81243 10.6454 7.97192 10.7135C8.13295 10.7801 8.26612 10.8699 8.37141 10.9829C8.47825 11.0944 8.56806 11.2253 8.64084 11.3755C8.71516 11.5241 8.76858 11.679 8.8011 11.84C8.83361 11.9995 8.84987 12.1636 8.84987 12.3324C8.84987 12.5832 8.822 12.8078 8.76626 13.006C8.71052 13.2026 8.64161 13.3606 8.55954 13.4798L8.87542 13.7097L8.52703 14.151L8.21812 13.8979C8.12831 13.9784 8.01372 14.0426 7.87437 14.0906C7.73501 14.1402 7.58326 14.165 7.41913 14.165C7.23177 14.165 7.05835 14.1293 6.89886 14.0581C6.74092 13.9853 6.60776 13.8886 6.49937 13.7678C6.39098 13.647 6.29807 13.5069 6.22065 13.3474C6.14478 13.1879 6.08903 13.023 6.05342 12.8527C6.01781 12.6808 6 12.5074 6 12.3324Z" fill="#1A0200"/>
<path d="M9.37943 14.0837V10.7019H10.2156L11.0285 13.0989L11.8554 10.7019H12.6892V14.0837H12.0667V11.8493L11.3421 14.0837H10.7149L10.0019 11.8493V14.0837H9.37943Z" fill="#1A0200"/>
<path d="M13.1514 13.1453L13.7739 13.0454C13.8126 13.2018 13.8838 13.3319 13.9875 13.4357C14.0913 13.5378 14.2283 13.5889 14.3986 13.5889C14.5705 13.5889 14.7029 13.5479 14.7958 13.4658C14.8903 13.3838 14.9375 13.2769 14.9375 13.1453C14.9375 13.0741 14.9228 13.0098 14.8934 12.9525C14.864 12.8937 14.8268 12.8457 14.7819 12.8085C14.7385 12.7698 14.6797 12.7319 14.6054 12.6947C14.5326 12.656 14.4629 12.6243 14.3963 12.5995C14.3313 12.5747 14.25 12.543 14.1524 12.5043C14.0549 12.4656 13.9713 12.43 13.9016 12.3974C13.8087 12.3525 13.7305 12.3099 13.667 12.2697C13.6035 12.2279 13.5385 12.1745 13.4719 12.1094C13.4069 12.0428 13.3573 11.9631 13.3233 11.8702C13.2892 11.7773 13.2722 11.6712 13.2722 11.552C13.2722 11.4002 13.3031 11.264 13.3651 11.1432C13.4286 11.0209 13.5137 10.9226 13.6206 10.8482C13.7274 10.7724 13.8466 10.7151 13.9783 10.6764C14.1114 10.6377 14.2515 10.6183 14.3986 10.6183C14.6588 10.6183 14.888 10.6857 15.0861 10.8204C15.2859 10.9551 15.4198 11.1246 15.488 11.329L14.8539 11.4475C14.778 11.2679 14.6263 11.1781 14.3986 11.1781C14.2546 11.1781 14.137 11.2075 14.0456 11.2663C13.9543 11.3236 13.9086 11.4188 13.9086 11.552C13.9086 11.6139 13.9295 11.6712 13.9713 11.7239C14.0131 11.7765 14.0719 11.8237 14.1478 11.8656C14.2252 11.9058 14.3003 11.9414 14.3731 11.9724C14.4474 12.0018 14.5326 12.0351 14.6286 12.0723C14.7261 12.1079 14.7997 12.1373 14.8492 12.1605C14.9375 12.2023 15.0149 12.2434 15.0815 12.2836C15.1481 12.3239 15.2139 12.3734 15.2789 12.4323C15.344 12.4896 15.3966 12.5515 15.4369 12.6181C15.4787 12.6831 15.512 12.7605 15.5367 12.8503C15.5615 12.9402 15.5739 13.0385 15.5739 13.1453C15.5739 13.4504 15.4616 13.6942 15.2371 13.877C15.0126 14.0597 14.7331 14.151 14.3986 14.151C14.075 14.151 13.7971 14.0589 13.5648 13.8746C13.3341 13.6888 13.1963 13.4457 13.1514 13.1453Z" fill="#1A0200"/>
<defs>
<linearGradient id="paint0_linear_2947_49655" x1="2.05912" y1="2.72982" x2="1.30236" y2="5.75684" gradientUnits="userSpaceOnUse">
<stop stop-color="#DE2F24"/>
<stop offset="1" stop-color="#C9001F"/>
</linearGradient>
<linearGradient id="paint1_linear_2947_49655" x1="0.430321" y1="10.946" x2="4.32221" y2="13.7568" gradientUnits="userSpaceOnUse">
<stop stop-color="#DE2F24"/>
<stop offset="1" stop-color="#C9001F"/>
</linearGradient>
<linearGradient id="paint2_linear_2947_49655" x1="12.1166" y1="2.72979" x2="6.49493" y2="2.72979" gradientUnits="userSpaceOnUse">
<stop stop-color="#D00054"/>
<stop offset="1" stop-color="#DB2724"/>
</linearGradient>
</defs>
</svg>
