<svg xmlns="http://www.w3.org/2000/svg" width="14.602" height="19.468" viewBox="0 0 14.602 19.468">
    <defs>
        <style>
            .cls-1{fill:#c7d9e6}
        </style>
    </defs>
    <g id="lock" transform="translate(-64)">
        <g id="Group_121" data-name="Group 121" transform="translate(64)">
            <path id="Path_132" d="M78.2 7.3h-1.222V5.678a5.678 5.678 0 0 0-11.356 0V7.3h-1.216a.405.405 0 0 0-.406.406v10.139a1.624 1.624 0 0 0 1.622 1.622h11.356a1.624 1.624 0 0 0 1.622-1.622V7.706a.405.405 0 0 0-.4-.406zm-5.68 8.472a.406.406 0 0 1-.4.45h-1.631a.406.406 0 0 1-.4-.45l.256-2.3a1.6 1.6 0 0 1-.664-1.3 1.622 1.622 0 1 1 3.245 0 1.6 1.6 0 0 1-.664 1.3zM74.545 7.3h-6.489V5.678a3.245 3.245 0 1 1 6.489 0z" class="cls-1" data-name="Path 132" transform="translate(-64)"/>
        </g>
    </g>
</svg>
