<svg xmlns="http://www.w3.org/2000/svg" width="54" height="36" viewBox="0 0 54 36">
  <g id="Group_10905" data-name="Group 10905" transform="translate(-143 -124)">
    <g id="Group_10907" data-name="Group 10907" transform="translate(143 124)">
      <rect id="Rectangle_2089" data-name="Rectangle 2089" width="51.173" height="36" fill="none"/>
      <g id="Group_10906" data-name="Group 10906" transform="translate(0 1.255)">
        <g id="Artboard_2" data-name="Artboard 2">
          <path id="Union_5" data-name="Union 5" d="M-12143.7-1516.053c-.7-.018-1.407-.018-2.11,0-.223,0-.283-.052-.283-.281q.009-7.173,0-14.357v-7.026c0-.208.049-.26.256-.256.73.012,1.475.009,2.211,0,.155,0,.192.043.192.2,0,.556,0,1.111,0,1.725a8.386,8.386,0,0,1,11.823.495,8.4,8.4,0,0,1,.177,11.032,8.377,8.377,0,0,1-11.979.733.481.481,0,0,0-.024.263v7.2c0,.206-.038.275-.251.275Zm.278-13.9a5.8,5.8,0,0,0,5.71,5.8,5.814,5.814,0,0,0,5.871-5.782,5.79,5.79,0,0,0-5.78-5.8h-.011A5.79,5.79,0,0,0-12143.423-1529.949Zm-20.117,6.079a8.341,8.341,0,0,1-.668-11.078,8.125,8.125,0,0,1,5.865-3.13,8.225,8.225,0,0,1,6.327,2.171v-.33c.006-.522.012-1.041.019-1.56a6.8,6.8,0,0,1,1-.031c.2,0,.388.006.583,0,.281,0,.563.009.846,0,.178-.006.22.052.22.223v15.622c0,.2-.063.232-.241.229-.735-.009-1.475-.009-2.21,0-.178,0-.22-.049-.217-.22.009-.556,0-1.108,0-1.707a8.346,8.346,0,0,1-5.661,2.208A8.338,8.338,0,0,1-12163.54-1523.87Zm-.055-5.948a5.8,5.8,0,0,0,5.774,5.82v0a5.8,5.8,0,0,0,5.8-5.762,5.81,5.81,0,0,0-5.759-5.832h-.028A5.8,5.8,0,0,0-12163.595-1529.818Z" transform="translate(12166 1549.415)" fill="#cf141e"/>
          <path id="Path_3199" data-name="Path 3199" d="M466,270.528v-7.374c0-.211.039-.281.268-.275.732.018,1.457.012,2.184,0,.167,0,.2.05.2.209v14.873c0,.187-.067.212-.23.211-.732-.007-1.464-.012-2.184,0-.2,0-.244-.057-.243-.249Q466.009,274.227,466,270.528Z" transform="translate(-427.548 -251.29)" fill="#cf141e"/>
          <path id="Path_3200" data-name="Path 3200" d="M446.89,183.73c-.061.122-.146.133-.221.168-2.8,1.4-5.6,2.808-8.266,4.468-1.624,1.013-3.14,2.178-4.7,3.287-.2.146-.419.266-.616.416a.637.637,0,0,1-.8,0,14.019,14.019,0,0,1-1.531-1.187,33.061,33.061,0,0,0-2.618-2.17,10.6,10.6,0,0,0-2.246-1.2c-.063-.023-.179-.034-.146-.126s.136-.026.2-.01c.773.215,1.509.536,2.26.814a34.219,34.219,0,0,1,3.563,1.738c.1.053.209.1.312.146a1.3,1.3,0,0,0,1.464-.117,43.292,43.292,0,0,1,12.2-5.918A6.071,6.071,0,0,1,446.89,183.73Z" transform="translate(-392.89 -183.73)" fill="#686a67"/>
          <path id="Path_3201" data-name="Path 3201" d="M459.234,230.41a3.171,3.171,0,0,1-1.123,3.164,3.288,3.288,0,0,1-3.887.162,3.217,3.217,0,0,1-1.359-3.3,8.622,8.622,0,0,1,1.066,1,11.156,11.156,0,0,0,1.171,1.076,1.035,1.035,0,0,0,1.222.089,13.01,13.01,0,0,0,1.861-1.357Z" transform="translate(-416.251 -223.576)" fill="#cf141e"/>
          <path id="Path_3202" data-name="Path 3202" d="M464.237,212.943a13.307,13.307,0,0,1-1.61,1.025.925.925,0,0,1-.81.041,14.159,14.159,0,0,1-1.627-.792A3.166,3.166,0,0,1,464.237,212.943Z" transform="translate(-422.585 -208.152)" fill="#cf141e"/>
        </g>
      </g>
    </g>
  </g>
</svg>
