<svg xmlns="http://www.w3.org/2000/svg" width="30" height="24" viewBox="0 0 30 24">
    <defs>
        <style>
            .cls-3{fill:#487ba1;stroke:#487ba1;stroke-width:.5px}.cls-6{fill:#2e6089}.cls-7{fill:#ff7eb8}.cls-8{fill:#2a719b}
        </style>
    </defs>
    <g id="Man_day" transform="translate(-1461.637 -603.136)">
        <g id="Group_9859" transform="translate(1462.636 604.136)">
            <g id="Group_9717">
                <path id="Rectangle_1187" fill="none" d="M0 0H30V24H0z" transform="translate(-1 -1)"/>
            </g>
        </g>
        <g id="Group_13335" transform="translate(1.014 -.75)">
            <path id="Path_2684" fill="#d3ebfa" d="M15.417 2.441c-3.584 0-6.046-1.857-7.773-1.857S2.29 1.577 2.29 9.522s4.88 9.111 6.779 9.111c8.896 0 12.695-16.192 6.348-16.192z" transform="translate(1466.601 604.302)"/>
            <g id="user_6_" transform="translate(1467.025 607.238)">
                <path id="Path_2749" d="M95.46 4.212a4.076 4.076 0 0 1-1.234 2.979 4.076 4.076 0 0 1-2.979 1.234 4.077 4.077 0 0 1-2.976-1.234 4.076 4.076 0 0 1-1.234-2.979 4.075 4.075 0 0 1 1.234-2.978A4.075 4.075 0 0 1 91.246 0a4.077 4.077 0 0 1 2.979 1.234 4.076 4.076 0 0 1 1.235 2.978zm0 0" class="cls-3" transform="translate(-84.062)"/>
                <path id="Union_13" fill="#8ebad8" stroke="#487ba1" stroke-width="0.5px" d="M7.184 9.041h-4.1a3.1 3.1 0 0 1-2.221-.81A2.9 2.9 0 0 1 0 6.034c0-.351.012-.7.035-1.034a10.359 10.359 0 0 1 .141-1.1 8.8 8.8 0 0 1 .272-1.115 5.5 5.5 0 0 1 .457-1.037 3.9 3.9 0 0 1 .689-.9 3.019 3.019 0 0 1 .989-.619A3.414 3.414 0 0 1 3.847 0a1.28 1.28 0 0 1 .684.29l.714.461a4.077 4.077 0 0 0 .922.406 3.688 3.688 0 0 0 1.017.181h.112a3.65 3.65 0 0 0 1.129-.183 4.058 4.058 0 0 0 .922-.404l.714-.46A1.278 1.278 0 0 1 10.745 0a3.41 3.41 0 0 1 1.263.229A3.038 3.038 0 0 1 13 .851a3.9 3.9 0 0 1 .689.9 5.484 5.484 0 0 1 .456 1.036 8.693 8.693 0 0 1 .27 1.113 10.6 10.6 0 0 1 .142 1.1c.023.333.035.68.035 1.033a2.9 2.9 0 0 1-.862 2.2 3.107 3.107 0 0 1-2.223.811z" transform="translate(0 8.448)"/>
                <path id="Path_2751" d="M210.295 8.425V0a4.077 4.077 0 0 1 2.979 1.234 4.076 4.076 0 0 1 1.234 2.978 4.076 4.076 0 0 1-1.234 2.979 4.076 4.076 0 0 1-2.979 1.234zm0 0" class="cls-3" transform="translate(-203.109)"/>
            </g>
            <path id="Path_4812" fill="#fff" d="M3.711-.426c2.455-.016 3.711 2.188 3.711 4.238a3.711 3.711 0 0 1-7.422 0C0 1.762 1.256-.409 3.711-.426z" transform="translate(1480.126 608.206)"/>
            <g id="clock" transform="translate(1479.635 607.412)">
                <g id="Group_9860">
                    <path id="Path_2755" d="M4.187 8.375a4.187 4.187 0 0 1-2.961-7.149 4.187 4.187 0 0 1 5.922 5.922 4.16 4.16 0 0 1-2.961 1.227zm0-7.884A3.7 3.7 0 0 0 1.573 6.8 3.7 3.7 0 1 0 6.8 1.573 3.672 3.672 0 0 0 4.187.491z" class="cls-6"/>
                </g>
                <g id="Group_9861" transform="translate(3.942 .982)">
                    <path id="Path_2756" d="M241 60.036h.491v.655H241z" class="cls-6" transform="translate(-241 -60.036)"/>
                </g>
                <g id="Group_9862" transform="translate(5.817 1.748)">
                    <path id="Path_2757" d="M0 0h.655v.491H0z" class="cls-6" transform="rotate(-45 .559 .232)"/>
                </g>
                <g id="Group_9863" transform="translate(6.738 3.942)">
                    <path id="Path_2758" d="M411.932 241h.655v.491h-.655z" class="cls-6" transform="translate(-411.932 -241)"/>
                </g>
                <g id="Group_9864" transform="translate(5.816 5.818)">
                    <path id="Path_2759" d="M0 0h.491v.655H0z" class="cls-6" transform="rotate(-45 .419 .173)"/>
                </g>
                <g id="Group_9865" transform="translate(3.942 6.738)">
                    <path id="Path_2760" d="M241 411.932h.491v.655H241z" class="cls-6" transform="translate(-241 -411.932)"/>
                </g>
                <g id="Group_9866" transform="translate(1.747 5.817)">
                    <path id="Path_2761" d="M0 0h.655v.491H0z" class="cls-6" transform="rotate(-45 .559 .232)"/>
                </g>
                <g id="Group_9867" transform="translate(.982 3.942)">
                    <path id="Path_2762" d="M60.036 241h.655v.491h-.655z" class="cls-6" transform="translate(-60.036 -241)"/>
                </g>
                <g id="Group_9868" transform="translate(1.747 1.748)">
                    <path id="Path_2763" d="M0 0h.491v.655H0z" class="cls-6" transform="rotate(-45 .419 .173)"/>
                </g>
                <g id="Group_9869" transform="translate(3.942 2.456)">
                    <path id="Path_2764" d="M242.977 152.085H241v-1.977h.491v1.487h1.487z" class="cls-7" transform="translate(-241 -150.108)"/>
                </g>
            </g>
            <path id="Path_4815" d="M.685 1.37a.214.214 0 0 1-.214-.214A.257.257 0 0 0 .214.9a.214.214 0 0 1 0-.428.257.257 0 0 0 .257-.258.214.214 0 0 1 .429 0 .257.257 0 0 0 .257.257.214.214 0 1 1 0 .428.257.257 0 0 0-.257.257.214.214 0 0 1-.215.214z" class="cls-7" transform="rotate(44 -21.018 2147.061)"/>
            <path id="Path_4816" d="M.685 1.37a.214.214 0 0 1-.214-.214A.257.257 0 0 0 .214.9a.214.214 0 0 1 0-.428.257.257 0 0 0 .257-.258.214.214 0 0 1 .429 0 .257.257 0 0 0 .257.257.214.214 0 1 1 0 .428.257.257 0 0 0-.257.257.214.214 0 0 1-.215.214z" class="cls-7" transform="rotate(44 -24.83 2119.81)"/>
            <path id="Path_4817" d="M.214.856A.214.214 0 0 1 .063.491L.491.063a.214.214 0 1 1 .3.3L.366.794a.213.213 0 0 1-.152.062z" class="cls-8" transform="rotate(44 -22.876 2120.266)"/>
        </g>
        <path id="Path_4814" d="M.214.856A.214.214 0 0 1 .063.491L.491.063a.214.214 0 1 1 .3.3L.366.794a.213.213 0 0 1-.152.062z" class="cls-8" transform="rotate(44 -7.216 2134.974)"/>
    </g>
</svg>
