<svg xmlns="http://www.w3.org/2000/svg" width="58" height="46" viewBox="0 0 58 46">
    <defs>
        <style>
            .cls-1{fill:#fff}.cls-3{fill:#487ba1;stroke:#487ba1;stroke-width:.5px}.cls-5{fill:#ff7eb8}.cls-7{fill:#2e6089}
        </style>
    </defs>
    <g id="Man_day" transform="translate(-1462.636 -604.136)">
        <g id="Group_9859" transform="translate(1463 605.636)">
            <g id="Group_9717" transform="translate(0 .163)">
                <path id="Rectangle_1187" d="M0 0H58V46H0z" class="cls-1" transform="translate(-.364 -1.663)"/>
            </g>
            <path id="Path_2684" fill="#d3ebfa" d="M28.544 4.3C21.375 4.3 16.453.584 13 .584S2.29 2.57 2.29 18.46s9.759 18.222 13.558 18.222C33.639 36.683 41.239 4.3 28.544 4.3z" transform="translate(9.856 -.584)"/>
            <g id="user_6_" transform="translate(12.144 9.176)">
                <path id="Path_2749" d="M101.731 7.347a7.111 7.111 0 0 1-2.153 5.2 7.11 7.11 0 0 1-5.2 2.153 7.111 7.111 0 0 1-5.192-2.153 7.11 7.11 0 0 1-2.153-5.2 7.109 7.109 0 0 1 2.153-5.195A7.108 7.108 0 0 1 94.38 0a7.112 7.112 0 0 1 5.2 2.153 7.11 7.11 0 0 1 2.151 5.194zm0 0" class="cls-3" transform="translate(-81.849)"/>
                <path id="Union_13" fill="#8ebad8" stroke="#487ba1" stroke-width="0.5px" d="M-1285.977 4232.1h-7.149a5.412 5.412 0 0 1-3.877-1.415 5.065 5.065 0 0 1-1.505-3.832c0-.613.02-1.219.061-1.8a18.278 18.278 0 0 1 .247-1.929 15.37 15.37 0 0 1 .474-1.937 9.614 9.614 0 0 1 .8-1.808 6.835 6.835 0 0 1 1.2-1.567 5.3 5.3 0 0 1 1.727-1.084 5.958 5.958 0 0 1 2.2-.4 2.237 2.237 0 0 1 1.194.505c.363.238.783.508 1.245.8a7.132 7.132 0 0 0 1.609.709 6.408 6.408 0 0 0 1.774.314h.194a6.42 6.42 0 0 0 1.969-.317 7.143 7.143 0 0 0 1.61-.709c.467-.3.886-.568 1.245-.8a2.229 2.229 0 0 1 1.194-.506 5.965 5.965 0 0 1 2.2.4 5.313 5.313 0 0 1 1.726 1.084 6.815 6.815 0 0 1 1.2 1.567 9.59 9.59 0 0 1 .8 1.807 15.4 15.4 0 0 1 .474 1.939 18.038 18.038 0 0 1 .246 1.927c.042.581.062 1.188.063 1.8a5.061 5.061 0 0 1-1.505 3.832 5.415 5.415 0 0 1-3.877 1.415z" transform="translate(1298.508 -4201.587)"/>
                <path id="Path_2751" d="M210.3 14.7V0a7.112 7.112 0 0 1 5.2 2.153 7.11 7.11 0 0 1 2.153 5.195 7.111 7.111 0 0 1-2.153 5.2 7.11 7.11 0 0 1-5.2 2.152zm0 0" class="cls-3" transform="translate(-197.762)"/>
            </g>
            <g id="Group_9763" transform="rotate(40 8.278 32.07)">
                <g id="Group_3347" transform="rotate(4.01 .94 26.81)">
                    <path id="Path_2578" d="M1.37 2.741a.428.428 0 0 1-.428-.428.514.514 0 0 0-.514-.513.428.428 0 0 1 0-.856.514.514 0 0 0 .514-.516.428.428 0 0 1 .856 0 .514.514 0 0 0 .514.514.428.428 0 1 1 0 .856.514.514 0 0 0-.514.514.428.428 0 0 1-.428.429z" class="cls-5" transform="translate(.462 24.199)"/>
                    <g id="Group_3346">
                        <path id="Path_1745" fill="#2a719b" d="M.428 1.713a.428.428 0 0 1-.3-.731L.982.125a.428.428 0 0 1 .606.606l-.856.856a.426.426 0 0 1-.304.126z" transform="translate(0 21.227)"/>
                    </g>
                </g>
            </g>
        </g>
        <circle id="Ellipse_476" cx="6.5" cy="6.5" r="6.5" class="cls-1" transform="translate(1498.636 615.136)"/>
        <g id="clock" transform="translate(1497.842 614.689)">
            <g id="Group_9860">
                <path id="Path_2755" d="M6.77 13.54A6.77 6.77 0 0 1 1.983 1.983a6.77 6.77 0 0 1 9.575 9.575A6.726 6.726 0 0 1 6.77 13.54zm0-12.747A5.977 5.977 0 0 0 2.544 11 5.977 5.977 0 1 0 11 2.544 5.938 5.938 0 0 0 6.77.793z" class="cls-7"/>
            </g>
            <g id="Group_9861" transform="translate(6.374 1.588)">
                <path id="Path_2756" d="M241 60.036h.793v1.059H241z" class="cls-7" transform="translate(-241 -60.036)"/>
            </g>
            <g id="Group_9862" transform="translate(9.404 2.826)">
                <path id="Path_2757" d="M0 0h1.059v.793H0z" class="cls-7" transform="rotate(-45 .903 .374)"/>
            </g>
            <g id="Group_9863" transform="translate(10.894 6.374)">
                <path id="Path_2758" d="M411.932 241h1.059v.793h-1.059z" class="cls-7" transform="translate(-411.932 -241)"/>
            </g>
            <g id="Group_9864" transform="translate(9.404 9.406)">
                <path id="Path_2759" d="M0 0h.793v1.059H0z" class="cls-7" transform="rotate(-45 .677 .28)"/>
            </g>
            <g id="Group_9865" transform="translate(6.374 10.894)">
                <path id="Path_2760" d="M241 411.932h.793v1.059H241z" class="cls-7" transform="translate(-241 -411.932)"/>
            </g>
            <g id="Group_9866" transform="translate(2.824 9.405)">
                <path id="Path_2761" d="M0 0h1.059v.793H0z" class="cls-7" transform="rotate(-45 .903 .374)"/>
            </g>
            <g id="Group_9867" transform="translate(1.588 6.374)">
                <path id="Path_2762" d="M60.036 241h1.059v.793h-1.059z" class="cls-7" transform="translate(-60.036 -241)"/>
            </g>
            <g id="Group_9868" transform="translate(2.824 2.825)">
                <path id="Path_2763" d="M0 0h.793v1.059H0z" class="cls-7" transform="rotate(-45 .677 .28)"/>
            </g>
            <g id="Group_9869" transform="translate(6.374 3.97)">
                <path id="Path_2764" d="M244.2 153.305H241v-3.2h.793v2.4h2.4z" class="cls-5" transform="translate(-241 -150.108)"/>
            </g>
        </g>
    </g>
</svg>
