<svg xmlns="http://www.w3.org/2000/svg" width="19" height="18.998" viewBox="0 0 19 18.998">
  <g id="new_01" data-name="new 01" transform="translate(0 -0.02)">
    <path id="Path_4970" data-name="Path 4970" d="M16.976,7.689c-.277-.2-.626-.459-.668-.626a2.1,2.1,0,0,1,.269-.918c.244-.56.5-1.141.216-1.624s-.917-.561-1.53-.626a2.084,2.084,0,0,1-.915-.218,2.084,2.084,0,0,1-.218-.918c-.069-.613-.14-1.247-.626-1.53s-1.067-.035-1.628.212a2.1,2.1,0,0,1-.919.269c-.169-.045-.423-.391-.626-.668C9.977.563,9.577.02,9,.02s-.977.543-1.33,1.022c-.205.278-.459.626-.626.669a2.146,2.146,0,0,1-.919-.269C5.561,1.194,4.98.947,4.5,1.225s-.562.917-.631,1.534a2.094,2.094,0,0,1-.218.915,2.091,2.091,0,0,1-.912.214c-.614.069-1.248.14-1.531.626s-.034,1.067.213,1.628a2.094,2.094,0,0,1,.269.921c-.045.169-.391.424-.668.626C.543,8.041,0,8.442,0,9.02S.543,10,1.023,10.35c.277.2.626.459.668.626a2.1,2.1,0,0,1-.269.918c-.244.56-.5,1.141-.216,1.624s.917.561,1.53.626a2.084,2.084,0,0,1,.915.218,2.084,2.084,0,0,1,.218.918c.069.613.14,1.247.626,1.53s1.063.028,1.624-.216a2.149,2.149,0,0,1,.925-.266c.169.045.423.391.626.668.353.479.753,1.022,1.33,1.022s.977-.543,1.33-1.022c.205-.278.459-.626.626-.669a2.113,2.113,0,0,1,.919.269c.56.244,1.141.495,1.623.217s.562-.917.631-1.531a2.094,2.094,0,0,1,.218-.915,2.091,2.091,0,0,1,.914-.217c.614-.069,1.248-.14,1.531-.626s.027-1.063-.216-1.624a2.094,2.094,0,0,1-.266-.925c.045-.169.391-.424.668-.626C17.456,10,18,9.6,18,9.02S17.456,8.041,16.976,7.689Z" transform="translate(0.5 0.5)" fill="#fff" stroke="#24c11e" stroke-width="1"/>
    <g id="Group_13703" data-name="Group 13703" transform="translate(4.432 7.831)">
      <path id="Path_4971" data-name="Path 4971" d="M109.315,195.805a.378.378,0,0,1-.3-.151l-1.589-2.119v1.892a.378.378,0,0,1-.757,0V192.4a.378.378,0,0,1,.681-.227l1.589,2.119V192.4a.378.378,0,0,1,.757,0v3.027a.378.378,0,0,1-.259.359A.373.373,0,0,1,109.315,195.805Z" transform="translate(-106.666 -192.021)" fill="#24c11e"/>
      <path id="Path_4972" data-name="Path 4972" d="M215.225,195.805h-1.514a.378.378,0,0,1-.378-.378V192.4a.378.378,0,0,1,.378-.378h1.514a.378.378,0,0,1,0,.757H214.09v2.27h1.135a.378.378,0,0,1,0,.757Z" transform="translate(-209.549 -192.021)" fill="#24c11e"/>
      <path id="Path_4973" data-name="Path 4973" d="M215.225,235.444h-1.514a.378.378,0,1,1,0-.757h1.514a.378.378,0,1,1,0,.757Z" transform="translate(-209.549 -233.173)" fill="#24c11e"/>
      <path id="Path_4974" data-name="Path 4974" d="M301.316,195.8a.378.378,0,0,1-.359-.259l-.4-1.193-.4,1.193a.362.362,0,0,1-.374.258.378.378,0,0,1-.353-.286l-.757-3.027a.379.379,0,0,1,.735-.183l.441,1.766.346-1.038a.394.394,0,0,1,.718,0l.346,1.038.441-1.766a.379.379,0,1,1,.735.183l-.757,3.027a.378.378,0,0,1-.353.286Z" transform="translate(-291.856 -192.012)" fill="#24c11e"/>
    </g>
  </g>
</svg>
