<svg xmlns="http://www.w3.org/2000/svg" width="65" height="66" viewBox="0 0 65 66">
    <defs>
        <style>
            .cls-2{fill:none}.cls-3{fill:#e7f2fd}.cls-5{fill:#e2eefa}.cls-7,.cls-8,.cls-9{fill:#ccdbe8}.cls-7{stroke:#ccdbe8}.cls-10,.cls-9{opacity:.965}.cls-10{fill:#fff}.cls-12{stroke:none}
        </style>
    </defs>
    <g id="Group_13668" transform="translate(-827 -1002)">
        <g id="Group_11007" opacity="0.095" transform="translate(832.322 1007.322)">
            <path id="Rectangle_1999" d="M0 0H60V61H0z" class="cls-2" transform="translate(-.322 -.322)"/>
        </g>
        <path id="Rectangle_2261" d="M0 0H64V65H0z" class="cls-2" transform="translate(827 1002)"/>
        <g id="Group_11029" transform="translate(831.961 1013.463)">
            <g id="Group_11018" transform="translate(4.047)">
                <path id="Path_3271" d="M-20118.9-2549.69l.783-7.957a2.113 2.113 0 0 1 .551-.807 2.072 2.072 0 0 1 .895-.365h12.6a2.815 2.815 0 0 1 1.053.585 2.3 2.3 0 0 1 .52 1v1.726h23.871a3.79 3.79 0 0 1 1.414.421 1.82 1.82 0 0 1 .7.94l-2.109 28.45a3.362 3.362 0 0 1-.646 1.379 2.631 2.631 0 0 1-1.238.674z" class="cls-3" transform="translate(20123.861 2558.819)"/>
                <path id="Path_3272" fill="#eff6fc" d="M-20118.352-2538.776l37.35.018a2.594 2.594 0 0 1 1.24.457 3.185 3.185 0 0 1 .811 1.149l1.568 11.641-.977 13.609a3.639 3.639 0 0 1-.449 1.278 2.063 2.063 0 0 1-.953.736 1.915 1.915 0 0 1-.453.175 1.081 1.081 0 0 1-.406 0l-37.916-27.288z" transform="translate(20123.609 2544.888)"/>
                <path id="Path_3270" d="M-20135.164-2531.269a3.091 3.091 0 0 1 .615-1.248 1.687 1.687 0 0 1 1.064-.419h38.191a2.966 2.966 0 0 1 1.555.4 1.941 1.941 0 0 1 .582 1.268l2.264 23.506a2.694 2.694 0 0 1-.264 1.417 1.925 1.925 0 0 1-1.1.673h-38.955a2.265 2.265 0 0 1-1.227-.657 2.9 2.9 0 0 1-.469-1.432z" class="cls-3" transform="translate(20135.164 2540.829)"/>
            </g>
            <g id="Group_11020" transform="translate(0 22.208)">
                <path id="Path_3273" d="M6351.392 217.821a22.767 22.767 0 0 1 1.528-6.91 11.982 11.982 0 0 1 3.487-4.377v-1.166a12.811 12.811 0 0 0-4.261 4.791 21.9 21.9 0 0 0-1.62 7.662z" class="cls-5" transform="translate(-6349.289 -205.368)"/>
                <ellipse id="Ellipse_603" cx="1.769" cy="2.527" class="cls-5" rx="1.769" ry="2.527" transform="translate(0 11.106)"/>
            </g>
            <g id="Group_11021" transform="translate(47.293 22.208)">
                <path id="Path_3273-2" d="M6355.542 217.821a22.759 22.759 0 0 0-1.529-6.91 11.978 11.978 0 0 0-3.487-4.377v-1.166a12.816 12.816 0 0 1 4.261 4.791 21.893 21.893 0 0 1 1.619 7.662z" class="cls-5" transform="translate(-6350.526 -205.368)"/>
                <ellipse id="Ellipse_603-2" cx="1.769" cy="2.527" class="cls-5" rx="1.769" ry="2.527" transform="translate(3.813 12.116)"/>
            </g>
            <ellipse id="Ellipse_607" cx="20.879" cy="2.661" fill="#d7e8f7" opacity="0.4" rx="20.879" ry="2.661" transform="translate(6.502 49.053)"/>
            <g id="Group_11022" transform="translate(28.393 34.725)">
                <g id="Rectangle_2262" class="cls-7">
                    <path d="M0 0H1.638V13.1H0z" class="cls-12" transform="translate(1.443)"/>
                    <path d="M0.5 0.5H1.138V12.6H0.5z" class="cls-2" transform="translate(1.443)"/>
                </g>
                <ellipse id="Ellipse_604" cx="2.806" cy="1.978" class="cls-8" rx="2.806" ry="1.978" transform="rotate(-141 5.257 7.916)"/>
            </g>
            <g id="Group_11023" transform="translate(22.966 35.169)">
                <g id="Rectangle_2262-2" class="cls-7">
                    <path d="M0 0H1.296V12.96H0z" class="cls-12"/>
                    <path d="M0.5 0.5H0.796V12.46H0.5z" class="cls-2"/>
                </g>
            </g>
            <path id="Path_3276" d="M13.507 6.76l13.545.031s.127.116.253.236a14.949 14.949 0 0 1 4.534 10.806 14.8 14.8 0 0 1-14.654 14.94c-3.4 0-9.28-3.362-9.28-3.362L6.749 18.328l-.794-8.766-.088-.962a1.34 1.34 0 0 1 .27-.977c.361-.47.391-.648 2.233-.864a37.816 37.816 0 0 1 5.137.001z" class="cls-5" transform="translate(-1.797 1.048)"/>
            <g id="Group_11025" transform="translate(16.683 15.894)">
                <path id="Path_3274" d="M2.517 0A2.517 2.517 0 1 1 0 2.517 2.517 2.517 0 0 1 2.517 0z" class="cls-9"/>
                <circle id="Ellipse_605" cx="1.433" cy="1.433" r="1.433" class="cls-10" transform="translate(.463 .409)"/>
                <circle id="Ellipse_606" cx=".614" cy=".614" r=".614" class="cls-10" transform="translate(2.919 3.274)"/>
            </g>
            <path id="Path_3275" fill="none" stroke="#ccdbe8" stroke-linecap="round" d="M6438.839 233.6s6.754-7.6 14.135 0" transform="translate(-6419.514 -206.355)"/>
            <ellipse id="Ellipse_608" cx="2.806" cy="1.978" class="cls-8" rx="2.806" ry="1.978" transform="rotate(-39 78.621 -2.02)"/>
            <g id="Group_11024" transform="translate(28.995 15.894)">
                <path id="Path_3274-2" d="M2.517 0A2.517 2.517 0 1 1 0 2.517 2.517 2.517 0 0 1 2.517 0z" class="cls-9"/>
                <circle id="Ellipse_605-2" cx="1.433" cy="1.433" r="1.433" class="cls-10" transform="translate(.433 .409)"/>
                <circle id="Ellipse_606-2" cx=".614" cy=".614" r=".614" class="cls-10" transform="translate(2.889 3.274)"/>
            </g>
        </g>
        <path id="Path_2815" d="M1.162 6.7a1.154 1.154 0 0 0 1.163-1.158v-4.38A1.154 1.154 0 0 0 1.162 0 1.154 1.154 0 0 0 0 1.162v4.353A1.177 1.177 0 0 0 1.162 6.7z" class="cls-3" transform="rotate(20 -2416.9 3012.13)"/>
        <path id="Path_3283" d="M1.162 6.7a1.154 1.154 0 0 0 1.163-1.158v-4.38A1.154 1.154 0 0 0 1.162 0 1.154 1.154 0 0 0 0 1.162v4.353A1.177 1.177 0 0 0 1.162 6.7z" class="cls-3" transform="rotate(-3 19678.811 -16279.436)"/>
        <path id="Path_2817" d="M.734 6.288a1.263 1.263 0 0 0 .46.081 1.166 1.166 0 0 0 1.081-.73l1.676-4.028A1.193 1.193 0 0 0 3.329.07a1.254 1.254 0 0 0-1.568.676L.085 4.774a1.165 1.165 0 0 0 .649 1.514z" class="cls-3" transform="rotate(36 -1111.953 1871.355)"/>
    </g>
</svg>
