<svg xmlns="http://www.w3.org/2000/svg" width="120" height="120" viewBox="0 0 120 120">
    <defs>
        <style>
            .cls-1{fill:none}.cls-2{fill:#e7f2fd}.cls-4{fill:#e2eefa}.cls-6,.cls-7,.cls-8{fill:#ccdbe8}.cls-6{stroke:#ccdbe8}.cls-8,.cls-9{opacity:.965}.cls-9{fill:#fff}.cls-11{stroke:none}
        </style>
    </defs>
    <g id="Group_11055" data-name="Group 11055" transform="translate(-775 -543)">
        <g id="Group_11041" data-name="Group 11041" transform="translate(44 344)">
            <path id="Rectangle_2261" d="M0 0H120V120H0z" class="cls-1" data-name="Rectangle 2261" transform="translate(731 199)"/>
            <g id="Group_11029" data-name="Group 11029" transform="translate(24.186 82.153)">
                <g id="Group_11018" data-name="Group 11018" transform="translate(723.36 132)">
                    <path id="Path_3271" d="M-20118.9-2541.817l1.457-14.82a3.973 3.973 0 0 1 1.025-1.5 3.864 3.864 0 0 1 1.668-.68h23.465a5.2 5.2 0 0 1 1.957 1.089 4.263 4.263 0 0 1 .971 1.861v3.215h44.457a7.064 7.064 0 0 1 2.633.784 3.382 3.382 0 0 1 1.3 1.75l-3.93 52.985a6.265 6.265 0 0 1-1.205 2.568 4.9 4.9 0 0 1-2.3 1.256z" class="cls-2" data-name="Path 3271" transform="translate(20128.141 2558.82)"/>
                    <path id="Path_3272" fill="#eff6fc" d="M-20118.2-2538.776l69.563.033a4.837 4.837 0 0 1 2.311.851 5.913 5.913 0 0 1 1.508 2.141l2.922 21.679-1.818 25.346a6.833 6.833 0 0 1-.838 2.381 3.842 3.842 0 0 1-1.775 1.37 3.529 3.529 0 0 1-.842.326 2.015 2.015 0 0 1-.758 0l-70.613-50.82z" data-name="Path 3272" transform="translate(20127.982 2550.159)"/>
                    <path id="Path_3270" d="M-20135.166-2529.832a5.746 5.746 0 0 1 1.146-2.323 3.13 3.13 0 0 1 1.979-.781h71.129a5.516 5.516 0 0 1 2.895.743 3.622 3.622 0 0 1 1.088 2.361l4.215 43.776a5.011 5.011 0 0 1-.494 2.638 3.588 3.588 0 0 1-2.055 1.252h-72.549a4.223 4.223 0 0 1-2.285-1.223 5.4 5.4 0 0 1-.873-2.667z" class="cls-2" data-name="Path 3270" transform="translate(20135.166 2547.637)"/>
                </g>
                <g id="Group_11020" data-name="Group 11020" transform="translate(715.822 173.36)">
                    <path id="Path_3273" d="M6352.137 228.561s.421-7.611 2.847-12.87a22.318 22.318 0 0 1 6.494-8.152v-2.172a23.864 23.864 0 0 0-7.935 8.923c-2.829 5.772-3.016 14.27-3.016 14.27z" class="cls-4" data-name="Path 3273" transform="translate(-6348.221 -205.368)"/>
                    <ellipse id="Ellipse_603" cx="3.294" cy="4.705" class="cls-4" data-name="Ellipse 603" rx="3.294" ry="4.705" transform="translate(0 20.683)"/>
                </g>
                <g id="Group_11021" data-name="Group 11021" transform="translate(803.899 173.36)">
                    <path id="Path_3273-2" d="M6359.868 228.561s-.421-7.611-2.848-12.87a22.314 22.314 0 0 0-6.494-8.152v-2.172a23.864 23.864 0 0 1 7.935 8.923c2.829 5.772 3.016 14.27 3.016 14.27z" class="cls-4" data-name="Path 3273" transform="translate(-6350.527 -205.368)"/>
                    <ellipse id="Ellipse_603-2" cx="3.294" cy="4.705" class="cls-4" data-name="Ellipse 603" rx="3.294" ry="4.705" transform="translate(7.101 22.565)"/>
                </g>
                <ellipse id="Ellipse_607" cx="39" cy="4.5" fill="#d7e8f7" data-name="Ellipse 607" opacity="0.4" rx="39" ry="4.5" transform="translate(727.814 223.847)"/>
                <g id="Group_11022" data-name="Group 11022" transform="translate(768.701 196.934)">
                    <g id="Rectangle_2262" class="cls-6" data-name="Rectangle 2262">
                        <path d="M0 0H3V24H0z" class="cls-11" transform="translate(3.113 -.087)"/>
                        <path d="M0.5 0.5H2.5V23.5H0.5z" class="cls-1" transform="translate(3.113 -.087)"/>
                    </g>
                    <ellipse id="Ellipse_604" cx="5.225" cy="3.684" class="cls-7" data-name="Ellipse 604" rx="5.225" ry="3.684" transform="rotate(-141 9.744 14.612)"/>
                </g>
                <g id="Group_11023" data-name="Group 11023" transform="translate(758.593 197.497)">
                    <g id="Rectangle_2262-2" class="cls-6" data-name="Rectangle 2262">
                        <path d="M0 0H2.414V24.137H0z" class="cls-11"/>
                        <path d="M0.5 0.5H1.914V23.637H0.5z" class="cls-1"/>
                    </g>
                </g>
                <path id="Path_3276" d="M20.1 6.843l25.23.057s.237.216.471.44a27.841 27.841 0 0 1 8.444 20.124c0 15.367-12.219 27.824-27.291 27.824-6.33 0-17.283-6.261-17.283-6.261l-2.152-20.64-1.48-16.326-.164-1.791a2.5 2.5 0 0 1 .5-1.819c.673-.875.728-1.207 4.159-1.609a70.428 70.428 0 0 1 9.566.001z" class="cls-4" data-name="Path 3276" transform="translate(717.527 139.699)"/>
                <g id="Group_11025" data-name="Group 11025" transform="translate(746.891 161.6)">
                    <path id="Path_3274" d="M4.687 0A4.687 4.687 0 1 1 0 4.687 4.687 4.687 0 0 1 4.687 0z" class="cls-8" data-name="Path 3274"/>
                    <ellipse id="Ellipse_605" cx="2.5" cy="3" class="cls-9" data-name="Ellipse 605" rx="2.5" ry="3" transform="translate(.923 .247)"/>
                    <circle id="Ellipse_606" cx="1" cy="1" r="1" class="cls-9" data-name="Ellipse 606" transform="translate(5.923 6.247)"/>
                </g>
                <path id="Path_3275" fill="none" stroke="#ccdbe8" stroke-linecap="round" d="M6438.839 236.509s12.578-14.155 26.325 0" data-name="Path 3275" transform="translate(-5687.026 -53.777)"/>
                <ellipse id="Ellipse_608" cx="5.225" cy="3.684" class="cls-7" data-name="Ellipse 608" rx="5.225" ry="3.684" transform="rotate(-39 690.711 -948.471)"/>
                <g id="Group_11024" data-name="Group 11024" transform="translate(769.821 161.6)">
                    <path id="Path_3274-2" d="M4.687 0A4.687 4.687 0 1 1 0 4.687 4.687 4.687 0 0 1 4.687 0z" class="cls-8" data-name="Path 3274"/>
                    <ellipse id="Ellipse_605-2" cx="2" cy="3" class="cls-9" data-name="Ellipse 605" rx="2" ry="3" transform="translate(.993 .247)"/>
                    <ellipse id="Ellipse_606-2" cx="1.5" cy="1" class="cls-9" data-name="Ellipse 606" rx="1.5" ry="1" transform="translate(4.993 6.247)"/>
                </g>
            </g>
        </g>
        <path id="Path_3284" d="M1.841 10.615a1.827 1.827 0 0 0 1.84-1.84V1.841A1.827 1.827 0 0 0 1.841 0 1.827 1.827 0 0 0 0 1.841v6.891a1.864 1.864 0 0 0 1.841 1.883z" class="cls-2" data-name="Path 3284" transform="rotate(20 -1120.071 2774.456)"/>
        <path id="Path_3285" d="M1.841 10.615a1.827 1.827 0 0 0 1.84-1.84V1.841A1.827 1.827 0 0 0 1.841 0 1.827 1.827 0 0 0 0 1.841v6.891a1.864 1.864 0 0 0 1.841 1.883z" class="cls-2" data-name="Path 3285" transform="rotate(-3 10927.292 -16388.055)"/>
        <path id="Path_3286" d="M1.162 9.956a2 2 0 0 0 .728.128A1.846 1.846 0 0 0 3.6 8.929l2.656-6.378A1.888 1.888 0 0 0 5.271.112a1.985 1.985 0 0 0-2.483 1.07L.135 7.559a1.845 1.845 0 0 0 1.027 2.397z" class="cls-2" data-name="Path 3286" transform="rotate(36 -410.935 1641.848)"/>
    </g>
</svg>
