<svg xmlns="http://www.w3.org/2000/svg" width="120" height="120" viewBox="0 0 120 120">
    <defs>
        <style>
            .cls-2{fill:#e5ecf3}
        </style>
    </defs>
    <g id="Group_10951" data-name="Group 10951" transform="translate(-1242 -191)">
        <g id="Group_10950" data-name="Group 10950" transform="translate(-2)">
            <path id="Rectangle_2252" fill="none" d="M0 0H120V120H0z" data-name="Rectangle 2252" transform="translate(1244 191)"/>
            <g id="search_2_" data-name="search (2)" transform="translate(1250 190)">
                <path id="Path_3244" d="M101.152 95.769l-22.2-22.2a38.015 38.015 0 1 0-5.364 5.4l22.184 22.184a3.806 3.806 0 0 0 5.383-5.383zM18.6 49.315a30.7 30.7 0 1 1 30.7 30.7 30.7 30.7 0 0 1-30.7-30.7z" class="cls-2" data-name="Path 3244"/>
            </g>
            <g id="Group_10947" data-name="Group 10947" transform="translate(479.738 -507.751)">
                <path id="Path_3226" d="M277.665 224.088a.852.852 0 1 1-.851-.851.851.851 0 0 1 .851.851z" class="cls-2" data-name="Path 3226" transform="translate(528.016 573.784)"/>
                <path id="Path_3229" d="M405.53 199.885l-.778-.417a.28.28 0 0 1-.114-.114l-.417-.778a.28.28 0 0 0-.493 0l-.417.778a.282.282 0 0 1-.114.114l-.778.417a.28.28 0 0 0 0 .493l.778.417a.28.28 0 0 1 .114.114l.417.778a.28.28 0 0 0 .493 0l.417-.778a.278.278 0 0 1 .114-.114l.778-.417a.28.28 0 0 0 0-.493z" class="cls-2" data-name="Path 3229" transform="translate(433.572 596.624)"/>
                <path id="Path_3230" d="M243.215 192.051l-.712-.382a.258.258 0 0 1-.1-.1l-.382-.712a.256.256 0 0 0-.451 0l-.382.712a.257.257 0 0 1-.1.1l-.712.382a.256.256 0 0 0 0 .452l.712.382a.257.257 0 0 1 .1.1l.382.712a.256.256 0 0 0 .451 0l.382-.712a.258.258 0 0 1 .1-.1l.712-.382a.257.257 0 0 0 0-.452z" class="cls-2" data-name="Path 3230" transform="translate(550.441 594.193)"/>
                <path id="Path_3231" d="M372.248 180.733l-.521-.28a.187.187 0 0 1-.077-.076l-.279-.521a.188.188 0 0 0-.331 0l-.279.521a.187.187 0 0 1-.077.076l-.521.28a.187.187 0 0 0 0 .33l.521.279a.188.188 0 0 1 .077.077l.279.521a.188.188 0 0 0 .331 0l.279-.521a.188.188 0 0 1 .077-.077l.521-.279a.187.187 0 0 0 0-.33z" class="cls-2" data-name="Path 3231" transform="translate(468.959 601.072)"/>
            </g>
            <g id="noun_cancel_1146436" transform="translate(1253.176 277.174)">
                <path id="Path_2815" d="M64.841 60.753a1.881 1.881 0 0 1 0 2.725l-1.362 1.362a1.881 1.881 0 0 1-2.725 0L49.562 53.65 38.371 64.841a1.881 1.881 0 0 1-2.725 0l-1.362-1.362a1.881 1.881 0 0 1 0-2.725l11.191-11.192-11.191-11.191a1.881 1.881 0 0 1 0-2.725l1.362-1.362a1.881 1.881 0 0 1 2.725 0l11.191 11.191 11.191-11.191a1.881 1.881 0 0 1 2.725 0l1.362 1.362a1.881 1.881 0 0 1 0 2.725L53.65 49.562z" class="cls-2" data-name="Path 2815" transform="translate(-3.213 -87.213)"/>
            </g>
        </g>
        <ellipse id="Ellipse_593" cx="41.5" cy="4" fill="#eff6fc" data-name="Ellipse 593" rx="41.5" ry="4" transform="translate(1261 290)"/>
    </g>
</svg>
