<svg width="16" height="16" viewBox="0 0 16 16" fill="none" xmlns="http://www.w3.org/2000/svg">
<rect x="2.11719" y="2.82422" width="1" height="15.4466" rx="0.5" transform="rotate(-45 2.11719 2.82422)" fill="#2E3F55"/>
<path fill-rule="evenodd" clip-rule="evenodd" d="M10.9534 1C12.0291 1 13.048 1.41514 13.8217 2.18885L13.8217 2.18889C14.5766 2.94379 14.9918 3.96271 14.9916 5.03824C14.9916 6.11391 14.5575 7.1518 13.8028 7.90654L12.2366 9.47276C12.2272 9.48211 12.217 9.49117 12.2061 9.49986L11.5587 8.85249C11.5699 8.83866 11.582 8.82523 11.595 8.81224L13.1612 7.24602C13.7462 6.66104 14.067 5.86853 14.067 5.03821C14.067 4.20789 13.7462 3.41534 13.1612 2.8304C12.5763 2.22651 11.7837 1.90573 10.9534 1.90573C10.1231 1.90573 9.33056 2.24546 8.74562 2.8304L7.1794 4.39663C7.16579 4.40886 7.1516 4.42021 7.13692 4.43069L6.49129 3.78505C6.49989 3.77487 6.50908 3.76487 6.51887 3.75507L8.08509 2.18885C8.8588 1.41514 9.87772 1 10.9534 1ZM7.99569 7.36678L5.87434 9.48813C5.77996 9.5825 5.74219 9.6957 5.74219 9.8089C5.74219 9.9221 5.79879 10.0543 5.87434 10.1297C5.94977 10.2051 6.08192 10.2618 6.19512 10.2618C6.30832 10.2618 6.44047 10.2052 6.51589 10.1297L8.63724 8.00833L7.99569 7.36678ZM9.6759 6.96967L11.2146 5.43101C11.4032 5.26121 11.4032 4.9782 11.2334 4.78946H11.2335C11.0637 4.61966 10.7618 4.61966 10.573 4.78946L9.03435 6.32812L9.6759 6.96967ZM7.28393 13.1545L8.85015 11.5883C9.03878 11.3995 9.32186 11.3994 9.49166 11.5882C9.68042 11.777 9.68042 12.06 9.49166 12.2487L7.92544 13.8149C7.17057 14.5698 6.13281 15.0038 5.05715 15.0038C3.98148 15.0038 2.94359 14.5697 2.18885 13.8149C1.43398 13.0601 1 12.0223 1 10.9466C1 9.87097 1.43411 8.83308 2.18885 8.07834L3.75507 6.51212C3.94384 6.34232 4.2458 6.34232 4.4156 6.51212C4.60435 6.70089 4.60435 6.98388 4.4156 7.17264L2.84938 8.73886C2.26442 9.32383 1.94364 10.0975 1.94364 10.9467C1.94364 11.7769 2.2644 12.5695 2.86831 13.1545C3.45329 13.7584 4.2458 14.0791 5.07612 14.0791C5.90644 14.0791 6.69899 13.7394 7.28393 13.1545Z" fill="#2E3F55"/>
</svg>
