<svg xmlns="http://www.w3.org/2000/svg" width="12.876" height="14.733" viewBox="0 0 12.876 14.733">
  <defs>
    <style>
      .cls-1 {
        fill: #f3920d;
      }
    </style>
  </defs>
  <g id="Group_2223" data-name="Group 2223" transform="translate(-307.001 -565)">
    <path id="Path_1209" data-name="Path 1209" class="cls-1" d="M735.237,397.657c-.255-.037-.513-.062-.766-.112a6.292,6.292,0,0,1-4.5-3.3,6.148,6.148,0,0,1-.5-4.8,6.455,6.455,0,0,1,5.7-4.626v-.97c-.068,0-.134,0-.2,0a.459.459,0,0,1-.449-.453.454.454,0,0,1,.452-.463q.669-.009,1.338,0a.453.453,0,0,1,.45.451.461.461,0,0,1-.437.464c-.066,0-.134,0-.212,0v.967a6.478,6.478,0,0,1,4.294,2.1l.706-.731a.468.468,0,0,1,.4-.161.435.435,0,0,1,.387.3.442.442,0,0,1-.113.489c-.233.235-.469.467-.7.7a1.06,1.06,0,0,1-.1.082c.2.393.41.75.573,1.125A6.1,6.1,0,0,1,742,392.1a6.319,6.319,0,0,1-3.221,4.73,6.085,6.085,0,0,1-2.615.8,1.045,1.045,0,0,0-.126.024Zm5.915-6.431a5.51,5.51,0,1,0-5.507,5.51A5.532,5.532,0,0,0,741.152,391.226Z" transform="translate(-422.195 182.076)"/>
    <path id="Path_1210" data-name="Path 1210" class="cls-1" d="M744.823,399.036c.443,0,.865,0,1.286,0a.458.458,0,0,1,.475.559.442.442,0,0,1-.43.357c-.6,0-1.207.006-1.812,0a.445.445,0,0,1-.438-.46c-.006-.3,0-.594,0-.891q0-1.236,0-2.473a.461.461,0,1,1,.919-.01q0,1.373,0,2.746Z" transform="translate(-430.918 174.542)"/>
  </g>
</svg>
