<svg xmlns="http://www.w3.org/2000/svg" id="noun_digital_3194273" width="10.32" height="10.535" viewBox="0 0 10.32 10.535">
    <defs>
        <style>
            .cls-1{fill:#d0131d}
        </style>
    </defs>
    <g id="Group_3673">
        <g id="Group_3667" transform="translate(0 4.553)">
            <path id="Path_1818" d="M9.416 40.865a.245.245 0 0 0 0-.49H7.679a.815.815 0 0 0-.771-.575.808.808 0 1 0 .771 1.04h1.737z" class="cls-1" transform="translate(-6.1 -39.8)"/>
        </g>
        <g id="Group_3668" transform="translate(4.364)">
            <path id="Path_1819" d="M44.047 4.179v1.75a.245.245 0 1 0 .49 0v-1.75a.815.815 0 0 0 .575-.771.808.808 0 1 0-1.615 0 .79.79 0 0 0 .55.771z" class="cls-1" transform="translate(-43.496 -2.6)"/>
        </g>
        <g id="Group_3669" transform="translate(6.759 4.565)">
            <path id="Path_1820" d="M67.566 39.9a.8.8 0 0 0-.771.575h-1.75a.245.245 0 0 0 0 .49h1.738a.815.815 0 0 0 .771.575.807.807 0 0 0 .808-.808.8.8 0 0 0-.796-.832z" class="cls-1" transform="translate(-64.8 -39.9)"/>
        </g>
        <g id="Group_3670" transform="translate(6.159 1.334)">
            <path id="Path_1821" d="M60.145 16.327a.242.242 0 0 0 .171-.073l1.236-1.236a.8.8 0 0 0 .379.1.808.808 0 1 0-.808-.808.833.833 0 0 0 .1.379l-1.248 1.224a.237.237 0 0 0 0 .343.205.205 0 0 0 .17.071z" class="cls-1" transform="translate(-59.9 -13.5)"/>
        </g>
        <g id="Group_3671" transform="translate(1.334 1.322)">
            <path id="Path_1822" d="M17.808 15.028a.833.833 0 0 0 .379-.1l1.224 1.236a.237.237 0 0 0 .343 0 .237.237 0 0 0 0-.343l-1.236-1.236a.8.8 0 0 0 .1-.379.808.808 0 1 0-1.615 0 .817.817 0 0 0 .805.822z" class="cls-1" transform="translate(-17 -13.4)"/>
        </g>
        <g id="Group_3672" transform="translate(2.966 4.024)">
            <path id="Path_1823" d="M37.671 47.192a.5.5 0 0 0-.453.257v-.012a.543.543 0 0 0-.538-.538.519.519 0 0 0-.453.257v-.024a.543.543 0 0 0-.538-.538.519.519 0 0 0-.453.257v-1.813a.543.543 0 0 0-.536-.538.543.543 0 0 0-.538.538v3.329a.067.067 0 0 1-.049.073.075.075 0 0 1-.086-.012l-.551-.538a.538.538 0 0 0-.685-.061.564.564 0 0 0-.233.379.555.555 0 0 0 .122.428l1.358 1.64a2.011 2.011 0 0 0 1.554.734h.844a1.8 1.8 0 0 0 1.264-.51 1.777 1.777 0 0 0 .514-1.261v-1.484a.541.541 0 0 0-.543-.563z" class="cls-1" transform="translate(-32.549 -44.5)"/>
        </g>
    </g>
</svg>
