<svg xmlns="http://www.w3.org/2000/svg" width="16" height="16" viewBox="0 0 16 16">
    <g>
        <path fill="none" d="M0 0H16V16H0z" transform="translate(-247 -346) translate(247 346)"/>
        <g>
            <g>
                <g>
                    <path fill="#4c698d" d="M18.55 248.591a1.372 1.372 0 0 0-1.384-1.4H3.934a1.372 1.372 0 0 0-1.384 1.4v8.55a1.372 1.372 0 0 0 1.384 1.4h13.232a1.372 1.372 0 0 0 1.384-1.4zm-14.486 1a.668.668 0 0 1 .649-.654h7.351a.654.654 0 0 1 0 1.309H4.712a.668.668 0 0 1-.648-.652zm8.346 7.677a2.224 2.224 0 0 1-2.205-2.225 2.187 2.187 0 0 1 2.205-2.181 2.224 2.224 0 0 1 2.205 2.225 2.187 2.187 0 0 1-2.206 2.185zm4.757-2.181a2.224 2.224 0 0 1-2.205 2.225 1.46 1.46 0 0 1-.432-.044 3.007 3.007 0 0 0 .865-2.181 3.193 3.193 0 0 0-.865-2.181 1.322 1.322 0 0 1 .432-.044 2.2 2.2 0 0 1 2.204 2.229z" transform="translate(-247 -346) translate(244.45 323.261) translate(2.55 24.739) translate(-2.55 -247.195)"/>
                </g>
            </g>
        </g>
    </g>
</svg>
