<svg xmlns="http://www.w3.org/2000/svg" id="pdf_1_" width="22" height="22" viewBox="0 0 22 22">
    <defs>
        <style>
            .cls-1{fill:#cd2d2f}
        </style>
    </defs>
    <path id="Path_6668" d="M106.88 0H91.923A1.931 1.931 0 0 0 90 1.934V3.91h14.7a2.833 2.833 0 0 1 2.823 2.838v8.5a2.833 2.833 0 0 1-2.823 2.842H90v1.977A1.931 1.931 0 0 0 91.923 22h14.957a1.931 1.931 0 0 0 1.923-1.934V1.934A1.931 1.931 0 0 0 106.88 0zm0 0" class="cls-1" transform="translate(-86.803)"/>
    <path id="Path_6669" d="M269.194 263.75h-.444v4h.444a1.111 1.111 0 0 0 1.11-1.11v-1.78a1.111 1.111 0 0 0-1.11-1.11zm0 0" class="cls-1" transform="translate(-259.534 -254.748)"/>
    <path id="Path_6670" d="M113.166 263.75h-.666v1.776h.666a.888.888 0 1 0 0-1.776zm0 0" class="cls-1" transform="translate(-108.642 -254.709)"/>
    <path id="Path_6671" d="M19.336 161v-8.25a1.525 1.525 0 0 0-1.542-1.5H1.542A1.525 1.525 0 0 0 0 152.753V161a1.525 1.525 0 0 0 1.542 1.5h16.252a1.525 1.525 0 0 0 1.542-1.5zm-14.844-3.08H3.85v1.459a.642.642 0 0 1-1.283 0v-5a.634.634 0 0 1 .642-.625h1.283a2.085 2.085 0 1 1 0 4.169zm7.486-.208A2.326 2.326 0 0 1 9.625 160H8.556a.634.634 0 0 1-.642-.625v-5a.634.634 0 0 1 .642-.625h1.069a2.326 2.326 0 0 1 2.353 2.293zm4.15-2.71h-1.583v1.251h1.283a.626.626 0 1 1 0 1.251h-1.283v1.876a.642.642 0 0 1-1.283 0v-5a.634.634 0 0 1 .642-.625h2.225a.626.626 0 1 1 0 1.251zm0 0" class="cls-1" transform="translate(0 -145.878)"/>
</svg>
