<svg xmlns="http://www.w3.org/2000/svg" width="23.66" height="23.451" viewBox="0 0 23.66 23.451">
  <defs>
    <style>
      .cls-1 {
        fill: #fff;
      }
    </style>
  </defs>
  <g id="chronometer-outline" transform="translate(0.355 1.055)">
    <g id="Group_25" data-name="Group 25" transform="translate(-0.356 0.192)">
      <g id="Group_24" data-name="Group 24">
        <path id="Path_39" data-name="Path 39" class="cls-1" d="M21.66,18.852a1.706,1.706,0,0,0,3.227.778l0,0L28.014,14l-5.482,3.362.005.005A1.7,1.7,0,0,0,21.66,18.852Z" transform="translate(-12.805 -7.247)"/>
        <path id="Path_40" data-name="Path 40" class="cls-1" d="M32.9,2.849A10.867,10.867,0,0,0,26.291.192v2.6a7.372,7.372,0,0,1,4.7,1.891Z" transform="translate(-14.178 -1.192)"/>
        <path id="Path_41" data-name="Path 41" class="cls-1" d="M41.8,14.858h2.6A10.458,10.458,0,0,0,41.639,8.4L39.8,10.226A8.3,8.3,0,0,1,41.8,14.858Z" transform="translate(-21.398 -5.431)"/>
        <path id="Path_42" data-name="Path 42" class="cls-1" d="M20.834,12.444a8.96,8.96,0,0,1-8.922,8.392,9.075,9.075,0,0,1-9.1-8.929,9.121,9.121,0,0,1,8.1-8.893V.193A11.692,11.692,0,0,0,0,11.919,11.812,11.812,0,0,0,11.837,23.644a11.954,11.954,0,0,0,11.822-11.2H20.834Z" transform="translate(0 -1.44)"/>
      </g>
    </g>
  </g>
</svg>
