<svg xmlns="http://www.w3.org/2000/svg" width="46.643" height="43.8" viewBox="0 0 46.643 43.8">
  <defs>
    <style>
      .cls-1 {
        opacity: 0.4;
      }

      .cls-2, .cls-3, .cls-4 {
        fill: #879ea7;
      }

      .cls-2, .cls-4 {
        stroke: #fff;
        stroke-miterlimit: 10;
      }

      .cls-2 {
        stroke-width: 0.5px;
      }

      .cls-4 {
        stroke-width: 0.8px;
      }
    </style>
  </defs>
  <g id="Group_1955" data-name="Group 1955" class="cls-1" transform="translate(-143.6 -674.6)">
    <path id="Path_1350" data-name="Path 1350" class="cls-2" d="M436.97,636.456a3.742,3.742,0,1,0,3.742,3.742A3.752,3.752,0,0,0,436.97,636.456Zm0,5.206a1.471,1.471,0,1,1,1.465-1.464,1.47,1.47,0,0,1-1.465,1.464Z" transform="translate(-274.522 51.713)"/>
    <path id="Path_1351" data-name="Path 1351" class="cls-2" d="M442.825,643.264a3.841,3.841,0,0,0-2.646,1.109,3.732,3.732,0,1,0,2.646-1.109Zm0,5.22a1.471,1.471,0,1,1,1.465-1.465A1.461,1.461,0,0,1,442.825,648.484Z" transform="translate(-271.416 55.317)"/>
    <g id="Group_2144" data-name="Group 2144" transform="translate(144 675)">
      <path id="Path_1352" data-name="Path 1352" class="cls-3" d="M447.906,637.381l-11.729,17.983a1.146,1.146,0,0,1-.714.493,1.7,1.7,0,0,1-.234.024,1.153,1.153,0,0,1-.627-.185,1.252,1.252,0,0,1-.492-.727,1.1,1.1,0,0,1,.171-.849l4.8-7.362L446,636.137a1.076,1.076,0,0,1,1.022-.517,1.117,1.117,0,0,1,.948.615A1.157,1.157,0,0,1,447.906,637.381Z" transform="translate(-418.061 -623.732)"/>
      <path id="Path_1353" data-name="Path 1353" class="cls-4" d="M462.451,670.846H430.61a7.009,7.009,0,0,1-7-7v-29a7.01,7.01,0,0,1,7-7h31.841a7.009,7.009,0,0,1,7,7v29A7.008,7.008,0,0,1,462.451,670.846ZM430.61,630.9a3.946,3.946,0,0,0-3.943,3.943v29a3.946,3.946,0,0,0,3.943,3.941h31.841a3.946,3.946,0,0,0,3.941-3.941v-29a3.946,3.946,0,0,0-3.941-3.943Z" transform="translate(-423.608 -627.846)"/>
    </g>
  </g>
</svg>
