<svg xmlns="http://www.w3.org/2000/svg" width="15" height="14.321" viewBox="0 0 15 14.321">
  <defs>
    <style>
      .cls-1 {
        fill: #a7b7c6;
      }
    </style>
  </defs>
  <g id="telephone" transform="translate(0 -13.854)">
    <path id="Path_307" data-name="Path 307" class="cls-1" d="M14.386,19.789a1.57,1.57,0,0,0-.6-.39c.265-1.539.216-2.4-6.045-4.371C1.367,13.022.655,13.854.13,15.521l-.09.284A.856.856,0,0,0,.6,16.879l2.044.644a.856.856,0,0,0,1.074-.56l.09-.284c.407-1.291,2.4-.708,3.524-.354s3.092,1.017,2.685,2.308l-.09.284a.856.856,0,0,0,.56,1.074l2.044.644a.856.856,0,0,0,1.074-.56l.058-.2a1.081,1.081,0,0,1,.371.25,3.055,3.055,0,0,1,.413,2.49c-.278,2.05-1.084,2.783-1.942,3.026v-.357a2.043,2.043,0,0,0-.274-1.034,13.222,13.222,0,0,0-3.618-3.912v-.866a.123.123,0,0,0-.122-.122H7.22a.122.122,0,0,0-.122.122v.861H5.647v-.861a.123.123,0,0,0-.122-.122H4.252a.123.123,0,0,0-.122.122v.861A13.24,13.24,0,0,0,.507,24.255a2.043,2.043,0,0,0-.274,1.034v.806a2.08,2.08,0,0,0,2.08,2.08h8.112A2.078,2.078,0,0,0,12.5,26.148c1.375-.322,2.156-1.444,2.429-3.464A3.433,3.433,0,0,0,14.386,19.789ZM8.494,25.31l-.816-.291a1.3,1.3,0,1,0-.447.508l.448.736a2.166,2.166,0,1,1,.816-.954Z" transform="translate(0 0)"/>
  </g>
</svg>
