<svg xmlns="http://www.w3.org/2000/svg" width="40" height="34.47" viewBox="0 0 40 34.47">
    <defs>
        <style>
            .cls-1{fill:#0396fd}.cls-2{fill:#0077f0}.cls-3{fill:#c9f0ff}.cls-4{fill:#9ae7fd}.cls-5{fill:#80e0dc}.cls-6{fill:#00a8b0}.cls-7{fill:#ffd86e}.cls-8{fill:#ffb509}
        </style>
    </defs>
    <g id="picture_1_" data-name="picture (1)" transform="translate(.001)">
        <path id="Path_320" d="M31.864 87.4H2.387A2.376 2.376 0 0 1 0 85.031v-23.76a2.376 2.376 0 0 1 2.387-2.365h29.477a2.376 2.376 0 0 1 2.387 2.365v23.76a2.376 2.376 0 0 1-2.387 2.369zm0 0" class="cls-1" data-name="Path 320" transform="translate(0 -52.926)"/>
        <path id="Path_321" d="M398.622 61.272v23.76c0 1.306-1.442 2.365-3.221 2.365h-3.19c1.779 0 3.222-1.058 3.222-2.365v-23.76c0-1.306-1.443-2.365-3.222-2.365h3.19c1.779-.001 3.221 1.059 3.221 2.365zm0 0" class="cls-2" data-name="Path 321" transform="translate(-364.371 -52.926)"/>
        <path id="Path_322" d="M88.5 28.494H59.02a2.376 2.376 0 0 1-2.387-2.365V2.369A2.376 2.376 0 0 1 59.02 0H88.5a2.376 2.376 0 0 1 2.387 2.365v23.764a2.376 2.376 0 0 1-2.387 2.365zm0 0" class="cls-3" data-name="Path 322" transform="translate(-50.884 -.004)"/>
        <path id="Path_323" d="M455.255 2.365v23.76c0 1.306-1.442 2.365-3.221 2.365h-3.19c1.779 0 3.222-1.058 3.222-2.365V2.365c0-1.306-1.443-2.365-3.222-2.365h3.19c1.779 0 3.221 1.059 3.221 2.365zm0 0" class="cls-4" data-name="Path 323" transform="translate(-415.255)"/>
        <path id="Path_324" d="M90.884 154.659L82.1 141.305a.325.325 0 0 0-.565-.023l-5.25 7.082-6.773-10.3a.325.325 0 0 0-.565-.023l-12.314 16.618v4.819c0 1.779 1.069 3.222 2.387 3.222H88.5c1.318 0 2.387-1.443 2.387-3.222zm0 0" class="cls-5" data-name="Path 324" transform="translate(-50.884 -134.21)"/>
        <path id="Path_325" d="M455.255 271.3v4.819a3.221 3.221 0 0 1-3.221 3.221h-3.19a3.222 3.222 0 0 0 3.222-3.221v-8.412zm0 0" class="cls-6" data-name="Path 325" transform="translate(-415.255 -250.85)"/>
        <path id="Path_326" d="M383.649 55.29a4.614 4.614 0 1 1-4.614-4.614 4.614 4.614 0 0 1 4.614 4.614zm0 0" class="cls-7" data-name="Path 326" transform="translate(-348.388 -45.531)"/>
        <path id="Path_327" d="M395.252 58.35a4.613 4.613 0 0 1-7.916 3.221 4.614 4.614 0 0 0 5.057-7.489 4.615 4.615 0 0 1 2.859 4.268zm0 0" class="cls-8" data-name="Path 327" transform="translate(-359.991 -48.592)"/>
    </g>
</svg>
