<svg xmlns="http://www.w3.org/2000/svg" width="40" height="32" viewBox="0 0 40 32">
    <defs>
        <style>
            .cls-2{stroke:#fff;fill:#dc67ce;stroke-width:.2px}.cls-3{fill:#fff}
        </style>
    </defs>
    <g id="PO_Created" transform="translate(-1380 -534)">
        <g id="Group_12027" transform="translate(16.6 281)">
            <g id="Group_12016" transform="translate(1366.4 254)">
                <path id="Path_4042" fill="#6771dc" stroke="#fff" d="M50.566 55.8H31.99A1.923 1.923 0 0 1 30 53.949v-22.17a1.923 1.923 0 0 1 1.99-1.848h18.576a1.923 1.923 0 0 1 1.99 1.848v22.17a1.923 1.923 0 0 1-1.99 1.851z" transform="translate(-30 -28.318)"/>
                <path id="Path_4048" d="M73.85 54.76l-1.563-1.56a.834.834 0 0 1 1.176-1.18l.975.975 2.018-2.013a.834.834 0 0 1 1.176 1.18l-2.6 2.6a.834.834 0 0 1-1.18 0z" class="cls-2" transform="translate(-69.214 -43.604)"/>
                <path id="Path_4988" d="M73.85 54.76l-1.563-1.56a.834.834 0 0 1 1.176-1.18l.975.975 2.018-2.013a.834.834 0 0 1 1.176 1.18l-2.6 2.6a.834.834 0 0 1-1.18 0z" class="cls-2" transform="translate(-69.214 -37.115)"/>
                <path id="Path_4371" d="M46.358 71.327H42.4c-.219 0-.4-.3-.4-.663s.177-.663.4-.663h3.961c.219 0 .4.3.4.663s-.185.663-.403.663z" class="cls-3" transform="translate(-31.841 -63.318)"/>
                <path id="Path_4987" d="M46.358 71.327H42.4c-.219 0-.4-.3-.4-.663s.177-.663.4-.663h3.961c.219 0 .4.3.4.663s-.185.663-.403.663z" class="cls-3" transform="translate(-31.841 -58.773)"/>
                <g id="Path_4984" fill="#6771dc" stroke="none">
                    <path d="M30.44 34.893H19.034C17.36 34.893 16 33.375 16 31.51V21.12c0-.139.09-.236.17-.236h3.578V18.19c0-1.759 1.282-3.19 2.858-3.19h4.262c1.575 0 2.857 1.431 2.857 3.19v2.695h3.579c.08 0 .17.097.17.236v10.39c0 1.864-1.361 3.382-3.033 3.382z" transform="translate(-.999 -5.5)"/>
                    <path fill="#fff" d="M30.44 34.393c1.397 0 2.533-1.293 2.533-2.883V21.385h-3.748V18.19c0-1.483-1.057-2.69-2.357-2.69h-4.262c-1.3 0-2.358 1.207-2.358 2.69v3.195H16.5V31.51c0 1.59 1.136 2.883 2.533 2.883H30.44m0 1H19.033c-1.952 0-3.533-1.739-3.533-3.883V21.12c0-.406.3-.736.67-.736h3.078V18.19c0-2.038 1.504-3.69 3.358-3.69h4.262c1.854 0 3.357 1.652 3.357 3.69v2.195h3.079c.37 0 .67.33.67.736v10.39c-.001 2.144-1.583 3.882-3.533 3.882z" transform="translate(-.999 -5.5)"/>
                </g>
                <path id="Path_4985" fill="none" stroke="#fff" d="M-.016-.149h10.072" transform="translate(18.501 15.5)"/>
                <rect id="Rectangle_3589" width="10" height="2" class="cls-3" rx="1" transform="translate(3.001 21)"/>
                <path id="Path_4989" fill="#dc67ce" d="M2.993-1.355h3.529a3.029 3.029 0 0 1 3.007 2.8v2.474H0V1.447a3.015 3.015 0 0 1 2.993-2.802z" transform="translate(19.001 11)"/>
                <rect id="Rectangle_3590" width="10" height="1" class="cls-3" rx=".5" transform="translate(19.001 26)"/>
            </g>
        </g>
        <path id="Rectangle_2676" fill="none" d="M0 0H40V32H0z" transform="translate(1380 534)"/>
    </g>
</svg>
