<svg xmlns="http://www.w3.org/2000/svg" width="18" height="18" viewBox="0 0 18 18">
  <defs>
    <style>
      .cls-1 {
        fill: none;
      }

      .cls-2 {
        fill: #f3900f;
      }
    </style>
  </defs>
  <g id="Group_2596" data-name="Group 2596" transform="translate(-546 -337)">
    <rect id="Rectangle_1078" data-name="Rectangle 1078" class="cls-1" width="18" height="18" transform="translate(546 337)"/>
    <g id="Group_1646" data-name="Group 1646" transform="translate(547 338)">
      <circle id="Ellipse_376" data-name="Ellipse 376" class="cls-2" cx="1.892" cy="1.892" r="1.892" transform="translate(6.194 0)"/>
      <circle id="Ellipse_377" data-name="Ellipse 377" class="cls-2" cx="1.135" cy="1.135" r="1.135" transform="translate(6.951 13.902)"/>
      <circle id="Ellipse_378" data-name="Ellipse 378" class="cls-2" cx="1.703" cy="1.703" r="1.703" transform="translate(1.736 2.114)"/>
      <circle id="Ellipse_379" data-name="Ellipse 379" class="cls-2" cx="0.946" cy="0.946" r="0.946" transform="translate(11.788 12.165)"/>
      <circle id="Ellipse_380" data-name="Ellipse 380" class="cls-2" cx="1.513" cy="1.513" r="1.513" transform="translate(0 6.952)"/>
      <circle id="Ellipse_381" data-name="Ellipse 381" class="cls-2" cx="0.756" cy="0.756" r="0.756" transform="translate(13.902 7.708)"/>
      <path id="Path_1291" data-name="Path 1291" class="cls-2" d="M4.45,19.594a1.324,1.324,0,1,0,1.872,0A1.323,1.323,0,0,0,4.45,19.594Z" transform="translate(-1.948 -7.418)"/>
      <circle id="Ellipse_382" data-name="Ellipse 382" class="cls-2" cx="0.567" cy="0.567" r="0.567" transform="translate(12.166 3.249)"/>
    </g>
  </g>
</svg>
