<svg xmlns="http://www.w3.org/2000/svg" width="40" height="40" viewBox="0 0 40 40">
  <defs>
    <style>
      .cls-1 {
        fill: #ddd1cc;
      }

      .cls-2 {
        fill: #fff;
      }
    </style>
  </defs>
  <g id="Group_2363" data-name="Group 2363" transform="translate(-180 -581)">
    <circle id="Ellipse_75" data-name="Ellipse 75" class="cls-1" cx="20" cy="20" r="20" transform="translate(180 581)"/>
    <g id="list" transform="translate(192.867 598.867)">
      <g id="Group_2219" data-name="Group 2219">
        <path id="Path_1526" data-name="Path 1526" class="cls-2" d="M14.631,0H1.756A1.756,1.756,0,0,0,0,1.756V14.631a1.756,1.756,0,0,0,1.756,1.756H14.631a1.756,1.756,0,0,0,1.756-1.756V1.756A1.756,1.756,0,0,0,14.631,0ZM5.267,12.875H3.511a.585.585,0,0,1,0-1.171H5.267a.585.585,0,0,1,0,1.171Zm0-4.1H3.511a.585.585,0,1,1,0-1.171H5.267a.585.585,0,1,1,0,1.171Zm0-4.1H3.511a.585.585,0,1,1,0-1.17H5.267a.585.585,0,1,1,0,1.17Zm7.608,8.193H7.608a.585.585,0,0,1,0-1.171h5.267a.585.585,0,0,1,0,1.171Zm0-4.1H7.608a.585.585,0,1,1,0-1.171h5.267a.585.585,0,0,1,0,1.171Zm0-4.1H7.608a.585.585,0,1,1,0-1.171h5.267a.585.585,0,0,1,0,1.171Z" transform="translate(-0.867 -5.867)"/>
      </g>
    </g>
  </g>
</svg>
