<svg width="20" height="20" fill="none" xmlns="http://www.w3.org/2000/svg">
    <path fill-rule="evenodd" clip-rule="evenodd" d="M4.363 0A1.863 1.863 0 0 0 2.5 1.863v15.833c0 1.029.834 1.863 1.863 1.863H16.47a1.863 1.863 0 0 0 1.862-1.863V1.863A1.863 1.863 0 0 0 16.471 0H4.363zm5.675 10.63 5.288-5.288a.682.682 0 0 0 0-.972.682.682 0 0 0-.972 0L9.552 9.172 7.529 7.15a.682.682 0 0 0-.971 0 .682.682 0 0 0 0 .971l2.508 2.509c.271.271.7.271.972 0zm-4.745 5.669c0-.257.208-.466.466-.466h6.52a.466.466 0 0 1 0 .932h-6.52a.466.466 0 0 1-.466-.466zm.466-2.329a.466.466 0 0 0 0 .932h9.313a.466.466 0 1 0 0-.931H5.76z" fill="#B7C3D1"/>
</svg>
