<svg xmlns="http://www.w3.org/2000/svg" width="58" height="46" viewBox="0 0 58 46">
    <defs>
        <style>
            .cls-1{fill:#fff}.cls-3{fill:#86b6d7;stroke:#487ba1;stroke-width:.5px}.cls-6{fill:#2a719b}.cls-10{fill:#548bad}
        </style>
    </defs>
    <g id="Customers_Icon" transform="translate(-1460.637 -604.136)">
        <g id="Group_9859" transform="translate(1463 605.636)">
            <path id="Rectangle_2419" d="M0 0H58V46H0z" class="cls-1" transform="translate(-2.363 -1.5)"/>
            <path id="Path_2684" fill="#d3ebfa" d="M26.586 4.316C19.952 4.316 15.4.584 12.2.584s-9.91 2-9.91 17.966 9.032 18.314 12.548 18.314C31.3 36.865 38.335 4.316 26.586 4.316z" transform="rotate(-8 28.708 -61.697)"/>
            <g id="user_6_" transform="translate(4.348 17.174)">
                <path id="Union_3" d="M4.709 9.417a4.554 4.554 0 0 1-3.326-1.38A4.555 4.555 0 0 1 0 4.709a4.555 4.555 0 0 1 1.38-3.328A4.552 4.552 0 0 1 4.707 0a4.554 4.554 0 0 1 3.331 1.381 4.554 4.554 0 0 1 1.379 3.328 4.554 4.554 0 0 1-1.379 3.328q-.15.15-.308.284a4.531 4.531 0 0 1-3.021 1.1z" class="cls-3" transform="translate(3.319)"/>
                <path id="Union_1" d="M12.857 10.1h-9.41a3.466 3.466 0 0 1-2.483-.9A3.245 3.245 0 0 1 0 6.743c0-.392.013-.781.039-1.155A11.585 11.585 0 0 1 .2 4.353a9.876 9.876 0 0 1 .3-1.242 6.216 6.216 0 0 1 .51-1.158 4.41 4.41 0 0 1 .77-1A3.392 3.392 0 0 1 2.886.256 3.828 3.828 0 0 1 4.3 0a1.431 1.431 0 0 1 .765.324c.233.152.5.325.8.515a4.56 4.56 0 0 0 1.031.454 4.084 4.084 0 0 0 1.136.2h.125a4.07 4.07 0 0 0 1.26-.2 4.542 4.542 0 0 0 1.027-.454l.8-.514A1.43 1.43 0 0 1 12.006 0a3.828 3.828 0 0 1 1.411.256 3.392 3.392 0 0 1 1.107.694 4.385 4.385 0 0 1 .769 1 6.125 6.125 0 0 1 .51 1.158 9.72 9.72 0 0 1 .3 1.242 11.6 11.6 0 0 1 .158 1.235c.027.372.04.761.04 1.155a3.246 3.246 0 0 1-.959 2.46 3.472 3.472 0 0 1-2.484.905z" class="cls-3" transform="translate(-.001 9.443)"/>
            </g>
            <g id="user_6_2" transform="translate(33.459 17.178)">
                <path id="Union_4" d="M4.705 9.412a4.555 4.555 0 0 1-3.326-1.379A4.554 4.554 0 0 1 0 4.705a4.554 4.554 0 0 1 1.379-3.328A4.552 4.552 0 0 1 4.705 0a4.558 4.558 0 0 1 3.331 1.377 4.558 4.558 0 0 1 1.379 3.328v.181a4.545 4.545 0 0 1-1.379 3.147 4.555 4.555 0 0 1-3.329 1.379z" class="cls-3" transform="translate(3.321)"/>
                <path id="Union_1-2" fill="#8ebad8" stroke="#487ba1" stroke-width="0.5px" d="M12.857 10.1H3.448a3.469 3.469 0 0 1-2.484-.9A3.246 3.246 0 0 1 0 6.743c0-.392.013-.781.039-1.154A11.571 11.571 0 0 1 .2 4.353a9.728 9.728 0 0 1 .3-1.242 6.182 6.182 0 0 1 .51-1.158 4.4 4.4 0 0 1 .77-1A3.373 3.373 0 0 1 2.887.256 3.819 3.819 0 0 1 4.3 0a1.427 1.427 0 0 1 .765.324c.233.152.5.325.8.514a4.521 4.521 0 0 0 1.031.455 4.127 4.127 0 0 0 1.136.2h.124a4.09 4.09 0 0 0 1.261-.2 4.541 4.541 0 0 0 1.026-.455c.3-.191.568-.363.8-.514A1.427 1.427 0 0 1 12.006 0a3.819 3.819 0 0 1 1.411.256 3.383 3.383 0 0 1 1.106.695 4.37 4.37 0 0 1 .769 1 6.151 6.151 0 0 1 .508 1.16 9.728 9.728 0 0 1 .3 1.242 11.619 11.619 0 0 1 .158 1.235c.026.372.039.761.04 1.155a3.245 3.245 0 0 1-.956 2.457 3.468 3.468 0 0 1-2.483.905z" transform="translate(-.001 9.439)"/>
            </g>
            <path id="Path_3739" fill="#ff7eb8" d="M60.741 418.344A.339.339 0 0 1 60.4 418a.408.408 0 0 0-.407-.407.339.339 0 0 1 0-.679.408.408 0 0 0 .407-.407.339.339 0 1 1 .679 0 .408.408 0 0 0 .407.407.339.339 0 1 1 0 .679.408.408 0 0 0-.407.407.339.339 0 0 1-.338.344z" transform="translate(-42.377 -404.721)"/>
            <path id="Path_3743" d="M60.741 418.344A.339.339 0 0 1 60.4 418a.408.408 0 0 0-.407-.407.339.339 0 0 1 0-.679.408.408 0 0 0 .407-.407.339.339 0 1 1 .679 0 .408.408 0 0 0 .407.407.339.339 0 1 1 0 .679.408.408 0 0 0-.407.407.339.339 0 0 1-.338.344z" class="cls-6" transform="translate(-31.377 -409.721)"/>
            <path id="Path_3740" d="M451.212 83.7a.339.339 0 0 1-.24-.579l.679-.679a.339.339 0 0 1 .48.48l-.679.679a.338.338 0 0 1-.24.099z" class="cls-6" transform="translate(-413.211 -70.06)"/>
            <path id="Path_3741" d="M87.994 41.487a.339.339 0 0 1-.24-.579l.679-.679a.339.339 0 1 1 .48.48l-.679.679a.338.338 0 0 1-.24.099z" class="cls-6" transform="translate(-76.742 -28.034)"/>
            <g id="Group_11495" transform="translate(-88.236 -9.837)">
                <g id="user_2_" transform="translate(104.873 15.543)">
                    <path id="Path_3744" fill="#4b7ea5" stroke="#bee2f8" stroke-width="0.4px" d="M23.916 40.812v5.382H.016v-5.382a5.673 5.673 0 0 1 5.673-5.672h2.879v.108a3.377 3.377 0 0 0 6.754 0v-.108h2.92a5.673 5.673 0 0 1 5.674 5.672zm0 0" transform="translate(-.016 -12.814)"/>
                    <path id="Path_3745" fill="#4b7ea5" d="M21.087 19.929a9.284 9.284 0 0 1-.134 7.12 16.057 16.057 0 0 1-3.545 5.061 17.97 17.97 0 0 1-2.123 1.846v-1.319a6.9 6.9 0 0 0 3.4-5.948v-2.781l.009-.655a4.63 4.63 0 0 0-2.031-3.932 4.131 4.131 0 0 0-1.716-.665 12.983 12.983 0 0 1-9.634 6.76H5.3a.167.167 0 0 0-.168.168v1.19a6.773 6.773 0 0 0 3.4 5.876v.992a12.249 12.249 0 0 1-6.4-10.312 9.679 9.679 0 0 1 .986-4.712A10.173 10.173 0 0 1 9.435 13.5a6.754 6.754 0 0 1 4.989.419 6.975 6.975 0 0 1 3.233 3.551l.047.143c1.651-.396 2.832.95 3.383 2.316zm0 0" transform="translate(.02 -13.206)"/>
                    <path id="Path_3746" d="M8.478 32.555a6.773 6.773 0 0 1-3.4-5.876v-1.19a.167.167 0 0 1 .168-.168h.014a12.983 12.983 0 0 0 9.634-6.76 4.131 4.131 0 0 1 1.716.665 4.63 4.63 0 0 1 2.031 3.932l-.009.655v2.781a6.9 6.9 0 0 1-3.4 5.948 6.667 6.667 0 0 1-3.326.914 6.742 6.742 0 0 1-3.428-.901zm0 0" class="cls-1" transform="translate(.073 -13.11)"/>
                    <path id="Path_3747" fill="#efa4cf" d="M15.173 35.19v.11a3.377 3.377 0 0 1-6.755 0v-2.991a6.742 6.742 0 0 0 3.429.9 6.667 6.667 0 0 0 3.326-.914zm0 0" transform="translate(.133 -12.865)"/>
                </g>
            </g>
            <rect id="Rectangle_2420" width="2" height="2" class="cls-10" rx=".4" transform="translate(13.637 29.5)"/>
            <rect id="Rectangle_2421" width="2" height="2" class="cls-10" rx=".4" transform="translate(44.637 29.5)"/>
        </g>
    </g>
</svg>
