<svg xmlns="http://www.w3.org/2000/svg" width="1314.866" height="289.499" viewBox="0 0 1314.866 289.499">
  <g id="Group_11488" data-name="Group 11488" transform="translate(-143.067 -178.251)">
    <path id="Intersection_1" data-name="Intersection 1" d="M1305.246,289,1314,273.8Zm-10,0L1314,256.443Zm-10,0L1314,239.081Zm-10.168,0L1314,221.429Zm-11.033,0L1314,202.275Zm-11.033,0L1314,183.12Zm-11.035,0L1314,163.964Zm-11.031,0L1314,144.813Zm-11.033,0L1314,125.658Zm-11.035,0L1314,106.5Zm-11.035,0L1314,87.345Zm-11.033,0L1314,68.194Zm-11.033,0L1314,49.033Zm-11.033,0L1314,29.883Zm0,0L1314,29.883Zm-11.033,0L1314,10.732Zm-11.035,0L1309.145,0Zm-11.031,0L1298.113,0Zm-11.037,0L1287.074,0Zm-11.031,0L1276.045,0Zm-11.033,0L1265.012,0Zm-11.035,0L1253.975,0Zm-11.035,0L1242.943,0Zm-11.033,0L1231.908,0Zm-11.035,0L1220.875,0Zm-11.031,0L1209.84,0Zm-11.033,0L1198.809,0Zm-11.037,0L1187.77,0Zm-11.031,0L1176.738,0Zm-11.035,0L1165.707,0ZM988.2,289,1154.67,0Zm-11.033,0L1143.639,0Zm-11.033,0L1132.607,0Zm0,0L1132.607,0ZM955.1,289,1121.57,0Zm-11.035,0L1110.539,0Zm-11.033,0L1099.5,0ZM922,289,1088.469,0Zm-11.033,0L1077.434,0Zm-11.035,0L1066.4,0ZM888.9,289,1055.369,0Zm-11.035,0L1044.334,0Zm-11.033,0L1033.3,0Zm-11.033,0L1022.266,0Zm-11.035,0L1011.234,0Zm-11.033,0L1000.2,0Zm-11.037,0L989.164,0Zm-11.029,0L978.133,0Zm-11.035,0L967.1,0Zm-11.035,0L956.064,0Zm-11.033,0L945.029,0Zm-11.031,0L934,0Zm-11.037,0L922.961,0Zm-11.031,0L911.93,0Zm-11.035,0L900.9,0Zm-11.033,0L889.861,0Zm-11.035,0L878.828,0Zm-11.033,0L867.793,0Zm-11.031,0L856.762,0Zm-11.035,0L845.725,0Zm-11.033,0L834.693,0Zm-11.035,0L823.66,0Zm-11.033,0L812.625,0Zm0,0L812.625,0Zm-11.035,0L801.592,0Zm-11.031,0L790.559,0Zm-11.033,0L779.523,0Zm-11.035,0L768.49,0Zm-11.033,0L757.457,0Zm-11.035,0L746.422,0Zm-11.033,0L735.389,0Zm-11.035,0L724.355,0Zm-11.031,0L713.324,0Zm-11.033,0L702.289,0Zm-11.035,0L691.254,0Zm-11.033,0L680.219,0Zm-11.037,0L669.186,0Zm-11.031,0L658.152,0Zm-11.035,0L647.117,0Zm-11.035,0L636.082,0Zm-11.033,0L625.049,0Zm-11.031,0L614.018,0Zm-11.035,0L602.982,0Zm-11.031,0L591.951,0Zm-11.035,0L580.914,0Zm-11.033,0L569.883,0Zm-11.035,0L558.848,0Zm-11.031,0L547.814,0Zm-11.037,0L536.781,0Zm-11.031,0L525.748,0Zm-11.035,0L514.713,0Zm-11.035,0L503.678,0Zm-11.031,0L492.646,0Zm0,0L492.646,0Zm-11.035,0L481.609,0Zm-11.033,0L470.578,0Zm-11.035,0L459.543,0Zm-11.033,0L448.51,0Zm-11.031,0L437.479,0Zm-11.035,0L426.443,0Zm-11.033,0L415.408,0ZM237.9,289,404.375,0Zm-11.033,0L393.342,0Zm-11.037,0L382.307,0ZM204.8,289,371.275,0Zm-11.031,0L360.242,0Zm-11.037,0L349.207,0ZM171.7,289,338.174,0Zm-11.035,0L327.139,0Zm-11.033,0L316.1,0ZM138.6,289,305.07,0Zm-11.033,0L294.037,0Zm-11.037,0L283,0ZM105.5,289,271.969,0Zm-11.031,0L260.938,0Zm-11.033,0L249.9,0ZM72.4,289,238.869,0Zm-11.031,0L227.836,0ZM50.33,289,216.8,0ZM39.3,289,205.77,0ZM28.26,289,194.73,0Zm-11.031,0L183.7,0ZM6.193,289,172.664,0Zm0,0L172.664,0ZM0,280.6,161.631,0Zm0-19.15L150.6,0Zm0-19.158L139.563,0Zm0-19.154L128.531,0Zm0-19.157L117.5,0Zm0-19.151L106.463,0Zm0-19.161L95.428,0Zm0-19.15L84.4,0Zm0-19.152L73.365,0ZM0,108.2,62.33,0ZM0,89.052,51.3,0ZM0,69.9,40.262,0ZM0,50.74,29.229,0ZM0,31.584,18.193,0ZM0,12.433,7.162,0Z" transform="translate(143.5 178.5)" fill="none" stroke="#eaeef2" stroke-width="1"/>
  </g>
</svg>
