<svg xmlns="http://www.w3.org/2000/svg" width="64" height="66" viewBox="0 0 64 66">
    <defs>
        <style>
            .cls-2{fill:#ebf5ff}.cls-3{fill:#ff7eb8}.cls-4{fill:#2a719b}.cls-5{fill:#c1ddf7}
        </style>
    </defs>
    <g id="Quotation" transform="translate(-183 -348.5)">
        <g id="Group_9870" transform="translate(183 348.5)">
            <g id="Group_9859">
                <g id="Group_9717">
                    <path id="Rectangle_1187" fill="none" d="M0 0H64V66H0z"/>
                </g>
            </g>
        </g>
        <g id="Group_3365" transform="translate(184.066 350.767)">
            <path id="Path_2748" d="M40.853 6.038c-10.53 0-17.76-5.454-22.834-5.454S2.29 3.5 2.29 26.841s14.335 26.765 19.915 26.765C48.338 53.608 59.5 6.038 40.853 6.038z" class="cls-2" transform="translate(12.522 -.016)"/>
            <g id="Group_9825" transform="translate(0 9.14)">
                <g id="Group_3347">
                    <path id="Path_1742" d="M397.216 49.255a.644.644 0 0 1-.644-.645.774.774 0 0 0-.773-.773.645.645 0 0 1 0-1.289.774.774 0 0 0 .773-.773.645.645 0 1 1 1.289 0 .774.774 0 0 0 .773.773.645.645 0 1 1 0 1.289.774.774 0 0 0-.773.773.645.645 0 0 1-.645.645z" class="cls-3" transform="translate(-342.471 -39.319)"/>
                    <path id="Path_2578" d="M61.717 420.3a.645.645 0 0 1-.645-.644.774.774 0 0 0-.773-.773.645.645 0 0 1 0-1.289.774.774 0 0 0 .773-.773.645.645 0 0 1 1.289 0 .774.774 0 0 0 .773.773.645.645 0 0 1 0 1.289.774.774 0 0 0-.773.773.644.644 0 0 1-.644.644z" class="cls-3" transform="translate(-59.532 -389.253)"/>
                    <g id="Group_3346">
                        <path id="Path_1744" d="M451.517 84.917a.645.645 0 0 1-.456-1.1l1.289-1.289a.644.644 0 0 1 .911.911l-1.289 1.289a.642.642 0 0 1-.455.189z" class="cls-4" transform="translate(-398.735 -82.339)"/>
                        <path id="Path_1745" d="M88.3 42.708a.645.645 0 0 1-.456-1.1l1.289-1.289a.644.644 0 1 1 .911.911l-1.289 1.289a.642.642 0 0 1-.455.189z" class="cls-4" transform="translate(-87.654 -17.683)"/>
                        <path id="Path_2579" d="M88.3 42.708a.645.645 0 0 1-.456-1.1l1.289-1.289a.644.644 0 1 1 .911.911l-1.289 1.289a.642.642 0 0 1-.455.189z" class="cls-4" transform="translate(-37.78 -6.941)"/>
                    </g>
                </g>
            </g>
            <path id="Path_4366" d="M286.6 165.588l-.624-.335a.225.225 0 0 1-.092-.092l-.335-.624a.224.224 0 0 0-.4 0l-.335.624a.225.225 0 0 1-.092.092l-.624.335a.225.225 0 0 0 0 .4l.624.335a.225.225 0 0 1 .092.092l.335.624a.224.224 0 0 0 .4 0l.335-.624a.224.224 0 0 1 .092-.092l.624-.335a.225.225 0 0 0 0-.4z" class="cls-5" transform="translate(-266.855 -164.419)"/>
            <path id="Path_4367" fill="#84b4fe" d="M243.127 192.011l-.691-.37a.25.25 0 0 1-.1-.1l-.37-.691a.248.248 0 0 0-.438 0l-.371.691a.25.25 0 0 1-.1.1l-.691.37a.249.249 0 0 0 0 .438l.691.37a.25.25 0 0 1 .1.1l.371.691a.248.248 0 0 0 .438 0l.37-.691a.25.25 0 0 1 .1-.1l.691-.37a.249.249 0 0 0 0-.438z" transform="translate(-238.917 -178.013)"/>
            <path id="Path_6" d="M368.3 211.863l-.5-.266a.177.177 0 0 1-.073-.073l-.266-.5a.178.178 0 0 0-.314 0l-.265.5a.178.178 0 0 1-.073.073l-.5.266a.178.178 0 0 0 0 .314l.5.265a.178.178 0 0 1 .073.073l.265.5a.178.178 0 0 0 .314 0l.266-.5a.177.177 0 0 1 .073-.073l.5-.265a.178.178 0 0 0 0-.314z" class="cls-2" transform="translate(-319.907 -165.854)"/>
            <circle id="Ellipse_701" cx="1.235" cy="1.235" r="1.235" class="cls-2" transform="translate(43.936 8.908)"/>
            <path id="Path_4368" d="M405.434 199.842l-.755-.4a.271.271 0 0 1-.111-.111l-.4-.755a.272.272 0 0 0-.478 0l-.4.755a.273.273 0 0 1-.111.111l-.755.4a.272.272 0 0 0 0 .479l.755.4a.271.271 0 0 1 .111.111l.4.755a.271.271 0 0 0 .478 0l.4-.755a.269.269 0 0 1 .111-.111l.755-.4a.272.272 0 0 0 0-.479z" class="cls-5" transform="translate(-347.73 -147.732)"/>
            <g id="invoice_1_" transform="translate(3.934 7.163)">
                <g id="Group_13672" transform="translate(0 .109)">
                    <path id="Path_4963" fill="#014073" d="M43.894.265a1.053 1.053 0 0 0-.551-.156h-31.5a4.891 4.891 0 0 0-4.908 4.855l-.219 28.181H1.024A1.058 1.058 0 0 0-.033 34.2L0 38.033a6.493 6.493 0 0 0 6.334 6.5h.167a1.053 1.053 0 0 0 .216-.022h26.266c.161.012.324.019.487.019a6.632 6.632 0 0 0 6.6-6.606V22.068h7.13a1.058 1.058 0 0 0 1.058-1.058V5.309a5.051 5.051 0 0 0-1.5-3.6A5.119 5.119 0 0 0 43.894.265zM2.115 38.033V34.2h24.759v3.72a6.594 6.594 0 0 0 1.763 4.472H6.356a1.1 1.1 0 0 0-.148.012 4.356 4.356 0 0 1-4.093-4.371zM37.951 5.309v32.614a4.516 4.516 0 0 1-4.337 4.487 1.019 1.019 0 0 0-.174-.015h-.374a4.517 4.517 0 0 1-4.078-4.472v-4.778a1.058 1.058 0 0 0-1.058-1.058H8.865l.186-27.115a2.775 2.775 0 0 1 2.8-2.747H39a5.046 5.046 0 0 0-1.049 3.084zm8.188 14.644h-6.073V5.309a3.05 3.05 0 0 1 5.2-2.1 2.95 2.95 0 0 1 .876 2.1zm0 0" transform="translate(0 -.109)"/>
                    <path id="Rectangle_3584" fill="#fff" d="M0 0h20v5H3a3 3 0 0 1-3-3V0z" transform="translate(5 35.461)"/>
                    <path id="Path_4967" d="M15.049 321.7v.018a5.027 5.027 0 0 1-5.049-4.88v-4.389h25.888v4.389c.884 2.694 1.82 4.635 4.55 4.866zm0 0" class="cls-3" transform="translate(-8.943 -278.359)"/>
                </g>
                <path id="Path_4960" fill="#4e89ad" d="M376.907 15.066v15.7h-7.285v-15.7c.025-1.647.982-2.444 2.508-3.066a3.889 3.889 0 0 1 3.6.339 3.725 3.725 0 0 1 1.177 2.727zm0 0" transform="translate(-329.8 -9.754)"/>
                <path id="Path_4962" d="M98.677 51.745a5.547 5.547 0 0 1-5.017-5.517l-.036-4.214H73.75l.19-28.11a3.833 3.833 0 0 1 1.123-2.7 3.754 3.754 0 0 1 2.681-1.1H108.6v.1a3.99 3.99 0 0 0-2.85 1.171 4.076 4.076 0 0 0-1.192 2.866l.036 31.987a5.58 5.58 0 0 1-1.59 3.886 5.4 5.4 0 0 1-3.877 1.65c-.151 0-.301-.006-.45-.019zm0 0" class="cls-2" transform="translate(-65.998 -8.845)"/>
                <path id="Path_4964" d="M119.448 90.565h10.018a1.058 1.058 0 0 0 0-2.115h-10.018a1.058 1.058 0 1 0 0 2.115zm0 0" class="cls-4" transform="translate(-105.869 -78.996)"/>
                <path id="Path_4965" d="M138.134 159.941h-18.686a1.058 1.058 0 0 0 0 2.115h18.686a1.058 1.058 0 0 0 0-2.115zm0 0" class="cls-4" transform="translate(-105.869 -142.927)"/>
                <path id="Path_4966" d="M138.134 231.441h-18.686a1.058 1.058 0 1 0 0 2.115h18.686a1.058 1.058 0 1 0 0-2.115zm0 0" class="cls-3" transform="translate(-105.869 -206.864)"/>
            </g>
        </g>
    </g>
</svg>
