<svg xmlns="http://www.w3.org/2000/svg" width="14.924" height="18" viewBox="0 0 14.924 18">
  <defs>
    <style>
      .cls-1 {
        fill: #1ebdcb;
      }

      .cls-2 {
        fill: #6a7d98;
      }
    </style>
  </defs>
  <g id="reload" transform="translate(257.239 -93)">
    <path id="Path_82" data-name="Path 82" class="cls-1" d="M51.042,0,49.976.945,51.753,2.96H48.026a4.264,4.264,0,0,0-4.264,4.264v3.908h1.421V7.223a2.843,2.843,0,0,1,2.842-2.842h3.749L50,6.4l1.066.945,3.244-3.67Z" transform="translate(-301 93)"/>
    <path id="Path_83" data-name="Path 83" class="cls-2" d="M177.4,195.36v3.908a2.843,2.843,0,0,1-2.842,2.842h-3.749l1.777-2.015-1.066-.945-3.244,3.67,3.262,3.67,1.066-.945-1.777-2.015h3.731a4.264,4.264,0,0,0,4.264-4.264V195.36Z" transform="translate(-421.136 -95.492)"/>
  </g>
</svg>
