<svg xmlns="http://www.w3.org/2000/svg" width="16" height="16" viewBox="0 0 16 16">
    <g>
        <path fill="none" d="M0 0H16V16H0z" transform="translate(-.003) translate(.003)"/>
        <path fill="#fff" d="M45.01 11.611h-.741v-1.323a4.163 4.163 0 0 0-2.049-3.433.755.755 0 0 1-.271-.631.755.755 0 0 1 .271-.631 4.164 4.164 0 0 0 2.049-3.433V.838h.741a.419.419 0 0 0 0-.838h-8.593a.419.419 0 0 0 0 .838h.741V2.16a4.163 4.163 0 0 0 2.049 3.433.755.755 0 0 1 .271.631.755.755 0 0 1-.271.631 4.163 4.163 0 0 0-2.049 3.433v1.323h-.741a.419.419 0 0 0 0 .838h8.593a.419.419 0 0 0 0-.838zm-4.715-6.985a.419.419 0 1 1 .838 0v.74a.419.419 0 1 1-.838 0zm.123 2.665a.419.419 0 1 1-.123.3.422.422 0 0 1 .122-.3zm-2.284 4.324a7.3 7.3 0 0 1 2.322-2.877.419.419 0 0 1 .516 0 7.3 7.3 0 0 1 2.322 2.877z" transform="translate(-.003) translate(-32.995 2)"/>
    </g>
</svg>
