<svg xmlns="http://www.w3.org/2000/svg" width="26" height="26" viewBox="0 0 26 26">
    <defs>
        <linearGradient id="linear-gradient" x1="-.743" x2="-.44" y1=".083" y2=".185" gradientUnits="objectBoundingBox">
            <stop offset="0" stop-color="#f3f7ff"/>
            <stop offset="1" stop-color="#cdd9ff"/>
        </linearGradient>
        <style>
            .cls-1{fill:none}.cls-3{fill:#ff7eb8}.cls-4{fill:#2a719b}.cls-6{fill:#f9f9f9}.cls-7{fill:#4e89ad}.cls-12{stroke:none}
        </style>
    </defs>
    <g id="Quotation_rejected_by_customer" transform="translate(-1379.668 -530.668)">
        <path id="Rectangle_2676" d="M0 0H26V26H0z" class="cls-1" transform="translate(1379.668 530.668)"/>
        <g id="Group_12026" transform="translate(1383.335 533.667)">
            <g id="Group_11979">
                <g id="Group_9859">
                    <g id="Group_9871">
                        <path id="Path_2687" fill="#d3ebfa" d="M14.495 2.016C10.537 2.016 7.819 0 5.912 0S0 1.078 0 9.7s5.388 9.9 7.486 9.9c9.822 0 14.014-17.584 7.009-17.584z" transform="rotate(180 9.029 9.798)"/>
                        <path id="Path_1742" d="M395.788 45.13a.2.2 0 0 1 .2.2.238.238 0 0 0 .238.238.2.2 0 0 1 0 .4.238.238 0 0 0-.238.238.2.2 0 0 1-.4 0 .238.238 0 0 0-.238-.238.2.2 0 0 1 0-.4.238.238 0 0 0 .238-.238.2.2 0 0 1 .2-.2z" class="cls-3" transform="translate(-395.153 -42.347)"/>
                        <path id="Path_2578" d="M60.29 416.172a.2.2 0 0 1 .2.2.238.238 0 0 0 .238.238.2.2 0 1 1 0 .4.238.238 0 0 0-.238.238.2.2 0 0 1-.4 0 .238.238 0 0 0-.238-.238.2.2 0 1 1 0-.4.238.238 0 0 0 .238-.238.2.2 0 0 1 .2-.2z" class="cls-3" transform="translate(-42.601 -403.264)"/>
                        <path id="Path_1744" d="M451.467 82.339a.2.2 0 0 1 .14.339l-.4.4a.2.2 0 0 1-.281-.28l.4-.4a.2.2 0 0 1 .141-.059z" class="cls-4" transform="translate(-450.23 -77.292)"/>
                        <path id="Path_1745" d="M88.249 40.13a.2.2 0 0 1 .14.339l-.4.4a.2.2 0 0 1-.28-.28l.4-.4a.2.2 0 0 1 .14-.059z" class="cls-4" transform="translate(-69.91 -25.37)"/>
                        <path id="Path_2720" d="M88.249 40.13a.2.2 0 0 1 .14.339l-.4.4a.2.2 0 0 1-.28-.28l.4-.4a.2.2 0 0 1 .14-.059z" class="cls-4" transform="translate(-86.274 -26.035)"/>
                    </g>
                </g>
            </g>
            <path id="Path_4041" fill="url(#linear-gradient)" d="M43.475 45.513H33.111A1.112 1.112 0 0 1 32 44.4V31.032a1.112 1.112 0 0 1 1.111-1.114c2.873 0 2.591-.254 2.591 1.114a.371.371 0 0 0 .37.371h4.442a.371.371 0 0 0 .37-.371v-.743a.371.371 0 0 1 .37-.371h2.221a1.112 1.112 0 0 1 1.111 1.114V44.4a1.112 1.112 0 0 1-1.111 1.113z" transform="translate(-28.727 -27.578)"/>
            <g id="Group_12025" transform="translate(3.186 2.608)">
                <g id="Group_11977" transform="translate(1.09 .07)">
                    <path id="Path_4056" d="M105.84 250.842l-7.789-8.654.04 13.324a16.829 16.829 0 0 1 2.066 0c1.281.066 3.128 0 3.574 0 .625 0 .216-1.142.511-1.708.35-.672.291-1.476.844-2.044.23-.236.503-.717.754-.918z" class="cls-6" transform="translate(-98.041 -241.862)"/>
                    <path id="Path_4057" d="M151.322 316.76v-5.234h-6.935l5.342 5.972a.925.925 0 0 0 1.593-.738z" class="cls-6" transform="translate(-141.384 -311.482)"/>
                    <path id="Path_4058" d="M8.848 52.737v-5.5h11.034v8.037a7.771 7.771 0 0 0-1.591 1.611c-.785 1.052-1.484 1.984-1.484 1.984z" class="cls-6" transform="translate(-8.848 -47.234)"/>
                    <path id="Path_4060" d="M9.819 15.458a5.663 5.663 0 0 1 1.142-3.418 13.025 13.025 0 0 1 3.76-2.8v6.219z" class="cls-7" transform="translate(-3.686 -.719)"/>
                </g>
                <path id="Path_4203" d="M3.432 6.49V0H.971L.58.184.5.853v13.532l.156.721.9.307h10.715c-.977-.9-.248-3.405-.4-4.522-3.252-1.082-8.438-1.91-8.439-4.401zm0 0" class="cls-7" transform="translate(-.496)"/>
            </g>
            <path id="Path_4042" fill="none" stroke="#2e6089" stroke-width="1.5px" d="M41.511 45.517h-10.4A1.114 1.114 0 0 1 30 44.4V31.035a1.114 1.114 0 0 1 1.114-1.114c2.737 0 2.62-.23 2.6 1.064v-.411h5.2v-.282a.371.371 0 0 1 .371-.371h2.228a1.114 1.114 0 0 1 1.114 1.114V44.4a1.114 1.114 0 0 1-1.116 1.117z" transform="translate(-27.115 -27.581)"/>
            <path id="Path_4046" d="M45.583 70.743h-3.257a.375.375 0 0 1 0-.743h3.257a.375.375 0 0 1 0 .743z" class="cls-6" transform="translate(-37.854 -56.548)"/>
            <path id="Path_4047" d="M44.439 86.743h-2.217c-.122 0-.222-.166-.222-.371s.1-.371.222-.371h2.217c.122 0 .222.166.222.371s-.1.371-.222.371z" class="cls-6" transform="translate(-37.854 -71.42)"/>
            <path id="Path_4204" d="M45.833 86.743h-3.485a.372.372 0 0 1 0-.743h3.485a.372.372 0 0 1 0 .743z" class="cls-4" transform="translate(-35.09 -80.173)"/>
            <path id="Path_4205" d="M44.415 86.743h-2.2c-.121 0-.22-.166-.22-.371s.1-.371.22-.371h2.2c.121 0 .22.166.22.371s-.099.371-.22.371z" class="cls-4" transform="translate(-35.09 -78.791)"/>
            <path id="Path_4048" d="M72.886 52.6l-.717-.717a.382.382 0 0 1 .539-.541l.447.447.926-.924a.382.382 0 0 1 .539.541L73.427 52.6a.382.382 0 0 1-.541 0z" class="cls-3" transform="translate(-60.245 -45.49)"/>
            <path id="Path_4049" d="M73.166 69.226l-.877-.879a.468.468 0 0 1 .659-.65l.547.547 1.131-1.129a.468.468 0 0 1 .659.662l-1.459 1.461a.468.468 0 0 1-.662-.012z" class="cls-3" transform="translate(-62.654 -56.864)"/>
            <g id="Rectangle_2614" fill="#73aacf" stroke="#2e6089" transform="translate(6.07 1.436)">
                <rect width="6.45" height="2.304" class="cls-12" rx="1.152"/>
                <rect width="5.45" height="1.304" x=".5" y=".5" class="cls-1" rx=".652"/>
            </g>
            <g id="Group_12024" transform="translate(6.657 7.399)">
                <g id="Group_12610">
                    <g id="Ellipse_678" fill="#fff" stroke="#2e6089">
                        <circle cx="5.667" cy="5.667" r="5.667" class="cls-12"/>
                        <circle cx="5.667" cy="5.667" r="5.167" class="cls-1"/>
                    </g>
                    <path id="Path_4128" fill="#c2e1f4" d="M153.029 148.266a4.266 4.266 0 1 1-4.267-4.266 4.266 4.266 0 0 1 4.267 4.266zm0 0" transform="translate(-143.162 -142.667)"/>
                    <path id="Union_5" d="M4.273 5.5L2.85 4.106 1.426 5.5A1.212 1.212 0 0 1 .2 5.5C-.138 5.235.053 4.454.053 4.454l1.51-1.6-1.32-1.291A.934.934 0 0 1 1.559.241L2.85 1.53 4.14.241a.934.934 0 0 1 1.316 1.322l-1.32 1.288 1.51 1.6s.192.781-.151 1.041a1.024 1.024 0 0 1-.6.165.991.991 0 0 1-.622-.157z" class="cls-3" transform="translate(2.666 2.667)"/>
                </g>
            </g>
        </g>
    </g>
</svg>
