<svg xmlns="http://www.w3.org/2000/svg" width="11.135" height="11.134" viewBox="0 0 11.135 11.134">
  <defs>
    <style>
      .cls-1 {
        fill: #cd2d2f;
      }
    </style>
  </defs>
  <g id="squares" transform="translate(-3.999 4)">
    <g id="Group_548" data-name="Group 548">
      <path id="Path_265" data-name="Path 265" class="cls-1" d="M9.941,1.988h-.8v-.8A1.193,1.193,0,0,0,7.953,0H1.193A1.193,1.193,0,0,0,0,1.193v6.76A1.193,1.193,0,0,0,1.193,9.146h.8v.8a1.193,1.193,0,0,0,1.193,1.193h6.76a1.193,1.193,0,0,0,1.193-1.193V3.181A1.193,1.193,0,0,0,9.941,1.988ZM1.193,8.35a.4.4,0,0,1-.4-.4V1.193a.4.4,0,0,1,.4-.4h6.76a.4.4,0,0,1,.4.4v6.76a.4.4,0,0,1-.4.4Zm9.146,1.591a.4.4,0,0,1-.4.4H3.181a.4.4,0,0,1-.4-.4v-.8H7.953A1.193,1.193,0,0,0,9.146,7.953V2.784h.8a.4.4,0,0,1,.4.4Z" transform="translate(4 -4)"/>
    </g>
  </g>
</svg>
