<svg xmlns="http://www.w3.org/2000/svg" width="22.375" height="24.967" viewBox="0 0 22.375 24.967">
  <defs>
    <style>
      .cls-1 {
        fill: #e87304;
      }
    </style>
  </defs>
  <g id="writing_1_" data-name="writing (1)" transform="translate(-26.571)">
    <g id="Group_139" data-name="Group 139" transform="translate(26.57)">
      <g id="Group_138" data-name="Group 138">
        <path id="Path_136" data-name="Path 136" class="cls-1" d="M118.455,200.975a.975.975,0,0,0-.975-.975H107.434a.975.975,0,1,0,0,1.951H117.48A.975.975,0,0,0,118.455,200.975Z" transform="translate(-102.563 -190.247)"/>
        <path id="Path_137" data-name="Path 137" class="cls-1" d="M107.434,280a.975.975,0,0,0,0,1.951h6.1a.975.975,0,1,0,0-1.951Z" transform="translate(-102.563 -266.346)"/>
        <path id="Path_138" data-name="Path 138" class="cls-1" d="M33.733,23.017H30.471a1.953,1.953,0,0,1-1.951-1.951V3.9a1.953,1.953,0,0,1,1.951-1.951H42.462A1.953,1.953,0,0,1,44.412,3.9v6a.975.975,0,1,0,1.951,0v-6a3.906,3.906,0,0,0-3.9-3.9H30.471a3.906,3.906,0,0,0-3.9,3.9V21.066a3.906,3.906,0,0,0,3.9,3.9h3.262a.975.975,0,1,0,0-1.951Z" transform="translate(-26.57)"/>
        <path id="Path_139" data-name="Path 139" class="cls-1" d="M254.4,272.88a2.929,2.929,0,0,0-4.137,0l-5.355,5.343a.975.975,0,0,0-.244.407l-1.166,3.839a.975.975,0,0,0,1.194,1.223l3.937-1.09a.975.975,0,0,0,.429-.25l5.343-5.333A2.929,2.929,0,0,0,254.4,272.88Zm-6.54,7.909-1.98.549.58-1.908,3.613-3.6,1.38,1.38Zm5.161-5.151-.189.189-1.379-1.379.188-.188a.975.975,0,0,1,1.38,1.379Z" transform="translate(-232.881 -258.759)"/>
        <path id="Path_140" data-name="Path 140" class="cls-1" d="M117.48,120H107.434a.975.975,0,1,0,0,1.951H117.48a.975.975,0,1,0,0-1.951Z" transform="translate(-102.563 -114.148)"/>
      </g>
    </g>
  </g>
</svg>
