<svg xmlns="http://www.w3.org/2000/svg" width="8.637" height="10.632" viewBox="0 0 8.637 10.632">
  <defs>
    <style>
      .cls-1 {
        fill: #cd2d2f;
      }
    </style>
  </defs>
  <g id="delete" transform="translate(0.004 0.001)">
    <path id="Path_256" data-name="Path 256" class="cls-1" d="M222.647,154.7a.249.249,0,0,0-.249.249v4.706a.249.249,0,0,0,.5,0v-4.706A.249.249,0,0,0,222.647,154.7Zm0,0" transform="translate(-216.864 -150.852)"/>
    <path id="Path_257" data-name="Path 257" class="cls-1" d="M104.647,154.7a.249.249,0,0,0-.249.249v4.706a.249.249,0,0,0,.5,0v-4.706A.249.249,0,0,0,104.647,154.7Zm0,0" transform="translate(-101.802 -150.852)"/>
    <path id="Path_258" data-name="Path 258" class="cls-1" d="M.7,3.164V9.3a1.374,1.374,0,0,0,.365.947,1.226,1.226,0,0,0,.89.385H6.67a1.226,1.226,0,0,0,.89-.385A1.374,1.374,0,0,0,7.925,9.3V3.164a.951.951,0,0,0-.244-1.871H6.406V.982A.978.978,0,0,0,5.42,0H3.209a.978.978,0,0,0-.986.984v.311H.948A.951.951,0,0,0,.7,3.164ZM6.67,10.133H1.959A.789.789,0,0,1,1.2,9.3V3.186H7.427V9.3A.789.789,0,0,1,6.67,10.133ZM2.721.982A.48.48,0,0,1,3.209.5H5.42a.48.48,0,0,1,.488.486v.311H2.721ZM.948,1.792H7.681a.448.448,0,0,1,0,.9H.948a.448.448,0,1,1,0-.9Zm0,0" transform="translate(0)"/>
    <path id="Path_259" data-name="Path 259" class="cls-1" d="M163.647,154.7a.249.249,0,0,0-.249.249v4.706a.249.249,0,0,0,.5,0v-4.706A.249.249,0,0,0,163.647,154.7Zm0,0" transform="translate(-159.333 -150.852)"/>
  </g>
</svg>
