<svg xmlns="http://www.w3.org/2000/svg" width="38" height="38" viewBox="0 0 38 38">
    <defs>
        <linearGradient id="linear-gradient" x1="-.743" x2="-.44" y1=".083" y2=".185" gradientUnits="objectBoundingBox">
            <stop offset="0" stop-color="#f3f7ff"/>
            <stop offset="1" stop-color="#cdd9ff"/>
        </linearGradient>
        <style>
            .cls-1{fill:none}.cls-3{fill:#ff7eb8}.cls-4{fill:#2a719b}.cls-6{fill:#f9f9f9}.cls-7{fill:#4e89ad}.cls-12{stroke:none}
        </style>
    </defs>
    <g id="Quotation_rejected_by_customer" transform="translate(-1380 -531)">
        <path id="Rectangle_2676" d="M0 0H38V38H0z" class="cls-1" transform="translate(1380 531)"/>
        <g id="Group_12026" transform="translate(23.001 207)">
            <g id="Group_11979" transform="translate(1362 328)">
                <g id="Group_9859">
                    <g id="Group_9871">
                        <path id="Path_2687" fill="#d3ebfa" d="M21.739 3.023C15.8 3.023 11.727 0 8.867 0S0 1.617 0 14.554 8.081 29.39 11.227 29.39c14.731.001 21.024-26.367 10.512-26.367z" transform="rotate(180 13.542 14.695)"/>
                        <path id="Path_1742" d="M396.1 45.13a.3.3 0 0 1 .3.3.357.357 0 0 0 .357.357.3.3 0 0 1 0 .595.357.357 0 0 0-.357.357.3.3 0 1 1-.595 0 .357.357 0 0 0-.357-.357.3.3 0 0 1 0-.595.357.357 0 0 0 .357-.357.3.3 0 0 1 .295-.3z" class="cls-3" transform="translate(-395.153 -40.955)"/>
                        <path id="Path_2578" d="M60.607 416.172a.3.3 0 0 1 .3.3.357.357 0 0 0 .357.357.3.3 0 0 1 0 .595.357.357 0 0 0-.357.357.3.3 0 0 1-.595 0 .357.357 0 0 0-.357-.357.3.3 0 1 1 0-.595.357.357 0 0 0 .357-.357.3.3 0 0 1 .295-.3z" class="cls-3" transform="translate(-34.077 -396.812)"/>
                        <path id="Path_1744" d="M451.764 82.339a.3.3 0 0 1 .21.508l-.595.595a.3.3 0 0 1-.421-.421l.595-.595a.3.3 0 0 1 .211-.087z" class="cls-4" transform="translate(-449.909 -74.769)"/>
                        <path id="Path_1745" d="M88.547 40.13a.3.3 0 0 1 .21.508l-.595.595a.3.3 0 0 1-.421-.421l.595-.595a.3.3 0 0 1 .211-.087z" class="cls-4" transform="translate(-61.042 -17.993)"/>
                        <path id="Path_2720" d="M88.547 40.13a.3.3 0 0 1 .21.508l-.595.595a.3.3 0 0 1-.421-.421l.595-.595a.3.3 0 0 1 .211-.087z" class="cls-4" transform="translate(-85.584 -18.99)"/>
                    </g>
                </g>
            </g>
            <path id="Path_4041" fill="url(#linear-gradient)" d="M49.211 53.317H33.666A1.668 1.668 0 0 1 32 51.646V31.6a1.668 1.668 0 0 1 1.666-1.671c4.308 0 3.886-.381 3.886 1.671a.556.556 0 0 0 .555.557h6.662a.556.556 0 0 0 .555-.557v-1.116a.556.556 0 0 1 .555-.557h3.331a1.668 1.668 0 0 1 1.666 1.673v20.046a1.668 1.668 0 0 1-1.665 1.671z" transform="translate(1334.91 301.583)"/>
            <g id="Group_12025" transform="translate(1366.778 331.912)">
                <g id="Group_11977" transform="translate(1.635 .105)">
                    <path id="Path_4056" d="M109.733 255.167l-11.682-12.979.06 19.984a25.24 25.24 0 0 1 3.1 0c1.921.1 4.691 0 5.36 0 .937 0 .324-1.713.766-2.561.526-1.008.437-2.214 1.266-3.065.343-.356.754-1.077 1.13-1.379z" class="cls-6" transform="translate(-98.036 -241.698)"/>
                    <path id="Path_4057" d="M154.787 319.376v-7.85h-10.4l8.011 8.957a1.387 1.387 0 0 0 2.389-1.107z" class="cls-6" transform="translate(-139.883 -311.461)"/>
                    <path id="Path_4058" d="M8.848 55.487v-8.253H25.4v12.054a11.655 11.655 0 0 0-2.389 2.412c-1.177 1.577-2.225 2.976-2.225 2.976z" class="cls-6" transform="translate(-8.848 -47.234)"/>
                    <path id="Path_4060" d="M9.819 18.567a8.494 8.494 0 0 1 1.713-5.126 19.534 19.534 0 0 1 5.639-4.2v9.328z" class="cls-7" transform="translate(-.622 3.539)"/>
                </g>
                <path id="Path_4203" d="M4.9 9.733V0H1.208L.622.276.5 1.28v20.294l.233 1.081 1.347.46h16.08c-1.466-1.344-.373-5.107-.606-6.782C12.678 14.711 4.9 13.47 4.9 9.733zm0 0" class="cls-7" transform="translate(-.496)"/>
            </g>
            <path id="Path_4042" fill="none" stroke="#2e6089" stroke-width="1.5px" d="M47.264 53.319H31.671A1.671 1.671 0 0 1 30 51.648V31.6a1.671 1.671 0 0 1 1.671-1.671c4.105 0 3.929-.344 3.9 1.6v-.616h7.8v-.423a.557.557 0 0 1 .557-.557h3.341a1.671 1.671 0 0 1 1.666 1.667v20.048a1.671 1.671 0 0 1-1.671 1.671z" transform="translate(1336.327 301.581)"/>
            <path id="Path_4046" d="M47.374 71.114h-4.885a.562.562 0 0 1 0-1.114h4.885a.562.562 0 0 1 0 1.114z" class="cls-6" transform="translate(1326.219 278.176)"/>
            <path id="Path_4047" d="M45.658 87.114h-3.325c-.184 0-.333-.249-.333-.557s.149-.557.333-.557h3.325c.184 0 .333.249.333.557s-.149.557-.333.557z" class="cls-6" transform="translate(1326.219 263.867)"/>
            <path id="Path_4204" d="M47.749 87.114h-5.226a.558.558 0 0 1 0-1.114h5.226a.558.558 0 0 1 0 1.114z" class="cls-4" transform="translate(1330.365 250.739)"/>
            <path id="Path_4205" d="M45.622 87.114h-3.293c-.182 0-.329-.249-.329-.557s.147-.557.329-.557h3.292c.182 0 .329.249.329.557s-.15.557-.328.557z" class="cls-4" transform="translate(1330.365 252.812)"/>
            <path id="Path_4048" d="M73.294 53.514l-1.076-1.075a.574.574 0 0 1 .809-.812l.671.671 1.388-1.385a.574.574 0 0 1 .809.812l-1.79 1.79a.574.574 0 0 1-.812 0z" class="cls-3" transform="translate(1307.665 285.145)"/>
            <path id="Path_4049" d="M73.65 70.341l-1.315-1.318a.7.7 0 0 1 .989-.975l.82.82 1.7-1.693a.7.7 0 0 1 .989.992l-2.188 2.191a.7.7 0 0 1-.992-.018z" class="cls-3" transform="translate(1304.117 276.199)"/>
            <g id="Rectangle_2614" fill="#73aacf" stroke="#2e6089" transform="translate(1371.104 330.154)">
                <rect width="9.673" height="3.455" class="cls-12" rx="1.727"/>
                <rect width="8.673" height="2.455" x=".5" y=".5" class="cls-1" rx="1.227"/>
            </g>
            <g id="Group_12024" transform="translate(1371.693 338.768)">
                <g id="Group_12610">
                    <g id="Ellipse_678" fill="#fff" stroke="#2e6089" transform="translate(.292 .329)">
                        <circle cx="8.5" cy="8.5" r="8.5" class="cls-12"/>
                        <circle cx="8.5" cy="8.5" r="8" class="cls-1"/>
                    </g>
                    <path id="Path_4128" fill="#c2e1f4" d="M157.293 150.4a6.4 6.4 0 1 1-6.4-6.4 6.4 6.4 0 0 1 6.4 6.4zm0 0" transform="translate(-142.204 -141.671)"/>
                    <path id="Union_5" d="M6.409 8.242L4.274 6.158 2.139 8.242a1.818 1.818 0 0 1-1.832 0C-.207 7.851.08 6.68.08 6.68l2.265-2.4L.364 2.344A1.4 1.4 0 0 1 2.337.361L4.274 2.3 6.21.361a1.4 1.4 0 0 1 1.973 1.983L6.2 4.276l2.265 2.4s.288 1.171-.226 1.562a1.536 1.536 0 0 1-.907.247 1.486 1.486 0 0 1-.923-.243z" class="cls-3" transform="translate(4.291 4.329)"/>
                </g>
            </g>
        </g>
    </g>
</svg>
