<svg xmlns="http://www.w3.org/2000/svg" id="Group_9872" width="58" height="46" viewBox="0 0 58 46">
    <defs>
        <linearGradient id="linear-gradient" x1="-.743" x2="-.44" y1=".083" y2=".185" gradientUnits="objectBoundingBox">
            <stop offset="0" stop-color="#f3f7ff"/>
            <stop offset="1" stop-color="#cdd9ff"/>
        </linearGradient>
        <style>
            .cls-1{fill:none}.cls-3{fill:#ff7eb8}.cls-4{fill:#2a719b}.cls-8{fill:#4e89ad}.cls-7{fill:#f9f9f9}
        </style>
    </defs>
    <g id="Group_9870">
        <g id="Group_9859">
            <g id="Group_9717">
                <path id="Rectangle_1187" d="M0 0H58V46H0z" class="cls-1"/>
            </g>
        </g>
    </g>
    <g id="Group_13119" transform="translate(-1350.461 -248.455)">
        <g id="Group_12016" transform="translate(1362 254)">
            <g id="Group_11979">
                <g id="Group_9859-2">
                    <g id="Group_9871">
                        <path id="Path_2687" fill="#d3ebfa" d="M27.033 3.759C19.652 3.759 14.583 0 11.027 0S0 2.01 0 18.1s10.049 18.447 13.961 18.447c18.319.002 26.145-32.788 13.072-32.788z" transform="rotate(180 16.84 18.273)"/>
                        <path id="Path_1742" d="M396.337 45.13a.37.37 0 0 1 .37.37.444.444 0 0 0 .444.444.37.37 0 0 1 0 .74.444.444 0 0 0-.444.444.37.37 0 1 1-.74 0 .444.444 0 0 0-.444-.444.37.37 0 0 1 0-.74.444.444 0 0 0 .444-.444.37.37 0 0 1 .37-.37z" class="cls-3" transform="translate(-395.153 -42.617)"/>
                        <path id="Path_2578" d="M60.839 416.172a.37.37 0 0 1 .37.37.444.444 0 0 0 .444.444.37.37 0 0 1 0 .74.444.444 0 0 0-.444.444.37.37 0 1 1-.74 0 .444.444 0 0 0-.444-.444.37.37 0 0 1 0-.74.444.444 0 0 0 .444-.444.37.37 0 0 1 .37-.37z" class="cls-3" transform="translate(-27.848 -394.776)"/>
                        <path id="Path_1744" d="M451.982 82.339a.37.37 0 0 1 .262.631l-.74.74a.37.37 0 0 1-.523-.523l.74-.74a.368.368 0 0 1 .261-.108z" class="cls-4" transform="translate(-449.674 -75.603)"/>
                        <path id="Path_1745" d="M88.764 40.13a.37.37 0 0 1 .262.631l-.74.74a.37.37 0 0 1-.523-.523l.74-.74a.368.368 0 0 1 .261-.108z" class="cls-4" transform="translate(-54.56 -15.279)"/>
                        <path id="Path_2720" d="M88.764 40.13a.37.37 0 0 1 .262.631l-.74.74a.37.37 0 0 1-.523-.523l.74-.74a.368.368 0 0 1 .261-.108z" class="cls-4" transform="translate(-85.08 -16.519)"/>
                    </g>
                </g>
            </g>
            <path id="Path_4041" fill="url(#linear-gradient)" d="M53.4 59.02H34.071A2.074 2.074 0 0 1 32 56.943V32.012a2.074 2.074 0 0 1 2.071-2.078c5.358 0 4.833-.474 4.833 2.078a.691.691 0 0 0 .69.693h8.285a.691.691 0 0 0 .69-.693v-1.385a.691.691 0 0 1 .69-.693H53.4a2.074 2.074 0 0 1 2.071 2.078v24.931A2.074 2.074 0 0 1 53.4 59.02z" transform="translate(-25.895 -28.247)"/>
            <path id="Path_4042" fill="#4e89ad" stroke="#2e6089" stroke-width="1.5px" d="M51.468 59.021h-19.39A2.078 2.078 0 0 1 30 56.944V32.013a2.078 2.078 0 0 1 2.078-2.078c5.105 0 4.886-.428 4.848 1.984v-.766h9.7v-.526a.693.693 0 0 1 .693-.693h4.155a2.078 2.078 0 0 1 2.078 2.078v24.932a2.078 2.078 0 0 1-2.084 2.077z" transform="translate(-24.619 -28.248)"/>
            <g id="Group_11977" transform="translate(7.975 7.473)">
                <path id="Path_4056" d="M112.578 254.557l-14.527-12.369.074 19.044s1.464-.095 3.853 0 5.834 0 6.665 0c1.165 0 .4-1.632.953-2.441.654-.961.544-2.11 1.574-2.921.43-.338.94-1.025 1.408-1.313z" class="cls-7" transform="translate(-98.033 -241.579)"/>
                <path id="Path_4057" d="M157.32 321.288v-9.762h-12.933l9.962 11.138a1.724 1.724 0 0 0 2.971-1.376z" class="cls-7" transform="translate(-140.609 -311.445)"/>
                <path id="Path_4058" d="M8.848 54.744v-7.51H27.6V58.2a12.376 12.376 0 0 0-2.7 2.2c-1.334 1.435-2.522 2.708-2.522 2.708z" class="cls-7" transform="translate(-8.848 -47.234)"/>
                <path id="Path_4060" d="M9.82 20.838a10.562 10.562 0 0 1 2.131-6.375c2.286-2.9 7.012-5.225 7.012-5.225v11.6z" class="cls-8" transform="translate(-.205 .833)"/>
            </g>
            <path id="Path_4045" d="M46.549 55.385h-4.135c-.228 0-.414-.31-.414-.693s.185-.693.414-.693h4.135c.228 0 .414.31.414.693s-.186.693-.414.693z" class="cls-4" transform="translate(-32.456 -44.003)"/>
            <path id="Path_4046" d="M46.549 71.385h-4.135c-.228 0-.414-.31-.414-.693s.185-.693.414-.693h4.135c.228 0 .414.31.414.693s-.186.693-.414.693z" class="cls-4" transform="translate(-32.456 -54.463)"/>
            <path id="Path_4047" d="M46.549 87.385h-4.135c-.228 0-.414-.31-.414-.693s.185-.693.414-.693h4.135c.228 0 .414.31.414.693s-.186.693-.414.693z" class="cls-4" transform="translate(-32.456 -64.922)"/>
            <path id="Path_4048" d="M73.928 54.936L72.3 53.3a.87.87 0 0 1 1.227-1.231l1.018 1.018 2.106-2.1a.87.87 0 0 1 1.227 1.231l-2.715 2.715a.87.87 0 0 1-1.231 0z" class="cls-3" transform="translate(-54.312 -41.888)"/>
            <path id="Path_4049" d="M74 71.156l-1.635-1.639A.872.872 0 0 1 73.6 68.3l1.02 1.02 2.11-2.106a.872.872 0 0 1 1.23 1.234l-2.721 2.725A.872.872 0 0 1 74 71.156z" class="cls-3" transform="translate(-54.397 -52.498)"/>
            <g id="Group_11978" transform="translate(20.361 10.75)">
                <path id="Path_4002" d="M58.892 18.316l-1.4 1.4-2.884-2.876 1.4-1.4z" class="cls-8" transform="translate(-42.227 -15.444)"/>
                <path id="Path_4003" fill="#c2e1f4" d="M43.806 22.054l-4.634 4.756-1.708 1.753-4.228 4.337L30.27 30l5.437-5.58 1.708-1.749 3.425-3.52z" transform="translate(-28.482 -17.783)"/>
                <path id="Path_4008" d="M31.3 46.8l-4.755 2.379 1.786-5.286z" class="cls-3" transform="translate(-26.542 -31.715)"/>
            </g>
            <g id="Rectangle_2614" fill="#73aacf" stroke="#2e6089" transform="translate(11.321)">
                <rect width="12.029" height="4.296" stroke="none" rx="2"/>
                <rect width="11.029" height="3.296" x=".5" y=".5" class="cls-1" rx="1.5"/>
            </g>
        </g>
    </g>
</svg>
