<svg xmlns="http://www.w3.org/2000/svg" width="16" height="16" viewBox="0 0 16 16">
    <path fill="none" d="M0 0H16V16H0z"/>
    <g>
        <g>
            <path fill="#8397af" fill-rule="evenodd" d="M12.843 5.531h1.232a.708.708 0 0 1 .674.922l-2.231 4.088c-.269.349-.727.348-1.069-.137L9.218 6.453a.681.681 0 0 1 .674-.922h1.09a4.458 4.458 0 0 0-4.529-3.687 4.614 4.614 0 0 0-4.609 4.609 4.477 4.477 0 0 0 4.609 4.609v1.844A6.378 6.378 0 0 1 0 6.453 6.46 6.46 0 0 1 6.453 0a6.37 6.37 0 0 1 6.391 5.531" transform="translate(1 3) translate(0 -1)"/>
        </g>
    </g>
</svg>
