<svg xmlns="http://www.w3.org/2000/svg" width="178.17" height="134.416" viewBox="0 0 178.17 134.416">
    <defs>
        <filter id="Rectangle_1511" width="107.66" height="58.845" x="0" y="66.413" filterUnits="userSpaceOnUse">
            <feOffset dx="14" dy="12"/>
            <feGaussianBlur result="blur" stdDeviation="1"/>
            <feFlood flood-color="#8397af" flood-opacity=".2"/>
            <feComposite in2="blur" operator="in"/>
            <feComposite in="SourceGraphic"/>
        </filter>
        <style>
            .cls-18,.cls-20{fill:#fff}.cls-3{fill:#afb4c4}.cls-10{fill:none}.cls-11{fill:#8397af}.cls-14{opacity:.2}.cls-15{fill:#b6c0ce}.cls-18{stroke:#e6e9f1;opacity:.6}.cls-29{fill:#9d9fb7}.cls-25{fill:#8e0016}.cls-30{stroke:none}
        </style>
    </defs>
    <g id="Group_8784" transform="translate(-44.838 -149)">
        <g id="Group_8780" transform="translate(61.432 149)">
            <path id="Path_2157" fill="#fff" d="M5.276 0H156.3c2.914 0 5.276 1.672 5.276 3.734v126.948c0 2.062-2.362 3.734-5.276 3.734H5.276c-2.914 0-5.276-1.672-5.276-3.734V3.734C0 1.672 2.362 0 5.276 0z" opacity="0.4"/>
            <g id="Group_8765" transform="translate(23.742 20.191)">
                <g id="Group_8751" opacity="0.4" transform="translate(64.343)">
                    <g id="Group_10" transform="translate(10.726 41.889)">
                        <g id="Group_9" transform="translate(0 3.945)">
                            <path id="Path_3" d="M336.469 376.361l-7.368 4.016a.729.729 0 0 0-.38.64v.35s8.139-2.993 8.223-2.993 10.768 1.874 10.768 1.874l-.057-.309a.729.729 0 0 0-.519-.569z" class="cls-3" transform="translate(-326.596 -374.589)"/>
                            <path id="Path_4" d="M329.471 370.524l-9.391-.89a.38.38 0 0 0-.41.3l-.073.362 8.643 1.874 4.027-.588 4.895-2.238-.113-.337a.381.381 0 0 0-.453-.249z" class="cls-3" transform="translate(-319.598 -368.752)"/>
                        </g>
                        <path id="Rectangle_8" d="M0 0H1.764V6.631H0z" class="cls-3" transform="translate(9.251)"/>
                    </g>
                    <g id="Group_11">
                        <path id="Path_5" fill="#d0d5e5" d="M309.135 183.631s-3.13 5.786-20.833 1.187c0 0-5.585-1.928-6.849 1.776s4.107 8.3 5.8 12.239c0 0 2.379 4.6.144 7.472s-7.824-.764-7.824-.764-2.682-1.285-4.748.168-.989 5.883-.989 5.883l1.925 3.739 16.108 3.567 17.271-11.4 2.176-15.908z" opacity="0.8" transform="translate(-273.551 -181.583)"/>
                        <path id="Path_6" fill="#bdc0cc" d="M282.708 301.367l18.366-.485s-.528 4.568-12.775 4.568c0 0-6.534-.066-6.9-2.6a1.334 1.334 0 0 1 1.31-1.487z" transform="translate(-279.561 -271.518)"/>
                        <path id="Path_7" fill="#c5cbe0" d="M304.375 270.669c-.1-.029-1.622-1.083-4.621.531-2.866 1.543-5.026 5.507-7.177 7.634a10.414 10.414 0 0 1-7.975 3.061c-5.352-.083-7.6-.522-9.846-3.821l.276.679 2.65 3.9h13.981z" transform="translate(-274.477 -248.064)"/>
                        <path id="Path_8" fill="#c9ccd8" d="M281.017 209.217s6.947 1.027 10.954-1.952c3.822-2.842 5.026-7.46 9.765-9.662a3.516 3.516 0 0 1 2.1-.278 6.768 6.768 0 0 1 3.747 2.242c3 3.251 3.287-5.659 3.287-5.659a43.081 43.081 0 0 0-.679-11.211c-.978-4.108.049-9.971 2.426-7.072 0 0 1.6 4.21.517 17.819 0 0-.825 13-7.81 19.367s-19.143 5.58-26.3-1.465a16.351 16.351 0 0 1-4.271-6.489 7.1 7.1 0 0 0 6.264 4.36z" transform="translate(-274.477 -174.848)"/>
                    </g>
                </g>
            </g>
            <g id="Group_8770" opacity="0.999" transform="translate(101.605 54.076)">
                <g id="Path_2153" opacity="0.655">
                    <path id="Path_2230" d="M6.549 0A6.549 6.549 0 1 1 0 6.549 6.549 6.549 0 0 1 6.549 0z" class="cls-10" transform="translate(.659 .659)"/>
                    <path id="Path_2231" d="M5.879-1h.659v.007a7.209 7.209 0 0 1 6.12 3.979l.148.295-.59.3-.147-.295a6.545 6.545 0 0 0-.328-.58l-.019-.029-.008-.012-.014-.022v-.012l-.024-.031-.007-.011-.011-.017-.008-.011-.008-.011v-.006l-.008-.011-.008-.011v-.011l-.026-.018-.008-.011v-.01l-.007-.011v-.015l-.007-.01v-.005l-.007-.01V2.4l-.005-.006-.008-.01-.006-.007-.009-.01-.009-.01-.009-.01-.009-.01-.009-.011-.365-.426-.023-.026-.01-.011A6.583 6.583 0 0 0 9.7.665a6.51 6.51 0 0 0-2.822-.972H5.014L5-.23H4.552l-.019.005h-.044L4.47-.22l-.02.12-.019.005-.093.025-.019.006-.048.015a6.529 6.529 0 0 0-2 1.023l-.263.2-.4-.527.263-.2a7.139 7.139 0 0 1 4-1.44zm7.394 5.727l.053.326a7.206 7.206 0 0 1-2.9 7l-.267.193-.386-.535.267-.193a6.583 6.583 0 0 0 .657-.543l.018-.017.014-.013.01-.009.006-.006.008-.008.012-.012.012-.013.012-.013.016-.017.016-.017.016-.017a6.577 6.577 0 0 0 .533-.661l.013-.019.01-.015.01-.014.006-.01.006-.009v-.006l.007-.011.01-.016.013-.02q.129-.207.242-.424a6.5 6.5 0 0 0 .642-1.882v-.025l.009-.055V6.215 5.339c-.008-.058-.016-.115-.026-.172l-.052-.323zM1.346 10.608l.231.231a6.535 6.535 0 0 0 3.513 1.824h1.682a6.518 6.518 0 0 0 1.516-.313l.309-.1.209.626-.313.1a7.218 7.218 0 0 1-7.381-1.741l-.233-.233zM.551 1.729l.535.386-.193.267q-.057.08-.112.161l-.005.008-.008.012-.008.012-.02.025-.005.008-.005.008-.03.046V3l-.005.009-.005.009-.005.009-.232.053-.005.01-.005.01-.005.01-.007.013-.007.013-.024.041-.005.01-.007.013-.007.013-.007.013-.005.01-.019.042-.009.022-.007.014-.005.01-.007.014-.031.062-.008.018-.007.012-.016.036q-.051.11-.1.223l-.036.087-.004.015-.027.07-.014.039-.005.015-.005.015-.01.02-.007.019-.005.015-.008.022-.005.015-.007.018v.039L0 4.11V7.275l.005.031.02.11a6.507 6.507 0 0 0 .385 1.84l.152.29-.584.307-.154-.292A7.226 7.226 0 0 1-1 6.209 7.158 7.158 0 0 1 .358 2z" class="cls-11" transform="translate(1 1)"/>
                </g>
                <g id="Path_2156" transform="rotate(20.97 -3.722 14.725)">
                    <path id="Path_2232" d="M3.793 0A3.793 3.793 0 1 1 0 3.793 3.793 3.793 0 0 1 3.793 0z" class="cls-10"/>
                    <path id="Path_2233" d="M3.793 0H4.529l.029.006h.006A3.775 3.775 0 0 1 6.03.73l.023.017.019.013.028.019.019.021.013.01.029.02h.007l.009.007h.043l.008.007h.013L6.249.9h.014l.007.021H6.36l.007.006.011.011.011.011L6.4.96l.013.014.013.013.013.014.009.009.019.021.017.018.013.014.021.024.017.019.016.019-.5.426A3.13 3.13 0 0 0 3.793.659V0zm3.732 3.114a3.807 3.807 0 0 1 .058.549v1.373h-.268v.057l-.006.014-.006.014-.006.013-.067.266a3.8 3.8 0 0 1-.509.805l-.509-.42a3.142 3.142 0 0 0 .665-2.554zM2.266 6.53a3.143 3.143 0 0 0 2.632.2l.232.617a3.767 3.767 0 0 1-.79.2H3.153q-.12-.021-.237-.049l-.066-.016H2.472a3.772 3.772 0 0 1-.521-.241zM.2 2.567l.624.213A3.143 3.143 0 0 0 1.1 5.4l-.565.34a3.779 3.779 0 0 1-.252-.5V3.985H0V3.203q.054-.052.063-.103v-.023l.009-.043V2.782q.105-.141.128-.215zM3.793 0v.659a3.13 3.13 0 0 0-2.066.778l-.435-.5a3.809 3.809 0 0 1 .38-.289L1.744.6l.024-.015h.005L1.792.57h.01l.019-.018h.007l.017-.01h.015l.01-.019H1.94l.01-.046h.018l.01-.005H2.3L2.31.3h.248L2.57.2H3.79z" class="cls-11"/>
                </g>
            </g>
            <g id="Group_8776" transform="translate(25.086 23.74)">
                <path id="Line_117" fill="none" stroke="#b6c0ce" stroke-width="0.5px" d="M0 0L49.462 0" opacity="0.4" transform="translate(16.792 .49)"/>
                <path id="Line_118" fill="none" stroke="#b6c0ce" stroke-width="0.5px" d="M0 0L23.082 0" opacity="0.3" transform="translate(43.171 4.447)"/>
                <g id="Group_8768" class="cls-14">
                    <path id="Path" d="M3.847 2.427a.654.654 0 0 1 0 .911l-.51.508a.659.659 0 0 1-.915 0L.185 1.6a.654.654 0 0 1 0-.911L.7.184a.659.659 0 0 1 .915 0z" class="cls-15" transform="translate(0 1.631)"/>
                    <path id="Path-2" d="M4.059.184a.659.659 0 0 1 .915 0l.51.508a.654.654 0 0 1 0 .911L1.611 5.442a.659.659 0 0 1-.915 0l-.511-.508a.654.654 0 0 1 0-.911z" class="cls-15" transform="translate(1.743 .001)"/>
                </g>
            </g>
            <g id="Group_8775" transform="translate(119.698 59.354)">
                <path id="Path_2154" fill="#cdd5df" stroke="#b6c0ce" stroke-width="0.5px" d="M0 0h19.785" opacity="0.4" transform="translate(0 2.571)"/>
                <g id="Group_8774" class="cls-14" transform="translate(24.166)">
                    <path id="Path-3" d="M3.092 1.951a.528.528 0 0 1 0 .733l-.41.408a.532.532 0 0 1-.736 0l-1.8-1.8a.528.528 0 0 1 0-.733L.559.148a.532.532 0 0 1 .736 0z" class="cls-11" transform="translate(-.001 1.31)"/>
                    <path id="Path-4" d="M3.262.148a.532.532 0 0 1 .738 0l.41.408a.528.528 0 0 1 0 .733L1.295 4.374a.532.532 0 0 1-.736 0l-.41-.409a.528.528 0 0 1 0-.733z" class="cls-11" transform="translate(1.4)"/>
                </g>
            </g>
        </g>
        <g id="Rectangle_1566" fill="#e6e9f1" stroke="#cdd5df" stroke-dasharray="3" opacity="0.4" transform="translate(154.004 168.668)">
            <rect width="16" height="16" class="cls-30" rx="6"/>
            <rect width="15" height="15" x=".5" y=".5" class="cls-10" rx="5.5"/>
        </g>
        <g id="Rectangle_1567" class="cls-18">
            <path d="M0 0H39V39H0z" class="cls-30" transform="translate(171.004 235.668)"/>
            <path d="M0.5 0.5H38.5V38.5H0.5z" class="cls-10" transform="translate(171.004 235.668)"/>
        </g>
        <path id="Path_2158" fill="#9d9fb7" d="M3.135 2.551V5.7H0v1.327s2.343 1.109 3.845.778A3.518 3.518 0 0 0 6 5.7h8.467a6.487 6.487 0 0 0 2.888 2.1 4.561 4.561 0 0 0 3.085-.778V5.7h-3.085V2.552h3.085V.758a4.14 4.14 0 0 0-3.085-.65 7.184 7.184 0 0 0-2.888 2.444H6S5.345.557 3.845.108 0 .758 0 .758v1.794z" opacity="0.2" transform="rotate(133 45.762 168.896)"/>
        <g id="Rectangle_1568" class="cls-18">
            <path d="M0 0H39V39H0z" class="cls-30" transform="translate(128.004 235.668)"/>
            <path d="M0.5 0.5H38.5V38.5H0.5z" class="cls-10" transform="translate(128.004 235.668)"/>
        </g>
        <g id="Group_8783" transform="translate(44.838 215.413)">
            <g id="Group_8753">
                <g filter="url(#Rectangle_1511)" transform="translate(0 -66.41)">
                    <path id="Rectangle_1511-2" d="M0 0H90.66V43.845H0z" class="cls-20" transform="translate(0 66.41)"/>
                </g>
                <path id="Rectangle_1513" fill="#c9001f" d="M0 0H29.725V31.706H0z" transform="translate(7.183 4.459)"/>
                <rect id="Rectangle_1515" width="34.431" height="2.229" fill="#8397af" opacity="0.721" rx="1.115" transform="translate(44.359 15.135)"/>
                <rect id="Rectangle_1516" width="34.431" height="2.229" fill="#8397af" opacity="0.718" rx="1.115" transform="translate(44.359 8.957)"/>
                <rect id="Rectangle_1517" width="20.311" height="2.229" fill="#8397af" opacity="0.717" rx="1.115" transform="translate(44.293 19.842)"/>
                <g id="Group_8751-2" transform="translate(13.361 9.965)">
                    <g id="Group_10-2" transform="translate(4.503 17.304)">
                        <g id="Group_9-2" transform="translate(0 1.656)">
                            <path id="Path_3-2" d="M331.975 376.361l-3.093 1.686a.306.306 0 0 0-.16.268v.147s3.417-1.256 3.452-1.256 4.52.787 4.52.787l-.024-.132a.306.306 0 0 0-.218-.239z" class="cls-25" transform="translate(-327.83 -375.616)"/>
                            <path id="Path_4-2" d="M323.743 369.495l-3.942-.374a.16.16 0 0 0-.172.128l-.03.152 3.627.787 1.691-.247 2.055-.939-.047-.142a.16.16 0 0 0-.19-.1z" class="cls-25" transform="translate(-319.598 -368.751)"/>
                        </g>
                        <path id="Rectangle_8-2" d="M0 0H0.741V2.784H0z" class="cls-25" transform="translate(3.884)"/>
                    </g>
                    <g id="Group_11-2">
                        <path id="Path_5-2" d="M288.487 183.631s-1.314 2.429-8.745.5c0 0-2.344-.809-2.875.745s1.724 3.485 2.433 5.137c0 0 1 1.932.06 3.137s-3.284-.321-3.284-.321a2.17 2.17 0 0 0-1.994.071c-.868.61-.415 2.47-.415 2.47l.808 1.57 6.762 1.5 7.25-4.786.913-6.678z" class="cls-20" transform="translate(-273.548 -182.775)"/>
                        <path id="Path_6-2" fill="#fddbe1" d="M281.938 301.086l7.71-.2s-.276 1.866-5.416 1.866c0 0-2.689.022-2.844-1.039a.56.56 0 0 1 .55-.623z" transform="translate(-280.617 -288.559)"/>
                        <path id="Path_7-2" fill="#f4c3cb" d="M287.189 270.457c-.044-.012-.681-.454-1.94.223-1.2.648-2.11 2.312-3.013 3.2a4.372 4.372 0 0 1-3.348 1.285c-2.247-.035-3.19-.22-4.133-1.6l1.228 1.922h5.87z" transform="translate(-274.638 -260.971)"/>
                        <path id="Path_8-2" fill="#ffe6ea" d="M277.384 189.28s2.916.431 4.6-.819c1.6-1.193 2.11-3.131 4.1-4.056a1.475 1.475 0 0 1 .882-.117 2.841 2.841 0 0 1 1.573.942c1.26 1.365 1.38-2.374 1.38-2.374a18.092 18.092 0 0 0-.285-4.707c-.411-1.725.02-4.185 1.018-2.968 0 0 .673 1.767.217 7.48 0 0-.346 5.457-3.278 8.13s-8.036 2.343-11.039-.615a6.864 6.864 0 0 1-1.793-2.724 2.98 2.98 0 0 0 2.625 1.828z" transform="translate(-274.638 -174.856)"/>
                    </g>
                </g>
            </g>
            <g id="Group_8767" transform="translate(44.318 27.734)">
                <path id="Path-5" d="M3.847 2.427a.654.654 0 0 1 0 .911l-.51.508a.659.659 0 0 1-.915 0L.185 1.6a.654.654 0 0 1 0-.911L.7.184a.659.659 0 0 1 .915 0z" class="cls-11" transform="translate(0 1.631)"/>
                <path id="Path-6" d="M4.059.184a.659.659 0 0 1 .915 0l.51.508a.654.654 0 0 1 0 .911L1.611 5.442a.659.659 0 0 1-.915 0l-.511-.508a.654.654 0 0 1 0-.911z" class="cls-11" transform="translate(1.743 .001)"/>
            </g>
        </g>
        <g id="Layer_3" class="cls-14" transform="translate(139.912 247.924)">
            <g id="Group_8715">
                <path id="Path_2076" d="M12.351 2.3V.021h-1.234V2.3H7.976a1.756 1.756 0 0 0-1.754 1.752v3.156H4.393V4.426H2.7v2.781H1.6A1.566 1.566 0 0 0 .032 8.773v4.047h1.5a2.06 2.06 0 1 1 4.089-.347 2.032 2.032 0 0 1-.03.347h2.85a2.06 2.06 0 1 1 4.089-.347 1.978 1.978 0 0 1-.03.347h1.438V4.052A1.757 1.757 0 0 0 12.35 2.3z" class="cls-29" transform="translate(-.032 -.021)"/>
                <circle id="Ellipse_121" cx="1.459" cy="1.459" r="1.459" class="cls-29" transform="translate(8.98 10.992)"/>
                <circle id="Ellipse_122" cx="1.459" cy="1.459" r="1.459" class="cls-29" transform="translate(2.069 10.992)"/>
            </g>
        </g>
    </g>
</svg>
