<svg xmlns="http://www.w3.org/2000/svg" width="64" height="66" viewBox="0 0 64 66">
    <defs>
        <style>
            .cls-1{fill:none}.cls-2{fill:#ebf5ff}.cls-3{fill:#ff7eb8}.cls-4{fill:#2a719b}.cls-5{fill:#226191}.cls-6{fill:#eaf7ff}.cls-10{fill:#4e89ad}.cls-11{fill:#c1ddf7}.cls-12{fill:#014073}
        </style>
    </defs>
    <g id="Report" transform="translate(-183 -348.758)">
        <g id="Group_9870" transform="translate(183 348.757)">
            <g id="Group_9859">
                <g id="Group_9717">
                    <path id="Rectangle_1187" d="M0 0H64V66H0z" class="cls-1"/>
                </g>
            </g>
        </g>
        <g id="Group_3365" transform="translate(184.07 350.768)">
            <path id="Path_2748" d="M41.02 6.062C30.445 6.062 23.183.584 18.087.584S2.29 3.513 2.29 26.955s14.4 26.882 20 26.882c26.247.001 37.458-47.775 18.73-47.775z" class="cls-2" transform="translate(12.586 -.013)"/>
            <g id="Group_9825" transform="translate(0 9.18)">
                <g id="Group_3347">
                    <path id="Path_1742" d="M397.225 49.273a.647.647 0 0 1-.647-.647.778.778 0 0 0-.777-.777.647.647 0 0 1 0-1.295.778.778 0 0 0 .777-.777.647.647 0 1 1 1.295 0 .778.778 0 0 0 .777.777.647.647 0 0 1 0 1.295.778.778 0 0 0-.777.777.647.647 0 0 1-.648.647z" class="cls-3" transform="translate(-342.243 -39.293)"/>
                    <path id="Path_2578" d="M61.726 420.315a.647.647 0 0 1-.647-.647.778.778 0 0 0-.777-.777.647.647 0 0 1 0-1.295.778.778 0 0 0 .777-.777.647.647 0 0 1 1.295 0 .778.778 0 0 0 .777.777.647.647 0 0 1 0 1.295.778.778 0 0 0-.777.777.647.647 0 0 1-.648.647z" class="cls-3" transform="translate(-59.532 -389.136)"/>
                    <g id="Group_3346">
                        <path id="Path_1744" d="M451.52 84.929a.647.647 0 0 1-.458-1.1l1.295-1.295a.647.647 0 0 1 .915.915l-1.294 1.295a.645.645 0 0 1-.458.185z" class="cls-4" transform="translate(-398.508 -82.339)"/>
                        <path id="Path_1745" d="M88.3 42.719a.647.647 0 0 1-.458-1.1l1.295-1.295a.647.647 0 0 1 .915.915l-1.293 1.291a.645.645 0 0 1-.459.189z" class="cls-4" transform="translate(-87.654 -17.586)"/>
                        <path id="Path_2579" d="M88.3 42.719a.647.647 0 0 1-.458-1.1l1.295-1.295a.647.647 0 0 1 .915.915l-1.293 1.291a.645.645 0 0 1-.459.189z" class="cls-4" transform="translate(-37.563 -6.797)"/>
                    </g>
                </g>
            </g>
            <g id="Group_9824" transform="translate(7.348 6.022)">
                <g id="analysis" transform="translate(2.531 47.391)">
                    <g id="Group_9673">
                        <path id="Path_2588" d="M11.75 25.75h29.822v1.155H11.75z" class="cls-5" transform="translate(-11.75 -25.75)"/>
                    </g>
                    <g id="Group_9709" transform="translate(0 3.213)">
                        <path id="Path_2588-2" d="M11.75 25.75h42.46v1.155H11.75z" class="cls-5" transform="translate(-11.75 -25.75)"/>
                    </g>
                </g>
                <g id="Group_3329" transform="translate(11.866 13.809)">
                    <path id="Path_1713" d="M246.494 220.645a.494.494 0 0 0 .494-.494v-1.137a.494.494 0 0 0-.989 0v1.137a.494.494 0 0 0 .495.494z" class="cls-6" transform="translate(-238.168 -214.887)"/>
                    <path id="Path_1714" d="M246.494 183.912a.494.494 0 0 0 .494-.494v-1.138a.494.494 0 1 0-.989 0v1.137a.494.494 0 0 0 .495.495z" class="cls-6" transform="translate(-238.168 -181.786)"/>
                    <path id="Path_1715" d="M246.494 328.716a.494.494 0 0 0-.494.494v1.137a.494.494 0 1 0 .989 0v-1.137a.494.494 0 0 0-.495-.494z" class="cls-6" transform="translate(-238.168 -314.188)"/>
                    <path id="Path_1716" d="M246.494 291.984a.494.494 0 0 0-.494.494v1.137a.494.494 0 1 0 .989 0v-1.137a.494.494 0 0 0-.495-.494z" class="cls-6" transform="translate(-238.168 -281.088)"/>
                    <path id="Path_1717" d="M241.881 255.819h-.074v-.074a.494.494 0 1 0-.989 0v.074h-.074a.494.494 0 0 0 0 .989h.074v.074a.494.494 0 1 0 .989 0v-.074h.074a.494.494 0 0 0 0-.989z" class="cls-6" transform="translate(-232.986 -247.987)"/>
                    <path id="Path_1718" d="M278.613 261h-1.137a.494.494 0 1 0 0 .989h1.137a.494.494 0 0 0 0-.989z" class="cls-6" transform="translate(-266.086 -253.169)"/>
                    <path id="Path_1719" d="M315.345 261h-1.137a.494.494 0 0 0 0 .989h1.137a.494.494 0 1 0 0-.989z" class="cls-6" transform="translate(-299.186 -253.169)"/>
                    <path id="Path_1720" d="M168.417 261h-1.137a.494.494 0 1 0 0 .989h1.137a.494.494 0 1 0 0-.989z" class="cls-6" transform="translate(-166.786 -253.169)"/>
                    <path id="Path_1721" d="M205.149 261h-1.137a.494.494 0 1 0 0 .989h1.137a.494.494 0 1 0 0-.989z" class="cls-6" transform="translate(-199.886 -253.169)"/>
                </g>
                <path id="Path_1722" fill="#bae1f8" d="M65.786 61.13a19.677 19.677 0 1 0 19.658 19.677A19.667 19.667 0 0 0 65.786 61.13zm0 29.517a9.84 9.84 0 1 1 9.83-9.84 9.836 9.836 0 0 1-9.83 9.84z" transform="translate(-45.593 -60.224)"/>
                <g id="Group_3344">
                    <g id="Group_3330">
                        <path id="Path_1723" fill="#2d719b" d="M66.218 41.13a20.089 20.089 0 1 0 20.09 20.089 20.089 20.089 0 0 0-20.09-20.089zm0 30.136a10.047 10.047 0 0 1-10.046-10.047c0-5.548 5.873-9.779 10.046-9.4s10.046 3.855 10.046 9.4a10.047 10.047 0 0 1-10.046 10.047z" transform="translate(-46.129 -41.13)"/>
                        <path id="Path_1724" d="M120.456 41.128v10.127a10.1 10.1 0 0 0-7.163 2.968l-7.161-7.162a20.194 20.194 0 0 1 14.324-5.933z" class="cls-3" transform="translate(-99.663 -40.592)"/>
                        <path id="Path_1725" fill="#fff" d="M59.222 108.295a10.1 10.1 0 0 0-2.968 7.163H46.127a20.194 20.194 0 0 1 5.933-14.324z" transform="translate(-45.591 -94.664)"/>
                        <path id="Path_1726" d="M59.221 253.164l-7.161 7.162A20.194 20.194 0 0 1 46.126 246h10.127a10.1 10.1 0 0 0 2.968 7.164z" class="cls-10" transform="translate(-45.591 -226.369)"/>
                        <path id="Path_1727" d="M120.456 321.408v10.127a20.194 20.194 0 0 1-14.324-5.933l7.161-7.162a10.1 10.1 0 0 0 7.163 2.968z" class="cls-11" transform="translate(-99.663 -291.646)"/>
                        <path id="Path_1728" d="M265.324 325.6A20.194 20.194 0 0 1 251 331.535v-10.127a10.1 10.1 0 0 0 7.162-2.968z" class="cls-3" transform="translate(-231.407 -291.646)"/>
                        <path id="Path_1729" d="M336.533 246a20.194 20.194 0 0 1-5.933 14.324l-7.161-7.162a10.1 10.1 0 0 0 2.967-7.162z" class="cls-10" transform="translate(-296.682 -226.369)"/>
                        <path id="Path_1730" d="M336.534 115.457h-10.127a10.1 10.1 0 0 0-2.968-7.163l7.162-7.162a20.194 20.194 0 0 1 5.933 14.325z" class="cls-11" transform="translate(-296.683 -94.664)"/>
                        <circle id="Ellipse_702" cx="10.613" cy="10.613" r="10.613" class="cls-2" transform="translate(9.297 9.575)"/>
                    </g>
                    <g id="Group_3343" transform="translate(.041 .041)">
                        <g id="Group_3342">
                            <g id="Group_3332">
                                <g id="Group_3331">
                                    <path id="Path_1731" d="M61.28 36.13a20.135 20.135 0 0 0-6.019.915.481.481 0 0 0 .286.917A19.152 19.152 0 0 1 60.8 37.1v8.888a10.273 10.273 0 0 0-6.465 2.685l-6.28-6.286a19.231 19.231 0 0 1 4.545-3.223.48.48 0 0 0-.435-.857 20.155 20.155 0 1 0 9.115-2.177zM80.471 56.3a19.152 19.152 0 0 1-5.292 13.233L68.9 63.252a10.293 10.293 0 0 0 2.682-6.471H77.6a.481.481 0 0 0 0-.961h-6.014a10.293 10.293 0 0 0-2.686-6.47l6.276-6.282A19.152 19.152 0 0 1 80.471 56.3zm-38.377.481h8.879a10.293 10.293 0 0 0 2.682 6.471l-6.276 6.282a19.152 19.152 0 0 1-5.286-12.752zm19.186-9.846a9.366 9.366 0 1 1-9.357 9.365 9.372 9.372 0 0 1 9.357-9.365zm6.945 1.735a10.273 10.273 0 0 0-6.465-2.685V37.1a19.115 19.115 0 0 1 12.74 5.288zm-13.89 15.262a10.273 10.273 0 0 0 6.465 2.685V75.5a19.115 19.115 0 0 1-12.74-5.291zm7.425 2.685a10.273 10.273 0 0 0 6.465-2.685l6.275 6.282A19.115 19.115 0 0 1 61.76 75.5zM45 46.117a19.3 19.3 0 0 1 2.37-3.055l6.282 6.288a10.293 10.293 0 0 0-2.682 6.471h-8.875A19.162 19.162 0 0 1 45 46.117z" class="cls-1" transform="translate(-41.128 -36.13)"/>
                                </g>
                            </g>
                            <g id="Group_3333" transform="translate(19.657 15.583)">
                                <path id="Path_1732" d="M246.494 200.645a.494.494 0 0 0 .494-.494v-1.137a.494.494 0 0 0-.989 0v1.137a.494.494 0 0 0 .495.494z" class="cls-12" transform="translate(-246 -198.519)"/>
                            </g>
                            <g id="Group_3334" transform="translate(19.657 12.058)">
                                <path id="Path_1733" d="M246.494 163.913a.494.494 0 0 0 .494-.494v-1.137a.494.494 0 0 0-.989 0v1.137a.494.494 0 0 0 .495.494z" class="cls-12" transform="translate(-246 -161.787)"/>
                            </g>
                            <g id="Group_3335" transform="translate(19.657 26.158)">
                                <path id="Path_1734" d="M246.494 308.716a.494.494 0 0 0-.494.495v1.137a.494.494 0 0 0 .989 0v-1.138a.494.494 0 0 0-.495-.494z" class="cls-12" transform="translate(-246 -308.716)"/>
                            </g>
                            <g id="Group_3336" transform="translate(19.657 22.633)">
                                <path id="Path_1735" d="M246.494 271.983a.494.494 0 0 0-.494.494v1.137a.494.494 0 1 0 .989 0v-1.137a.494.494 0 0 0-.495-.494z" class="cls-12" transform="translate(-246 -271.983)"/>
                            </g>
                            <g id="Group_3337" transform="translate(19.089 19.108)">
                                <path id="Path_1736" d="M240.744 236.808h.074v.074a.494.494 0 0 0 .989 0v-.074h.074a.494.494 0 1 0 0-.989h-.074v-.074a.494.494 0 0 0-.989 0v.074h-.074a.494.494 0 1 0 0 .989z" class="cls-12" transform="translate(-240.25 -235.251)"/>
                            </g>
                            <g id="Group_3338" transform="translate(22.61 19.677)">
                                <path id="Path_1737" d="M277.476 241.99h1.137a.494.494 0 0 0 0-.989h-1.137a.494.494 0 0 0 0 .989z" class="cls-12" transform="translate(-276.982 -241.001)"/>
                            </g>
                            <g id="Group_3339" transform="translate(26.131 19.677)">
                                <path id="Path_1738" d="M314.208 241.99h1.137a.494.494 0 1 0 0-.989h-1.137a.494.494 0 0 0 0 .989z" class="cls-12" transform="translate(-313.714 -241.001)"/>
                            </g>
                            <g id="Group_3340" transform="translate(12.046 19.677)">
                                <path id="Path_1739" d="M167.28 241.99h1.137a.494.494 0 1 0 0-.989h-1.137a.494.494 0 0 0 0 .989z" class="cls-12" transform="translate(-166.786 -241.001)"/>
                            </g>
                            <g id="Group_3341" transform="translate(15.568 19.677)">
                                <path id="Path_1740" d="M204.012 241.99h1.137a.494.494 0 1 0 0-.989h-1.137a.494.494 0 1 0 0 .989z" class="cls-12" transform="translate(-203.518 -241.001)"/>
                            </g>
                        </g>
                    </g>
                </g>
            </g>
            <path id="Path_4366" d="M286.607 165.593l-.627-.336a.226.226 0 0 1-.092-.092l-.336-.627a.225.225 0 0 0-.4 0l-.336.627a.225.225 0 0 1-.092.092l-.627.336a.225.225 0 0 0 0 .4l.627.336a.225.225 0 0 1 .092.092l.336.627a.225.225 0 0 0 .4 0l.336-.627a.225.225 0 0 1 .092-.092l.627-.336a.226.226 0 0 0 0-.4z" class="cls-11" transform="translate(-266.781 -164.419)"/>
            <path id="Path_4367" fill="#84b4fe" d="M243.139 192.017l-.694-.372a.251.251 0 0 1-.1-.1l-.372-.694a.249.249 0 0 0-.44 0l-.372.694a.251.251 0 0 1-.1.1l-.694.372a.25.25 0 0 0 0 .44l.694.372a.251.251 0 0 1 .1.1l.372.694a.249.249 0 0 0 .44 0l.372-.694a.251.251 0 0 1 .1-.1l.694-.372a.25.25 0 0 0 0-.44z" transform="translate(-238.911 -177.957)"/>
            <path id="Path_6" d="M368.305 211.867l-.5-.267a.178.178 0 0 1-.073-.073l-.267-.5a.179.179 0 0 0-.315 0l-.266.5a.178.178 0 0 1-.073.073l-.5.267a.179.179 0 0 0 0 .315l.5.266a.178.178 0 0 1 .073.073l.266.5a.179.179 0 0 0 .315 0l.267-.5a.178.178 0 0 1 .073-.073l.5-.266a.179.179 0 0 0 0-.315z" class="cls-2" transform="translate(-319.706 -165.658)"/>
            <circle id="Ellipse_701" cx="1.24" cy="1.24" r="1.24" class="cls-2" transform="translate(44.127 8.946)"/>
            <path id="Path_4368" d="M405.447 199.848l-.758-.407a.273.273 0 0 1-.111-.111l-.407-.758a.273.273 0 0 0-.481 0l-.407.758a.275.275 0 0 1-.111.111l-.758.407a.273.273 0 0 0 0 .481l.758.407a.272.272 0 0 1 .111.111l.407.758a.272.272 0 0 0 .481 0l.407-.758a.27.27 0 0 1 .111-.111l.758-.407a.273.273 0 0 0 0-.481z" class="cls-11" transform="translate(-347.493 -147.512)"/>
        </g>
    </g>
</svg>
