<svg xmlns="http://www.w3.org/2000/svg" width="14.777" height="12.905" viewBox="0 0 14.777 12.905">
    <g id="noun_reset_3039083" transform="translate(0 1)">
        <g id="Group_10043" data-name="Group 10043" transform="translate(0 -1)">
            <path id="Path_2810" fill="#fff" fill-rule="evenodd" d="M1.934 5.531H.7a.708.708 0 0 0-.674.922l2.231 4.088c.269.349.727.348 1.069-.137l2.233-3.951a.681.681 0 0 0-.674-.922H3.8a4.458 4.458 0 0 1 4.525-3.687 4.614 4.614 0 0 1 4.609 4.609 4.477 4.477 0 0 1-4.609 4.609v1.844a6.378 6.378 0 0 0 6.453-6.453A6.46 6.46 0 0 0 8.325 0a6.37 6.37 0 0 0-6.391 5.531" data-name="Path 2810"/>
        </g>
    </g>
</svg>
