<svg xmlns="http://www.w3.org/2000/svg" width="28.975" height="25.921" viewBox="0 0 28.975 25.921">
  <defs>
    <style>
      .cls-1 {
        fill: #24424d;
      }
    </style>
  </defs>
  <g id="research" transform="translate(0 1.914)">
    <path id="Path_234" data-name="Path 234" class="cls-1" d="M28.344,20.326l-4.266-4.266A7.169,7.169,0,0,0,22.819,7.7a.561.561,0,0,0,.025-.168V.631A2.548,2.548,0,0,0,20.3-1.914H3.656A2.548,2.548,0,0,0,1.111.631V11.669H.566A.566.566,0,0,0,0,12.235a3.286,3.286,0,0,0,3.282,3.283h7.8A7.179,7.179,0,0,0,21.03,19.11l1.845,1.845h0l2.42,2.42a2.156,2.156,0,0,0,3.049-3.049ZM2.243.631A1.415,1.415,0,0,1,3.656-.782H20.3A1.415,1.415,0,0,1,21.712.631V6.78a7.179,7.179,0,0,0-11.1,4.889H2.243ZM3.282,14.385A2.154,2.154,0,0,1,1.208,12.8h9.321a7.176,7.176,0,0,0,.189,1.585Zm8.769.5a.564.564,0,0,0-.083-.232,6.064,6.064,0,1,1,.083.232Zm11.408,2.16,1.264,1.264-1.448,1.448-1.264-1.264A7.231,7.231,0,0,0,23.459,17.042Zm4.084,5.532a1.024,1.024,0,0,1-1.448,0l-2.02-2.02,1.448-1.448,2.02,2.02A1.026,1.026,0,0,1,27.544,22.575Zm0,0"/>
    <path id="Path_235" data-name="Path 235" class="cls-1" d="M340.826,237.57a2.391,2.391,0,0,0-2.388,2.388.566.566,0,0,0,1.132,0,1.256,1.256,0,1,1,1.256,1.256.566.566,0,0,0-.566.566v1.2a.566.566,0,0,0,1.132,0v-.7a2.388,2.388,0,0,0-.566-4.709Zm0,0" transform="translate(-323.116 -228.642)"/>
    <path id="Path_236" data-name="Path 236" class="cls-1" d="M379.257,393.656a.566.566,0,1,0,.4.166A.569.569,0,0,0,379.257,393.656Zm0,0" transform="translate(-361.547 -377.662)"/>
    <path id="Path_237" data-name="Path 237" class="cls-1" d="M88.175,79.1H95.37a.566.566,0,1,0,0-1.132H88.175a.566.566,0,0,0,0,1.132Zm0,0" transform="translate(-83.643 -76.27)"/>
    <path id="Path_238" data-name="Path 238" class="cls-1" d="M297.1,79.1a.566.566,0,1,0-.4-.166A.57.57,0,0,0,297.1,79.1Zm0,0" transform="translate(-283.106 -76.266)"/>
    <path id="Path_239" data-name="Path 239" class="cls-1" d="M92.9,218.227H88.175a.566.566,0,0,0,0,1.132H92.9a.566.566,0,0,0,0-1.132Zm0,0" transform="translate(-83.643 -210.174)"/>
    <path id="Path_240" data-name="Path 240" class="cls-1" d="M88.175,149.229h2.469a.566.566,0,1,0,0-1.132H88.175a.566.566,0,0,0,0,1.132Zm0,0" transform="translate(-83.643 -143.22)"/>
    <path id="Path_241" data-name="Path 241" class="cls-1" d="M195.027,148.1h-2.469a.566.566,0,1,0,0,1.132h2.469a.566.566,0,1,0,0-1.132Zm0,0" transform="translate(-183.3 -143.22)"/>
  </g>
</svg>
