<svg xmlns="http://www.w3.org/2000/svg" width="13.899" height="13.899" viewBox="0 0 13.899 13.899">
  <defs>
    <style>
      .cls-1 {
        fill: #cd2d2f;
      }
    </style>
  </defs>
  <g id="Group_2220" data-name="Group 2220" transform="translate(-180 -890.976)">
    <path id="Path_415" data-name="Path 415" class="cls-1" d="M0,12.433A1.467,1.467,0,0,0,1.465,13.9H12.433A1.467,1.467,0,0,0,13.9,12.433V1.465A1.467,1.467,0,0,0,12.433,0H1.465A1.467,1.467,0,0,0,0,1.465Zm12.433.77H1.465a.772.772,0,0,1-.77-.77V10.6L3.331,7.966l2.252,2.252a.346.346,0,0,0,.491,0l4.067-4.067L13.2,9.213v3.221A.772.772,0,0,1,12.433,13.2ZM1.465.7H12.433a.772.772,0,0,1,.77.77V8.227L10.386,5.413a.346.346,0,0,0-.491,0L5.828,9.48,3.576,7.228a.346.346,0,0,0-.491,0L.7,9.616V1.465A.772.772,0,0,1,1.465.7Z" transform="translate(180 890.976)"/>
    <path id="Path_416" data-name="Path 416" class="cls-1" d="M91.169,75.039A1.769,1.769,0,1,0,89.4,73.269,1.771,1.771,0,0,0,91.169,75.039Zm0-2.843A1.074,1.074,0,1,1,90.1,73.269,1.074,1.074,0,0,1,91.169,72.2Z" transform="translate(92.6 821.506)"/>
  </g>
</svg>
