<svg id="Group_1441" data-name="Group 1441" xmlns="http://www.w3.org/2000/svg" width="16.132" height="16.761" viewBox="0 0 16.132 16.761">
  <defs>
    <style>
      .cls-1 {
        fill: #cadbe7;
      }
    </style>
  </defs>
  <path id="Path_1192" data-name="Path 1192" class="cls-1" d="M531.884,241.572l-1.555-1.537q-1.394-1.391-2.8-2.771c-.052-.052-.058-.073-.058-.073a.294.294,0,0,1,.058-.083,6.379,6.379,0,0,0,1.707-5.443,6.487,6.487,0,0,0-2.595-4.323,6.653,6.653,0,0,0-10.62,5.334,5.612,5.612,0,0,0,.095,1.052,6.651,6.651,0,0,0,10.184,4.412c.11-.073.131-.073.231.021q1.733,1.735,3.477,3.459l.909.9a.863.863,0,0,0,.126.115.678.678,0,0,0,.436.156.645.645,0,0,0,.215-.036.682.682,0,0,0,.441-.495A.708.708,0,0,0,531.884,241.572Zm-9.218-3.381h-.005a5.566,5.566,0,1,1-.005-11.132h.01a5.577,5.577,0,0,1,3.966,1.636,5.5,5.5,0,0,1,1.649,3.938A5.6,5.6,0,0,1,522.667,238.191Z" transform="translate(-516.022 -226.03)"/>
</svg>
