<svg xmlns="http://www.w3.org/2000/svg" width="13.794" height="14.199" viewBox="0 0 13.794 14.199">
  <defs>
    <style>
      .cls-1 {
        opacity: 0.6;
      }

      .cls-2 {
        fill: #24424d;
      }
    </style>
  </defs>
  <g id="settings" class="cls-1" transform="translate(-6.85)">
    <g id="Group_208" data-name="Group 208" transform="translate(6.85)">
      <path id="Path_152" data-name="Path 152" class="cls-2" d="M174.574,6.921V.4a.4.4,0,1,0-.8,0V6.921a2.027,2.027,0,0,0,0,3.973v2.9a.4.4,0,1,0,.8,0v-2.9a2.027,2.027,0,0,0,0-3.973Zm-.4,3.213A1.227,1.227,0,1,1,175.4,8.907,1.228,1.228,0,0,1,174.175,10.134Z" transform="translate(-167.263)"/>
      <path id="Path_153" data-name="Path 153" class="cls-2" d="M9.274,3.574V.4a.4.4,0,1,0-.8,0V3.574a2.027,2.027,0,0,0,0,3.973V13.8a.4.4,0,1,0,.8,0V7.544a2.025,2.025,0,0,0,0-3.97Zm-.4,3.213A1.227,1.227,0,1,1,10.1,5.561,1.228,1.228,0,0,1,8.875,6.788Z" transform="translate(-6.85)"/>
      <path id="Path_154" data-name="Path 154" class="cls-2" d="M338.874,3.574V.4a.4.4,0,0,0-.8,0V3.574a2.027,2.027,0,0,0,0,3.973V13.8a.4.4,0,0,0,.8,0V7.544a2.025,2.025,0,0,0,0-3.97Zm-.4,3.213A1.227,1.227,0,1,1,339.7,5.561,1.228,1.228,0,0,1,338.475,6.788Z" transform="translate(-326.706)"/>
    </g>
  </g>
</svg>
