<svg xmlns="http://www.w3.org/2000/svg" width="44" height="44" viewBox="0 0 44 44">
    <g transform="translate(-497 -226)">
        <circle cx="22" cy="22" r="22" fill="#83b6fc" transform="translate(497 226)"/>
        <g>
            <g>
                <path fill="#fff" d="M21.61 10.1l-1.735-1.32a6.115 6.115 0 0 0 .058-.78 6.115 6.115 0 0 0-.058-.78l1.739-1.32a.392.392 0 0 0 .1-.512l-1.646-2.776a.412.412 0 0 0-.5-.172l-2.047.8a6.282 6.282 0 0 0-1.39-.788L15.822.336A.42.42 0 0 0 15.41 0h-3.289a.412.412 0 0 0-.407.336l-.308 2.12a6.126 6.126 0 0 0-1.39.788l-2.047-.8a.417.417 0 0 0-.5.172L5.823 5.384a.393.393 0 0 0 .1.512L7.657 7.22A6.115 6.115 0 0 0 7.6 8a6.115 6.115 0 0 0 .058.78L5.922 10.1a.392.392 0 0 0-.1.512l1.644 2.772a.412.412 0 0 0 .5.172l2.047-.8a6.282 6.282 0 0 0 1.39.788l.308 2.12a.412.412 0 0 0 .407.336h3.292a.412.412 0 0 0 .407-.336l.308-2.12a6.127 6.127 0 0 0 1.39-.788l2.047.8a.417.417 0 0 0 .5-.172l1.644-2.772a.393.393 0 0 0-.096-.512zm-7.844.7A2.8 2.8 0 1 1 16.644 8a2.838 2.838 0 0 1-2.878 2.8z" transform="translate(511 240) translate(-5.768)"/>
            </g>
        </g>
    </g>
</svg>
