<svg xmlns="http://www.w3.org/2000/svg" width="129.261" height="60" viewBox="0 0 129.261 60">
    <defs>
        <style>
            .cls-1{fill:#d20354}
        </style>
    </defs>
    <g id="Group_17126" transform="translate(-142 -114)">
        <g id="Group_16612" transform="translate(112 102)">
            <path id="Path_8677" d="M3.889-1.687H11.3V0H1.815v-15.641h2.074zM15.5 0h-1.986v-11.623H15.5zm-2.147-14.706a1.186 1.186 0 0 1 .3-.816 1.109 1.109 0 0 1 .875-.333 1.126 1.126 0 0 1 .881.333 1.174 1.174 0 0 1 .3.816 1.135 1.135 0 0 1-.3.806 1.147 1.147 0 0 1-.881.322 1.129 1.129 0 0 1-.875-.322 1.147 1.147 0 0 1-.3-.806zm7.208 3.083l.064 1.461a4.236 4.236 0 0 1 3.48-1.676q3.685 0 3.717 4.157V0h-1.987v-7.691a2.676 2.676 0 0 0-.575-1.859 2.3 2.3 0 0 0-1.756-.6 2.868 2.868 0 0 0-1.7.516 3.5 3.5 0 0 0-1.139 1.354V0h-1.984v-11.623zm13.5 6.241l-1.246 1.3V0H30.83v-16.5h1.987v9.979L33.881-7.8l3.62-3.824h2.417L35.4-6.768 40.444 0h-2.331zm13.765-9.751H44.9V-7h-1.2v-8.133h-2.927v-.99h7.055zm2.907-.99l2.983 7.444 2.984-7.444h1.56V-7h-1.2v-3.553l.113-3.835L54.176-7h-.921l-2.989-7.369.119 3.816V-7h-1.2v-9.123z" class="cls-1" transform="translate(101 54.343)"/>
            <g id="Group_895" transform="translate(30 12)">
                <path id="Path_363" d="M178.844 359.218c0 4.03 1.812 6.4 4.412 6.4a4.91 4.91 0 0 0 3.9-1.984v-9.054a4.565 4.565 0 0 0-3.788-1.967c-3.358 0-4.527 2.672-4.527 6.576z" class="cls-1" transform="translate(-145.328 -316.29)"/>
                <path id="Path_364" d="M172.25 346.1c0 3.009-.45 4.742-1.522 6.124a5.917 5.917 0 0 1-4.7 1.853 7.282 7.282 0 0 1-3.762-.943 6.239 6.239 0 0 1-2.435-2.7l-.049-.1 2.442-.283.021.061a3.151 3.151 0 0 0 1.4 1.783 3.941 3.941 0 0 0 2.354.638 3.656 3.656 0 0 0 2.876-1.321c.686-.994.993-2.4.993-4.834v-.805a5.949 5.949 0 0 1-4.134 1.523c-3.79 0-6.333-2.679-6.333-7.8 0-4.856 2.053-7.922 6.467-7.922a5.517 5.517 0 0 1 4.036 1.577l-.039-1.241h2.385zm-19.574-1.153a7.239 7.239 0 0 1-5.311 2.257c-4.041 0-5.935-1.867-6.6-4.307l-.025-.091 2.452-.213.023.054a4.273 4.273 0 0 0 4.16 2.832 4.435 4.435 0 0 0 3.366-1.553 4.188 4.188 0 0 0 .97-2.714 3.985 3.985 0 0 0-1.2-2.888 23.986 23.986 0 0 0-3.717-2.363 14.281 14.281 0 0 1-4.024-2.743 5.517 5.517 0 0 1-1.579-3.927 4.512 4.512 0 0 1 1.522-3.554 6.778 6.778 0 0 1 4.929-1.76c3.675 0 5.441 1.919 5.957 4.142l.021.09-2.4.149-.02-.055a3.66 3.66 0 0 0-3.629-2.6 4.258 4.258 0 0 0-2.969 1.159 3.092 3.092 0 0 0-.882 2.3 3.629 3.629 0 0 0 1.255 2.831 17.637 17.637 0 0 0 3.831 2.417 22.213 22.213 0 0 1 3.918 2.607 5.645 5.645 0 0 1 1.562 3.945 5.573 5.573 0 0 1-1.6 3.99m30.379-18.772v20.591h-2.521v-20.595h-6.679v-1.76h15.318v-24.984a3.224 3.224 0 0 0-3.251-3.2h-54.543a3.223 3.223 0 0 0-3.251 3.2v53.609a3.223 3.223 0 0 0 3.251 3.2h54.534a3.224 3.224 0 0 0 3.251-3.2l.007-26.865z" class="cls-1" transform="translate(-128.138 -296.237)"/>
            </g>
        </g>
    </g>
</svg>
