<svg xmlns="http://www.w3.org/2000/svg" width="110" height="80" viewBox="0 0 110 80">
    <defs>
        <style>
            .cls-5{fill:#bebfbf}.cls-3{fill:#44c68b}.cls-4{fill:#585a59}.cls-16{fill:#fff}.cls-18{opacity:.6}.cls-11{fill:#d00354}.cls-10{opacity:.3}.cls-12{fill:#ed8c78}.cls-13,.cls-18,.cls-19{fill:#d20354}.cls-14{fill:#7c64d3}.cls-19{opacity:.9}.cls-23{fill:#e7badd}
        </style>
    </defs>
    <g id="Group_16862" transform="translate(-949 -151)">
        <path id="Rectangle_5022" fill="none" d="M0 0H110V80H0z" transform="translate(949 151)"/>
        <g id="Group_16859" transform="translate(960 151)">
            <g id="Group_10594" transform="translate(0 0)">
                <g id="Group_13" transform="translate(37.985 11.212)">
                    <text id="REGISTRATION" fill="#bebfbf" font-family="Raleway-Black, Raleway" font-size="1px" font-weight="800" transform="matrix(0.988, 0.157, -0.157, 0.988, 11.377, 0.988)">
                        <tspan x="0" y="0">REGISTRATION</tspan>
                    </text>
                    <g id="Group_9" transform="translate(2.136 34.208)">
                        <g id="Group_8" transform="translate(2.705 0.526)">
                            <g id="Group_7">
                                <path id="Path_8" d="M238.33 277.677l-1.86-2.447.955-.726 1.134 1.496 5.441-4.1.726.955z" class="cls-3" transform="translate(-236.47 -271.902)"/>
                            </g>
                        </g>
                        <path id="Path_9" d="M231.2 278.485l-5.366-.851a1.306 1.306 0 0 1-1.084-1.493l.86-5.421a1.306 1.306 0 0 1 1.493-1.084l5.366.851-.108.683-5.361-.85a.614.614 0 0 0-.7.509l-.86 5.421a.614.614 0 0 0 .509.7l5.366.851a.614.614 0 0 0 .7-.509l.339-2.137.683.108-.339 2.137a1.306 1.306 0 0 1-1.498 1.085z" class="cls-4" transform="translate(-224.737 -269.621)"/>
                        <path id="Rectangle_6" d="M0 0H20.686V1.126H0z" class="cls-5" transform="matrix(0.988, 0.157, -0.157, 0.988, 11.884, 3.528)"/>
                        <path id="Rectangle_7" d="M0 0H26.04V1.126H0z" class="cls-5" transform="translate(11.366 6.795) rotate(9.016)"/>
                    </g>
                    <g id="Group_12" transform="translate(0 47.363)">
                        <g id="Group_11" transform="translate(2.705 0.526)">
                            <g id="Group_10">
                                <path id="Path_10" d="M229.063 336.08l-1.86-2.447.955-.726 1.134 1.492 5.436-4.095.726.955z" class="cls-3" transform="translate(-227.203 -330.305)"/>
                            </g>
                        </g>
                        <path id="Path_11" d="M221.936 336.888l-5.366-.851a1.306 1.306 0 0 1-1.084-1.493l.86-5.42a1.306 1.306 0 0 1 1.493-1.084l5.366.851-.108.683-5.366-.851a.613.613 0 0 0-.7.509l-.86 5.42a.613.613 0 0 0 .509.7l5.366.851a.613.613 0 0 0 .7-.509l.339-2.137.683.108-.339 2.137a1.306 1.306 0 0 1-1.493 1.086z" class="cls-4" transform="translate(-215.471 -328.024)"/>
                        <path id="Rectangle_8" d="M0 0H9.012V1.126H0z" class="cls-5" transform="translate(11.884 3.528) rotate(9.016)"/>
                        <path id="Rectangle_9" d="M0 0H16.235V1.126H0z" class="cls-5" transform="matrix(0.988, 0.157, -0.157, 0.988, 11.365, 6.795)"/>
                    </g>
                </g>
                <g id="Group_26">
                    <path id="Path_12" d="M103.8 148.97l2.865.121s36.074-6.24 49.081-10.17c-4.1-15.512-13.121-51.866-11.5-69.236-.929.166-3.548.61-3.548.61z" transform="translate(-91.561 -69.447)" style="mix-blend-mode:multiply;isolation:isolate" fill="#c6d3e2" opacity="0.23"/>
                    <path id="Path_13" fill="#fff" d="M111.282 135.775c-14.148 6.466-50.485 12.4-50.485 12.4L48.071 78.3l53.573-9.647s8.946 63.326 9.638 67.122z" opacity="0.6" transform="translate(-48.071 -68.653)"/>
                    <text id="REGISTRATION-2" fill="#d00354" font-family="Raleway-Black, Raleway" font-size="3px" font-weight="800" opacity="0.4" transform="translate(11 18) rotate(-10.265)">
                        <tspan x="0" y="0">REGISTRATION</tspan>
                    </text>
                    <path id="Rectangle_11" fill="none" stroke="#d00354" stroke-miterlimit="10" stroke-width="2px" d="M0 0H40.052V7.226H0z" opacity="0.4" transform="translate(7.267 13.776) rotate(-10.076)"/>
                    <g id="Group_16" class="cls-10" transform="translate(10.846 18.59)">
                        <g id="Group_15" transform="translate(2.657 2.353)">
                            <g id="Group_14">
                                <path id="Path_14" d="M110.282 168.281l-2.563-1.7.662-1 1.563 1.034 3.779-5.66 1 .662z" class="cls-11" transform="translate(-107.719 -160.959)"/>
                            </g>
                        </g>
                        <path id="Path_15" d="M104.057 173.9l-5.346.968a1.306 1.306 0 0 1-1.516-1.051l-.978-5.4a1.306 1.306 0 0 1 1.051-1.516l5.346-.968.123.681-5.346.968a.613.613 0 0 0-.494.712l.978 5.4a.614.614 0 0 0 .712.494l5.346-.968a.613.613 0 0 0 .493-.712l-.385-2.129.681-.123.385 2.129a1.306 1.306 0 0 1-1.05 1.515z" class="cls-11" transform="translate(-96.196 -162.434)"/>
                        <path id="Rectangle_12" d="M0 0H26.04V1.126H0z" class="cls-12" transform="translate(11.213 4.64) rotate(-10.265)"/>
                        <path id="Rectangle_13" d="M0 0H26.04V1.126H0z" class="cls-12" transform="translate(11.802 7.895) rotate(-10.265)"/>
                    </g>
                    <g id="Group_19" class="cls-10" transform="translate(13.221 33.899)">
                        <g id="Group_18" transform="translate(2.657 0.199)">
                            <g id="Group_17">
                                <path id="Path_16" d="M120.819 226.468l-2.563-1.7.662-1 1.563 1.034 3.779-5.66 1 .662z" class="cls-11" transform="translate(-118.256 -219.146)"/>
                            </g>
                        </g>
                        <path id="Path_17" d="M114.594 232.087l-5.346.968a1.306 1.306 0 0 1-1.516-1.055l-.978-5.4a1.306 1.306 0 0 1 1.051-1.516l5.346-.968.123.681-5.346.968a.613.613 0 0 0-.494.712l.978 5.4a.613.613 0 0 0 .712.494l5.346-.968a.614.614 0 0 0 .494-.712l-.385-2.129.681-.123.385 2.129a1.306 1.306 0 0 1-1.051 1.519z" class="cls-11" transform="translate(-106.733 -222.773)"/>
                        <path id="Rectangle_14" d="M0 0H13.955V1.126H0z" class="cls-12" transform="matrix(0.984, -0.178, 0.178, 0.984, 11.213, 2.487)"/>
                        <path id="Rectangle_15" d="M0 0H26.04V1.126H0z" class="cls-12" transform="translate(11.802 5.742) rotate(-10.265)"/>
                    </g>
                    <g id="Group_22" class="cls-10" transform="translate(15.596 45.889)">
                        <g id="Group_21" transform="translate(2.657 1.399)">
                            <g id="Group_20">
                                <path id="Path_18" d="M131.357 284.655l-2.563-1.7.662-1 1.563 1.034 3.779-5.66 1 .662z" class="cls-11" transform="translate(-128.794 -277.333)"/>
                            </g>
                        </g>
                        <path id="Path_19" d="M125.132 290.273l-5.346.968a1.306 1.306 0 0 1-1.516-1.051l-.978-5.4a1.306 1.306 0 0 1 1.051-1.516l5.346-.968.123.681-5.346.968a.613.613 0 0 0-.494.712l.978 5.4a.613.613 0 0 0 .712.494l5.346-.968a.613.613 0 0 0 .494-.712l-.385-2.129.681-.123.385 2.129a1.306 1.306 0 0 1-1.051 1.515z" class="cls-11" transform="translate(-117.271 -279.761)"/>
                        <path id="Rectangle_16" d="M0 0H20.686V1.126H0z" class="cls-12" transform="translate(11.213 3.686) rotate(-10.265)"/>
                        <path id="Rectangle_17" d="M0 0H26.04V1.126H0z" class="cls-12" transform="translate(11.802 6.941) rotate(-10.265)"/>
                    </g>
                    <g id="Group_25" class="cls-10" transform="translate(18.079 60.303)">
                        <g id="Group_24" transform="translate(2.657)">
                            <g id="Group_23">
                                <path id="Path_20" d="M141.894 342.841l-2.563-1.7.662-1 1.563 1.034 3.779-5.66 1 .662z" class="cls-13" transform="translate(-139.331 -335.519)"/>
                            </g>
                        </g>
                        <path id="Path_21" d="M135.669 348.46l-5.346.968a1.306 1.306 0 0 1-1.516-1.051l-.978-5.4a1.306 1.306 0 0 1 1.051-1.516l5.346-.968.123.681-5.346.968a.613.613 0 0 0-.494.712l.978 5.4a.613.613 0 0 0 .712.494l5.346-.968a.613.613 0 0 0 .493-.712l-.385-2.129.681-.123.385 2.129a1.306 1.306 0 0 1-1.05 1.515z" class="cls-13" transform="translate(-127.808 -339.346)"/>
                        <path id="Rectangle_18" d="M0 0H9.012V1.126H0z" class="cls-14" transform="matrix(0.984, -0.178, 0.178, 0.984, 11.213, 2.288)"/>
                        <path id="Rectangle_19" d="M0 0H16.235V1.126H0z" class="cls-14" transform="translate(11.802 5.542) rotate(-10.265)"/>
                    </g>
                </g>
                <g id="Group_39" transform="translate(21.159 2.57)">
                    <path id="Path_22" d="M143.236 150.936s50.291 2.211 57.252 1.07c-1.231-15.96-4.207-52.822-1.119-71.585-1.176-.145-5.591-.318-5.591-.318z" transform="translate(-143.064 -80.033)" style="mix-blend-mode:multiply;isolation:isolate" fill="#f5d1df" opacity="0.5"/>
                    <path id="Path_23" d="M195.635 147.43c-15.226 3.849-52.4 3.249-52.4 3.249V79.8H198.2s-2.565 63.78-2.565 67.63z" class="cls-16" transform="translate(-143.236 -79.799)"/>
                    <g id="Group_38" transform="translate(7.819 37.51)">
                        <g id="Group_37" transform="translate(2.835 16.989)">
                            <g id="Group_36">
                                <path id="Path_30" fill="#3579e5" d="M190.923 328.083l-2.22-2.125.829-.866 1.354 1.3 4.727-4.9.866.83z" transform="translate(-188.703 -321.491)"/>
                            </g>
                        </g>
                        <path id="Path_31" d="M185.734 332.748H180.3a1.306 1.306 0 0 1-1.3-1.3v-5.488a1.306 1.306 0 0 1 1.3-1.3h5.433v.692H180.3a.613.613 0 0 0-.613.613v5.488a.613.613 0 0 0 .613.613h5.433a.613.613 0 0 0 .612-.613v-2.173h.692v2.163a1.305 1.305 0 0 1-1.303 1.305z" class="cls-18" transform="translate(-178.399 -306.933)"/>
                        <path id="Rectangle_26" d="M0 0H9.012V1.126H0z" class="cls-18" transform="translate(11.85 19.695)"/>
                        <path id="Rectangle_27" d="M0 0H16.235V1.126H0z" class="cls-18" transform="translate(11.85 23.003)"/>
                        <path id="Rectangle_2186" d="M0 0H39.237V1.394H0z" class="cls-19" transform="translate(0 0)"/>
                        <path id="Rectangle_2187" d="M0 0H27.387V1.394H0z" class="cls-19" transform="translate(0 4.879)"/>
                    </g>
                    <g id="pie-chart_2_" transform="translate(5.602 6.139)">
                        <path id="Path_3076" fill="#ff76ac" d="M256.818 0a.544.544 0 0 0-.544.544v11.972a.544.544 0 0 0 .544.544h11.972a.544.544 0 0 0 .544-.544A12.53 12.53 0 0 0 256.818 0z" transform="translate(-243.214)"/>
                        <path id="Path_3077" fill="#d20354" d="M19.749 43.309l-7.5-9.647V21.877a.544.544 0 0 0-.544-.544C5.4 21.333.274 26.948.274 33.849A12.53 12.53 0 0 0 12.79 46.364a9.3 9.3 0 0 0 6.875-2.3.544.544 0 0 0 .084-.755z" opacity="0.3" transform="translate(-0.274 -20.245)"/>
                        <path id="Path_3078" fill="#d00354" d="M289.037 277.333h-10.883a.544.544 0 0 0-.423.886l7.074 8.758a.544.544 0 0 0 .385.2h.038a.544.544 0 0 0 .371-.146 12.563 12.563 0 0 0 3.982-9.155.544.544 0 0 0-.544-.543z" opacity="0.998" transform="translate(-263.462 -263.185)"/>
                    </g>
                </g>
            </g>
            <g id="lens" transform="translate(54.066 41.1)">
                <path id="Path_3087" d="M244.3 241.991l-15.411-15.411a.545.545 0 0 0-.771 0l-1.541 1.541a.545.545 0 0 0 0 .771l7.639 7.639 7.772 7.772a.545.545 0 0 0 .771 0l1.541-1.541a.545.545 0 0 0 0-.771z" class="cls-23" transform="translate(-211.001 -211.001)"/>
                <path id="Path_3088" d="M226.921 246.411l-.339.339a.545.545 0 0 0 0 .771l15.411 15.411a.545.545 0 0 0 .771 0l.339-.339z" class="cls-23" transform="translate(-211.002 -229.629)"/>
                <path id="Path_3089" d="M361.053 357.2l-6.164-6.164a.545.545 0 0 0-.771 0l-3.082 3.082a.544.544 0 0 0 0 .77l6.164 6.164a2.724 2.724 0 0 0 3.853-3.853z" class="cls-16" transform="translate(-326.98 -326.981)"/>
                <path id="Path_3090" fill="#98c0ff" d="M361.6 398.176a2.727 2.727 0 0 1-3.853 0l-6.164-6.164a.548.548 0 0 1-.1-.131l-.449.449a.545.545 0 0 0 0 .77l6.164 6.164a2.723 2.723 0 0 0 4.572-1.279c-.052.065-.11.129-.17.191z" opacity="0.4" transform="translate(-326.98 -365.191)"/>
                <path id="Path_3091" d="M12.532 0a12.532 12.532 0 1 0 12.531 12.532A12.546 12.546 0 0 0 12.532 0z" class="cls-23" transform="translate(0)"/>
                <path id="Path_3092" d="M34.9 24a10.9 10.9 0 1 0 10.9 10.9A10.909 10.909 0 0 0 34.9 24z" class="cls-13" transform="translate(-22.366 -22.366)"/>
                <path id="Path_3093" fill="#ede8ff" d="M49.809 40a9.807 9.807 0 1 0 9.807 9.807A9.818 9.818 0 0 0 49.809 40z" opacity="0.8" transform="translate(-37.278 -37.277)"/>
            </g>
        </g>
    </g>
</svg>
