<svg xmlns="http://www.w3.org/2000/svg" width="60" height="30" viewBox="0 0 60 30">
    <defs>
        <style>
            .cls-2{fill:#d20354}
        </style>
    </defs>
    <g id="Group_18212" transform="translate(-1072 -425)">
        <path id="Rectangle_5513" fill="none" d="M0 0H60V30H0z" transform="translate(1072 425)"/>
        <g id="Group_18203" transform="translate(937 316)">
            <g id="Group_16612" transform="translate(142 114)">
                <path id="Path_8677" d="M2.523-11.441h2.532v.576h-3.24v-5.342h.708zm3.966.576h-.678v-3.97h.679zm-.734-5.022a.405.405 0 0 1 .1-.279.379.379 0 0 1 .3-.114.385.385 0 0 1 .3.114.4.4 0 0 1 .1.279.388.388 0 0 1-.1.275.392.392 0 0 1-.3.11.386.386 0 0 1-.3-.11.392.392 0 0 1-.099-.275zm2.462 1.053l.022.5a1.447 1.447 0 0 1 1.189-.572q1.258 0 1.269 1.42v2.623h-.679v-2.627a.914.914 0 0 0-.2-.635.787.787 0 0 0-.6-.205.98.98 0 0 0-.58.176 1.2 1.2 0 0 0-.389.462v2.829h-.674v-3.97zm4.612 2.134l-.426.444v1.394h-.679V-16.5h.676v3.408l.363-.437L14-14.834h.825l-1.545 1.658 1.724 2.311h-.8zm4.7-3.33h-1v2.778h-.409v-2.778h-1v-.338h2.41zm.993-.338l1.019 2.542 1.019-2.542h.533v3.116h-.411v-1.213l.039-1.31-1.021 2.519h-.315l-1.021-2.517.041 1.3v1.213h-.411v-3.116z" class="cls-2" transform="translate(23.053 25.326)"/>
                <g id="Group_895" transform="translate(0 0)">
                    <path id="Path_363" d="M178.844 354.869c0 1.376.619 2.186 1.507 2.186a1.677 1.677 0 0 0 1.333-.677v-3.093a1.559 1.559 0 0 0-1.294-.672c-1.147 0-1.546.913-1.546 2.246z" class="cls-2" transform="translate(-167.397 -340.208)"/>
                    <path id="Path_364" d="M143.2 313.267a3.184 3.184 0 0 1-.52 2.092 2.021 2.021 0 0 1-1.6.633 2.487 2.487 0 0 1-1.285-.322 2.131 2.131 0 0 1-.832-.92l-.017-.034.834-.1.007.021a1.076 1.076 0 0 0 .477.609 1.346 1.346 0 0 0 .8.218 1.249 1.249 0 0 0 .982-.451 2.843 2.843 0 0 0 .339-1.651v-.275a2.032 2.032 0 0 1-1.412.52c-1.294 0-2.163-.915-2.163-2.665 0-1.658.7-2.706 2.209-2.706a1.884 1.884 0 0 1 1.378.538l-.013-.424h.815zm-6.685-.394a2.472 2.472 0 0 1-1.814.771 2.039 2.039 0 0 1-2.253-1.471l-.009-.031.837-.073.008.018a1.459 1.459 0 0 0 1.421.967 1.515 1.515 0 0 0 1.149-.53 1.43 1.43 0 0 0 .331-.927 1.361 1.361 0 0 0-.409-.986 8.193 8.193 0 0 0-1.269-.807 4.876 4.876 0 0 1-1.374-.937 1.884 1.884 0 0 1-.539-1.341 1.541 1.541 0 0 1 .52-1.214 2.315 2.315 0 0 1 1.683-.6 1.861 1.861 0 0 1 2.035 1.415l.007.031-.821.051-.007-.019a1.25 1.25 0 0 0-1.239-.888 1.454 1.454 0 0 0-1.014.4 1.056 1.056 0 0 0-.3.785 1.24 1.24 0 0 0 .428.967 6.024 6.024 0 0 0 1.308.825 7.587 7.587 0 0 1 1.338.89 1.928 1.928 0 0 1 .533 1.347 1.9 1.9 0 0 1-.548 1.363m10.375-6.411v7.032h-.861v-7.032h-2.281v-.6h5.231v-8.532a1.1 1.1 0 0 0-1.11-1.091h-18.623a1.1 1.1 0 0 0-1.11 1.091v18.309a1.1 1.1 0 0 0 1.11 1.091h18.624a1.1 1.1 0 0 0 1.11-1.091v-9.175z" class="cls-2" transform="translate(-128.138 -296.237)"/>
                </g>
            </g>
        </g>
    </g>
</svg>
