<svg xmlns="http://www.w3.org/2000/svg" width="55.968" height="55.013" viewBox="0 0 55.968 55.013">
    <defs>
        <style>
            .cls-1{fill:#d20354}
        </style>
    </defs>
    <g id="Group_17731" transform="translate(0 0)">
        <g id="Group_17082" transform="translate(0 0)">
            <g id="Group_895">
                <path id="Path_363" d="M178.844 358.669c0 3.695 1.662 5.87 4.045 5.87a4.5 4.5 0 0 0 3.578-1.819v-8.3a4.185 4.185 0 0 0-3.473-1.8c-3.079 0-4.151 2.45-4.151 6.03z" class="cls-1" transform="translate(-148.114 -319.31)"/>
                <path id="Path_364" d="M168.583 341.957c0 2.758-.412 4.348-1.4 5.615a5.425 5.425 0 0 1-4.307 1.7 6.677 6.677 0 0 1-3.449-.864 5.721 5.721 0 0 1-2.233-2.471l-.045-.092 2.239-.259.019.056a2.889 2.889 0 0 0 1.282 1.634 3.613 3.613 0 0 0 2.159.585 3.352 3.352 0 0 0 2.637-1.211c.629-.911.91-2.2.91-4.432v-.738a5.454 5.454 0 0 1-3.79 1.4c-3.474 0-5.807-2.456-5.807-7.154 0-4.452 1.883-7.263 5.929-7.263a5.058 5.058 0 0 1 3.7 1.446l-.036-1.138h2.187zm-17.947-1.057a6.637 6.637 0 0 1-4.87 2.07c-3.7 0-5.441-1.712-6.05-3.949l-.023-.084 2.248-.2.021.05a3.918 3.918 0 0 0 3.814 2.6 4.067 4.067 0 0 0 3.086-1.424 3.84 3.84 0 0 0 .889-2.489 3.654 3.654 0 0 0-1.1-2.648 22.019 22.019 0 0 0-3.408-2.166 13.09 13.09 0 0 1-3.69-2.515 5.058 5.058 0 0 1-1.448-3.6 4.137 4.137 0 0 1 1.4-3.258 6.215 6.215 0 0 1 4.519-1.613c3.369 0 4.989 1.76 5.462 3.8l.02.083-2.2.137-.018-.05a3.356 3.356 0 0 0-3.327-2.385 3.9 3.9 0 0 0-2.722 1.063 2.834 2.834 0 0 0-.809 2.106 3.327 3.327 0 0 0 1.15 2.6 16.16 16.16 0 0 0 3.512 2.216 20.366 20.366 0 0 1 3.592 2.39 5.176 5.176 0 0 1 1.432 3.617 5.109 5.109 0 0 1-1.471 3.658m27.854-17.211v18.879h-2.311v-18.889h-6.124v-1.614H184.1v-22.907a2.956 2.956 0 0 0-2.981-2.93h-50a2.955 2.955 0 0 0-2.98 2.93v49.153a2.955 2.955 0 0 0 2.98 2.93h50a2.956 2.956 0 0 0 2.981-2.93l.006-24.632z" class="cls-1" transform="translate(-128.138 -296.237)"/>
            </g>
        </g>
    </g>
</svg>
