<svg id="share" xmlns="http://www.w3.org/2000/svg" width="13.529" height="13.529" viewBox="0 0 13.529 13.529">
  <defs>
    <style>
      .cls-1 {
        fill: #9eb9ce;
      }
    </style>
  </defs>
  <path id="Path_247" data-name="Path 247" class="cls-1" d="M160.23,0h-3.513a.352.352,0,1,0,0,.7h2.667l-6.853,6.919a.352.352,0,1,0,.5.5l6.846-6.911V3.865a.352.352,0,0,0,.7,0V.352A.352.352,0,0,0,160.23,0Zm0,0" transform="translate(-147.053)"/>
  <path id="Path_248" data-name="Path 248" class="cls-1" d="M11.42,55.664a.352.352,0,0,0-.352.352v3.858a1.058,1.058,0,0,1-1.057,1.057H1.762A1.058,1.058,0,0,1,.7,59.874V51.625a1.058,1.058,0,0,1,1.057-1.057H5.62a.352.352,0,0,0,0-.7H1.762A1.764,1.764,0,0,0,0,51.625v8.249a1.764,1.764,0,0,0,1.762,1.762h8.249a1.764,1.764,0,0,0,1.762-1.762V56.016A.352.352,0,0,0,11.42,55.664Zm0,0" transform="translate(0 -48.106)"/>
</svg>
