<svg xmlns="http://www.w3.org/2000/svg" width="40" height="40" viewBox="0 0 40 40">
    <defs>
        <style>
            .cls-3{fill:#004b7c}.cls-4{fill:#0e6ead}
        </style>
    </defs>
    <g id="Group_13321" transform="translate(-255 -1395)">
        <rect id="Rectangle_2777" width="40" height="40" fill="#f5f6f7" rx="4" transform="translate(255 1395)"/>
        <g id="Group_12652" transform="translate(-225 -48)">
            <path id="Rectangle_2890" fill="none" d="M0 0H24V24H0z" transform="translate(488 1454)"/>
            <g id="running-shoes_1_" transform="rotate(-26 3409.458 -319.94)">
                <path id="Path_4503" d="M208.158 115.142c.35-.1.8-.3 1.2-.4a2.968 2.968 0 0 1 2.15.7c-.05-1.7-1.15-1.55-1.15-1.55a1.309 1.309 0 0 1-1.1-.7c-.45-.45-.8-.2-1 .2a1.956 1.956 0 0 0-.15 1.5z" class="cls-3" transform="translate(-197.262 -110.75)"/>
                <path id="Path_4504" d="M.687 73.412a7.463 7.463 0 0 1 1.6-2.7 12.8 12.8 0 0 0 1-1.3 3.02 3.02 0 0 1 1.3-1.2.661.661 0 0 1 .9.6 2.453 2.453 0 0 1-.05.55 2.875 2.875 0 0 0 .2 1.7 2.827 2.827 0 0 0 1.45 1.25 6.69 6.69 0 0 0 4.151 0s.3-.1.75-.2a2.162 2.162 0 0 1 2.2 1 9.509 9.509 0 0 0 1.5 2.1 6 6 0 0 1 .6.55 4.792 4.792 0 0 1 1.3 2.25s2.524 2.384 5.751 5.2a.848.848 0 0 1-.2 1.3 1.4 1.4 0 0 1-.9.3 13.273 13.273 0 0 1-5.151-1.5 60.251 60.251 0 0 1-6.45-3.291 57.626 57.626 0 0 0-6.334-3.757C1.155 74.715.687 73.412.687 73.412z" class="cls-4" transform="translate(.407 -68.069)"/>
                <path id="Path_4505" d="M27.073 190.79a.849.849 0 0 1-.3.3 1.4 1.4 0 0 1-.9.3 13.273 13.273 0 0 1-5.151-1.5 71.578 71.578 0 0 1-6.4-3.4 49.709 49.709 0 0 0-6.3-3.851c-3.151-1.55-3.7-2.7-3.7-2.7a2.585 2.585 0 0 0-1.05 1.75s-.7 1.5 3.451 3.7c0 0 12.6 6.351 16.9 6.951-.001-.05 2.9.65 3.45-1.55z" class="cls-3" transform="translate(-3.224 -174.596)"/>
                <path id="Path_4506" d="M129.793 76.285c-.1.15-.1.2-.25.2a.851.851 0 0 1-.35-.05.636.636 0 0 1-.35-.45 4.864 4.864 0 0 0-1.15-1.95 2.032 2.032 0 0 0-.5-.45c-.15-.1-.65-.45-1.7-2.3l-.3-.45a2.369 2.369 0 0 0-2.2-.65h-.05a6.689 6.689 0 0 1-4.151 0 2.827 2.827 0 0 1-1.45-1.25 2.785 2.785 0 0 1-.2-1.7 2.241 2.241 0 0 0 .05-.55.661.661 0 0 0-.9-.6s1.15-.45 1.4.65a3.163 3.163 0 0 1 0 .75 2.245 2.245 0 0 0 1.7 2.6c.05 0 .1 0 .1.05 0 0 .95.45 3.5-.25a5.818 5.818 0 0 1 .9-.2h.05a1.449 1.449 0 0 1 1.6.9l.15.2c.05.1.1.15.15.25a7.961 7.961 0 0 0 1.55 2.15.736.736 0 0 1 .3.25 6.308 6.308 0 0 1 1.55 2.5c.051.05.251.15.551.35z" class="cls-3" transform="translate(-111.246 -65.992)"/>
                <g id="Group_12649" transform="translate(1.095 2.042)">
                    <path id="Path_4507" d="M383.842 116.288a12.34 12.34 0 0 0-2.882-6.669c-.15.2-.386.47-.536.67a10 10 0 0 0-1.733 2.548s.55 1.15 3.7 2.7c.501.251.951.501 1.451.751z" class="cls-3" transform="translate(-378.253 -110.436)"/>
                    <path id="Path_4508" d="M10.5 284.217c-3.126-2.694-5.751-5.2-5.751-5.2 0-.1-.1 1.05-4.751 3.2 2.05 1.1 4.251 2.15 4.251 2.15a15.582 15.582 0 0 0 5.151 1.5 1.5 1.5 0 0 0 .9-.3.941.941 0 0 0 .2-1.35z" class="cls-4" transform="translate(12.202 -271.064)"/>
                    <path id="Path_4509" d="M193.724 168.4a.215.215 0 0 0-.2-.2l-1.3.05a.215.215 0 0 0-.2.2.26.26 0 0 0 .1.2h.1l1.3-.05a.215.215 0 0 0 .2-.2z" class="cls-3" transform="translate(-179.822 -165.453)"/>
                    <path id="Path_4510" d="M172.192 202.337h-1.3a.215.215 0 0 0-.2.2.26.26 0 0 0 .1.2h1.4a.2.2 0 0 0 0-.4z" class="cls-3" transform="translate(-157.49 -197.986)"/>
                    <path id="Path_4511" d="M148.575 231.137l-1.15.1a.215.215 0 0 0-.2.2c0 .1.05.15.1.15h.1l1.15-.1a.215.215 0 0 0 .2-.2c0-.1-.1-.15-.2-.15z" class="cls-3" transform="translate(-132.772 -225.436)"/>
                    <path id="Path_4512" d="M131.208 251.6a.2.2 0 0 0-.4 0c0 .25-.45.3-.45.3a.215.215 0 0 0-.2.2c0 .1.05.15.1.15h.1a.7.7 0 0 0 .85-.65z" class="cls-3" transform="translate(-114.405 -244.753)"/>
                </g>
            </g>
        </g>
    </g>
</svg>
