<svg xmlns="http://www.w3.org/2000/svg" width="120" height="120" viewBox="0 0 120 120">
    <defs>
        <style>
            .cls-3{fill:#d3f3d2}
        </style>
    </defs>
    <g id="Group_10955" data-name="Group 10955" transform="translate(-291 -549)">
        <g id="Group_10995" data-name="Group 10995">
            <path id="Rectangle_2258" fill="none" d="M0 0H120V120H0z" data-name="Rectangle 2258" transform="translate(291 549)"/>
            <path id="Path_3262" d="M217.115 138.837a9.676 9.676 0 0 0-13.686 0l-41.552 41.548-17.355-17.35a9.678 9.678 0 1 0-13.686 13.687l24.2 24.2a9.673 9.673 0 0 0 13.686 0l48.395-48.4a9.676 9.676 0 0 0-.002-13.685z" class="cls-3" data-name="Path 3262" transform="translate(176.998 438.998)"/>
            <g id="Group_10994" data-name="Group 10994" transform="translate(310.434 617.618)">
                <circle id="Ellipse_1" cx="1.179" cy="1.179" r="1.179" class="cls-3" data-name="Ellipse 1" transform="translate(40.146 6.755)"/>
                <path id="Path_5" d="M277.54 224.026a.789.789 0 1 1-.789-.789.789.789 0 0 1 .789.789z" class="cls-3" data-name="Path 5" transform="translate(-257.26 -195.52)"/>
                <path id="Path_6" d="M368.2 211.821l-.473-.254a.169.169 0 0 1-.07-.07l-.254-.473a.17.17 0 0 0-.3 0l-.253.473a.17.17 0 0 1-.07.07l-.473.254a.17.17 0 0 0 0 .3l.473.253a.17.17 0 0 1 .07.07l.253.473a.17.17 0 0 0 .3 0l.254-.473a.17.17 0 0 1 .07-.07l.473-.253a.17.17 0 0 0 0-.3z" class="cls-3" data-name="Path 6" transform="translate(-321.259 -183.39)"/>
                <path id="Path_7" d="M286.478 165.536l-.6-.32a.214.214 0 0 1-.088-.088l-.32-.6a.214.214 0 0 0-.378 0l-.32.6a.214.214 0 0 1-.088.088l-.6.32a.214.214 0 0 0 0 .378l.6.32a.214.214 0 0 1 .088.088l.32.6a.214.214 0 0 0 .378 0l.32-.6a.214.214 0 0 1 .088-.088l.6-.32a.214.214 0 0 0 0-.378z" class="cls-3" data-name="Path 7" transform="translate(-267.4 -152.927)"/>
                <path id="Path_8" d="M405.291 199.778l-.721-.387a.259.259 0 0 1-.106-.106l-.387-.721a.259.259 0 0 0-.457 0l-.386.721a.262.262 0 0 1-.106.106l-.721.387a.259.259 0 0 0 0 .457l.721.387a.259.259 0 0 1 .106.106l.386.721a.259.259 0 0 0 .457 0l.387-.721a.256.256 0 0 1 .106-.106l.721-.387a.259.259 0 0 0 0-.457z" class="cls-3" data-name="Path 8" transform="translate(-349.606 -186.997)"/>
                <path id="Path_9" d="M243 191.953l-.66-.354a.239.239 0 0 1-.1-.1l-.354-.66a.237.237 0 0 0-.418 0l-.354.66a.239.239 0 0 1-.1.1l-.66.354a.237.237 0 0 0 0 .419l.66.354a.239.239 0 0 1 .1.1l.354.66a.237.237 0 0 0 .418 0l.354-.66a.239.239 0 0 1 .1-.1l.66-.354a.238.238 0 0 0 0-.419z" class="cls-3" data-name="Path 9" transform="translate(-232.231 -175.038)"/>
                <path id="Path_10" d="M372.088 180.661l-.483-.259a.173.173 0 0 1-.071-.071l-.259-.483a.174.174 0 0 0-.306 0l-.259.483a.173.173 0 0 1-.071.071l-.483.259a.174.174 0 0 0 0 .306l.483.259a.174.174 0 0 1 .071.071l.259.483a.174.174 0 0 0 .306 0l.259-.483a.174.174 0 0 1 .071-.071l.483-.259a.174.174 0 0 0 0-.306z" class="cls-3" data-name="Path 10" transform="translate(-329.938 -163.53)"/>
            </g>
        </g>
        <ellipse id="Ellipse_601" cx="41.5" cy="4" fill="#d3f3d2" data-name="Ellipse 601" opacity="0.4" rx="41.5" ry="4" transform="translate(301 648)"/>
    </g>
</svg>
