<svg xmlns="http://www.w3.org/2000/svg" xmlns:xlink="http://www.w3.org/1999/xlink" width="192" height="130" viewBox="0 0 192 130">
    <defs>
        <linearGradient id="linear-gradient" x1=".5" x2=".5" y1=".999" y2="-.002" gradientUnits="objectBoundingBox">
            <stop offset="0" stop-color="gray" stop-opacity=".251"/>
            <stop offset=".54" stop-color="gray" stop-opacity=".122"/>
            <stop offset="1" stop-color="gray" stop-opacity=".102"/>
        </linearGradient>
        <linearGradient id="linear-gradient-2" x1=".5" x2=".5" y1="1.002" y2=".002" xlink:href="#linear-gradient"/>
        <style>
            .cls-10{fill:none}.cls-9{fill:#fff}.cls-5{fill:#ce63ca;opacity:.44}.cls-6{fill:#44c68b}.cls-7{fill:#585a59}.cls-8{fill:#bebfbf}.cls-10{stroke:#dc67ce;stroke-linecap:round;stroke-miterlimit:10;opacity:.2}.cls-11{fill:#c1ddf7}.cls-12{fill:#c9001f}.cls-13{fill:#ff7eb8}.cls-15{fill:#ffbfdb}.cls-17{fill:#2e6089}.cls-18{fill:#24c11e}
        </style>
    </defs>
    <g id="Group_10630" data-name="Group 10630" transform="translate(-358 -572)">
        <g id="Group_10667" data-name="Group 10667">
            <path id="Rectangle_2191" fill="none" d="M0 0H192V130H0z" data-name="Rectangle 2191" transform="translate(358 572)"/>
            <g id="Group_10608" data-name="Group 10608" transform="translate(438.208 586.787)">
                <path id="Path_22" fill="#e5eef8" d="M143.236 179.481s69.384 3.1 78.987 1.5c-1.7-22.392-5.8-74.109-1.544-100.433-1.623-.2-7.713-.447-7.713-.447z" data-name="Path 22" transform="translate(-142.998 -80.006)" style="mix-blend-mode:multiply;isolation:isolate" opacity="0.6"/>
                <path id="Path_23" fill="#fff" d="M215.528 174.714c-21.006 5.4-72.292 4.56-72.292 4.56V79.8h75.837s-3.545 89.511-3.545 94.914z" data-name="Path 23" opacity="0.8" transform="translate(-143.236 -79.799)"/>
                <text id="I_-TCF" fill="#ce63ca" data-name="I -TCF" font-family="Raleway-Black, Raleway" font-size="4px" font-weight="800" opacity="0.44" transform="translate(31.091 13.657)">
                    <tspan x="0" y="0">I -TCF</tspan>
                </text>
                <g id="Group_29" data-name="Group 29" transform="translate(11.613 20.45)">
                    <g id="Group_28" data-name="Group 28" transform="translate(3.087)">
                        <g id="Group_27" data-name="Group 27">
                            <path id="Path_24" d="M191.766 153.186l-3.063-2.932 1.144-1.2 1.868 1.788 6.522-6.754 1.2 1.145z" class="cls-5" data-name="Path 24" transform="translate(-188.703 -144.092)"/>
                        </g>
                    </g>
                    <path id="Path_25" d="M188.292 158.423h-7.5a1.8 1.8 0 0 1-1.8-1.8v-7.572a1.8 1.8 0 0 1 1.8-1.8h7.5v.954h-7.5a.846.846 0 0 0-.845.845v7.572a.846.846 0 0 0 .845.845h7.5a.846.846 0 0 0 .845-.845v-2.985h.954v2.985a1.8 1.8 0 0 1-1.799 1.801z" class="cls-5" data-name="Path 25" transform="translate(-178.997 -146.247)"/>
                    <path id="Rectangle_20" d="M0 0H35.926V1.554H0z" class="cls-5" data-name="Rectangle 20" transform="translate(15.524 3.733)"/>
                    <path id="Rectangle_21" d="M0 0H35.926V1.554H0z" class="cls-5" data-name="Rectangle 21" transform="translate(15.524 8.296)"/>
                </g>
                <g id="Group_32" data-name="Group 32" transform="translate(11.613 39.259)">
                    <g id="Group_31" data-name="Group 31" transform="translate(3.087)">
                        <g id="Group_30" data-name="Group 30">
                            <path id="Path_26" d="M191.766 212.319l-3.063-2.932 1.144-1.2 1.868 1.788 6.522-6.754 1.2 1.145z" class="cls-5" data-name="Path 26" transform="translate(-188.703 -203.225)"/>
                        </g>
                    </g>
                    <path id="Path_27" d="M188.292 217.556h-7.5a1.8 1.8 0 0 1-1.8-1.8v-7.572a1.8 1.8 0 0 1 1.8-1.8h7.5v.954h-7.5a.846.846 0 0 0-.845.845v7.572a.846.846 0 0 0 .845.845h7.5a.846.846 0 0 0 .845-.845v-2.985h.954v2.985a1.8 1.8 0 0 1-1.799 1.801z" class="cls-5" data-name="Path 27" transform="translate(-178.997 -205.38)"/>
                    <path id="Rectangle_22" d="M0 0H19.253V1.554H0z" class="cls-5" data-name="Rectangle 22" transform="translate(15.524 3.733)"/>
                    <path id="Rectangle_23" d="M0 0H35.926V1.554H0z" class="cls-5" data-name="Rectangle 23" transform="translate(15.524 8.296)"/>
                </g>
                <g id="Group_35" data-name="Group 35" transform="translate(11.613 58.067)">
                    <g id="Group_34" data-name="Group 34" transform="translate(3.087)">
                        <g id="Group_33" data-name="Group 33">
                            <path id="Path_28" d="M191.766 271.452l-3.066-2.932 1.144-1.2 1.868 1.788 6.522-6.755 1.2 1.145z" class="cls-6" data-name="Path 28" transform="translate(-188.703 -262.358)"/>
                        </g>
                    </g>
                    <path id="Path_29" d="M188.292 276.689h-7.5a1.8 1.8 0 0 1-1.8-1.8v-7.572a1.8 1.8 0 0 1 1.8-1.8h7.5v.954h-7.5a.846.846 0 0 0-.845.845v7.572a.846.846 0 0 0 .845.845h7.5a.846.846 0 0 0 .845-.845V271.9h.954v2.985a1.8 1.8 0 0 1-1.799 1.804z" class="cls-7" data-name="Path 29" transform="translate(-178.997 -264.513)"/>
                    <path id="Rectangle_24" d="M0 0H28.54V1.554H0z" class="cls-8" data-name="Rectangle 24" transform="translate(15.524 3.733)"/>
                    <path id="Rectangle_25" d="M0 0H35.926V1.554H0z" class="cls-5" data-name="Rectangle 25" transform="translate(15.524 8.296)"/>
                </g>
                <g id="Group_38" data-name="Group 38" transform="translate(11.613 76.876)">
                    <g id="Group_37" data-name="Group 37" transform="translate(3.087)">
                        <g id="Group_36" data-name="Group 36">
                            <path id="Path_30" d="M191.766 330.585l-3.063-2.932 1.144-1.2 1.868 1.788 6.522-6.755 1.2 1.145z" class="cls-6" data-name="Path 30" transform="translate(-188.703 -321.491)"/>
                        </g>
                    </g>
                    <path id="Path_31" d="M188.292 335.822h-7.5a1.8 1.8 0 0 1-1.8-1.8v-7.572a1.8 1.8 0 0 1 1.8-1.8h7.5v.954h-7.5a.846.846 0 0 0-.845.845v7.572a.846.846 0 0 0 .845.845h7.5a.846.846 0 0 0 .845-.845v-2.985h.954v2.985a1.8 1.8 0 0 1-1.799 1.801z" class="cls-7" data-name="Path 31" transform="translate(-178.997 -323.646)"/>
                    <path id="Rectangle_26" d="M0 0H12.433V1.554H0z" class="cls-8" data-name="Rectangle 26" transform="translate(15.524 3.733)"/>
                    <path id="Rectangle_27" d="M0 0H22.398V1.554H0z" class="cls-8" data-name="Rectangle 27" transform="translate(15.524 8.296)"/>
                </g>
            </g>
            <g id="Group_10609" data-name="Group 10609" transform="translate(408.177 619.761)">
                <path id="Path_3099" d="M0 0h14l-.156 70.158H-.075z" class="cls-9" data-name="Path 3099" transform="translate(-.177 .239)"/>
                <path id="Path_3058" d="M0 0h13.348v63.228H0z" class="cls-9" data-name="Path 3058" transform="translate(14.388 5.373)"/>
                <g id="undraw_following_q0cr" transform="translate(4.315 12.638)">
                    <path id="Path_705" d="M300.49 216.023v53.685a2.063 2.063 0 0 1-2.063 2.067h-82.365a2.031 2.031 0 0 1-.569-.081 2.059 2.059 0 0 1-1.493-1.987v-47.17a1.028 1.028 0 0 1 .143.007 34.167 34.167 0 0 1 7.282-8.584h77a2.063 2.063 0 0 1 2.065 2.063z" class="cls-9" data-name="Path 705" transform="translate(-214 -213.96)"/>
                    <path id="Line_128" d="M0 0L73.046 0" class="cls-10" data-name="Line 128" transform="translate(8.291 15.685)"/>
                    <path id="Line_129" d="M0 0L73.046 0" class="cls-10" data-name="Line 129" transform="translate(8.291 29.185)"/>
                    <path id="Line_130" d="M0 0L73.046 0" class="cls-10" data-name="Line 130" transform="translate(8.291 42.685)"/>
                    <path id="Path_3097" d="M2.014 0h11.413a2.014 2.014 0 1 1 0 4.029H2.014a2.014 2.014 0 0 1 0-4.029z" class="cls-11" data-name="Path 3097" transform="translate(36.822 6.972)"/>
                    <rect id="Rectangle_542" width="4.849" height="2.387" class="cls-12" data-name="Rectangle 542" rx="1.194" transform="translate(46.072 7.793)"/>
                    <circle id="Ellipse_187" cx=".746" cy=".746" r=".746" class="cls-9" data-name="Ellipse 187" transform="translate(47.713 8.24)"/>
                    <path id="Path_3098" d="M2.014 0h11.413a2.014 2.014 0 1 1 0 4.029H2.014a2.014 2.014 0 0 1 0-4.029z" class="cls-11" data-name="Path 3098" transform="translate(36.822 33.53)"/>
                    <rect id="Rectangle_545" width="4.849" height="2.387" class="cls-12" data-name="Rectangle 545" rx="1.194" transform="translate(46.072 34.351)"/>
                    <circle id="Ellipse_188" cx=".746" cy=".746" r=".746" class="cls-9" data-name="Ellipse 188" transform="translate(47.713 34.798)"/>
                    <rect id="Rectangle_546" width="15.442" height="4.029" class="cls-11" data-name="Rectangle 546" rx="2.014" transform="translate(36.822 46.809)"/>
                    <rect id="Rectangle_548" width="4.849" height="2.387" class="cls-12" data-name="Rectangle 548" rx="1.194" transform="translate(46.072 47.629)"/>
                    <circle id="Ellipse_189" cx=".746" cy=".746" r=".746" class="cls-9" data-name="Ellipse 189" transform="translate(47.713 48.077)"/>
                    <rect id="Rectangle_549" width="15.442" height="4.029" class="cls-12" data-name="Rectangle 549" rx="2.014" transform="translate(36.822 20.251)"/>
                    <rect id="Rectangle_551" width="4.849" height="2.387" class="cls-12" data-name="Rectangle 551" rx="1.194" transform="rotate(180 21.506 11.73)"/>
                    <circle id="Ellipse_190" cx=".746" cy=".746" r=".746" class="cls-9" data-name="Ellipse 190" transform="translate(39.88 21.52)"/>
                    <path id="Path_706" d="M324.031 252.252a5.266 5.266 0 0 1-2.567 4.523l-.072.043-.136.075-.129.067-.02.01q-.081.04-.165.077a5.14 5.14 0 0 1-.548.213c-.122.039-.245.075-.37.105a5.209 5.209 0 0 1-.776.129c-.159.015-.319.022-.482.022a5.489 5.489 0 0 1-.579-.031h-.034c-.066-.007-.132-.016-.2-.026a5.454 5.454 0 0 1-.623-.136l-.1-.03-.09-.028-.029-.01a5.2 5.2 0 0 1-.538-.211 5.131 5.131 0 0 1-.857-.5l-.013-.009-.009-.007-.1-.071-.073-.056a4.935 4.935 0 0 1-.408-.355q-.181-.175-.345-.366a5.266 5.266 0 1 1 9.257-3.433z" class="cls-13" data-name="Path 706" transform="translate(-302.352 -243.285)"/>
                    <path id="Path_707" fill="url(#linear-gradient)" d="M331.049 280.921l-.133.04a.3.3 0 0 1-.206-.068l-.044-.041a.164.164 0 0 0-.1-.057h-.011a.111.111 0 0 1-.046 0 .012.012 0 0 1-.009 0 .056.056 0 0 1-.026-.045 2.212 2.212 0 0 1-.059-.306 2.846 2.846 0 0 1 0-.336v-.267a2.486 2.486 0 0 0 .026-.3 1.136 1.136 0 0 0-.03-.32.9.9 0 0 0-.063-.168c-.018-.151-.039-.3-.06-.448-.016-.112-.033-.224-.053-.336a.508.508 0 0 0 .011-.056.543.543 0 0 0-.193-.491.59.59 0 0 0-.143-.089c-.043-.018-.086-.032-.13-.047l-.7-.224c-.066-.1-.129-.2-.189-.3a2.1 2.1 0 0 1-.148-.286 1.162 1.162 0 0 0 .29-1.529c-.011-.018-.025-.035-.037-.052a.753.753 0 0 0-.03-.261.016.016 0 0 0 0-.007.371.371 0 0 0-.1-.187l-.024-.026a.358.358 0 0 0-.035-.037 1.3 1.3 0 0 0-.152-.131 2.6 2.6 0 0 0-.83-.458.952.952 0 0 0-.428 0l-.022-.008-.041-.008.033.016a.937.937 0 0 0-.456.008c-.185.057-.25.208-.328.374a1.672 1.672 0 0 1-.56.661c-.154.105-.336.2-.41.372a1.064 1.064 0 0 0-.007.528 1.467 1.467 0 0 1-.532 1.262c-.209.168-.488.308-.534.577a1 1 0 0 0 .152.551 1.365 1.365 0 0 1 .028 1.188l-.058.1c.106.13.224.253.336.372a5.077 5.077 0 0 0 .4.36l.072.057.1.071.009.008.013.009a5.045 5.045 0 0 0 .845.5.057.057 0 0 1 .007-.019.077.077 0 0 0 0 .022 4.984 4.984 0 0 0 .53.213l.028.01.089.029.1.03a5.3 5.3 0 0 0 .614.138c.065.01.13.019.2.026h.032a5.326 5.326 0 0 0 .571.031c.16 0 .318-.008.475-.022a4.961 4.961 0 0 0 .765-.131c.03-.007.06-.016.091-.025.092-.025.183-.052.273-.082a5.025 5.025 0 0 0 .54-.215c.055-.026.112-.052.162-.078l.02-.01.127-.068a.009.009 0 0 1-.012-.014zm-4.489-.155a.225.225 0 0 0 0-.028.478.478 0 0 1 0-.09.139.139 0 0 1 .02-.049v.054a.3.3 0 0 1-.02.113z" data-name="Path 707" transform="translate(-312.146 -267.329)"/>
                    <path id="Path_708" d="M330.328 281.657l-.136.04a.3.3 0 0 1-.208-.067c-.015-.012-.03-.028-.045-.041a.164.164 0 0 0-.1-.056h-.011a.111.111 0 0 1-.047 0 .012.012 0 0 1-.009 0 .06.06 0 0 1-.027-.045 2.135 2.135 0 0 1-.059-.3 2.781 2.781 0 0 1 0-.336v-.263a2.424 2.424 0 0 0 .026-.3 1.1 1.1 0 0 0-.03-.316.991.991 0 0 0-.064-.166c-.018-.149-.04-.3-.062-.448-.016-.112-.033-.224-.054-.336a.346.346 0 0 1 .012-.055.529.529 0 0 0-.2-.484.6.6 0 0 0-.146-.087c-.043-.018-.087-.032-.132-.047l-.714-.224c-.066-.1-.13-.195-.192-.295a1.951 1.951 0 0 1-.15-.282 1.12 1.12 0 0 0 .295-1.509c-.011-.018-.025-.034-.037-.05a.735.735 0 0 0-.03-.258.016.016 0 0 0 0-.007.4.4 0 0 0-.025-.078.46.46 0 0 0-.073-.106l-.025-.026a.344.344 0 0 0-.035-.036 1.316 1.316 0 0 0-.158-.122 2.58 2.58 0 0 0-.842-.448.976.976 0 0 0-.434 0l-.022-.007-.042-.008.033.016a.965.965 0 0 0-.463.008c-.187.056-.253.205-.336.369a1.664 1.664 0 0 1-.56.652 1.028 1.028 0 0 0-.416.368.968.968 0 0 0-.007.521 1.434 1.434 0 0 1-.54 1.245c-.213.166-.5.3-.542.569a.964.964 0 0 0 .155.544 1.324 1.324 0 0 1 .028 1.172l-.059.1a4.822 4.822 0 0 0 .345.366 4.909 4.909 0 0 0 .408.355l.073.056.1.071.009.007.013.009a5.126 5.126 0 0 0 .857.5.057.057 0 0 1 .007-.018.54.54 0 0 1 .027-.058.653.653 0 0 0 .1-.224.252.252 0 0 0 0-.028.456.456 0 0 1 0-.089.142.142 0 0 1 .02-.048c.012-.022.03-.044.045-.066a.245.245 0 0 0 .021-.037l.035.051c.04.062.08.123.119.186a.288.288 0 0 1 .058.143.234.234 0 0 0 0 .093c.017.039.073.072.051.112a.148.148 0 0 0 0 .132.642.642 0 0 0 .047.064l.029.01.09.028.1.03a5.439 5.439 0 0 0 .623.136c.066.01.132.019.2.026h.034a5.49 5.49 0 0 0 .579.031c.162 0 .323-.008.482-.022a5.225 5.225 0 0 0 .776-.129c.031-.007.062-.016.093-.025.093-.025.185-.05.277-.081a5.148 5.148 0 0 0 .548-.213q.084-.037.165-.077l.02-.01.129-.067z" class="cls-15" data-name="Path 708" transform="translate(-311.424 -268.057)"/>
                    <path id="Path_709" d="M323.031 371.291a5.24 5.24 0 0 1-.645 2.527 4.961 4.961 0 0 1-.294.473 4.883 4.883 0 0 1-.344.448.168.168 0 0 1-.024.026c-.047.056-.1.112-.149.164l-.057.06c-.058.059-.118.112-.179.173a.205.205 0 0 1-.022.021c-.028.026-.057.053-.087.077a5.128 5.128 0 0 1-.5.384c-.089.06-.178.119-.27.174l-.072.043-.136.075-.092.048-.037.019-.02.01q-.054.027-.112.05l-.057.027-.112.047c-.1.043-.2.083-.3.119l-.137.046h-.016a.189.189 0 0 1-.034.01l-.026.009-.076.022-.026.008-.033.009-.047.012a.175.175 0 0 1-.033.009l-.08.021c-.058.015-.118.028-.177.039a5.052 5.052 0 0 1-.6.09c-.152.013-.3.021-.46.022h-.036c-.148 0-.292-.007-.437-.019l-.128-.012h-.054l-.178-.024-.142-.025-.036-.007c-.066-.012-.132-.026-.2-.043a.034.034 0 0 1-.016 0c-.078-.017-.156-.037-.232-.058l-.1-.03-.09-.028-.029-.01a5.367 5.367 0 0 1-.533-.209q-.18-.083-.353-.178l-.052-.029-.076-.044-.041-.025c-.112-.069-.224-.143-.336-.224l-.013-.009-.009-.007-.1-.071-.073-.056a4.928 4.928 0 0 1-.408-.355q-.181-.175-.345-.366a5.266 5.266 0 1 1 9.26-3.435z" class="cls-13" data-name="Path 709" transform="translate(-301.464 -348.991)"/>
                    <path id="Path_710" fill="url(#linear-gradient-2)" d="M338.616 405.124a.2.2 0 0 0-.028-.032.145.145 0 0 0-.026-.02.259.259 0 0 1-.1-.246.221.221 0 0 0 0-.029 1.528 1.528 0 0 0-.13-.33c-.028-.059-.063-.15-.093-.235-.04-.112-.073-.214-.073-.214a.117.117 0 0 0-.006-.029l-.083-.455v-.034a4.415 4.415 0 0 0-.438-.875.044.044 0 0 0-.017-.021c-.089-.041-.391-.215-.391-.215a.783.783 0 0 0-.584-.356h-.092a.445.445 0 0 0-.058.014l-.021.007-.029.012-.007.055a1.241 1.241 0 0 1 .031-.406l.011-.038h.065a1.1 1.1 0 0 0 1.041-1.4v-.016l.032-.016c.132-.05.3.036.411-.056a.323.323 0 0 0 .082-.143.867.867 0 0 0 .059-.23.375.375 0 0 0 0-.072v-.009a.267.267 0 0 0-.057-.142c-.071-.084-.189-.105-.28-.167a.7.7 0 0 1-.178-.214.765.765 0 0 0-.174-.217.253.253 0 0 0-.26-.043.307.307 0 0 1-.086.041.18.18 0 0 1-.094-.026 1.808 1.808 0 0 0-1.008-.077 1.32 1.32 0 0 0-.4.1.479.479 0 0 0-.267.3c-.028.105-.007.224-.04.324-.022.071-.068.132-.094.2a.442.442 0 0 0-.025.118V400a3.316 3.316 0 0 0 .077.409 2.843 2.843 0 0 0 .112.661.391.391 0 0 0 .036.072c-.033.071-.066.141-.1.208l-.052-.011h-.04a.172.172 0 0 0-.04 0 .125.125 0 0 0-.028.012l-.011.01-.008.006a.046.046 0 0 0-.009.015.019.019 0 0 0 0 .008.137.137 0 0 0-.011.043v.011a.264.264 0 0 1-.007.072c-.007.025 0 .028-.006.041a.312.312 0 0 1-.006.035v.009a.186.186 0 0 1-.009.041l-.017.05-.007.015a.468.468 0 0 1-.021.043l-.038.039a.044.044 0 0 0-.024.043l-.017.013a.056.056 0 0 0-.024.009c-.008-.018-.039-.018-.137.1a1.851 1.851 0 0 1-.448.347s-.658.468-.694.684a4.633 4.633 0 0 0-.136 1.463c.015.04.043.1.08.179v.007s.032.124.084.308l.041.026.076.044.052.03c.112.064.233.124.353.18a5.394 5.394 0 0 0 .533.212l.029.01.09.029.1.03c.076.021.154.041.232.059a.036.036 0 0 0 .016 0c.065.017.131.03.2.043l.036.007.142.026.178.023h.054l.128.012c.145.012.289.019.437.019h.036c.156 0 .308-.009.46-.022a5.055 5.055 0 0 0 .6-.091c.059-.011.119-.025.177-.04l.08-.021a.177.177 0 0 0 .033-.009l.047-.012.033-.009.026-.008.076-.022.026-.01a.2.2 0 0 0 .034-.01h.016l.137-.046c.1-.037.2-.077.3-.121l.112-.047c.019-.009.038-.017.057-.028a.336.336 0 0 0-.039-.072zm-2.172-2.968h-.007v-.007z" data-name="Path 710" transform="translate(-320.131 -378.141)"/>
                    <path id="Path_711" d="M338.661 405.956a.25.25 0 0 0-.028-.031.143.143 0 0 0-.026-.02.253.253 0 0 1-.1-.243.211.211 0 0 0 0-.029 1.49 1.49 0 0 0-.13-.326c-.028-.058-.063-.148-.093-.232-.04-.112-.073-.212-.073-.212l-.006-.028-.083-.448v-.032a4.343 4.343 0 0 0-.438-.864.04.04 0 0 0-.017-.02c-.089-.041-.391-.213-.391-.213a.785.785 0 0 0-.584-.352h-.092a.453.453 0 0 0-.058.015l-.021.007-.029.012-.007.055a1.216 1.216 0 0 1 .031-.4.153.153 0 0 1 .011-.037h.065a1.083 1.083 0 0 0 1.083-1.083 1.065 1.065 0 0 0-.043-.3v-.015h.018c.132-.049.3.036.411-.055a.316.316 0 0 0 .082-.142.83.83 0 0 0 .059-.224.368.368 0 0 0 0-.071v-.009a.263.263 0 0 0-.057-.14c-.071-.084-.189-.1-.28-.166a.672.672 0 0 1-.178-.211.772.772 0 0 0-.171-.215.252.252 0 0 0-.26-.04.337.337 0 0 1-.086.04.18.18 0 0 1-.094-.026 1.817 1.817 0 0 0-1.008-.076 1.284 1.284 0 0 0-.4.1.475.475 0 0 0-.267.292c-.028.1-.007.217-.04.32-.022.069-.068.13-.094.2a.407.407 0 0 0-.025.112v.071a3.226 3.226 0 0 0 .077.4 2.8 2.8 0 0 0 .112.653.416.416 0 0 0 .036.071c-.033.069-.066.139-.1.2a.474.474 0 0 0-.052-.011h-.04a.159.159 0 0 0-.04 0 .137.137 0 0 0-.027.011l-.011.01-.008.006a.046.046 0 0 0-.009.015.018.018 0 0 0 0 .008.131.131 0 0 0-.011.043v.011a.252.252 0 0 1-.007.071c-.007.023 0 .028-.006.041s0 .022-.006.034 0 .006 0 .009l-.009.041-.017.05-.007.013a.369.369 0 0 1-.021.041.12.12 0 0 1-.021.015.043.043 0 0 0-.024.042l-.017.014a.051.051 0 0 0-.023.008c-.008-.017-.039-.017-.137.1a1.845 1.845 0 0 1-.448.343s-.658.463-.693.672a4.505 4.505 0 0 0-.136 1.444c.015.04.043.1.08.177v.007s.032.123.084.3l.041.025.076.044.052.029q.173.1.353.178a5.378 5.378 0 0 0 .533.209l.029.01.09.028.1.03c.076.021.154.042.232.058a.038.038 0 0 0 .016 0c.065.017.131.03.2.042l.036.007.142.025.178.024h.054l.128.012c.145.012.289.019.437.019h.036c.156 0 .308-.009.46-.022a5.052 5.052 0 0 0 .6-.09c.059-.011.119-.025.177-.039l.08-.021a.177.177 0 0 0 .032-.009l.047-.012.032-.009.026-.008.076-.022.026-.009a.187.187 0 0 0 .034-.01h.016l.137-.046c.1-.036.2-.076.3-.119l.112-.047.057-.027a.336.336 0 0 0-.045-.053zm-2.172-2.929h-.007v-.007z" class="cls-15" data-name="Path 711" transform="translate(-320.175 -378.966)"/>
                    <path id="Path_712" d="M324.031 489.105a5.239 5.239 0 0 1-.645 2.527 4.963 4.963 0 0 1-.294.473 4.867 4.867 0 0 1-.344.448.167.167 0 0 1-.023.026c-.047.056-.1.112-.149.164l-.057.06c-.058.059-.118.112-.179.173a.2.2 0 0 1-.022.021c-.028.026-.057.053-.087.077a5.148 5.148 0 0 1-.5.384c-.089.06-.178.119-.27.174l-.072.043-.136.075-.066.035h-.008l-.018.01-.037.019-.02.01-.112.05-.057.027-.112.047-.159.066-.084.031-.057.021-.137.046h-.016l-.034.01-.026.009-.076.022-.026.008h-.033l-.047.012a.18.18 0 0 1-.032.009l-.08.021c-.058.015-.118.028-.177.039-.1.02-.194.038-.291.053s-.205.028-.308.037c-.152.013-.3.021-.461.022h-.036c-.148 0-.292-.007-.437-.019l-.128-.012h-.054a1.054 1.054 0 0 1-.161-.021h-.017l-.142-.025-.036-.007c-.066-.012-.132-.026-.2-.043a.038.038 0 0 1-.016 0c-.078-.017-.156-.037-.232-.058l-.1-.03-.09-.028-.029-.01-.082-.028-.057-.02c-.041-.014-.082-.03-.122-.047l-.041-.017-.053-.021q-.087-.036-.171-.074-.18-.082-.353-.178l-.052-.029-.076-.044-.041-.025a1.912 1.912 0 0 1-.167-.112c-.056-.037-.112-.074-.164-.112l-.013-.009-.009-.007-.1-.071-.073-.056a4.923 4.923 0 0 1-.408-.355q-.181-.175-.345-.366a5.266 5.266 0 1 1 9.246-3.427z" class="cls-13" data-name="Path 712" transform="translate(-302.353 -453.586)"/>
                    <g id="Group_879" data-name="Group 879" transform="translate(13.495 33.744)">
                        <path id="Path_714" d="M339.643 521.337a.065.065 0 0 1-.032-.022.185.185 0 0 1 .1-.056c.035-.009.054-.06.049-.112a.19.19 0 0 0-.042-.14.1.1 0 0 1-.023-.039.98.98 0 0 1 .066-.121.038.038 0 0 0 0-.038c.031-.077-.112-.063-.112-.063v-.736s-.011-.059-.027-.173-.038-.279-.059-.491c-.043-.422-.21-.466-.21-.466a1.893 1.893 0 0 1-.26-.1 1.778 1.778 0 0 0-.273-.1 1.4 1.4 0 0 1-.354-.049 1.083 1.083 0 0 0-.241-.052l-.026-.013a.934.934 0 0 1-.432-.448.9.9 0 0 0 .1-.13v.084c.112-.2.448-.248.481-.477v-.008a.264.264 0 0 0 0-.059.272.272 0 0 0 0-.029v-.024c0-.057-.022-.112-.029-.174v-.011a.392.392 0 0 1 .009-.05.09.09 0 0 1 0-.016.466.466 0 0 1 .017-.056c.047-.127.134-.245.181-.375a.617.617 0 0 0 .024-.09v-.012a.753.753 0 0 0 .009-.088v-.063a.014.014 0 0 0 0-.008.036.036 0 0 0 0-.011.282.282 0 0 0 0-.031.681.681 0 0 0-.224-.493c-.112-.1-.267-.162-.346-.292-.037-.062-.055-.132-.1-.192a.481.481 0 0 0-.348-.172 1.942 1.942 0 0 1-.4-.053c-.091-.029-.171-.082-.262-.112a.5.5 0 0 0-.54.194.908.908 0 0 1-.143.208c-.132.112-.356.064-.473.193a.322.322 0 0 0-.063.245v.062a.059.059 0 0 1 0 .014.274.274 0 0 0 0 .044v.046a.726.726 0 0 0 .011.086 1.311 1.311 0 0 1 .011.148v.022a1.534 1.534 0 0 1-.167.648 1.979 1.979 0 0 0-.3.651.545.545 0 0 0 0 .1v-.01a.145.145 0 0 0 0 .022v.129l.01.054a.257.257 0 0 0 0 .029l.017.069v.012c.031.112.073.233.1.351a1.149 1.149 0 0 1 .02.121.031.031 0 0 0 0 .01c0 .034.006.068.007.1V518.751a1.311 1.311 0 0 1-.168.052c-.1.015-.4.277-.375.342a.089.089 0 0 1 0 .028.093.093 0 0 1 0 .018 4.308 4.308 0 0 1-.137.487l-.237 1.637c.055.037.112.072.167.112l.041.025.076.044.052.029q.173.1.353.178.084.039.171.074l.053.021.041.017a.183.183 0 0 0 .067.042h.048a.111.111 0 0 0 .034 0h.018l.057.02.082.028.029.01.09.028.1.03c.076.021.153.041.232.058a.036.036 0 0 0 .016 0c.065.017.131.03.2.043l.036.007.142.025h.017l.161.021h.054l.128.012c.145.012.289.019.437.019h.036c.156 0 .308-.009.46-.022.1-.009.206-.021.308-.037s.195-.033.291-.053c.059-.011.119-.025.177-.039l.08-.021a.187.187 0 0 0 .033-.009l.047-.012h.013c0-.076-.009-.141-.011-.192l.045.056a.056.056 0 0 1 .012.025.459.459 0 0 0-.041.112h.01l.026-.008.076-.022.026-.009.034-.01h.016l.137-.046.057-.021.084-.031.159-.066.112-.047.057-.027.112-.05.02-.01.037-.019.018-.01h.008a.487.487 0 0 0 0-.078v-.04c.007-.033-.056-.099-.15-.135zm-4.246-2.609z" class="cls-15" data-name="Path 714" transform="translate(-334.45 -515.155)"/>
                        <path id="Path_715" d="M336.25 574.559l-.02-.009a.069.069 0 0 0 .02.009z" class="cls-17" data-name="Path 715" transform="translate(-336.031 -567.896)"/>
                    </g>
                    <path id="Path_716" d="M324.031 608.094a5.239 5.239 0 0 1-.645 2.528 4.966 4.966 0 0 1-.294.473 4.9 4.9 0 0 1-.344.448.1.1 0 0 1-.021.022c-.047.056-.1.112-.149.164l-.016.017-.041.044c-.058.059-.118.112-.179.172a.2.2 0 0 1-.022.021c-.028.026-.057.053-.087.077a4.1 4.1 0 0 1-.365.292l-.022.016-.046.032c-.02.016-.04.029-.062.044-.089.06-.178.119-.27.174l-.04.025-.031.018-.136.075-.066.035h-.008l-.018.01-.037.019-.02.01-.112.05-.057.027-.112.047-.159.066-.084.031-.057.021-.022.008-.112.038h-.016l-.034.01-.026.009-.03.009-.046.013-.026.008h-.033l-.047.012a.169.169 0 0 1-.033.009l-.079.021c-.058.015-.118.028-.177.039-.1.02-.194.038-.291.053q-.087.014-.175.023h-.021l-.112.011c-.152.013-.3.021-.46.022h-.128c-.112 0-.231-.008-.345-.018h-.034l-.094-.009h-.054l-.112-.013-.054-.008h-.017l-.142-.025-.036-.007-.094-.018-.039-.009-.064-.016a.036.036 0 0 1-.016 0c-.078-.017-.156-.037-.232-.058l-.04-.012h-.015l-.047-.013-.044-.013-.046-.014-.029-.01-.082-.028-.057-.02-.053-.023-.068-.027-.041-.017-.053-.021q-.087-.036-.171-.074c-.088-.04-.176-.083-.261-.13-.031-.015-.062-.031-.092-.048l-.023-.013-.027-.015-.076-.044-.041-.025a1.884 1.884 0 0 1-.167-.112c-.056-.037-.112-.074-.164-.112l-.013-.009-.009-.007-.046-.034-.05-.037-.009-.007c-.021-.017-.044-.032-.064-.049a4.929 4.929 0 0 1-.408-.355q-.181-.175-.345-.366a5.266 5.266 0 1 1 9.244-3.428z" class="cls-13" data-name="Path 716" transform="translate(-302.353 -559.242)"/>
                    <path id="Path_717" d="M338.278 641.858a.174.174 0 0 0-.233-.076l-1.534.784a.181.181 0 0 0-.019-.059.14.14 0 0 0-.063-.112.1.1 0 0 1-.034-.033.313.313 0 0 1 0-.035.1.1 0 0 0-.018-.08.2.2 0 0 0-.084-.143h-.006v-.039a.156.156 0 0 0-.021-.071c-.006-.073-.058-.14-.164-.24a.373.373 0 0 1-.084-.15v-.004c-.019-.073-.038-.155-.065-.237a1.314 1.314 0 0 0-.045-.139c-.083-.214-.174-.186-.211-.224s-.278-.086-.4-.15a1.32 1.32 0 0 0-.553.025v-.021a1.037 1.037 0 0 0 .717-1.208l-.007-.026a.419.419 0 0 0 .159-.031.208.208 0 0 0 .073-.134.673.673 0 0 0 .02-.3c0-.01-.009-.02-.012-.03a.172.172 0 0 0-.008-.026.11.11 0 0 0 0-.027.433.433 0 0 0-.035-.092.016.016 0 0 1 0 .008 3.221 3.221 0 0 0-.258-.346c-.09-.134-.141-.3-.277-.394a.56.56 0 0 0-.463-.023 1.317 1.317 0 0 1-.217.056 2.3 2.3 0 0 1-.371-.022.8.8 0 0 0-.493.131.277.277 0 0 0-.081.081.421.421 0 0 0-.036.146.709.709 0 0 1-.1.266c-.038.065-.086.122-.121.188a.289.289 0 0 0-.033.216c.012.038.035.072.044.112a.409.409 0 0 1-.078.255.485.485 0 0 0-.054.243.313.313 0 0 0 .068.176.244.244 0 0 0 .022.046l.006.008a.312.312 0 0 0 .022.031l.011.011.022.022a.376.376 0 0 0 .218.068.355.355 0 0 0 .019.036v.02a.111.111 0 0 0 0 .019c-.007 0-.231.03-.3.124a.436.436 0 0 1-.266.112s-.218.073-.214.092-.064.045-.2.082a.889.889 0 0 0-.364.2c0 .032-.361.386-.361.424a.9.9 0 0 0-.1.413 1.48 1.48 0 0 1-.027.6c-.055.05 0 .245 0 .245a.136.136 0 0 1 0 .146 1.238 1.238 0 0 0 .009.423v.355a.823.823 0 0 1 .02.155l.009.007.05.037.046.034.009.007.013.009c.054.038.112.075.164.112.055.037.112.072.167.112l.041.025.076.044.027.015.024.013c.03.017.061.034.092.048.085.047.173.09.261.13q.084.039.171.074l.053.021.042.017.068.027.054.02.057.02.082.028.029.01.046.015.044.013.047.013h.015l.04.012c.076.021.154.042.232.058a.034.034 0 0 0 .016 0l.064.016.039.009.094.018.036.007.142.025h.017l.054.008.112.013h.054l.094.009h.034c.112.01.224.016.345.018h.128c.156 0 .308-.009.46-.022l.112-.011h.021q.087-.01.175-.023c.1-.015.195-.032.291-.053.059-.011.119-.025.177-.039l.08-.021a.177.177 0 0 0 .032-.009l.047-.012h.032l.026-.008.046-.013.03-.009.026-.009.034-.01h.016l.112-.038.022-.008.057-.021.084-.031.159-.066.112-.047.057-.027.112-.05.02-.01.037-.019.018-.01h.008l.066-.035.136-.075.031-.018.04-.025c.092-.055.181-.112.27-.174l.062-.044h.022l.024-.035.022-.016c.127-.092.249-.189.365-.292.03-.025.059-.052.087-.077a.2.2 0 0 0 .022-.021c.062-.056.121-.112.179-.173l.041-.044.016-.017c.052-.053.1-.112.149-.164zm-2.553 1.757l-.028.007a.048.048 0 0 1 .009-.024s-.171.007-.345.02a.258.258 0 0 1 .009-.086 2.052 2.052 0 0 0 .085-.378l.3.455zm.057.865a.423.423 0 0 0 0-.045c.01-.007.017-.012.018-.017a1.133 1.133 0 0 0-.017-.149h.027l.315-.049a.576.576 0 0 0 .112-.016l.026.05a1.621 1.621 0 0 0-.4.18.154.154 0 0 1-.075.045z" class="cls-15" data-name="Path 717" transform="translate(-318.471 -590.654)"/>
                    <g id="Group_10483" data-name="Group 10483" transform="translate(69.784 6.865)">
                        <path id="Path_718" d="M842.49 275.752l-.448-.448a.237.237 0 0 0-.336 0l-2.785 2.763-1.179-1.188a.234.234 0 0 0-.336 0l-.448.448a.237.237 0 0 0 0 .336l1.793 1.8a.238.238 0 0 0 .336 0l3.4-3.373a.236.236 0 0 0 0-.341z" class="cls-18" data-name="Path 718" transform="translate(-836.888 -275.234)"/>
                        <path id="Path_719" d="M842.534 392.892l-.448-.448a.236.236 0 0 0-.336 0l-2.78 2.767-1.179-1.188a.234.234 0 0 0-.336 0l-.448.448a.238.238 0 0 0 0 .336l1.793 1.8a.237.237 0 0 0 .336 0l3.4-3.382a.236.236 0 0 0 0-.336z" class="cls-18" data-name="Path 719" transform="translate(-836.932 -379.25)"/>
                        <path id="Path_720" d="M842.486 629.3l-.448-.448a.238.238 0 0 0-.336 0l-2.785 2.763-1.179-1.188a.236.236 0 0 0-.336 0l-.448.448a.237.237 0 0 0 0 .336l1.793 1.8a.239.239 0 0 0 .336 0l3.4-3.374a.234.234 0 0 0 0-.339z" class="cls-18" data-name="Path 720" transform="translate(-836.884 -589.169)"/>
                    </g>
                </g>
            </g>
        </g>
    </g>
</svg>
