<svg xmlns="http://www.w3.org/2000/svg" xmlns:xlink="http://www.w3.org/1999/xlink" width="110" height="80" viewBox="0 0 110 80">
    <defs>
        <linearGradient id="linear-gradient" x1=".5" x2=".5" y1=".999" y2="-.002" gradientUnits="objectBoundingBox">
            <stop offset="0" stop-color="gray" stop-opacity=".251"/>
            <stop offset=".54" stop-color="gray" stop-opacity=".122"/>
            <stop offset="1" stop-color="gray" stop-opacity=".102"/>
        </linearGradient>
        <linearGradient id="linear-gradient-2" x1=".5" x2=".5" y1="1.002" y2=".002" xlink:href="#linear-gradient"/>
        <style>
            .cls-12{fill:none}.cls-7{fill:#95b8d6}.cls-6{fill:#93bcda}.cls-8{fill:#44c68b}.cls-9{fill:#585a59}.cls-10{fill:#bebfbf}.cls-11{fill:#d2e6f8}.cls-12{stroke:#2e6089;stroke-linecap:round;stroke-miterlimit:10;opacity:.3}.cls-13{fill:#fff}.cls-14{fill:#2e6089}.cls-15{fill:#4e89ad;opacity:.4}.cls-18{fill:#24c11e}
        </style>
    </defs>
    <g id="Group_17870" transform="translate(-1440 -612)">
        <path id="Rectangle_5302" fill="none" d="M0 0H110V80H0z" transform="translate(1440 612)"/>
        <g id="Group_17737" transform="translate(14069.074 19866.213)">
            <path id="Path_6" fill="#ebf5ff" d="M2.406 1.076L1.832.768a.206.206 0 0 1-.085-.085L1.439.109a.207.207 0 0 0-.364 0L.768.683a.206.206 0 0 1-.085.085l-.574.308a.207.207 0 0 0 0 .364l.574.308a.206.206 0 0 1 .085.085l.308.574a.207.207 0 0 0 .364 0l.308-.574a.206.206 0 0 1 .085-.085l.574-.308a.207.207 0 0 0-.001-.364z" transform="translate(-12594.782 -19234.703) rotate(-65)"/>
            <g id="Group_10608" transform="translate(-12592.974 -19253.213)">
                <path id="Path_22" fill="#e5eef8" d="M143.236 155.909s52.926 2.366 60.251 1.145c-1.3-17.08-4.427-56.53-1.178-76.61-1.238-.155-5.883-.341-5.883-.341z" transform="translate(-143.055 -80.029)" style="mix-blend-mode:multiply;isolation:isolate" opacity="0.6"/>
                <path id="Path_23" fill="#e0edfa" d="M198.38 152.2c-16.024 4.12-55.144 3.478-55.144 3.478V79.8h57.849s-2.705 68.279-2.705 72.4z" opacity="0.6" transform="translate(-143.236 -79.799)"/>
                <text id="I_-TCF" fill="#95b8d6" font-family="Raleway-Black, Raleway" font-size="2px" font-weight="800" transform="translate(23.716 9.366)">
                    <tspan x="0" y="0">I -TCF</tspan>
                </text>
                <g id="Group_29" transform="translate(8.858 15.599)">
                    <g id="Group_28" transform="translate(2.355)">
                        <g id="Group_27">
                            <path id="Path_24" d="M191.04 151.029l-2.337-2.237.873-.912 1.424 1.364 4.975-5.152.912.873z" class="cls-6" transform="translate(-188.703 -144.092)"/>
                        </g>
                    </g>
                    <path id="Path_25" d="M186.087 155.773h-5.717A1.374 1.374 0 0 1 179 154.4v-5.776a1.374 1.374 0 0 1 1.373-1.373h5.718v.728h-5.721a.645.645 0 0 0-.645.645v5.776a.645.645 0 0 0 .645.645h5.718a.645.645 0 0 0 .644-.645v-2.277h.728v2.277a1.374 1.374 0 0 1-1.373 1.373z" class="cls-7" transform="translate(-178.997 -146.485)"/>
                    <path id="Rectangle_20" d="M0 0H27.404V1.185H0z" class="cls-7" transform="translate(11.842 2.847)"/>
                    <path id="Rectangle_21" d="M0 0H27.404V1.185H0z" class="cls-7" transform="translate(11.842 6.328)"/>
                </g>
                <g id="Group_32" transform="translate(8.858 29.946)">
                    <g id="Group_31" transform="translate(2.355)">
                        <g id="Group_30">
                            <path id="Path_26" d="M191.04 210.162l-2.337-2.237.873-.912 1.424 1.364 4.975-5.152.912.873z" class="cls-6" transform="translate(-188.703 -203.225)"/>
                        </g>
                    </g>
                    <path id="Path_27" d="M186.087 214.906h-5.717a1.374 1.374 0 0 1-1.37-1.373v-5.776a1.374 1.374 0 0 1 1.373-1.373h5.718v.728h-5.721a.645.645 0 0 0-.645.645v5.776a.645.645 0 0 0 .645.645h5.718a.645.645 0 0 0 .644-.645v-2.277h.728v2.277a1.374 1.374 0 0 1-1.373 1.373z" class="cls-7" transform="translate(-178.997 -205.618)"/>
                    <path id="Rectangle_22" d="M0 0H14.686V1.185H0z" class="cls-7" transform="translate(11.842 2.847)"/>
                    <path id="Rectangle_23" d="M0 0H27.404V1.185H0z" class="cls-7" transform="translate(11.842 6.328)"/>
                </g>
                <g id="Group_35" transform="translate(8.858 44.294)">
                    <g id="Group_34" transform="translate(2.355)">
                        <g id="Group_33">
                            <path id="Path_28" d="M191.04 269.3l-2.337-2.237.873-.912L191 267.51l4.975-5.152.912.873z" class="cls-8" transform="translate(-188.703 -262.358)"/>
                        </g>
                    </g>
                    <path id="Path_29" d="M186.087 274.039h-5.717a1.374 1.374 0 0 1-1.37-1.372v-5.776a1.374 1.374 0 0 1 1.373-1.373h5.718v.728h-5.721a.646.646 0 0 0-.645.645v5.776a.645.645 0 0 0 .645.645h5.718a.645.645 0 0 0 .644-.645v-2.277h.728v2.277a1.374 1.374 0 0 1-1.373 1.372z" class="cls-9" transform="translate(-178.997 -264.751)"/>
                    <path id="Rectangle_24" d="M0 0H21.77V1.185H0z" class="cls-10" transform="translate(11.842 2.847)"/>
                    <path id="Rectangle_25" d="M0 0H27.404V1.185H0z" class="cls-7" transform="translate(11.842 6.328)"/>
                </g>
                <g id="Group_38" transform="translate(8.858 58.641)">
                    <g id="Group_37" transform="translate(2.355)">
                        <g id="Group_36">
                            <path id="Path_30" d="M191.04 328.428l-2.337-2.237.873-.912 1.424 1.364 4.975-5.152.912.873z" class="cls-8" transform="translate(-188.703 -321.491)"/>
                        </g>
                    </g>
                    <path id="Path_31" d="M186.087 333.172h-5.717A1.374 1.374 0 0 1 179 331.8v-5.776a1.374 1.374 0 0 1 1.373-1.373h5.718v.728h-5.721a.646.646 0 0 0-.645.645v5.776a.645.645 0 0 0 .645.645h5.718a.645.645 0 0 0 .644-.645v-2.277h.728v2.277a1.374 1.374 0 0 1-1.373 1.372z" class="cls-9" transform="translate(-178.997 -323.884)"/>
                    <path id="Rectangle_26" d="M0 0H9.484V1.185H0z" class="cls-10" transform="translate(11.842 2.847)"/>
                    <path id="Rectangle_27" d="M0 0H17.085V1.185H0z" class="cls-10" transform="translate(11.842 6.328)"/>
                </g>
            </g>
            <g id="Group_10609" transform="translate(-12616.074 -19227.877)">
                <path id="Path_3099" d="M-.018 0h10.679l-.119 53.517H-.075z" class="cls-11" transform="translate(0.075 0)"/>
                <path id="Path_3058" d="M0 0h10.182v48.23H0z" class="cls-11" transform="translate(11.167 3.916)"/>
                <g id="undraw_following_q0cr" transform="translate(3.483 9.458)">
                    <path id="Path_705" d="M279.975 215.533v40.951a1.573 1.573 0 0 1-1.573 1.577h-62.829a1.548 1.548 0 0 1-.434-.062 1.571 1.571 0 0 1-1.139-1.515V220.5a.783.783 0 0 1 .109.005 26.063 26.063 0 0 1 5.555-6.548H278.4a1.573 1.573 0 0 1 1.575 1.576z" class="cls-11" transform="translate(-214 -213.96)"/>
                    <path id="Line_128" d="M0 0L55.72 0" class="cls-12" transform="translate(6.324 11.964)"/>
                    <path id="Line_129" d="M0 0L55.72 0" class="cls-12" transform="translate(6.324 22.262)"/>
                    <path id="Line_130" d="M0 0L55.72 0" class="cls-12" transform="translate(6.324 32.56)"/>
                    <path id="Path_3097" d="M1.537 0h8.706a1.537 1.537 0 1 1 0 3.073H1.537a1.537 1.537 0 0 1 0-3.073z" class="cls-6" transform="translate(28.088 5.318)"/>
                    <rect id="Rectangle_542" width="3.699" height="1.821" class="cls-13" rx=".911" transform="translate(35.144 5.945)"/>
                    <circle id="Ellipse_187" cx=".569" cy=".569" r=".569" class="cls-13" transform="translate(36.395 6.286)"/>
                    <path id="Path_3098" d="M1.537 0h8.706a1.537 1.537 0 1 1 0 3.073H1.537a1.537 1.537 0 0 1 0-3.073z" class="cls-6" transform="translate(28.088 25.576)"/>
                    <rect id="Rectangle_545" width="3.699" height="1.821" class="cls-13" rx=".911" transform="translate(35.144 26.203)"/>
                    <circle id="Ellipse_188" cx=".569" cy=".569" r=".569" class="cls-13" transform="translate(36.395 26.544)"/>
                    <rect id="Rectangle_546" width="11.779" height="3.073" class="cls-6" rx="1.537" transform="translate(28.088 35.706)"/>
                    <rect id="Rectangle_548" width="3.699" height="1.821" class="cls-13" rx=".911" transform="translate(35.144 36.331)"/>
                    <circle id="Ellipse_189" cx=".569" cy=".569" r=".569" class="cls-13" transform="translate(36.395 36.673)"/>
                    <rect id="Rectangle_549" width="11.779" height="3.073" class="cls-14" rx="1.537" transform="translate(28.088 15.448)"/>
                    <rect id="Rectangle_551" width="3.699" height="1.821" class="cls-13" rx=".911" transform="translate(32.81 17.895) rotate(180)"/>
                    <circle id="Ellipse_190" cx=".569" cy=".569" r=".569" class="cls-13" transform="translate(30.42 16.415)"/>
                    <path id="Path_706" d="M321.533 251a4.017 4.017 0 0 1-1.958 3.45l-.055.033-.1.057-.1.051-.015.008q-.061.031-.126.059a3.922 3.922 0 0 1-.418.162c-.093.03-.187.057-.282.08a3.972 3.972 0 0 1-.592.1c-.121.011-.244.017-.368.017a4.182 4.182 0 0 1-.442-.024h-.026c-.05-.005-.1-.012-.151-.02a4.163 4.163 0 0 1-.475-.1l-.078-.023-.068-.021-.022-.008a3.971 3.971 0 0 1-.41-.161 3.917 3.917 0 0 1-.654-.379l-.01-.007-.007-.005-.073-.054-.056-.043a3.75 3.75 0 0 1-.311-.271q-.138-.133-.263-.279a4.017 4.017 0 1 1 7.06-2.622z" class="cls-15" transform="translate(-304.997 -244.163)"/>
                    <path id="Path_707" fill="url(#linear-gradient)" d="M329.5 279.294l-.1.031a.225.225 0 0 1-.157-.052l-.033-.032a.125.125 0 0 0-.079-.044h-.009a.085.085 0 0 1-.035 0h-.007a.043.043 0 0 1-.02-.034 1.684 1.684 0 0 1-.045-.233 2.165 2.165 0 0 1 0-.256v-.2a1.9 1.9 0 0 0 .02-.231.868.868 0 0 0-.023-.244.686.686 0 0 0-.048-.128c-.014-.115-.03-.231-.046-.342-.012-.085-.025-.171-.04-.256a.4.4 0 0 0 .009-.043.415.415 0 0 0-.147-.374.451.451 0 0 0-.109-.068c-.032-.014-.066-.025-.1-.036l-.537-.171c-.05-.074-.1-.15-.144-.228a1.6 1.6 0 0 1-.113-.218.886.886 0 0 0 .221-1.167l-.028-.039a.573.573 0 0 0-.023-.2.012.012 0 0 0 0-.005.283.283 0 0 0-.073-.143l-.018-.02a.272.272 0 0 0-.026-.028.991.991 0 0 0-.116-.1 1.987 1.987 0 0 0-.633-.35.727.727 0 0 0-.326 0l-.017-.006-.032-.006.025.012a.716.716 0 0 0-.348.006c-.141.044-.191.159-.25.285a1.275 1.275 0 0 1-.427.5c-.117.08-.256.15-.313.284a.812.812 0 0 0-.005.4 1.119 1.119 0 0 1-.406.962c-.16.128-.373.235-.408.44a.765.765 0 0 0 .116.421 1.041 1.041 0 0 1 .021.906c-.014.026-.03.05-.044.074.081.1.171.193.256.284a3.868 3.868 0 0 0 .307.274l.055.044.073.054.007.006.01.007a3.849 3.849 0 0 0 .644.384.043.043 0 0 1 .005-.014.059.059 0 0 0 0 .017 3.793 3.793 0 0 0 .4.162l.021.008.068.022.077.023a4.041 4.041 0 0 0 .468.105c.05.008.1.015.15.02h.025a4.07 4.07 0 0 0 .436.024c.122 0 .243-.006.362-.017a3.79 3.79 0 0 0 .584-.1c.023-.005.046-.012.069-.019.07-.019.139-.039.209-.062a3.834 3.834 0 0 0 .412-.164c.042-.02.085-.039.124-.06l.015-.008.1-.052a.007.007 0 0 1-.004-.005zm-3.424-.118a.166.166 0 0 0 0-.021.365.365 0 0 1 0-.068.1.1 0 0 1 .015-.038v.041a.232.232 0 0 1-.013.086z" transform="translate(-315.083 -268.926)"/>
                    <path id="Path_708" d="M328.76 280.05l-.1.031a.231.231 0 0 1-.159-.051l-.034-.032a.125.125 0 0 0-.079-.043h-.009a.086.086 0 0 1-.036 0h-.007a.046.046 0 0 1-.021-.034 1.627 1.627 0 0 1-.045-.23 2.126 2.126 0 0 1 0-.256v-.2a1.843 1.843 0 0 0 .02-.228.841.841 0 0 0-.023-.241.754.754 0 0 0-.049-.126c-.014-.114-.031-.227-.047-.342-.012-.085-.025-.171-.041-.256a.265.265 0 0 1 .009-.042.4.4 0 0 0-.15-.369.457.457 0 0 0-.111-.067c-.032-.014-.067-.025-.1-.036l-.544-.171c-.05-.073-.1-.149-.146-.225a1.487 1.487 0 0 1-.115-.215.855.855 0 0 0 .225-1.151c-.009-.014-.019-.026-.028-.038a.56.56 0 0 0-.023-.2.011.011 0 0 0 0-.005.3.3 0 0 0-.019-.06.351.351 0 0 0-.056-.081l-.019-.02a.261.261 0 0 0-.026-.027 1 1 0 0 0-.121-.093 1.968 1.968 0 0 0-.643-.342.745.745 0 0 0-.331 0l-.017-.005-.032-.006.025.012a.736.736 0 0 0-.353.006c-.143.043-.193.156-.256.281a1.269 1.269 0 0 1-.427.5.783.783 0 0 0-.317.28.738.738 0 0 0-.005.4 1.094 1.094 0 0 1-.412.949c-.162.126-.379.232-.414.434a.736.736 0 0 0 .118.415 1.01 1.01 0 0 1 .021.894l-.045.073a3.684 3.684 0 0 0 .263.279 3.756 3.756 0 0 0 .311.271l.056.043.074.054.007.005.01.007a3.909 3.909 0 0 0 .654.379.044.044 0 0 1 .005-.014.415.415 0 0 1 .021-.044.5.5 0 0 0 .076-.171.192.192 0 0 0 0-.021.346.346 0 0 1 0-.068.109.109 0 0 1 .015-.037c.009-.017.023-.033.034-.05a.191.191 0 0 0 .016-.028l.026.039.091.142a.219.219 0 0 1 .044.109.179.179 0 0 0 0 .071c.013.03.056.055.039.085a.113.113 0 0 0 0 .1.486.486 0 0 0 .036.049l.022.008.068.021.078.023a4.153 4.153 0 0 0 .475.1c.05.008.1.015.151.02h.026a4.182 4.182 0 0 0 .442.024c.124 0 .246-.006.367-.017a3.983 3.983 0 0 0 .592-.1c.024-.005.047-.012.071-.019.071-.019.141-.038.211-.061a3.926 3.926 0 0 0 .418-.162q.064-.028.126-.059l.015-.008.1-.051z" class="cls-14" transform="translate(-314.34 -269.676)"/>
                    <path id="Path_709" d="M320.533 370.042a4 4 0 0 1-.492 1.928 3.774 3.774 0 0 1-.224.361 3.716 3.716 0 0 1-.262.342.128.128 0 0 1-.018.02c-.036.043-.074.085-.114.125l-.044.046c-.044.045-.09.085-.137.132l-.017.016c-.021.02-.044.04-.067.059a3.9 3.9 0 0 1-.378.293c-.068.046-.136.091-.206.132l-.055.033-.1.057-.07.037-.028.015-.015.008q-.041.021-.085.038l-.044.021-.085.036c-.075.033-.152.063-.23.091l-.1.035h-.012l-.026.008-.02.007-.058.017-.02.006-.025.007-.036.009-.025.007-.061.016c-.044.011-.09.021-.135.03a3.851 3.851 0 0 1-.457.068c-.116.01-.232.016-.351.017h-.036c-.113 0-.223-.005-.333-.015l-.1-.009h-.041l-.136-.018-.108-.019-.027-.005c-.05-.009-.1-.02-.15-.033h-.005c-.06-.013-.119-.028-.177-.044l-.078-.023-.068-.021-.022-.008a4.092 4.092 0 0 1-.407-.16q-.138-.063-.269-.136l-.039-.022-.058-.033-.032-.019c-.085-.053-.171-.109-.256-.171l-.01-.007-.007-.005-.073-.054-.056-.043a3.764 3.764 0 0 1-.311-.271q-.138-.133-.263-.279a4.017 4.017 0 1 1 7.063-2.62z" class="cls-15" transform="translate(-304.082 -353.033)"/>
                    <path id="Path_710" fill="url(#linear-gradient-2)" d="M337.408 403.637a.154.154 0 0 0-.021-.025.113.113 0 0 0-.02-.015.2.2 0 0 1-.076-.188.159.159 0 0 0 0-.022 1.167 1.167 0 0 0-.1-.252c-.021-.045-.048-.115-.071-.179-.031-.085-.056-.163-.056-.163a.09.09 0 0 0 0-.022l-.063-.347v-.024a3.37 3.37 0 0 0-.334-.667.033.033 0 0 0-.013-.016c-.068-.032-.3-.164-.3-.164a.6.6 0 0 0-.445-.272h-.07a.337.337 0 0 0-.044.011l-.016.005-.022.009-.005.042a.948.948 0 0 1 .024-.309l.009-.029h.05a.838.838 0 0 0 .794-1.069v-.012l.025-.012c.1-.039.231.027.314-.043a.246.246 0 0 0 .062-.109.664.664 0 0 0 .045-.175.288.288 0 0 0 0-.055v-.007a.2.2 0 0 0-.044-.109c-.054-.064-.145-.08-.214-.127a.536.536 0 0 1-.136-.163.583.583 0 0 0-.133-.166.193.193 0 0 0-.2-.032.234.234 0 0 1-.066.032.137.137 0 0 1-.072-.02 1.379 1.379 0 0 0-.769-.059 1.006 1.006 0 0 0-.3.074.366.366 0 0 0-.2.226c-.021.08-.005.171-.031.247-.017.054-.052.1-.072.153a.336.336 0 0 0-.019.09v.055a2.523 2.523 0 0 0 .059.312 2.169 2.169 0 0 0 .085.5.3.3 0 0 0 .027.055c-.025.054-.05.108-.077.159l-.039-.009h-.031a.133.133 0 0 0-.031 0 .1.1 0 0 0-.021.009l-.009.008h-.006a.034.034 0 0 0-.007.011.013.013 0 0 0 0 .006.1.1 0 0 0-.009.032v.009a.2.2 0 0 1-.005.055c-.005.019 0 .021 0 .032a.244.244 0 0 1 0 .026v.007a.142.142 0 0 1-.007.032l-.013.038-.005.011-.016.032-.029.03a.033.033 0 0 0-.018.032l-.013.01a.043.043 0 0 0-.018.007c-.006-.014-.03-.014-.1.077a1.413 1.413 0 0 1-.342.265s-.5.357-.529.522a3.535 3.535 0 0 0-.1 1.116c.011.031.032.079.061.137v.005l.064.235.032.02.058.033.039.023c.086.049.178.095.269.138a4.113 4.113 0 0 0 .407.161l.022.008.068.022.078.023c.058.016.117.032.177.045h.012c.05.013.1.023.15.032l.027.005.109.02.136.018h.041l.1.009c.11.009.221.015.333.015h.027c.119 0 .235-.007.351-.017a3.862 3.862 0 0 0 .457-.069c.045-.009.091-.019.135-.031l.061-.016.025-.007.036-.009.025-.007.02-.006.058-.017.02-.008.026-.008h.012l.1-.035c.078-.028.155-.059.23-.092l.085-.036.044-.021a.255.255 0 0 0-.052-.046zm-1.657-2.264h-.005v-.005z" transform="translate(-323.307 -383.054)"/>
                    <path id="Path_711" d="M337.453 404.492a.193.193 0 0 0-.021-.024.111.111 0 0 0-.02-.015.193.193 0 0 1-.076-.185.158.158 0 0 0 0-.022 1.137 1.137 0 0 0-.1-.249c-.021-.044-.048-.113-.071-.177-.031-.085-.056-.161-.056-.161v-.021c-.01-.054-.038-.2-.063-.342v-.025a3.313 3.313 0 0 0-.334-.659.03.03 0 0 0-.013-.015c-.067-.032-.3-.162-.3-.162a.6.6 0 0 0-.445-.268h-.07a.336.336 0 0 0-.044.011l-.016.005-.022.009-.005.042a.928.928 0 0 1 .024-.306.117.117 0 0 1 .009-.028h.05a.827.827 0 0 0 .826-.826.813.813 0 0 0-.033-.229v-.011h.014c.1-.038.231.027.314-.042a.241.241 0 0 0 .062-.109.632.632 0 0 0 .045-.171.278.278 0 0 0 0-.054v-.007a.2.2 0 0 0-.044-.107c-.054-.064-.144-.079-.214-.127a.514.514 0 0 1-.136-.161.587.587 0 0 0-.131-.164.192.192 0 0 0-.2-.031.256.256 0 0 1-.066.031.138.138 0 0 1-.072-.02 1.385 1.385 0 0 0-.769-.058.979.979 0 0 0-.3.073.362.362 0 0 0-.2.223c-.021.079-.005.166-.031.244-.017.053-.052.1-.072.151a.309.309 0 0 0-.019.085v.054a2.461 2.461 0 0 0 .059.308 2.133 2.133 0 0 0 .085.5.319.319 0 0 0 .027.054c-.025.053-.05.106-.077.156l-.039-.008h-.031a.121.121 0 0 0-.031 0l-.02.008-.009.008h-.006a.036.036 0 0 0-.007.011.014.014 0 0 0 0 .006.1.1 0 0 0-.009.032v.009a.191.191 0 0 1-.005.054c-.005.018 0 .021 0 .032v.033c0 .007 0 .021-.007.032l-.013.038-.005.01a.273.273 0 0 1-.016.032l-.016.011a.033.033 0 0 0-.018.032l-.013.01a.038.038 0 0 0-.018.006c-.006-.013-.03-.013-.1.076a1.408 1.408 0 0 1-.342.262s-.5.353-.529.513a3.436 3.436 0 0 0-.1 1.1c.011.031.033.078.061.135v.005l.064.232.032.019.058.033.039.022q.132.074.269.136a4.1 4.1 0 0 0 .407.16l.022.008.068.021.078.023c.058.016.117.032.177.044h.012c.05.013.1.023.15.032l.027.005.109.019.136.018h.041l.1.009c.11.009.22.015.333.015h.027c.119 0 .235-.007.351-.017a3.845 3.845 0 0 0 .457-.068c.045-.009.091-.019.135-.03l.061-.016.025-.007.036-.009.025-.007.02-.006.058-.017.02-.007.026-.008h.012l.1-.035c.078-.027.155-.058.23-.091l.085-.036.044-.02a.259.259 0 0 0-.056-.039zm-1.657-2.234h-.005v-.005z" class="cls-14" transform="translate(-323.353 -383.904)"/>
                    <path id="Path_712" d="M321.533 487.851a4 4 0 0 1-.492 1.928 3.781 3.781 0 0 1-.224.361 3.719 3.719 0 0 1-.262.342.126.126 0 0 1-.018.02c-.036.043-.074.086-.114.125l-.044.046c-.044.045-.09.085-.137.132l-.017.016c-.021.02-.044.04-.067.059a3.933 3.933 0 0 1-.378.293c-.068.046-.136.091-.206.132l-.055.033-.1.057-.05.026h-.006l-.014.008-.028.015-.015.008-.085.039-.044.02-.085.036-.121.05-.064.024-.044.016-.1.035h-.012l-.026.008-.02.007-.058.017-.02.006h-.027l-.036.009-.025.007-.061.016c-.044.011-.09.021-.135.03-.074.015-.148.029-.222.04s-.156.021-.235.028c-.116.01-.232.016-.351.017h-.035c-.113 0-.223-.005-.333-.015l-.1-.009h-.041a.8.8 0 0 1-.123-.016h-.003l-.109-.019-.027-.005c-.05-.009-.1-.02-.15-.032h-.014c-.06-.013-.119-.028-.177-.044l-.078-.023-.068-.021-.022-.008-.062-.021-.044-.015c-.032-.011-.062-.023-.093-.036l-.032-.013-.04-.016-.131-.056q-.138-.062-.269-.136l-.039-.022-.058-.033-.032-.019a1.46 1.46 0 0 1-.127-.085c-.043-.028-.085-.056-.125-.086l-.01-.007-.007-.005-.074-.054-.056-.043a3.749 3.749 0 0 1-.311-.271q-.138-.133-.263-.279a4.017 4.017 0 1 1 7.053-2.614z" class="cls-15" transform="translate(-304.997 -460.757)"/>
                    <g id="Group_879" transform="translate(10.294 25.74)">
                        <path id="Path_714" d="M338.411 519.871a.05.05 0 0 1-.025-.017.14.14 0 0 1 .074-.043c.027-.007.041-.046.038-.086a.145.145 0 0 0-.032-.107.076.076 0 0 1-.018-.03.751.751 0 0 1 .05-.092.029.029 0 0 0 0-.029c.024-.059-.085-.048-.085-.048v-.562s-.009-.045-.021-.132-.029-.213-.045-.374c-.033-.322-.16-.355-.16-.355a1.438 1.438 0 0 1-.2-.078 1.363 1.363 0 0 0-.208-.078 1.071 1.071 0 0 1-.27-.038.826.826 0 0 0-.184-.039l-.02-.01a.712.712 0 0 1-.33-.342.678.678 0 0 0 .073-.1v.064c.086-.154.342-.189.367-.364v-.006a.2.2 0 0 0 0-.045.207.207 0 0 0 0-.022v-.018c0-.044-.017-.085-.022-.132v-.009a.292.292 0 0 1 .007-.038.066.066 0 0 1 0-.012.355.355 0 0 1 .013-.043c.036-.1.1-.187.138-.286a.465.465 0 0 0 .018-.068v-.009a.566.566 0 0 0 .007-.067v-.048a.011.011 0 0 0 0-.006.029.029 0 0 0 0-.009.223.223 0 0 0 0-.024.519.519 0 0 0-.171-.376c-.085-.076-.2-.124-.264-.223-.028-.047-.042-.1-.073-.146a.367.367 0 0 0-.266-.131 1.483 1.483 0 0 1-.3-.04c-.069-.022-.131-.062-.2-.086a.383.383 0 0 0-.412.148.692.692 0 0 1-.109.159c-.1.086-.272.049-.361.147a.245.245 0 0 0-.048.187v.047a.045.045 0 0 1 0 .01.216.216 0 0 0 0 .033v.035a.561.561 0 0 0 .009.066 1.01 1.01 0 0 1 .009.113v.017a1.17 1.17 0 0 1-.127.494 1.51 1.51 0 0 0-.228.5.416.416 0 0 0 0 .079v-.008a.107.107 0 0 0 0 .017v.1l.008.041a.208.208 0 0 0 0 .022l.013.053v.009c.024.086.056.178.074.267a.871.871 0 0 1 .015.092.023.023 0 0 0 0 .008c0 .026 0 .052.005.078v.021a.988.988 0 0 1-.128.039c-.077.011-.3.211-.286.261a.067.067 0 0 1 0 .021.069.069 0 0 1 0 .014 3.284 3.284 0 0 1-.1.372l-.181 1.249c.042.028.085.055.127.085l.032.019.058.033.039.022q.132.073.269.136.064.03.131.056l.04.016.032.013a.138.138 0 0 0 .051.032h.037a.079.079 0 0 0 .026 0h.014l.044.015.062.021.022.008.068.021.078.023c.058.016.117.032.177.044h.012c.05.013.1.023.15.032l.027.005.109.019h.013l.123.016h.041l.1.009c.11.009.22.014.333.014h.027c.119 0 .235-.007.351-.017.079-.007.157-.016.235-.028s.149-.025.222-.04c.045-.009.091-.019.135-.03l.061-.016.025-.007.036-.009h.01c0-.058-.007-.108-.009-.146l.034.043a.043.043 0 0 1 .009.019.349.349 0 0 0-.032.085h.008l.02-.006.058-.017.02-.007.026-.008h.012l.1-.035.044-.016.064-.024.121-.05.085-.036.044-.021.085-.038.015-.008.028-.015.014-.008h.006a.376.376 0 0 0 0-.06v-.03c.003-.023-.041-.072-.113-.101zm-3.239-1.99z" class="cls-14" transform="translate(-334.45 -515.155)"/>
                        <path id="Path_715" d="M336.245 574.557l-.015-.007a.05.05 0 0 0 .015.007z" class="cls-14" transform="translate(-336.078 -569.474)"/>
                    </g>
                    <path id="Path_716" d="M321.533 606.839a4 4 0 0 1-.492 1.928 3.781 3.781 0 0 1-.224.361 3.737 3.737 0 0 1-.262.342.08.08 0 0 1-.016.017c-.036.043-.074.085-.114.125l-.012.013-.032.033c-.044.045-.09.085-.137.132l-.017.016c-.021.02-.044.04-.067.059a3.112 3.112 0 0 1-.279.223l-.017.012-.035.025c-.015.012-.031.022-.047.033-.068.046-.136.091-.206.132l-.031.019-.024.014-.1.057-.05.027h-.006l-.014.008-.028.015-.015.008-.085.039-.044.021-.085.036-.121.05-.064.024-.044.016-.017.006-.085.029h-.012l-.026.008-.02.007-.023.007-.035.01-.02.006h-.027l-.036.009-.025.007-.061.016c-.044.011-.09.021-.135.03-.074.015-.148.029-.222.04l-.133.018h-.016l-.085.008c-.116.01-.232.016-.351.017h-.1c-.085 0-.176-.006-.263-.014h-.026l-.072-.007h-.041l-.085-.01-.041-.006h-.008l-.109-.019-.027-.005-.072-.014-.03-.007-.049-.012h-.013c-.06-.013-.119-.028-.177-.044l-.031-.009h-.011l-.036-.01-.033-.01-.035-.011-.022-.008-.062-.021-.044-.015-.04-.018-.052-.02-.032-.013-.04-.016q-.067-.027-.131-.056c-.068-.031-.134-.063-.2-.1-.024-.011-.047-.024-.07-.037l-.018-.01-.021-.011-.058-.033-.032-.019a1.418 1.418 0 0 1-.127-.085c-.043-.028-.085-.056-.125-.085l-.01-.007-.007-.005-.035-.026-.038-.028-.007-.005-.049-.038a3.765 3.765 0 0 1-.311-.271q-.138-.133-.263-.279a4.017 4.017 0 1 1 7.051-2.615z" class="cls-15" transform="translate(-304.997 -569.576)"/>
                    <path id="Path_717" d="M336.706 640.986a.133.133 0 0 0-.178-.058l-1.17.6a.137.137 0 0 0-.015-.045.107.107 0 0 0-.048-.086.08.08 0 0 1-.026-.025.237.237 0 0 1 0-.026.077.077 0 0 0-.014-.061.151.151 0 0 0-.064-.109v-.03a.118.118 0 0 0-.016-.054c0-.055-.044-.107-.125-.183a.284.284 0 0 1-.064-.115v-.005c-.014-.056-.029-.118-.05-.181a1.006 1.006 0 0 0-.034-.106c-.063-.163-.132-.142-.161-.171s-.212-.066-.306-.115a1.008 1.008 0 0 0-.422.019v-.016a.791.791 0 0 0 .547-.921l-.005-.02a.321.321 0 0 0 .121-.024.159.159 0 0 0 .056-.1.513.513 0 0 0 .015-.229c0-.008-.007-.015-.009-.023a.131.131 0 0 0-.006-.02.085.085 0 0 0 0-.021.332.332 0 0 0-.026-.07.013.013 0 0 1 0 .006 2.451 2.451 0 0 0-.2-.264c-.068-.1-.108-.232-.211-.3a.427.427 0 0 0-.353-.018 1.011 1.011 0 0 1-.166.043 1.761 1.761 0 0 1-.283-.017.609.609 0 0 0-.376.1.211.211 0 0 0-.062.062.321.321 0 0 0-.027.111.54.54 0 0 1-.073.2c-.029.05-.066.093-.092.144a.22.22 0 0 0-.025.165c.009.029.026.055.033.086a.312.312 0 0 1-.06.195.37.37 0 0 0-.041.185.239.239 0 0 0 .052.134.188.188 0 0 0 .017.035v.006a.232.232 0 0 0 .017.024l.009.008.017.017a.287.287 0 0 0 .167.052.274.274 0 0 0 .015.027v.015a.082.082 0 0 0 0 .015.425.425 0 0 0-.231.095.333.333 0 0 1-.2.086s-.167.055-.163.07-.049.034-.154.062a.678.678 0 0 0-.278.153c0 .025-.275.295-.275.323a.684.684 0 0 0-.074.315 1.129 1.129 0 0 1-.021.456c-.042.038 0 .187 0 .187a.1.1 0 0 1 0 .111.944.944 0 0 0 .007.323v.271a.627.627 0 0 1 .015.118l.007.005.038.028.035.026.007.005.01.007c.041.029.085.057.125.086.042.028.085.055.127.085l.032.019.058.033.02.011.018.01c.023.013.046.026.07.037.065.036.132.068.2.1q.064.03.131.056l.04.016.032.013.052.021.041.015.044.015.062.021.022.008.035.011.033.01.036.01h.011l.031.009c.058.016.117.032.177.044h.012l.049.012.03.007.072.014.027.005.109.019h.013l.041.006.086.01h.041l.072.007h.026c.086.008.171.012.263.014h.1c.119 0 .235-.007.351-.017l.085-.009h.016l.133-.018c.074-.011.149-.025.222-.04.045-.009.091-.019.135-.03l.061-.016.025-.007.036-.009h.025l.02-.006.035-.01.023-.007.02-.007.026-.008h.012l.085-.029.017-.006.044-.016.064-.024.121-.05.085-.036.044-.021.085-.039.015-.008.028-.015.014-.008h.006l.05-.027.1-.057.024-.014.031-.019c.07-.042.138-.085.206-.133l.047-.033h.017l.018-.026.017-.012c.1-.07.19-.144.279-.223l.067-.059.017-.016c.047-.043.092-.086.137-.132l.032-.033.012-.013c.039-.04.078-.086.114-.125zm-1.948 1.34l-.021.005a.037.037 0 0 1 .007-.018s-.131.005-.263.015a.2.2 0 0 1 .007-.066 1.569 1.569 0 0 0 .065-.288l.227.347zm.044.66a.32.32 0 0 0 0-.034c.008-.005.013-.009.014-.013a.858.858 0 0 0-.013-.114h.021l.24-.038a.438.438 0 0 0 .085-.012l.02.038a1.242 1.242 0 0 0-.308.138.117.117 0 0 1-.057.034z" class="cls-14" transform="translate(-321.598 -601.928)"/>
                    <g id="Group_10483" transform="translate(53.231 5.237)">
                        <path id="Path_718" d="M841.161 275.629l-.342-.342a.18.18 0 0 0-.256 0l-2.125 2.107-.9-.906a.179.179 0 0 0-.256 0l-.342.342a.181.181 0 0 0 0 .256l1.367 1.375a.181.181 0 0 0 .256 0l2.593-2.573a.18.18 0 0 0 0-.26z" class="cls-18" transform="translate(-836.888 -275.234)"/>
                        <path id="Path_719" d="M841.207 392.769l-.342-.342a.18.18 0 0 0-.256 0l-2.12 2.111-.9-.906a.179.179 0 0 0-.256 0l-.342.342a.181.181 0 0 0 0 .256l1.367 1.375a.181.181 0 0 0 .256 0l2.59-2.58a.18.18 0 0 0 0-.256z" class="cls-18" transform="translate(-836.934 -382.363)"/>
                        <path id="Path_720" d="M841.157 629.173l-.342-.342a.181.181 0 0 0-.256 0l-2.125 2.108-.9-.906a.18.18 0 0 0-.256 0l-.342.342a.18.18 0 0 0 0 .256l1.367 1.375a.182.182 0 0 0 .256 0l2.593-2.574a.179.179 0 0 0 0-.259z" class="cls-18" transform="translate(-836.884 -598.564)"/>
                    </g>
                </g>
            </g>
        </g>
    </g>
</svg>
