<svg xmlns="http://www.w3.org/2000/svg" width="46.645" height="43.8" viewBox="0 0 46.645 43.8">
  <defs>
    <style>
      .cls-1 {
        opacity: 0.4;
      }

      .cls-2, .cls-3 {
        fill: #879ea7;
        stroke: #fff;
        stroke-miterlimit: 10;
      }

      .cls-2 {
        stroke-width: 0.8px;
      }

      .cls-3 {
        stroke-width: 0.75px;
      }
    </style>
  </defs>
  <g id="Group_1957" data-name="Group 1957" class="cls-1" transform="translate(-143.6 -532.6)">
    <g id="Group_1855" data-name="Group 1855" transform="translate(144 533)">
      <path id="Path_1354" data-name="Path 1354" class="cls-2" d="M623.845,670.846H592a7.009,7.009,0,0,1-7-7v-29a7.01,7.01,0,0,1,7-7h31.841a7.01,7.01,0,0,1,7,7v29A7.009,7.009,0,0,1,623.845,670.846ZM592,630.9a3.946,3.946,0,0,0-3.943,3.943v29A3.946,3.946,0,0,0,592,667.787h31.841a3.947,3.947,0,0,0,3.943-3.941v-29a3.947,3.947,0,0,0-3.943-3.943Z" transform="translate(-585.002 -627.846)"/>
    </g>
    <path id="Path_1355" data-name="Path 1355" class="cls-3" d="M615.061,638.882,602.42,651.523a1.853,1.853,0,0,1-2.562,0l-4.7-4.7a1.787,1.787,0,0,1-.528-1.291,1.871,1.871,0,0,1,.528-1.291,1.849,1.849,0,0,1,1.291-.529,1.762,1.762,0,0,1,1.292.548l3.365,3.366,11.349-11.348a1.873,1.873,0,0,1,1.292-.529h.02a1.819,1.819,0,0,1,1.271.529l.02.02A1.843,1.843,0,0,1,615.061,638.882Z" transform="translate(-438.131 -88.581)"/>
  </g>
</svg>
