<svg xmlns="http://www.w3.org/2000/svg" width="26" height="26" viewBox="0 0 26 26">
    <defs>
        <style>
            .cls-1{fill:#4c698d}
        </style>
    </defs>
    <g id="Green" transform="translate(-304.002 -505.192)">
        <path id="Path_1209" d="M739.22 407.37c-.423-.061-.851-.1-1.271-.186a10.441 10.441 0 0 1-7.467-5.476 10.2 10.2 0 0 1-.83-7.965 10.712 10.712 0 0 1 9.459-7.677v-1.61h-.332a.762.762 0 0 1-.745-.752.753.753 0 0 1 .75-.768q1.11-.015 2.22 0a.752.752 0 0 1 .747.748.765.765 0 0 1-.725.77h-.352v1.6a10.75 10.75 0 0 1 7.126 3.485l1.171-1.213a.777.777 0 0 1 .664-.267.722.722 0 0 1 .642.5.733.733 0 0 1-.187.812c-.387.39-.778.775-1.162 1.162a1.746 1.746 0 0 1-.166.136c.332.652.68 1.245.951 1.867a10.123 10.123 0 0 1 .73 5.61A10.487 10.487 0 0 1 745.1 406a10.1 10.1 0 0 1-4.339 1.328 1.733 1.733 0 0 0-.209.04zm9.816-10.672a9.144 9.144 0 1 0-9.139 9.144 9.143 9.143 0 0 0 9.138-9.142z" class="cls-1" transform="translate(-422.576 122.949)"/>
        <path id="Path_1210" d="M745.431 401.285h2.134a.76.76 0 0 1 .788.928.733.733 0 0 1-.714.592c-1 0-2 .01-3.007 0a.739.739 0 0 1-.727-.763c-.01-.5 0-.986 0-1.479v-4.1a.765.765 0 1 1 1.525-.017v4.842z" class="cls-1" transform="translate(-427.355 118.819)"/>
        <path id="Rectangle_2670" fill="none" d="M0 0H26V26H0z" transform="translate(304.002 505.192)"/>
    </g>
</svg>
