<svg xmlns="http://www.w3.org/2000/svg" id="noun_data_analytics_2572910" width="10.141" height="10.454" viewBox="0 0 10.141 10.454">
    <defs>
        <style>
            .cls-2{fill:#d0131d;stroke:#fff}
        </style>
    </defs>
    <g id="Group_3666">
        <path id="Path_1814" fill="#d0131d" d="M10.793 9.8H2.54V1.295a.316.316 0 1 0-.633 0V9.8h-.622a.326.326 0 0 0 0 .652h.623v.648a.316.316 0 1 0 .633 0v-.642h8.253a.326.326 0 0 0 0-.652z" transform="translate(-.969 -.969)"/>
        <path id="Path_1815" d="M9.326 17.27h.958a.326.326 0 0 0 .326-.326v-3.587a.326.326 0 0 0-.326-.326h-.958a.326.326 0 0 0-.326.326v3.587a.326.326 0 0 0 .326.326z" class="cls-2" transform="translate(-6.474 -9.098)"/>
        <path id="Path_1816" d="M17.368 10.53h.958a.326.326 0 0 0 .326-.326V3.357a.326.326 0 0 0-.326-.326h-.958a.326.326 0 0 0-.326.326V10.2a.326.326 0 0 0 .326.33z" class="cls-2" transform="translate(-11.987 -2.359)"/>
        <path id="Path_1817" d="M25.326 15.248h.958a.326.326 0 0 0 .326-.326v-4.565a.326.326 0 0 0-.326-.326h-.958a.326.326 0 0 0-.326.326v4.565a.326.326 0 0 0 .326.326z" class="cls-2" transform="translate(-17.478 -7.076)"/>
    </g>
</svg>
