<svg xmlns="http://www.w3.org/2000/svg" width="140" height="129" viewBox="0 0 140 129">
    <defs>
        <style>
            .cls-3{fill:#ebf5ff}.cls-4{fill:#fff}.cls-5{fill:#84b4fe}.cls-6{fill:#c1ddf7}.cls-9{fill:#a4c6e5}.cls-10{fill:#ff7eb8}.cls-11{fill:#aed0ef}
        </style>
    </defs>
    <g id="Group_12367" opacity="0.8" transform="translate(-148 -1347.866)">
        <path id="Rectangle_2684" fill="none" d="M0 0H140V129H0z" transform="translate(148 1347.866)"/>
        <g id="Group_13193" transform="translate(150.155 1353.253)">
            <path id="Path_4750" d="M-5362.634-3929.718s-25.962-68.527 14.229-89.167c0 0 7.729-4.328 18.216 5.7s28.48-6.027 28.48-6.027 23.355-14.555 44.63 2.2c0 0 18.6 6.643 8.541 44.262 0 0-1.919 9.684 6.776 22.292s-1.54 20.208-1.54 20.208l-12.418.056z" class="cls-3" transform="translate(5372.58 4041.016)"/>
            <ellipse id="Ellipse_723" cx="4.521" cy="7.659" class="cls-3" rx="4.521" ry="7.659" transform="rotate(-45 43.612 -40.16)"/>
            <ellipse id="Ellipse_726" cx="2.66" cy="10.163" class="cls-3" rx="2.66" ry="10.163" transform="rotate(1 -3603.025 6221.306)"/>
            <ellipse id="Ellipse_724" cx="5.426" cy="7.659" class="cls-3" rx="5.426" ry="7.659" transform="rotate(-2 1472.901 -2422.148)"/>
            <path id="Path_4751" d="M2.759 0c1.524 0-.426 5.5-.426 12.186s1.949 12.023.426 12.023S0 18.789 0 12.1 1.235 0 2.759 0z" class="cls-4" transform="rotate(-2 1395.171 -2347.085)"/>
            <path id="Path_4752" d="M1.73 0c.956 0-.267 3.449-.267 7.641s1.222 7.539.267 7.539S0 11.782 0 7.59.775 0 1.73 0z" class="cls-4" transform="rotate(180 9.164 51.47)"/>
            <circle id="Ellipse_725" cx="1.838" cy="1.838" r="1.838" class="cls-3" transform="translate(58.562 9.266)"/>
            <circle id="Ellipse_747" cx="1.838" cy="1.838" r="1.838" class="cls-3" transform="translate(130.644 49.549)"/>
            <path id="Path_4753" d="M278.421 224.466a1.229 1.229 0 1 1-1.229-1.229 1.229 1.229 0 0 1 1.229 1.229z" class="cls-5" transform="translate(-251.76 -190.08)"/>
            <path id="Path_4800" d="M278.421 224.466a1.229 1.229 0 1 1-1.229-1.229 1.229 1.229 0 0 1 1.229 1.229z" class="cls-5" transform="translate(-157.604 -137.938)"/>
            <path id="Path_4754" d="M278.421 224.466a1.229 1.229 0 1 1-1.229-1.229 1.229 1.229 0 0 1 1.229 1.229z" class="cls-4" transform="translate(-251.55 -147.407)"/>
            <path id="Path_4755" d="M406.976 200.531l-1.123-.6a.4.4 0 0 1-.165-.165l-.6-1.123a.4.4 0 0 0-.712 0l-.6 1.123a.407.407 0 0 1-.165.165l-1.123.6a.4.4 0 0 0 0 .712l1.123.6a.4.4 0 0 1 .165.165l.6 1.123a.4.4 0 0 0 .712 0l.6-1.123a.4.4 0 0 1 .165-.165l1.123-.6a.4.4 0 0 0 0-.712z" class="cls-6" transform="translate(-311.294 -186.605)"/>
            <path id="Path_4756" d="M406.976 200.531l-1.123-.6a.4.4 0 0 1-.165-.165l-.6-1.123a.4.4 0 0 0-.712 0l-.6 1.123a.407.407 0 0 1-.165.165l-1.123.6a.4.4 0 0 0 0 .712l1.123.6a.4.4 0 0 1 .165.165l.6 1.123a.4.4 0 0 0 .712 0l.6-1.123a.4.4 0 0 1 .165-.165l1.123-.6a.4.4 0 0 0 0-.712z" class="cls-4" transform="translate(-339.316 -159.787)"/>
            <path id="Path_4757" d="M244.539 192.642l-1.029-.551a.373.373 0 0 1-.151-.151l-.551-1.028a.37.37 0 0 0-.652 0l-.552 1.028a.372.372 0 0 1-.151.151l-1.028.551a.37.37 0 0 0 0 .652l1.028.551a.372.372 0 0 1 .151.151l.552 1.028a.37.37 0 0 0 .652 0l.552-1.024a.373.373 0 0 1 .151-.151l1.029-.551a.37.37 0 0 0-.001-.656z" class="cls-5" transform="translate(-229.381 -150.152)"/>
            <path id="Path_4758" d="M373.217 181.166l-.752-.4a.27.27 0 0 1-.111-.11l-.4-.753a.271.271 0 0 0-.477 0l-.4.753a.27.27 0 0 1-.111.11l-.752.4a.271.271 0 0 0 0 .477l.752.4a.271.271 0 0 1 .111.111l.4.752a.271.271 0 0 0 .477 0l.4-.752a.271.271 0 0 1 .111-.111l.752-.4a.271.271 0 0 0 0-.477z" class="cls-5" transform="translate(-305.544 -179.756)"/>
            <path id="Path_4799" d="M373.217 181.166l-.752-.4a.27.27 0 0 1-.111-.11l-.4-.753a.271.271 0 0 0-.477 0l-.4.753a.27.27 0 0 1-.111.11l-.752.4a.271.271 0 0 0 0 .477l.752.4a.271.271 0 0 1 .111.111l.4.752a.271.271 0 0 0 .477 0l.4-.752a.271.271 0 0 1 .111-.111l.752-.4a.271.271 0 0 0 0-.477z" class="cls-5" transform="translate(-248.132 -159.823)"/>
            <g id="noun_Travel_1554616" transform="translate(9.832 32.469)">
                <path id="Subtraction_1" d="M0 0h57.981v71.422H0z" class="cls-6" transform="translate(22.385 13.382)"/>
                <path id="Path_4775" d="M13.5 94.319V39.7c0-4.621 4.567-8.4 10.148-8.4h12.686v71.422H23.648c-5.581 0-10.148-3.641-10.148-8.403z" class="cls-6" transform="translate(-13.24 -17.918)"/>
                <path id="Path_4776" d="M95.834 94.319c0 4.621-4.567 8.4-10.148 8.4H73V31.3h12.686c5.582 0 10.148 3.781 10.148 8.4z" class="cls-6" transform="translate(6.656 -17.918)"/>
                <path id="Path_4777" d="M66.789 17.7H43.122a5.069 5.069 0 0 0-5.322 5.015v8.513h5.6v-6.414a3.8 3.8 0 0 1 4.061-3.732h15.127a3.884 3.884 0 0 1 4.061 3.732v6.414h5.6v-8.513a5.281 5.281 0 0 0-5.46-5.015z" class="cls-6" transform="translate(-3.51 -17.7)"/>
                <path id="Path_4795" fill="#8db7de" d="M40.8 16.624c-2.73 0-3 3.235-3 5.987v8.369h4.217v-6.306c0-2.064.334-5.155 2.444-5.155z" transform="translate(-3.434 -15.64)"/>
                <path id="Path_3277" fill="#b3d3ef" d="M10.958 19.976a5.031 5.031 0 1 1 5.031-5.031A3.05 3.05 0 0 0 19.039 18a3.206 3.206 0 0 0 3.206-3.05 11.284 11.284 0 0 0-8.063-10.678V3.05a3.05 3.05 0 1 0-6.1 0v1.222a11.131 11.131 0 0 0 2.9 21.805A5.031 5.031 0 1 1 6.1 31.256v-.149a3.05 3.05 0 1 0-6.1 0 11.284 11.284 0 0 0 8.06 10.674v2.438a3.05 3.05 0 1 0 6.1 0v-2.438a11.131 11.131 0 0 0-3.206-21.8z" transform="translate(43.738 22.342)"/>
                <path id="Path_4794" d="M2801.47-1500.7s-28.911 2.612-26.333-9.877l-.46-50.206s-2.672-11.582 13.079-11.582 36.991.228 36.991.228-37.51 14.766-35.137 41.9 11.86 29.537 11.86 29.537z" class="cls-9" transform="translate(-2774.506 1585.5)"/>
                <path id="Rectangle_3431" d="M0 0H1.811V71.552H0z" class="cls-4" transform="translate(85.276 13.187)"/>
                <path id="Rectangle_3432" d="M0 0H1.811V71.552H0z" class="cls-4" transform="translate(13.724 13.187)"/>
            </g>
            <g id="noun_Travel_1831704" transform="translate(66.504 7.698)">
                <g id="Group_13289">
                    <path id="Path_4778" d="M7.011 19.152a4.23 4.23 0 0 1 4.294-1.4l29.96 13.2 5.167-3.65a1.672 1.672 0 0 1 1.27.113l3.47 1.53-7.837 8.526-.028.03a3.474 3.474 0 0 1-3.936.957L28.3 33.585l2.35 16.532-3.26-1.438a2.419 2.419 0 0 1-1.423-1.452l-7.235-17.861-10.506-4.629a3.645 3.645 0 0 1-1.609-4.882 4.245 4.245 0 0 1 .394-.7" class="cls-10" transform="translate(-6.26 -17.586)"/>
                    <path id="Path_4779" d="M24.021 24.982l10.45-4.212a1.674 1.674 0 0 1 1.27.114l3.47 1.528-7.828 5.813z" class="cls-10" transform="translate(-3.114 -19.935)"/>
                </g>
            </g>
            <g id="Group_12366" transform="translate(0 12.562)">
                <g id="Group_12364">
                    <g id="Group_12345">
                        <g id="Group_12342" transform="translate(0 62.965)">
                            <g id="XMLID_1759_">
                                <path id="XMLID_1788_" d="M67.887 364H37v7.722h30.887z" class="cls-9" transform="translate(-16.945 -332.041)"/>
                                <path id="XMLID_1787_" d="M67.887 220H37v7.722h30.887z" class="cls-9" transform="translate(-16.945 -203.484)"/>
                                <path id="XMLID_1790_" d="M102.416 364h-5.791v7.722h5.791z" class="cls-11" transform="translate(-57.869 -332.041)"/>
                                <path id="XMLID_1789_" d="M102.416 220h-5.791v7.722h5.791z" class="cls-11" transform="translate(-57.869 -203.484)"/>
                                <path id="XMLID_1793_" d="M40.887 292H10v7.722h30.887z" class="cls-9" transform="translate(12.95 -267.762)"/>
                                <path id="XMLID_1792_" d="M75.416 292h-5.791v7.722h5.791z" class="cls-11" transform="translate(-27.974 -267.762)"/>
                                <path id="XMLID_1906_" d="M40.887 148H10v7.722h30.887z" class="cls-9" transform="translate(12.95 -139.205)"/>
                                <path id="XMLID_1905_" d="M75.416 148h-5.791v7.722h5.791z" class="cls-11" transform="translate(-27.974 -139.205)"/>
                                <path id="XMLID_1909_" d="M67.887 76H37v7.722h30.887z" class="cls-9" transform="translate(-16.945 -74.927)"/>
                                <path id="XMLID_1908_" d="M102.416 76h-5.791v7.722h5.791z" class="cls-11" transform="translate(-57.869 -74.927)"/>
                                <g id="XMLID_1876_">
                                    <ellipse id="XMLID_1875_" cx="15.199" cy="15.706" class="cls-9" rx="15.199" ry="15.706" transform="translate(1.205 8.328)"/>
                                    <g id="XMLID_192_">
                                        <path id="XMLID_199_" fill="#2e6089" d="M16.516 73.721a16.571 16.571 0 0 1 2.467.184V67.74c0-1.678 1.148-1.741 1.741-1.741h29.55a1.633 1.633 0 0 1 1.741 1.741v5.981h1.823a1.072 1.072 0 0 1 1.072 1.072v7.722a1.072 1.072 0 0 1-1.072 1.072h-1.824v5.577h1.823a1.072 1.072 0 0 1 1.072 1.072v7.722a1.072 1.072 0 0 1-1.072 1.072h-1.823v6.649a1.072 1.072 0 0 1-1.072 1.072H16.516a16.516 16.516 0 1 1 0-33.031zm33.353-5.577H21.127v5.577h28.742zm2.9 7.722H24.647a16.64 16.64 0 0 1 5.842 5.577h22.276zm-2.9 7.722H31.632A16.393 16.393 0 0 1 33 89.165h16.869zm2.9 7.722H33a16.393 16.393 0 0 1-1.364 5.577h21.129zm-2.9 13.3v-5.579h-19.38a16.641 16.641 0 0 1-5.842 5.577zm-33.353 0A14.371 14.371 0 1 0 2.145 90.237a14.387 14.387 0 0 0 14.371 14.371z" transform="translate(0 -65.999)"/>
                                        <path id="Path_4730" fill="#2e5f88" stroke="#2e6089" d="M180.894 132.188a8.306 8.306 0 0 0-3.7-1.624h-.09v-4.06a6.953 6.953 0 0 1 3.067 1.263l1.443-1.985a8.586 8.586 0 0 0-4.511-1.624v-1.083h-1.353v1.083a4.856 4.856 0 0 0-3.428 1.263 3.907 3.907 0 0 0-1.353 3.067 3.522 3.522 0 0 0 1.173 2.8 9.017 9.017 0 0 0 3.608 1.534v4.24a6.893 6.893 0 0 1-3.789-1.894l-1.624 1.894a9.22 9.22 0 0 0 5.322 2.346v1.534h1.541v-1.534a5.085 5.085 0 0 0 3.518-1.263 3.907 3.907 0 0 0 1.353-3.067 3.442 3.442 0 0 0-1.177-2.89zm-5.232-1.894a4.409 4.409 0 0 1-1.624-.812 1.715 1.715 0 0 1-.451-1.173 1.588 1.588 0 0 1 .541-1.173 2.414 2.414 0 0 1 1.534-.632zm2.977 6.315a3.4 3.4 0 0 1-1.624.631v-3.879a4.85 4.85 0 0 1 1.8.812 1.559 1.559 0 0 1 .451 1.173 1.723 1.723 0 0 1-.628 1.263z" transform="translate(-160.314 -107.063)"/>
                                    </g>
                                </g>
                            </g>
                        </g>
                        <g id="Group_12344" transform="translate(33.309)">
                            <path id="Path_6" d="M369.022 212.187l-.668-.358a.243.243 0 0 1-.1-.1l-.358-.668a.243.243 0 0 0-.424 0l-.359.668a.242.242 0 0 1-.1.1l-.668.358a.243.243 0 0 0 0 .424l.668.358a.243.243 0 0 1 .1.1l.358.668a.243.243 0 0 0 .424 0l.358-.668a.243.243 0 0 1 .1-.1l.668-.358a.243.243 0 0 0 0-.424z" class="cls-6" transform="translate(-299.153 -192.193)"/>
                            <path id="Path_7" d="M287.511 166l-.842-.452a.3.3 0 0 1-.124-.124l-.452-.842a.3.3 0 0 0-.534 0l-.452.842a.3.3 0 0 1-.124.124l-.842.452a.3.3 0 0 0 0 .534l.842.452a.3.3 0 0 1 .124.124l.452.842a.3.3 0 0 0 .534 0l.452-.842a.3.3 0 0 1 .124-.124l.842-.452a.3.3 0 0 0 0-.534z" class="cls-6" transform="translate(-283.981 -164.419)"/>
                            <path id="Path_7-2" d="M287.511 166l-.842-.452a.3.3 0 0 1-.124-.124l-.452-.842a.3.3 0 0 0-.534 0l-.452.842a.3.3 0 0 1-.124.124l-.842.452a.3.3 0 0 0 0 .534l.842.452a.3.3 0 0 1 .124.124l.452.842a.3.3 0 0 0 .534 0l.452-.842a.3.3 0 0 1 .124-.124l.842-.452a.3.3 0 0 0 0-.534z" class="cls-6" transform="translate(-184.467 -80.215)"/>
                            <path id="Path_8" d="M408.283 202.152l-1.435.8a.525.525 0 0 0-.21.219l-.77 1.486a.508.508 0 0 1-.91 0l-.77-1.486a.53.53 0 0 0-.211-.219l-1.435-.8a.544.544 0 0 1 0-.942l1.435-.8a.526.526 0 0 0 .211-.219l.77-1.485a.507.507 0 0 1 .91 0l.77 1.485a.52.52 0 0 0 .211.218l1.435.8a.544.544 0 0 1 0 .942z" class="cls-4" transform="translate(-323.309 -175.498)"/>
                        </g>
                    </g>
                </g>
            </g>
        </g>
    </g>
</svg>
