<svg xmlns="http://www.w3.org/2000/svg" width="212" height="150" viewBox="0 0 212 150">
    <defs>
        <style>
            .cls-1{fill:#fff}.cls-2{fill:#ebf5ff}.cls-3{fill:#84b4fe}.cls-4{fill:#c1ddf7}.cls-6{fill:#a4c6e5}.cls-10{fill:#ff7eb8}.cls-11{fill:#aed0ef}
        </style>
    </defs>
    <g id="Group_12367" transform="translate(-148 -1348)">
        <path id="Rectangle_2684" d="M0 0H212V150H0z" class="cls-1" transform="translate(148 1348)"/>
        <g id="Group_13193" transform="translate(-6 71)">
            <path id="Path_4750" d="M-5358.687-3916.743s-38.265-56.183 22.062-79.4c0 0 11.6-4.869 27.344 6.409s42.043-27.679 42.043-27.679 17.124-32.571 64.89-7.255c0 0 30.013 17.205 14.921 59.521 0 0-2.88 10.894 10.169 25.076s-2.307 22.731-2.307 22.731l-18.645.062z" class="cls-2" transform="translate(5532 5331.302)"/>
            <ellipse id="Ellipse_723" cx="6.104" cy="8.615" class="cls-2" rx="6.104" ry="8.615" transform="rotate(-45 1707.025 400.426)"/>
            <ellipse id="Ellipse_726" cx="6.91" cy="9.753" class="cls-2" rx="6.91" ry="9.753" transform="rotate(1 -77684.98 20578.125)"/>
            <ellipse id="Ellipse_724" cx="6.104" cy="8.615" class="cls-2" rx="6.104" ry="8.615" transform="rotate(-2 38707.986 -8804.114)"/>
            <path id="Path_4751" d="M3.1 0c1.714 0-.479 6.187-.479 13.707s2.197 13.524.479 13.524S0 21.135 0 13.615 1.39 0 3.1 0z" class="cls-1" transform="rotate(-2 38620.551 -8719.679)"/>
            <path id="Path_4752" d="M1.946 0c1.075 0-.3 3.88-.3 8.6s1.375 8.48.3 8.48S0 13.253 0 8.538.871 0 1.946 0z" class="cls-1" transform="rotate(180 89.9 702.577)"/>
            <circle id="Ellipse_725" cx="2.067" cy="2.067" r="2.067" class="cls-2" transform="translate(265.145 1299.787)"/>
            <path id="Path_4753" d="M278.728 224.62a1.383 1.383 0 1 1-1.383-1.383 1.383 1.383 0 0 1 1.383 1.383z" class="cls-3" transform="translate(-73.965 1103.424)"/>
            <path id="Path_4754" d="M278.728 224.62a1.383 1.383 0 1 1-1.383-1.383 1.383 1.383 0 0 1 1.383 1.383z" class="cls-1" transform="translate(-73.582 1151.424)"/>
            <path id="Path_4755" d="M407.563 200.794l-1.263-.677a.454.454 0 0 1-.186-.186l-.677-1.263a.454.454 0 0 0-.8 0l-.677 1.263a.458.458 0 0 1-.186.186l-1.263.677a.454.454 0 0 0 0 .8l1.263.677a.454.454 0 0 1 .186.186l.677 1.263a.454.454 0 0 0 .8 0l.677-1.263a.449.449 0 0 1 .186-.186l1.263-.677a.454.454 0 0 0 0-.8z" class="cls-4" transform="translate(-65.191 1104.236)"/>
            <path id="Path_4756" d="M407.563 200.794l-1.263-.677a.454.454 0 0 1-.186-.186l-.677-1.263a.454.454 0 0 0-.8 0l-.677 1.263a.458.458 0 0 1-.186.186l-1.263.677a.454.454 0 0 0 0 .8l1.263.677a.454.454 0 0 1 .186.186l.677 1.263a.454.454 0 0 0 .8 0l.677-1.263a.449.449 0 0 1 .186-.186l1.263-.677a.454.454 0 0 0 0-.8z" class="cls-1" transform="translate(-142.659 1129.236)"/>
            <path id="Path_4757" d="M245.077 192.883l-1.157-.62a.419.419 0 0 1-.17-.17l-.62-1.156a.416.416 0 0 0-.733 0l-.621 1.156a.419.419 0 0 1-.17.17l-1.156.62a.416.416 0 0 0 0 .734l1.156.62a.418.418 0 0 1 .17.17l.621 1.156a.416.416 0 0 0 .733 0l.62-1.156a.419.419 0 0 1 .17-.17l1.157-.62a.417.417 0 0 0 0-.734z" class="cls-3" transform="translate(-68.843 1144.277)"/>
            <path id="Path_4758" d="M373.611 181.342l-.846-.454a.3.3 0 0 1-.125-.124l-.454-.847a.3.3 0 0 0-.537 0l-.453.847a.3.3 0 0 1-.125.124l-.846.454a.3.3 0 0 0 0 .536l.846.454a.305.305 0 0 1 .125.125l.453.846a.3.3 0 0 0 .537 0l.454-.846a.306.306 0 0 1 .125-.125l.846-.454a.3.3 0 0 0 0-.536z" class="cls-3" transform="translate(-94.155 1109.608)"/>
        </g>
        <g id="Group_12366" transform="translate(21502 2285.057)">
            <g id="Group_12364" transform="translate(-22307 -2277.057)">
                <g id="Group_12345" transform="translate(11.171 8.93)">
                    <g id="Group_12342" transform="translate(990.654 1344.497)">
                        <g id="money-bag" transform="translate(23.258)">
                            <g id="Group_11083" transform="translate(.001)">
                                <path id="Path_3278" d="M31.579 19.039L15.156 24.96l-2.461-1.442-7.647-4.478C-5.559 8.428 3.069-.451 8.092.018a3.062 3.062 0 0 1 1.932.86 11.559 11.559 0 0 0 2.1 1.674A10.931 10.931 0 0 0 15.4 3.905c3.526.843 8.053.227 13.97-2.238 9.473-3.948 15.405 9.477 2.209 17.372z" class="cls-4" transform="translate(33.308)"/>
                                <path id="Path_3279" d="M0 58.378C0 30.8 22.989 0 51.346 0s51.347 30.8 51.347 58.378S79.7 97.841 51.346 97.841 0 85.949 0 58.378z" class="cls-4" transform="translate(0 25.356)"/>
                                <path id="Path_3277" fill="#b3d3ef" d="M12.488 22.766a5.734 5.734 0 1 1 5.734-5.734 3.476 3.476 0 0 0 3.478 3.476 3.654 3.654 0 0 0 3.654-3.476 12.86 12.86 0 0 0-9.191-12.164V3.476a3.476 3.476 0 1 0-6.952 0v1.392a12.686 12.686 0 0 0 3.3 24.85 5.734 5.734 0 1 1-5.559 5.9v-.17a3.476 3.476 0 1 0-6.952 0 12.86 12.86 0 0 0 9.186 12.167v2.778a3.476 3.476 0 1 0 6.952 0v-2.778a12.686 12.686 0 0 0-3.654-24.849z" transform="translate(45.062 40.484)"/>
                            </g>
                            <g id="Group_11084">
                                <path id="Path_3280" d="M45.8 100.742C20.5 100.742 0 88.523 0 60.185 0 36.834 14.561 9.444 33.706 1.113 37.681-.617 41.347.186 45.8.186c-15.261 0-27.636 31.659-27.636 60s12.372 40.556 27.636 40.556z" class="cls-6" transform="translate(0 22.457)"/>
                                <path id="Path_3281" d="M23.088 8.648a16.13 16.13 0 0 1-4.523-2.117A21.93 21.93 0 0 1 15.4 3.9a10.943 10.943 0 0 1-3.274-1.354 11.6 11.6 0 0 1-2.1-1.666C6.077-3.067-7.144 6.854 5.048 19.041l7.646 4.477c4.6-.909 6.941-2.31 3.738-4.477-6.061-4.1-6.312-9.3-5.612-12.688a1.313 1.313 0 0 1 2.045-.8l.016.011a26.247 26.247 0 0 0 4.757 2.717 17.686 17.686 0 0 0 5.268 1.343 28.272 28.272 0 0 0 5.28-.056 27.651 27.651 0 0 1-5.1-.916z" class="cls-6" transform="translate(27.486)"/>
                            </g>
                            <path id="Path_3282" d="M5.951 0h26.814a5.952 5.952 0 0 1 5.952 5.952v.289a5.951 5.951 0 0 1-5.952 5.951H5.951A5.951 5.951 0 0 1 0 6.241v-.29A5.951 5.951 0 0 1 5.951 0z" class="cls-6" transform="translate(31.986 18.586)"/>
                            <path id="Path_3283" fill="#8db7de" d="M10 6.1A6.1 6.1 0 0 1 16.1 0h-10A6.1 6.1 0 0 0 0 6.094a6.1 6.1 0 0 0 6.094 6.1h10A6.1 6.1 0 0 1 10 6.1z" transform="translate(31.262 18.586)"/>
                        </g>
                        <g id="Group_12341" transform="translate(0 4.444)">
                            <path id="Path_4237" fill="none" stroke="#ff7eb8" stroke-width="4px" d="M-21204.658-1285.078l66.99-50.945 26.518 15.568 42.9-41.68" transform="translate(21192.975 1367.85)"/>
                            <path id="Path_4238" fill="none" stroke="#ff7eb8" stroke-linecap="round" stroke-linejoin="round" stroke-width="4px" d="M-20932.016-1354.5v-9.234h-10.436" transform="translate(21057.967 1368.738)"/>
                            <circle id="Ellipse_683" cx="6.444" cy="6.444" r="6.444" class="cls-10" transform="translate(48.46 27.216)"/>
                            <circle id="Ellipse_684" cx="6.444" cy="6.444" r="6.444" class="cls-10" transform="translate(-19 76.101)"/>
                            <circle id="Ellipse_685" cx="6.444" cy="6.444" r="6.444" class="cls-10" transform="translate(75.074 40.881)"/>
                        </g>
                        <g id="XMLID_1759_" transform="translate(-1.419 69.377)">
                            <path id="XMLID_1788_" d="M78.075 364H37v10.269h41.075z" class="cls-6" transform="translate(-10.33 -321.499)"/>
                            <path id="XMLID_1787_" d="M78.075 220H37v10.269h41.075z" class="cls-6" transform="translate(-10.33 -198.036)"/>
                            <path id="XMLID_1790_" d="M104.327 364h-7.7v10.269h7.7z" class="cls-11" transform="translate(-45.085 -321.499)"/>
                            <path id="XMLID_1789_" d="M104.327 220h-7.7v10.269h7.7z" class="cls-11" transform="translate(-45.085 -198.036)"/>
                            <path id="XMLID_1793_" d="M51.075 292H10v10.269h41.075z" class="cls-6" transform="translate(20.521 -259.768)"/>
                            <path id="XMLID_1792_" d="M77.327 292h-7.7v10.269h7.7z" class="cls-11" transform="translate(-14.234 -259.768)"/>
                            <path id="XMLID_1906_" d="M51.075 148H10v10.269h41.075z" class="cls-6" transform="translate(20.521 -136.305)"/>
                            <path id="XMLID_1905_" d="M77.327 148h-7.7v10.269h7.7z" class="cls-11" transform="translate(-14.234 -136.305)"/>
                            <path id="XMLID_1909_" d="M78.075 76H37v10.269h41.075z" class="cls-6" transform="translate(-10.33 -74.574)"/>
                            <path id="XMLID_1908_" d="M104.327 76h-7.7v10.269h7.7z" class="cls-11" transform="translate(-45.085 -74.574)"/>
                            <g id="XMLID_1876_" transform="translate(0 -.001)">
                                <ellipse id="XMLID_1875_" cx="20.213" cy="20.887" class="cls-6" rx="20.213" ry="20.887" transform="translate(1.602 11.075)"/>
                                <g id="XMLID_192_">
                                    <path id="XMLID_199_" fill="#2e6089" d="M21.964 76.269a22.038 22.038 0 0 1 3.28.245v-8.2c0-2.232 1.527-2.315 2.315-2.315h39.3a2.172 2.172 0 0 1 2.315 2.315v7.954H71.6a1.426 1.426 0 0 1 1.426 1.426v10.27A1.426 1.426 0 0 1 71.6 89.39h-2.428v7.416H71.6a1.426 1.426 0 0 1 1.426 1.426V108.5a1.426 1.426 0 0 1-1.426 1.426h-2.428v8.843a1.426 1.426 0 0 1-1.426 1.426H21.964a21.964 21.964 0 1 1 0-43.927zm44.355-7.416H28.1v7.416h38.219zm3.851 10.268H32.778a22.13 22.13 0 0 1 7.769 7.416H70.17zM66.319 89.39H42.067a21.8 21.8 0 0 1 1.813 7.416h22.439zm3.851 10.269H43.88a21.8 21.8 0 0 1-1.813 7.416h28.1zm-3.851 17.685v-7.416H40.547a22.13 22.13 0 0 1-7.769 7.416zm-44.355 0A19.111 19.111 0 1 0 2.852 98.232a19.133 19.133 0 0 0 19.112 19.112z" transform="translate(0 -65.999)"/>
                                    <path id="Path_4730" fill="#2e5f88" stroke="#2e6089" d="M184.375 135.194a11.044 11.044 0 0 0-4.919-2.159h-.12v-5.4a9.246 9.246 0 0 1 4.079 1.68l1.92-2.639a11.419 11.419 0 0 0-6-2.159v-1.44h-1.8v1.44a6.458 6.458 0 0 0-4.559 1.68 5.2 5.2 0 0 0-1.8 4.079 4.685 4.685 0 0 0 1.56 3.719 11.992 11.992 0 0 0 4.8 2.04v5.639a9.167 9.167 0 0 1-5.039-2.519l-2.159 2.519a12.261 12.261 0 0 0 7.078 3.119v2.039h2.04v-2.04a6.763 6.763 0 0 0 4.679-1.68 5.2 5.2 0 0 0 1.8-4.079 4.577 4.577 0 0 0-1.56-3.839zm-6.958-2.519a5.862 5.862 0 0 1-2.159-1.08 2.28 2.28 0 0 1-.6-1.56 2.112 2.112 0 0 1 .72-1.56 3.21 3.21 0 0 1 2.039-.84zm3.959 8.4a4.516 4.516 0 0 1-2.159.84v-5.159a6.45 6.45 0 0 1 2.4 1.08 2.072 2.072 0 0 1 .6 1.56 2.292 2.292 0 0 1-.841 1.676z" transform="translate(-157.007 -101.781)"/>
                                </g>
                            </g>
                        </g>
                    </g>
                    <g id="Group_12344" transform="translate(996.904 1342.618)">
                        <path id="Path_6" d="M369.682 212.482l-.826-.443a.3.3 0 0 1-.122-.122l-.443-.826a.3.3 0 0 0-.524 0l-.443.826a.3.3 0 0 1-.122.122l-.826.443a.3.3 0 0 0 0 .524l.826.442a.3.3 0 0 1 .122.122l.443.826a.3.3 0 0 0 .524 0l.443-.826a.3.3 0 0 1 .122-.122l.826-.442a.3.3 0 0 0 0-.524z" class="cls-4" transform="translate(-261.045 -183.775)"/>
                        <path id="Path_7" d="M288.343 166.369l-1.041-.558a.374.374 0 0 1-.153-.153l-.558-1.041a.374.374 0 0 0-.66 0l-.558 1.041a.374.374 0 0 1-.153.153l-1.041.558a.374.374 0 0 0 0 .66l1.041.558a.375.375 0 0 1 .153.153l.558 1.041a.374.374 0 0 0 .66 0l.558-1.041a.374.374 0 0 1 .153-.153l1.041-.558a.375.375 0 0 0 0-.66z" class="cls-4" transform="translate(-261.682 -160.419)"/>
                        <path id="Path_8" d="M409.7 203.03l-1.773.985a.649.649 0 0 0-.26.27l-.951 1.836a.628.628 0 0 1-1.124 0l-.951-1.836a.655.655 0 0 0-.261-.27l-1.773-.985a.672.672 0 0 1 0-1.164l1.773-.984a.649.649 0 0 0 .261-.27l.951-1.835a.627.627 0 0 1 1.124 0l.951 1.835a.643.643 0 0 0 .26.27l1.773.984a.672.672 0 0 1 0 1.164z" class="cls-1" transform="translate(-291.857 -159.471)"/>
                    </g>
                </g>
            </g>
        </g>
    </g>
</svg>
