<svg width="24" height="24" viewBox="0 0 24 24" fill="none" xmlns="http://www.w3.org/2000/svg">
<circle cx="12" cy="12" r="10.5" stroke="#2E3F55"/>
<path d="M19.9923 11.289C19.9133 10.3793 19.2409 9.6674 18.3906 9.46973C18.4499 10.0037 18.5093 10.5771 18.5686 11.1506C18.6476 11.9218 18.6872 12.6535 18.7268 13.3654C19.5376 13.0292 20.0714 12.1986 19.9924 11.289H19.9923Z" fill="#2E3F55"/>
<path d="M6.74219 15.9357L7.7705 19.416C7.96831 20.0685 8.66032 20.4443 9.33263 20.2465C9.98519 20.0487 10.3609 19.3567 10.1632 18.7041L9.39195 16.1334C8.52183 15.9949 7.65175 15.9355 6.76193 15.9355C6.76193 15.9357 6.76193 15.9357 6.7422 15.9357L6.74219 15.9357Z" fill="#2E3F55"/>
<path d="M4.588 9.60753C3.63885 9.68657 2.92697 10.5369 3.00599 11.506L3.2038 13.6416C3.28283 14.5513 4.05403 15.2236 4.944 15.2236H5.10221C5.6559 15.1643 6.20955 15.1446 6.78312 15.1446C7.05996 15.1446 7.33681 15.1446 7.61366 15.1643L7.15888 9.19238C6.3281 9.39005 5.45798 9.52853 4.588 9.60758L4.588 9.60753Z" fill="#2E3F55"/>
<path d="M17.7772 11.229C17.4608 7.78818 16.9467 5 16.6303 5C16.6106 5 16.6106 5 16.5907 5.01972L11.0736 7.76854C10.0651 8.2629 9.01712 8.67824 7.94922 8.97479L8.42385 15.2038C9.57077 15.3027 10.7177 15.5202 11.8251 15.8366L17.7575 17.5373C17.7772 17.5373 17.7772 17.557 17.797 17.557C18.0935 17.5373 18.0935 14.6897 17.7772 11.2291L17.7772 11.229Z" fill="#2E3F55"/>
<rect x="6" y="3" width="2" height="21.078" transform="rotate(-30 6 3)" fill="#2E3F55"/>
</svg>
