<svg xmlns="http://www.w3.org/2000/svg" id="Component_55_5" width="22" height="22" data-name="Component 55 – 5" viewBox="0 0 22 22">
    <path id="Rectangle_2342" fill="none" d="M0 0H22V22H0z" data-name="Rectangle 2342"/>
    <g id="Group_11276" fill="#8397af" data-name="Group 11276" transform="translate(-272 -312.666)">
        <path id="Path_3665" d="M17.115 4.6a6.983 6.983 0 0 0-12.9 1.743 4.672 4.672 0 0 0 .5 9.323h3.534v-.324a2.522 2.522 0 0 1-1.093-4.211l2.061-2.06a2.581 2.581 0 0 1 3.565 0l2.062 2.062a2.521 2.521 0 0 1-1.094 4.208v.324h2.63A5.553 5.553 0 0 0 17.115 4.6z" data-name="Path 3665" transform="translate(272 314.667)"/>
        <path id="Path_3666" fill-rule="evenodd" d="M29.977 20.22l2.247 2.221a.549.549 0 0 1-.775.778l-.965-.969c-.162-.162-.291-.108-.291.12v4.03a.548.548 0 1 1-1.1 0v-4.029c0-.227-.13-.281-.291-.12l-.965.969a.549.549 0 0 1-.775-.778l2.228-2.22a.486.486 0 0 1 .687-.002z" data-name="Path 3666" transform="translate(253.355 305.216)"/>
    </g>
</svg>
