<svg xmlns="http://www.w3.org/2000/svg" width="22.473" height="25.397" viewBox="0 0 22.473 25.397">
  <defs>
    <style>
      .cls-1 {
        fill: #9eb9ce;
      }

      .cls-2 {
        fill: #f15642;
      }

      .cls-3 {
        fill: #fff;
      }

      .cls-4 {
        fill: #cad1d8;
      }
    </style>
  </defs>
  <g id="writing_1_" data-name="writing (1)" transform="translate(-26.57 0)">
    <g id="Group_139" data-name="Group 139" transform="translate(26.57)">
      <g id="Group_138" data-name="Group 138">
        <path id="Path_136" data-name="Path 136" class="cls-1" d="M118.662,200.992a.992.992,0,0,0-.992-.992H107.451a.992.992,0,1,0,0,1.984H117.67A.992.992,0,0,0,118.662,200.992Z" transform="translate(-102.496 -190.079)"/>
        <path id="Path_138" data-name="Path 138" class="cls-1" d="M33.856,23.413H30.538a1.986,1.986,0,0,1-1.984-1.984V3.968a1.986,1.986,0,0,1,1.984-1.984h12.2A1.986,1.986,0,0,1,44.72,3.968v6.1a.992.992,0,0,0,1.984,0v-6.1A3.973,3.973,0,0,0,42.736,0h-12.2A3.973,3.973,0,0,0,26.57,3.968V21.429A3.973,3.973,0,0,0,30.538,25.4h3.318a.992.992,0,1,0,0-1.984Z" transform="translate(-26.57)"/>
        <path id="Path_140" data-name="Path 140" class="cls-1" d="M117.67,120H107.451a.992.992,0,1,0,0,1.984H117.67a.992.992,0,1,0,0-1.984Z" transform="translate(-102.496 -114.047)"/>
        <g id="pdf" transform="translate(-23.117 -2.298)">
          <path id="Path_277" data-name="Path 277" class="cls-2" d="M45.59,246.229a.568.568,0,0,1-.566.566H32.566a.568.568,0,0,1-.566-.566v-5.662a.568.568,0,0,1,.566-.566H45.023a.568.568,0,0,1,.566.566Z" transform="translate(0 -221.82)"/>
          <g id="Group_563" data-name="Group 563" transform="translate(34.468 20.102)">
            <path id="Path_278" data-name="Path 278" class="cls-3" d="M101.744,294.633a.312.312,0,0,1,.307-.313H103.1a1.132,1.132,0,0,1,0,2.264h-.756v.6a.284.284,0,0,1-.29.312.305.305,0,0,1-.307-.312Zm.6.258v1.128h.756a.564.564,0,0,0,0-1.128Z" transform="translate(-101.744 -294.32)"/>
            <path id="Path_279" data-name="Path 279" class="cls-3" d="M188.137,298.6a.283.283,0,0,1-.313-.28v-2.572a.308.308,0,0,1,.313-.281h1.037a1.567,1.567,0,0,1,.041,3.133Zm.285-2.58v2.028h.751a1.017,1.017,0,0,0,0-2.028Z" transform="translate(-184.778 -295.431)"/>
            <path id="Path_280" data-name="Path 280" class="cls-3" d="M287.728,296.045v.72h1.155a.35.35,0,0,1,.326.321.315.315,0,0,1-.326.272h-1.155v.951a.268.268,0,0,1-.271.28.288.288,0,0,1-.321-.28v-2.572a.286.286,0,0,1,.321-.281h1.589a.282.282,0,0,1,.317.281.313.313,0,0,1-.317.308h-1.318Z" transform="translate(-280.575 -295.416)"/>
          </g>
          <path id="Path_281" data-name="Path 281" class="cls-4" d="M106.759,416.566H96v.566h10.759a.568.568,0,0,0,.566-.566V416A.568.568,0,0,1,106.759,416.566Z" transform="translate(-61.735 -391.592)"/>
        </g>
      </g>
    </g>
  </g>
</svg>
