<svg xmlns="http://www.w3.org/2000/svg" width="77.496" height="90.366" viewBox="0 0 77.496 90.366">
    <defs>
        <style>
            .cls-1{opacity:.3}.cls-2{fill:#c6cdd9}
        </style>
    </defs>
    <g id="user-shape" class="cls-1" transform="translate(-18.268)">
        <g id="Group_654" data-name="Group 654" transform="translate(18.268)">
            <path id="Path_328" d="M130.764 42.27a20.362 20.362 0 0 0 14.944-6.192 20.362 20.362 0 0 0 6.192-14.944 20.365 20.365 0 0 0-6.192-14.943 21.13 21.13 0 0 0-29.887 0 20.364 20.364 0 0 0-6.192 14.943 20.361 20.361 0 0 0 6.192 14.943 20.365 20.365 0 0 0 14.943 6.193z" class="cls-2" data-name="Path 328" transform="translate(-92.017)"/>
            <path id="Path_329" d="M95.57 226.833a56.357 56.357 0 0 0-.771-6 46.667 46.667 0 0 0-1.459-5.972 28.322 28.322 0 0 0-2.367-5.366 19.33 19.33 0 0 0-3.413-4.458 14.369 14.369 0 0 0-4.7-2.944 16.545 16.545 0 0 0-6.138-1.1 6.728 6.728 0 0 0-2.312 1.183q-1.815 1.184-4.1 2.643a26.035 26.035 0 0 1-5.944 2.64 23.4 23.4 0 0 1-14.7 0 26.029 26.029 0 0 1-5.944-2.64q-2.284-1.459-4.1-2.643a6.726 6.726 0 0 0-2.312-1.183 16.535 16.535 0 0 0-6.137 1.1 14.365 14.365 0 0 0-4.706 2.944 19.353 19.353 0 0 0-3.412 4.458 28.366 28.366 0 0 0-2.366 5.366 46.671 46.671 0 0 0-1.459 5.972 56.015 56.015 0 0 0-.771 6q-.193 2.781-.192 5.7 0 6.6 4.018 10.43t10.678 3.824h48.1q6.659 0 10.678-3.824t4.018-10.43q.004-2.92-.189-5.7z" class="cls-2" data-name="Path 329" transform="translate(-18.268 -156.418)"/>
        </g>
    </g>
</svg>
