<svg xmlns="http://www.w3.org/2000/svg" width="14.645" height="19.255" viewBox="0 0 14.645 19.255">
    <defs>
        <style>
            .cls-1{fill:#c7d9e6}
        </style>
    </defs>
    <g id="man-user_1_" data-name="man-user (1)" transform="translate(-41.895)">
        <path id="Path_128" d="M108.411 9.417c2.141 0 3.876-2.108 3.876-4.709S111.718 0 108.411 0s-3.876 2.108-3.876 4.709 1.736 4.708 3.876 4.708z" class="cls-1" data-name="Path 128" transform="translate(-59.194)"/>
        <path id="Path_129" d="M41.9 300.453c0-.159 0-.045 0 0z" class="cls-1" data-name="Path 129" transform="translate(0 -283.847)"/>
        <path id="Path_130" d="M308.085 301.63c0-.043 0-.3 0 0z" class="cls-1" data-name="Path 130" transform="translate(-251.546 -284.9)"/>
        <path id="Path_131" d="M56.543 184.378c-.072-4.53-.663-5.821-5.191-6.638a3.18 3.18 0 0 1-4.245 0c-4.478.808-5.105 2.08-5.188 6.491-.007.36-.01.379-.011.337v.476s1.078 2.173 7.321 2.173 7.321-2.173 7.321-2.173v-.352a2.934 2.934 0 0 1-.007-.314z" class="cls-1" data-name="Path 131" transform="translate(-.012 -167.962)"/>
    </g>
</svg>
