<svg xmlns="http://www.w3.org/2000/svg" width="30" height="33" viewBox="0 0 30 33">
  <defs>
    <style>
      .cls-1 {
        fill: #fff;
        stroke: #24424d;
        opacity: 0.1;
      }

      .cls-2 {
        fill: #c7d9e6;
      }

      .cls-3 {
        stroke: none;
      }

      .cls-4 {
        fill: none;
      }
    </style>
  </defs>
  <g id="Group_625" data-name="Group 625" transform="translate(-1327 -18)">
    <g id="Rectangle_265" data-name="Rectangle 265" class="cls-1" transform="translate(1327 18)">
      <rect class="cls-3" width="30" height="33" rx="4"/>
      <rect class="cls-4" x="0.5" y="0.5" width="29" height="32" rx="3.5"/>
    </g>
    <g id="male-user" transform="translate(1286.158 24.72)">
      <g id="Group_624" data-name="Group 624" transform="translate(48.026 0)">
        <g id="Group_634" data-name="Group 634">
          <path id="Path_313" data-name="Path 313" class="cls-2" d="M60.988,242.78a8.507,8.507,0,0,1-3.125-1.618l-.074.07a3.143,3.143,0,0,1-2.041.98h-.062a3.143,3.143,0,0,1-2.041-.98l-.074-.07a8.507,8.507,0,0,1-3.125,1.618c-3.259,1.217-2.28,6.172-2.281,6.21.1.552.162.741.215.763,3.273,1.457,11.4,1.457,14.677,0,.052-.021.112-.211.215-.763C63.268,248.952,64.26,244.017,60.988,242.78Z" transform="translate(-48.026 -231.689)"/>
          <path id="Path_314" data-name="Path 314" class="cls-2" d="M160.355,4.771l-.027-.03a2.283,2.283,0,0,1-.169-.158,6.481,6.481,0,0,0,.063-2.377c-.4-1.219-2.808-2.036-3.29-2.131,0,0-.293-.06-.312-.06a1.5,1.5,0,0,0-.819.115,3.973,3.973,0,0,0-2.209,2.075,6.482,6.482,0,0,0,.063,2.377,2.267,2.267,0,0,1-.169.158l-.027.03a1.435,1.435,0,0,0,.042,1.04,2.379,2.379,0,0,0,.321.69c.389,1.826,1.742,3.386,3.12,3.386s2.66-1.559,3.049-3.386a2.377,2.377,0,0,0,.321-.69C160.448,5.352,160.482,4.881,160.355,4.771Z" transform="translate(-149.242 0)"/>
        </g>
      </g>
    </g>
  </g>
</svg>
