<svg xmlns="http://www.w3.org/2000/svg" width="10.98" height="14.639" viewBox="0 0 10.98 14.639">
  <defs>
    <style>
      .cls-1 {
        fill: #fff;
      }
    </style>
  </defs>
  <g id="lock" transform="translate(-63.999)">
    <g id="Group_121" data-name="Group 121" transform="translate(64)">
      <path id="Path_132" data-name="Path 132" class="cls-1" d="M74.675,5.49H73.76V4.27a4.27,4.27,0,1,0-8.54,0V5.49H64.3a.3.3,0,0,0-.3.3v7.625a1.221,1.221,0,0,0,1.22,1.22h8.54a1.221,1.221,0,0,0,1.22-1.22V5.795A.3.3,0,0,0,74.675,5.49ZM70.4,11.861a.305.305,0,0,1-.3.339H68.88a.305.305,0,0,1-.3-.339l.192-1.73a1.207,1.207,0,0,1-.5-.981,1.22,1.22,0,0,1,2.44,0,1.207,1.207,0,0,1-.5.981ZM71.93,5.49H67.05V4.27a2.44,2.44,0,1,1,4.88,0Z" transform="translate(-64)"/>
    </g>
  </g>
</svg>
