<svg width="104" height="16" fill="none" xmlns="http://www.w3.org/2000/svg">
    <g opacity=".6" fill="#fff">
        <path d="M5.562 9.424a.849.849 0 0 0 .134-.278c.454-1.112.906-2.225 1.357-3.337.057-.14.165-.272.077-.443a1.027 1.027 0 0 0-.468-.526 1.7 1.7 0 0 0-.482-.116c-.215-.027-.223-.038-.231-.26V4.38c0-.305 0-.31.31-.31h3.575c.116 0 .165.062.168.172v.056c0 .468-.006.409-.371.423-.055 0-.11.006-.165.016-.275.053-.356.163-.34.442.009.129.035.256.077.378.433 1.257.869 2.513 1.307 3.769a.411.411 0 0 0 .04.064.413.413 0 0 0 .1-.178l1.272-3.28c.09-.213.158-.434.206-.66.07-.38-.031-.511-.415-.551-.116-.013-.24-.015-.36-.023a.15.15 0 0 1-.157-.154c-.052-.43-.015-.475.422-.475h2.755a.135.135 0 0 1 .14.14v.334a.137.137 0 0 1-.078.136.136.136 0 0 1-.054.013h-.056a1.232 1.232 0 0 0-1.157.91c-.8 2-1.62 3.99-2.43 5.984-.019.041-.036.084-.051.128a.231.231 0 0 1-.265.185 8.28 8.28 0 0 0-.722 0 .264.264 0 0 1-.3-.215c-.324-.9-.658-1.8-.99-2.706-.212-.578-.423-1.157-.64-1.743-.024-.067-.028-.15-.105-.193a.6.6 0 0 0-.134.259l-1.8 4.323c-.116.27-.116.27-.4.27-.185 0-.37-.008-.555 0a.273.273 0 0 1-.306-.208c-.347-.875-.7-1.75-1.055-2.622-.4-.986-.797-1.97-1.192-2.955a5.717 5.717 0 0 0-.4-.822 1.084 1.084 0 0 0-1-.584H.707a.23.23 0 0 1-.082-.007c-.212-.1-.082-.293-.116-.442a.142.142 0 0 1 .142-.191h4a.187.187 0 0 1 .082.009c.2.116.083.3.105.45.016.109-.047.174-.161.18-.157.01-.316.007-.471.03-.312.048-.38.155-.3.455.027.098.06.195.1.289l1.448 3.747c.023.073.06.14.108.2zM31.905 7.867v2.652c-.003.13.006.258.025.386.047.272.145.347.429.378a.872.872 0 0 1 .167.01c.081.008.183-.01.217.084a.482.482 0 0 1-.009.378c-.037.075-.127.061-.2.061h-2.11c-.2 0-.224-.03-.231-.223-.009-.244.014-.276.216-.3.056-.006.116 0 .167-.009.347-.028.453-.135.488-.48.007-.083.01-.167.009-.25v-3.14c-.022-.439-.133-.553-.563-.588-.08-.006-.186.021-.207-.089a.514.514 0 0 1 .024-.376c.031-.052.1-.042.154-.042h2.136c.16 0 .2.095.251.207l1.157 2.61.437.974a.653.653 0 0 0 .153-.268c.482-1.089.967-2.178 1.436-3.273a.358.358 0 0 1 .393-.25c.62.011 1.239 0 1.859 0a.275.275 0 0 1 .256.425.149.149 0 0 1-.162.08c-.51-.02-.6.23-.6.663-.007 1.055 0 2.108 0 3.163 0 .046.002.093.007.14.039.367.139.462.5.49h.056c.275.017.365.148.287.413a.128.128 0 0 1-.116.105 1.37 1.37 0 0 1-.167.006h-2.5c-.282 0-.372-.128-.3-.4.025-.09.094-.108.168-.116.116-.012.222-.01.332-.025a.346.346 0 0 0 .332-.318c.023-.136.036-.274.04-.413v-2.58c0-.032.017-.073-.04-.106-.074.04-.084.127-.116.2-.534 1.177-1.073 2.354-1.595 3.537a.4.4 0 0 1-.448.3c-.463-.028-.367.064-.569-.367-.533-1.137-1.065-2.276-1.595-3.415-.038-.083-.08-.164-.116-.248l-.052.014zM26.241 9.286a.542.542 0 0 0 .183.231c.443.463.891.915 1.331 1.376.201.221.476.36.773.391a.285.285 0 0 1 .278.292c-.001.05-.015.098-.04.141-.044.095-.128.094-.213.094h-1c-.246.042-.498.03-.739-.036-.222-.106-.337-.335-.5-.512-.463-.5-.925-1.013-1.38-1.52a1.118 1.118 0 0 0-.4-.318 1.26 1.26 0 0 0-.022.367v.972c.007.356.121.476.48.511.138.015.277.023.415.023.141 0 .194.06.2.2.01.282-.015.316-.306.316h-2.636c-.294 0-.315-.03-.309-.316 0-.145.064-.2.2-.2h.056c.474-.043.54-.1.542-.578.01-1.11 0-2.219 0-3.33a.703.703 0 0 0-.009-.139c-.025-.305-.1-.38-.408-.413-.046 0-.093-.007-.139-.008a.138.138 0 0 1-.152-.156v-.116c0-.23.01-.23.231-.238h1.3c.5 0 1 0 1.5.007.361.007.72.068 1.062.182a2 2 0 0 1 .281.116 1.215 1.215 0 0 1 .768 1.066 1.381 1.381 0 0 1-.627 1.283c-.223.14-.465.245-.72.312zM24.512 7.84v.748c0 .08 0 .148.116.147.323.023.648-.004.962-.08a.77.77 0 0 0 .537-.48.87.87 0 0 0-.81-1.232c-.212-.013-.426 0-.637-.007-.146-.008-.168.061-.164.182.001.242-.004.481-.004.722zM53.435 5.094l-.55-.174a4.51 4.51 0 0 0-1.387-.212 1.047 1.047 0 0 0-.556.145.606.606 0 0 0-.261.81c.135.285.318.544.54.766.5.544 1.008 1.083 1.513 1.62.34.353.635.747.879 1.172a2 2 0 0 1-.34 2.261c-.323.324-.74.538-1.19.612a4.383 4.383 0 0 1-2.922-.488.256.256 0 0 1-.155-.309c.034-.2.05-.4.076-.618a.57.57 0 0 1 .305.1 5.5 5.5 0 0 0 1.06.4c.362.089.74.089 1.1 0a.974.974 0 0 0 .647-1.524 3.123 3.123 0 0 0-.4-.532c-.416-.463-.84-.91-1.25-1.376a11.4 11.4 0 0 1-1.071-1.377 1.8 1.8 0 0 1-.31-.99 1.4 1.4 0 0 1 .832-1.33c.355-.16.74-.246 1.129-.25a5.691 5.691 0 0 1 2.248.408.124.124 0 0 1 .1.142c-.018.246-.027.484-.037.744zM17.842 6.262c.855.039 1.662.406 2.253 1.026a2.507 2.507 0 0 1-.162 3.736 3.699 3.699 0 0 1-2.791.838 3.586 3.586 0 0 1-1.767-.593 2.576 2.576 0 0 1-1.175-1.65 2.539 2.539 0 0 1 .969-2.584 3.9 3.9 0 0 1 2.673-.773zm-2.15 2.9c-.003.208.02.415.068.618a1.67 1.67 0 0 0 1.619 1.413 1.628 1.628 0 0 0 1.735-1.064 2.788 2.788 0 0 0-.075-2.236 1.729 1.729 0 0 0-3.113.04 2.8 2.8 0 0 0-.232 1.227l-.001.002zM43.755 6.607c.082-.045.076-.133.121-.19.076-.1.182-.08.281-.064.1.016.116.1.125.186.021.434.047.867.066 1.3.008.2-.007.212-.193.214-.309 0-.276.01-.385-.245a1.362 1.362 0 0 0-1.632-.864.855.855 0 0 0-.436.231.463.463 0 0 0 .068.739 2.9 2.9 0 0 0 .68.311c.385.128.764.275 1.135.442.25.116.486.264.7.438a1.4 1.4 0 0 1 .007 2.2c-.354.287-.78.47-1.233.527a2.975 2.975 0 0 1-1.992-.291c-.09-.051-.154-.058-.183.061a.895.895 0 0 1-.042.1c-.054.139-.175.116-.282.116-.107 0-.132-.087-.138-.175-.037-.544-.074-1.088-.109-1.633-.007-.116.046-.172.164-.168h.194a.146.146 0 0 1 .171.139 1.66 1.66 0 0 0 2.286 1.13.786.786 0 0 0 .371-.28.513.513 0 0 0-.127-.754 2.01 2.01 0 0 0-.47-.231c-.25-.1-.5-.184-.755-.275a3.558 3.558 0 0 1-1.183-.662 1.426 1.426 0 0 1 .342-2.407 2.59 2.59 0 0 1 2.177-.024c.097.04.187.087.272.129zM102.929 8.01a7.984 7.984 0 0 1-4.953 7.353 7.98 7.98 0 1 1 4.953-7.353zm-15.77-.023a7.784 7.784 0 1 0 15.567.038 7.784 7.784 0 0 0-15.567-.038zM60.015 11.993h-.98a.19.19 0 0 1-.2-.143c-.053-.138-.116-.27-.169-.409a.22.22 0 0 0-.245-.165c-.416.008-.833 0-1.249 0h-1.055c-.319 0-.257-.045-.392.271-.044.1-.088.2-.125.308a.184.184 0 0 1-.208.135c-.184-.008-.369 0-.556 0-.04-.116.034-.2.071-.29.606-1.449 1.215-2.897 1.827-4.343a.513.513 0 0 0 0-.463c-.093-.187-.16-.386-.25-.608h1.031a.168.168 0 0 1 .184.13.91.91 0 0 0 .042.1l2.211 5.235a.501.501 0 0 1 .063.242zm-3.91-1.365h2.21c-.37-.873-.725-1.72-1.12-2.606l-1.09 2.606zM70.389 6.304c.014.212.007.424-.021.633h-2.032c-.1 0-.2.007-.305 0-.124-.009-.158.044-.156.162 0 .333.008.666 0 1 0 .147.046.19.19.187.578-.007 1.166 0 1.749 0h.36c.12 0 .142.038.15.145.038.511.042.511-.477.511h-1.75c-.216 0-.22 0-.22.2v2c0 .194 0 .2.2.2h2.054c.25 0 .26-.056.263.245 0 .41 0 .41-.4.41h-3.086a.1.1 0 0 1-.113-.07.1.1 0 0 1-.003-.047V6.58a.898.898 0 0 0 0-.116c-.018-.149.052-.187.192-.186h3.33c.026.007.05.016.075.027zM61.498 9.12V6.512c0-.23 0-.23.224-.23h3.162c.209 0 .209 0 .214.213.009.44.009.44-.434.44h-1.886c-.138 0-.2.03-.193.182.01.324 0 .648 0 .97 0 .187 0 .191.206.192h1.966c.264 0 .268 0 .266.247 0 .483.064.4-.412.406H62.78c-.194 0-.2 0-.2.2v2.58c0 .313.008.28-.29.28h-.526c-.29 0-.276.021-.275-.265V9.702c.006-.193.009-.387.009-.582zM76.486 6.283c.368 0 .727.007 1.086 0 .151 0 .184.1.231.2.324.578.643 1.163.966 1.746.053.1.116.191.168.29.1-.038.116-.126.147-.193.317-.6.637-1.209.941-1.82a.317.317 0 0 1 .361-.217c.154.01.309.01.463 0 .042.116-.028.176-.065.245-.451.879-.904 1.757-1.359 2.635a.925.925 0 0 0-.116.448c.007.721 0 1.442 0 2.163 0 .214 0 .216-.208.22-.208.002-.444-.008-.665 0-.146.006-.19-.047-.189-.19V9.673a.866.866 0 0 0-.128-.468 411.592 411.592 0 0 1-1.566-2.68.347.347 0 0 1-.067-.243zM74.036 9.458v2.3c0 .231 0 .231-.224.231h-.722c-.108 0-.153-.042-.147-.147V7.075c.01-.116-.047-.14-.149-.14h-.97c-.14 0-.192-.034-.2-.183-.012-.475-.016-.475.455-.475h3c.264 0 .268 0 .266.246 0 .494.056.4-.41.408h-.694c-.2 0-.206 0-.207.217l.002 2.31z"/>
        <path d="M88.322 5.772c.22.08.429.153.635.23.845.33 1.783.33 2.628 0 .712-.26 1.396-.592 2.04-.992.6-.364 1.176-.77 1.788-1.115a7.305 7.305 0 0 1 1.966-.822 3.585 3.585 0 0 1 2.5.289.562.562 0 0 1 .337.426c.367 1.754.747 3.505 1.123 5.257l.2.925a.385.385 0 0 1 .017.215c-.052.032-.087-.007-.124-.028a3.627 3.627 0 0 0-3.007-.244 8.05 8.05 0 0 0-1.655.769c-.444.265-.88.545-1.317.822-.804.528-1.667.96-2.571 1.29a3.935 3.935 0 0 1-3.038-.261.287.287 0 0 1-.16-.238l-.72-3.381-.64-2.98a.222.222 0 0 1 0-.161l-.002-.001zm7.178.863A2.74 2.74 0 0 0 93.43 7.7c-.138.174-.231.38-.272.6a.783.783 0 0 0 .353.835c.188.12.406.183.629.184a2.66 2.66 0 0 0 2.22-1.1c.111-.15.19-.32.232-.5a.8.8 0 0 0-.448-.965 1.5 1.5 0 0 0-.644-.12z"/>
    </g>
</svg>
