<svg width="25" height="24" viewBox="0 0 25 24" fill="none" xmlns="http://www.w3.org/2000/svg">
<path d="M9.72301 11.8053C11.1189 11.8053 12.4577 11.2362 13.4447 10.2229C14.4318 9.20974 14.9864 7.83571 14.9864 6.40283C14.9864 4.96995 14.432 3.59571 13.4449 2.58258C12.4579 1.56924 11.1191 1 9.7234 1C8.32749 1 6.98873 1.56924 6.00174 2.58237C5.01455 3.59571 4.46001 4.96974 4.46001 6.40263C4.46173 7.83491 5.01666 9.20819 6.00325 10.2209C6.99005 11.2339 8.32769 11.8035 9.72301 11.8053ZM9.72301 2.31814C10.7784 2.31814 11.7904 2.7485 12.5368 3.51426C13.283 4.28024 13.7023 5.31924 13.7023 6.40243C13.7023 7.48577 13.2832 8.52461 12.537 9.29079C11.7908 10.0568 10.7786 10.4871 9.7234 10.4871C8.66802 10.4871 7.65598 10.0568 6.90958 9.29079C6.16337 8.52481 5.74413 7.48602 5.74413 6.40263C5.74547 5.31989 6.16491 4.28165 6.91095 3.51607C7.65676 2.75029 8.66821 2.3195 9.72301 2.31814ZM14.0149 15.1687C12.7097 14.425 11.2257 14.0765 9.73543 14.1634C7.41692 14.1124 5.60408 14.7499 4.33428 16.0415C2.2793 18.1307 2.28429 21.3025 2.28468 21.3346C2.28831 21.6981 2.00396 21.9959 1.64986 22H1.64222C1.29099 22.0006 1.00475 21.7111 1.00015 21.3505C0.998243 21.1991 0.980089 17.6056 3.42067 15.1148C4.94669 13.5568 7.06817 12.785 9.73464 12.8454C11.4575 12.7553 13.1703 13.1688 14.6732 14.0378C14.824 14.1251 14.934 14.2712 14.9786 14.4428C15.0229 14.6146 14.9979 14.7977 14.909 14.9501C14.8202 15.1027 14.6751 15.2119 14.5068 15.2531C14.3382 15.2943 14.1612 15.2638 14.0149 15.1687Z" fill="#2E3F55" stroke="#2E3F55" stroke-width="0.5"/>
<rect x="1" y="21.5" width="8" height="1" rx="0.5" fill="#2E3F55" stroke="#2E3F55" stroke-width="0.5"/>
<g clip-path="url(#clip0_3663_65526)">
<path fill-rule="evenodd" clip-rule="evenodd" d="M21.8054 18.8403C21.7706 18.6487 21.7941 18.451 21.8727 18.2727C21.9476 18.098 22.072 17.9489 22.2305 17.8439C22.3891 17.7389 22.5749 17.6826 22.765 17.6818H22.8182C23.1316 17.6818 23.4322 17.5573 23.6539 17.3357C23.8755 17.114 24 16.8134 24 16.5C24 16.1866 23.8755 15.886 23.6539 15.6643C23.4322 15.4427 23.1316 15.3182 22.8182 15.3182H22.7177C22.5276 15.3174 22.3418 15.2611 22.1833 15.1561C22.0247 15.0511 21.9004 14.902 21.8255 14.7273V14.68C21.7468 14.5018 21.7233 14.3041 21.7581 14.1124C21.7928 13.9207 21.8842 13.7438 22.0205 13.6045L22.0559 13.5691C22.1658 13.4593 22.253 13.329 22.3124 13.1855C22.3719 13.042 22.4025 12.8883 22.4025 12.733C22.4025 12.5776 22.3719 12.4239 22.3124 12.2804C22.253 12.1369 22.1658 12.0066 22.0559 11.8968C21.9461 11.7869 21.8158 11.6998 21.6723 11.6403C21.5289 11.5808 21.3751 11.5502 21.2198 11.5502C21.0645 11.5502 20.9107 11.5808 20.7672 11.6403C20.6237 11.6998 20.4934 11.7869 20.3836 11.8968L20.3482 11.9323C20.2089 12.0685 20.032 12.1599 19.8403 12.1946C19.6487 12.2294 19.451 12.2059 19.2727 12.1273C19.098 12.0524 18.9489 11.928 18.8439 11.7695C18.7389 11.6109 18.6826 11.4251 18.6818 11.235V11.1818C18.6818 10.8684 18.5573 10.5678 18.3357 10.3461C18.114 10.1245 17.8134 10 17.5 10C17.1866 10 16.886 10.1245 16.6643 10.3461C16.4427 10.5678 16.3182 10.8684 16.3182 11.1818V11.2823C16.3174 11.4724 16.2611 11.6582 16.1561 11.8167C16.0511 11.9753 15.902 12.0996 15.7273 12.1745H15.68C15.5018 12.2532 15.3041 12.2767 15.1124 12.2419C14.9207 12.2072 14.7438 12.1158 14.6045 11.9795L14.5691 11.9441C14.4593 11.8342 14.329 11.747 14.1855 11.6876C14.042 11.6281 13.8883 11.5975 13.733 11.5975C13.5776 11.5975 13.4239 11.6281 13.2804 11.6876C13.1369 11.747 13.0066 11.8342 12.8968 11.9441C12.7869 12.0538 12.6998 12.1842 12.6403 12.3277C12.5808 12.4711 12.5502 12.6249 12.5502 12.7802C12.5502 12.9355 12.5808 13.0893 12.6403 13.2328C12.6998 13.3763 12.7869 13.5066 12.8968 13.6164L12.9323 13.6518C13.0685 13.7911 13.1599 13.968 13.1946 14.1597C13.2294 14.3513 13.2059 14.549 13.1273 14.7273C13.0597 14.9109 12.9385 15.0699 12.7794 15.1838C12.6203 15.2976 12.4306 15.3609 12.235 15.3655H12.1818C11.8684 15.3655 11.5678 15.49 11.3461 15.7116C11.1245 15.9332 11 16.2338 11 16.5473C11 16.8607 11.1245 17.1613 11.3461 17.3829C11.5678 17.6046 11.8684 17.7291 12.1818 17.7291H12.2823C12.4724 17.7298 12.6582 17.7862 12.8167 17.8912C12.9753 17.9962 13.0996 18.1452 13.1745 18.32C13.2532 18.4982 13.2767 18.6959 13.2419 18.8876C13.2072 19.0793 13.1158 19.2562 12.9795 19.3955L12.9441 19.4309C12.8342 19.5407 12.747 19.671 12.6876 19.8145C12.6281 19.958 12.5975 20.1117 12.5975 20.267C12.5975 20.4224 12.6281 20.5761 12.6876 20.7196C12.747 20.8631 12.8342 20.9934 12.9441 21.1032C13.0538 21.2131 13.1842 21.3002 13.3277 21.3597C13.4711 21.4192 13.6249 21.4498 13.7802 21.4498C13.9355 21.4498 14.0893 21.4192 14.2328 21.3597C14.3763 21.3002 14.5066 21.2131 14.6164 21.1032L14.6518 21.0677C14.7911 20.9315 14.968 20.8401 15.1597 20.8054C15.3513 20.7706 15.549 20.7941 15.7273 20.8727C15.9109 20.9403 16.0699 21.0615 16.1838 21.2206C16.2976 21.3797 16.3609 21.5694 16.3655 21.765V21.8182C16.3655 22.1316 16.49 22.4322 16.7116 22.6539C16.9332 22.8755 17.2338 23 17.5473 23C17.8607 23 18.1613 22.8755 18.3829 22.6539C18.6046 22.4322 18.7291 22.1316 18.7291 21.8182V21.7177C18.7298 21.5276 18.7862 21.3418 18.8912 21.1833C18.9962 21.0247 19.1452 20.9004 19.32 20.8255C19.4982 20.7468 19.6959 20.7233 19.8876 20.7581C20.0793 20.7928 20.2562 20.8842 20.3955 21.0205L20.4309 21.0559C20.5407 21.1658 20.671 21.253 20.8145 21.3124C20.958 21.3719 21.1117 21.4025 21.267 21.4025C21.4224 21.4025 21.5761 21.3719 21.7196 21.3124C21.8631 21.253 21.9934 21.1658 22.1032 21.0559C22.2131 20.9461 22.3002 20.8158 22.3597 20.6723C22.4192 20.5289 22.4498 20.3751 22.4498 20.2198C22.4498 20.0645 22.4192 19.9107 22.3597 19.7672C22.3002 19.6237 22.2131 19.4934 22.1032 19.3836L22.0677 19.3482C21.9315 19.2089 21.8401 19.032 21.8054 18.8403ZM17.5031 17.8002C18.2211 17.8002 18.8031 17.2182 18.8031 16.5002C18.8031 15.7822 18.2211 15.2002 17.5031 15.2002C16.7852 15.2002 16.2031 15.7822 16.2031 16.5002C16.2031 17.2182 16.7852 17.8002 17.5031 17.8002Z" fill="#D00054"/>
<path d="M21.8727 18.2727L22.3302 18.4746L22.3323 18.4697L21.8727 18.2727ZM21.8054 18.8403L22.2973 18.7511L22.2973 18.7511L21.8054 18.8403ZM22.765 17.6818V17.1818L22.763 17.1818L22.765 17.6818ZM22.7177 15.3182L22.7157 15.8182H22.7177V15.3182ZM21.8255 14.7273H21.3255C21.3255 14.795 21.3392 14.862 21.3659 14.9242L21.8255 14.7273ZM21.8255 14.68H22.3255C22.3255 14.6105 22.311 14.5417 22.2829 14.4781L21.8255 14.68ZM21.7581 14.1124L22.2501 14.2016L22.2501 14.2016L21.7581 14.1124ZM22.0205 13.6045L21.6669 13.251L21.663 13.2549L22.0205 13.6045ZM22.0559 13.5691L21.7026 13.2153L21.7024 13.2155L22.0559 13.5691ZM22.0559 11.8968L21.7022 12.2502L21.7026 12.2506L22.0559 11.8968ZM21.6723 11.6403L21.4809 12.1022L21.4809 12.1022L21.6723 11.6403ZM20.7672 11.6403L20.5757 11.1784L20.5757 11.1784L20.7672 11.6403ZM20.3836 11.8968L20.7372 12.2504L20.7374 12.2502L20.3836 11.8968ZM20.3482 11.9323L20.6978 12.2897L20.7017 12.2858L20.3482 11.9323ZM19.8403 12.1946L19.7511 11.7027L19.7511 11.7027L19.8403 12.1946ZM19.2727 12.1273L19.4746 11.6698L19.4697 11.6677L19.2727 12.1273ZM18.8439 11.7695L19.2608 11.4934L19.2608 11.4934L18.8439 11.7695ZM18.6818 11.235L18.1818 11.235L18.1818 11.237L18.6818 11.235ZM18.3357 10.3461L17.9821 10.6997L17.9821 10.6997L18.3357 10.3461ZM16.6643 10.3461L17.0179 10.6997L17.0179 10.6997L16.6643 10.3461ZM16.3182 11.2823L16.8182 11.2843V11.2823H16.3182ZM16.1561 11.8167L15.7392 11.5407L15.7392 11.5407L16.1561 11.8167ZM15.7273 12.1745V12.6745C15.795 12.6745 15.862 12.6608 15.9242 12.6341L15.7273 12.1745ZM15.68 12.1745V11.6745C15.6105 11.6745 15.5417 11.689 15.4781 11.7171L15.68 12.1745ZM15.1124 12.2419L15.2016 11.7499L15.2016 11.7499L15.1124 12.2419ZM14.6045 11.9795L14.251 12.3331L14.2549 12.337L14.6045 11.9795ZM14.5691 11.9441L14.2153 12.2974L14.2155 12.2976L14.5691 11.9441ZM14.1855 11.6876L14.377 11.2257L14.377 11.2257L14.1855 11.6876ZM13.2804 11.6876L13.0889 11.2257L13.0889 11.2257L13.2804 11.6876ZM12.8968 11.9441L13.2502 12.2978L13.2506 12.2974L12.8968 11.9441ZM12.6403 12.3277L12.1784 12.1362L12.1784 12.1362L12.6403 12.3277ZM12.6403 13.2328L12.1784 13.4243L12.1784 13.4243L12.6403 13.2328ZM12.8968 13.6164L13.2504 13.2628L13.2502 13.2626L12.8968 13.6164ZM12.9323 13.6518L13.2897 13.3022L13.2858 13.2983L12.9323 13.6518ZM13.1946 14.1597L13.6866 14.0704L13.6866 14.0704L13.1946 14.1597ZM13.1273 14.7273L12.6698 14.5254C12.6656 14.535 12.6616 14.5448 12.658 14.5547L13.1273 14.7273ZM12.7794 15.1838L12.4885 14.7771L12.4885 14.7771L12.7794 15.1838ZM12.235 15.3655V15.8656L12.2467 15.8653L12.235 15.3655ZM11.3461 15.7116L11.6997 16.0652L11.6997 16.0652L11.3461 15.7116ZM11.3461 17.3829L11.6997 17.0294L11.6997 17.0294L11.3461 17.3829ZM12.2823 17.7291L12.2843 17.2291H12.2823V17.7291ZM12.8167 17.8912L12.5407 18.3081L12.5407 18.3081L12.8167 17.8912ZM13.1745 18.32L12.7149 18.517L12.7171 18.5219L13.1745 18.32ZM13.2419 18.8876L12.7499 18.7984L12.7499 18.7984L13.2419 18.8876ZM12.9795 19.3955L13.3331 19.749L13.337 19.7451L12.9795 19.3955ZM12.9441 19.4309L13.2974 19.7847L13.2976 19.7845L12.9441 19.4309ZM12.6876 19.8145L12.2257 19.623L12.2257 19.623L12.6876 19.8145ZM12.6876 20.7196L13.1495 20.5281L13.1495 20.5281L12.6876 20.7196ZM12.9441 21.1032L13.2978 20.7498L13.2974 20.7494L12.9441 21.1032ZM14.6164 21.1032L14.2628 20.7496L14.2626 20.7498L14.6164 21.1032ZM14.6518 21.0677L14.3022 20.7103L14.2983 20.7142L14.6518 21.0677ZM15.1597 20.8054L15.0704 20.3134L15.0704 20.3134L15.1597 20.8054ZM15.7273 20.8727L15.5254 21.3302C15.535 21.3344 15.5448 21.3384 15.5547 21.342L15.7273 20.8727ZM16.3655 21.765H16.8656L16.8653 21.7533L16.3655 21.765ZM18.7291 21.7177L18.2291 21.7157V21.7177H18.7291ZM19.32 20.8255L19.517 21.2851L19.5219 21.2829L19.32 20.8255ZM19.8876 20.7581L19.7984 21.2501L19.7984 21.2501L19.8876 20.7581ZM20.3955 21.0205L20.749 20.6669L20.7451 20.663L20.3955 21.0205ZM20.4309 21.0559L20.7847 20.7026L20.7845 20.7024L20.4309 21.0559ZM20.8145 21.3124L20.623 21.7743L20.623 21.7743L20.8145 21.3124ZM21.7196 21.3124L21.5281 20.8505L21.5281 20.8505L21.7196 21.3124ZM22.1032 21.0559L21.7498 20.7022L21.7494 20.7026L22.1032 21.0559ZM22.3597 20.6723L21.8978 20.4809L21.8978 20.4809L22.3597 20.6723ZM22.3597 19.7672L22.8216 19.5757L22.8216 19.5757L22.3597 19.7672ZM22.1032 19.3836L21.7496 19.7372L21.7498 19.7374L22.1032 19.3836ZM22.0677 19.3482L21.7103 19.6978L21.7142 19.7017L22.0677 19.3482ZM21.4153 18.0708C21.2963 18.3405 21.2608 18.6396 21.3134 18.9296L22.2973 18.7511C22.2804 18.6578 22.2918 18.5614 22.3302 18.4746L21.4153 18.0708ZM21.9545 17.427C21.7146 17.5859 21.5265 17.8114 21.4132 18.0758L22.3323 18.4697C22.3688 18.3845 22.4294 18.3119 22.5066 18.2608L21.9545 17.427ZM22.763 17.1818C22.4753 17.183 22.1943 17.2682 21.9545 17.427L22.5066 18.2608C22.5839 18.2096 22.6744 18.1822 22.767 18.1818L22.763 17.1818ZM22.8182 17.1818H22.765V18.1818H22.8182V17.1818ZM23.3003 16.9821C23.1724 17.11 22.999 17.1818 22.8182 17.1818V18.1818C23.2642 18.1818 23.692 18.0046 24.0074 17.6892L23.3003 16.9821ZM23.5 16.5C23.5 16.6808 23.4282 16.8543 23.3003 16.9821L24.0074 17.6892C24.3228 17.3738 24.5 16.946 24.5 16.5H23.5ZM23.3003 16.0179C23.4282 16.1457 23.5 16.3192 23.5 16.5H24.5C24.5 16.054 24.3228 15.6262 24.0074 15.3108L23.3003 16.0179ZM22.8182 15.8182C22.999 15.8182 23.1724 15.89 23.3003 16.0179L24.0074 15.3108C23.692 14.9954 23.2642 14.8182 22.8182 14.8182V15.8182ZM22.7177 15.8182H22.8182V14.8182H22.7177V15.8182ZM21.9072 15.573C22.147 15.7318 22.4281 15.817 22.7157 15.8182L22.7197 14.8182C22.6271 14.8178 22.5366 14.7904 22.4593 14.7392L21.9072 15.573ZM21.3659 14.9242C21.4792 15.1886 21.6674 15.4141 21.9072 15.573L22.4593 14.7392C22.3821 14.6881 22.3215 14.6155 22.285 14.5303L21.3659 14.9242ZM21.3255 14.68V14.7273H22.3255V14.68H21.3255ZM21.2661 14.0232C21.2135 14.3132 21.249 14.6123 21.368 14.8819L22.2829 14.4781C22.2446 14.3913 22.2331 14.295 22.2501 14.2016L21.2661 14.0232ZM21.663 13.2549C21.4569 13.4656 21.3187 13.7332 21.2661 14.0232L22.2501 14.2016C22.267 14.1082 22.3115 14.022 22.3779 13.9542L21.663 13.2549ZM21.7024 13.2155L21.6669 13.251L22.374 13.9581L22.4095 13.9226L21.7024 13.2155ZM21.8505 12.9941C21.8162 13.0768 21.7659 13.152 21.7026 13.2153L22.4093 13.9228C22.5656 13.7666 22.6897 13.5812 22.7743 13.377L21.8505 12.9941ZM21.9025 12.733C21.9025 12.8226 21.8849 12.9113 21.8505 12.9941L22.7743 13.377C22.859 13.1728 22.9025 12.954 22.9025 12.733H21.9025ZM21.8505 12.4719C21.8849 12.5546 21.9025 12.6434 21.9025 12.733H22.9025C22.9025 12.5119 22.859 12.2931 22.7743 12.0889L21.8505 12.4719ZM21.7026 12.2506C21.7659 12.3139 21.8162 12.3891 21.8505 12.4719L22.7743 12.0889C22.6897 11.8847 22.5656 11.6993 22.4093 11.5431L21.7026 12.2506ZM21.4809 12.1022C21.5636 12.1365 21.6388 12.1868 21.7022 12.2502L22.4097 11.5435C22.2535 11.3871 22.068 11.263 21.8638 11.1784L21.4809 12.1022ZM21.2198 12.0502C21.3094 12.0502 21.3981 12.0679 21.4809 12.1022L21.8638 11.1784C21.6596 11.0938 21.4408 11.0502 21.2198 11.0502V12.0502ZM20.9587 12.1022C21.0414 12.0679 21.1302 12.0502 21.2198 12.0502V11.0502C20.9988 11.0502 20.7799 11.0938 20.5757 11.1784L20.9587 12.1022ZM20.7374 12.2502C20.8007 12.1868 20.8759 12.1365 20.9587 12.1022L20.5757 11.1784C20.3716 11.263 20.1861 11.3871 20.0299 11.5435L20.7374 12.2502ZM20.7017 12.2858L20.7372 12.2504L20.0301 11.5433L19.9946 11.5787L20.7017 12.2858ZM19.9296 12.6866C20.2195 12.634 20.4871 12.4958 20.6978 12.2897L19.9985 11.5748C19.9307 11.6412 19.8445 11.6857 19.7511 11.7027L19.9296 12.6866ZM19.0708 12.5847C19.3405 12.7037 19.6396 12.7392 19.9296 12.6866L19.7511 11.7027C19.6578 11.7196 19.5614 11.7082 19.4746 11.6698L19.0708 12.5847ZM18.427 12.0455C18.5859 12.2854 18.8114 12.4735 19.0758 12.5868L19.4697 11.6677C19.3845 11.6312 19.3119 11.5706 19.2608 11.4934L18.427 12.0455ZM18.1818 11.237C18.183 11.5247 18.2682 11.8057 18.427 12.0455L19.2608 11.4934C19.2096 11.4161 19.1822 11.3256 19.1818 11.233L18.1818 11.237ZM18.1818 11.1818V11.235H19.1818V11.1818H18.1818ZM17.9821 10.6997C18.11 10.8276 18.1818 11.001 18.1818 11.1818H19.1818C19.1818 10.7358 19.0046 10.308 18.6892 9.99259L17.9821 10.6997ZM17.5 10.5C17.6808 10.5 17.8543 10.5718 17.9821 10.6997L18.6892 9.99259C18.3738 9.67719 17.946 9.5 17.5 9.5V10.5ZM17.0179 10.6997C17.1457 10.5718 17.3192 10.5 17.5 10.5V9.5C17.054 9.5 16.6262 9.67719 16.3108 9.99259L17.0179 10.6997ZM16.8182 11.1818C16.8182 11.001 16.89 10.8276 17.0179 10.6997L16.3108 9.99259C15.9954 10.308 15.8182 10.7358 15.8182 11.1818H16.8182ZM16.8182 11.2823V11.1818H15.8182V11.2823H16.8182ZM16.573 12.0928C16.7318 11.853 16.817 11.5719 16.8182 11.2843L15.8182 11.2803C15.8178 11.3729 15.7904 11.4634 15.7392 11.5407L16.573 12.0928ZM15.9242 12.6341C16.1886 12.5208 16.4141 12.3326 16.573 12.0928L15.7392 11.5407C15.6881 11.6179 15.6155 11.6785 15.5303 11.715L15.9242 12.6341ZM15.68 12.6745H15.7273V11.6745H15.68V12.6745ZM15.0232 12.7339C15.3132 12.7865 15.6123 12.751 15.8819 12.632L15.4781 11.7171C15.3913 11.7554 15.295 11.7669 15.2016 11.7499L15.0232 12.7339ZM14.2549 12.337C14.4656 12.5431 14.7332 12.6813 15.0232 12.7339L15.2016 11.7499C15.1082 11.733 15.022 11.6885 14.9542 11.6221L14.2549 12.337ZM14.2155 12.2976L14.251 12.3331L14.9581 11.626L14.9226 11.5905L14.2155 12.2976ZM13.9941 12.1495C14.0768 12.1838 14.152 12.2341 14.2153 12.2974L14.9228 11.5907C14.7666 11.4344 14.5812 11.3103 14.377 11.2257L13.9941 12.1495ZM13.733 12.0975C13.8226 12.0975 13.9113 12.1151 13.9941 12.1495L14.377 11.2257C14.1728 11.141 13.954 11.0975 13.733 11.0975V12.0975ZM13.4719 12.1495C13.5546 12.1151 13.6434 12.0975 13.733 12.0975V11.0975C13.5119 11.0975 13.2931 11.141 13.0889 11.2257L13.4719 12.1495ZM13.2506 12.2974C13.3139 12.2341 13.3891 12.1838 13.4719 12.1495L13.0889 11.2257C12.8847 11.3103 12.6993 11.4344 12.5431 11.5907L13.2506 12.2974ZM13.1022 12.5191C13.1365 12.4364 13.1868 12.3612 13.2502 12.2978L12.5435 11.5903C12.3871 11.7465 12.263 11.932 12.1784 12.1362L13.1022 12.5191ZM13.0502 12.7802C13.0502 12.6906 13.0679 12.6019 13.1022 12.5191L12.1784 12.1362C12.0938 12.3404 12.0502 12.5592 12.0502 12.7802H13.0502ZM13.1022 13.0413C13.0679 12.9586 13.0502 12.8698 13.0502 12.7802H12.0502C12.0502 13.0012 12.0938 13.2201 12.1784 13.4243L13.1022 13.0413ZM13.2502 13.2626C13.1868 13.1993 13.1365 13.1241 13.1022 13.0413L12.1784 13.4243C12.263 13.6284 12.3871 13.8139 12.5435 13.9701L13.2502 13.2626ZM13.2858 13.2983L13.2504 13.2628L12.5433 13.9699L12.5787 14.0054L13.2858 13.2983ZM13.6866 14.0704C13.634 13.7805 13.4958 13.5129 13.2897 13.3022L12.5748 14.0015C12.6412 14.0693 12.6857 14.1555 12.7027 14.2489L13.6866 14.0704ZM13.5847 14.9292C13.7037 14.6595 13.7392 14.3604 13.6866 14.0704L12.7027 14.2489C12.7196 14.3422 12.7082 14.4386 12.6698 14.5254L13.5847 14.9292ZM13.0703 15.5904C13.311 15.4183 13.4944 15.1776 13.5965 14.8999L12.658 14.5547C12.6251 14.6441 12.5661 14.7216 12.4885 14.7771L13.0703 15.5904ZM12.2467 15.8653C12.5426 15.8584 12.8295 15.7626 13.0703 15.5904L12.4885 14.7771C12.411 14.8325 12.3186 14.8634 12.2233 14.8656L12.2467 15.8653ZM12.1818 15.8655H12.235V14.8655H12.1818V15.8655ZM11.6997 16.0652C11.8276 15.9373 12.001 15.8655 12.1818 15.8655V14.8655C11.7358 14.8655 11.308 15.0426 10.9926 15.358L11.6997 16.0652ZM11.5 16.5473C11.5 16.3664 11.5718 16.193 11.6997 16.0652L10.9926 15.358C10.6772 15.6735 10.5 16.1012 10.5 16.5473H11.5ZM11.6997 17.0294C11.5718 16.9015 11.5 16.7281 11.5 16.5473H10.5C10.5 16.9933 10.6772 17.4211 10.9926 17.7365L11.6997 17.0294ZM12.1818 17.2291C12.001 17.2291 11.8276 17.1573 11.6997 17.0294L10.9926 17.7365C11.308 18.0519 11.7358 18.2291 12.1818 18.2291V17.2291ZM12.2823 17.2291H12.1818V18.2291H12.2823V17.2291ZM13.0928 17.4743C12.853 17.3155 12.5719 17.2302 12.2843 17.2291L12.2803 18.2291C12.3729 18.2295 12.4634 18.2569 12.5407 18.3081L13.0928 17.4743ZM13.6341 18.123C13.5208 17.8586 13.3326 17.6331 13.0928 17.4743L12.5407 18.3081C12.6179 18.3592 12.6785 18.4318 12.715 18.517L13.6341 18.123ZM13.7339 18.9768C13.7865 18.6868 13.751 18.3877 13.632 18.1181L12.7171 18.5219C12.7554 18.6087 12.7669 18.705 12.7499 18.7984L13.7339 18.9768ZM13.337 19.7451C13.5431 19.5344 13.6813 19.2668 13.7339 18.9768L12.7499 18.7984C12.733 18.8918 12.6885 18.978 12.6221 19.0458L13.337 19.7451ZM13.2976 19.7845L13.3331 19.749L12.626 19.0419L12.5905 19.0774L13.2976 19.7845ZM13.1495 20.006C13.1838 19.9232 13.2341 19.848 13.2974 19.7847L12.5907 19.0772C12.4344 19.2334 12.3103 19.4188 12.2257 19.623L13.1495 20.006ZM13.0975 20.267C13.0975 20.1774 13.1151 20.0887 13.1495 20.0059L12.2257 19.623C12.141 19.8272 12.0975 20.046 12.0975 20.267H13.0975ZM13.1495 20.5281C13.1151 20.4454 13.0975 20.3566 13.0975 20.267H12.0975C12.0975 20.4881 12.141 20.7069 12.2257 20.9111L13.1495 20.5281ZM13.2974 20.7494C13.2341 20.6861 13.1838 20.6109 13.1495 20.5281L12.2257 20.9111C12.3103 21.1153 12.4344 21.3007 12.5907 21.4569L13.2974 20.7494ZM13.5191 20.8978C13.4364 20.8635 13.3612 20.8132 13.2978 20.7498L12.5903 21.4565C12.7465 21.6129 12.932 21.737 13.1362 21.8216L13.5191 20.8978ZM13.7802 20.9498C13.6906 20.9498 13.6019 20.9321 13.5191 20.8978L13.1362 21.8216C13.3404 21.9062 13.5592 21.9498 13.7802 21.9498V20.9498ZM14.0413 20.8978C13.9586 20.9321 13.8698 20.9498 13.7802 20.9498V21.9498C14.0012 21.9498 14.2201 21.9062 14.4243 21.8216L14.0413 20.8978ZM14.2626 20.7498C14.1993 20.8132 14.1241 20.8635 14.0413 20.8978L14.4243 21.8216C14.6284 21.737 14.8139 21.6129 14.9701 21.4565L14.2626 20.7498ZM14.2983 20.7142L14.2628 20.7496L14.9699 21.4567L15.0054 21.4213L14.2983 20.7142ZM15.0704 20.3134C14.7805 20.366 14.5129 20.5042 14.3022 20.7103L15.0015 21.4252C15.0693 21.3588 15.1555 21.3143 15.2489 21.2973L15.0704 20.3134ZM15.9292 20.4153C15.6595 20.2963 15.3604 20.2608 15.0704 20.3134L15.2489 21.2973C15.3422 21.2804 15.4386 21.2918 15.5254 21.3302L15.9292 20.4153ZM16.5904 20.9297C16.4183 20.689 16.1776 20.5056 15.8999 20.4035L15.5547 21.342C15.6441 21.3749 15.7216 21.4339 15.7771 21.5115L16.5904 20.9297ZM16.8653 21.7533C16.8584 21.4574 16.7626 21.1705 16.5904 20.9297L15.7771 21.5115C15.8325 21.589 15.8634 21.6814 15.8656 21.7767L16.8653 21.7533ZM16.8655 21.8182V21.765H15.8655V21.8182H16.8655ZM17.0652 22.3003C16.9373 22.1724 16.8655 21.999 16.8655 21.8182H15.8655C15.8655 22.2642 16.0426 22.692 16.358 23.0074L17.0652 22.3003ZM17.5473 22.5C17.3664 22.5 17.193 22.4282 17.0652 22.3003L16.358 23.0074C16.6735 23.3228 17.1012 23.5 17.5473 23.5V22.5ZM18.0294 22.3003C17.9015 22.4282 17.7281 22.5 17.5473 22.5V23.5C17.9933 23.5 18.4211 23.3228 18.7365 23.0074L18.0294 22.3003ZM18.2291 21.8182C18.2291 21.999 18.1573 22.1724 18.0294 22.3003L18.7365 23.0074C19.0519 22.692 19.2291 22.2642 19.2291 21.8182H18.2291ZM18.2291 21.7177V21.8182H19.2291V21.7177H18.2291ZM18.4743 20.9072C18.3155 21.147 18.2302 21.4281 18.2291 21.7157L19.2291 21.7197C19.2295 21.6271 19.2569 21.5366 19.3081 21.4593L18.4743 20.9072ZM19.123 20.3659C18.8586 20.4792 18.6331 20.6674 18.4743 20.9072L19.3081 21.4593C19.3592 21.3821 19.4318 21.3215 19.517 21.285L19.123 20.3659ZM19.9768 20.2661C19.6868 20.2135 19.3877 20.249 19.1181 20.368L19.5219 21.2829C19.6087 21.2446 19.705 21.2331 19.7984 21.2501L19.9768 20.2661ZM20.7451 20.663C20.5344 20.4569 20.2668 20.3187 19.9768 20.2661L19.7984 21.2501C19.8918 21.267 19.978 21.3115 20.0458 21.3779L20.7451 20.663ZM20.7845 20.7024L20.749 20.6669L20.0419 21.374L20.0774 21.4095L20.7845 20.7024ZM21.006 20.8505C20.9232 20.8162 20.848 20.7659 20.7847 20.7026L20.0772 21.4093C20.2334 21.5656 20.4188 21.6897 20.623 21.7743L21.006 20.8505ZM21.267 20.9025C21.1774 20.9025 21.0887 20.8849 21.0059 20.8505L20.623 21.7743C20.8272 21.859 21.046 21.9025 21.267 21.9025V20.9025ZM21.5281 20.8505C21.4454 20.8849 21.3566 20.9025 21.267 20.9025V21.9025C21.4881 21.9025 21.7069 21.859 21.9111 21.7743L21.5281 20.8505ZM21.7494 20.7026C21.6861 20.7659 21.6109 20.8162 21.5281 20.8505L21.9111 21.7743C22.1153 21.6897 22.3007 21.5656 22.4569 21.4093L21.7494 20.7026ZM21.8978 20.4809C21.8635 20.5636 21.8132 20.6388 21.7498 20.7022L22.4565 21.4097C22.6129 21.2535 22.737 21.068 22.8216 20.8638L21.8978 20.4809ZM21.9498 20.2198C21.9498 20.3094 21.9321 20.3981 21.8978 20.4809L22.8216 20.8638C22.9062 20.6596 22.9498 20.4408 22.9498 20.2198H21.9498ZM21.8978 19.9587C21.9321 20.0415 21.9498 20.1302 21.9498 20.2198H22.9498C22.9498 19.9988 22.9062 19.7799 22.8216 19.5757L21.8978 19.9587ZM21.7498 19.7374C21.8132 19.8007 21.8635 19.8759 21.8978 19.9587L22.8216 19.5757C22.737 19.3716 22.6129 19.1861 22.4565 19.0299L21.7498 19.7374ZM21.7142 19.7017L21.7496 19.7372L22.4567 19.0301L22.4213 18.9946L21.7142 19.7017ZM21.3134 18.9296C21.366 19.2195 21.5042 19.4871 21.7103 19.6978L22.4252 18.9985C22.3588 18.9307 22.3143 18.8445 22.2973 18.7511L21.3134 18.9296ZM18.3031 16.5002C18.3031 16.942 17.945 17.3002 17.5031 17.3002V18.3002C18.4972 18.3002 19.3031 17.4943 19.3031 16.5002H18.3031ZM17.5031 15.7002C17.945 15.7002 18.3031 16.0584 18.3031 16.5002H19.3031C19.3031 15.5061 18.4972 14.7002 17.5031 14.7002V15.7002ZM16.7031 16.5002C16.7031 16.0584 17.0613 15.7002 17.5031 15.7002V14.7002C16.509 14.7002 15.7031 15.5061 15.7031 16.5002H16.7031ZM17.5031 17.3002C17.0613 17.3002 16.7031 16.942 16.7031 16.5002H15.7031C15.7031 17.4943 16.509 18.3002 17.5031 18.3002V17.3002Z" fill="#2E3F55"/>
</g>
<defs>
<clipPath id="clip0_3663_65526">
<rect width="15" height="15" fill="white" transform="translate(10 9)"/>
</clipPath>
</defs>
</svg>
