<svg width="24" height="24" viewBox="0 0 24 24" fill="none" xmlns="http://www.w3.org/2000/svg">
<path fill-rule="evenodd" clip-rule="evenodd" d="M8.91624 2.42946C8.96882 2.54987 8.99717 2.67947 8.99964 2.81084C9.00212 2.94221 8.97868 3.07279 8.93067 3.1951C8.88265 3.31741 8.811 3.42906 8.71982 3.52366C8.62863 3.61827 8.5197 3.69397 8.39924 3.74646C7.05188 4.33456 5.8691 5.24376 4.95431 6.39458C4.03951 7.54539 3.42055 8.90278 3.15154 10.3481C2.88253 11.7934 2.97166 13.2825 3.41114 14.6854C3.85062 16.0883 4.62707 17.3622 5.6726 18.3957C6.71813 19.4292 8.00092 20.1908 9.4088 20.614C10.8167 21.0372 12.3068 21.109 13.7489 20.8233C15.191 20.5376 16.5411 19.9029 17.6812 18.9748C18.8214 18.0468 19.7168 16.8535 20.2892 15.4995C20.3376 15.3745 20.4105 15.2606 20.5037 15.1644C20.5969 15.0682 20.7085 14.9917 20.8318 14.9395C20.9552 14.8872 21.0877 14.8603 21.2217 14.8603C21.3556 14.8603 21.4882 14.8871 21.6116 14.9393C21.7349 14.9915 21.8465 15.068 21.9398 15.1641C22.033 15.2603 22.106 15.3742 22.1544 15.4991C22.2027 15.624 22.2255 15.7573 22.2214 15.8912C22.2172 16.0251 22.1862 16.1568 22.1302 16.2785C21.4307 17.9337 20.3362 19.3923 18.9427 20.5267C17.5491 21.6612 15.8988 22.437 14.1361 22.7863C12.3734 23.1356 10.552 23.0477 8.83111 22.5303C7.11023 22.013 5.5423 21.0819 4.26442 19.8185C2.98653 18.5552 2.03762 16.998 1.50065 15.2831C0.963676 13.5682 0.855 11.7479 1.18412 9.98138C1.51324 8.21481 2.27014 6.55577 3.38863 5.14933C4.50712 3.74289 5.95313 2.63189 7.60024 1.91346C7.84319 1.8075 8.11827 1.80233 8.36503 1.89909C8.61179 1.99584 8.81005 2.1866 8.91624 2.42946V2.42946Z" fill="#2E3F55"/>
<path d="M12.0625 2.28125V11.7362H22.0425L21.6335 8.64325L20.8745 6.89325L18.4235 4.44125L16.5555 2.80625L14.0455 2.28125H12.0625V2.28125Z" fill="#D00054" stroke="#2E3F55"/>
<path fill-rule="evenodd" clip-rule="evenodd" d="M11.293 1.293C11.4805 1.10545 11.7348 1.00006 12 1C14.9174 1 17.7153 2.15893 19.7782 4.22183C21.8411 6.28473 23 9.08262 23 12C23 12.2652 22.8946 12.5196 22.7071 12.7071C22.5196 12.8946 22.2652 13 22 13H12C11.7348 13 11.4804 12.8946 11.2929 12.7071C11.1054 12.5196 11 12.2652 11 12V2C11.0001 1.73481 11.1055 1.48049 11.293 1.293V1.293ZM13 3.056V11H20.944C20.7171 8.9712 19.8072 7.07981 18.3637 5.63628C16.9202 4.19276 15.0288 3.28288 13 3.056V3.056Z" fill="#2E3F55"/>
</svg>
