<svg xmlns="http://www.w3.org/2000/svg" width="16" height="16" fill="none" viewBox="0 0 16 16">
    <path fill="#2E3F55" fill-rule="evenodd" stroke="#2E3F55" stroke-width=".3" d="M2.576 2.293c-.053 0-.104.017-.148.046-.043.03-.077.072-.096.12-.02.05-.024.103-.013.155.01.051.037.098.075.135l5.38 5.381-5.38 5.381c-.03.024-.053.053-.07.086-.017.033-.027.07-.029.107-.002.037.004.074.018.108.013.035.033.067.06.093.026.026.057.047.092.06.035.013.072.02.11.017.036-.002.073-.011.106-.028s.062-.041.085-.07l5.382-5.381 5.38 5.381c.024.029.053.053.086.07.034.016.07.026.107.028.037.002.074-.004.11-.017.034-.013.065-.034.092-.06.026-.026.046-.058.06-.093.013-.034.019-.071.017-.108-.002-.038-.012-.074-.029-.107s-.04-.062-.07-.086L8.522 8.13l5.38-5.381c.04-.037.065-.085.076-.137.01-.053.006-.107-.015-.156-.02-.05-.056-.091-.1-.12-.045-.03-.098-.044-.15-.043-.07.003-.136.033-.183.083L8.148 7.757 2.766 2.376c-.024-.026-.054-.047-.086-.061-.033-.014-.069-.022-.104-.022z" clip-rule="evenodd"/>
</svg>
