<svg width="24" height="24" viewBox="0 0 24 24" fill="none" xmlns="http://www.w3.org/2000/svg">
    <path d="M1.953 11.774 2.43 9.57c4.986 9.234 14.048 9.096 17.956 7.872l-1.34 1.16-2.722 2.188-3.347 1.07H9.45l-3.257-1.785-1.473-1.16-1.384-2.231-1.383-2.277v-2.633z" fill="#B7C3D1"/>
    <path fill-rule="evenodd" clip-rule="evenodd" d="M15.765 3.545a9.25 9.25 0 1 0 5.485 8.454v-.92a.75.75 0 0 1 1.5 0V12a10.751 10.751 0 0 1-19.768 5.846 10.75 10.75 0 0 1 13.393-15.67.75.75 0 0 1-.61 1.37z" fill="#8296AF"/>
    <path fill-rule="evenodd" clip-rule="evenodd" d="M22.6 3.399a.85.85 0 0 1 0 1.202l-10 10.01a.85.85 0 0 1-1.203 0l-3-3A.85.85 0 0 1 9.6 10.41l2.4 2.399L21.396 3.4a.85.85 0 0 1 1.202-.001z" fill="#8296AF"/>
</svg>
