<svg width="24" height="24" viewBox="0 0 24 24" fill="none" xmlns="http://www.w3.org/2000/svg">
<path d="M14.0525 8.99981L5.31047 6.37981L4.85547 6.23081L5.59547 4.54581L6.54047 3.88281H15.8085L17.4155 4.03581L18.6665 5.20981L21.5135 11.8298V17.8928L14.0525 9.00081V8.99981Z" fill="#D00054"/>
<path fill-rule="evenodd" clip-rule="evenodd" d="M1.35156 11.9996C1.35156 11.8272 1.42004 11.6619 1.54194 11.54C1.66384 11.4181 1.82917 11.3496 2.00156 11.3496H22.0016C22.174 11.3496 22.3393 11.4181 22.4612 11.54C22.5831 11.6619 22.6516 11.8272 22.6516 11.9996C22.6516 12.172 22.5831 12.3373 22.4612 12.4592C22.3393 12.5811 22.174 12.6496 22.0016 12.6496H2.00156C1.82917 12.6496 1.66384 12.5811 1.54194 12.4592C1.42004 12.3373 1.35156 12.172 1.35156 11.9996V11.9996Z" fill="#2E3F55"/>
<path fill-rule="evenodd" clip-rule="evenodd" d="M7.24 3.25H16.76C17.2717 3.25022 17.7732 3.39316 18.2081 3.66273C18.643 3.93231 18.9941 4.31784 19.222 4.776L22.671 11.664C22.7231 11.7683 22.7501 11.8834 22.75 12V18C22.75 18.7293 22.4603 19.4288 21.9445 19.9445C21.4288 20.4603 20.7293 20.75 20 20.75H4C3.27065 20.75 2.57118 20.4603 2.05546 19.9445C1.53973 19.4288 1.25 18.7293 1.25 18V12C1.25016 11.8833 1.27756 11.7683 1.33 11.664L4.778 4.776C5.00576 4.31777 5.35686 3.93217 5.7918 3.66258C6.22675 3.39299 6.72828 3.25011 7.24 3.25V3.25ZM5.45 5.11L6.12 5.446L2.75 12.177V18C2.75 18.3315 2.8817 18.6495 3.11612 18.8839C3.35054 19.1183 3.66848 19.25 4 19.25H20C20.3315 19.25 20.6495 19.1183 20.8839 18.8839C21.1183 18.6495 21.25 18.3315 21.25 18V12.177L17.88 5.446L17.878 5.444C17.7746 5.23581 17.6152 5.06057 17.4177 4.93798C17.2202 4.81538 16.9925 4.75029 16.76 4.75L5.45 5.11ZM5.45 5.11L6.122 5.444C6.22539 5.23581 6.38479 5.06057 6.58229 4.93798C6.77978 4.81538 7.00755 4.75029 7.24 4.75L5.45 5.11ZM7.24 4.75H16.76H7.24V4.75Z" fill="#2E3F55"/>
<path fill-rule="evenodd" clip-rule="evenodd" d="M4.85156 15.9996C4.85156 15.3636 5.36556 14.8496 6.00156 14.8496H6.01156C6.31656 14.8496 6.60907 14.9708 6.82474 15.1864C7.0404 15.4021 7.16156 15.6946 7.16156 15.9996C7.16156 16.3046 7.0404 16.5971 6.82474 16.8128C6.60907 17.0284 6.31656 17.1496 6.01156 17.1496H6.00156C5.69656 17.1496 5.40406 17.0284 5.18839 16.8128C4.97272 16.5971 4.85156 16.3046 4.85156 15.9996V15.9996ZM8.85156 15.9996C8.85156 15.3636 9.36556 14.8496 10.0016 14.8496H10.0116C10.3166 14.8496 10.6091 14.9708 10.8247 15.1864C11.0404 15.4021 11.1616 15.6946 11.1616 15.9996C11.1616 16.3046 11.0404 16.5971 10.8247 16.8128C10.6091 17.0284 10.3166 17.1496 10.0116 17.1496H10.0016C9.69656 17.1496 9.40406 17.0284 9.18839 16.8128C8.97272 16.5971 8.85156 16.3046 8.85156 15.9996V15.9996Z" fill="#2E3F55"/>
</svg>
