<svg width="44" height="44" viewBox="0 0 44 44" fill="none" xmlns="http://www.w3.org/2000/svg">
<path d="M26.738 20.6247V30.7077M4.125 10.9997H38.5H4.125ZM13.901 10.9987V8.24772C13.901 7.35572 14.255 6.50172 14.886 5.87072C15.516 5.24072 16.371 4.88672 17.262 4.88672H25.972C26.863 4.88672 27.718 5.24072 28.349 5.87072C28.979 6.50072 29.333 7.35572 29.333 8.24772V10.9987H13.901V10.9987ZM34.375 10.9987V35.7487C34.375 36.6407 34.021 37.4957 33.39 38.1257C32.76 38.7557 31.905 39.1107 31.014 39.1107H12.22C11.328 39.1107 10.473 38.7567 9.843 38.1257C9.213 37.4957 8.858 36.6407 8.858 35.7497V10.9987H34.374H34.375ZM17.262 20.6247V30.7077V20.6247Z" stroke="#D00054" stroke-linecap="round" stroke-linejoin="round"/>
</svg>
