<svg width="24" height="24" viewBox="0 0 24 24" fill="none" xmlns="http://www.w3.org/2000/svg">
<path d="M10.6595 19.4794H2.37977C2.12575 19.4794 1.91978 19.2735 1.91978 19.0194V6.59984H20.7792C20.9012 6.59984 21.0182 6.6483 21.1045 6.73455C21.1907 6.8208 21.2392 6.93785 21.2392 7.05983V10.0865C21.2392 10.3405 21.4451 10.5465 21.6992 10.5465C21.9532 10.5465 22.1591 10.3405 22.1591 10.0865V7.05983C22.1591 6.69389 22.0137 6.34272 21.755 6.08403C21.4963 5.82533 21.1451 5.6799 20.7792 5.6799H11.865L10.4023 2.76349C10.2887 2.5337 10.1129 2.34046 9.89504 2.20535C9.67716 2.07044 9.42581 1.99938 9.16931 2H2.37993C2.014 2 1.66283 2.14539 1.40413 2.40413C1.14543 2.66288 1 3.01405 1 3.37993V19.0194C1 19.3854 1.14539 19.7365 1.40413 19.9952C1.66287 20.2539 2.01404 20.3994 2.37993 20.3994H10.6597C10.9137 20.3994 11.1197 20.1934 11.1197 19.9394C11.1197 19.6854 10.9137 19.4794 10.6597 19.4794L10.6595 19.4794ZM1.91978 3.37994C1.91978 3.12593 2.12575 2.91996 2.37977 2.91996H9.16915C9.34452 2.92181 9.50408 3.0212 9.58314 3.17747L10.8343 5.67989H1.9201L1.91978 3.37994Z" fill="#8296AF"/>
<path fill-rule="evenodd" clip-rule="evenodd" d="M9.1721 1.7002C9.48438 1.69952 9.79057 1.78606 10.0561 1.95049C10.3212 2.11488 10.5355 2.35015 10.6739 2.62998C10.6741 2.63024 10.6738 2.62971 10.6739 2.62998L12.0532 5.38009H20.7823C21.2278 5.38009 21.6552 5.55712 21.9702 5.87207C22.2853 6.18707 22.4623 6.61457 22.4623 7.06002V10.0867C22.4623 10.5064 22.122 10.8467 21.7023 10.8467C21.2826 10.8467 20.9423 10.5064 20.9423 10.0867V7.06002C20.9423 7.01757 20.9254 6.97684 20.8954 6.94688C20.8655 6.91692 20.8248 6.90004 20.7823 6.90004H2.22291V19.0196C2.22291 19.108 2.29456 19.1796 2.38289 19.1796H10.6292L10.6628 19.1796C11.0825 19.1796 11.4228 19.5199 11.4228 19.9396C11.4228 20.3593 11.0825 20.6996 10.6628 20.6996H2.38305C1.93762 20.6996 1.51015 20.5225 1.19514 20.2076C0.880086 19.8926 0.703125 19.4651 0.703125 19.0196V3.38013C0.703125 2.93469 0.880156 2.50722 1.1951 2.19222C1.5101 1.87716 1.9376 1.7002 2.38305 1.7002H9.1721ZM9.74022 2.46061C9.57012 2.35527 9.37375 2.29971 9.17316 2.3002L2.38305 2.3002C2.09664 2.3002 1.8218 2.41401 1.61941 2.61644C1.41696 2.81892 1.30313 3.0938 1.30313 3.38013V19.0196C1.30313 19.306 1.41694 19.5809 1.61937 19.7833C1.82185 19.9857 2.09672 20.0996 2.38305 20.0996H10.6628C10.7511 20.0996 10.8228 20.0279 10.8228 19.9396C10.8228 19.8524 10.753 19.7815 10.6662 19.7796H2.38289C1.96319 19.7796 1.62291 19.4393 1.62291 19.0196V6.30004H20.7823C20.9838 6.30004 21.1772 6.38008 21.3197 6.52262C21.4622 6.66515 21.5423 6.85852 21.5423 7.06002V10.0867C21.5423 10.175 21.6139 10.2467 21.7023 10.2467C21.7906 10.2467 21.8623 10.175 21.8623 10.0867V7.06002C21.8623 6.77361 21.7484 6.49877 21.546 6.29637C21.3435 6.09393 21.0687 5.98009 20.7823 5.98009H11.6829L10.1372 2.89818L10.1364 2.8966C10.0478 2.71725 9.91055 2.56627 9.74022 2.46061ZM2.38289 3.22015C2.29456 3.22015 2.22291 3.29181 2.22291 3.38014L2.22318 5.38009H10.3521L9.31857 3.31309C9.31849 3.31293 9.31865 3.31325 9.31857 3.31309C9.29013 3.25732 9.23297 3.22125 9.1703 3.22015H2.38289ZM1.62291 3.38014C1.62291 2.96044 1.96319 2.62015 2.38289 2.62015H9.17544C9.46285 2.62318 9.72437 2.7861 9.85395 3.04223L9.85459 3.0435L11.3229 5.98009H1.62326L1.62291 3.38014Z" fill="#8296AF"/>
<path d="M4.36719 11.4883C3.95297 11.4883 3.61719 11.1525 3.61719 10.7383V10.7383C3.61719 10.3241 3.95297 9.98828 4.36719 9.98828L9.99369 9.98828C10.4742 9.98828 10.8638 10.3241 10.8638 10.7383Lnan nanLnan nanL10.8638 10.7383C10.8638 11.1525 10.4742 11.4883 9.99369 11.4883L4.36719 11.4883Z" fill="#8296AF"/>
<path d="M4.36719 14.4883C3.95297 14.4883 3.61719 14.1525 3.61719 13.7383V13.7383C3.61719 13.3241 3.95297 12.9883 4.36719 12.9883L7.35389 12.9883C7.63548 12.9883 7.86376 13.3241 7.86376 13.7383Lnan nanLnan nanL7.86376 13.7383C7.86376 14.1525 7.63548 14.4883 7.35389 14.4883L4.36719 14.4883Z" fill="#8296AF"/>
<g clip-path="url(#clip0_3671_66195)">
<path fill-rule="evenodd" clip-rule="evenodd" d="M21.2318 18.5278C21.2017 18.3617 21.222 18.1904 21.2902 18.0359C21.3551 17.8844 21.4629 17.7553 21.6003 17.6643C21.7377 17.5733 21.8987 17.5244 22.0635 17.5238H22.1096C22.3813 17.5238 22.6418 17.4159 22.8339 17.2238C23.0259 17.0317 23.1339 16.7712 23.1339 16.4995C23.1339 16.2279 23.0259 15.9674 22.8339 15.7753C22.6418 15.5832 22.3813 15.4753 22.1096 15.4753H22.0226C21.8578 15.4746 21.6968 15.4258 21.5594 15.3348C21.422 15.2438 21.3142 15.1147 21.2492 14.9632V14.9222C21.1811 14.7677 21.1607 14.5964 21.1909 14.4303C21.221 14.2641 21.3002 14.1108 21.4182 13.9902L21.449 13.9594C21.5442 13.8643 21.6198 13.7513 21.6713 13.627C21.7228 13.5027 21.7494 13.3694 21.7494 13.2348C21.7494 13.1002 21.7228 12.9669 21.6713 12.8425C21.6198 12.7182 21.5442 12.6052 21.449 12.5101C21.3538 12.4149 21.2409 12.3393 21.1165 12.2878C20.9922 12.2363 20.8589 12.2097 20.7243 12.2097C20.5897 12.2097 20.4564 12.2363 20.3321 12.2878C20.2078 12.3393 20.0948 12.4149 19.9997 12.5101L19.9689 12.5408C19.8482 12.6589 19.695 12.7381 19.5288 12.7682C19.3627 12.7984 19.1913 12.778 19.0369 12.7098C18.8854 12.6449 18.7562 12.5371 18.6652 12.3997C18.5743 12.2623 18.5254 12.1013 18.5248 11.9365V11.8905C18.5248 11.6188 18.4169 11.3583 18.2248 11.1662C18.0327 10.9741 17.7722 10.8662 17.5005 10.8662C17.2289 10.8662 16.9684 10.9741 16.7763 11.1662C16.5842 11.3583 16.4763 11.6188 16.4763 11.8905V11.9775C16.4756 12.1423 16.4268 12.3033 16.3358 12.4407C16.2448 12.5781 16.1156 12.6859 15.9642 12.7508H15.9232C15.7687 12.819 15.5974 12.8393 15.4312 12.8092C15.2651 12.7791 15.1118 12.6999 14.9911 12.5818L14.9604 12.5511C14.8653 12.4559 14.7523 12.3803 14.628 12.3288C14.5036 12.2772 14.3703 12.2507 14.2357 12.2507C14.1011 12.2507 13.9679 12.2772 13.8435 12.3288C13.7192 12.3803 13.6062 12.4559 13.5111 12.5511C13.4159 12.6462 13.3403 12.7592 13.2888 12.8835C13.2372 13.0079 13.2107 13.1411 13.2107 13.2757C13.2107 13.4103 13.2372 13.5436 13.2888 13.668C13.3403 13.7923 13.4159 13.9053 13.5111 14.0004L13.5418 14.0311C13.6599 14.1518 13.7391 14.3051 13.7692 14.4712C13.7993 14.6374 13.779 14.8087 13.7108 14.9632C13.6523 15.1223 13.5472 15.2602 13.4093 15.3588C13.2714 15.4574 13.107 15.5123 12.9375 15.5163H12.8914C12.6198 15.5163 12.3593 15.6242 12.1672 15.8163C11.9751 16.0083 11.8672 16.2689 11.8672 16.5405C11.8672 16.8122 11.9751 17.0727 12.1672 17.2648C12.3593 17.4568 12.6198 17.5648 12.8914 17.5648H12.9785C13.1433 17.5654 13.3043 17.6142 13.4417 17.7052C13.5791 17.7962 13.6869 17.9254 13.7518 18.0769C13.82 18.2313 13.8403 18.4027 13.8102 18.5688C13.7801 18.7349 13.7009 18.8882 13.5828 19.0089L13.5521 19.0397C13.4568 19.1348 13.3813 19.2478 13.3297 19.3721C13.2782 19.4964 13.2517 19.6297 13.2517 19.7643C13.2517 19.8989 13.2782 20.0322 13.3297 20.1565C13.3813 20.2809 13.4568 20.3938 13.5521 20.489C13.6472 20.5842 13.7602 20.6597 13.8845 20.7113C14.0088 20.7628 14.1421 20.7894 14.2767 20.7894C14.4113 20.7894 14.5446 20.7628 14.6689 20.7113C14.7933 20.6597 14.9062 20.5842 15.0014 20.489L15.0321 20.4582C15.1528 20.3402 15.3061 20.261 15.4722 20.2309C15.6383 20.2007 15.8097 20.2211 15.9642 20.2892C16.1233 20.3478 16.2611 20.4528 16.3598 20.5907C16.4584 20.7286 16.5133 20.893 16.5172 21.0625V21.1086C16.5172 21.3803 16.6252 21.6408 16.8172 21.8329C17.0093 22.025 17.2698 22.1329 17.5415 22.1329C17.8131 22.1329 18.0737 22.025 18.2657 21.8329C18.4578 21.6408 18.5657 21.3803 18.5657 21.1086V21.0216C18.5664 20.8568 18.6152 20.6958 18.7062 20.5584C18.7972 20.421 18.9264 20.3132 19.0779 20.2483C19.2323 20.1801 19.4037 20.1598 19.5698 20.1899C19.7359 20.22 19.8892 20.2992 20.0099 20.4173L20.0406 20.448C20.1358 20.5432 20.2487 20.6188 20.3731 20.6703C20.4974 20.7219 20.6307 20.7484 20.7653 20.7484C20.8999 20.7484 21.0332 20.7219 21.1575 20.6703C21.2819 20.6188 21.3948 20.5432 21.4899 20.448C21.5852 20.3529 21.6607 20.2399 21.7123 20.1156C21.7638 19.9912 21.7903 19.8579 21.7903 19.7233C21.7903 19.5887 21.7638 19.4555 21.7123 19.3311C21.6607 19.2068 21.5852 19.0938 21.4899 18.9987L21.4592 18.968C21.3412 18.8473 21.262 18.694 21.2318 18.5278ZM17.5032 17.6264C18.1255 17.6264 18.6299 17.122 18.6299 16.4997C18.6299 15.8775 18.1255 15.373 17.5032 15.373C16.881 15.373 16.3766 15.8775 16.3766 16.4997C16.3766 17.122 16.881 17.6264 17.5032 17.6264Z" fill="#B7C3D1"/>
<path d="M21.2902 18.0359L21.7477 18.2378L21.7498 18.2329L21.2902 18.0359ZM21.2318 18.5278L21.7238 18.4386L21.7238 18.4386L21.2318 18.5278ZM21.6003 17.6643L21.3243 17.2474L21.3242 17.2474L21.6003 17.6643ZM22.0635 17.5238L22.0635 17.0238L22.0615 17.0238L22.0635 17.5238ZM22.8339 17.2238L23.1874 17.5773L23.1874 17.5773L22.8339 17.2238ZM22.8339 15.7753L23.1874 15.4217L23.1874 15.4217L22.8339 15.7753ZM22.0226 15.4753L22.0206 15.9753H22.0226V15.4753ZM21.5594 15.3348L21.8354 14.918L21.8354 14.9179L21.5594 15.3348ZM21.2492 14.9632H20.7492C20.7492 15.0309 20.763 15.0979 20.7897 15.1601L21.2492 14.9632ZM21.2492 14.9222H21.7492C21.7492 14.8527 21.7347 14.7839 21.7067 14.7203L21.2492 14.9222ZM21.1909 14.4303L21.6828 14.5195L21.6828 14.5195L21.1909 14.4303ZM21.4182 13.9902L21.0647 13.6366L21.0608 13.6405L21.4182 13.9902ZM21.449 13.9594L21.0956 13.6057L21.0954 13.6059L21.449 13.9594ZM21.6713 12.8425L21.2094 13.034L21.2094 13.034L21.6713 12.8425ZM21.449 12.5101L21.0952 12.8635L21.0956 12.8639L21.449 12.5101ZM19.9997 12.5101L20.3532 12.8637L20.3534 12.8635L19.9997 12.5101ZM19.9689 12.5408L20.3186 12.8983L20.3225 12.8944L19.9689 12.5408ZM19.5288 12.7682L19.4396 12.2763L19.4396 12.2763L19.5288 12.7682ZM19.0369 12.7098L19.2388 12.2524L19.2339 12.2503L19.0369 12.7098ZM18.6652 12.3997L18.2484 12.6758L18.2484 12.6758L18.6652 12.3997ZM18.5248 11.9365L18.0248 11.9365L18.0248 11.9385L18.5248 11.9365ZM18.2248 11.1662L18.5783 10.8127L18.5783 10.8127L18.2248 11.1662ZM16.7763 11.1662L16.4227 10.8127L16.4227 10.8127L16.7763 11.1662ZM16.4763 11.9775L16.9763 11.9795V11.9775H16.4763ZM15.9642 12.7508V13.2508C16.0319 13.2508 16.0989 13.2371 16.1611 13.2104L15.9642 12.7508ZM15.9232 12.7508V12.2508C15.8537 12.2508 15.7849 12.2653 15.7213 12.2934L15.9232 12.7508ZM14.9911 12.5818L14.6376 12.9354L14.6415 12.9392L14.9911 12.5818ZM14.9604 12.5511L14.6066 12.9044L14.6068 12.9046L14.9604 12.5511ZM14.628 12.3288L14.8194 11.8669L14.8194 11.8669L14.628 12.3288ZM13.8435 12.3288L13.6521 11.8669L13.6521 11.8669L13.8435 12.3288ZM13.5111 12.5511L13.8645 12.9048L13.8648 12.9044L13.5111 12.5511ZM13.2888 12.8835L13.7507 13.075L13.7507 13.075L13.2888 12.8835ZM13.5111 14.0004L13.8646 13.6468L13.8645 13.6466L13.5111 14.0004ZM13.5418 14.0311L13.8993 13.6815L13.8954 13.6776L13.5418 14.0311ZM13.7692 14.4712L13.2772 14.5604L13.2772 14.5604L13.7692 14.4712ZM13.7108 14.9632L13.2534 14.7613C13.2491 14.7709 13.2452 14.7807 13.2416 14.7906L13.7108 14.9632ZM12.9375 15.5163L12.9375 16.0164L12.9492 16.0161L12.9375 15.5163ZM12.1672 15.8163L12.5207 16.1698L12.5207 16.1698L12.1672 15.8163ZM12.1672 17.2648L12.5207 16.9112L12.5207 16.9112L12.1672 17.2648ZM12.9785 17.5648L12.9805 17.0648H12.9785V17.5648ZM13.7518 18.0769L13.2922 18.2739L13.2944 18.2788L13.7518 18.0769ZM13.5828 19.0089L13.9364 19.3625L13.9402 19.3586L13.5828 19.0089ZM13.5521 19.0397L13.9054 19.3934L13.9056 19.3932L13.5521 19.0397ZM13.3297 19.3721L12.8679 19.1806L12.8679 19.1806L13.3297 19.3721ZM13.3297 20.1565L12.8679 20.348L12.8679 20.348L13.3297 20.1565ZM13.5521 20.489L13.9058 20.1356L13.9054 20.1352L13.5521 20.489ZM13.8845 20.7113L14.076 20.2494L14.076 20.2494L13.8845 20.7113ZM15.0014 20.489L14.6478 20.1354L14.6476 20.1356L15.0014 20.489ZM15.0321 20.4582L14.6824 20.1008L14.6785 20.1047L15.0321 20.4582ZM15.4722 20.2309L15.5614 20.7228L15.5614 20.7228L15.4722 20.2309ZM15.9642 20.2892L15.7623 20.7467C15.7719 20.7509 15.7817 20.7549 15.7916 20.7585L15.9642 20.2892ZM16.3598 20.5907L16.7665 20.2999L16.7665 20.2999L16.3598 20.5907ZM16.5172 21.0625H17.0174L17.0171 21.0509L16.5172 21.0625ZM16.8172 21.8329L16.4637 22.1864L16.4637 22.1864L16.8172 21.8329ZM18.2657 21.8329L18.6193 22.1864L18.6193 22.1864L18.2657 21.8329ZM18.5657 21.0216L18.0657 21.0196V21.0216H18.5657ZM18.7062 20.5584L19.1231 20.8345L19.1231 20.8345L18.7062 20.5584ZM19.0779 20.2483L19.2748 20.7079L19.2797 20.7057L19.0779 20.2483ZM19.5698 20.1899L19.4806 20.6819L19.4806 20.6819L19.5698 20.1899ZM20.0099 20.4173L20.3635 20.0637L20.3595 20.0598L20.0099 20.4173ZM20.0406 20.448L20.3944 20.0946L20.3942 20.0944L20.0406 20.448ZM21.4899 20.448L21.1366 20.0942L21.1362 20.0946L21.4899 20.448ZM21.4899 18.9987L21.1364 19.3523L21.1366 19.3524L21.4899 18.9987ZM21.4592 18.968L21.1018 19.3176L21.1057 19.3215L21.4592 18.968ZM20.8328 17.834C20.7243 18.0799 20.6919 18.3526 20.7399 18.6171L21.7238 18.4386C21.7115 18.3708 21.7198 18.3009 21.7476 18.2378L20.8328 17.834ZM21.3242 17.2474C21.1056 17.3922 20.934 17.5978 20.8306 17.8389L21.7498 18.2329C21.7763 18.171 21.8203 18.1183 21.8764 18.0811L21.3242 17.2474ZM22.0615 17.0238C21.7992 17.0248 21.5429 17.1026 21.3243 17.2474L21.8764 18.0811C21.9325 18.044 21.9982 18.0241 22.0655 18.0238L22.0615 17.0238ZM22.1096 17.0238H22.0635V18.0238H22.1096V17.0238ZM22.4803 16.8702C22.382 16.9686 22.2486 17.0238 22.1096 17.0238V18.0238C22.5139 18.0238 22.9016 17.8632 23.1874 17.5773L22.4803 16.8702ZM22.6339 16.4995C22.6339 16.6386 22.5786 16.7719 22.4803 16.8702L23.1874 17.5773C23.4733 17.2915 23.6339 16.9038 23.6339 16.4995H22.6339ZM22.4803 16.1288C22.5786 16.2272 22.6339 16.3605 22.6339 16.4995H23.6339C23.6339 16.0953 23.4733 15.7076 23.1874 15.4217L22.4803 16.1288ZM22.1096 15.9753C22.2486 15.9753 22.382 16.0305 22.4803 16.1288L23.1874 15.4217C22.9016 15.1359 22.5139 14.9753 22.1096 14.9753V15.9753ZM22.0226 15.9753H22.1096V14.9753H22.0226V15.9753ZM21.2833 15.7517C21.502 15.8965 21.7583 15.9743 22.0206 15.9753L22.0245 14.9753C21.9573 14.975 21.8915 14.9551 21.8354 14.918L21.2833 15.7517ZM20.7897 15.1601C20.893 15.4012 21.0646 15.6069 21.2833 15.7517L21.8354 14.9179C21.7793 14.8808 21.7353 14.8281 21.7088 14.7662L20.7897 15.1601ZM20.7492 14.9222V14.9632H21.7492V14.9222H20.7492ZM20.6989 14.3411C20.6509 14.6055 20.6833 14.8782 20.7918 15.1241L21.7067 14.7203C21.6788 14.6573 21.6705 14.5873 21.6828 14.5195L20.6989 14.3411ZM21.0608 13.6405C20.8729 13.8326 20.7468 14.0766 20.6989 14.3411L21.6828 14.5195C21.6951 14.4517 21.7275 14.3891 21.7757 14.3398L21.0608 13.6405ZM21.0954 13.6059L21.0647 13.6366L21.7718 14.3437L21.8025 14.313L21.0954 13.6059ZM21.2094 13.4355C21.183 13.4992 21.1444 13.557 21.0956 13.6057L21.8023 14.3132C21.944 14.1716 22.0565 14.0035 22.1332 13.8185L21.2094 13.4355ZM21.2494 13.2348C21.2494 13.3037 21.2358 13.3719 21.2094 13.4355L22.1332 13.8185C22.2099 13.6334 22.2494 13.4351 22.2494 13.2348H21.2494ZM21.2094 13.034C21.2358 13.0977 21.2494 13.1659 21.2494 13.2348H22.2494C22.2494 13.0345 22.2099 12.8361 22.1332 12.6511L21.2094 13.034ZM21.0956 12.8639C21.1444 12.9126 21.183 12.9704 21.2094 13.034L22.1332 12.6511C22.0565 12.466 21.944 12.2979 21.8023 12.1564L21.0956 12.8639ZM20.9251 12.7497C20.9887 12.7761 21.0465 12.8147 21.0952 12.8635L21.8027 12.1568C21.6612 12.015 21.4931 11.9026 21.308 11.8259L20.9251 12.7497ZM20.7243 12.7097C20.7932 12.7097 20.8614 12.7233 20.9251 12.7497L21.308 11.8259C21.123 11.7492 20.9246 11.7097 20.7243 11.7097V12.7097ZM20.5236 12.7497C20.5872 12.7233 20.6554 12.7097 20.7243 12.7097V11.7097C20.524 11.7097 20.3257 11.7492 20.1406 11.8259L20.5236 12.7497ZM20.3534 12.8635C20.4021 12.8147 20.4599 12.7761 20.5236 12.7497L20.1406 11.8259C19.9556 11.9026 19.7875 12.015 19.6459 12.1568L20.3534 12.8635ZM20.3225 12.8944L20.3532 12.8637L19.6461 12.1566L19.6154 12.1873L20.3225 12.8944ZM19.618 13.2602C19.8825 13.2123 20.1265 13.0862 20.3186 12.8983L19.6193 12.1834C19.57 12.2316 19.5074 12.264 19.4396 12.2763L19.618 13.2602ZM18.835 13.1673C19.0809 13.2758 19.3536 13.3082 19.618 13.2602L19.4396 12.2763C19.3718 12.2886 19.3018 12.2802 19.2388 12.2524L18.835 13.1673ZM18.2484 12.6758C18.3932 12.8945 18.5988 13.0661 18.8399 13.1694L19.2339 12.2503C19.172 12.2238 19.1193 12.1798 19.0821 12.1237L18.2484 12.6758ZM18.0248 11.9385C18.0258 12.2008 18.1035 12.4571 18.2484 12.6758L19.0821 12.1237C19.045 12.0676 19.025 12.0018 19.0248 11.9346L18.0248 11.9385ZM18.0248 11.8905V11.9365H19.0248V11.8905H18.0248ZM17.8712 11.5198C17.9695 11.6181 18.0248 11.7514 18.0248 11.8905H19.0248C19.0248 11.4862 18.8642 11.0985 18.5783 10.8127L17.8712 11.5198ZM17.5005 11.3662C17.6396 11.3662 17.7729 11.4214 17.8712 11.5198L18.5783 10.8127C18.2925 10.5268 17.9048 10.3662 17.5005 10.3662V11.3662ZM17.1298 11.5198C17.2281 11.4214 17.3615 11.3662 17.5005 11.3662V10.3662C17.0963 10.3662 16.7086 10.5268 16.4227 10.8127L17.1298 11.5198ZM16.9763 11.8905C16.9763 11.7514 17.0315 11.6181 17.1298 11.5198L16.4227 10.8127C16.1369 11.0985 15.9763 11.4862 15.9763 11.8905H16.9763ZM16.9763 11.9775V11.8905H15.9763V11.9775H16.9763ZM16.7527 12.7168C16.8975 12.4981 16.9752 12.2418 16.9763 11.9795L15.9763 11.9755C15.976 12.0428 15.9561 12.1085 15.9189 12.1646L16.7527 12.7168ZM16.1611 13.2104C16.4022 13.1071 16.6078 12.9355 16.7527 12.7168L15.9189 12.1646C15.8818 12.2207 15.829 12.2647 15.7672 12.2912L16.1611 13.2104ZM15.9232 13.2508H15.9642V12.2508H15.9232V13.2508ZM15.342 13.3012C15.6065 13.3491 15.8792 13.3168 16.1251 13.2082L15.7213 12.2934C15.6582 12.3212 15.5883 12.3295 15.5205 12.3172L15.342 13.3012ZM14.6415 12.9392C14.8336 13.1272 15.0776 13.2532 15.342 13.3012L15.5205 12.3172C15.4526 12.3049 15.39 12.2726 15.3408 12.2244L14.6415 12.9392ZM14.6068 12.9046L14.6376 12.9354L15.3447 12.2283L15.314 12.1975L14.6068 12.9046ZM14.4365 12.7907C14.5001 12.817 14.558 12.8557 14.6066 12.9044L15.3141 12.1977C15.1726 12.056 15.0045 11.9436 14.8194 11.8669L14.4365 12.7907ZM14.2357 12.7507C14.3046 12.7507 14.3729 12.7643 14.4365 12.7907L14.8194 11.8669C14.6344 11.7902 14.4361 11.7507 14.2357 11.7507V12.7507ZM14.035 12.7907C14.0986 12.7643 14.1669 12.7507 14.2357 12.7507V11.7507C14.0354 11.7507 13.8371 11.7902 13.6521 11.8669L14.035 12.7907ZM13.8648 12.9044C13.9135 12.8557 13.9714 12.817 14.035 12.7907L13.6521 11.8669C13.467 11.9436 13.2989 12.056 13.1573 12.1977L13.8648 12.9044ZM13.7507 13.075C13.777 13.0113 13.8157 12.9535 13.8645 12.9048L13.1577 12.1973C13.016 12.3389 12.9036 12.507 12.8269 12.692L13.7507 13.075ZM13.7107 13.2757C13.7107 13.2068 13.7243 13.1386 13.7507 13.075L12.8269 12.692C12.7502 12.8771 12.7107 13.0754 12.7107 13.2757H13.7107ZM13.7507 13.4765C13.7243 13.4129 13.7107 13.3446 13.7107 13.2757H12.7107C12.7107 13.4761 12.7502 13.6744 12.8269 13.8594L13.7507 13.4765ZM13.8645 13.6466C13.8157 13.598 13.777 13.5401 13.7507 13.4765L12.8269 13.8594C12.9036 14.0445 13.016 14.2126 13.1577 14.3541L13.8645 13.6466ZM13.8954 13.6776L13.8646 13.6468L13.1575 14.3539L13.1883 14.3847L13.8954 13.6776ZM14.2612 14.382C14.2132 14.1176 14.0872 13.8736 13.8993 13.6815L13.1844 14.3808C13.2326 14.43 13.2649 14.4926 13.2772 14.5604L14.2612 14.382ZM14.1683 15.1651C14.2768 14.9192 14.3091 14.6465 14.2612 14.382L13.2772 14.5604C13.2895 14.6283 13.2812 14.6982 13.2534 14.7613L14.1683 15.1651ZM13.7002 15.7655C13.9197 15.6085 14.0869 15.3891 14.1801 15.1358L13.2416 14.7906C13.2177 14.8556 13.1748 14.9118 13.1185 14.9521L13.7002 15.7655ZM12.9492 16.0161C13.219 16.0098 13.4807 15.9225 13.7002 15.7655L13.1185 14.9521C13.0622 14.9924 12.995 15.0148 12.9258 15.0164L12.9492 16.0161ZM12.8914 16.0163H12.9375V15.0163H12.8914V16.0163ZM12.5207 16.1698C12.619 16.0715 12.7524 16.0163 12.8914 16.0163V15.0163C12.4872 15.0163 12.0995 15.1769 11.8136 15.4627L12.5207 16.1698ZM12.3672 16.5405C12.3672 16.4015 12.4224 16.2681 12.5207 16.1698L11.8136 15.4627C11.5278 15.7486 11.3672 16.1363 11.3672 16.5405H12.3672ZM12.5207 16.9112C12.4224 16.8129 12.3672 16.6796 12.3672 16.5405H11.3672C11.3672 16.9448 11.5278 17.3325 11.8136 17.6183L12.5207 16.9112ZM12.8914 17.0648C12.7524 17.0648 12.619 17.0095 12.5207 16.9112L11.8136 17.6183C12.0995 17.9042 12.4872 18.0648 12.8914 18.0648V17.0648ZM12.9785 17.0648H12.8914V18.0648H12.9785V17.0648ZM13.7178 17.2884C13.4991 17.1435 13.2428 17.0658 12.9805 17.0648L12.9765 18.0648C13.0438 18.065 13.1095 18.085 13.1656 18.1221L13.7178 17.2884ZM14.2114 17.8799C14.108 17.6388 13.9365 17.4332 13.7178 17.2884L13.1656 18.1221C13.2217 18.1593 13.2657 18.212 13.2922 18.2738L14.2114 17.8799ZM14.3022 18.658C14.3501 18.3936 14.3177 18.1209 14.2092 17.875L13.2944 18.2788C13.3222 18.3418 13.3305 18.4118 13.3182 18.4796L14.3022 18.658ZM13.9402 19.3586C14.1281 19.1665 14.2542 18.9225 14.3022 18.658L13.3182 18.4796C13.3059 18.5474 13.2736 18.61 13.2254 18.6593L13.9402 19.3586ZM13.9056 19.3932L13.9363 19.3625L13.2292 18.6554L13.1985 18.6861L13.9056 19.3932ZM13.7916 19.5636C13.818 19.4999 13.8567 19.4421 13.9054 19.3934L13.1987 18.6859C13.057 18.8275 12.9446 18.9956 12.8679 19.1806L13.7916 19.5636ZM13.7517 19.7643C13.7517 19.6954 13.7652 19.6272 13.7916 19.5636L12.8679 19.1806C12.7912 19.3657 12.7517 19.564 12.7517 19.7643H13.7517ZM13.7916 19.9651C13.7652 19.9014 13.7517 19.8332 13.7517 19.7643H12.7517C12.7517 19.9646 12.7912 20.163 12.8679 20.348L13.7916 19.9651ZM13.9054 20.1352C13.8567 20.0865 13.818 20.0287 13.7916 19.9651L12.8679 20.348C12.9446 20.533 13.057 20.7012 13.1987 20.8427L13.9054 20.1352ZM14.076 20.2494C14.0123 20.223 13.9545 20.1844 13.9058 20.1356L13.1983 20.8423C13.3399 20.984 13.508 21.0965 13.693 21.1732L14.076 20.2494ZM14.2767 20.2894C14.2078 20.2894 14.1396 20.2758 14.076 20.2494L13.693 21.1732C13.8781 21.2499 14.0764 21.2894 14.2767 21.2894V20.2894ZM14.4775 20.2494C14.4138 20.2758 14.3456 20.2894 14.2767 20.2894V21.2894C14.477 21.2894 14.6754 21.2499 14.8604 21.1732L14.4775 20.2494ZM14.6476 20.1356C14.5989 20.1844 14.5411 20.223 14.4775 20.2494L14.8604 21.1732C15.0454 21.0965 15.2136 20.984 15.3551 20.8423L14.6476 20.1356ZM14.6785 20.1047L14.6478 20.1354L15.3549 20.8425L15.3857 20.8118L14.6785 20.1047ZM15.383 19.7389C15.1186 19.7868 14.8746 19.9129 14.6825 20.1008L15.3817 20.8157C15.431 20.7675 15.4936 20.7351 15.5614 20.7228L15.383 19.7389ZM16.166 19.8318C15.9202 19.7233 15.6474 19.6909 15.383 19.7389L15.5614 20.7228C15.6293 20.7105 15.6992 20.7188 15.7623 20.7467L16.166 19.8318ZM16.7665 20.2999C16.6095 20.0803 16.39 19.9131 16.1367 19.82L15.7916 20.7585C15.8565 20.7824 15.9128 20.8253 15.9531 20.8816L16.7665 20.2999ZM17.0171 21.0509C17.0108 20.781 16.9235 20.5194 16.7665 20.2999L15.9531 20.8816C15.9934 20.9379 16.0158 21.005 16.0174 21.0742L17.0171 21.0509ZM17.0172 21.1086V21.0625H16.0172V21.1086H17.0172ZM17.1708 21.4793C17.0725 21.381 17.0172 21.2477 17.0172 21.1086H16.0172C16.0172 21.5129 16.1778 21.9006 16.4637 22.1864L17.1708 21.4793ZM17.5415 21.6329C17.4025 21.6329 17.2691 21.5776 17.1708 21.4793L16.4637 22.1864C16.7495 22.4723 17.1372 22.6329 17.5415 22.6329V21.6329ZM17.9122 21.4793C17.8139 21.5776 17.6805 21.6329 17.5415 21.6329V22.6329C17.9457 22.6329 18.3334 22.4723 18.6193 22.1864L17.9122 21.4793ZM18.0657 21.1086C18.0657 21.2477 18.0105 21.381 17.9122 21.4793L18.6193 22.1864C18.9051 21.9006 19.0657 21.5129 19.0657 21.1086H18.0657ZM18.0657 21.0216V21.1086H19.0657V21.0216H18.0657ZM18.2893 20.2823C18.1445 20.501 18.0668 20.7573 18.0657 21.0196L19.0657 21.0236C19.066 20.9563 19.0859 20.8906 19.1231 20.8345L18.2893 20.2823ZM18.8809 19.7887C18.6398 19.892 18.4342 20.0636 18.2893 20.2823L19.1231 20.8345C19.1602 20.7784 19.213 20.7343 19.2748 20.7078L18.8809 19.7887ZM19.659 19.6979C19.3946 19.65 19.1218 19.6823 18.876 19.7908L19.2797 20.7057C19.3428 20.6779 19.4128 20.6696 19.4806 20.6819L19.659 19.6979ZM20.3595 20.0598C20.1674 19.8719 19.9234 19.7459 19.659 19.6979L19.4806 20.6819C19.5484 20.6942 19.611 20.7265 19.6603 20.7747L20.3595 20.0598ZM20.3942 20.0944L20.3635 20.0637L19.6564 20.7708L19.6871 20.8016L20.3942 20.0944ZM20.5645 20.2084C20.5009 20.1821 20.4431 20.1434 20.3944 20.0946L19.6869 20.8014C19.8285 20.9431 19.9966 21.0555 20.1816 21.1322L20.5645 20.2084ZM20.7653 20.2484C20.6964 20.2484 20.6282 20.2348 20.5645 20.2084L20.1816 21.1322C20.3666 21.2089 20.565 21.2484 20.7653 21.2484V20.2484ZM20.966 20.2084C20.9024 20.2348 20.8342 20.2484 20.7653 20.2484V21.2484C20.9656 21.2484 21.1639 21.2089 21.349 21.1322L20.966 20.2084ZM21.1362 20.0946C21.0875 20.1434 21.0297 20.1821 20.966 20.2084L21.349 21.1322C21.534 21.0555 21.7021 20.9431 21.8437 20.8014L21.1362 20.0946ZM21.2504 19.9241C21.224 19.9877 21.1853 20.0456 21.1366 20.0942L21.8433 20.8017C21.985 20.6602 22.0974 20.4921 22.1742 20.307L21.2504 19.9241ZM21.2903 19.7233C21.2903 19.7922 21.2768 19.8605 21.2504 19.9241L22.1742 20.307C22.2509 20.122 22.2903 19.9237 22.2903 19.7233H21.2903ZM21.2504 19.5226C21.2768 19.5862 21.2903 19.6545 21.2903 19.7233H22.2903C22.2903 19.523 22.2509 19.3247 22.1742 19.1397L21.2504 19.5226ZM21.1366 19.3524C21.1853 19.4011 21.224 19.4589 21.2504 19.5226L22.1742 19.1397C22.0974 18.9546 21.985 18.7865 21.8433 18.6449L21.1366 19.3524ZM21.1057 19.3215L21.1364 19.3523L21.8435 18.6451L21.8128 18.6144L21.1057 19.3215ZM20.7399 18.617C20.7878 18.8815 20.9139 19.1255 21.1018 19.3176L21.8166 18.6183C21.7684 18.5691 21.7361 18.5065 21.7238 18.4386L20.7399 18.617ZM18.1299 16.4997C18.1299 16.8458 17.8493 17.1264 17.5032 17.1264V18.1264C18.4016 18.1264 19.1299 17.3981 19.1299 16.4997H18.1299ZM17.5032 15.873C17.8493 15.873 18.1299 16.1536 18.1299 16.4997H19.1299C19.1299 15.6013 18.4016 14.873 17.5032 14.873V15.873ZM16.8766 16.4997C16.8766 16.1536 17.1571 15.873 17.5032 15.873V14.873C16.6048 14.873 15.8766 15.6013 15.8766 16.4997H16.8766ZM17.5032 17.1264C17.1571 17.1264 16.8766 16.8458 16.8766 16.4997H15.8766C15.8766 17.3981 16.6048 18.1264 17.5032 18.1264V17.1264Z" fill="#8296AF"/>
</g>
<defs>
<clipPath id="clip0_3671_66195">
<rect width="13" height="13" fill="white" transform="translate(11 10)"/>
</clipPath>
</defs>
</svg>
