<svg width="16" height="16" viewBox="0 0 16 16" fill="none" xmlns="http://www.w3.org/2000/svg">
<g opacity="0.8">
<path opacity="0.8" fill-rule="evenodd" clip-rule="evenodd" d="M14.2166 1.4773C14.1924 1.41868 14.1514 1.36857 14.0987 1.33332C14.046 1.29807 13.984 1.27926 13.9206 1.2793H9.92057C9.8357 1.2793 9.7543 1.31301 9.69429 1.37302C9.63428 1.43303 9.60057 1.51443 9.60057 1.5993C9.60057 1.68417 9.63428 1.76556 9.69429 1.82557C9.7543 1.88558 9.8357 1.9193 9.92057 1.9193H13.1486L7.29457 7.7733C7.26411 7.80282 7.23982 7.83809 7.22312 7.87708C7.20642 7.91607 7.19763 7.95799 7.19728 8.00041C7.19692 8.04282 7.205 8.08488 7.22105 8.12414C7.23709 8.16341 7.26078 8.19909 7.29074 8.22912C7.3207 8.25914 7.35633 8.28291 7.39556 8.29904C7.43479 8.31517 7.47683 8.32335 7.51924 8.32308C7.56166 8.32282 7.6036 8.31413 7.64262 8.29751C7.68165 8.2809 7.71698 8.25669 7.74657 8.2263L13.6006 2.3723V5.5993C13.6006 5.68417 13.6343 5.76556 13.6943 5.82557C13.7543 5.88558 13.8357 5.9193 13.9206 5.9193C14.0054 5.9193 14.0868 5.88558 14.1468 5.82557C14.2069 5.76556 14.2406 5.68417 14.2406 5.5993V1.5993C14.2406 1.55745 14.2325 1.516 14.2166 1.4773V1.4773Z" fill="#D00054"/>
<path opacity="0.8" d="M12.9536 12.6871C12.9536 13.2891 12.4786 13.7891 11.8816 13.7891H3.12761C2.53061 13.7891 2.05761 13.2891 2.05761 12.6871V3.62508C2.05761 3.02308 2.53061 2.54708 3.12761 2.54708H5.73361V2.08008H3.12761C2.27761 2.08008 1.59961 2.76408 1.59961 3.62008V12.6831C1.59961 13.5401 2.27761 14.2471 3.12761 14.2471H11.8816V14.2511C12.7316 14.2511 13.4126 13.5431 13.4126 12.6861V9.80608H12.9536V12.6861V12.6871Z" fill="#D00054"/>
<path opacity="0.8" fill-rule="evenodd" clip-rule="evenodd" d="M1.5 3.62052C1.5 2.70952 2.223 1.97852 3.128 1.97852H5.835V2.64552H3.128C2.588 2.64552 2.159 3.07552 2.159 3.62352V12.6855C2.159 13.2355 2.59 13.6875 3.128 13.6875H11.882C12.421 13.6875 12.855 13.2355 12.855 12.6855V9.70552H13.514V12.6855C13.514 13.5955 12.789 14.3505 11.882 14.3505H11.782V14.3465H3.128C2.221 14.3465 1.5 13.5915 1.5 12.6825V3.62052V3.62052ZM11.979 14.1465C12.725 14.0965 13.314 13.4565 13.314 12.6865V9.90452H13.054V12.6845C13.054 13.3385 12.538 13.8865 11.882 13.8865H3.128C2.472 13.8865 1.959 13.3385 1.959 12.6845V3.62352C1.959 2.96752 2.475 2.44552 3.128 2.44552H5.635V2.17852H3.128C2.335 2.17852 1.7 2.81852 1.7 3.62052V12.6825C1.7 13.4865 2.337 14.1465 3.128 14.1465H11.979V14.1465Z" fill="#D00054"/>
</g>
</svg>
