<svg width="24" height="24" viewBox="0 0 24 24" fill="none" xmlns="http://www.w3.org/2000/svg">
<path d="M13.8709 2.79492H9.63294L9.46094 9.96192L10.5549 11.5399L12.6979 14.5139V12.2969L13.8709 10.9489V2.79492V2.79492Z" fill="#D00054"/>
<path fill-rule="evenodd" clip-rule="evenodd" d="M8.84882 1.75H14.8488V10.307L20.2428 20.115C20.4858 20.498 20.7298 21.233 20.2168 21.896C19.7448 22.506 18.8328 22.75 17.5988 22.75H5.09882C4.74282 22.75 4.17382 22.65 3.74582 22.244C3.24382 21.769 3.12082 21.063 3.38682 20.263C3.50982 19.894 3.83082 19.241 4.22782 18.482C4.63682 17.701 5.15882 16.747 5.71882 15.746C6.74451 13.9193 7.7879 12.1025 8.84882 10.296V1.75V1.75ZM10.3488 3.25V10.704L10.2448 10.88C9.15385 12.7356 8.08146 14.602 7.02782 16.479C6.47082 17.474 5.95682 18.414 5.55782 19.177C5.14582 19.964 4.88782 20.506 4.80982 20.737C4.73982 20.951 4.74582 21.064 4.75382 21.106C4.75982 21.139 4.76782 21.147 4.77682 21.156C4.81316 21.1856 4.85545 21.2071 4.90082 21.219C4.96496 21.2389 5.03166 21.2494 5.09882 21.25H17.5988C18.6168 21.25 18.9398 21.054 19.0128 20.995C19.004 20.967 18.9912 20.9404 18.9748 20.916L18.9568 20.889L13.3488 10.693V3.25H10.3488Z" fill="#2E3F55"/>
<path fill-rule="evenodd" clip-rule="evenodd" d="M6.25 2C6.25 1.80109 6.32902 1.61032 6.46967 1.46967C6.61032 1.32902 6.80109 1.25 7 1.25H16.2C16.3989 1.25 16.5897 1.32902 16.7303 1.46967C16.871 1.61032 16.95 1.80109 16.95 2C16.95 2.19891 16.871 2.38968 16.7303 2.53033C16.5897 2.67098 16.3989 2.75 16.2 2.75H7C6.80109 2.75 6.61032 2.67098 6.46967 2.53033C6.32902 2.38968 6.25 2.19891 6.25 2ZM8.25 18C8.25 17.8011 8.32902 17.6103 8.46967 17.4697C8.61032 17.329 8.80109 17.25 9 17.25H15C15.1989 17.25 15.3897 17.329 15.5303 17.4697C15.671 17.6103 15.75 17.8011 15.75 18C15.75 18.1989 15.671 18.3897 15.5303 18.5303C15.3897 18.671 15.1989 18.75 15 18.75H9C8.80109 18.75 8.61032 18.671 8.46967 18.5303C8.32902 18.3897 8.25 18.1989 8.25 18Z" fill="#2E3F55"/>
</svg>
