<svg width="24" height="25" viewBox="0 0 24 25" fill="none" xmlns="http://www.w3.org/2000/svg">
    <g clip-path="url(#a)">
        <path d="M12 15.305a3 3 0 1 0 0-6 3 3 0 0 0 0 6z" fill="#B7C3D1" stroke="#B7C3D1" stroke-width="1.3" stroke-linecap="round" stroke-linejoin="round"/>
        <path fill-rule="evenodd" clip-rule="evenodd" d="M12 2.055a1.25 1.25 0 0 0-1.25 1.25V3.478a2.4 2.4 0 0 1-1.455 2.196.75.75 0 0 1-.222.057 2.4 2.4 0 0 1-2.497-.54l-.006-.006-.06-.06a1.252 1.252 0 1 0-1.77 1.77l.066.065a2.4 2.4 0 0 1 .49 2.626 2.4 2.4 0 0 1-2.188 1.548H3a1.25 1.25 0 0 0 0 2.5h.173a2.4 2.4 0 0 1 2.195 1.452 2.4 2.4 0 0 1-.482 2.643l-.006.006-.06.06a1.253 1.253 0 0 0 .406 2.041 1.25 1.25 0 0 0 1.363-.271l.067-.067a2.4 2.4 0 0 1 2.625-.489 2.399 2.399 0 0 1 1.549 2.188v.108a1.25 1.25 0 0 0 2.5 0V21.132a2.4 2.4 0 0 1 1.45-2.195 2.4 2.4 0 0 1 2.644.482l.006.005.06.06a1.253 1.253 0 0 0 1.77 0 1.255 1.255 0 0 0 .271-1.363 1.25 1.25 0 0 0-.271-.406l-.066-.066a2.4 2.4 0 0 1-.482-2.644 2.4 2.4 0 0 1 2.195-1.45H21a1.25 1.25 0 0 0 0-2.5H20.827A2.4 2.4 0 0 1 18.631 9.6a.753.753 0 0 1-.058-.223 2.4 2.4 0 0 1 .54-2.497l.007-.006.06-.06a1.252 1.252 0 1 0-1.77-1.77l-.066.067a2.4 2.4 0 0 1-2.643.481 2.4 2.4 0 0 1-1.451-2.194v-.093A1.25 1.25 0 0 0 12 2.055zm7.4 13.25.686.303a.9.9 0 0 0 .178.99l.056.056a2.749 2.749 0 0 1 0 3.891 2.748 2.748 0 0 1-3.89 0l-.057-.057a.9.9 0 0 0-.99-.177l-.007.003a.9.9 0 0 0-.546.823v.168a2.75 2.75 0 1 1-5.5 0v-.08a.9.9 0 0 0-.589-.816.767.767 0 0 1-.044-.018.9.9 0 0 0-.99.177l-.056.057a2.75 2.75 0 1 1-3.891-3.89l.056-.057a.9.9 0 0 0 .178-.99l-.003-.008a.9.9 0 0 0-.823-.545H3a2.75 2.75 0 1 1 0-5.5h.08a.9.9 0 0 0 .816-.59.748.748 0 0 1 .018-.043.9.9 0 0 0-.178-.99l-.056-.057a2.752 2.752 0 1 1 3.89-3.89l.057.056a.9.9 0 0 0 .99.178.75.75 0 0 1 .19-.056.9.9 0 0 0 .443-.77v-.168a2.75 2.75 0 1 1 5.5 0v.088a.9.9 0 0 0 .545.822l.008.003a.9.9 0 0 0 .99-.177l.056-.056a2.752 2.752 0 1 1 3.891 3.89l-.056.057a.9.9 0 0 0-.178.99c.027.06.046.125.055.19a.9.9 0 0 0 .77.443H21a2.75 2.75 0 0 1 0 5.5h-.088a.9.9 0 0 0-.823.545l-.689-.295z" fill="#8296AF"/>
    </g>
    <defs>
        <clipPath id="a">
            <path fill="#fff" transform="translate(0 .305)" d="M0 0h24v24H0z"/>
        </clipPath>
    </defs>
</svg>
