<svg width="24" height="25" viewBox="0 0 24 25" fill="none" xmlns="http://www.w3.org/2000/svg">
<path fill-rule="evenodd" clip-rule="evenodd" d="M12 3.25C9.54675 3.25 7.19397 4.22455 5.45926 5.95926C3.72455 7.69397 2.75 10.0467 2.75 12.5C2.75 14.9533 3.72455 17.306 5.45926 19.0407C7.19397 20.7754 9.54675 21.75 12 21.75C14.4533 21.75 16.806 20.7754 18.5407 19.0407C20.2754 17.306 21.25 14.9533 21.25 12.5C21.25 10.0467 20.2754 7.69397 18.5407 5.95926C16.806 4.22455 14.4533 3.25 12 3.25V3.25ZM1.25 12.5C1.25 6.563 6.063 1.75 12 1.75C17.937 1.75 22.75 6.563 22.75 12.5C22.75 18.437 17.937 23.25 12 23.25C6.063 23.25 1.25 18.437 1.25 12.5Z" fill="#2E3F55"/>
<path d="M9.85019 10.2238L7.74219 16.5118L14.2552 14.4788L16.1002 8.3418L9.85019 10.2238V10.2238Z" fill="#D00054"/>
<path d="M16.2417 8.25977L14.1217 14.6198L7.76172 16.7398L9.88172 10.3798L16.2417 8.25977V8.25977Z" fill="#D00054"/>
</svg>
