<svg width="24" height="24" viewBox="0 0 24 24" fill="none" xmlns="http://www.w3.org/2000/svg">
<path d="M22.3314 18.5921H7.20185C6.95034 17.3189 5.98662 16.3142 4.766 16.0519V1.66005C4.766 1.29534 4.48279 1 4.13307 1H2.68198C2.33225 1 2.04905 1.29534 2.04905 1.66005C2.04905 2.02476 2.33225 2.3201 2.68198 2.3201H3.50018V16.0523C1.9124 16.3934 0.759292 17.991 1.04305 19.8002C1.2561 21.1599 2.98134 16.7995 4.98809 17C7.20214 17.2212 6.87528 21.5684 7.20214 19.9129H22.367C22.7279 19.9129 23.0181 19.598 22.9991 19.2174C22.9809 18.8602 22.6741 18.5921 22.3314 18.5921Z" fill="#2E3F55"/>
<circle cx="4.77778" cy="19.312" r="2.77778" stroke="#2E3F55" stroke-width="2"/>
<mask id="path-3-inside-1_3663_65563" fill="white">
<path fill-rule="evenodd" clip-rule="evenodd" d="M20.4825 16.9997H9.78951L9.7896 17C9.2869 15.7223 8.27623 14.7103 7 14.2072V3.55105C7.01792 3.24386 7.26977 3 7.5806 3H12.021V7.61601L14.3986 5.91263H14.7302L17.0423 7.61601V3H20.4825C20.805 3 21.0667 3.26181 21.0667 3.58532V16.4143C21.0667 16.7375 20.805 16.9997 20.4825 16.9997Z"/>
</mask>
<path fill-rule="evenodd" clip-rule="evenodd" d="M20.4825 16.9997H9.78951L9.7896 17C9.2869 15.7223 8.27623 14.7103 7 14.2072V3.55105C7.01792 3.24386 7.26977 3 7.5806 3H12.021V7.61601L14.3986 5.91263H14.7302L17.0423 7.61601V3H20.4825C20.805 3 21.0667 3.26181 21.0667 3.58532V16.4143C21.0667 16.7375 20.805 16.9997 20.4825 16.9997Z" fill="#D00054"/>
<path d="M9.78951 16.9997V15.9997H8.47829L8.82513 17.2642L9.78951 16.9997ZM9.7896 17L8.85903 17.3661L10.754 16.7355L9.7896 17ZM7 14.2072H6V14.8879L6.63329 15.1376L7 14.2072ZM7 3.55105L6.0017 3.49283L6 3.52192V3.55105H7ZM12.021 3H13.021V2H12.021V3ZM12.021 7.61601H11.021V9.5626L12.6034 8.42892L12.021 7.61601ZM14.3986 5.91263V4.91263H14.0774L13.8162 5.09972L14.3986 5.91263ZM14.7302 5.91263L15.3234 5.10753L15.0588 4.91263H14.7302V5.91263ZM17.0423 7.61601L16.4491 8.42111L18.0423 9.59485V7.61601H17.0423ZM17.0423 3V2H16.0423V3H17.0423ZM9.78951 17.9997H20.4825V15.9997H9.78951V17.9997ZM10.754 16.7355L10.7539 16.7352L8.82513 17.2642L8.82522 17.2645L10.754 16.7355ZM6.63329 15.1376C7.65107 15.5387 8.45774 16.3462 8.85903 17.3661L10.7202 16.6339C10.116 15.0984 8.90139 13.8818 7.36671 13.2769L6.63329 15.1376ZM6 3.55105V14.2072H8V3.55105H6ZM7.5806 2C6.72902 2 6.0498 2.668 6.0017 3.49283L7.9983 3.60928C7.98603 3.81972 7.81052 4 7.5806 4V2ZM12.021 2H7.5806V4H12.021V2ZM11.021 3V7.61601H13.021V3H11.021ZM12.6034 8.42892L14.981 6.72553L13.8162 5.09972L11.4386 6.80311L12.6034 8.42892ZM14.7302 4.91263H14.3986V6.91263H14.7302V4.91263ZM14.1371 6.71772L16.4491 8.42111L17.6354 6.81092L15.3234 5.10753L14.1371 6.71772ZM18.0423 7.61601V3H16.0423V7.61601H18.0423ZM20.4825 2H17.0423V4H20.4825V2ZM22.0667 3.58532C22.0667 2.711 21.3588 2 20.4825 2V4C20.2513 4 20.0667 3.81262 20.0667 3.58532H22.0667ZM22.0667 16.4143V3.58532H20.0667V16.4143H22.0667ZM20.4825 17.9997C21.3592 17.9997 22.0667 17.288 22.0667 16.4143H20.0667C20.0667 16.1871 20.2509 15.9997 20.4825 15.9997V17.9997Z" fill="#2E3F55" mask="url(#path-3-inside-1_3663_65563)"/>
</svg>
