<svg width="24" height="25" viewBox="0 0 24 25" fill="none" xmlns="http://www.w3.org/2000/svg">
<path d="M12.4997 18.418H16.0297V23.581L13.8937 22.687L12.4997 23.58V18.418V18.418ZM4.80469 4.183V17.537H10.3397V2.5H5.37169L4.80469 3.084V4.183Z" fill="#C9001F"/>
<path fill-rule="evenodd" clip-rule="evenodd" d="M17.35 20.35V18H18.65V20.35H19.5V21.65H15.5V20.35H17.35Z" fill="#2E3F55"/>
<path fill-rule="evenodd" clip-rule="evenodd" d="M4.89956 2.35761C5.23456 1.99461 5.65956 1.84961 6.00156 1.84961H18.0016C18.2716 1.84961 18.6636 1.92461 19.0056 2.17161C19.3816 2.44161 19.6516 2.88761 19.6516 3.49961V18.6496H13.1516V20.9996H12.5926V21.6496H7.00156C5.92156 21.6496 5.22856 21.0646 4.83756 20.3866C4.46556 19.7406 4.35156 18.9946 4.35156 18.4996V3.99961C4.35156 3.27661 4.55456 2.72961 4.89956 2.35761ZM11.8516 20.3496H7.00156C6.48056 20.3496 6.17356 20.1006 5.96456 19.7376C5.76856 19.3976 5.67756 18.9756 5.65656 18.6496H11.8516V20.3496ZM5.65156 17.3496H7.85156V3.14961H6.00156C6.00156 3.14961 6.00256 3.14961 6.00156 3.14961C5.94383 3.16348 5.892 3.19535 5.85356 3.24061C5.78156 3.31861 5.65156 3.52061 5.65156 3.99961V17.3496ZM9.15156 17.3496H18.3516V3.49961C18.3548 3.43217 18.3418 3.36494 18.3136 3.30361C18.2978 3.27287 18.2748 3.24644 18.2466 3.22661C18.1736 3.17874 18.0888 3.15209 18.0016 3.14961H9.15156V17.3496Z" fill="#2E3F55"/>
<path fill-rule="evenodd" clip-rule="evenodd" d="M13.2008 22.1897V18.3887H11.8008V24.8057L14.0008 23.3387L16.2008 24.8057V18.3887H14.8008V22.1887L14.0008 21.6557L13.2008 22.1897Z" fill="#2E3F55"/>
</svg>
