<svg width="24" height="25" viewBox="0 0 24 25" fill="none" xmlns="http://www.w3.org/2000/svg">
<path d="M3.04297 6.63381V20.3378L3.85697 21.4338H19.326L20.546 20.5258V18.7328L8.01197 17.0028L3.04297 6.63281V6.63381Z" fill="#C9001F"/>
<path fill-rule="evenodd" clip-rule="evenodd" d="M23.6382 2.86332C23.7218 2.94689 23.7881 3.04612 23.8334 3.15533C23.8786 3.26455 23.9019 3.3816 23.9019 3.49982C23.9019 3.61803 23.8786 3.73509 23.8334 3.8443C23.7881 3.95351 23.7218 4.05274 23.6382 4.13632L13.6382 14.1363C13.5546 14.2199 13.4554 14.2862 13.3462 14.3315C13.237 14.3767 13.1199 14.4 13.0017 14.4C12.8835 14.4 12.7664 14.3767 12.6572 14.3315C12.548 14.2862 12.4488 14.2199 12.3652 14.1363L9.36521 11.1363C9.1964 10.9675 9.10156 10.7386 9.10156 10.4998C9.10156 10.2611 9.1964 10.0321 9.36521 9.86332C9.53402 9.69451 9.76298 9.59967 10.0017 9.59967C10.2404 9.59967 10.4694 9.69451 10.6382 9.86332L13.0022 12.2273L22.3652 2.86332C22.4488 2.77971 22.548 2.71339 22.6572 2.66815C22.7664 2.6229 22.8835 2.59961 23.0017 2.59961C23.1199 2.59961 23.237 2.6229 23.3462 2.66815C23.4554 2.71339 23.5546 2.77971 23.6382 2.86332Z" fill="#2E3F55"/>
<path fill-rule="evenodd" clip-rule="evenodd" d="M4.99922 4.29922C4.68096 4.29922 4.37573 4.42565 4.15069 4.65069C3.92565 4.87573 3.79922 5.18096 3.79922 5.49922V19.4992C3.79922 19.8175 3.92565 20.1227 4.15069 20.3477C4.37573 20.5728 4.68096 20.6992 4.99922 20.6992H18.9992C19.3175 20.6992 19.6227 20.5728 19.8477 20.3477C20.0728 20.1227 20.1992 19.8175 20.1992 19.4992V13.4992C20.1992 13.287 20.2835 13.0836 20.4335 12.9335C20.5836 12.7835 20.787 12.6992 20.9992 12.6992C21.2114 12.6992 21.4149 12.7835 21.5649 12.9335C21.7149 13.0836 21.7992 13.287 21.7992 13.4992V19.4992C21.7992 19.8669 21.7268 20.231 21.5861 20.5707C21.4454 20.9104 21.2391 21.2191 20.9791 21.4791C20.7191 21.7391 20.4104 21.9454 20.0707 22.0861C19.731 22.2268 19.3669 22.2992 18.9992 22.2992H4.99922C4.25661 22.2992 3.54442 22.0042 3.01932 21.4791C2.49422 20.954 2.19922 20.2418 2.19922 19.4992V5.49922C2.19922 4.75661 2.49422 4.04442 3.01932 3.51932C3.54442 2.99422 4.25661 2.69922 4.99922 2.69922H14.9992C15.2114 2.69922 15.4149 2.7835 15.5649 2.93353C15.7149 3.08356 15.7992 3.28705 15.7992 3.49922C15.7992 3.71139 15.7149 3.91487 15.5649 4.0649C15.4149 4.21493 15.2114 4.29922 14.9992 4.29922H4.99922Z" fill="#2E3F55"/>
</svg>
