<svg width="24" height="25" viewBox="0 0 24 25" fill="none" xmlns="http://www.w3.org/2000/svg">
<path d="M1.95312 12.2743L2.42912 10.0703C7.41513 19.3043 16.4771 19.1663 20.3851 17.9423L19.0451 19.1023L16.3231 21.2903L12.9761 22.3603H9.45012L6.19312 20.5753L4.72012 19.4153L3.33613 17.1843L1.95312 14.9073V12.2743V12.2743Z" fill="#C9001F"/>
<path fill-rule="evenodd" clip-rule="evenodd" d="M15.7643 4.04436C13.9423 3.23245 11.9066 3.03128 9.96093 3.47084C8.01524 3.9104 6.26378 4.96714 4.96775 6.48345C3.67172 7.99977 2.90057 9.89441 2.76932 11.8848C2.63807 13.8752 3.15375 15.8547 4.23944 17.5281C5.32513 19.2015 6.92267 20.479 8.79379 21.1703C10.6649 21.8615 12.7093 21.9294 14.6222 21.3638C16.535 20.7982 18.2138 19.6294 19.4081 18.0317C20.6024 16.434 21.2482 14.4931 21.2493 12.4984V11.5784C21.2493 11.3794 21.3283 11.1887 21.4689 11.048C21.6096 10.9074 21.8004 10.8284 21.9993 10.8284C22.1982 10.8284 22.389 10.9074 22.5296 11.048C22.6703 11.1887 22.7493 11.3794 22.7493 11.5784V12.4984C22.7474 14.8162 21.9965 17.0713 20.6085 18.9276C19.2205 20.7839 17.2698 22.142 15.0471 22.7993C12.8245 23.4566 10.4489 23.378 8.27454 22.5752C6.10019 21.7724 4.2435 20.2883 2.98127 18.3444C1.71982 16.3997 1.12072 14.0994 1.27333 11.7864C1.42594 9.47345 2.32207 7.27178 3.8281 5.5097C5.33414 3.74762 7.36938 2.51954 9.63034 2.00858C11.8913 1.49762 14.2569 1.73115 16.3743 2.67436C16.5518 2.75791 16.6895 2.90768 16.7578 3.09156C16.8262 3.27544 16.8198 3.47878 16.74 3.65799C16.6602 3.83721 16.5134 3.97802 16.331 4.05025C16.1486 4.12247 15.9451 4.12036 15.7643 4.04436Z" fill="#2E3F55"/>
<path fill-rule="evenodd" clip-rule="evenodd" d="M22.6008 3.89881C22.7602 4.05821 22.8497 4.2744 22.8497 4.49981C22.8497 4.72522 22.7602 4.94141 22.6008 5.10081L12.6008 15.1108C12.5218 15.1899 12.4281 15.2526 12.3249 15.2954C12.2216 15.3382 12.111 15.3602 11.9993 15.3602C11.8875 15.3602 11.7769 15.3382 11.6737 15.2954C11.5705 15.2526 11.4767 15.1899 11.3978 15.1108L8.39777 12.1108C8.24156 11.9507 8.15478 11.7354 8.15627 11.5117C8.15775 11.2879 8.24738 11.0738 8.40571 10.9158C8.56404 10.7577 8.7783 10.6684 9.00202 10.6673C9.22574 10.6662 9.44088 10.7533 9.60077 10.9098L12.0008 13.3088L21.3968 3.89981C21.556 3.7403 21.7722 3.65058 21.9976 3.65039C22.223 3.6502 22.4392 3.73956 22.5988 3.89881H22.6008Z" fill="#2E3F55"/>
</svg>
