<svg width="24" height="24" viewBox="0 0 24 24" fill="none" xmlns="http://www.w3.org/2000/svg">
<mask id="path-1-inside-1_3663_65593" fill="white">
<path fill-rule="evenodd" clip-rule="evenodd" d="M8.15801 9.34181C8.15801 11.1964 9.66366 12.6836 11.4998 12.6836C13.3359 12.6836 14.8416 11.178 14.8416 9.34181C14.8416 7.48726 13.3359 6 11.4998 6C9.66373 6 8.15801 7.50565 8.15801 9.34181ZM9.00232 21.0003L13.0023 21.5003L17.89 19.4107C17.89 19.3653 17.9182 19.3886 17.9456 19.4112C17.9725 19.4332 17.9985 19.4547 17.9966 19.4107C17.9833 19.101 17.9473 18.797 17.89 18.5003C17.335 15.625 14.7904 13.4358 11.7594 13.4358H11.2453C8.21423 13.4358 5.66968 15.625 5.11466 18.5003C5.07373 18.7123 5.04362 18.9281 5.02493 19.147C5.0174 19.2352 5.03957 19.2472 5.06347 19.2601C5.08708 19.2729 5.11237 19.2865 5.11237 19.3755L9.00232 21.0003Z"/>
</mask>
<path fill-rule="evenodd" clip-rule="evenodd" d="M8.15801 9.34181C8.15801 11.1964 9.66366 12.6836 11.4998 12.6836C13.3359 12.6836 14.8416 11.178 14.8416 9.34181C14.8416 7.48726 13.3359 6 11.4998 6C9.66373 6 8.15801 7.50565 8.15801 9.34181ZM9.00232 21.0003L13.0023 21.5003L17.89 19.4107C17.89 19.3653 17.9182 19.3886 17.9456 19.4112C17.9725 19.4332 17.9985 19.4547 17.9966 19.4107C17.9833 19.101 17.9473 18.797 17.89 18.5003C17.335 15.625 14.7904 13.4358 11.7594 13.4358H11.2453C8.21423 13.4358 5.66968 15.625 5.11466 18.5003C5.07373 18.7123 5.04362 18.9281 5.02493 19.147C5.0174 19.2352 5.03957 19.2472 5.06347 19.2601C5.08708 19.2729 5.11237 19.2865 5.11237 19.3755L9.00232 21.0003Z" fill="#C9001F"/>
<path d="M13.0023 21.5003L12.8783 22.4926L13.1467 22.5261L13.3954 22.4198L13.0023 21.5003ZM9.00232 21.0003L8.61691 21.923L8.74285 21.9756L8.87829 21.9926L9.00232 21.0003ZM17.89 19.4107L18.2831 20.3302L18.89 20.0708V19.4107H17.89ZM17.9456 19.4112L18.5814 18.6392L18.5813 18.6392L17.9456 19.4112ZM17.9966 19.4107L16.9975 19.4535L16.9975 19.4535L17.9966 19.4107ZM17.89 18.5003L16.9081 18.6898L16.9081 18.6898L17.89 18.5003ZM5.11466 18.5003L4.13278 18.3107L4.13278 18.3107L5.11466 18.5003ZM5.02493 19.147L6.02131 19.232L6.02131 19.232L5.02493 19.147ZM5.06347 19.2601L5.53916 18.3805L5.53916 18.3805L5.06347 19.2601ZM5.11237 19.3755H4.11237V20.0416L4.72696 20.2983L5.11237 19.3755ZM11.4998 11.6836C10.2124 11.6836 9.15801 10.6405 9.15801 9.34181H7.15801C7.15801 11.7522 9.11496 13.6836 11.4998 13.6836V11.6836ZM13.8416 9.34181C13.8416 10.6257 12.7836 11.6836 11.4998 11.6836V13.6836C13.8882 13.6836 15.8416 11.7303 15.8416 9.34181H13.8416ZM11.4998 7C12.7872 7 13.8416 8.04313 13.8416 9.34181H15.8416C15.8416 6.93138 13.8846 5 11.4998 5V7ZM9.15801 9.34181C9.15801 8.05795 10.216 7 11.4998 7V5C9.11145 5 7.15801 6.95335 7.15801 9.34181H9.15801ZM13.1264 20.508L9.12635 20.008L8.87829 21.9926L12.8783 22.4926L13.1264 20.508ZM17.4969 18.4912L12.6092 20.5808L13.3954 22.4198L18.2831 20.3302L17.4969 18.4912ZM18.5813 18.6392C18.5811 18.639 18.5465 18.6099 18.5067 18.5815C18.4843 18.5655 18.3605 18.4742 18.1792 18.4231C18.0785 18.3946 17.9028 18.3618 17.691 18.4071C17.4562 18.4574 17.2546 18.5876 17.1134 18.7645C16.8841 19.0516 16.89 19.362 16.89 19.4107H18.89C18.89 19.4367 18.8994 19.733 18.6763 20.0124C18.5381 20.1855 18.3402 20.3134 18.1097 20.3628C17.9022 20.4072 17.7313 20.3748 17.6358 20.3478C17.4651 20.2996 17.3535 20.2156 17.3441 20.2089C17.3173 20.1897 17.2965 20.172 17.31 20.1831L18.5813 18.6392ZM16.9975 19.4535C16.9969 19.4384 16.9731 19.1549 17.1656 18.8711C17.2892 18.6889 17.4839 18.5348 17.7336 18.469C17.9575 18.41 18.1442 18.4434 18.2451 18.4709C18.424 18.5198 18.541 18.609 18.5475 18.6136C18.5741 18.6327 18.5949 18.6503 18.5814 18.6392L17.3099 20.1831C17.3122 20.1849 17.3215 20.1926 17.3317 20.2008C17.3422 20.2092 17.3603 20.2234 17.3828 20.2395C17.4017 20.253 17.5302 20.349 17.7187 20.4004C17.8244 20.4293 18.0155 20.463 18.2431 20.403C18.4967 20.3362 18.6946 20.1798 18.8208 19.9938C19.0185 19.7023 18.9973 19.405 18.9957 19.368L16.9975 19.4535ZM16.9081 18.6898C16.9561 18.9384 16.9864 19.1934 16.9975 19.4535L18.9957 19.368C18.9803 19.0087 18.9384 18.6556 18.8719 18.3107L16.9081 18.6898ZM11.7594 14.4358C14.3003 14.4358 16.4418 16.2742 16.9081 18.6898L18.8719 18.3107C18.2281 14.9757 15.2805 12.4358 11.7594 12.4358V14.4358ZM11.2453 14.4358H11.7594V12.4358H11.2453V14.4358ZM6.09653 18.6898C6.56281 16.2742 8.70434 14.4358 11.2453 14.4358V12.4358C7.72411 12.4358 4.77654 14.9757 4.13278 18.3107L6.09653 18.6898ZM6.02131 19.232C6.03699 19.0484 6.06224 18.8675 6.09653 18.6898L4.13278 18.3107C4.08522 18.5571 4.05025 18.8078 4.02856 19.0619L6.02131 19.232ZM5.53916 18.3805C5.52712 18.374 5.78663 18.4954 5.9321 18.7952C6.04527 19.0285 6.02176 19.2268 6.02131 19.232L4.02856 19.0619C4.02058 19.1554 4.00439 19.4038 4.13273 19.6683C4.29338 19.9994 4.57593 20.1333 4.58778 20.1397L5.53916 18.3805ZM6.11237 19.3755C6.11237 19.261 6.10069 19.0292 5.96382 18.791C5.80223 18.5098 5.55973 18.3916 5.53916 18.3805L4.58778 20.1397C4.59082 20.1413 4.37277 20.0364 4.22973 19.7875C4.11141 19.5816 4.11237 19.4011 4.11237 19.3755H6.11237ZM9.38773 20.0775L5.49778 18.4528L4.72696 20.2983L8.61691 21.923L9.38773 20.0775Z" fill="#2E3F55" mask="url(#path-1-inside-1_3663_65593)"/>
<path fill-rule="evenodd" clip-rule="evenodd" d="M11.5 2.75C6.66751 2.75 2.75 6.66751 2.75 11.5C2.75 16.3325 6.66751 20.25 11.5 20.25C16.3325 20.25 20.25 16.3325 20.25 11.5C20.25 6.66751 16.3325 2.75 11.5 2.75ZM1.25 11.5C1.25 5.83908 5.83908 1.25 11.5 1.25C17.1609 1.25 21.75 5.83908 21.75 11.5C21.75 17.1609 17.1609 21.75 11.5 21.75C5.83908 21.75 1.25 17.1609 1.25 11.5Z" fill="#2E3F55"/>
<path d="M17.6719 19.3789L18.7325 18.3182L22.6192 22.2049C22.9121 22.4978 22.9121 22.9727 22.6192 23.2656V23.2656C22.3263 23.5585 21.8514 23.5585 21.5585 23.2656L17.6719 19.3789Z" fill="#2E3F55"/>
</svg>
