<svg width="24" height="25" viewBox="0 0 24 25" fill="none" xmlns="http://www.w3.org/2000/svg">
<path d="M6.10563 16.4606L2.01562 11.2086L2.28062 13.9556L3.80262 16.4606L5.74663 17.9406L7.64863 18.5746L10.1846 18.9546L15.2216 17.2736L19.6936 22.1596L21.2156 21.2386L16.7116 15.7056L18.4616 10.4746L15.2216 13.9556L11.9286 11.2086L9.36363 13.5886L6.10563 16.4606V16.4606Z" fill="#C9001F"/>
<path d="M19.0697 8.62664C19.5714 10.8402 19.2325 13.1611 18.1187 15.1387C17.0049 17.1163 15.1958 18.6093 13.0428 19.3277C10.8898 20.046 8.54671 19.9385 6.46858 19.026C4.39045 18.1134 2.7257 16.461 1.79772 14.3897C0.869735 12.3184 0.744772 9.97617 1.44711 7.81791C2.14944 5.65966 3.62892 3.8395 5.59816 2.71102C7.5674 1.58255 9.88579 1.22632 12.103 1.71154C14.3202 2.19676 16.2778 3.48879 17.5957 5.33664L16.4157 6.17864C15.3069 4.62378 13.6598 3.53656 11.7943 3.12819C9.92872 2.71982 7.97798 3.01945 6.321 3.96888C4.66402 4.91831 3.41909 6.44975 2.82806 8.2657C2.23703 10.0817 2.3421 12.0525 3.12284 13.7953C3.90359 15.5381 5.30427 16.9285 7.0528 17.6964C8.80133 18.4643 10.7729 18.5548 12.5844 17.9504C14.396 17.346 15.9182 16.0899 16.8554 14.4259C17.7926 12.762 18.0778 10.8091 17.6557 8.94664L19.0697 8.62664Z" fill="#2E3F55"/>
<path fill-rule="evenodd" clip-rule="evenodd" d="M19.0693 8.62683C19.5714 10.8401 19.233 13.1609 18.1198 15.1386C17.0066 17.1164 15.1981 18.6097 13.0455 19.3287C10.8929 20.0477 8.54993 19.941 6.47163 19.0292C4.39333 18.1175 2.72807 16.4659 1.79929 14.3952C0.870506 12.3244 0.744508 9.98242 1.44576 7.82399C2.14702 5.66557 3.62547 3.84482 5.59396 2.71538C7.56245 1.58595 9.88046 1.22846 12.0978 1.71235C14.3151 2.19624 16.2734 3.48696 17.5923 5.33383C17.5943 5.33383 17.5943 5.33583 17.5953 5.33683L16.4153 6.17883C15.3065 4.62397 13.6594 3.53675 11.7939 3.12838C9.92832 2.72001 7.97758 3.01964 6.3206 3.96907C4.66362 4.9185 3.41869 6.44994 2.82766 8.26589C2.23663 10.0818 2.3417 12.0527 3.12244 13.7955C3.90319 15.5383 5.30387 16.9287 7.0524 17.6966C8.80093 18.4645 10.7725 18.555 12.584 17.9506C14.3956 17.3462 15.9178 16.0901 16.855 14.4261C17.7922 12.7622 18.0774 10.8093 17.6553 8.94683L19.0693 8.62683Z" fill="#2E3F55"/>
<path fill-rule="evenodd" clip-rule="evenodd" d="M16.8917 17.256L16.2247 17.924L19.8527 21.547C19.9415 21.6347 20.0613 21.6837 20.1861 21.6833C20.3108 21.6829 20.4304 21.6331 20.5185 21.5448C20.6067 21.4565 20.6563 21.3369 20.6565 21.2121C20.6567 21.0874 20.6076 20.9676 20.5197 20.879L16.8917 17.256ZM14.3867 17.926L18.9337 22.466C19.2683 22.7873 19.7156 22.9646 20.1795 22.9597C20.6434 22.9549 21.0869 22.7683 21.4148 22.4401C21.7426 22.1118 21.9287 21.6681 21.933 21.2042C21.9372 20.7403 21.7594 20.2932 21.4377 19.959L16.8907 15.418L14.3867 17.926Z" fill="#2E3F55"/>
<path d="M20.6265 3.93164L21.4615 5.08164L14.2765 10.8946L12.1135 8.44064L12.0935 8.41864L12.0705 8.43664L5.51553 13.6496L4.64453 12.4916L8.29553 9.58764L12.2445 6.35964L14.4435 8.82164L14.4635 8.84364L14.4855 8.82564L20.6255 3.93164H20.6265Z" fill="#2E3F55" stroke="#2E3F55" stroke-width="0.062"/>
<path d="M19.4701 3.52816C19.395 3.54359 19.3253 3.57852 19.268 3.62943C19.2106 3.68034 19.1677 3.74544 19.1435 3.8182C19.1192 3.89095 19.1146 3.9688 19.13 4.04392C19.1454 4.11904 19.1803 4.18879 19.2311 4.24616L19.4691 3.52816H19.4701ZM19.4701 3.52816L22.4461 2.91316L19.4701 3.52816ZM19.4691 3.52816L22.4461 2.91316L19.4691 3.52816ZM22.4461 2.91316C22.5211 2.89785 22.5988 2.90244 22.6714 2.92647C22.744 2.95051 22.8091 2.99315 22.8601 3.05016L22.4461 2.91316ZM22.4461 2.91316L22.8601 3.05016L22.4461 2.91316ZM22.8601 3.05016L22.8841 3.03016L22.8601 3.05016ZM22.8601 3.05016L22.8841 3.03016L22.8601 3.05016ZM22.8841 3.03016L22.8601 3.05016L22.8841 3.03016ZM22.8841 3.03016L22.8601 3.05016L22.8841 3.03016ZM22.8601 3.05016C22.9641 3.16716 22.9971 3.33016 22.9491 3.47816L22.8601 3.05016ZM21.2521 6.51616L19.2321 4.24616L22.9491 3.47816L21.9931 6.36316C21.9689 6.43571 21.926 6.50062 21.8688 6.55141C21.8116 6.6022 21.7421 6.63708 21.6672 6.65257C21.5922 6.66806 21.5146 6.66361 21.4419 6.63967C21.3693 6.61574 21.3042 6.57314 21.2531 6.51616H21.2521Z" fill="#2E3F55" stroke="#2E3F55" stroke-width="0.062"/>
</svg>
