<svg width="24" height="25" viewBox="0 0 24 25" fill="none" xmlns="http://www.w3.org/2000/svg">
<path d="M12 15.8047C12.394 15.8047 12.7841 15.7271 13.1481 15.5763C13.512 15.4256 13.8427 15.2046 14.1213 14.926C14.3999 14.6474 14.6209 14.3167 14.7716 13.9527C14.9224 13.5888 15 13.1987 15 12.8047C15 12.4107 14.9224 12.0206 14.7716 11.6566C14.6209 11.2927 14.3999 10.9619 14.1213 10.6834C13.8427 10.4048 13.512 10.1838 13.1481 10.033C12.7841 9.88228 12.394 9.80469 12 9.80469C11.2044 9.80469 10.4413 10.1208 9.87868 10.6834C9.31607 11.246 9 12.009 9 12.8047C9 13.6003 9.31607 14.3634 9.87868 14.926C10.4413 15.4886 11.2044 15.8047 12 15.8047V15.8047Z" fill="#C9001F"/>
<path fill-rule="evenodd" clip-rule="evenodd" d="M12.0016 10.4543C11.693 10.4543 11.3874 10.5151 11.1023 10.6332C10.8171 10.7513 10.5581 10.9244 10.3399 11.1426C10.1216 11.3608 9.94854 11.6199 9.83045 11.905C9.71235 12.1901 9.65156 12.4957 9.65156 12.8043C9.65156 13.1129 9.71235 13.4185 9.83045 13.7036C9.94854 13.9887 10.1216 14.2478 10.3399 14.466C10.5581 14.6842 10.8171 14.8573 11.1023 14.9754C11.3874 15.0935 11.693 15.1543 12.0016 15.1543C12.6248 15.1543 13.2226 14.9067 13.6633 14.466C14.104 14.0253 14.3516 13.4276 14.3516 12.8043C14.3516 12.181 14.104 11.5833 13.6633 11.1426C13.2226 10.7019 12.6248 10.4543 12.0016 10.4543V10.4543ZM8.35156 12.8043C8.35156 12.325 8.44597 11.8503 8.6294 11.4075C8.81283 10.9647 9.08169 10.5623 9.42062 10.2234C9.75956 9.88442 10.1619 9.61557 10.6048 9.43214C11.0476 9.24871 11.5222 9.1543 12.0016 9.1543C12.4809 9.1543 12.9555 9.24871 13.3984 9.43214C13.8412 9.61557 14.2436 9.88442 14.5825 10.2234C14.9214 10.5623 15.1903 10.9647 15.3737 11.4075C15.5572 11.8503 15.6516 12.325 15.6516 12.8043C15.6516 13.7723 15.267 14.7007 14.5825 15.3852C13.898 16.0697 12.9696 16.4543 12.0016 16.4543C11.0335 16.4543 10.1051 16.0697 9.42062 15.3852C8.73612 14.7007 8.35156 13.7723 8.35156 12.8043V12.8043Z" fill="#C9001F"/>
<path fill-rule="evenodd" clip-rule="evenodd" d="M12 2.55469C11.6685 2.55469 11.3505 2.68638 11.1161 2.9208C10.8817 3.15522 10.75 3.47317 10.75 3.80469V3.97769C10.748 4.44573 10.6092 4.90298 10.3507 5.29315C10.0922 5.68333 9.72524 5.9894 9.295 6.17369C9.22436 6.20395 9.14948 6.22317 9.073 6.23069C8.64817 6.38492 8.18843 6.41607 7.74668 6.32054C7.30493 6.225 6.89914 6.00668 6.576 5.69069L6.57 5.68469L6.51 5.62469C6.39491 5.50347 6.25672 5.40653 6.10357 5.33957C5.95042 5.27261 5.78541 5.237 5.61828 5.23484C5.45114 5.23267 5.28527 5.26399 5.13043 5.32695C4.9756 5.38991 4.83494 5.48324 4.71675 5.60143C4.59855 5.71962 4.50523 5.86029 4.44226 6.01512C4.3793 6.16996 4.34798 6.33583 4.35015 6.50297C4.35232 6.6701 4.38793 6.83511 4.45488 6.98826C4.52184 7.14141 4.61878 7.2796 4.74 7.39469L4.806 7.45969C5.13868 7.79959 5.36288 8.23067 5.45012 8.69821C5.53736 9.16576 5.48372 9.64868 5.296 10.0857C5.12664 10.5321 4.82798 10.9178 4.43822 11.1936C4.04846 11.4693 3.58531 11.6226 3.108 11.6337H3C2.66848 11.6337 2.35054 11.7654 2.11612 11.9998C1.8817 12.2342 1.75 12.5522 1.75 12.8837C1.75 13.2152 1.8817 13.5331 2.11612 13.7676C2.35054 14.002 2.66848 14.1337 3 14.1337H3.173C3.64054 14.1356 4.09733 14.274 4.48727 14.532C4.87722 14.7899 5.18333 15.1562 5.368 15.5857C5.56043 16.0241 5.61736 16.51 5.53147 16.9809C5.44558 17.4519 5.22079 17.8865 4.886 18.2287L4.88 18.2347L4.82 18.2947C4.67486 18.4404 4.56782 18.6196 4.50831 18.8164C4.44881 19.0133 4.43867 19.2217 4.47879 19.4234C4.51891 19.6251 4.60806 19.8139 4.73837 19.973C4.86869 20.1321 5.03615 20.2566 5.226 20.3357C5.45451 20.4305 5.706 20.4553 5.94863 20.4071C6.19126 20.3588 6.41412 20.2397 6.589 20.0647L6.656 19.9977C6.99592 19.6654 7.42688 19.4415 7.89422 19.3544C8.36155 19.2674 8.84422 19.3211 9.281 19.5087C9.72766 19.6778 10.1137 19.9763 10.3896 20.3661C10.6656 20.7559 10.8189 21.2192 10.83 21.6967V21.8047C10.83 22.1362 10.9617 22.4541 11.1961 22.6886C11.4305 22.923 11.7485 23.0547 12.08 23.0547C12.4115 23.0547 12.7295 22.923 12.9639 22.6886C13.1983 22.4541 13.33 22.1362 13.33 21.8047V21.6317C13.3317 21.1644 13.4699 20.7077 13.7275 20.3178C13.985 19.9279 14.3509 19.6217 14.78 19.4367C15.2185 19.244 15.7046 19.187 16.1758 19.2729C16.647 19.3588 17.0817 19.5837 17.424 19.9187L17.43 19.9237L17.49 19.9837C17.7249 20.2181 18.0432 20.3497 18.375 20.3497C18.7068 20.3497 19.0251 20.2181 19.26 19.9837C19.4344 19.8085 19.5532 19.5856 19.6014 19.3431C19.6496 19.1006 19.6251 18.8493 19.531 18.6207C19.4682 18.4689 19.3761 18.3309 19.26 18.2147L19.194 18.1487C18.859 17.8064 18.6341 17.3717 18.5482 16.9005C18.4623 16.4293 18.5193 15.9432 18.712 15.5047C18.897 15.0755 19.2032 14.7097 19.5931 14.4522C19.9831 14.1946 20.4397 14.0564 20.907 14.0547H21C21.3315 14.0547 21.6495 13.923 21.8839 13.6886C22.1183 13.4542 22.25 13.1362 22.25 12.8047C22.25 12.4732 22.1183 12.1552 21.8839 11.9208C21.6495 11.6864 21.3315 11.5547 21 11.5547H20.827C20.359 11.5527 19.9017 11.4139 19.5115 11.1554C19.1214 10.8969 18.8153 10.5299 18.631 10.0997C18.6003 10.0288 18.5808 9.95356 18.573 9.87669C18.4188 9.45186 18.3876 8.99211 18.4832 8.55037C18.5787 8.10862 18.797 7.70282 19.113 7.37969L19.12 7.37369L19.18 7.31369C19.3012 7.1986 19.3982 7.06041 19.4651 6.90726C19.5321 6.75411 19.5677 6.5891 19.5699 6.42197C19.572 6.25483 19.5407 6.08896 19.4777 5.93412C19.4148 5.77929 19.3214 5.63862 19.2033 5.52043C19.0851 5.40224 18.9444 5.30891 18.7896 5.24595C18.6347 5.18299 18.4689 5.15167 18.3017 5.15384C18.1346 5.156 17.9696 5.19162 17.8164 5.25857C17.6633 5.32553 17.5251 5.42247 17.41 5.54369L17.344 5.61069C17.0017 5.94531 16.5671 6.16991 16.0961 6.25563C15.6251 6.34134 15.1393 6.28425 14.701 6.09169C14.2718 5.90693 13.9059 5.60091 13.6482 5.21118C13.3904 4.82144 13.252 4.36494 13.25 3.89769V3.80469C13.25 3.47317 13.1183 3.15522 12.8839 2.9208C12.6495 2.68638 12.3315 2.55469 12 2.55469ZM19.4 15.8047L20.086 16.1077C20.0137 16.2717 19.9921 16.4535 20.0238 16.6299C20.0555 16.8062 20.1391 16.9691 20.264 17.0977L20.32 17.1537C20.5758 17.409 20.7787 17.7123 20.9171 18.0461C21.0556 18.3799 21.1268 18.7378 21.1268 19.0992C21.1268 19.4606 21.0556 19.8184 20.9171 20.1523C20.7787 20.4861 20.5758 20.7894 20.32 21.0447C20.0648 21.3004 19.7616 21.5033 19.4278 21.6417C19.0941 21.7802 18.7363 21.8514 18.375 21.8514C18.0137 21.8514 17.6559 21.7802 17.3222 21.6417C16.9884 21.5033 16.6852 21.3004 16.43 21.0447L16.373 20.9877C16.2443 20.863 16.0814 20.7795 15.905 20.748C15.7287 20.7165 15.5469 20.7383 15.383 20.8107L15.376 20.8137C15.2147 20.8827 15.077 20.9974 14.98 21.1436C14.883 21.2898 14.8309 21.4612 14.83 21.6367V21.8047C14.83 22.534 14.5403 23.2335 14.0245 23.7492C13.5088 24.265 12.8093 24.5547 12.08 24.5547C11.3507 24.5547 10.6512 24.265 10.1355 23.7492C9.61973 23.2335 9.33 22.534 9.33 21.8047V21.7247C9.32428 21.5455 9.26515 21.3721 9.16021 21.2267C9.05527 21.0813 8.90929 20.9706 8.741 20.9087C8.72615 20.9031 8.71148 20.8971 8.697 20.8907C8.53311 20.8183 8.35134 20.7965 8.17497 20.828C7.9986 20.8595 7.83566 20.943 7.707 21.0677L7.651 21.1247C7.13515 21.6407 6.43546 21.9306 5.70585 21.9307C4.97624 21.9308 4.27648 21.641 3.7605 21.1252C3.24452 20.6093 2.95459 19.9097 2.9545 19.18C2.95441 18.4504 3.24415 17.7507 3.76 17.2347L3.816 17.1777C3.94086 17.0491 4.0245 16.8862 4.05621 16.7099C4.08793 16.5335 4.06626 16.3517 3.994 16.1877L3.991 16.1797C3.92183 16.0185 3.80709 15.8811 3.66088 15.7843C3.51467 15.6875 3.34336 15.6355 3.168 15.6347H3C2.27065 15.6347 1.57118 15.345 1.05546 14.8292C0.539731 14.3135 0.25 13.614 0.25 12.8847C0.25 12.1553 0.539731 11.4559 1.05546 10.9401C1.57118 10.4244 2.27065 10.1347 3 10.1347H3.08C3.25933 10.1289 3.43283 10.0696 3.57823 9.96449C3.72363 9.85936 3.83429 9.71317 3.896 9.54469C3.90155 9.53017 3.90755 9.51583 3.914 9.50169C3.98626 9.3377 4.00793 9.15587 3.97621 8.9795C3.9445 8.80312 3.86086 8.64023 3.736 8.51169L3.68 8.45469C3.41126 8.20231 3.19598 7.89851 3.04692 7.56132C2.89786 7.22413 2.81807 6.86043 2.81229 6.49181C2.80651 6.12319 2.87485 5.75717 3.01325 5.41547C3.15166 5.07377 3.35731 4.76337 3.61799 4.50268C3.87868 4.242 4.18908 4.03635 4.53078 3.89794C4.87248 3.75953 5.2385 3.69119 5.60712 3.69698C5.97574 3.70276 6.33944 3.78255 6.67663 3.93161C7.01382 4.08066 7.31762 4.29595 7.57 4.56469L7.627 4.62069C7.75554 4.74555 7.91844 4.82919 8.09481 4.8609C8.27119 4.89261 8.45301 4.87095 8.617 4.79869C8.67758 4.7717 8.74147 4.75287 8.807 4.74269C8.94114 4.66363 9.05247 4.55112 9.13012 4.41615C9.20777 4.28119 9.24907 4.12839 9.25 3.97269V3.80469C9.25 3.07534 9.53973 2.37587 10.0555 1.86014C10.5712 1.34442 11.2707 1.05469 12 1.05469C12.7293 1.05469 13.4288 1.34442 13.9445 1.86014C14.4603 2.37587 14.75 3.07534 14.75 3.80469V3.89269C14.751 4.06788 14.8031 4.23897 14.8999 4.38499C14.9967 4.531 15.134 4.64559 15.295 4.71469L15.303 4.71769C15.4669 4.79008 15.6487 4.8119 15.825 4.78037C16.0014 4.74884 16.1643 4.66538 16.293 4.54069L16.349 4.48469C16.6018 4.21777 16.9056 4.00422 17.2423 3.85665C17.579 3.70907 17.9419 3.63046 18.3095 3.62545C18.6771 3.62045 19.042 3.68915 19.3826 3.82751C19.7232 3.96586 20.0327 4.17106 20.2927 4.43099C20.5527 4.69092 20.758 5.00031 20.8964 5.3409C21.0348 5.68148 21.1036 6.04635 21.0987 6.41396C21.0938 6.78157 21.0153 7.14447 20.8678 7.48124C20.7203 7.818 20.5068 8.1218 20.24 8.37469L20.184 8.43169C20.0591 8.56023 19.9755 8.72312 19.9438 8.8995C19.9121 9.07587 19.9337 9.2577 20.006 9.42169C20.033 9.48169 20.052 9.54669 20.061 9.61169C20.1401 9.74583 20.2526 9.85716 20.3875 9.93481C20.5225 10.0125 20.6753 10.0538 20.831 10.0547H21C21.7293 10.0547 22.4288 10.3444 22.9445 10.8601C23.4603 11.3759 23.75 12.0753 23.75 12.8047C23.75 13.534 23.4603 14.2335 22.9445 14.7492C22.4288 15.265 21.7293 15.5547 21 15.5547H20.912C20.7366 15.5555 20.5653 15.6075 20.4191 15.7043C20.2729 15.8011 20.1582 15.9385 20.089 16.0997L19.4 15.8047Z" fill="#2E3F55"/>
</svg>
