<svg width="16" height="16" viewBox="0 0 16 16" fill="none" xmlns="http://www.w3.org/2000/svg">
<path d="M3.67309 14.3169H12.3511C12.7239 14.319 13.0839 14.1813 13.3601 13.9309C13.6271 13.6839 13.7781 13.3489 13.7781 12.9999V3.35989C13.778 3.34023 13.7738 3.32081 13.7657 3.30289C13.7576 3.28497 13.7458 3.26896 13.7311 3.25589C13.7005 3.22801 13.6605 3.21267 13.6191 3.21289C13.5777 3.21276 13.5378 3.2281 13.5071 3.25589C13.4927 3.26897 13.4813 3.28487 13.4733 3.30259C13.4654 3.32032 13.4613 3.33948 13.4611 3.35889V12.9999C13.46 13.1365 13.4306 13.2714 13.3746 13.396C13.3187 13.5207 13.2375 13.6323 13.1361 13.7239C12.9271 13.9159 12.6461 14.0239 12.3511 14.0239H3.67309C3.37909 14.0239 3.09609 13.9169 2.88809 13.7239C2.78672 13.6323 2.70548 13.5207 2.64954 13.396C2.59359 13.2714 2.56415 13.1365 2.56309 12.9999V3.35989C2.56313 3.3403 2.55905 3.32093 2.55113 3.30301C2.54321 3.2851 2.53161 3.26905 2.51709 3.25589C2.48643 3.2281 2.44648 3.21276 2.40509 3.21289C2.36371 3.21276 2.32376 3.2281 2.29309 3.25589C2.27852 3.26884 2.26681 3.28469 2.25872 3.30243C2.25062 3.32017 2.24632 3.3394 2.24609 3.35889V12.9999C2.24609 13.3499 2.39609 13.6839 2.66409 13.9309C2.93209 14.1779 3.29409 14.3169 3.67309 14.3169Z" fill="#C9001F" stroke="#C9001F" stroke-width="0.5"/>
<path d="M7.99983 9.64284C8.03583 9.64284 8.06983 9.62884 8.09583 9.60384C8.10838 9.5918 8.11838 9.57737 8.12525 9.56139C8.13212 9.54542 8.13572 9.52823 8.13583 9.51084V2.09384L10.7758 4.67384C10.8019 4.69574 10.8352 4.70715 10.8692 4.70586C10.9032 4.70457 10.9355 4.69066 10.9598 4.66684C10.984 4.64355 10.9983 4.6118 10.9996 4.57825C11.0009 4.54469 10.9891 4.51194 10.9668 4.48684L8.09683 1.68184C8.07121 1.65668 8.03674 1.64258 8.00083 1.64258C7.96492 1.64258 7.93045 1.65668 7.90483 1.68184L5.03283 4.48784C5.01052 4.51294 4.99879 4.54569 5.0001 4.57925C5.0014 4.6128 5.01564 4.64455 5.03983 4.66784C5.06422 4.69124 5.0964 4.70479 5.13018 4.7059C5.16396 4.70701 5.19696 4.69559 5.22283 4.67384L7.86483 2.09384V9.51084C7.86494 9.52823 7.86853 9.54542 7.8754 9.56139C7.88227 9.57737 7.89228 9.5918 7.90483 9.60384C7.92983 9.62884 7.96483 9.64384 7.99983 9.64384V9.64284Z" fill="#C9001F" stroke="#C9001F" stroke-width="0.5"/>
</svg>
