<svg width="16" height="16" viewBox="0 0 16 16" fill="none" xmlns="http://www.w3.org/2000/svg">
<path fill-rule="evenodd" clip-rule="evenodd" d="M4.14993 2.193C5.31493 1.415 6.68493 1 8.08693 1C9.96493 1.002 11.7649 1.75 13.0929 3.077C14.4209 4.405 15.1679 6.205 15.1699 8.083C15.1699 9.485 14.7549 10.855 13.9769 12.02C13.1979 13.185 12.0919 14.094 10.7969 14.63C9.50193 15.167 8.07693 15.307 6.70293 15.034C5.32893 14.761 4.06593 14.086 3.07493 13.094C2.08493 12.104 1.40893 10.841 1.13593 9.467C0.862927 8.092 1.00293 6.667 1.53993 5.373C2.07593 4.078 2.98393 2.972 4.14993 2.193V2.193ZM4.34293 13.687C5.45093 14.427 6.75293 14.822 8.08693 14.822C9.87293 14.819 11.5849 14.109 12.8479 12.845C14.1109 11.582 14.8209 9.87 14.8229 8.083C14.8229 6.75 14.4279 5.448 13.6879 4.339C12.9479 3.231 11.8949 2.368 10.6629 1.858C9.43193 1.348 8.07693 1.214 6.76993 1.474C5.46293 1.734 4.26193 2.377 3.31993 3.319C2.37693 4.262 1.73593 5.463 1.47593 6.769C1.21593 8.077 1.34993 9.432 1.85993 10.663C2.36993 11.894 3.23393 12.947 4.34293 13.687V13.687ZM7.19893 3.657H7.64893V8.044L10.7419 10.519L10.4089 10.742L7.25793 8.22C7.21993 8.19 7.19993 8.15 7.19893 8.109V3.657Z" fill="#DE2F24"/>
<path d="M8.08774 1.00078V0.800781V1.00078ZM4.15074 2.19378L4.26074 2.36078L4.15074 2.19378ZM13.0937 3.07778L12.9517 3.21978L13.0937 3.07778ZM15.1707 8.08378H15.3707H15.1707ZM10.7977 14.6308L10.7217 14.4468L10.7977 14.6308ZM3.07574 13.0958L2.93474 13.2368L3.07574 13.0958ZM1.54074 5.37378L1.72474 5.44978L1.54074 5.37378ZM8.08774 14.8228V15.0228V14.8228ZM4.34374 13.6878L4.45374 13.5218L4.34374 13.6878ZM12.8487 12.8458L12.9907 12.9878L12.8487 12.8458ZM14.8237 8.08378H15.0237H14.8237ZM10.6637 1.85878L10.5877 2.04278L10.6637 1.85878V1.85878ZM6.77074 1.47478L6.73074 1.27878L6.77074 1.47478ZM3.32074 3.32078L3.17874 3.17978L3.32074 3.32078ZM1.47674 6.77078L1.28074 6.73278L1.47674 6.77178V6.77078ZM1.86074 10.6648L2.04574 10.5888L1.86074 10.6648ZM7.65074 3.65878H7.85074V3.45878H7.65074V3.65878ZM7.20074 3.65878V3.45878H7.00074V3.65878H7.20074ZM7.65074 8.04578H7.45074V8.14278L7.52574 8.20278L7.65074 8.04578ZM10.7427 10.5208L10.8537 10.6868L11.0807 10.5348L10.8677 10.3648L10.7427 10.5208V10.5208ZM10.4097 10.7438L10.2847 10.8998L10.3987 10.9918L10.5207 10.9098L10.4097 10.7438ZM7.25874 8.22078L7.13274 8.37578L7.25874 8.22078ZM7.19974 8.10978H7.00074H7.20074H7.19974ZM8.08774 0.800781C6.64674 0.800781 5.23774 1.22778 4.03974 2.02778L4.26174 2.36078C5.39374 1.60378 6.72574 1.20078 8.08774 1.20078V0.800781ZM13.2347 2.93678C11.8707 1.57078 10.0187 0.802781 8.08774 0.800781V1.20078C9.91174 1.20278 11.6617 1.92878 12.9517 3.21978L13.2347 2.93678V2.93678ZM15.3707 8.08378C15.3687 6.15378 14.6007 4.30178 13.2347 2.93678L12.9517 3.21978C14.2417 4.50978 14.9687 6.25978 14.9707 8.08478L15.3707 8.08378V8.08378ZM14.1437 12.1318C14.9437 10.9338 15.3707 9.52478 15.3707 8.08378H14.9707C14.9707 9.44578 14.5677 10.7778 13.8107 11.9098L14.1437 12.1318ZM10.8737 14.8158C12.2057 14.2648 13.3437 13.3298 14.1437 12.1318L13.8107 11.9098C13.0547 13.0418 11.9797 13.9248 10.7207 14.4468L10.8747 14.8168L10.8737 14.8158ZM6.66474 15.2308C8.07874 15.5118 9.54274 15.3678 10.8747 14.8158L10.7217 14.4458C9.46274 14.9678 8.07874 15.1038 6.74274 14.8388L6.66474 15.2308V15.2308ZM2.93474 13.2368C3.95374 14.2568 5.25174 14.9498 6.66474 15.2308L6.74274 14.8388C5.40774 14.5728 4.18074 13.9168 3.21774 12.9538L2.93474 13.2368V13.2368ZM0.940745 9.50678C1.22074 10.9198 1.91574 12.2178 2.93474 13.2368L3.21774 12.9538C2.25474 11.9918 1.59774 10.7638 1.33274 9.42878L0.940745 9.50678V9.50678ZM1.35574 5.29678C0.803745 6.62878 0.659745 8.09278 0.940745 9.50678L1.33274 9.42878C1.06774 8.09278 1.20374 6.70878 1.72474 5.44978L1.35474 5.29678H1.35574ZM4.03974 2.02778C2.84174 2.82778 1.90674 3.96578 1.35574 5.29778L1.72574 5.44978C2.24574 4.19178 3.12874 3.11678 4.26174 2.35978L4.03974 2.02778V2.02778ZM8.08774 14.6228C6.79374 14.6228 5.52974 14.2398 4.45474 13.5218L4.23274 13.8538C5.37274 14.6158 6.71474 15.0228 8.08774 15.0228V14.6228V14.6228ZM12.7077 12.7048C11.4817 13.9308 9.82074 14.6198 8.08774 14.6228V15.0228C9.92774 15.0198 11.6897 14.2878 12.9907 12.9878L12.7077 12.7048V12.7048ZM14.6237 8.08478C14.6227 9.81678 13.9337 11.4788 12.7077 12.7048L12.9907 12.9878C14.2907 11.6878 15.0217 9.92378 15.0237 8.08378H14.6237V8.08478ZM13.5217 4.45078C14.2407 5.52578 14.6237 6.78978 14.6237 8.08278H15.0237C15.0237 6.71078 14.6167 5.36878 13.8537 4.22778L13.5217 4.45078ZM10.5877 2.04178C11.7827 2.53678 12.8037 3.37478 13.5217 4.45078L13.8547 4.22778C13.0927 3.08778 12.0087 2.19778 10.7407 1.67278L10.5877 2.04278V2.04178ZM6.80974 1.67078C8.07774 1.41778 9.39274 1.54778 10.5877 2.04178L10.7407 1.67178C9.47274 1.14778 8.07774 1.00978 6.73074 1.27778L6.80974 1.67078V1.67078ZM3.46074 3.46078C4.37474 2.54578 5.54074 1.92278 6.80874 1.67078L6.73074 1.27778C5.38474 1.54578 4.14774 2.20778 3.17774 3.17778L3.46074 3.46078V3.46078ZM1.67274 6.80978C1.92474 5.54078 2.54774 4.37578 3.46274 3.46178L3.17874 3.17878C2.20874 4.14878 1.54874 5.38578 1.28074 6.73178L1.67274 6.80978V6.80978ZM2.04574 10.5878C1.55074 9.39278 1.42074 8.07778 1.67274 6.80978L1.28074 6.73078C1.01274 8.07678 1.15074 9.47078 1.67574 10.7398L2.04574 10.5868V10.5878ZM4.45474 13.5218C3.37874 12.8028 2.54074 11.7818 2.04474 10.5878L1.67574 10.7408C2.20174 12.0088 3.09074 13.0918 4.23274 13.8538L4.45474 13.5218V13.5218ZM7.65074 3.45778H7.20074V3.85778H7.65074V3.45778ZM7.85074 8.04478V3.65778H7.45074V8.04478H7.85074ZM10.8677 10.3628L7.77474 7.88878L7.52474 8.20178L10.6177 10.6758L10.8677 10.3628ZM10.5207 10.9088L10.8537 10.6858L10.6307 10.3528L10.2977 10.5768L10.5207 10.9088ZM7.13374 8.37678L10.2837 10.8988L10.5337 10.5868L7.38374 8.06478L7.13374 8.37678V8.37678ZM6.99974 8.11078C6.99974 8.22278 7.05774 8.31578 7.13274 8.37578L7.38474 8.06578C7.38474 8.06578 7.38774 8.06778 7.39174 8.07578C7.39674 8.08378 7.39974 8.09578 7.39974 8.10878L7.00074 8.11078H6.99974ZM6.99974 3.65778V8.10978H7.39974V3.65778H7.00074H6.99974Z" fill="#DE2F24"/>
</svg>
