<svg width="24" height="24" viewBox="0 0 24 24" fill="none" xmlns="http://www.w3.org/2000/svg">
<path d="M16.9285 5.93301C16.9285 3.2085 14.72 1 11.9955 1C9.271 1 7.0625 3.2085 7.0625 5.93301C7.0625 8.65751 9.271 10.866 11.9955 10.866C14.7199 10.866 16.9285 8.65751 16.9285 5.93301ZM7.72912 5.93301C7.72912 3.58048 9.64298 1.66662 11.9955 1.66662C14.348 1.66662 16.2619 3.58048 16.2619 5.93301C16.2619 8.28554 14.348 10.1994 11.9955 10.1994C9.64298 10.1994 7.72912 8.28554 7.72912 5.93301Z" fill="#8296AF"/>
<path fill-rule="evenodd" clip-rule="evenodd" d="M6.5625 5.93301C6.5625 2.93236 8.99486 0.5 11.9955 0.5C14.9962 0.5 17.4285 2.93236 17.4285 5.93301C17.4285 8.93366 14.996 11.366 11.9955 11.366C8.99486 11.366 6.5625 8.93366 6.5625 5.93301ZM11.9955 2.16662C9.91912 2.16662 8.22912 3.85662 8.22912 5.93301C8.22912 8.0094 9.91912 9.69939 11.9955 9.69939C14.0719 9.69939 15.7619 8.0094 15.7619 5.93301C15.7619 3.85662 14.0719 2.16662 11.9955 2.16662Z" fill="#8296AF"/>
<path d="M2 17.7181V23.3844H10.316L7.00005 13.0518C7.00005 13.0518 2 13.1184 2 17.7181ZM4.74984 14.2791C5.44442 13.9431 6.15512 13.8084 6.58899 13.7538L9.27379 22.7178H2.66658V17.7181C2.66658 16.1042 3.36719 14.947 4.74984 14.2791Z" fill="#8296AF"/>
<path fill-rule="evenodd" clip-rule="evenodd" d="M7.36314 12.5469L11.0016 23.8844H1.5V17.7181C1.5 16.4716 1.84077 15.5013 2.37506 14.757C2.90559 14.0178 3.60613 13.53 4.28612 13.2081C4.96523 12.8867 5.63799 12.7239 6.1366 12.6408C6.38712 12.5991 6.59688 12.5769 6.74581 12.5652C6.82035 12.5593 6.87988 12.556 6.92192 12.5541C6.94295 12.5532 6.95962 12.5526 6.97163 12.5523L6.98611 12.5519L6.99066 12.5518L6.99225 12.5518C6.99252 12.5518 6.99338 12.5518 7.00005 13.0518L6.99338 12.5518L7.36314 12.5469ZM6.23572 14.317C5.86401 14.3901 5.40967 14.5153 4.96757 14.7292C4.35089 15.0271 3.90858 15.4221 3.61739 15.9029C3.32531 16.3851 3.16658 16.9844 3.16658 17.7181V22.2178H8.60209L6.23572 14.317Z" fill="#8296AF"/>
<path d="M22.0005 17.7181C22.0005 13.1184 17.0008 13.0518 17.0008 13.0518L13.7422 23.3844H22.0009L22.0005 17.7181ZM21.3339 22.7178H14.7833L17.413 13.7489C18.5089 13.8741 21.3335 14.5082 21.3335 17.7181L21.3339 22.7178Z" fill="#8296AF"/>
<path fill-rule="evenodd" clip-rule="evenodd" d="M17.0098 12.5518L17.0031 13.0518C17.0098 12.5518 17.0095 12.5518 17.0098 12.5518L17.0109 12.5518L17.0125 12.5519L17.017 12.552L17.0315 12.5523C17.0435 12.5527 17.0602 12.5532 17.0812 12.5541C17.1233 12.556 17.1828 12.5593 17.2573 12.5652C17.4062 12.577 17.616 12.5991 17.8665 12.6409C18.3651 12.724 19.0378 12.8867 19.7168 13.2081C20.3968 13.53 21.0973 14.0178 21.6278 14.757C22.162 15.5014 22.5028 16.4717 22.5028 17.7181C22.5028 17.7181 22.5028 17.7181 22.5028 17.7181L22.5032 23.8844H13.0625L16.6381 12.5469L17.0098 12.5518ZM17.7722 14.3087L15.4532 22.2178H20.8361L20.8358 17.7182C20.8358 16.2909 20.2218 15.4792 19.5046 14.9898C18.9329 14.5995 18.2783 14.4048 17.7722 14.3087Z" fill="#8296AF"/>
<path d="M15.6308 12.6562H8.35938L12.0034 23.5876L15.6308 12.6562Z" fill="#B7C3D1"/>
</svg>
