<svg width="16" height="16" viewBox="0 0 16 16" fill="none" xmlns="http://www.w3.org/2000/svg">
<path d="M3.67114 14.3169H12.3491C12.7271 14.3169 13.0901 14.1779 13.3581 13.9309C13.6251 13.6839 13.7761 13.3489 13.7761 12.9999V3.35989C13.7761 3.31989 13.7591 3.28289 13.7291 3.25589C13.6991 3.22789 13.6591 3.21289 13.6171 3.21289C13.5751 3.21289 13.5351 3.22789 13.5051 3.25589C13.4751 3.28289 13.4591 3.31989 13.4591 3.35889V12.9999C13.4591 13.2719 13.3421 13.5319 13.1341 13.7239C12.9251 13.9159 12.6441 14.0239 12.3491 14.0239H3.67114C3.37714 14.0239 3.09414 13.9169 2.88614 13.7239C2.67814 13.5319 2.56114 13.2719 2.56114 12.9999V3.35989C2.56114 3.31989 2.54414 3.28289 2.51514 3.25589C2.48514 3.22789 2.44514 3.21289 2.40314 3.21289C2.36114 3.21289 2.32014 3.22789 2.29114 3.25589C2.26114 3.28289 2.24414 3.31989 2.24414 3.35889V12.9999C2.24414 13.3499 2.39414 13.6839 2.66214 13.9309C2.93014 14.1779 3.29214 14.3169 3.67114 14.3169V14.3169Z" fill="#DE2F24" stroke="#DE2F24" stroke-width="0.5"/>
<path d="M8.00006 1.64358C7.96406 1.64358 7.93006 1.65758 7.90406 1.68158C7.87906 1.70658 7.86406 1.74058 7.86406 1.77558V9.19058L5.22406 6.61058C5.19806 6.58958 5.16406 6.57858 5.13006 6.57958C5.09606 6.58058 5.06406 6.59458 5.04006 6.61758C5.01606 6.64158 5.00106 6.67358 5.00006 6.70658C4.99906 6.73958 5.01006 6.77258 5.03306 6.79758L7.90306 9.60358C7.92906 9.62858 7.96306 9.64258 7.99906 9.64258C8.03506 9.64258 8.06906 9.62858 8.09506 9.60358L10.9671 6.79758C10.9901 6.77258 11.0011 6.73958 11.0001 6.70658C10.9991 6.67358 10.9851 6.64158 10.9601 6.61758C10.9361 6.59458 10.9041 6.58058 10.8701 6.57958C10.8361 6.57758 10.8031 6.58958 10.7771 6.61158L8.13506 9.19158V1.77458C8.13506 1.73958 8.12106 1.70558 8.09506 1.68058C8.07006 1.65658 8.03506 1.64258 8.00006 1.64258V1.64358Z" fill="#DE2F24" stroke="#DE2F24" stroke-width="0.5"/>
</svg>
