<svg width="34" height="34" viewBox="0 0 34 34" fill="none" xmlns="http://www.w3.org/2000/svg">
<path d="M30.75 17C30.75 9.40608 24.5939 3.25 17 3.25C9.40608 3.25 3.25 9.40608 3.25 17C3.25 24.5939 9.40608 30.75 17 30.75C24.5939 30.75 30.75 24.5939 30.75 17Z" fill="#F4F6F8"/>
<path d="M30.75 17C30.75 9.40608 24.5939 3.25 17 3.25C9.40608 3.25 3.25 9.40608 3.25 17C3.25 24.5939 9.40608 30.75 17 30.75C24.5939 30.75 30.75 24.5939 30.75 17Z" stroke="#EDF0F4" stroke-width="5.5"/>
<path fill-rule="evenodd" clip-rule="evenodd" d="M17.003 13C16.7908 13 16.5873 13.0843 16.4373 13.2343C16.2873 13.3843 16.203 13.5878 16.203 13.8V16.2H13.8C13.5878 16.2 13.3843 16.2843 13.2343 16.4343C13.0843 16.5843 13 16.7878 13 17C13 17.2122 13.0843 17.4157 13.2343 17.5657C13.3843 17.7157 13.5878 17.8 13.8 17.8H16.203V20.2C16.203 20.4122 16.2873 20.6157 16.4373 20.7657C16.5873 20.9157 16.7908 21 17.003 21C17.2152 21 17.4187 20.9157 17.5687 20.7657C17.7187 20.6157 17.803 20.4122 17.803 20.2V17.8H20.2C20.4122 17.8 20.6157 17.7157 20.7657 17.5657C20.9157 17.4157 21 17.2122 21 17C21 16.7878 20.9157 16.5843 20.7657 16.4343C20.6157 16.2843 20.4122 16.2 20.2 16.2H17.803V13.8C17.803 13.5878 17.7187 13.3843 17.5687 13.2343C17.4187 13.0843 17.2152 13 17.003 13Z" fill="#DE2F24"/>
</svg>
