<svg width="24" height="25" viewBox="0 0 24 25" fill="none" xmlns="http://www.w3.org/2000/svg">
<path fill-rule="evenodd" clip-rule="evenodd" d="M7.33 1.97C7.47052 1.82931 7.66115 1.75018 7.86 1.75H16.14C16.3388 1.75018 16.5295 1.82931 16.67 1.97L22.53 7.83C22.671 7.97 22.75 8.161 22.75 8.36V16.64C22.7498 16.8388 22.6707 17.0295 22.53 17.17L16.67 23.03C16.5295 23.1707 16.3388 23.2498 16.14 23.25H7.86C7.66115 23.2498 7.47052 23.1707 7.33 23.03L1.47 17.17C1.32931 17.0295 1.25018 16.8388 1.25 16.64V8.36C1.25018 8.16115 1.32931 7.97052 1.47 7.83L7.33 1.97V1.97ZM8.17 3.25L2.75 8.67V16.33L8.17 21.75H15.83L21.25 16.33V8.67L15.83 3.25H8.17Z" fill="#2E3F55"/>
<path d="M16.25 13.9157V10.2487C16.2498 10.088 16.2075 9.93014 16.1271 9.79096C16.0467 9.65178 15.9311 9.53617 15.792 9.45572L12.583 7.62272C12.4438 7.54232 12.2858 7.5 12.125 7.5C11.9642 7.5 11.8062 7.54232 11.667 7.62272L8.458 9.45572C8.31871 9.53626 8.20307 9.65202 8.12267 9.79139C8.04228 9.93076 7.99997 10.0888 8 10.2497V13.9167C8.00005 14.0775 8.0424 14.2354 8.12279 14.3746C8.20318 14.5138 8.31879 14.6293 8.458 14.7097L11.667 16.5427C11.8063 16.623 11.9642 16.6653 12.125 16.6653C12.2858 16.6653 12.4437 16.623 12.583 16.5427L15.792 14.7097C15.9312 14.6293 16.0468 14.5138 16.1272 14.3746C16.2076 14.2354 16.25 14.0775 16.25 13.9167V13.9157Z" fill="#DE2F24"/>
</svg>
