<svg width="16" height="16" viewBox="0 0 16 16" fill="none" xmlns="http://www.w3.org/2000/svg">
<path d="M12.4008 1.79883H3.74278C3.08478 1.79883 2.55078 2.22883 2.55078 2.76183V13.2388C2.55078 13.7708 3.08478 14.2018 3.74278 14.2018H12.4008C13.0588 14.2018 13.5928 13.7718 13.5928 13.2388V2.76183C13.5928 2.22983 13.0588 1.79883 12.4008 1.79883ZM13.3428 13.2388C13.3428 13.6588 12.9198 13.9998 12.4008 13.9998H3.74278C3.22278 13.9998 2.80078 13.6588 2.80078 13.2398V2.76083C2.80078 2.34083 3.22378 1.99983 3.74278 1.99983H12.4008C12.9208 1.99983 13.3428 2.34083 13.3428 2.75983V13.2398V13.2388Z" stroke="#DE2F24" stroke-width="0.5"/>
<path d="M8.80078 11.2018H4.80078M11.2008 4.80078H4.80078H11.2008ZM11.2008 8.00078H4.80078H11.2008Z" stroke="#DE2F24" stroke-width="0.8" stroke-linecap="round" stroke-linejoin="round"/>
</svg>
