<svg width="24" height="24" viewBox="0 0 24 24" fill="none" xmlns="http://www.w3.org/2000/svg">
<path d="M8.824 4H3L4.059 2H12.529L21 9H12L8.824 4Z" fill="#DE2F24"/>
<path d="M12 13L8.154 17L7 15.801" stroke="#2E3F55" stroke-width="1.7" stroke-linecap="round" stroke-linejoin="round"/>
<path d="M16.801 23C19.836 23 21.5 21.348 21.5 19.328V8.12C21.5 8.058 21.47 8.028 21.438 7.967C21.438 7.967 21.438 7.936 21.408 7.936C21.377 7.875 21.346 7.844 21.315 7.814L13.335 1.184C13.2903 1.13571 13.2388 1.09427 13.182 1.061C13.12 1.031 13.089 1.031 13.027 1H6.2C4.164 1 2.5 2.652 2.5 4.672V19.298C2.5 21.318 4.164 22.97 6.199 22.97H16.802V23H16.801ZM12.521 2.254L20.342 8.6H12.52V2.254H12.521ZM3.732 19.328V4.702C3.732 3.356 4.842 2.254 6.197 2.254H11.287V9.242C11.287 9.578 11.564 9.854 11.903 9.854H20.266V19.328C20.266 20.674 19.156 21.776 16.8 21.776H6.198C4.842 21.776 3.733 20.675 3.733 19.328H3.732Z" fill="#2E3F55"/>
<path d="M13.5 17H17.5" stroke="#2E3F55" stroke-width="1.5" stroke-linecap="round" stroke-linejoin="round"/>
</svg>
