<svg width="40" height="40" viewBox="0 0 40 40" fill="none" xmlns="http://www.w3.org/2000/svg">
<path d="M9.17637 35.7923H30.8714C31.8174 35.7923 32.7254 35.4453 33.3944 34.8283C34.0634 34.2103 34.4384 33.3733 34.4384 32.4993V8.39826C34.4382 8.34924 34.4278 8.30078 34.4078 8.25601C34.3879 8.21124 34.3587 8.17113 34.3224 8.13826C34.2456 8.06915 34.1457 8.03133 34.0424 8.03226C33.939 8.0317 33.8391 8.06987 33.7624 8.13926C33.7261 8.17202 33.6971 8.21196 33.6771 8.25655C33.6571 8.30115 33.6467 8.34941 33.6464 8.39826V32.4993C33.6464 33.1793 33.3534 33.8303 32.8334 34.3103C32.3134 34.7903 31.6074 35.0603 30.8714 35.0603H9.17637C8.44137 35.0603 7.73537 34.7903 7.21537 34.3103C6.9619 34.0813 6.75875 33.8022 6.6188 33.4906C6.47885 33.1791 6.40515 32.8418 6.40237 32.5003V8.39726C6.40221 8.34824 6.39181 8.29979 6.37183 8.25501C6.35186 8.21024 6.32275 8.17013 6.28637 8.13726C6.20953 8.06824 6.10966 8.03043 6.00637 8.03126C5.90295 8.0307 5.80307 8.06887 5.72637 8.13826C5.68994 8.17093 5.66072 8.21084 5.64057 8.25543C5.62043 8.30003 5.6098 8.34833 5.60938 8.39726V32.4983C5.60938 33.3723 5.98537 34.2093 6.65437 34.8273C7.34481 35.4528 8.2447 35.7968 9.17637 35.7913V35.7923Z" fill="#DE2F24" stroke="#DE2F24" stroke-width="0.5"/>
<path d="M19.9996 24.1059C20.0896 24.1059 20.1756 24.0719 20.2396 24.0099C20.2707 23.9794 20.2954 23.943 20.3122 23.9028C20.3291 23.8626 20.3377 23.8195 20.3376 23.7759V5.23491L26.9406 11.6849C27.0059 11.7395 27.0891 11.7679 27.1741 11.7645C27.2591 11.7612 27.3398 11.7264 27.4006 11.6669C27.4607 11.6085 27.4961 11.5292 27.4994 11.4455C27.5028 11.3618 27.4738 11.2799 27.4186 11.2169L20.2396 4.20391C20.1756 4.14202 20.0901 4.10742 20.0011 4.10742C19.9121 4.10742 19.8266 4.14202 19.7626 4.20391L12.5806 11.2189C12.5257 11.2819 12.4969 11.3635 12.5003 11.447C12.5036 11.5305 12.5388 11.6095 12.5986 11.6679C12.6595 11.7273 12.7403 11.7619 12.8253 11.765C12.9103 11.7682 12.9935 11.7396 13.0586 11.6849L19.6616 5.23491V23.7769C19.6616 23.8639 19.6966 23.9489 19.7606 24.0109C19.8236 24.0729 19.9106 24.1069 19.9996 24.1069V24.1059Z" fill="#DE2F24" stroke="#DE2F24" stroke-width="0.5"/>
</svg>
